# Blender 4.1.1
# www.blender.org
o '
v -0.026892 -0.285857 -0.100000
v -0.002988 -0.321713 -0.100000
v 0.026892 -0.298805 -0.100000
v 0.032869 -0.224104 -0.100000
v 0.007968 -0.201195 -0.100000
v -0.018924 -0.204183 -0.100000
v -0.030877 -0.227092 -0.100000
v -0.028884 -0.256474 -0.100000
v -0.168327 0.452191 -0.100000
v -0.168327 -0.121514 -0.100000
v -0.156375 -0.133466 -0.100000
v -0.125498 -0.121514 -0.100000
v -0.125498 0.452191 -0.100000
v -0.156375 0.464143 -0.100000
v -0.102590 0.452191 -0.100000
v -0.102590 -0.121514 -0.100000
v -0.071713 -0.134462 -0.100000
v -0.059761 -0.102590 -0.100000
v -0.060757 -0.059761 -0.100000
v -0.059761 0.452191 -0.100000
v -0.071713 0.465140 -0.100000
v -0.031873 0.452191 -0.100000
v -0.032869 0.048805 -0.100000
v -0.031873 -0.036853 -0.100000
v -0.031873 -0.121514 -0.100000
v -0.000996 -0.133466 -0.100000
v 0.010956 -0.121514 -0.100000
v 0.010956 0.452191 -0.100000
v -0.019920 0.464143 -0.100000
v 0.076693 0.215140 -0.100000
v 0.076693 0.048805 -0.100000
v 0.076693 -0.121514 -0.100000
v 0.088645 -0.133466 -0.100000
v 0.156374 -0.133466 -0.100000
v 0.167331 -0.121514 -0.100000
v 0.168327 0.452191 -0.100000
v 0.156374 0.464143 -0.100000
v 0.122510 0.464143 -0.100000
v 0.088645 0.464143 -0.100000
v 0.076693 0.452191 -0.100000
v 0.076693 0.382470 -0.100000
v -0.026892 -0.285857 0.100000
v -0.002988 -0.321713 0.100000
v 0.026892 -0.298805 0.100000
v 0.032869 -0.224104 0.100000
v 0.007968 -0.201195 0.100000
v -0.018924 -0.204183 0.100000
v -0.030876 -0.227092 0.100000
v -0.028884 -0.256474 0.100000
v -0.168327 0.452191 0.100000
v -0.168327 -0.121514 0.100000
v -0.156374 -0.133466 0.100000
v -0.125498 -0.121514 0.100000
v -0.125498 0.452191 0.100000
v -0.156374 0.464143 0.100000
v -0.102590 0.452191 0.100000
v -0.102590 -0.121514 0.100000
v -0.071713 -0.134462 0.100000
v -0.059761 -0.102590 0.100000
v -0.060757 -0.059761 0.100000
v -0.059761 0.452191 0.100000
v -0.071713 0.465140 0.100000
v -0.031872 0.452191 0.100000
v -0.032868 0.048805 0.100000
v -0.031872 -0.036853 0.100000
v -0.031872 -0.121514 0.100000
v -0.000996 -0.133466 0.100000
v 0.010956 -0.121514 0.100000
v 0.010956 0.452191 0.100000
v -0.019920 0.464143 0.100000
v 0.076693 0.215140 0.100000
v 0.076693 0.048805 0.100000
v 0.076693 -0.121514 0.100000
v 0.088645 -0.133466 0.100000
v 0.156375 -0.133466 0.100000
v 0.167331 -0.121514 0.100000
v 0.168327 0.452191 0.100000
v 0.156375 0.464143 0.100000
v 0.122510 0.464143 0.100000
v 0.088645 0.464143 0.100000
v 0.076693 0.452191 0.100000
v 0.076693 0.382470 0.100000
v -0.168327 0.452191 0.100000
v -0.168327 0.452191 -0.100000
v -0.168327 -0.121514 0.100000
v -0.168327 -0.121514 -0.100000
v -0.156374 -0.133466 0.100000
v -0.156375 -0.133466 -0.100000
v -0.125498 -0.121514 0.100000
v -0.125498 -0.121514 -0.100000
v -0.125498 0.452191 0.100000
v -0.125498 0.452191 -0.100000
v -0.156374 0.464143 0.100000
v -0.156375 0.464143 -0.100000
v -0.102590 0.452191 0.100000
v -0.102590 0.452191 -0.100000
v -0.102590 -0.121514 0.100000
v -0.102590 -0.121514 -0.100000
v -0.071713 -0.134462 0.100000
v -0.071713 -0.134462 -0.100000
v -0.059761 -0.102590 0.100000
v -0.059761 -0.102590 -0.100000
v -0.060757 -0.059761 0.100000
v -0.060757 -0.059761 -0.100000
v -0.059761 0.452191 0.100000
v -0.059761 0.452191 -0.100000
v -0.071713 0.465140 0.100000
v -0.071713 0.465140 -0.100000
v -0.031872 0.452191 0.100000
v -0.031873 0.452191 -0.100000
v -0.032868 0.048805 0.100000
v -0.032869 0.048805 -0.100000
v -0.031872 -0.036853 0.100000
v -0.031873 -0.036853 -0.100000
v -0.031872 -0.121514 0.100000
v -0.031873 -0.121514 -0.100000
v -0.000996 -0.133466 0.100000
v -0.000996 -0.133466 -0.100000
v 0.010956 -0.121514 0.100000
v 0.010956 -0.121514 -0.100000
v 0.010956 0.452191 0.100000
v 0.010956 0.452191 -0.100000
v -0.019920 0.464143 0.100000
v -0.019920 0.464143 -0.100000
v 0.076693 0.215140 0.100000
v 0.076693 0.215140 -0.100000
v 0.076693 0.048805 0.100000
v 0.076693 0.048805 -0.100000
v 0.076693 -0.121514 0.100000
v 0.076693 -0.121514 -0.100000
v 0.088645 -0.133466 0.100000
v 0.088645 -0.133466 -0.100000
v 0.156375 -0.133466 0.100000
v 0.156374 -0.133466 -0.100000
v 0.167331 -0.121514 0.100000
v 0.167331 -0.121514 -0.100000
v 0.168327 0.452191 0.100000
v 0.168327 0.452191 -0.100000
v 0.156375 0.464143 0.100000
v 0.156374 0.464143 -0.100000
v 0.122510 0.464143 0.100000
v 0.122510 0.464143 -0.100000
v 0.088645 0.464143 0.100000
v 0.088645 0.464143 -0.100000
v 0.076693 0.452191 0.100000
v 0.076693 0.452191 -0.100000
v 0.076693 0.382470 0.100000
v 0.076693 0.382470 -0.100000
v -0.026892 -0.285857 0.100000
v -0.026892 -0.285857 -0.100000
v -0.002988 -0.321713 0.100000
v -0.002988 -0.321713 -0.100000
v 0.026892 -0.298805 0.100000
v 0.026892 -0.298805 -0.100000
v 0.032869 -0.224104 0.100000
v 0.032869 -0.224104 -0.100000
v 0.007968 -0.201195 0.100000
v 0.007968 -0.201195 -0.100000
v -0.018924 -0.204183 0.100000
v -0.018924 -0.204183 -0.100000
v -0.030876 -0.227092 0.100000
v -0.030877 -0.227092 -0.100000
v -0.028884 -0.256474 0.100000
v -0.028884 -0.256474 -0.100000
vn -0.0000 -0.0000 -1.0000
vn -0.0000 -0.0000 1.0000
vn -0.9239 0.3827 -0.0000
vn -0.9239 -0.3827 -0.0000
vn -0.2065 -0.9784 -0.0000
vn 0.8249 -0.5652 -0.0000
vn 0.8249 0.5652 -0.0000
vn -0.2065 0.9784 -0.0000
vn -0.8327 0.5537 -0.0000
vn -0.8327 -0.5537 -0.0000
vn 0.3963 -0.9181 -0.0000
vn 0.9860 -0.1670 -0.0000
vn 0.9999 0.0107 -0.0000
vn 0.9317 0.3632 -0.0000
vn 0.2125 0.9772 -0.0000
vn -0.9234 0.3838 -0.0000
vn -1.0000 -0.0046 -0.0000
vn -1.0000 -0.0058 -0.0000
vn -0.8249 -0.5652 -0.0000
vn 0.2065 -0.9784 -0.0000
vn 0.9239 -0.3827 -0.0000
vn -1.0000 -0.0000 -0.0000
vn -0.3827 -0.9239 -0.0000
vn 0.4027 -0.9153 -0.0000
vn 0.9317 -0.3633 -0.0000
vn 0.9242 0.3819 -0.0000
vn 0.3827 0.9239 -0.0000
vn -0.0000 1.0000 -0.0000
vn -0.3827 0.9239 -0.0000
vn -0.9467 -0.3220 -0.0000
vn -0.1636 -0.9865 -0.0000
vn 0.8784 -0.4779 -0.0000
vn 0.9310 0.3650 -0.0000
vn 0.3113 0.9503 -0.0000
vn -0.5649 0.8252 -0.0000
vn -0.9787 0.2051 -0.0000
vn -0.9977 -0.0676 -0.0000
vt 0.300000 0.000000
vt 0.200000 0.000000
vt 0.325000 0.000000
vt 0.275000 0.000000
vt 0.225000 0.000000
vt 0.250000 0.000000
vt 0.475000 0.000000
vt 0.350000 0.000000
vt 0.500000 0.000000
vt 0.450000 0.000000
vt 0.375000 0.000000
vt 0.425000 0.000000
vt 0.400000 0.000000
vt 0.675000 0.000000
vt 0.525000 0.000000
vt 0.700000 0.000000
vt 0.650000 0.000000
vt 0.550000 0.000000
vt 0.575000 0.000000
vt 0.600000 0.000000
vt 0.625000 0.000000
vt 0.875000 0.000000
vt 0.925000 0.000000
vt 0.900000 0.000000
vt 0.950000 0.000000
vt 0.975000 0.000000
vt 0.850000 0.000000
vt 1.000000 0.000000
vt 0.725000 0.000000
vt 0.750000 0.000000
vt 0.775000 0.000000
vt 0.825000 0.000000
vt 0.800000 0.000000
vt 0.075000 0.000000
vt 0.125000 0.000000
vt 0.100000 0.000000
vt 0.150000 0.000000
vt 0.050000 0.000000
vt 0.175000 0.000000
vt 0.000000 0.000000
vt 0.025000 0.000000
vt 0.000000 1.000000
vt 0.166667 1.000000
vt 0.166667 0.000000
vt 0.333333 1.000000
vt 0.333333 0.000000
vt 0.500000 1.000000
vt 0.666667 1.000000
vt 0.666667 0.000000
vt 0.833333 1.000000
vt 0.833333 0.000000
vt 1.000000 1.000000
vt 0.142857 1.000000
vt 0.142857 0.000000
vt 0.285714 1.000000
vt 0.285714 0.000000
vt 0.428571 1.000000
vt 0.428571 0.000000
vt 0.571429 1.000000
vt 0.571429 0.000000
vt 0.714286 1.000000
vt 0.714286 0.000000
vt 0.857143 1.000000
vt 0.857143 0.000000
vt 0.125000 1.000000
vt 0.250000 1.000000
vt 0.375000 1.000000
vt 0.625000 1.000000
vt 0.750000 1.000000
vt 0.875000 1.000000
vt 0.083333 1.000000
vt 0.083333 0.000000
vt 0.416667 1.000000
vt 0.416667 0.000000
vt 0.583333 1.000000
vt 0.583333 0.000000
vt 0.916667 1.000000
vt 0.916667 0.000000
s 0
f 13/1/1 9/2/1 14/3/1
f 12/4/1 9/2/1 13/1/1
f 12/4/1 10/5/1 9/2/1
f 11/6/1 10/5/1 12/4/1
f 20/7/1 15/8/1 21/9/1
f 19/10/1 15/8/1 20/7/1
f 19/10/1 16/11/1 15/8/1
f 18/12/1 16/11/1 19/10/1
f 17/13/1 16/11/1 18/12/1
f 28/14/1 22/15/1 29/16/1
f 27/17/1 22/15/1 28/14/1
f 27/17/1 23/18/1 22/15/1
f 27/17/1 24/19/1 23/18/1
f 27/17/1 25/20/1 24/19/1
f 26/21/1 25/20/1 27/17/1
f 36/22/1 38/23/1 37/24/1
f 36/22/1 39/25/1 38/23/1
f 36/22/1 40/26/1 39/25/1
f 35/27/1 40/26/1 36/22/1
f 35/27/1 41/28/1 40/26/1
f 35/27/1 30/29/1 41/28/1
f 35/27/1 31/30/1 30/29/1
f 35/27/1 32/31/1 31/30/1
f 34/32/1 32/31/1 35/27/1
f 34/32/1 33/33/1 32/31/1
f 4/34/1 6/35/1 5/36/1
f 4/34/1 7/37/1 6/35/1
f 3/38/1 7/37/1 4/34/1
f 3/38/1 8/39/1 7/37/1
f 3/38/1 1/40/1 8/39/1
f 3/38/1 2/41/1 1/40/1
f 54/1/2 55/3/2 50/2/2
f 53/4/2 54/1/2 50/2/2
f 53/4/2 50/2/2 51/5/2
f 52/6/2 53/4/2 51/5/2
f 61/7/2 62/9/2 56/8/2
f 60/10/2 61/7/2 56/8/2
f 60/10/2 56/8/2 57/11/2
f 59/12/2 60/10/2 57/11/2
f 58/13/2 59/12/2 57/11/2
f 69/14/2 70/16/2 63/15/2
f 68/17/2 69/14/2 63/15/2
f 68/17/2 63/15/2 64/18/2
f 68/17/2 64/18/2 65/19/2
f 68/17/2 65/19/2 66/20/2
f 67/21/2 68/17/2 66/20/2
f 77/22/2 78/24/2 79/23/2
f 77/22/2 79/23/2 80/25/2
f 77/22/2 80/25/2 81/26/2
f 76/27/2 77/22/2 81/26/2
f 76/27/2 81/26/2 82/28/2
f 76/27/2 82/28/2 71/29/2
f 76/27/2 71/29/2 72/30/2
f 76/27/2 72/30/2 73/31/2
f 75/32/2 76/27/2 73/31/2
f 75/32/2 73/31/2 74/33/2
f 45/34/2 46/36/2 47/35/2
f 45/34/2 47/35/2 48/37/2
f 44/38/2 45/34/2 48/37/2
f 44/38/2 48/37/2 49/39/2
f 44/38/2 49/39/2 42/40/2
f 44/38/2 42/40/2 43/41/2
s 1
f 84/42/3 86/43/4 85/44/4 83/40/3
f 86/43/4 88/45/5 87/46/5 85/44/4
f 88/45/5 90/47/6 89/9/6 87/46/5
f 90/47/6 92/48/7 91/49/7 89/9/6
f 92/48/7 94/50/8 93/51/8 91/49/7
f 94/50/8 84/52/3 83/28/3 93/51/8
f 96/42/9 98/53/10 97/54/10 95/40/9
f 98/53/10 100/55/11 99/56/11 97/54/10
f 100/55/11 102/57/12 101/58/12 99/56/11
f 102/57/12 104/59/13 103/60/13 101/58/12
f 104/59/13 106/61/14 105/62/14 103/60/13
f 106/61/14 108/63/15 107/64/15 105/62/14
f 108/63/15 96/52/9 95/28/9 107/64/15
f 110/42/16 112/65/17 111/35/17 109/40/16
f 112/65/17 114/66/18 113/6/18 111/35/17
f 114/66/18 116/67/19 115/11/19 113/6/18
f 116/67/19 118/47/20 117/9/20 115/11/19
f 118/47/20 120/68/21 119/21/21 117/9/20
f 120/68/21 122/69/7 121/30/7 119/21/21
f 122/69/7 124/70/8 123/22/8 121/30/7
f 124/70/8 110/52/16 109/28/16 123/22/8
f 126/42/22 128/71/22 127/72/22 125/40/22
f 128/71/22 130/43/4 129/44/4 127/72/22
f 130/43/4 132/66/23 131/6/23 129/44/4
f 132/66/23 134/45/24 133/46/24 131/6/23
f 134/45/24 136/73/25 135/74/25 133/46/24
f 136/73/25 138/47/26 137/9/26 135/74/25
f 138/47/26 140/75/27 139/76/27 137/9/26
f 140/75/27 142/48/28 141/49/28 139/76/27
f 142/48/28 144/69/29 143/30/29 141/49/28
f 144/69/29 146/50/3 145/51/3 143/30/29
f 146/50/3 148/77/22 147/78/22 145/51/3
f 148/77/22 126/52/22 125/28/22 147/78/22
f 150/42/30 152/65/31 151/35/31 149/40/30
f 152/65/31 154/66/32 153/6/32 151/35/31
f 154/66/32 156/67/33 155/11/33 153/6/32
f 156/67/33 158/47/34 157/9/34 155/11/33
f 158/47/34 160/68/35 159/21/35 157/9/34
f 160/68/35 162/69/36 161/30/36 159/21/35
f 162/69/36 164/70/37 163/22/37 161/30/36
f 164/70/37 150/52/30 149/28/30 163/22/37
