# Blender 4.1.1
# www.blender.org
o 3
v 0.012948 -0.430279 -0.100000
v 0.076693 -0.398406 -0.100000
v 0.054781 -0.377490 -0.100000
v 0.033865 -0.382470 -0.100000
v 0.012948 -0.387450 -0.100000
v -0.015438 -0.378486 -0.100000
v -0.027888 -0.355578 -0.100000
v 0.005478 -0.327191 -0.100000
v 0.038845 -0.302789 -0.100000
v 0.034861 -0.286853 -0.100000
v -0.001992 -0.250000 -0.100000
v -0.000996 -0.250996 -0.100000
v 0.008964 -0.251992 -0.100000
v 0.048805 -0.250996 -0.100000
v 0.075697 -0.229084 -0.100000
v 0.054781 -0.208167 -0.100000
v 0.021912 -0.207171 -0.100000
v -0.010956 -0.208167 -0.100000
v -0.042829 -0.208167 -0.100000
v -0.063745 -0.237052 -0.100000
v -0.021912 -0.286853 -0.100000
v -0.071713 -0.355578 -0.100000
v -0.045817 -0.409363 -0.100000
v -0.168327 0.214143 -0.100000
v -0.168327 0.052789 -0.100000
v -0.168327 -0.119522 -0.100000
v -0.154382 -0.133466 -0.100000
v -0.125498 -0.119522 -0.100000
v -0.125498 0.407371 -0.100000
v -0.124502 0.425797 -0.100000
v -0.123506 0.441235 -0.100000
v -0.153386 0.464143 -0.100000
v -0.168327 0.450199 -0.100000
v -0.167331 0.376494 -0.100000
v -0.102590 0.450199 -0.100000
v -0.102590 -0.034861 -0.100000
v -0.102590 -0.077191 -0.100000
v -0.102590 -0.119522 -0.100000
v -0.088645 -0.133466 -0.100000
v -0.074701 -0.133466 -0.100000
v -0.060757 -0.120518 -0.100000
v -0.059761 -0.082669 -0.100000
v -0.059761 -0.045817 -0.100000
v -0.060757 0.450199 -0.100000
v -0.088645 0.465140 -0.100000
v -0.036853 0.450199 -0.100000
v -0.037849 -0.034861 -0.100000
v -0.037849 -0.076693 -0.100000
v -0.036853 -0.119522 -0.100000
v -0.022908 -0.133466 -0.100000
v -0.008964 -0.133466 -0.100000
v 0.004980 -0.119522 -0.100000
v 0.004980 -0.083665 -0.100000
v 0.004980 -0.045817 -0.100000
v 0.004980 0.450199 -0.100000
v -0.008964 0.464143 -0.100000
v 0.076693 0.450199 -0.100000
v 0.076693 -0.119522 -0.100000
v 0.090637 -0.134462 -0.100000
v 0.122510 -0.133466 -0.100000
v 0.154382 -0.133466 -0.100000
v 0.168327 -0.119522 -0.100000
v 0.168327 -0.045817 -0.100000
v 0.168327 0.073705 -0.100000
v 0.169323 0.193227 -0.100000
v 0.169323 0.292829 -0.100000
v 0.168327 0.371514 -0.100000
v 0.168327 0.450199 -0.100000
v 0.154382 0.464143 -0.100000
v 0.108566 0.464143 -0.100000
v 0.012948 -0.430279 0.100000
v 0.076693 -0.398406 0.100000
v 0.054781 -0.377490 0.100000
v 0.033865 -0.382470 0.100000
v 0.012948 -0.387450 0.100000
v -0.015438 -0.378486 0.100000
v -0.027888 -0.355578 0.100000
v 0.005478 -0.327191 0.100000
v 0.038845 -0.302789 0.100000
v 0.034861 -0.286853 0.100000
v -0.001992 -0.250000 0.100000
v -0.000996 -0.250996 0.100000
v 0.008964 -0.251992 0.100000
v 0.048805 -0.250996 0.100000
v 0.075697 -0.229084 0.100000
v 0.054781 -0.208167 0.100000
v 0.021912 -0.207171 0.100000
v -0.010956 -0.208167 0.100000
v -0.042829 -0.208167 0.100000
v -0.063745 -0.237052 0.100000
v -0.021912 -0.286853 0.100000
v -0.071713 -0.355578 0.100000
v -0.045817 -0.409363 0.100000
v -0.168327 0.214143 0.100000
v -0.168327 0.052789 0.100000
v -0.168327 -0.119522 0.100000
v -0.154382 -0.133466 0.100000
v -0.125498 -0.119522 0.100000
v -0.125498 0.407371 0.100000
v -0.124502 0.425797 0.100000
v -0.123506 0.441235 0.100000
v -0.153386 0.464143 0.100000
v -0.168327 0.450199 0.100000
v -0.167331 0.376494 0.100000
v -0.102590 0.450199 0.100000
v -0.102590 -0.034861 0.100000
v -0.102590 -0.077191 0.100000
v -0.102590 -0.119522 0.100000
v -0.088645 -0.133466 0.100000
v -0.074701 -0.133466 0.100000
v -0.060757 -0.120518 0.100000
v -0.059761 -0.082669 0.100000
v -0.059761 -0.045817 0.100000
v -0.060757 0.450199 0.100000
v -0.088645 0.465140 0.100000
v -0.036853 0.450199 0.100000
v -0.037849 -0.034861 0.100000
v -0.037849 -0.076693 0.100000
v -0.036853 -0.119522 0.100000
v -0.022908 -0.133466 0.100000
v -0.008964 -0.133466 0.100000
v 0.004980 -0.119522 0.100000
v 0.004980 -0.083665 0.100000
v 0.004980 -0.045817 0.100000
v 0.004980 0.450199 0.100000
v -0.008964 0.464143 0.100000
v 0.076693 0.450199 0.100000
v 0.076693 -0.119522 0.100000
v 0.090637 -0.134462 0.100000
v 0.122510 -0.133466 0.100000
v 0.154383 -0.133466 0.100000
v 0.168327 -0.119522 0.100000
v 0.168327 -0.045817 0.100000
v 0.168327 0.073705 0.100000
v 0.169323 0.193227 0.100000
v 0.169323 0.292829 0.100000
v 0.168327 0.371514 0.100000
v 0.168327 0.450199 0.100000
v 0.154383 0.464143 0.100000
v 0.108566 0.464143 0.100000
v -0.168327 0.214143 0.100000
v -0.168327 0.214143 -0.100000
v -0.168327 0.052789 0.100000
v -0.168327 0.052789 -0.100000
v -0.168327 -0.119522 0.100000
v -0.168327 -0.119522 -0.100000
v -0.154382 -0.133466 0.100000
v -0.154382 -0.133466 -0.100000
v -0.125498 -0.119522 0.100000
v -0.125498 -0.119522 -0.100000
v -0.125498 0.407371 0.100000
v -0.125498 0.407371 -0.100000
v -0.124502 0.425797 0.100000
v -0.124502 0.425797 -0.100000
v -0.123506 0.441235 0.100000
v -0.123506 0.441235 -0.100000
v -0.153386 0.464143 0.100000
v -0.153386 0.464143 -0.100000
v -0.168327 0.450199 0.100000
v -0.168327 0.450199 -0.100000
v -0.167331 0.376494 0.100000
v -0.167331 0.376494 -0.100000
v -0.102590 0.450199 0.100000
v -0.102590 0.450199 -0.100000
v -0.102590 -0.034861 0.100000
v -0.102590 -0.034861 -0.100000
v -0.102590 -0.077191 0.100000
v -0.102590 -0.077191 -0.100000
v -0.102590 -0.119522 0.100000
v -0.102590 -0.119522 -0.100000
v -0.088645 -0.133466 0.100000
v -0.088645 -0.133466 -0.100000
v -0.074701 -0.133466 0.100000
v -0.074701 -0.133466 -0.100000
v -0.060757 -0.120518 0.100000
v -0.060757 -0.120518 -0.100000
v -0.059761 -0.082669 0.100000
v -0.059761 -0.082669 -0.100000
v -0.059761 -0.045817 0.100000
v -0.059761 -0.045817 -0.100000
v -0.060757 0.450199 0.100000
v -0.060757 0.450199 -0.100000
v -0.088645 0.465140 0.100000
v -0.088645 0.465140 -0.100000
v -0.036853 0.450199 0.100000
v -0.036853 0.450199 -0.100000
v -0.037849 -0.034861 0.100000
v -0.037849 -0.034861 -0.100000
v -0.037849 -0.076693 0.100000
v -0.037849 -0.076693 -0.100000
v -0.036853 -0.119522 0.100000
v -0.036853 -0.119522 -0.100000
v -0.022908 -0.133466 0.100000
v -0.022908 -0.133466 -0.100000
v -0.008964 -0.133466 0.100000
v -0.008964 -0.133466 -0.100000
v 0.004980 -0.119522 0.100000
v 0.004980 -0.119522 -0.100000
v 0.004980 -0.083665 0.100000
v 0.004980 -0.083665 -0.100000
v 0.004980 -0.045817 0.100000
v 0.004980 -0.045817 -0.100000
v 0.004980 0.450199 0.100000
v 0.004980 0.450199 -0.100000
v -0.008964 0.464143 0.100000
v -0.008964 0.464143 -0.100000
v 0.076693 0.450199 0.100000
v 0.076693 0.450199 -0.100000
v 0.076693 -0.119522 0.100000
v 0.076693 -0.119522 -0.100000
v 0.090637 -0.134462 0.100000
v 0.090637 -0.134462 -0.100000
v 0.122510 -0.133466 0.100000
v 0.122510 -0.133466 -0.100000
v 0.154383 -0.133466 0.100000
v 0.154382 -0.133466 -0.100000
v 0.168327 -0.119522 0.100000
v 0.168327 -0.119522 -0.100000
v 0.168327 -0.045817 0.100000
v 0.168327 -0.045817 -0.100000
v 0.168327 0.073705 0.100000
v 0.168327 0.073705 -0.100000
v 0.169323 0.193227 0.100000
v 0.169323 0.193227 -0.100000
v 0.169323 0.292829 0.100000
v 0.169323 0.292829 -0.100000
v 0.168327 0.371514 0.100000
v 0.168327 0.371514 -0.100000
v 0.168327 0.450199 0.100000
v 0.168327 0.450199 -0.100000
v 0.154383 0.464143 0.100000
v 0.154382 0.464143 -0.100000
v 0.108566 0.464143 0.100000
v 0.108566 0.464143 -0.100000
v 0.012948 -0.430279 0.100000
v 0.012948 -0.430279 -0.100000
v 0.076693 -0.398406 0.100000
v 0.076693 -0.398406 -0.100000
v 0.054781 -0.377490 0.100000
v 0.054781 -0.377490 -0.100000
v 0.033865 -0.382470 0.100000
v 0.033865 -0.382470 -0.100000
v 0.012948 -0.387450 0.100000
v 0.012948 -0.387450 -0.100000
v -0.015438 -0.378486 0.100000
v -0.015438 -0.378486 -0.100000
v -0.027888 -0.355578 0.100000
v -0.027888 -0.355578 -0.100000
v 0.005478 -0.327191 0.100000
v 0.005478 -0.327191 -0.100000
v 0.038845 -0.302789 0.100000
v 0.038845 -0.302789 -0.100000
v 0.034861 -0.286853 0.100000
v 0.034861 -0.286853 -0.100000
v -0.001992 -0.250000 0.100000
v -0.001992 -0.250000 -0.100000
v -0.000996 -0.250996 0.100000
v -0.000996 -0.250996 -0.100000
v 0.008964 -0.251992 0.100000
v 0.008964 -0.251992 -0.100000
v 0.048805 -0.250996 0.100000
v 0.048805 -0.250996 -0.100000
v 0.075697 -0.229084 0.100000
v 0.075697 -0.229084 -0.100000
v 0.054781 -0.208167 0.100000
v 0.054781 -0.208167 -0.100000
v 0.021912 -0.207171 0.100000
v 0.021912 -0.207171 -0.100000
v -0.010956 -0.208167 0.100000
v -0.010956 -0.208167 -0.100000
v -0.042829 -0.208167 0.100000
v -0.042829 -0.208167 -0.100000
v -0.063745 -0.237052 0.100000
v -0.063745 -0.237052 -0.100000
v -0.021912 -0.286853 0.100000
v -0.021912 -0.286853 -0.100000
v -0.071713 -0.355578 0.100000
v -0.071713 -0.355578 -0.100000
v -0.045817 -0.409363 0.100000
v -0.045817 -0.409363 -0.100000
vn -0.0000 -0.0000 -1.0000
vn -0.0000 -0.0000 1.0000
vn -1.0000 0.0031 -0.0000
vn -1.0000 -0.0000 -0.0000
vn -0.9239 -0.3827 -0.0000
vn -0.1670 -0.9860 -0.0000
vn 0.8470 -0.5316 -0.0000
vn 0.9996 -0.0270 -0.0000
vn 0.9982 -0.0592 -0.0000
vn 0.9106 0.4134 -0.0000
vn -0.0484 0.9988 -0.0000
vn -0.9198 0.3923 -0.0000
vn -1.0000 -0.0037 -0.0000
vn -0.9303 0.3667 -0.0000
vn -0.3827 -0.9239 -0.0000
vn 0.3655 -0.9308 -0.0000
vn 0.9113 -0.4117 -0.0000
vn 0.9999 -0.0132 -0.0000
vn 1.0000 0.0010 -0.0000
vn 0.8575 0.5146 -0.0000
vn -0.1633 0.9866 -0.0000
vn -0.8501 0.5266 -0.0000
vn -1.0000 0.0010 -0.0000
vn -0.9999 -0.0116 -0.0000
vn -0.9194 -0.3934 -0.0000
vn 0.3827 -0.9239 -0.0000
vn 0.9239 -0.3827 -0.0000
vn 1.0000 -0.0000 -0.0000
vn 0.9239 0.3827 -0.0000
vn 0.1602 0.9871 -0.0000
vn -0.8369 0.5473 -0.0000
vn -0.9303 -0.3667 -0.0000
vn -0.3842 -0.9233 -0.0000
vn 0.0156 -0.9999 -0.0000
vn 1.0000 -0.0042 -0.0000
vn 1.0000 0.0063 -0.0000
vn 0.3827 0.9239 -0.0000
vn -0.2047 0.9788 -0.0000
vn 0.0608 -0.9981 -0.0000
vn 0.9889 -0.1487 -0.0000
vn 0.2611 0.9653 -0.0000
vn -0.2316 0.9728 -0.0000
vn 0.0361 0.9993 -0.0000
vn 0.6361 0.7716 -0.0000
vn 0.9831 -0.1830 -0.0000
vn 0.6196 -0.7849 -0.0000
vn 0.9403 -0.3402 -0.0000
vn 0.8702 0.4927 -0.0000
vn -0.7174 0.6966 -0.0000
vn -0.4282 -0.9037 -0.0000
vn -0.0373 -0.9993 -0.0000
vn 0.3470 -0.9379 -0.0000
vn 0.9987 -0.0508 -0.0000
vn 0.3966 0.9180 -0.0000
vn -0.0000 1.0000 -0.0000
vn -0.0151 0.9999 -0.0000
vn -0.4547 0.8906 -0.0000
vn -0.9994 -0.0360 -0.0000
vn -0.9994 -0.0358 -0.0000
vn -0.9960 0.0891 -0.0000
vn -0.6684 -0.7438 -0.0000
vt 0.434783 0.000000
vt 0.463768 0.000000
vt 0.449275 0.000000
vt 0.478261 0.000000
vt 0.420290 0.000000
vt 0.405797 0.000000
vt 0.391304 0.000000
vt 0.333333 0.000000
vt 0.347826 0.000000
vt 0.362319 0.000000
vt 0.376812 0.000000
vt 0.623188 0.000000
vt 0.492754 0.000000
vt 0.637681 0.000000
vt 0.608696 0.000000
vt 0.507246 0.000000
vt 0.521739 0.000000
vt 0.594203 0.000000
vt 0.536232 0.000000
vt 0.579710 0.000000
vt 0.550725 0.000000
vt 0.565217 0.000000
vt 0.782609 0.000000
vt 0.652174 0.000000
vt 0.797101 0.000000
vt 0.768116 0.000000
vt 0.666667 0.000000
vt 0.681159 0.000000
vt 0.753623 0.000000
vt 0.695652 0.000000
vt 0.739130 0.000000
vt 0.724638 0.000000
vt 0.710145 0.000000
vt 0.971014 0.000000
vt 1.000000 0.000000
vt 0.985507 0.000000
vt 0.811594 0.000000
vt 0.956522 0.000000
vt 0.826087 0.000000
vt 0.942029 0.000000
vt 0.927536 0.000000
vt 0.913043 0.000000
vt 0.898551 0.000000
vt 0.884058 0.000000
vt 0.869565 0.000000
vt 0.855072 0.000000
vt 0.840580 0.000000
vt 0.217391 0.000000
vt 0.246377 0.000000
vt 0.231884 0.000000
vt 0.202899 0.000000
vt 0.260870 0.000000
vt 0.275362 0.000000
vt 0.188406 0.000000
vt 0.144928 0.000000
vt 0.289855 0.000000
vt 0.173913 0.000000
vt 0.130435 0.000000
vt 0.159420 0.000000
vt 0.115942 0.000000
vt 0.304348 0.000000
vt 0.101449 0.000000
vt 0.086957 0.000000
vt 0.072464 0.000000
vt 0.318841 0.000000
vt 0.014493 0.000000
vt 0.043478 0.000000
vt 0.028986 0.000000
vt 0.057971 0.000000
vt 0.000000 0.000000
vt 0.000000 1.000000
vt 0.090909 1.000000
vt 0.090909 0.000000
vt 0.181818 1.000000
vt 0.181818 0.000000
vt 0.272727 1.000000
vt 0.272727 0.000000
vt 0.363636 1.000000
vt 0.363636 0.000000
vt 0.454545 1.000000
vt 0.454545 0.000000
vt 0.545455 1.000000
vt 0.545455 0.000000
vt 0.636364 1.000000
vt 0.636364 0.000000
vt 0.727273 1.000000
vt 0.727273 0.000000
vt 0.818182 1.000000
vt 0.818182 0.000000
vt 0.909091 1.000000
vt 0.909091 0.000000
vt 1.000000 1.000000
vt 0.071429 1.000000
vt 0.071429 0.000000
vt 0.142857 1.000000
vt 0.142857 0.000000
vt 0.214286 1.000000
vt 0.214286 0.000000
vt 0.285714 1.000000
vt 0.285714 0.000000
vt 0.357143 1.000000
vt 0.357143 0.000000
vt 0.428571 1.000000
vt 0.428571 0.000000
vt 0.500000 1.000000
vt 0.500000 0.000000
vt 0.571429 1.000000
vt 0.571429 0.000000
vt 0.642857 1.000000
vt 0.642857 0.000000
vt 0.714286 1.000000
vt 0.714286 0.000000
vt 0.785714 1.000000
vt 0.785714 0.000000
vt 0.857143 1.000000
vt 0.857143 0.000000
vt 0.928571 1.000000
vt 0.928571 0.000000
vt 0.043478 1.000000
vt 0.086957 1.000000
vt 0.130435 1.000000
vt 0.173913 1.000000
vt 0.217391 1.000000
vt 0.260870 1.000000
vt 0.304348 1.000000
vt 0.347826 1.000000
vt 0.391304 1.000000
vt 0.434783 1.000000
vt 0.478261 1.000000
vt 0.521739 1.000000
vt 0.565217 1.000000
vt 0.608696 1.000000
vt 0.652174 1.000000
vt 0.695652 1.000000
vt 0.739130 1.000000
vt 0.782609 1.000000
vt 0.826087 1.000000
vt 0.869565 1.000000
vt 0.913043 1.000000
vt 0.956522 1.000000
s 0
f 31/1/1 33/2/1 32/3/1
f 31/1/1 34/4/1 33/2/1
f 30/5/1 34/4/1 31/1/1
f 29/6/1 34/4/1 30/5/1
f 28/7/1 34/4/1 29/6/1
f 28/7/1 24/8/1 34/4/1
f 28/7/1 25/9/1 24/8/1
f 28/7/1 26/10/1 25/9/1
f 27/11/1 26/10/1 28/7/1
f 44/12/1 35/13/1 45/14/1
f 43/15/1 35/13/1 44/12/1
f 43/15/1 36/16/1 35/13/1
f 43/15/1 37/17/1 36/16/1
f 42/18/1 37/17/1 43/15/1
f 42/18/1 38/19/1 37/17/1
f 41/20/1 38/19/1 42/18/1
f 41/20/1 39/21/1 38/19/1
f 40/22/1 39/21/1 41/20/1
f 55/23/1 46/24/1 56/25/1
f 54/26/1 46/24/1 55/23/1
f 54/26/1 47/27/1 46/24/1
f 54/26/1 48/28/1 47/27/1
f 53/29/1 48/28/1 54/26/1
f 53/29/1 49/30/1 48/28/1
f 52/31/1 49/30/1 53/29/1
f 51/32/1 49/30/1 52/31/1
f 51/32/1 50/33/1 49/30/1
f 68/34/1 70/35/1 69/36/1
f 68/34/1 57/37/1 70/35/1
f 67/38/1 57/37/1 68/34/1
f 67/38/1 58/39/1 57/37/1
f 66/40/1 58/39/1 67/38/1
f 65/41/1 58/39/1 66/40/1
f 64/42/1 58/39/1 65/41/1
f 63/43/1 58/39/1 64/42/1
f 62/44/1 58/39/1 63/43/1
f 61/45/1 58/39/1 62/44/1
f 61/45/1 60/46/1 58/39/1
f 60/46/1 59/47/1 58/39/1
f 16/48/1 18/49/1 17/50/1
f 15/51/1 18/49/1 16/48/1
f 15/51/1 19/52/1 18/49/1
f 15/51/1 20/53/1 19/52/1
f 14/54/1 20/53/1 15/51/1
f 14/54/1 11/55/1 20/53/1
f 11/55/1 21/56/1 20/53/1
f 14/54/1 13/57/1 11/55/1
f 13/57/1 10/58/1 11/55/1
f 12/59/1 21/56/1 11/55/1
f 13/57/1 21/56/1 12/59/1
f 10/58/1 21/56/1 13/57/1
f 9/60/1 21/56/1 10/58/1
f 9/60/1 22/61/1 21/56/1
f 8/62/1 22/61/1 9/60/1
f 7/63/1 22/61/1 8/62/1
f 6/64/1 22/61/1 7/63/1
f 6/64/1 23/65/1 22/61/1
f 2/66/1 4/67/1 3/68/1
f 5/69/1 23/65/1 6/64/1
f 2/66/1 5/69/1 4/67/1
f 2/66/1 23/65/1 5/69/1
f 1/70/1 23/65/1 2/66/1
f 101/1/2 102/3/2 103/2/2
f 101/1/2 103/2/2 104/4/2
f 100/5/2 101/1/2 104/4/2
f 99/6/2 100/5/2 104/4/2
f 98/7/2 99/6/2 104/4/2
f 98/7/2 104/4/2 94/8/2
f 98/7/2 94/8/2 95/9/2
f 98/7/2 95/9/2 96/10/2
f 97/11/2 98/7/2 96/10/2
f 114/12/2 115/14/2 105/13/2
f 113/15/2 114/12/2 105/13/2
f 113/15/2 105/13/2 106/16/2
f 113/15/2 106/16/2 107/17/2
f 112/18/2 113/15/2 107/17/2
f 112/18/2 107/17/2 108/19/2
f 111/20/2 112/18/2 108/19/2
f 111/20/2 108/19/2 109/21/2
f 110/22/2 111/20/2 109/21/2
f 125/23/2 126/25/2 116/24/2
f 124/26/2 125/23/2 116/24/2
f 124/26/2 116/24/2 117/27/2
f 124/26/2 117/27/2 118/28/2
f 123/29/2 124/26/2 118/28/2
f 123/29/2 118/28/2 119/30/2
f 122/31/2 123/29/2 119/30/2
f 121/32/2 122/31/2 119/30/2
f 121/32/2 119/30/2 120/33/2
f 138/34/2 139/36/2 140/35/2
f 138/34/2 140/35/2 127/37/2
f 137/38/2 138/34/2 127/37/2
f 137/38/2 127/37/2 128/39/2
f 136/40/2 137/38/2 128/39/2
f 135/41/2 136/40/2 128/39/2
f 134/42/2 135/41/2 128/39/2
f 133/43/2 134/42/2 128/39/2
f 132/44/2 133/43/2 128/39/2
f 131/45/2 132/44/2 128/39/2
f 131/45/2 128/39/2 130/46/2
f 130/46/2 128/39/2 129/47/2
f 86/48/2 87/50/2 88/49/2
f 85/51/2 86/48/2 88/49/2
f 85/51/2 88/49/2 89/52/2
f 85/51/2 89/52/2 90/53/2
f 84/54/2 85/51/2 90/53/2
f 84/54/2 90/53/2 81/55/2
f 81/55/2 90/53/2 91/56/2
f 84/54/2 81/55/2 83/57/2
f 83/57/2 81/55/2 80/58/2
f 82/59/2 81/55/2 91/56/2
f 83/57/2 82/59/2 91/56/2
f 80/58/2 83/57/2 91/56/2
f 79/60/2 80/58/2 91/56/2
f 79/60/2 91/56/2 92/61/2
f 78/62/2 79/60/2 92/61/2
f 77/63/2 78/62/2 92/61/2
f 76/64/2 77/63/2 92/61/2
f 76/64/2 92/61/2 93/65/2
f 72/66/2 73/68/2 74/67/2
f 75/69/2 76/64/2 93/65/2
f 72/66/2 74/67/2 75/69/2
f 72/66/2 75/69/2 93/65/2
f 71/70/2 72/66/2 93/65/2
s 1
f 142/71/3 144/72/4 143/73/4 141/70/3
f 144/72/4 146/74/5 145/75/5 143/73/4
f 146/74/5 148/76/6 147/77/6 145/75/5
f 148/76/6 150/78/7 149/79/7 147/77/6
f 150/78/7 152/80/8 151/81/8 149/79/7
f 152/80/8 154/82/9 153/83/9 151/81/8
f 154/82/9 156/84/10 155/85/10 153/83/9
f 156/84/10 158/86/11 157/87/11 155/85/10
f 158/86/11 160/88/12 159/89/12 157/87/11
f 160/88/12 162/90/13 161/91/13 159/89/12
f 162/90/13 142/92/3 141/35/3 161/91/13
f 164/71/14 166/72/4 165/73/4 163/70/14
f 166/72/4 168/74/4 167/75/4 165/73/4
f 168/74/4 170/76/5 169/77/5 167/75/4
f 170/76/5 172/78/15 171/79/15 169/77/5
f 172/78/15 174/80/16 173/81/16 171/79/15
f 174/80/16 176/82/17 175/83/17 173/81/16
f 176/82/17 178/84/18 177/85/18 175/83/17
f 178/84/18 180/86/19 179/87/19 177/85/18
f 180/86/19 182/88/20 181/89/20 179/87/19
f 182/88/20 184/90/21 183/91/21 181/89/20
f 184/90/21 164/92/14 163/35/14 183/91/21
f 186/71/22 188/72/23 187/73/23 185/70/22
f 188/72/23 190/74/24 189/75/24 187/73/23
f 190/74/24 192/76/25 191/77/25 189/75/24
f 192/76/25 194/78/15 193/79/15 191/77/25
f 194/78/15 196/80/26 195/81/26 193/79/15
f 196/80/26 198/82/27 197/83/27 195/81/26
f 198/82/27 200/84/28 199/85/28 197/83/27
f 200/84/28 202/86/28 201/87/28 199/85/28
f 202/86/28 204/88/29 203/89/29 201/87/28
f 204/88/29 206/90/30 205/91/30 203/89/29
f 206/90/30 186/92/22 185/35/22 205/91/30
f 208/71/31 210/93/32 209/94/32 207/70/31
f 210/93/32 212/95/33 211/96/33 209/94/32
f 212/95/33 214/97/34 213/98/34 211/96/33
f 214/97/34 216/99/26 215/100/26 213/98/34
f 216/99/26 218/101/27 217/102/27 215/100/26
f 218/101/27 220/103/28 219/104/28 217/102/27
f 220/103/28 222/105/35 221/106/35 219/104/28
f 222/105/35 224/107/35 223/108/35 221/106/35
f 224/107/35 226/109/36 225/110/36 223/108/35
f 226/109/36 228/111/36 227/112/36 225/110/36
f 228/111/36 230/113/29 229/114/29 227/112/36
f 230/113/29 232/115/37 231/116/37 229/114/29
f 232/115/37 234/117/38 233/118/38 231/116/37
f 234/117/38 208/92/31 207/35/31 233/118/38
f 236/71/39 238/119/40 237/67/40 235/70/39
f 238/119/40 240/120/41 239/63/41 237/67/40
f 240/120/41 242/121/42 241/58/42 239/63/41
f 242/121/42 244/122/43 243/57/43 241/58/42
f 244/122/43 246/123/44 245/48/44 243/57/43
f 246/123/44 248/124/45 247/52/45 245/48/44
f 248/124/45 250/125/46 249/61/46 247/52/45
f 250/125/46 252/126/47 251/9/47 249/61/46
f 252/126/47 254/127/48 253/7/48 251/9/47
f 254/127/48 256/128/49 255/1/49 253/7/48
f 256/128/49 258/129/50 257/4/50 255/1/49
f 258/129/50 260/130/51 259/17/51 257/4/50
f 260/130/51 262/131/52 261/22/52 259/17/51
f 262/131/52 264/132/53 263/15/53 261/22/52
f 264/132/53 266/133/54 265/24/54 263/15/53
f 266/133/54 268/134/55 267/30/55 265/24/54
f 268/134/55 270/135/56 269/31/56 267/30/55
f 270/135/56 272/136/57 271/23/57 269/31/56
f 272/136/57 274/137/58 273/39/58 271/23/57
f 274/137/58 276/138/59 275/45/59 273/39/58
f 276/138/59 278/139/60 277/42/60 275/45/59
f 278/139/60 280/140/61 279/38/61 277/42/60
f 280/140/61 236/92/39 235/35/39 279/38/61
