# Blender 4.1.1
# www.blender.org
o 6
v 0.055777 -0.405876 -0.100000
v 0.074701 -0.349602 -0.100000
v 0.039841 -0.262450 -0.100000
v -0.019920 -0.206175 -0.100000
v -0.040837 -0.227092 -0.100000
v -0.031375 -0.245020 -0.100000
v -0.001992 -0.280876 -0.100000
v -0.054781 -0.301295 -0.100000
v -0.076693 -0.352590 -0.100000
v -0.054283 -0.409861 -0.100000
v 0.004980 -0.430279 -0.100000
v -0.001992 -0.321713 -0.100000
v 0.030876 -0.352590 -0.100000
v -0.000996 -0.386454 -0.100000
v -0.032869 -0.355578 -0.100000
v -0.168327 0.450199 -0.100000
v -0.168327 -0.119522 -0.100000
v -0.154382 -0.133466 -0.100000
v -0.088645 -0.131474 -0.100000
v -0.074701 -0.102590 -0.100000
v -0.075697 -0.078685 -0.100000
v -0.075697 -0.045817 -0.100000
v -0.076693 0.450199 -0.100000
v -0.097610 0.465140 -0.100000
v -0.129482 0.464143 -0.100000
v -0.154382 0.464143 -0.100000
v -0.053785 0.450199 -0.100000
v -0.053785 -0.119522 -0.100000
v -0.025896 -0.133466 -0.100000
v -0.010956 -0.119522 -0.100000
v -0.010956 -0.045817 -0.100000
v -0.010956 0.108566 -0.100000
v -0.010956 0.263944 -0.100000
v -0.010956 0.374502 -0.100000
v -0.010956 0.412351 -0.100000
v -0.011952 0.450697 -0.100000
v -0.025896 0.464143 -0.100000
v 0.011952 0.450199 -0.100000
v 0.010956 -0.119522 -0.100000
v 0.025896 -0.133466 -0.100000
v 0.054781 -0.119522 -0.100000
v 0.054781 0.375498 -0.100000
v 0.053785 0.412351 -0.100000
v 0.053785 0.450199 -0.100000
v 0.039841 0.464143 -0.100000
v 0.125498 0.450199 -0.100000
v 0.125498 -0.061753 -0.100000
v 0.124502 -0.103586 -0.100000
v 0.140438 -0.133466 -0.100000
v 0.154382 -0.133466 -0.100000
v 0.168327 -0.119522 -0.100000
v 0.168327 0.450199 -0.100000
v 0.144422 0.464143 -0.100000
v 0.055777 -0.405876 0.100000
v 0.074701 -0.349602 0.100000
v 0.039841 -0.262450 0.100000
v -0.019920 -0.206175 0.100000
v -0.040837 -0.227092 0.100000
v -0.031374 -0.245020 0.100000
v -0.001992 -0.280876 0.100000
v -0.054781 -0.301295 0.100000
v -0.076693 -0.352590 0.100000
v -0.054283 -0.409861 0.100000
v 0.004980 -0.430279 0.100000
v -0.001992 -0.321713 0.100000
v 0.030877 -0.352590 0.100000
v -0.000996 -0.386454 0.100000
v -0.032868 -0.355578 0.100000
v -0.168327 0.450199 0.100000
v -0.168327 -0.119522 0.100000
v -0.154382 -0.133466 0.100000
v -0.088645 -0.131474 0.100000
v -0.074701 -0.102590 0.100000
v -0.075697 -0.078685 0.100000
v -0.075697 -0.045817 0.100000
v -0.076693 0.450199 0.100000
v -0.097610 0.465140 0.100000
v -0.129482 0.464143 0.100000
v -0.154382 0.464143 0.100000
v -0.053785 0.450199 0.100000
v -0.053785 -0.119522 0.100000
v -0.025896 -0.133466 0.100000
v -0.010956 -0.119522 0.100000
v -0.010956 -0.045817 0.100000
v -0.010956 0.108566 0.100000
v -0.010956 0.263944 0.100000
v -0.010956 0.374502 0.100000
v -0.010956 0.412351 0.100000
v -0.011952 0.450697 0.100000
v -0.025896 0.464143 0.100000
v 0.011952 0.450199 0.100000
v 0.010956 -0.119522 0.100000
v 0.025896 -0.133466 0.100000
v 0.054781 -0.119522 0.100000
v 0.054781 0.375498 0.100000
v 0.053785 0.412351 0.100000
v 0.053785 0.450199 0.100000
v 0.039841 0.464143 0.100000
v 0.125498 0.450199 0.100000
v 0.125498 -0.061753 0.100000
v 0.124502 -0.103586 0.100000
v 0.140438 -0.133466 0.100000
v 0.154383 -0.133466 0.100000
v 0.168327 -0.119522 0.100000
v 0.168327 0.450199 0.100000
v 0.144422 0.464143 0.100000
v -0.168327 0.450199 0.100000
v -0.168327 0.450199 -0.100000
v -0.168327 -0.119522 0.100000
v -0.168327 -0.119522 -0.100000
v -0.154382 -0.133466 0.100000
v -0.154382 -0.133466 -0.100000
v -0.088645 -0.131474 0.100000
v -0.088645 -0.131474 -0.100000
v -0.074701 -0.102590 0.100000
v -0.074701 -0.102590 -0.100000
v -0.075697 -0.078685 0.100000
v -0.075697 -0.078685 -0.100000
v -0.075697 -0.045817 0.100000
v -0.075697 -0.045817 -0.100000
v -0.076693 0.450199 0.100000
v -0.076693 0.450199 -0.100000
v -0.097610 0.465140 0.100000
v -0.097610 0.465140 -0.100000
v -0.129482 0.464143 0.100000
v -0.129482 0.464143 -0.100000
v -0.154382 0.464143 0.100000
v -0.154382 0.464143 -0.100000
v -0.053785 0.450199 0.100000
v -0.053785 0.450199 -0.100000
v -0.053785 -0.119522 0.100000
v -0.053785 -0.119522 -0.100000
v -0.025896 -0.133466 0.100000
v -0.025896 -0.133466 -0.100000
v -0.010956 -0.119522 0.100000
v -0.010956 -0.119522 -0.100000
v -0.010956 -0.045817 0.100000
v -0.010956 -0.045817 -0.100000
v -0.010956 0.108566 0.100000
v -0.010956 0.108566 -0.100000
v -0.010956 0.263944 0.100000
v -0.010956 0.263944 -0.100000
v -0.010956 0.374502 0.100000
v -0.010956 0.374502 -0.100000
v -0.010956 0.412351 0.100000
v -0.010956 0.412351 -0.100000
v -0.011952 0.450697 0.100000
v -0.011952 0.450697 -0.100000
v -0.025896 0.464143 0.100000
v -0.025896 0.464143 -0.100000
v 0.011952 0.450199 0.100000
v 0.011952 0.450199 -0.100000
v 0.010956 -0.119522 0.100000
v 0.010956 -0.119522 -0.100000
v 0.025896 -0.133466 0.100000
v 0.025896 -0.133466 -0.100000
v 0.054781 -0.119522 0.100000
v 0.054781 -0.119522 -0.100000
v 0.054781 0.375498 0.100000
v 0.054781 0.375498 -0.100000
v 0.053785 0.412351 0.100000
v 0.053785 0.412351 -0.100000
v 0.053785 0.450199 0.100000
v 0.053785 0.450199 -0.100000
v 0.039841 0.464143 0.100000
v 0.039841 0.464143 -0.100000
v 0.125498 0.450199 0.100000
v 0.125498 0.450199 -0.100000
v 0.125498 -0.061753 0.100000
v 0.125498 -0.061753 -0.100000
v 0.124502 -0.103586 0.100000
v 0.124502 -0.103586 -0.100000
v 0.140438 -0.133466 0.100000
v 0.140438 -0.133466 -0.100000
v 0.154383 -0.133466 0.100000
v 0.154382 -0.133466 -0.100000
v 0.168327 -0.119522 0.100000
v 0.168327 -0.119522 -0.100000
v 0.168327 0.450199 0.100000
v 0.168327 0.450199 -0.100000
v 0.144422 0.464143 0.100000
v 0.144422 0.464143 -0.100000
v 0.055777 -0.405876 0.100000
v 0.055777 -0.405876 -0.100000
v 0.074701 -0.349602 0.100000
v 0.074701 -0.349602 -0.100000
v 0.039841 -0.262450 0.100000
v 0.039841 -0.262450 -0.100000
v -0.019920 -0.206175 0.100000
v -0.019920 -0.206175 -0.100000
v -0.040837 -0.227092 0.100000
v -0.040837 -0.227092 -0.100000
v -0.031374 -0.245020 0.100000
v -0.031375 -0.245020 -0.100000
v -0.001992 -0.280876 0.100000
v -0.001992 -0.280876 -0.100000
v -0.054781 -0.301295 0.100000
v -0.054781 -0.301295 -0.100000
v -0.076693 -0.352590 0.100000
v -0.076693 -0.352590 -0.100000
v -0.054283 -0.409861 0.100000
v -0.054283 -0.409861 -0.100000
v 0.004980 -0.430279 0.100000
v 0.004980 -0.430279 -0.100000
v -0.001992 -0.321713 0.100000
v -0.001992 -0.321713 -0.100000
v 0.030877 -0.352590 0.100000
v 0.030876 -0.352590 -0.100000
v -0.000996 -0.386454 0.100000
v -0.000996 -0.386454 -0.100000
v -0.032868 -0.355578 0.100000
v -0.032869 -0.355578 -0.100000
vn -0.0000 -0.0000 -1.0000
vn -0.0000 -0.0000 1.0000
vn -0.9239 0.3827 -0.0000
vn -0.9239 -0.3827 -0.0000
vn -0.3686 -0.9296 -0.0000
vn 0.5444 -0.8388 -0.0000
vn 0.9793 -0.2026 -0.0000
vn 0.9998 0.0208 -0.0000
vn 1.0000 0.0010 -0.0000
vn 0.8887 0.4585 -0.0000
vn 0.2903 0.9569 -0.0000
vn -0.0156 0.9999 -0.0000
vn -0.3827 0.9239 -0.0000
vn -0.8507 0.5257 -0.0000
vn -0.8507 -0.5257 -0.0000
vn 0.1431 -0.9897 -0.0000
vn 0.9171 -0.3985 -0.0000
vn 1.0000 -0.0000 -0.0000
vn 0.9999 0.0130 -0.0000
vn 0.9152 0.4030 -0.0000
vn 0.1512 0.9885 -0.0000
vn -0.8502 0.5265 -0.0000
vn -0.9175 -0.3977 -0.0000
vn -0.1500 -0.9887 -0.0000
vn 0.8470 -0.5316 -0.0000
vn 0.9999 0.0135 -0.0000
vn 0.9239 0.3827 -0.0000
vn 0.1602 0.9871 -0.0000
vn -0.8925 0.4510 -0.0000
vn -0.9999 0.0119 -0.0000
vn -0.9730 -0.2310 -0.0000
vn -0.5145 -0.8575 -0.0000
vn 0.3827 -0.9239 -0.0000
vn 0.9239 -0.3827 -0.0000
vn 0.8671 0.4981 -0.0000
vn -0.0535 0.9986 -0.0000
vn 0.7494 -0.6621 -0.0000
vn 0.9996 0.0280 -0.0000
vn 0.8265 0.5630 -0.0000
vn -0.0150 0.9999 -0.0000
vn -0.9888 0.1493 -0.0000
vn -0.8331 -0.5531 -0.0000
vn -0.9670 0.2548 -0.0000
vn -0.6948 0.7193 -0.0000
vn -0.9999 0.0154 -0.0000
vn -0.6924 -0.7215 -0.0000
vn 0.0580 -0.9983 -0.0000
vn 0.0387 -0.9993 -0.0000
vn -0.9995 -0.0308 -0.0000
vn -0.0231 0.9997 -0.0000
vn 0.9995 0.0310 -0.0000
vt 0.423077 0.000000
vt 0.461538 0.000000
vt 0.442308 0.000000
vt 0.480769 0.000000
vt 0.288462 0.000000
vt 0.403846 0.000000
vt 0.307692 0.000000
vt 0.384615 0.000000
vt 0.365385 0.000000
vt 0.346154 0.000000
vt 0.326923 0.000000
vt 0.673077 0.000000
vt 0.500000 0.000000
vt 0.692308 0.000000
vt 0.653846 0.000000
vt 0.519231 0.000000
vt 0.634615 0.000000
vt 0.615385 0.000000
vt 0.596154 0.000000
vt 0.576923 0.000000
vt 0.557692 0.000000
vt 0.538462 0.000000
vt 0.826923 0.000000
vt 0.711538 0.000000
vt 0.846154 0.000000
vt 0.807692 0.000000
vt 0.730769 0.000000
vt 0.788462 0.000000
vt 0.769231 0.000000
vt 0.750000 0.000000
vt 0.980769 0.000000
vt 0.865385 0.000000
vt 1.000000 0.000000
vt 0.961538 0.000000
vt 0.884615 0.000000
vt 0.903846 0.000000
vt 0.923077 0.000000
vt 0.942308 0.000000
vt 0.038462 0.000000
vt 0.076923 0.000000
vt 0.057692 0.000000
vt 0.096154 0.000000
vt 0.115385 0.000000
vt 0.019231 0.000000
vt 0.134615 0.000000
vt 0.211538 0.000000
vt 0.153846 0.000000
vt 0.230769 0.000000
vt 0.269231 0.000000
vt 0.000000 0.000000
vt 0.250000 0.000000
vt 0.173077 0.000000
vt 0.192308 0.000000
vt 0.000000 1.000000
vt 0.090909 1.000000
vt 0.090909 0.000000
vt 0.181818 1.000000
vt 0.181818 0.000000
vt 0.272727 1.000000
vt 0.272727 0.000000
vt 0.363636 1.000000
vt 0.363636 0.000000
vt 0.454545 1.000000
vt 0.454545 0.000000
vt 0.545455 1.000000
vt 0.545455 0.000000
vt 0.636364 1.000000
vt 0.636364 0.000000
vt 0.727273 1.000000
vt 0.727273 0.000000
vt 0.818182 1.000000
vt 0.818182 0.000000
vt 0.909091 1.000000
vt 0.909091 0.000000
vt 1.000000 1.000000
vt 0.125000 1.000000
vt 0.125000 0.000000
vt 0.250000 1.000000
vt 0.375000 1.000000
vt 0.375000 0.000000
vt 0.500000 1.000000
vt 0.625000 1.000000
vt 0.625000 0.000000
vt 0.750000 1.000000
vt 0.875000 1.000000
vt 0.875000 0.000000
s 0
f 23/1/1 25/2/1 24/3/1
f 23/1/1 26/4/1 25/2/1
f 23/1/1 16/5/1 26/4/1
f 22/6/1 16/5/1 23/1/1
f 22/6/1 17/7/1 16/5/1
f 21/8/1 17/7/1 22/6/1
f 20/9/1 17/7/1 21/8/1
f 19/10/1 17/7/1 20/9/1
f 19/10/1 18/11/1 17/7/1
f 36/12/1 27/13/1 37/14/1
f 35/15/1 27/13/1 36/12/1
f 35/15/1 28/16/1 27/13/1
f 34/17/1 28/16/1 35/15/1
f 33/18/1 28/16/1 34/17/1
f 32/19/1 28/16/1 33/18/1
f 31/20/1 28/16/1 32/19/1
f 30/21/1 28/16/1 31/20/1
f 29/22/1 28/16/1 30/21/1
f 44/23/1 38/24/1 45/25/1
f 43/26/1 38/24/1 44/23/1
f 43/26/1 39/27/1 38/24/1
f 42/28/1 39/27/1 43/26/1
f 41/29/1 39/27/1 42/28/1
f 40/30/1 39/27/1 41/29/1
f 52/31/1 46/32/1 53/33/1
f 51/34/1 46/32/1 52/31/1
f 51/34/1 47/35/1 46/32/1
f 51/34/1 48/36/1 47/35/1
f 51/34/1 49/37/1 48/36/1
f 50/38/1 49/37/1 51/34/1
f 3/39/1 5/40/1 4/41/1
f 3/39/1 6/42/1 5/40/1
f 3/39/1 7/43/1 6/42/1
f 2/44/1 7/43/1 3/39/1
f 2/44/1 8/45/1 7/43/1
f 2/44/1 12/46/1 8/45/1
f 12/46/1 9/47/1 8/45/1
f 2/44/1 13/48/1 12/46/1
f 15/49/1 9/47/1 12/46/1
f 1/50/1 13/48/1 2/44/1
f 1/50/1 14/51/1 13/48/1
f 15/49/1 10/52/1 9/47/1
f 14/51/1 10/52/1 15/49/1
f 1/50/1 10/52/1 14/51/1
f 11/53/1 10/52/1 1/50/1
f 76/1/2 77/3/2 78/2/2
f 76/1/2 78/2/2 79/4/2
f 76/1/2 79/4/2 69/5/2
f 75/6/2 76/1/2 69/5/2
f 75/6/2 69/5/2 70/7/2
f 74/8/2 75/6/2 70/7/2
f 73/9/2 74/8/2 70/7/2
f 72/10/2 73/9/2 70/7/2
f 72/10/2 70/7/2 71/11/2
f 89/12/2 90/14/2 80/13/2
f 88/15/2 89/12/2 80/13/2
f 88/15/2 80/13/2 81/16/2
f 87/17/2 88/15/2 81/16/2
f 86/18/2 87/17/2 81/16/2
f 85/19/2 86/18/2 81/16/2
f 84/20/2 85/19/2 81/16/2
f 83/21/2 84/20/2 81/16/2
f 82/22/2 83/21/2 81/16/2
f 97/23/2 98/25/2 91/24/2
f 96/26/2 97/23/2 91/24/2
f 96/26/2 91/24/2 92/27/2
f 95/28/2 96/26/2 92/27/2
f 94/29/2 95/28/2 92/27/2
f 93/30/2 94/29/2 92/27/2
f 105/31/2 106/33/2 99/32/2
f 104/34/2 105/31/2 99/32/2
f 104/34/2 99/32/2 100/35/2
f 104/34/2 100/35/2 101/36/2
f 104/34/2 101/36/2 102/37/2
f 103/38/2 104/34/2 102/37/2
f 56/39/2 57/41/2 58/40/2
f 56/39/2 58/40/2 59/42/2
f 56/39/2 59/42/2 60/43/2
f 55/44/2 56/39/2 60/43/2
f 55/44/2 60/43/2 61/45/2
f 55/44/2 61/45/2 65/46/2
f 65/46/2 61/45/2 62/47/2
f 55/44/2 65/46/2 66/48/2
f 68/49/2 65/46/2 62/47/2
f 54/50/2 55/44/2 66/48/2
f 54/50/2 66/48/2 67/51/2
f 68/49/2 62/47/2 63/52/2
f 67/51/2 68/49/2 63/52/2
f 54/50/2 67/51/2 63/52/2
f 64/53/2 54/50/2 63/52/2
s 1
f 108/54/3 110/55/4 109/56/4 107/50/3
f 110/55/4 112/57/5 111/58/5 109/56/4
f 112/57/5 114/59/6 113/60/6 111/58/5
f 114/59/6 116/61/7 115/62/7 113/60/6
f 116/61/7 118/63/8 117/64/8 115/62/7
f 118/63/8 120/65/9 119/66/9 117/64/8
f 120/65/9 122/67/10 121/68/10 119/66/9
f 122/67/10 124/69/11 123/70/11 121/68/10
f 124/69/11 126/71/12 125/72/12 123/70/11
f 126/71/12 128/73/13 127/74/13 125/72/12
f 128/73/13 108/75/3 107/33/3 127/74/13
f 130/54/14 132/55/15 131/56/15 129/50/14
f 132/55/15 134/57/16 133/58/16 131/56/15
f 134/57/16 136/59/17 135/60/17 133/58/16
f 136/59/17 138/61/18 137/62/18 135/60/17
f 138/61/18 140/63/18 139/64/18 137/62/18
f 140/63/18 142/65/18 141/66/18 139/64/18
f 142/65/18 144/67/18 143/68/18 141/66/18
f 144/67/18 146/69/19 145/70/19 143/68/18
f 146/69/19 148/71/20 147/72/20 145/70/19
f 148/71/20 150/73/21 149/74/21 147/72/20
f 150/73/21 130/75/14 129/33/14 149/74/21
f 152/54/22 154/76/23 153/77/23 151/50/22
f 154/76/23 156/78/24 155/51/24 153/77/23
f 156/78/24 158/79/25 157/80/25 155/51/24
f 158/79/25 160/81/26 159/13/26 157/80/25
f 160/81/26 162/82/26 161/83/26 159/13/26
f 162/82/26 164/84/27 163/30/27 161/83/26
f 164/84/27 166/85/28 165/86/28 163/30/27
f 166/85/28 152/75/22 151/33/22 165/86/28
f 168/54/29 170/76/30 169/77/30 167/50/29
f 170/76/30 172/78/31 171/51/31 169/77/30
f 172/78/31 174/79/32 173/80/32 171/51/31
f 174/79/32 176/81/33 175/13/33 173/80/32
f 176/81/33 178/82/34 177/83/34 175/13/33
f 178/82/34 180/84/35 179/30/35 177/83/34
f 180/84/35 182/85/36 181/86/36 179/30/35
f 182/85/36 168/75/29 167/33/29 181/86/36
f 184/54/37 186/55/38 185/56/38 183/50/37
f 186/55/38 188/57/39 187/58/39 185/56/38
f 188/57/39 190/59/40 189/60/40 187/58/39
f 190/59/40 192/61/41 191/62/41 189/60/40
f 192/61/41 194/63/42 193/64/42 191/62/41
f 194/63/42 196/65/43 195/66/43 193/64/42
f 196/65/43 198/67/44 197/68/44 195/66/43
f 198/67/44 200/69/45 199/70/45 197/68/44
f 200/69/45 202/71/46 201/72/46 199/70/45
f 202/71/46 204/73/47 203/74/47 201/72/46
f 204/73/47 184/75/37 183/33/37 203/74/47
f 206/54/48 208/78/49 207/51/49 205/50/48
f 208/78/49 210/81/50 209/13/50 207/51/49
f 210/81/50 212/84/51 211/30/51 209/13/50
f 212/84/51 206/75/48 205/33/48 211/30/51
