# Blender 4.1.1
# www.blender.org
o _
v -0.081673 -0.475100 -0.100000
v -0.057769 -0.500000 -0.100000
v 0.040837 -0.500000 -0.100000
v 0.082669 -0.472112 -0.100000
v 0.058765 -0.447211 -0.100000
v -0.057769 -0.447211 -0.100000
v -0.192231 0.450199 -0.100000
v -0.193227 -0.034861 -0.100000
v -0.193227 -0.076693 -0.100000
v -0.192231 -0.119522 -0.100000
v -0.178287 -0.133466 -0.100000
v -0.150398 -0.119522 -0.100000
v -0.150398 0.450199 -0.100000
v -0.164343 0.464143 -0.100000
v -0.174303 0.464143 -0.100000
v -0.078685 0.390438 -0.100000
v -0.078685 -0.048805 -0.100000
v -0.078685 -0.083665 -0.100000
v -0.077689 -0.120518 -0.100000
v -0.049801 -0.133466 -0.100000
v -0.035857 -0.119522 -0.100000
v -0.035857 -0.045817 -0.100000
v -0.035857 0.404383 -0.100000
v -0.034861 0.422311 -0.100000
v -0.033865 0.437251 -0.100000
v -0.063745 0.464143 -0.100000
v -0.079681 0.433267 -0.100000
v 0.035857 0.450199 -0.100000
v 0.035857 -0.119522 -0.100000
v 0.049801 -0.134462 -0.100000
v 0.115538 -0.131474 -0.100000
v 0.129482 -0.101594 -0.100000
v 0.128486 -0.078187 -0.100000
v 0.127490 -0.045817 -0.100000
v 0.127490 0.321713 -0.100000
v 0.127490 0.385458 -0.100000
v 0.127490 0.450199 -0.100000
v 0.113546 0.465140 -0.100000
v 0.050797 0.463645 -0.100000
v 0.150398 0.450199 -0.100000
v 0.149402 -0.119522 -0.100000
v 0.178287 -0.133466 -0.100000
v 0.193227 -0.119522 -0.100000
v 0.193227 0.450199 -0.100000
v 0.178287 0.464143 -0.100000
v -0.081673 -0.475100 0.100000
v -0.057769 -0.500000 0.100000
v 0.040837 -0.500000 0.100000
v 0.082669 -0.472112 0.100000
v 0.058765 -0.447211 0.100000
v -0.057769 -0.447211 0.100000
v -0.192231 0.450199 0.100000
v -0.193227 -0.034861 0.100000
v -0.193227 -0.076693 0.100000
v -0.192231 -0.119522 0.100000
v -0.178287 -0.133466 0.100000
v -0.150398 -0.119522 0.100000
v -0.150398 0.450199 0.100000
v -0.164343 0.464143 0.100000
v -0.174303 0.464143 0.100000
v -0.078685 0.390438 0.100000
v -0.078685 -0.048805 0.100000
v -0.078685 -0.083665 0.100000
v -0.077689 -0.120518 0.100000
v -0.049801 -0.133466 0.100000
v -0.035857 -0.119522 0.100000
v -0.035857 -0.045817 0.100000
v -0.035857 0.404383 0.100000
v -0.034861 0.422311 0.100000
v -0.033864 0.437251 0.100000
v -0.063745 0.464143 0.100000
v -0.079681 0.433267 0.100000
v 0.035857 0.450199 0.100000
v 0.035857 -0.119522 0.100000
v 0.049801 -0.134462 0.100000
v 0.115538 -0.131474 0.100000
v 0.129482 -0.101594 0.100000
v 0.128486 -0.078187 0.100000
v 0.127490 -0.045817 0.100000
v 0.127490 0.321713 0.100000
v 0.127490 0.385458 0.100000
v 0.127490 0.450199 0.100000
v 0.113546 0.465140 0.100000
v 0.050797 0.463645 0.100000
v 0.150398 0.450199 0.100000
v 0.149402 -0.119522 0.100000
v 0.178287 -0.133466 0.100000
v 0.193227 -0.119522 0.100000
v 0.193227 0.450199 0.100000
v 0.178287 0.464143 0.100000
v -0.192231 0.450199 0.100000
v -0.192231 0.450199 -0.100000
v -0.193227 -0.034861 0.100000
v -0.193227 -0.034861 -0.100000
v -0.193227 -0.076693 0.100000
v -0.193227 -0.076693 -0.100000
v -0.192231 -0.119522 0.100000
v -0.192231 -0.119522 -0.100000
v -0.178287 -0.133466 0.100000
v -0.178287 -0.133466 -0.100000
v -0.150398 -0.119522 0.100000
v -0.150398 -0.119522 -0.100000
v -0.150398 0.450199 0.100000
v -0.150398 0.450199 -0.100000
v -0.164343 0.464143 0.100000
v -0.164343 0.464143 -0.100000
v -0.174303 0.464143 0.100000
v -0.174303 0.464143 -0.100000
v -0.078685 0.390438 0.100000
v -0.078685 0.390438 -0.100000
v -0.078685 -0.048805 0.100000
v -0.078685 -0.048805 -0.100000
v -0.078685 -0.083665 0.100000
v -0.078685 -0.083665 -0.100000
v -0.077689 -0.120518 0.100000
v -0.077689 -0.120518 -0.100000
v -0.049801 -0.133466 0.100000
v -0.049801 -0.133466 -0.100000
v -0.035857 -0.119522 0.100000
v -0.035857 -0.119522 -0.100000
v -0.035857 -0.045817 0.100000
v -0.035857 -0.045817 -0.100000
v -0.035857 0.404383 0.100000
v -0.035857 0.404383 -0.100000
v -0.034861 0.422311 0.100000
v -0.034861 0.422311 -0.100000
v -0.033864 0.437251 0.100000
v -0.033865 0.437251 -0.100000
v -0.063745 0.464143 0.100000
v -0.063745 0.464143 -0.100000
v -0.079681 0.433267 0.100000
v -0.079681 0.433267 -0.100000
v 0.035857 0.450199 0.100000
v 0.035857 0.450199 -0.100000
v 0.035857 -0.119522 0.100000
v 0.035857 -0.119522 -0.100000
v 0.049801 -0.134462 0.100000
v 0.049801 -0.134462 -0.100000
v 0.115538 -0.131474 0.100000
v 0.115538 -0.131474 -0.100000
v 0.129482 -0.101594 0.100000
v 0.129482 -0.101594 -0.100000
v 0.128486 -0.078187 0.100000
v 0.128486 -0.078187 -0.100000
v 0.127490 -0.045817 0.100000
v 0.127490 -0.045817 -0.100000
v 0.127490 0.321713 0.100000
v 0.127490 0.321713 -0.100000
v 0.127490 0.385458 0.100000
v 0.127490 0.385458 -0.100000
v 0.127490 0.450199 0.100000
v 0.127490 0.450199 -0.100000
v 0.113546 0.465140 0.100000
v 0.113546 0.465140 -0.100000
v 0.050797 0.463645 0.100000
v 0.050797 0.463645 -0.100000
v 0.150398 0.450199 0.100000
v 0.150398 0.450199 -0.100000
v 0.149402 -0.119522 0.100000
v 0.149402 -0.119522 -0.100000
v 0.178287 -0.133466 0.100000
v 0.178287 -0.133466 -0.100000
v 0.193227 -0.119522 0.100000
v 0.193227 -0.119522 -0.100000
v 0.193227 0.450199 0.100000
v 0.193227 0.450199 -0.100000
v 0.178287 0.464143 0.100000
v 0.178287 0.464143 -0.100000
v -0.081673 -0.475100 0.100000
v -0.081673 -0.475100 -0.100000
v -0.057769 -0.500000 0.100000
v -0.057769 -0.500000 -0.100000
v 0.040837 -0.500000 0.100000
v 0.040837 -0.500000 -0.100000
v 0.082669 -0.472112 0.100000
v 0.082669 -0.472112 -0.100000
v 0.058765 -0.447211 0.100000
v 0.058765 -0.447211 -0.100000
v -0.057769 -0.447211 0.100000
v -0.057769 -0.447211 -0.100000
vn -0.0000 -0.0000 -1.0000
vn -0.0000 -0.0000 1.0000
vn -0.8979 0.4403 -0.0000
vn -1.0000 0.0010 -0.0000
vn -0.9999 -0.0116 -0.0000
vn -0.9194 -0.3934 -0.0000
vn -0.1602 -0.9871 -0.0000
vn 0.8507 -0.5257 -0.0000
vn 0.9239 0.3827 -0.0000
vn 0.3827 0.9239 -0.0000
vn -0.3245 0.9459 -0.0000
vn -1.0000 -0.0000 -0.0000
vn -0.9999 -0.0135 -0.0000
vn -0.8356 -0.5493 -0.0000
vn 0.1745 -0.9847 -0.0000
vn 0.9239 -0.3827 -0.0000
vn 1.0000 -0.0000 -0.0000
vn 0.9996 -0.0277 -0.0000
vn 0.9981 -0.0610 -0.0000
vn 0.9265 0.3762 -0.0000
vn -0.1798 0.9837 -0.0000
vn -0.9744 0.2247 -0.0000
vn -0.9135 0.4068 -0.0000
vn -0.9303 -0.3667 -0.0000
vn -0.3776 -0.9260 -0.0000
vn 0.5562 -0.8311 -0.0000
vn 0.9806 -0.1958 -0.0000
vn 0.9993 0.0366 -0.0000
vn 0.9999 0.0154 -0.0000
vn 0.9303 0.3667 -0.0000
vn 0.3876 0.9218 -0.0000
vn -0.3694 0.9293 -0.0000
vn -0.8502 0.5265 -0.0000
vn -0.8474 -0.5309 -0.0000
vn 0.1500 -0.9887 -0.0000
vn 0.9171 -0.3985 -0.0000
vn 0.9171 0.3985 -0.0000
vn 0.1431 0.9897 -0.0000
vn -0.9996 -0.0282 -0.0000
vn -0.3921 -0.9199 -0.0000
vn 0.2898 -0.9571 -0.0000
vn 0.9941 -0.1087 -0.0000
vn 0.3921 0.9199 -0.0000
vn -0.4179 0.9085 -0.0000
vt 0.272727 0.000000
vt 0.318182 0.000000
vt 0.295455 0.000000
vt 0.136364 0.000000
vt 0.250000 0.000000
vt 0.159091 0.000000
vt 0.181818 0.000000
vt 0.204545 0.000000
vt 0.227273 0.000000
vt 0.545455 0.000000
vt 0.590909 0.000000
vt 0.568182 0.000000
vt 0.522727 0.000000
vt 0.340909 0.000000
vt 0.500000 0.000000
vt 0.477273 0.000000
vt 0.363636 0.000000
vt 0.454545 0.000000
vt 0.386364 0.000000
vt 0.409091 0.000000
vt 0.431818 0.000000
vt 0.818182 0.000000
vt 0.863636 0.000000
vt 0.840909 0.000000
vt 0.613636 0.000000
vt 0.795455 0.000000
vt 0.636364 0.000000
vt 0.772727 0.000000
vt 0.750000 0.000000
vt 0.727273 0.000000
vt 0.704545 0.000000
vt 0.681818 0.000000
vt 0.659091 0.000000
vt 0.977273 0.000000
vt 0.886364 0.000000
vt 1.000000 0.000000
vt 0.954545 0.000000
vt 0.909091 0.000000
vt 0.931818 0.000000
vt 0.068182 0.000000
vt 0.113636 0.000000
vt 0.090909 0.000000
vt 0.000000 0.000000
vt 0.045455 0.000000
vt 0.022727 0.000000
vt 0.000000 1.000000
vt 0.111111 1.000000
vt 0.111111 0.000000
vt 0.222222 1.000000
vt 0.222222 0.000000
vt 0.333333 1.000000
vt 0.333333 0.000000
vt 0.444444 1.000000
vt 0.444444 0.000000
vt 0.555556 1.000000
vt 0.555556 0.000000
vt 0.666667 1.000000
vt 0.666667 0.000000
vt 0.777778 1.000000
vt 0.777778 0.000000
vt 0.888889 1.000000
vt 0.888889 0.000000
vt 1.000000 1.000000
vt 0.083333 1.000000
vt 0.083333 0.000000
vt 0.166667 1.000000
vt 0.166667 0.000000
vt 0.250000 1.000000
vt 0.416667 1.000000
vt 0.416667 0.000000
vt 0.500000 1.000000
vt 0.583333 1.000000
vt 0.583333 0.000000
vt 0.750000 1.000000
vt 0.833333 1.000000
vt 0.833333 0.000000
vt 0.916667 1.000000
vt 0.916667 0.000000
s 0
f 13/1/1 15/2/1 14/3/1
f 13/1/1 7/4/1 15/2/1
f 12/5/1 7/4/1 13/1/1
f 12/5/1 8/6/1 7/4/1
f 12/5/1 9/7/1 8/6/1
f 12/5/1 10/8/1 9/7/1
f 11/9/1 10/8/1 12/5/1
f 25/10/1 27/11/1 26/12/1
f 24/13/1 27/11/1 25/10/1
f 24/13/1 16/14/1 27/11/1
f 23/15/1 16/14/1 24/13/1
f 22/16/1 16/14/1 23/15/1
f 22/16/1 17/17/1 16/14/1
f 21/18/1 17/17/1 22/16/1
f 21/18/1 18/19/1 17/17/1
f 21/18/1 19/20/1 18/19/1
f 20/21/1 19/20/1 21/18/1
f 37/22/1 39/23/1 38/24/1
f 37/22/1 28/25/1 39/23/1
f 36/26/1 28/25/1 37/22/1
f 36/26/1 29/27/1 28/25/1
f 35/28/1 29/27/1 36/26/1
f 34/29/1 29/27/1 35/28/1
f 33/30/1 29/27/1 34/29/1
f 32/31/1 29/27/1 33/30/1
f 31/32/1 29/27/1 32/31/1
f 31/32/1 30/33/1 29/27/1
f 44/34/1 40/35/1 45/36/1
f 43/37/1 40/35/1 44/34/1
f 43/37/1 41/38/1 40/35/1
f 42/39/1 41/38/1 43/37/1
f 4/40/1 6/41/1 5/42/1
f 4/40/1 1/43/1 6/41/1
f 3/44/1 1/43/1 4/40/1
f 3/44/1 2/45/1 1/43/1
f 58/1/2 59/3/2 60/2/2
f 58/1/2 60/2/2 52/4/2
f 57/5/2 58/1/2 52/4/2
f 57/5/2 52/4/2 53/6/2
f 57/5/2 53/6/2 54/7/2
f 57/5/2 54/7/2 55/8/2
f 56/9/2 57/5/2 55/8/2
f 70/10/2 71/12/2 72/11/2
f 69/13/2 70/10/2 72/11/2
f 69/13/2 72/11/2 61/14/2
f 68/15/2 69/13/2 61/14/2
f 67/16/2 68/15/2 61/14/2
f 67/16/2 61/14/2 62/17/2
f 66/18/2 67/16/2 62/17/2
f 66/18/2 62/17/2 63/19/2
f 66/18/2 63/19/2 64/20/2
f 65/21/2 66/18/2 64/20/2
f 82/22/2 83/24/2 84/23/2
f 82/22/2 84/23/2 73/25/2
f 81/26/2 82/22/2 73/25/2
f 81/26/2 73/25/2 74/27/2
f 80/28/2 81/26/2 74/27/2
f 79/29/2 80/28/2 74/27/2
f 78/30/2 79/29/2 74/27/2
f 77/31/2 78/30/2 74/27/2
f 76/32/2 77/31/2 74/27/2
f 76/32/2 74/27/2 75/33/2
f 89/34/2 90/36/2 85/35/2
f 88/37/2 89/34/2 85/35/2
f 88/37/2 85/35/2 86/38/2
f 87/39/2 88/37/2 86/38/2
f 49/40/2 50/42/2 51/41/2
f 49/40/2 51/41/2 46/43/2
f 48/44/2 49/40/2 46/43/2
f 48/44/2 46/43/2 47/45/2
s 1
f 92/46/3 94/47/4 93/48/4 91/43/3
f 94/47/4 96/49/5 95/50/5 93/48/4
f 96/49/5 98/51/6 97/52/6 95/50/5
f 98/51/6 100/53/7 99/54/7 97/52/6
f 100/53/7 102/55/8 101/56/8 99/54/7
f 102/55/8 104/57/9 103/58/9 101/56/8
f 104/57/9 106/59/10 105/60/10 103/58/9
f 106/59/10 108/61/11 107/62/11 105/60/10
f 108/61/11 92/63/3 91/36/3 107/62/11
f 110/46/5 112/64/12 111/65/12 109/43/5
f 112/64/12 114/66/13 113/67/13 111/65/12
f 114/66/13 116/68/14 115/5/14 113/67/13
f 116/68/14 118/51/15 117/52/15 115/5/14
f 118/51/15 120/69/16 119/70/16 117/52/15
f 120/69/16 122/71/17 121/15/17 119/70/16
f 122/71/17 124/72/18 123/73/18 121/15/17
f 124/72/18 126/57/19 125/58/19 123/73/18
f 126/57/19 128/74/20 127/29/20 125/58/19
f 128/74/20 130/75/21 129/76/21 127/29/20
f 130/75/21 132/77/22 131/78/22 129/76/21
f 132/77/22 110/63/5 109/36/5 131/78/22
f 134/46/23 136/64/24 135/65/24 133/43/23
f 136/64/24 138/66/25 137/67/25 135/65/24
f 138/66/25 140/68/26 139/5/26 137/67/25
f 140/68/26 142/51/27 141/52/27 139/5/26
f 142/51/27 144/69/28 143/70/28 141/52/27
f 144/69/28 146/71/29 145/15/29 143/70/28
f 146/71/29 148/72/17 147/73/17 145/15/29
f 148/72/17 150/57/17 149/58/17 147/73/17
f 150/57/17 152/74/30 151/29/30 149/58/17
f 152/74/30 154/75/31 153/76/31 151/29/30
f 154/75/31 156/77/32 155/78/32 153/76/31
f 156/77/32 134/63/23 133/36/23 155/78/32
f 158/46/33 160/66/34 159/67/34 157/43/33
f 160/66/34 162/51/35 161/52/35 159/67/34
f 162/51/35 164/71/36 163/15/36 161/52/35
f 164/71/36 166/57/37 165/58/37 163/15/36
f 166/57/37 168/75/38 167/76/38 165/58/37
f 168/75/38 158/63/33 157/36/33 167/76/38
f 170/46/39 172/66/40 171/67/40 169/43/39
f 172/66/40 174/51/41 173/52/41 171/67/40
f 174/51/41 176/71/42 175/15/42 173/52/41
f 176/71/42 178/57/43 177/58/43 175/15/42
f 178/57/43 180/75/44 179/76/44 177/58/43
f 180/75/44 170/63/39 169/36/39 179/76/44
