# Blender 4.1.1
# www.blender.org
o m
v -0.900000 -0.300000 -0.100000
v -0.800000 -0.300000 -0.100000
v -0.900000 -0.100000 -0.100000
v -1.000000 0.100000 -0.100000
v -1.100000 0.300000 -0.100000
v -1.200000 0.500000 -0.100000
v -1.300000 0.700000 -0.100000
v -1.400000 0.700000 -0.100000
v -1.300000 0.500000 -0.100000
v -1.298437 0.500000 -0.100000
v -1.200000 0.300000 -0.100000
v -1.198438 0.300000 -0.100000
v -1.100000 0.100000 -0.100000
v -1.098437 0.100000 -0.100000
v -1.000000 -0.100000 -0.100000
v -0.998438 -0.100000 -0.100000
v 0.700000 0.100000 -0.100000
v 1.300000 0.100000 -0.100000
v 1.371875 0.128125 -0.100000
v 1.400000 0.200000 -0.100000
v 1.371875 0.270312 -0.100000
v 1.300000 0.300000 -0.100000
v 0.700000 0.300000 -0.100000
v 0.629687 0.270312 -0.100000
v 0.600000 0.200000 -0.100000
v 0.629687 0.128125 -0.100000
v -0.500000 0.100000 -0.100000
v 0.100000 0.100000 -0.100000
v 0.171875 0.128125 -0.100000
v 0.200000 0.200000 -0.100000
v 0.171875 0.270312 -0.100000
v 0.100000 0.300000 -0.100000
v -0.500000 0.300000 -0.100000
v -0.570313 0.270312 -0.100000
v -0.600000 0.200000 -0.100000
v -0.570313 0.128125 -0.100000
v -0.900000 -0.300000 0.100000
v -0.800000 -0.300000 0.100000
v -0.900000 -0.100000 0.100000
v -1.000000 0.100000 0.100000
v -1.100000 0.300000 0.100000
v -1.200000 0.500000 0.100000
v -1.300000 0.700000 0.100000
v -1.400000 0.700000 0.100000
v -1.300000 0.500000 0.100000
v -1.298437 0.500000 0.100000
v -1.200000 0.300000 0.100000
v -1.198438 0.300000 0.100000
v -1.100000 0.100000 0.100000
v -1.098437 0.100000 0.100000
v -1.000000 -0.100000 0.100000
v -0.998437 -0.100000 0.100000
v 0.700000 0.100000 0.100000
v 1.300000 0.100000 0.100000
v 1.371875 0.128125 0.100000
v 1.400000 0.200000 0.100000
v 1.371875 0.270312 0.100000
v 1.300000 0.300000 0.100000
v 0.700000 0.300000 0.100000
v 0.629688 0.270312 0.100000
v 0.600000 0.200000 0.100000
v 0.629688 0.128125 0.100000
v -0.500000 0.100000 0.100000
v 0.100000 0.100000 0.100000
v 0.171875 0.128125 0.100000
v 0.200000 0.200000 0.100000
v 0.171875 0.270312 0.100000
v 0.100000 0.300000 0.100000
v -0.500000 0.300000 0.100000
v -0.570313 0.270312 0.100000
v -0.600000 0.200000 0.100000
v -0.570313 0.128125 0.100000
v 0.700000 0.100000 0.100000
v 0.700000 0.100000 -0.100000
v 1.300000 0.100000 0.100000
v 1.300000 0.100000 -0.100000
v 1.371875 0.128125 0.100000
v 1.371875 0.128125 -0.100000
v 1.400000 0.200000 0.100000
v 1.400000 0.200000 -0.100000
v 1.371875 0.270312 0.100000
v 1.371875 0.270312 -0.100000
v 1.300000 0.300000 0.100000
v 1.300000 0.300000 -0.100000
v 0.700000 0.300000 0.100000
v 0.700000 0.300000 -0.100000
v 0.629688 0.270312 0.100000
v 0.629687 0.270312 -0.100000
v 0.600000 0.200000 0.100000
v 0.600000 0.200000 -0.100000
v 0.629688 0.128125 0.100000
v 0.629687 0.128125 -0.100000
v -0.500000 0.100000 0.100000
v -0.500000 0.100000 -0.100000
v 0.100000 0.100000 0.100000
v 0.100000 0.100000 -0.100000
v 0.171875 0.128125 0.100000
v 0.171875 0.128125 -0.100000
v 0.200000 0.200000 0.100000
v 0.200000 0.200000 -0.100000
v 0.171875 0.270312 0.100000
v 0.171875 0.270312 -0.100000
v 0.100000 0.300000 0.100000
v 0.100000 0.300000 -0.100000
v -0.500000 0.300000 0.100000
v -0.500000 0.300000 -0.100000
v -0.570313 0.270312 0.100000
v -0.570313 0.270312 -0.100000
v -0.600000 0.200000 0.100000
v -0.600000 0.200000 -0.100000
v -0.570313 0.128125 0.100000
v -0.570313 0.128125 -0.100000
v -0.900000 -0.300000 0.100000
v -0.900000 -0.300000 -0.100000
v -0.800000 -0.300000 0.100000
v -0.800000 -0.300000 -0.100000
v -0.900000 -0.100000 0.100000
v -0.900000 -0.100000 -0.100000
v -1.000000 0.100000 0.100000
v -1.000000 0.100000 -0.100000
v -1.100000 0.300000 0.100000
v -1.100000 0.300000 -0.100000
v -1.200000 0.500000 0.100000
v -1.200000 0.500000 -0.100000
v -1.300000 0.700000 0.100000
v -1.300000 0.700000 -0.100000
v -1.400000 0.700000 0.100000
v -1.400000 0.700000 -0.100000
v -1.300000 0.500000 0.100000
v -1.300000 0.500000 -0.100000
v -1.298437 0.500000 0.100000
v -1.298437 0.500000 -0.100000
v -1.200000 0.300000 0.100000
v -1.200000 0.300000 -0.100000
v -1.198438 0.300000 0.100000
v -1.198438 0.300000 -0.100000
v -1.100000 0.100000 0.100000
v -1.100000 0.100000 -0.100000
v -1.098437 0.100000 0.100000
v -1.098437 0.100000 -0.100000
v -1.000000 -0.100000 0.100000
v -1.000000 -0.100000 -0.100000
v -0.998437 -0.100000 0.100000
v -0.998438 -0.100000 -0.100000
vn -0.0000 -0.0000 -1.0000
vn -0.0000 -0.0000 1.0000
vn -0.1891 -0.9820 -0.0000
vn 0.1854 -0.9827 -0.0000
vn 0.7071 -0.7071 -0.0000
vn 1.0000 0.0038 -0.0000
vn 0.7111 0.7031 -0.0000
vn 0.1946 0.9809 -0.0000
vn -0.1984 0.9801 -0.0000
vn -0.7071 0.7071 -0.0000
vn -1.0000 0.0039 -0.0000
vn -0.7031 -0.7111 -0.0000
vn -0.5284 -0.8490 -0.0000
vn 0.8507 -0.5257 -0.0000
vn 0.8944 0.4472 -0.0000
vn 0.5257 0.8507 -0.0000
vn -0.8507 0.5257 -0.0000
vn -0.5257 -0.8507 -0.0000
vt 0.571429 0.000000
vt 0.628571 0.000000
vt 0.600000 0.000000
vt 0.657143 0.000000
vt 0.542857 0.000000
vt 0.685714 0.000000
vt 0.514286 0.000000
vt 0.714286 0.000000
vt 0.485714 0.000000
vt 0.457143 0.000000
vt 0.857143 0.000000
vt 0.914286 0.000000
vt 0.885714 0.000000
vt 0.942857 0.000000
vt 0.828571 0.000000
vt 0.971429 0.000000
vt 0.800000 0.000000
vt 1.000000 0.000000
vt 0.771429 0.000000
vt 0.742857 0.000000
vt 0.142857 0.000000
vt 0.200000 0.000000
vt 0.171429 0.000000
vt 0.228571 0.000000
vt 0.114286 0.000000
vt 0.257143 0.000000
vt 0.285714 0.000000
vt 0.085714 0.000000
vt 0.314286 0.000000
vt 0.342857 0.000000
vt 0.057143 0.000000
vt 0.371429 0.000000
vt 0.400000 0.000000
vt 0.028571 0.000000
vt 0.428571 0.000000
vt 0.000000 0.000000
vt 0.000000 1.000000
vt 0.100000 1.000000
vt 0.100000 0.000000
vt 0.200000 1.000000
vt 0.300000 1.000000
vt 0.300000 0.000000
vt 0.400000 1.000000
vt 0.500000 1.000000
vt 0.500000 0.000000
vt 0.600000 1.000000
vt 0.700000 1.000000
vt 0.700000 0.000000
vt 0.800000 1.000000
vt 0.900000 1.000000
vt 0.900000 0.000000
vt 1.000000 1.000000
vt 0.062500 1.000000
vt 0.062500 0.000000
vt 0.125000 1.000000
vt 0.125000 0.000000
vt 0.187500 1.000000
vt 0.187500 0.000000
vt 0.250000 1.000000
vt 0.250000 0.000000
vt 0.312500 1.000000
vt 0.312500 0.000000
vt 0.375000 1.000000
vt 0.375000 0.000000
vt 0.437500 1.000000
vt 0.437500 0.000000
vt 0.562500 1.000000
vt 0.562500 0.000000
vt 0.625000 1.000000
vt 0.625000 0.000000
vt 0.687500 1.000000
vt 0.687500 0.000000
vt 0.750000 1.000000
vt 0.750000 0.000000
vt 0.812500 1.000000
vt 0.812500 0.000000
vt 0.875000 1.000000
vt 0.875000 0.000000
vt 0.937500 1.000000
vt 0.937500 0.000000
s 0
f 21/1/1 23/2/1 22/3/1
f 21/1/1 24/4/1 23/2/1
f 20/5/1 24/4/1 21/1/1
f 20/5/1 25/6/1 24/4/1
f 19/7/1 25/6/1 20/5/1
f 19/7/1 26/8/1 25/6/1
f 18/9/1 26/8/1 19/7/1
f 18/9/1 17/10/1 26/8/1
f 31/11/1 33/12/1 32/13/1
f 31/11/1 34/14/1 33/12/1
f 30/15/1 34/14/1 31/11/1
f 30/15/1 35/16/1 34/14/1
f 29/17/1 35/16/1 30/15/1
f 29/17/1 36/18/1 35/16/1
f 28/19/1 36/18/1 29/17/1
f 28/19/1 27/20/1 36/18/1
f 6/21/1 8/22/1 7/23/1
f 6/21/1 9/24/1 8/22/1
f 5/25/1 10/26/1 6/21/1
f 10/26/1 9/24/1 6/21/1
f 5/25/1 11/27/1 10/26/1
f 4/28/1 12/29/1 5/25/1
f 12/29/1 11/27/1 5/25/1
f 4/28/1 13/30/1 12/29/1
f 3/31/1 14/32/1 4/28/1
f 14/32/1 13/30/1 4/28/1
f 3/31/1 15/33/1 14/32/1
f 2/34/1 16/35/1 3/31/1
f 16/35/2 15/33/2 3/31/2
f 2/34/1 1/36/1 16/35/1
f 57/1/2 58/3/2 59/2/2
f 57/1/2 59/2/2 60/4/2
f 56/5/2 57/1/2 60/4/2
f 56/5/2 60/4/2 61/6/2
f 55/7/2 56/5/2 61/6/2
f 55/7/2 61/6/2 62/8/2
f 54/9/2 55/7/2 62/8/2
f 54/9/2 62/8/2 53/10/2
f 67/11/2 68/13/2 69/12/2
f 67/11/2 69/12/2 70/14/2
f 66/15/2 67/11/2 70/14/2
f 66/15/2 70/14/2 71/16/2
f 65/17/2 66/15/2 71/16/2
f 65/17/2 71/16/2 72/18/2
f 64/19/2 65/17/2 72/18/2
f 64/19/2 72/18/2 63/20/2
f 42/21/2 43/23/2 44/22/2
f 42/21/2 44/22/2 45/24/2
f 41/25/2 42/21/2 46/26/2
f 46/26/1 42/21/1 45/24/1
f 41/25/2 46/26/2 47/27/2
f 40/28/2 41/25/2 48/29/2
f 48/29/2 41/25/2 47/27/2
f 40/28/2 48/29/2 49/30/2
f 39/31/2 40/28/2 50/32/2
f 50/32/1 40/28/1 49/30/1
f 39/31/2 50/32/2 51/33/2
f 38/34/2 39/31/2 52/35/2
f 52/35/1 39/31/1 51/33/1
f 38/34/2 52/35/2 37/36/2
s 1
f 74/37/3 76/38/4 75/39/4 73/36/3
f 76/38/4 78/40/5 77/22/5 75/39/4
f 78/40/5 80/41/6 79/42/6 77/22/5
f 80/41/6 82/43/7 81/33/7 79/42/6
f 82/43/7 84/44/8 83/45/8 81/33/7
f 84/44/8 86/46/9 85/3/9 83/45/8
f 86/46/9 88/47/10 87/48/10 85/3/9
f 88/47/10 90/49/11 89/17/11 87/48/10
f 90/49/11 92/50/12 91/51/12 89/17/11
f 92/50/12 74/52/3 73/18/3 91/51/12
f 94/37/3 96/38/4 95/39/4 93/36/3
f 96/38/4 98/40/5 97/22/5 95/39/4
f 98/40/5 100/41/6 99/42/6 97/22/5
f 100/41/6 102/43/7 101/33/7 99/42/6
f 102/43/7 104/44/8 103/45/8 101/33/7
f 104/44/8 106/46/9 105/3/9 103/45/8
f 106/46/9 108/47/10 107/48/10 105/3/9
f 108/47/10 110/49/11 109/17/11 107/48/10
f 110/49/11 112/50/12 111/51/12 109/17/11
f 112/50/12 94/52/3 93/18/3 111/51/12
f 114/37/13 116/53/14 115/54/14 113/36/13
f 116/53/14 118/55/15 117/56/15 115/54/14
f 118/55/15 120/57/15 119/58/15 117/56/15
f 120/57/15 122/59/15 121/60/15 119/58/15
f 122/59/15 124/61/15 123/62/15 121/60/15
f 124/61/15 126/63/16 125/64/16 123/62/15
f 126/63/16 128/65/17 127/66/17 125/64/16
f 128/65/17 130/44/18 129/45/18 127/66/17
f 130/44/18 132/67/13 131/68/13 129/45/18
f 132/67/13 134/69/13 133/70/13 131/68/13
f 134/69/13 136/71/13 135/72/13 133/70/13
f 136/71/13 138/73/13 137/74/13 135/72/13
f 138/73/13 140/75/13 139/76/13 137/74/13
f 140/75/13 142/77/13 141/78/13 139/76/13
f 142/77/13 144/79/13 143/80/13 141/78/13
f 144/79/13 114/52/13 113/18/13 143/80/13
