# Blender 4.1.1
# www.blender.org
o f
v -1.200000 -0.300000 -0.100000
v -1.100000 -0.300000 -0.100000
v -1.200000 -0.100000 -0.100000
v -1.300000 0.100000 -0.100000
v -1.400000 0.300000 -0.100000
v -1.500000 0.500000 -0.100000
v -1.600000 0.700000 -0.100000
v -1.700000 0.700000 -0.099999
v -1.600000 0.500000 -0.100000
v -1.598438 0.500000 -0.100000
v -1.500000 0.300000 -0.100000
v -1.498438 0.300000 -0.100000
v -1.400000 0.100000 -0.100000
v -1.398438 0.100000 -0.100000
v -1.300000 -0.100000 -0.100000
v -1.298437 -0.100000 -0.100000
v 1.600000 0.100000 -0.100001
v 1.671875 0.128125 -0.100001
v 1.700000 0.200000 -0.100001
v 1.671875 0.270312 -0.100001
v 1.600000 0.300000 -0.100001
v 1.529687 0.270312 -0.100001
v 1.500000 0.200000 -0.100001
v 1.529687 0.128125 -0.100001
v 1.000000 0.100000 -0.100000
v 1.071875 0.128125 -0.100000
v 1.100000 0.200000 -0.100000
v 1.071875 0.270312 -0.100000
v 1.000000 0.300000 -0.100000
v 0.929687 0.270312 -0.100000
v 0.900000 0.200000 -0.100000
v 0.929687 0.128125 -0.100000
v -0.200000 0.100000 -0.100000
v 0.400000 0.100000 -0.100000
v 0.471875 0.128125 -0.100000
v 0.500000 0.200000 -0.100000
v 0.471875 0.270312 -0.100000
v 0.400000 0.300000 -0.100000
v -0.200000 0.300000 -0.100000
v -0.270313 0.270312 -0.100000
v -0.300000 0.200000 -0.100000
v -0.270313 0.128125 -0.100000
v -0.800000 0.100000 -0.100000
v -0.728125 0.128125 -0.100000
v -0.700000 0.200000 -0.100000
v -0.728125 0.270312 -0.100000
v -0.800000 0.300000 -0.100000
v -0.870313 0.270312 -0.100000
v -0.900000 0.200000 -0.100000
v -0.870313 0.128125 -0.100000
v -1.200000 -0.300000 0.100000
v -1.100000 -0.300000 0.100000
v -1.200000 -0.100000 0.100000
v -1.300000 0.100000 0.100000
v -1.400000 0.300000 0.100000
v -1.500000 0.500000 0.100000
v -1.600000 0.700000 0.100000
v -1.700000 0.700000 0.100001
v -1.600000 0.500000 0.100001
v -1.598438 0.500000 0.100001
v -1.500000 0.300000 0.100000
v -1.498438 0.300000 0.100000
v -1.400000 0.100000 0.100000
v -1.398438 0.100000 0.100000
v -1.300000 -0.100000 0.100000
v -1.298437 -0.100000 0.100000
v 1.600000 0.100000 0.099999
v 1.671875 0.128125 0.099999
v 1.700000 0.200000 0.099999
v 1.671875 0.270312 0.099999
v 1.600000 0.300000 0.099999
v 1.529687 0.270312 0.099999
v 1.500000 0.200000 0.100000
v 1.529687 0.128125 0.099999
v 1.000000 0.100000 0.100000
v 1.071875 0.128125 0.100000
v 1.100000 0.200000 0.100000
v 1.071875 0.270312 0.100000
v 1.000000 0.300000 0.100000
v 0.929688 0.270312 0.100000
v 0.900000 0.200000 0.100000
v 0.929688 0.128125 0.100000
v -0.200000 0.100000 0.100000
v 0.400000 0.100000 0.100000
v 0.471875 0.128125 0.100000
v 0.500000 0.200000 0.100000
v 0.471875 0.270312 0.100000
v 0.400000 0.300000 0.100000
v -0.200000 0.300000 0.100000
v -0.270313 0.270312 0.100000
v -0.300000 0.200000 0.100000
v -0.270313 0.128125 0.100000
v -0.800000 0.100000 0.100000
v -0.728125 0.128125 0.100000
v -0.700000 0.200000 0.100000
v -0.728125 0.270312 0.100000
v -0.800000 0.300000 0.100000
v -0.870313 0.270312 0.100000
v -0.900000 0.200000 0.100000
v -0.870313 0.128125 0.100000
v 1.600000 0.100000 0.099999
v 1.600000 0.100000 -0.100001
v 1.671875 0.128125 0.099999
v 1.671875 0.128125 -0.100001
v 1.700000 0.200000 0.099999
v 1.700000 0.200000 -0.100001
v 1.671875 0.270312 0.099999
v 1.671875 0.270312 -0.100001
v 1.600000 0.300000 0.099999
v 1.600000 0.300000 -0.100001
v 1.529687 0.270312 0.099999
v 1.529687 0.270312 -0.100001
v 1.500000 0.200000 0.100000
v 1.500000 0.200000 -0.100001
v 1.529687 0.128125 0.099999
v 1.529687 0.128125 -0.100001
v 1.000000 0.100000 0.100000
v 1.000000 0.100000 -0.100000
v 1.071875 0.128125 0.100000
v 1.071875 0.128125 -0.100000
v 1.100000 0.200000 0.100000
v 1.100000 0.200000 -0.100000
v 1.071875 0.270312 0.100000
v 1.071875 0.270312 -0.100000
v 1.000000 0.300000 0.100000
v 1.000000 0.300000 -0.100000
v 0.929688 0.270312 0.100000
v 0.929687 0.270312 -0.100000
v 0.900000 0.200000 0.100000
v 0.900000 0.200000 -0.100000
v 0.929688 0.128125 0.100000
v 0.929687 0.128125 -0.100000
v -0.200000 0.100000 0.100000
v -0.200000 0.100000 -0.100000
v 0.400000 0.100000 0.100000
v 0.400000 0.100000 -0.100000
v 0.471875 0.128125 0.100000
v 0.471875 0.128125 -0.100000
v 0.500000 0.200000 0.100000
v 0.500000 0.200000 -0.100000
v 0.471875 0.270312 0.100000
v 0.471875 0.270312 -0.100000
v 0.400000 0.300000 0.100000
v 0.400000 0.300000 -0.100000
v -0.200000 0.300000 0.100000
v -0.200000 0.300000 -0.100000
v -0.270313 0.270312 0.100000
v -0.270313 0.270312 -0.100000
v -0.300000 0.200000 0.100000
v -0.300000 0.200000 -0.100000
v -0.270313 0.128125 0.100000
v -0.270313 0.128125 -0.100000
v -0.800000 0.100000 0.100000
v -0.800000 0.100000 -0.100000
v -0.728125 0.128125 0.100000
v -0.728125 0.128125 -0.100000
v -0.700000 0.200000 0.100000
v -0.700000 0.200000 -0.100000
v -0.728125 0.270312 0.100000
v -0.728125 0.270312 -0.100000
v -0.800000 0.300000 0.100000
v -0.800000 0.300000 -0.100000
v -0.870313 0.270312 0.100000
v -0.870313 0.270312 -0.100000
v -0.900000 0.200000 0.100000
v -0.900000 0.200000 -0.100000
v -0.870313 0.128125 0.100000
v -0.870313 0.128125 -0.100000
v -1.200000 -0.300000 0.100000
v -1.200000 -0.300000 -0.100000
v -1.100000 -0.300000 0.100000
v -1.100000 -0.300000 -0.100000
v -1.200000 -0.100000 0.100000
v -1.200000 -0.100000 -0.100000
v -1.300000 0.100000 0.100000
v -1.300000 0.100000 -0.100000
v -1.400000 0.300000 0.100000
v -1.400000 0.300000 -0.100000
v -1.500000 0.500000 0.100000
v -1.500000 0.500000 -0.100000
v -1.600000 0.700000 0.100000
v -1.600000 0.700000 -0.100000
v -1.700000 0.700000 0.100001
v -1.700000 0.700000 -0.099999
v -1.600000 0.500000 0.100001
v -1.600000 0.500000 -0.100000
v -1.598438 0.500000 0.100001
v -1.598438 0.500000 -0.100000
v -1.500000 0.300000 0.100000
v -1.500000 0.300000 -0.100000
v -1.498438 0.300000 0.100000
v -1.498438 0.300000 -0.100000
v -1.400000 0.100000 0.100000
v -1.400000 0.100000 -0.100000
v -1.398438 0.100000 0.100000
v -1.398438 0.100000 -0.100000
v -1.300000 -0.100000 0.100000
v -1.300000 -0.100000 -0.100000
v -1.298437 -0.100000 0.100000
v -1.298437 -0.100000 -0.100000
vn -0.0000 -0.0000 -1.0000
vn -0.0000 -0.0000 1.0000
vn -0.0038 -1.0000 -0.0000
vn 0.7071 -0.7071 -0.0000
vn 1.0000 0.0038 -0.0000
vn 0.7111 0.7031 -0.0000
vn -0.0039 1.0000 -0.0000
vn -0.7071 0.7071 -0.0000
vn -1.0000 0.0039 -0.0000
vn -0.7031 -0.7111 -0.0000
vn -0.1891 -0.9820 -0.0000
vn 0.1854 -0.9827 -0.0000
vn 0.1946 0.9809 -0.0000
vn -0.1984 0.9801 -0.0000
vn -0.5284 -0.8490 -0.0000
vn 0.8507 -0.5257 -0.0000
vn 0.8944 0.4472 -0.0000
vn 0.5257 0.8507 -0.0000
vn -0.8507 0.5257 -0.0000
vn -0.5257 -0.8507 -0.0000
vt 0.387755 0.000000
vt 0.428571 0.000000
vt 0.408163 0.000000
vt 0.367347 0.000000
vt 0.448980 0.000000
vt 0.346939 0.000000
vt 0.469388 0.000000
vt 0.326531 0.000000
vt 0.551020 0.000000
vt 0.591837 0.000000
vt 0.571429 0.000000
vt 0.530612 0.000000
vt 0.612245 0.000000
vt 0.510204 0.000000
vt 0.632653 0.000000
vt 0.489796 0.000000
vt 0.734694 0.000000
vt 0.775510 0.000000
vt 0.755102 0.000000
vt 0.795918 0.000000
vt 0.714286 0.000000
vt 0.816327 0.000000
vt 0.693878 0.000000
vt 0.836735 0.000000
vt 0.673469 0.000000
vt 0.653061 0.000000
vt 0.918367 0.000000
vt 0.959184 0.000000
vt 0.938776 0.000000
vt 0.897959 0.000000
vt 0.979592 0.000000
vt 0.877551 0.000000
vt 1.000000 0.000000
vt 0.857143 0.000000
vt 0.102041 0.000000
vt 0.142857 0.000000
vt 0.122449 0.000000
vt 0.163265 0.000000
vt 0.081633 0.000000
vt 0.183673 0.000000
vt 0.204082 0.000000
vt 0.061224 0.000000
vt 0.224490 0.000000
vt 0.244898 0.000000
vt 0.040816 0.000000
vt 0.265306 0.000000
vt 0.285714 0.000000
vt 0.020408 0.000000
vt 0.306122 0.000000
vt 0.000000 0.000000
vt 0.000000 1.000000
vt 0.125000 1.000000
vt 0.125000 0.000000
vt 0.250000 1.000000
vt 0.250000 0.000000
vt 0.375000 1.000000
vt 0.375000 0.000000
vt 0.500000 1.000000
vt 0.500000 0.000000
vt 0.625000 1.000000
vt 0.625000 0.000000
vt 0.750000 1.000000
vt 0.750000 0.000000
vt 0.875000 1.000000
vt 0.875000 0.000000
vt 1.000000 1.000000
vt 0.100000 1.000000
vt 0.100000 0.000000
vt 0.200000 1.000000
vt 0.200000 0.000000
vt 0.300000 1.000000
vt 0.300000 0.000000
vt 0.400000 1.000000
vt 0.400000 0.000000
vt 0.600000 1.000000
vt 0.600000 0.000000
vt 0.700000 1.000000
vt 0.700000 0.000000
vt 0.800000 1.000000
vt 0.800000 0.000000
vt 0.900000 1.000000
vt 0.900000 0.000000
vt 0.062500 1.000000
vt 0.062500 0.000000
vt 0.187500 1.000000
vt 0.187500 0.000000
vt 0.312500 1.000000
vt 0.312500 0.000000
vt 0.437500 1.000000
vt 0.437500 0.000000
vt 0.562500 1.000000
vt 0.562500 0.000000
vt 0.687500 1.000000
vt 0.687500 0.000000
vt 0.812500 1.000000
vt 0.812500 0.000000
vt 0.937500 1.000000
vt 0.937500 0.000000
s 0
f 20/1/1 22/2/1 21/3/1
f 19/4/1 22/2/1 20/1/1
f 19/4/1 23/5/1 22/2/1
f 18/6/1 23/5/1 19/4/1
f 18/6/1 24/7/1 23/5/1
f 17/8/1 24/7/1 18/6/1
f 28/9/1 30/10/1 29/11/1
f 27/12/1 30/10/1 28/9/1
f 27/12/1 31/13/1 30/10/1
f 26/14/1 31/13/1 27/12/1
f 26/14/1 32/15/1 31/13/1
f 25/16/1 32/15/1 26/14/1
f 37/17/1 39/18/1 38/19/1
f 37/17/1 40/20/1 39/18/1
f 36/21/1 40/20/1 37/17/1
f 36/21/1 41/22/1 40/20/1
f 35/23/1 41/22/1 36/21/1
f 35/23/1 42/24/1 41/22/1
f 34/25/1 42/24/1 35/23/1
f 34/25/1 33/26/1 42/24/1
f 46/27/1 48/28/1 47/29/1
f 45/30/1 48/28/1 46/27/1
f 45/30/1 49/31/1 48/28/1
f 44/32/1 49/31/1 45/30/1
f 44/32/1 50/33/1 49/31/1
f 43/34/1 50/33/1 44/32/1
f 6/35/1 8/36/1 7/37/1
f 6/35/1 9/38/1 8/36/1
f 5/39/1 10/40/1 6/35/1
f 10/40/1 9/38/1 6/35/1
f 5/39/1 11/41/1 10/40/1
f 4/42/1 12/43/1 5/39/1
f 12/43/1 11/41/1 5/39/1
f 4/42/1 13/44/1 12/43/1
f 3/45/1 14/46/1 4/42/1
f 14/46/2 13/44/2 4/42/2
f 3/45/1 15/47/1 14/46/1
f 2/48/1 16/49/1 3/45/1
f 16/49/1 15/47/1 3/45/1
f 2/48/1 1/50/1 16/49/1
f 70/1/2 71/3/2 72/2/2
f 69/4/2 70/1/2 72/2/2
f 69/4/2 72/2/2 73/5/2
f 68/6/2 69/4/2 73/5/2
f 68/6/2 73/5/2 74/7/2
f 67/8/2 68/6/2 74/7/2
f 78/9/2 79/11/2 80/10/2
f 77/12/2 78/9/2 80/10/2
f 77/12/2 80/10/2 81/13/2
f 76/14/2 77/12/2 81/13/2
f 76/14/2 81/13/2 82/15/2
f 75/16/2 76/14/2 82/15/2
f 87/17/2 88/19/2 89/18/2
f 87/17/2 89/18/2 90/20/2
f 86/21/2 87/17/2 90/20/2
f 86/21/2 90/20/2 91/22/2
f 85/23/2 86/21/2 91/22/2
f 85/23/2 91/22/2 92/24/2
f 84/25/2 85/23/2 92/24/2
f 84/25/2 92/24/2 83/26/2
f 96/27/2 97/29/2 98/28/2
f 95/30/2 96/27/2 98/28/2
f 95/30/2 98/28/2 99/31/2
f 94/32/2 95/30/2 99/31/2
f 94/32/2 99/31/2 100/33/2
f 93/34/2 94/32/2 100/33/2
f 56/35/2 57/37/2 58/36/2
f 56/35/2 58/36/2 59/38/2
f 55/39/2 56/35/2 60/40/2
f 60/40/1 56/35/1 59/38/1
f 55/39/2 60/40/2 61/41/2
f 54/42/2 55/39/2 62/43/2
f 62/43/1 55/39/1 61/41/1
f 54/42/2 62/43/2 63/44/2
f 53/45/2 54/42/2 64/46/2
f 64/46/1 54/42/1 63/44/1
f 53/45/2 64/46/2 65/47/2
f 52/48/2 53/45/2 66/49/2
f 66/49/1 53/45/1 65/47/1
f 52/48/2 66/49/2 51/50/2
s 1
f 102/51/3 104/52/4 103/53/4 101/50/3
f 104/52/4 106/54/5 105/55/5 103/53/4
f 106/54/5 108/56/6 107/57/6 105/55/5
f 108/56/6 110/58/7 109/59/7 107/57/6
f 110/58/7 112/60/8 111/61/8 109/59/7
f 112/60/8 114/62/9 113/63/9 111/61/8
f 114/62/9 116/64/10 115/65/10 113/63/9
f 116/64/10 102/66/3 101/33/3 115/65/10
f 118/51/3 120/52/4 119/53/4 117/50/3
f 120/52/4 122/54/5 121/55/5 119/53/4
f 122/54/5 124/56/6 123/57/6 121/55/5
f 124/56/6 126/58/7 125/59/7 123/57/6
f 126/58/7 128/60/8 127/61/8 125/59/7
f 128/60/8 130/62/9 129/63/9 127/61/8
f 130/62/9 132/64/10 131/65/10 129/63/9
f 132/64/10 118/66/3 117/33/3 131/65/10
f 134/51/11 136/67/12 135/68/12 133/50/11
f 136/67/12 138/69/4 137/70/4 135/68/12
f 138/69/4 140/71/5 139/72/5 137/70/4
f 140/71/5 142/73/6 141/74/6 139/72/5
f 142/73/6 144/58/13 143/59/13 141/74/6
f 144/58/13 146/75/14 145/76/14 143/59/13
f 146/75/14 148/77/8 147/78/8 145/76/14
f 148/77/8 150/79/9 149/80/9 147/78/8
f 150/79/9 152/81/10 151/82/10 149/80/9
f 152/81/10 134/66/11 133/33/11 151/82/10
f 154/51/3 156/52/4 155/53/4 153/50/3
f 156/52/4 158/54/5 157/55/5 155/53/4
f 158/54/5 160/56/6 159/57/6 157/55/5
f 160/56/6 162/58/7 161/59/7 159/57/6
f 162/58/7 164/60/8 163/61/8 161/59/7
f 164/60/8 166/62/9 165/63/9 163/61/8
f 166/62/9 168/64/10 167/65/10 165/63/9
f 168/64/10 154/66/3 153/33/3 167/65/10
f 170/51/15 172/83/16 171/84/16 169/50/15
f 172/83/16 174/52/17 173/53/17 171/84/16
f 174/52/17 176/85/17 175/86/17 173/53/17
f 176/85/17 178/54/17 177/55/17 175/86/17
f 178/54/17 180/87/17 179/88/17 177/55/17
f 180/87/17 182/56/18 181/57/18 179/88/17
f 182/56/18 184/89/19 183/90/19 181/57/18
f 184/89/19 186/58/20 185/59/20 183/90/19
f 186/58/20 188/91/15 187/92/15 185/59/20
f 188/91/15 190/60/15 189/61/15 187/92/15
f 190/60/15 192/93/15 191/94/15 189/61/15
f 192/93/15 194/62/15 193/63/15 191/94/15
f 194/62/15 196/95/15 195/96/15 193/63/15
f 196/95/15 198/64/15 197/65/15 195/96/15
f 198/64/15 200/97/15 199/98/15 197/65/15
f 200/97/15 170/66/15 169/33/15 199/98/15
