# Blender 4.1.1
# www.blender.org
o i
v -0.300000 -0.300000 -0.100000
v -0.200000 -0.300000 -0.100000
v -0.300000 -0.100000 -0.100000
v -0.400000 0.100000 -0.100000
v -0.500000 0.300000 -0.100000
v -0.600000 0.500000 -0.100000
v -0.700000 0.700000 -0.100000
v -0.800000 0.700000 -0.100000
v -0.700000 0.500000 -0.100000
v -0.698438 0.500000 -0.100000
v -0.600000 0.300000 -0.100000
v -0.598438 0.300000 -0.100000
v -0.500000 0.100000 -0.100000
v -0.498438 0.100000 -0.100000
v -0.400000 -0.100000 -0.100000
v -0.398438 -0.100000 -0.100000
v 0.700000 0.100000 -0.100000
v 0.771875 0.128125 -0.100000
v 0.800000 0.200000 -0.100000
v 0.771875 0.270312 -0.100000
v 0.700000 0.300000 -0.100000
v 0.629687 0.270312 -0.100000
v 0.600000 0.200000 -0.100000
v 0.629687 0.128125 -0.100000
v 0.100000 0.100000 -0.100000
v 0.171875 0.128125 -0.100000
v 0.200000 0.200000 -0.100000
v 0.171875 0.270312 -0.100000
v 0.100000 0.300000 -0.100000
v 0.029687 0.270312 -0.100000
v -0.000000 0.200000 -0.100000
v 0.029687 0.128125 -0.100000
v -0.300000 -0.300000 0.100000
v -0.200000 -0.300000 0.100000
v -0.300000 -0.100000 0.100000
v -0.400000 0.100000 0.100000
v -0.500000 0.300000 0.100000
v -0.600000 0.500000 0.100000
v -0.700000 0.700000 0.100000
v -0.800000 0.700000 0.100000
v -0.700000 0.500000 0.100000
v -0.698438 0.500000 0.100000
v -0.600000 0.300000 0.100000
v -0.598437 0.300000 0.100000
v -0.500000 0.100000 0.100000
v -0.498437 0.100000 0.100000
v -0.400000 -0.100000 0.100000
v -0.398437 -0.100000 0.100000
v 0.700000 0.100000 0.100000
v 0.771875 0.128125 0.100000
v 0.800000 0.200000 0.100000
v 0.771875 0.270312 0.100000
v 0.700000 0.300000 0.100000
v 0.629688 0.270312 0.100000
v 0.600000 0.200000 0.100000
v 0.629688 0.128125 0.100000
v 0.100000 0.100000 0.100000
v 0.171875 0.128125 0.100000
v 0.200000 0.200000 0.100000
v 0.171875 0.270312 0.100000
v 0.100000 0.300000 0.100000
v 0.029687 0.270312 0.100000
v 0.000000 0.200000 0.100000
v 0.029687 0.128125 0.100000
v 0.700000 0.100000 0.100000
v 0.700000 0.100000 -0.100000
v 0.771875 0.128125 0.100000
v 0.771875 0.128125 -0.100000
v 0.800000 0.200000 0.100000
v 0.800000 0.200000 -0.100000
v 0.771875 0.270312 0.100000
v 0.771875 0.270312 -0.100000
v 0.700000 0.300000 0.100000
v 0.700000 0.300000 -0.100000
v 0.629688 0.270312 0.100000
v 0.629687 0.270312 -0.100000
v 0.600000 0.200000 0.100000
v 0.600000 0.200000 -0.100000
v 0.629688 0.128125 0.100000
v 0.629687 0.128125 -0.100000
v 0.100000 0.100000 0.100000
v 0.100000 0.100000 -0.100000
v 0.171875 0.128125 0.100000
v 0.171875 0.128125 -0.100000
v 0.200000 0.200000 0.100000
v 0.200000 0.200000 -0.100000
v 0.171875 0.270312 0.100000
v 0.171875 0.270312 -0.100000
v 0.100000 0.300000 0.100000
v 0.100000 0.300000 -0.100000
v 0.029687 0.270312 0.100000
v 0.029687 0.270312 -0.100000
v 0.000000 0.200000 0.100000
v -0.000000 0.200000 -0.100000
v 0.029687 0.128125 0.100000
v 0.029687 0.128125 -0.100000
v -0.300000 -0.300000 0.100000
v -0.300000 -0.300000 -0.100000
v -0.200000 -0.300000 0.100000
v -0.200000 -0.300000 -0.100000
v -0.300000 -0.100000 0.100000
v -0.300000 -0.100000 -0.100000
v -0.400000 0.100000 0.100000
v -0.400000 0.100000 -0.100000
v -0.500000 0.300000 0.100000
v -0.500000 0.300000 -0.100000
v -0.600000 0.500000 0.100000
v -0.600000 0.500000 -0.100000
v -0.700000 0.700000 0.100000
v -0.700000 0.700000 -0.100000
v -0.800000 0.700000 0.100000
v -0.800000 0.700000 -0.100000
v -0.700000 0.500000 0.100000
v -0.700000 0.500000 -0.100000
v -0.698438 0.500000 0.100000
v -0.698438 0.500000 -0.100000
v -0.600000 0.300000 0.100000
v -0.600000 0.300000 -0.100000
v -0.598437 0.300000 0.100000
v -0.598438 0.300000 -0.100000
v -0.500000 0.100000 0.100000
v -0.500000 0.100000 -0.100000
v -0.498437 0.100000 0.100000
v -0.498438 0.100000 -0.100000
v -0.400000 -0.100000 0.100000
v -0.400000 -0.100000 -0.100000
v -0.398437 -0.100000 0.100000
v -0.398438 -0.100000 -0.100000
vn -0.0000 -0.0000 -1.0000
vn -0.0000 -0.0000 1.0000
vn -0.0038 -1.0000 -0.0000
vn 0.7071 -0.7071 -0.0000
vn 1.0000 0.0038 -0.0000
vn 0.7111 0.7031 -0.0000
vn -0.0039 1.0000 -0.0000
vn -0.7071 0.7071 -0.0000
vn -1.0000 0.0039 -0.0000
vn -0.7031 -0.7111 -0.0000
vn -0.5284 -0.8490 -0.0000
vn 0.8507 -0.5257 -0.0000
vn 0.8944 0.4472 -0.0000
vn 0.5257 0.8507 -0.0000
vn -0.8507 0.5257 -0.0000
vn -0.5257 -0.8507 -0.0000
vt 0.612903 0.000000
vt 0.677419 0.000000
vt 0.645161 0.000000
vt 0.580645 0.000000
vt 0.709677 0.000000
vt 0.548387 0.000000
vt 0.741935 0.000000
vt 0.516129 0.000000
vt 0.870968 0.000000
vt 0.935484 0.000000
vt 0.903226 0.000000
vt 0.838710 0.000000
vt 0.967742 0.000000
vt 0.806452 0.000000
vt 1.000000 0.000000
vt 0.774194 0.000000
vt 0.161290 0.000000
vt 0.225806 0.000000
vt 0.193548 0.000000
vt 0.258065 0.000000
vt 0.129032 0.000000
vt 0.290323 0.000000
vt 0.322581 0.000000
vt 0.096774 0.000000
vt 0.354839 0.000000
vt 0.387097 0.000000
vt 0.064516 0.000000
vt 0.419355 0.000000
vt 0.451613 0.000000
vt 0.032258 0.000000
vt 0.483871 0.000000
vt 0.000000 0.000000
vt 0.000000 1.000000
vt 0.125000 1.000000
vt 0.125000 0.000000
vt 0.250000 1.000000
vt 0.250000 0.000000
vt 0.375000 1.000000
vt 0.375000 0.000000
vt 0.500000 1.000000
vt 0.500000 0.000000
vt 0.625000 1.000000
vt 0.625000 0.000000
vt 0.750000 1.000000
vt 0.750000 0.000000
vt 0.875000 1.000000
vt 0.875000 0.000000
vt 1.000000 1.000000
vt 0.062500 1.000000
vt 0.062500 0.000000
vt 0.187500 1.000000
vt 0.187500 0.000000
vt 0.312500 1.000000
vt 0.312500 0.000000
vt 0.437500 1.000000
vt 0.437500 0.000000
vt 0.562500 1.000000
vt 0.562500 0.000000
vt 0.687500 1.000000
vt 0.687500 0.000000
vt 0.812500 1.000000
vt 0.812500 0.000000
vt 0.937500 1.000000
vt 0.937500 0.000000
s 0
f 20/1/1 22/2/1 21/3/1
f 19/4/1 22/2/1 20/1/1
f 19/4/1 23/5/1 22/2/1
f 18/6/1 23/5/1 19/4/1
f 18/6/1 24/7/1 23/5/1
f 17/8/1 24/7/1 18/6/1
f 28/9/1 30/10/1 29/11/1
f 27/12/1 30/10/1 28/9/1
f 27/12/1 31/13/1 30/10/1
f 26/14/1 31/13/1 27/12/1
f 26/14/1 32/15/1 31/13/1
f 25/16/1 32/15/1 26/14/1
f 6/17/1 8/18/1 7/19/1
f 6/17/1 9/20/1 8/18/1
f 5/21/1 10/22/1 6/17/1
f 10/22/1 9/20/1 6/17/1
f 5/21/1 11/23/1 10/22/1
f 4/24/1 12/25/1 5/21/1
f 12/25/1 11/23/1 5/21/1
f 4/24/1 13/26/1 12/25/1
f 3/27/1 14/28/1 4/24/1
f 14/28/2 13/26/2 4/24/2
f 3/27/1 15/29/1 14/28/1
f 2/30/1 16/31/1 3/27/1
f 16/31/1 15/29/1 3/27/1
f 2/30/1 1/32/1 16/31/1
f 52/1/2 53/3/2 54/2/2
f 51/4/2 52/1/2 54/2/2
f 51/4/2 54/2/2 55/5/2
f 50/6/2 51/4/2 55/5/2
f 50/6/2 55/5/2 56/7/2
f 49/8/2 50/6/2 56/7/2
f 60/9/2 61/11/2 62/10/2
f 59/12/2 60/9/2 62/10/2
f 59/12/2 62/10/2 63/13/2
f 58/14/2 59/12/2 63/13/2
f 58/14/2 63/13/2 64/15/2
f 57/16/2 58/14/2 64/15/2
f 38/17/2 39/19/2 40/18/2
f 38/17/2 40/18/2 41/20/2
f 37/21/2 38/17/2 42/22/2
f 42/22/1 38/17/1 41/20/1
f 37/21/2 42/22/2 43/23/2
f 36/24/2 37/21/2 44/25/2
f 44/25/2 37/21/2 43/23/2
f 36/24/2 44/25/2 45/26/2
f 35/27/2 36/24/2 46/28/2
f 46/28/1 36/24/1 45/26/1
f 35/27/2 46/28/2 47/29/2
f 34/30/2 35/27/2 48/31/2
f 48/31/1 35/27/1 47/29/1
f 34/30/2 48/31/2 33/32/2
s 1
f 66/33/3 68/34/4 67/35/4 65/32/3
f 68/34/4 70/36/5 69/37/5 67/35/4
f 70/36/5 72/38/6 71/39/6 69/37/5
f 72/38/6 74/40/7 73/41/7 71/39/6
f 74/40/7 76/42/8 75/43/8 73/41/7
f 76/42/8 78/44/9 77/45/9 75/43/8
f 78/44/9 80/46/10 79/47/10 77/45/9
f 80/46/10 66/48/3 65/15/3 79/47/10
f 82/33/3 84/34/4 83/35/4 81/32/3
f 84/34/4 86/36/5 85/37/5 83/35/4
f 86/36/5 88/38/6 87/39/6 85/37/5
f 88/38/6 90/40/7 89/41/7 87/39/6
f 90/40/7 92/42/8 91/43/8 89/41/7
f 92/42/8 94/44/9 93/45/9 91/43/8
f 94/44/9 96/46/10 95/47/10 93/45/9
f 96/46/10 82/48/3 81/15/3 95/47/10
f 98/33/11 100/49/12 99/50/12 97/32/11
f 100/49/12 102/34/13 101/35/13 99/50/12
f 102/34/13 104/51/13 103/52/13 101/35/13
f 104/51/13 106/36/13 105/37/13 103/52/13
f 106/36/13 108/53/13 107/54/13 105/37/13
f 108/53/13 110/38/14 109/39/14 107/54/13
f 110/38/14 112/55/15 111/56/15 109/39/14
f 112/55/15 114/40/16 113/41/16 111/56/15
f 114/40/16 116/57/11 115/58/11 113/41/16
f 116/57/11 118/42/11 117/43/11 115/58/11
f 118/42/11 120/59/11 119/60/11 117/43/11
f 120/59/11 122/44/11 121/45/11 119/60/11
f 122/44/11 124/61/11 123/62/11 121/45/11
f 124/61/11 126/46/11 125/47/11 123/62/11
f 126/46/11 128/63/11 127/64/11 125/47/11
f 128/63/11 98/48/11 97/15/11 127/64/11
