# Blender 4.1.1
# www.blender.org
o d
v -0.900000 -0.300000 -0.100000
v -0.800000 -0.300000 -0.100000
v -0.900000 -0.100000 -0.100000
v -1.000000 0.100000 -0.100000
v -1.100000 0.300000 -0.100000
v -1.200000 0.500000 -0.100000
v -1.300000 0.700000 -0.100000
v -1.400000 0.700000 -0.100000
v -1.300000 0.500000 -0.100000
v -1.298437 0.500000 -0.100000
v -1.200000 0.300000 -0.100000
v -1.198438 0.300000 -0.100000
v -1.100000 0.100000 -0.100000
v -1.098437 0.100000 -0.100000
v -1.000000 -0.100000 -0.100000
v -0.998438 -0.100000 -0.100000
v 0.700000 0.100000 -0.100000
v 1.300000 0.100000 -0.100000
v 1.371875 0.128125 -0.100000
v 1.400000 0.200000 -0.100000
v 1.371875 0.270312 -0.100000
v 1.300000 0.300000 -0.100000
v 0.700000 0.300000 -0.100000
v 0.629687 0.270312 -0.100000
v 0.600000 0.200000 -0.100000
v 0.629687 0.128125 -0.100000
v 0.100000 0.100000 -0.100000
v 0.171875 0.128125 -0.100000
v 0.200000 0.200000 -0.100000
v 0.171875 0.270312 -0.100000
v 0.100000 0.300000 -0.100000
v 0.029687 0.270312 -0.100000
v -0.000000 0.200000 -0.100000
v 0.029687 0.128125 -0.100000
v -0.500000 0.100000 -0.100000
v -0.428125 0.128125 -0.100000
v -0.400000 0.200000 -0.100000
v -0.428125 0.270312 -0.100000
v -0.500000 0.300000 -0.100000
v -0.570313 0.270312 -0.100000
v -0.600000 0.200000 -0.100000
v -0.570313 0.128125 -0.100000
v -0.900000 -0.300000 0.100000
v -0.800000 -0.300000 0.100000
v -0.900000 -0.100000 0.100000
v -1.000000 0.100000 0.100000
v -1.100000 0.300000 0.100000
v -1.200000 0.500000 0.100000
v -1.300000 0.700000 0.100000
v -1.400000 0.700000 0.100000
v -1.300000 0.500000 0.100000
v -1.298437 0.500000 0.100000
v -1.200000 0.300000 0.100000
v -1.198438 0.300000 0.100000
v -1.100000 0.100000 0.100000
v -1.098437 0.100000 0.100000
v -1.000000 -0.100000 0.100000
v -0.998437 -0.100000 0.100000
v 0.700000 0.100000 0.100000
v 1.300000 0.100000 0.100000
v 1.371875 0.128125 0.100000
v 1.400000 0.200000 0.100000
v 1.371875 0.270312 0.100000
v 1.300000 0.300000 0.100000
v 0.700000 0.300000 0.100000
v 0.629688 0.270312 0.100000
v 0.600000 0.200000 0.100000
v 0.629688 0.128125 0.100000
v 0.100000 0.100000 0.100000
v 0.171875 0.128125 0.100000
v 0.200000 0.200000 0.100000
v 0.171875 0.270312 0.100000
v 0.100000 0.300000 0.100000
v 0.029688 0.270312 0.100000
v 0.000000 0.200000 0.100000
v 0.029688 0.128125 0.100000
v -0.500000 0.100000 0.100000
v -0.428125 0.128125 0.100000
v -0.400000 0.200000 0.100000
v -0.428125 0.270312 0.100000
v -0.500000 0.300000 0.100000
v -0.570313 0.270312 0.100000
v -0.600000 0.200000 0.100000
v -0.570313 0.128125 0.100000
v 0.700000 0.100000 0.100000
v 0.700000 0.100000 -0.100000
v 1.300000 0.100000 0.100000
v 1.300000 0.100000 -0.100000
v 1.371875 0.128125 0.100000
v 1.371875 0.128125 -0.100000
v 1.400000 0.200000 0.100000
v 1.400000 0.200000 -0.100000
v 1.371875 0.270312 0.100000
v 1.371875 0.270312 -0.100000
v 1.300000 0.300000 0.100000
v 1.300000 0.300000 -0.100000
v 0.700000 0.300000 0.100000
v 0.700000 0.300000 -0.100000
v 0.629688 0.270312 0.100000
v 0.629687 0.270312 -0.100000
v 0.600000 0.200000 0.100000
v 0.600000 0.200000 -0.100000
v 0.629688 0.128125 0.100000
v 0.629687 0.128125 -0.100000
v 0.100000 0.100000 0.100000
v 0.100000 0.100000 -0.100000
v 0.171875 0.128125 0.100000
v 0.171875 0.128125 -0.100000
v 0.200000 0.200000 0.100000
v 0.200000 0.200000 -0.100000
v 0.171875 0.270312 0.100000
v 0.171875 0.270312 -0.100000
v 0.100000 0.300000 0.100000
v 0.100000 0.300000 -0.100000
v 0.029688 0.270312 0.100000
v 0.029687 0.270312 -0.100000
v 0.000000 0.200000 0.100000
v -0.000000 0.200000 -0.100000
v 0.029688 0.128125 0.100000
v 0.029687 0.128125 -0.100000
v -0.500000 0.100000 0.100000
v -0.500000 0.100000 -0.100000
v -0.428125 0.128125 0.100000
v -0.428125 0.128125 -0.100000
v -0.400000 0.200000 0.100000
v -0.400000 0.200000 -0.100000
v -0.428125 0.270312 0.100000
v -0.428125 0.270312 -0.100000
v -0.500000 0.300000 0.100000
v -0.500000 0.300000 -0.100000
v -0.570313 0.270312 0.100000
v -0.570313 0.270312 -0.100000
v -0.600000 0.200000 0.100000
v -0.600000 0.200000 -0.100000
v -0.570313 0.128125 0.100000
v -0.570313 0.128125 -0.100000
v -0.900000 -0.300000 0.100000
v -0.900000 -0.300000 -0.100000
v -0.800000 -0.300000 0.100000
v -0.800000 -0.300000 -0.100000
v -0.900000 -0.100000 0.100000
v -0.900000 -0.100000 -0.100000
v -1.000000 0.100000 0.100000
v -1.000000 0.100000 -0.100000
v -1.100000 0.300000 0.100000
v -1.100000 0.300000 -0.100000
v -1.200000 0.500000 0.100000
v -1.200000 0.500000 -0.100000
v -1.300000 0.700000 0.100000
v -1.300000 0.700000 -0.100000
v -1.400000 0.700000 0.100000
v -1.400000 0.700000 -0.100000
v -1.300000 0.500000 0.100000
v -1.300000 0.500000 -0.100000
v -1.298437 0.500000 0.100000
v -1.298437 0.500000 -0.100000
v -1.200000 0.300000 0.100000
v -1.200000 0.300000 -0.100000
v -1.198438 0.300000 0.100000
v -1.198438 0.300000 -0.100000
v -1.100000 0.100000 0.100000
v -1.100000 0.100000 -0.100000
v -1.098437 0.100000 0.100000
v -1.098437 0.100000 -0.100000
v -1.000000 -0.100000 0.100000
v -1.000000 -0.100000 -0.100000
v -0.998437 -0.100000 0.100000
v -0.998438 -0.100000 -0.100000
vn -0.0000 -0.0000 -1.0000
vn -0.0000 -0.0000 1.0000
vn -0.1891 -0.9820 -0.0000
vn 0.1854 -0.9827 -0.0000
vn 0.7071 -0.7071 -0.0000
vn 1.0000 0.0038 -0.0000
vn 0.7111 0.7031 -0.0000
vn 0.1946 0.9809 -0.0000
vn -0.1984 0.9801 -0.0000
vn -0.7071 0.7071 -0.0000
vn -1.0000 0.0039 -0.0000
vn -0.7031 -0.7111 -0.0000
vn -0.0038 -1.0000 -0.0000
vn -0.0039 1.0000 -0.0000
vn -0.5284 -0.8490 -0.0000
vn 0.8507 -0.5257 -0.0000
vn 0.8944 0.4472 -0.0000
vn 0.5257 0.8507 -0.0000
vn -0.8507 0.5257 -0.0000
vn -0.5257 -0.8507 -0.0000
vt 0.487805 0.000000
vt 0.536585 0.000000
vt 0.512195 0.000000
vt 0.560976 0.000000
vt 0.463415 0.000000
vt 0.585366 0.000000
vt 0.439024 0.000000
vt 0.609756 0.000000
vt 0.414634 0.000000
vt 0.390244 0.000000
vt 0.707317 0.000000
vt 0.756098 0.000000
vt 0.731707 0.000000
vt 0.682927 0.000000
vt 0.780488 0.000000
vt 0.658537 0.000000
vt 0.804878 0.000000
vt 0.634146 0.000000
vt 0.902439 0.000000
vt 0.951219 0.000000
vt 0.926829 0.000000
vt 0.878049 0.000000
vt 0.975610 0.000000
vt 0.853659 0.000000
vt 1.000000 0.000000
vt 0.829268 0.000000
vt 0.121951 0.000000
vt 0.170732 0.000000
vt 0.146341 0.000000
vt 0.195122 0.000000
vt 0.097561 0.000000
vt 0.219512 0.000000
vt 0.243902 0.000000
vt 0.073171 0.000000
vt 0.268293 0.000000
vt 0.292683 0.000000
vt 0.048780 0.000000
vt 0.317073 0.000000
vt 0.341463 0.000000
vt 0.024390 0.000000
vt 0.365854 0.000000
vt 0.000000 0.000000
vt 0.000000 1.000000
vt 0.100000 1.000000
vt 0.100000 0.000000
vt 0.200000 1.000000
vt 0.200000 0.000000
vt 0.300000 1.000000
vt 0.300000 0.000000
vt 0.400000 1.000000
vt 0.400000 0.000000
vt 0.500000 1.000000
vt 0.500000 0.000000
vt 0.600000 1.000000
vt 0.600000 0.000000
vt 0.700000 1.000000
vt 0.700000 0.000000
vt 0.800000 1.000000
vt 0.800000 0.000000
vt 0.900000 1.000000
vt 0.900000 0.000000
vt 1.000000 1.000000
vt 0.125000 1.000000
vt 0.125000 0.000000
vt 0.250000 1.000000
vt 0.250000 0.000000
vt 0.375000 1.000000
vt 0.375000 0.000000
vt 0.625000 1.000000
vt 0.625000 0.000000
vt 0.750000 1.000000
vt 0.750000 0.000000
vt 0.875000 1.000000
vt 0.875000 0.000000
vt 0.062500 1.000000
vt 0.062500 0.000000
vt 0.187500 1.000000
vt 0.187500 0.000000
vt 0.312500 1.000000
vt 0.312500 0.000000
vt 0.437500 1.000000
vt 0.437500 0.000000
vt 0.562500 1.000000
vt 0.562500 0.000000
vt 0.687500 1.000000
vt 0.687500 0.000000
vt 0.812500 1.000000
vt 0.812500 0.000000
vt 0.937500 1.000000
vt 0.937500 0.000000
s 0
f 21/1/1 23/2/1 22/3/1
f 21/1/1 24/4/1 23/2/1
f 20/5/1 24/4/1 21/1/1
f 20/5/1 25/6/1 24/4/1
f 19/7/1 25/6/1 20/5/1
f 19/7/1 26/8/1 25/6/1
f 18/9/1 26/8/1 19/7/1
f 18/9/1 17/10/1 26/8/1
f 30/11/1 32/12/1 31/13/1
f 29/14/1 32/12/1 30/11/1
f 29/14/1 33/15/1 32/12/1
f 28/16/1 33/15/1 29/14/1
f 28/16/1 34/17/1 33/15/1
f 27/18/1 34/17/1 28/16/1
f 38/19/1 40/20/1 39/21/1
f 37/22/1 40/20/1 38/19/1
f 37/22/1 41/23/1 40/20/1
f 36/24/1 41/23/1 37/22/1
f 36/24/1 42/25/1 41/23/1
f 35/26/1 42/25/1 36/24/1
f 6/27/1 8/28/1 7/29/1
f 6/27/1 9/30/1 8/28/1
f 5/31/1 10/32/1 6/27/1
f 10/32/1 9/30/1 6/27/1
f 5/31/1 11/33/1 10/32/1
f 4/34/1 12/35/1 5/31/1
f 12/35/1 11/33/1 5/31/1
f 4/34/1 13/36/1 12/35/1
f 3/37/1 14/38/1 4/34/1
f 14/38/1 13/36/1 4/34/1
f 3/37/1 15/39/1 14/38/1
f 2/40/1 16/41/1 3/37/1
f 16/41/2 15/39/2 3/37/2
f 2/40/1 1/42/1 16/41/1
f 63/1/2 64/3/2 65/2/2
f 63/1/2 65/2/2 66/4/2
f 62/5/2 63/1/2 66/4/2
f 62/5/2 66/4/2 67/6/2
f 61/7/2 62/5/2 67/6/2
f 61/7/2 67/6/2 68/8/2
f 60/9/2 61/7/2 68/8/2
f 60/9/2 68/8/2 59/10/2
f 72/11/2 73/13/2 74/12/2
f 71/14/2 72/11/2 74/12/2
f 71/14/2 74/12/2 75/15/2
f 70/16/2 71/14/2 75/15/2
f 70/16/2 75/15/2 76/17/2
f 69/18/2 70/16/2 76/17/2
f 80/19/2 81/21/2 82/20/2
f 79/22/2 80/19/2 82/20/2
f 79/22/2 82/20/2 83/23/2
f 78/24/2 79/22/2 83/23/2
f 78/24/2 83/23/2 84/25/2
f 77/26/2 78/24/2 84/25/2
f 48/27/2 49/29/2 50/28/2
f 48/27/2 50/28/2 51/30/2
f 47/31/2 48/27/2 52/32/2
f 52/32/1 48/27/1 51/30/1
f 47/31/2 52/32/2 53/33/2
f 46/34/2 47/31/2 54/35/2
f 54/35/2 47/31/2 53/33/2
f 46/34/2 54/35/2 55/36/2
f 45/37/2 46/34/2 56/38/2
f 56/38/1 46/34/1 55/36/1
f 45/37/2 56/38/2 57/39/2
f 44/40/2 45/37/2 58/41/2
f 58/41/1 45/37/1 57/39/1
f 44/40/2 58/41/2 43/42/2
s 1
f 86/43/3 88/44/4 87/45/4 85/42/3
f 88/44/4 90/46/5 89/47/5 87/45/4
f 90/46/5 92/48/6 91/49/6 89/47/5
f 92/48/6 94/50/7 93/51/7 91/49/6
f 94/50/7 96/52/8 95/53/8 93/51/7
f 96/52/8 98/54/9 97/55/9 95/53/8
f 98/54/9 100/56/10 99/57/10 97/55/9
f 100/56/10 102/58/11 101/59/11 99/57/10
f 102/58/11 104/60/12 103/61/12 101/59/11
f 104/60/12 86/62/3 85/25/3 103/61/12
f 106/43/13 108/63/5 107/64/5 105/42/13
f 108/63/5 110/65/6 109/66/6 107/64/5
f 110/65/6 112/67/7 111/68/7 109/66/6
f 112/67/7 114/52/14 113/53/14 111/68/7
f 114/52/14 116/69/10 115/70/10 113/53/14
f 116/69/10 118/71/11 117/72/11 115/70/10
f 118/71/11 120/73/12 119/74/12 117/72/11
f 120/73/12 106/62/13 105/25/13 119/74/12
f 122/43/13 124/63/5 123/64/5 121/42/13
f 124/63/5 126/65/6 125/66/6 123/64/5
f 126/65/6 128/67/7 127/68/7 125/66/6
f 128/67/7 130/52/14 129/53/14 127/68/7
f 130/52/14 132/69/10 131/70/10 129/53/14
f 132/69/10 134/71/11 133/72/11 131/70/10
f 134/71/11 136/73/12 135/74/12 133/72/11
f 136/73/12 122/62/13 121/25/13 135/74/12
f 138/43/15 140/75/16 139/76/16 137/42/15
f 140/75/16 142/63/17 141/64/17 139/76/16
f 142/63/17 144/77/17 143/78/17 141/64/17
f 144/77/17 146/65/17 145/66/17 143/78/17
f 146/65/17 148/79/17 147/80/17 145/66/17
f 148/79/17 150/67/18 149/68/18 147/80/17
f 150/67/18 152/81/19 151/82/19 149/68/18
f 152/81/19 154/52/20 153/53/20 151/82/19
f 154/52/20 156/83/15 155/84/15 153/53/20
f 156/83/15 158/69/15 157/70/15 155/84/15
f 158/69/15 160/85/15 159/86/15 157/70/15
f 160/85/15 162/71/15 161/72/15 159/86/15
f 162/71/15 164/87/15 163/88/15 161/72/15
f 164/87/15 166/73/15 165/74/15 163/88/15
f 166/73/15 168/89/15 167/90/15 165/74/15
f 168/89/15 138/62/15 137/25/15 167/90/15
