# Blender 4.1.1
# www.blender.org
o h
v -0.900000 -0.300000 -0.100000
v -0.800000 -0.300000 -0.100000
v -0.900000 -0.100000 -0.100000
v -1.000000 0.100000 -0.100000
v -1.100000 0.300000 -0.100000
v -1.200000 0.500000 -0.100000
v -1.300000 0.700000 -0.100000
v -1.400000 0.700000 -0.100000
v -1.300000 0.500000 -0.100000
v -1.298437 0.500000 -0.100000
v -1.200000 0.300000 -0.100000
v -1.198438 0.300000 -0.100000
v -1.100000 0.100000 -0.100000
v -1.098437 0.100000 -0.100000
v -1.000000 -0.100000 -0.100000
v -0.998438 -0.100000 -0.100000
v 1.300000 0.100000 -0.100000
v 1.371875 0.128125 -0.100000
v 1.400000 0.200000 -0.100000
v 1.371875 0.270312 -0.100000
v 1.300000 0.300000 -0.100000
v 1.229687 0.270312 -0.100000
v 1.200000 0.200000 -0.100000
v 1.229687 0.128125 -0.100000
v 0.700000 0.100000 -0.100000
v 0.771875 0.128125 -0.100000
v 0.800000 0.200000 -0.100000
v 0.771875 0.270312 -0.100000
v 0.700000 0.300000 -0.100000
v 0.629687 0.270312 -0.100000
v 0.600000 0.200000 -0.100000
v 0.629687 0.128125 -0.100000
v 0.100000 0.100000 -0.100000
v 0.171875 0.128125 -0.100000
v 0.200000 0.200000 -0.100000
v 0.171875 0.270312 -0.100000
v 0.100000 0.300000 -0.100000
v 0.029687 0.270312 -0.100000
v -0.000000 0.200000 -0.100000
v 0.029687 0.128125 -0.100000
v -0.500000 0.100000 -0.100000
v -0.428125 0.128125 -0.100000
v -0.400000 0.200000 -0.100000
v -0.428125 0.270312 -0.100000
v -0.500000 0.300000 -0.100000
v -0.570313 0.270312 -0.100000
v -0.600000 0.200000 -0.100000
v -0.570313 0.128125 -0.100000
v -0.900000 -0.300000 0.100000
v -0.800000 -0.300000 0.100000
v -0.900000 -0.100000 0.100000
v -1.000000 0.100000 0.100000
v -1.100000 0.300000 0.100000
v -1.200000 0.500000 0.100000
v -1.300000 0.700000 0.100000
v -1.400000 0.700000 0.100000
v -1.300000 0.500000 0.100000
v -1.298437 0.500000 0.100000
v -1.200000 0.300000 0.100000
v -1.198438 0.300000 0.100000
v -1.100000 0.100000 0.100000
v -1.098437 0.100000 0.100000
v -1.000000 -0.100000 0.100000
v -0.998437 -0.100000 0.100000
v 1.300000 0.100000 0.100000
v 1.371875 0.128125 0.100000
v 1.400000 0.200000 0.100000
v 1.371875 0.270312 0.100000
v 1.300000 0.300000 0.100000
v 1.229687 0.270312 0.100000
v 1.200000 0.200000 0.100000
v 1.229687 0.128125 0.100000
v 0.700000 0.100000 0.100000
v 0.771875 0.128125 0.100000
v 0.800000 0.200000 0.100000
v 0.771875 0.270312 0.100000
v 0.700000 0.300000 0.100000
v 0.629688 0.270312 0.100000
v 0.600000 0.200000 0.100000
v 0.629688 0.128125 0.100000
v 0.100000 0.100000 0.100000
v 0.171875 0.128125 0.100000
v 0.200000 0.200000 0.100000
v 0.171875 0.270312 0.100000
v 0.100000 0.300000 0.100000
v 0.029688 0.270312 0.100000
v 0.000000 0.200000 0.100000
v 0.029688 0.128125 0.100000
v -0.500000 0.100000 0.100000
v -0.428125 0.128125 0.100000
v -0.400000 0.200000 0.100000
v -0.428125 0.270312 0.100000
v -0.500000 0.300000 0.100000
v -0.570313 0.270312 0.100000
v -0.600000 0.200000 0.100000
v -0.570313 0.128125 0.100000
v 1.300000 0.100000 0.100000
v 1.300000 0.100000 -0.100000
v 1.371875 0.128125 0.100000
v 1.371875 0.128125 -0.100000
v 1.400000 0.200000 0.100000
v 1.400000 0.200000 -0.100000
v 1.371875 0.270312 0.100000
v 1.371875 0.270312 -0.100000
v 1.300000 0.300000 0.100000
v 1.300000 0.300000 -0.100000
v 1.229687 0.270312 0.100000
v 1.229687 0.270312 -0.100000
v 1.200000 0.200000 0.100000
v 1.200000 0.200000 -0.100000
v 1.229687 0.128125 0.100000
v 1.229687 0.128125 -0.100000
v 0.700000 0.100000 0.100000
v 0.700000 0.100000 -0.100000
v 0.771875 0.128125 0.100000
v 0.771875 0.128125 -0.100000
v 0.800000 0.200000 0.100000
v 0.800000 0.200000 -0.100000
v 0.771875 0.270312 0.100000
v 0.771875 0.270312 -0.100000
v 0.700000 0.300000 0.100000
v 0.700000 0.300000 -0.100000
v 0.629688 0.270312 0.100000
v 0.629687 0.270312 -0.100000
v 0.600000 0.200000 0.100000
v 0.600000 0.200000 -0.100000
v 0.629688 0.128125 0.100000
v 0.629687 0.128125 -0.100000
v 0.100000 0.100000 0.100000
v 0.100000 0.100000 -0.100000
v 0.171875 0.128125 0.100000
v 0.171875 0.128125 -0.100000
v 0.200000 0.200000 0.100000
v 0.200000 0.200000 -0.100000
v 0.171875 0.270312 0.100000
v 0.171875 0.270312 -0.100000
v 0.100000 0.300000 0.100000
v 0.100000 0.300000 -0.100000
v 0.029688 0.270312 0.100000
v 0.029687 0.270312 -0.100000
v 0.000000 0.200000 0.100000
v -0.000000 0.200000 -0.100000
v 0.029688 0.128125 0.100000
v 0.029687 0.128125 -0.100000
v -0.500000 0.100000 0.100000
v -0.500000 0.100000 -0.100000
v -0.428125 0.128125 0.100000
v -0.428125 0.128125 -0.100000
v -0.400000 0.200000 0.100000
v -0.400000 0.200000 -0.100000
v -0.428125 0.270312 0.100000
v -0.428125 0.270312 -0.100000
v -0.500000 0.300000 0.100000
v -0.500000 0.300000 -0.100000
v -0.570313 0.270312 0.100000
v -0.570313 0.270312 -0.100000
v -0.600000 0.200000 0.100000
v -0.600000 0.200000 -0.100000
v -0.570313 0.128125 0.100000
v -0.570313 0.128125 -0.100000
v -0.900000 -0.300000 0.100000
v -0.900000 -0.300000 -0.100000
v -0.800000 -0.300000 0.100000
v -0.800000 -0.300000 -0.100000
v -0.900000 -0.100000 0.100000
v -0.900000 -0.100000 -0.100000
v -1.000000 0.100000 0.100000
v -1.000000 0.100000 -0.100000
v -1.100000 0.300000 0.100000
v -1.100000 0.300000 -0.100000
v -1.200000 0.500000 0.100000
v -1.200000 0.500000 -0.100000
v -1.300000 0.700000 0.100000
v -1.300000 0.700000 -0.100000
v -1.400000 0.700000 0.100000
v -1.400000 0.700000 -0.100000
v -1.300000 0.500000 0.100000
v -1.300000 0.500000 -0.100000
v -1.298437 0.500000 0.100000
v -1.298437 0.500000 -0.100000
v -1.200000 0.300000 0.100000
v -1.200000 0.300000 -0.100000
v -1.198438 0.300000 0.100000
v -1.198438 0.300000 -0.100000
v -1.100000 0.100000 0.100000
v -1.100000 0.100000 -0.100000
v -1.098437 0.100000 0.100000
v -1.098437 0.100000 -0.100000
v -1.000000 -0.100000 0.100000
v -1.000000 -0.100000 -0.100000
v -0.998437 -0.100000 0.100000
v -0.998438 -0.100000 -0.100000
vn -0.0000 -0.0000 -1.0000
vn -0.0000 -0.0000 1.0000
vn -0.0038 -1.0000 -0.0000
vn 0.7071 -0.7071 -0.0000
vn 1.0000 0.0038 -0.0000
vn 0.7111 0.7031 -0.0000
vn -0.0039 1.0000 -0.0000
vn -0.7071 0.7071 -0.0000
vn -1.0000 0.0039 -0.0000
vn -0.7031 -0.7111 -0.0000
vn -0.5284 -0.8490 -0.0000
vn 0.8507 -0.5257 -0.0000
vn 0.8944 0.4472 -0.0000
vn 0.5257 0.8507 -0.0000
vn -0.8507 0.5257 -0.0000
vn -0.5257 -0.8507 -0.0000
vt 0.404255 0.000000
vt 0.446809 0.000000
vt 0.425532 0.000000
vt 0.382979 0.000000
vt 0.468085 0.000000
vt 0.361702 0.000000
vt 0.489362 0.000000
vt 0.340426 0.000000
vt 0.574468 0.000000
vt 0.617021 0.000000
vt 0.595745 0.000000
vt 0.553191 0.000000
vt 0.638298 0.000000
vt 0.531915 0.000000
vt 0.659574 0.000000
vt 0.510638 0.000000
vt 0.744681 0.000000
vt 0.787234 0.000000
vt 0.765957 0.000000
vt 0.723404 0.000000
vt 0.808511 0.000000
vt 0.702128 0.000000
vt 0.829787 0.000000
vt 0.680851 0.000000
vt 0.914894 0.000000
vt 0.957447 0.000000
vt 0.936170 0.000000
vt 0.893617 0.000000
vt 0.978723 0.000000
vt 0.872340 0.000000
vt 1.000000 0.000000
vt 0.851064 0.000000
vt 0.106383 0.000000
vt 0.148936 0.000000
vt 0.127660 0.000000
vt 0.170213 0.000000
vt 0.085106 0.000000
vt 0.191489 0.000000
vt 0.212766 0.000000
vt 0.063830 0.000000
vt 0.234043 0.000000
vt 0.255319 0.000000
vt 0.042553 0.000000
vt 0.276596 0.000000
vt 0.297872 0.000000
vt 0.021277 0.000000
vt 0.319149 0.000000
vt 0.000000 0.000000
vt 0.000000 1.000000
vt 0.125000 1.000000
vt 0.125000 0.000000
vt 0.250000 1.000000
vt 0.250000 0.000000
vt 0.375000 1.000000
vt 0.375000 0.000000
vt 0.500000 1.000000
vt 0.500000 0.000000
vt 0.625000 1.000000
vt 0.625000 0.000000
vt 0.750000 1.000000
vt 0.750000 0.000000
vt 0.875000 1.000000
vt 0.875000 0.000000
vt 1.000000 1.000000
vt 0.062500 1.000000
vt 0.062500 0.000000
vt 0.187500 1.000000
vt 0.187500 0.000000
vt 0.312500 1.000000
vt 0.312500 0.000000
vt 0.437500 1.000000
vt 0.437500 0.000000
vt 0.562500 1.000000
vt 0.562500 0.000000
vt 0.687500 1.000000
vt 0.687500 0.000000
vt 0.812500 1.000000
vt 0.812500 0.000000
vt 0.937500 1.000000
vt 0.937500 0.000000
s 0
f 20/1/1 22/2/1 21/3/1
f 19/4/1 22/2/1 20/1/1
f 19/4/1 23/5/1 22/2/1
f 18/6/1 23/5/1 19/4/1
f 18/6/1 24/7/1 23/5/1
f 17/8/1 24/7/1 18/6/1
f 28/9/1 30/10/1 29/11/1
f 27/12/1 30/10/1 28/9/1
f 27/12/1 31/13/1 30/10/1
f 26/14/1 31/13/1 27/12/1
f 26/14/1 32/15/1 31/13/1
f 25/16/1 32/15/1 26/14/1
f 36/17/1 38/18/1 37/19/1
f 35/20/1 38/18/1 36/17/1
f 35/20/1 39/21/1 38/18/1
f 34/22/1 39/21/1 35/20/1
f 34/22/1 40/23/1 39/21/1
f 33/24/1 40/23/1 34/22/1
f 44/25/1 46/26/1 45/27/1
f 43/28/1 46/26/1 44/25/1
f 43/28/1 47/29/1 46/26/1
f 42/30/1 47/29/1 43/28/1
f 42/30/1 48/31/1 47/29/1
f 41/32/1 48/31/1 42/30/1
f 6/33/1 8/34/1 7/35/1
f 6/33/1 9/36/1 8/34/1
f 5/37/1 10/38/1 6/33/1
f 10/38/1 9/36/1 6/33/1
f 5/37/1 11/39/1 10/38/1
f 4/40/1 12/41/1 5/37/1
f 12/41/1 11/39/1 5/37/1
f 4/40/1 13/42/1 12/41/1
f 3/43/1 14/44/1 4/40/1
f 14/44/1 13/42/1 4/40/1
f 3/43/1 15/45/1 14/44/1
f 2/46/1 16/47/1 3/43/1
f 16/47/2 15/45/2 3/43/2
f 2/46/1 1/48/1 16/47/1
f 68/1/2 69/3/2 70/2/2
f 67/4/2 68/1/2 70/2/2
f 67/4/2 70/2/2 71/5/2
f 66/6/2 67/4/2 71/5/2
f 66/6/2 71/5/2 72/7/2
f 65/8/2 66/6/2 72/7/2
f 76/9/2 77/11/2 78/10/2
f 75/12/2 76/9/2 78/10/2
f 75/12/2 78/10/2 79/13/2
f 74/14/2 75/12/2 79/13/2
f 74/14/2 79/13/2 80/15/2
f 73/16/2 74/14/2 80/15/2
f 84/17/2 85/19/2 86/18/2
f 83/20/2 84/17/2 86/18/2
f 83/20/2 86/18/2 87/21/2
f 82/22/2 83/20/2 87/21/2
f 82/22/2 87/21/2 88/23/2
f 81/24/2 82/22/2 88/23/2
f 92/25/2 93/27/2 94/26/2
f 91/28/2 92/25/2 94/26/2
f 91/28/2 94/26/2 95/29/2
f 90/30/2 91/28/2 95/29/2
f 90/30/2 95/29/2 96/31/2
f 89/32/2 90/30/2 96/31/2
f 54/33/2 55/35/2 56/34/2
f 54/33/2 56/34/2 57/36/2
f 53/37/2 54/33/2 58/38/2
f 58/38/1 54/33/1 57/36/1
f 53/37/2 58/38/2 59/39/2
f 52/40/2 53/37/2 60/41/2
f 60/41/2 53/37/2 59/39/2
f 52/40/2 60/41/2 61/42/2
f 51/43/2 52/40/2 62/44/2
f 62/44/1 52/40/1 61/42/1
f 51/43/2 62/44/2 63/45/2
f 50/46/2 51/43/2 64/47/2
f 64/47/1 51/43/1 63/45/1
f 50/46/2 64/47/2 49/48/2
s 1
f 98/49/3 100/50/4 99/51/4 97/48/3
f 100/50/4 102/52/5 101/53/5 99/51/4
f 102/52/5 104/54/6 103/55/6 101/53/5
f 104/54/6 106/56/7 105/57/7 103/55/6
f 106/56/7 108/58/8 107/59/8 105/57/7
f 108/58/8 110/60/9 109/61/9 107/59/8
f 110/60/9 112/62/10 111/63/10 109/61/9
f 112/62/10 98/64/3 97/31/3 111/63/10
f 114/49/3 116/50/4 115/51/4 113/48/3
f 116/50/4 118/52/5 117/53/5 115/51/4
f 118/52/5 120/54/6 119/55/6 117/53/5
f 120/54/6 122/56/7 121/57/7 119/55/6
f 122/56/7 124/58/8 123/59/8 121/57/7
f 124/58/8 126/60/9 125/61/9 123/59/8
f 126/60/9 128/62/10 127/63/10 125/61/9
f 128/62/10 114/64/3 113/31/3 127/63/10
f 130/49/3 132/50/4 131/51/4 129/48/3
f 132/50/4 134/52/5 133/53/5 131/51/4
f 134/52/5 136/54/6 135/55/6 133/53/5
f 136/54/6 138/56/7 137/57/7 135/55/6
f 138/56/7 140/58/8 139/59/8 137/57/7
f 140/58/8 142/60/9 141/61/9 139/59/8
f 142/60/9 144/62/10 143/63/10 141/61/9
f 144/62/10 130/64/3 129/31/3 143/63/10
f 146/49/3 148/50/4 147/51/4 145/48/3
f 148/50/4 150/52/5 149/53/5 147/51/4
f 150/52/5 152/54/6 151/55/6 149/53/5
f 152/54/6 154/56/7 153/57/7 151/55/6
f 154/56/7 156/58/8 155/59/8 153/57/7
f 156/58/8 158/60/9 157/61/9 155/59/8
f 158/60/9 160/62/10 159/63/10 157/61/9
f 160/62/10 146/64/3 145/31/3 159/63/10
f 162/49/11 164/65/12 163/66/12 161/48/11
f 164/65/12 166/50/13 165/51/13 163/66/12
f 166/50/13 168/67/13 167/68/13 165/51/13
f 168/67/13 170/52/13 169/53/13 167/68/13
f 170/52/13 172/69/13 171/70/13 169/53/13
f 172/69/13 174/54/14 173/55/14 171/70/13
f 174/54/14 176/71/15 175/72/15 173/55/14
f 176/71/15 178/56/16 177/57/16 175/72/15
f 178/56/16 180/73/11 179/74/11 177/57/16
f 180/73/11 182/58/11 181/59/11 179/74/11
f 182/58/11 184/75/11 183/76/11 181/59/11
f 184/75/11 186/60/11 185/61/11 183/76/11
f 186/60/11 188/77/11 187/78/11 185/61/11
f 188/77/11 190/62/11 189/63/11 187/78/11
f 190/62/11 192/79/11 191/80/11 189/63/11
f 192/79/11 162/64/11 161/31/11 191/80/11
