# Blender 4.1.1
# www.blender.org
o o
v -1.500000 -0.300000 -0.100000
v -1.400000 -0.300000 -0.100000
v -1.500000 -0.100000 -0.100000
v -1.600000 0.100000 -0.099999
v -1.700000 0.300000 -0.099999
v -1.800000 0.500000 -0.099999
v -1.900000 0.700000 -0.099999
v -2.000000 0.700000 -0.099999
v -1.900000 0.500000 -0.099999
v -1.898438 0.500000 -0.099999
v -1.800000 0.300000 -0.099999
v -1.798438 0.300000 -0.099999
v -1.700000 0.100000 -0.099999
v -1.698437 0.100000 -0.099999
v -1.600000 -0.100000 -0.099999
v -1.598438 -0.100000 -0.099999
v 1.300000 0.100000 -0.100000
v 1.900000 0.100000 -0.100001
v 1.971875 0.128125 -0.100001
v 2.000000 0.200000 -0.100001
v 1.971875 0.270312 -0.100001
v 1.900000 0.300000 -0.100001
v 1.300000 0.300000 -0.100000
v 1.229687 0.270312 -0.100000
v 1.200000 0.200000 -0.100000
v 1.229687 0.128125 -0.100000
v 0.100000 0.100000 -0.100000
v 0.700000 0.100000 -0.100000
v 0.771875 0.128125 -0.100000
v 0.800000 0.200000 -0.100000
v 0.771875 0.270312 -0.100000
v 0.700000 0.300000 -0.100000
v 0.100000 0.300000 -0.100000
v 0.029687 0.270312 -0.100000
v -0.000000 0.200000 -0.100000
v 0.029687 0.128125 -0.100000
v -1.100000 0.100000 -0.100000
v -0.500000 0.100000 -0.100000
v -0.428125 0.128125 -0.100000
v -0.400000 0.200000 -0.100000
v -0.428125 0.270312 -0.100000
v -0.500000 0.300000 -0.100000
v -1.100000 0.300000 -0.100000
v -1.170312 0.270312 -0.100000
v -1.200000 0.200000 -0.100000
v -1.170312 0.128125 -0.100000
v -1.500000 -0.300000 0.100001
v -1.400000 -0.300000 0.100000
v -1.500000 -0.100000 0.100000
v -1.600000 0.100000 0.100001
v -1.700000 0.300000 0.100001
v -1.800000 0.500000 0.100001
v -1.900000 0.700000 0.100001
v -2.000000 0.700000 0.100001
v -1.900000 0.500000 0.100001
v -1.898438 0.500000 0.100001
v -1.800000 0.300000 0.100001
v -1.798438 0.300000 0.100001
v -1.700000 0.100000 0.100001
v -1.698437 0.100000 0.100001
v -1.600000 -0.100000 0.100001
v -1.598438 -0.100000 0.100001
v 1.300000 0.100000 0.100000
v 1.900000 0.100000 0.099999
v 1.971875 0.128125 0.099999
v 2.000000 0.200000 0.099999
v 1.971875 0.270312 0.099999
v 1.900000 0.300000 0.099999
v 1.300000 0.300000 0.100000
v 1.229687 0.270312 0.100000
v 1.200000 0.200000 0.100000
v 1.229687 0.128125 0.100000
v 0.100000 0.100000 0.100000
v 0.700000 0.100000 0.100000
v 0.771875 0.128125 0.100000
v 0.800000 0.200000 0.100000
v 0.771875 0.270312 0.100000
v 0.700000 0.300000 0.100000
v 0.100000 0.300000 0.100000
v 0.029687 0.270312 0.100000
v 0.000000 0.200000 0.100000
v 0.029687 0.128125 0.100000
v -1.100000 0.100000 0.100000
v -0.500000 0.100000 0.100000
v -0.428125 0.128125 0.100000
v -0.400000 0.200000 0.100000
v -0.428125 0.270312 0.100000
v -0.500000 0.300000 0.100000
v -1.100000 0.300000 0.100000
v -1.170312 0.270312 0.100000
v -1.200000 0.200000 0.100000
v -1.170312 0.128125 0.100000
v 1.300000 0.100000 0.100000
v 1.300000 0.100000 -0.100000
v 1.900000 0.100000 0.099999
v 1.900000 0.100000 -0.100001
v 1.971875 0.128125 0.099999
v 1.971875 0.128125 -0.100001
v 2.000000 0.200000 0.099999
v 2.000000 0.200000 -0.100001
v 1.971875 0.270312 0.099999
v 1.971875 0.270312 -0.100001
v 1.900000 0.300000 0.099999
v 1.900000 0.300000 -0.100001
v 1.300000 0.300000 0.100000
v 1.300000 0.300000 -0.100000
v 1.229687 0.270312 0.100000
v 1.229687 0.270312 -0.100000
v 1.200000 0.200000 0.100000
v 1.200000 0.200000 -0.100000
v 1.229687 0.128125 0.100000
v 1.229687 0.128125 -0.100000
v 0.100000 0.100000 0.100000
v 0.100000 0.100000 -0.100000
v 0.700000 0.100000 0.100000
v 0.700000 0.100000 -0.100000
v 0.771875 0.128125 0.100000
v 0.771875 0.128125 -0.100000
v 0.800000 0.200000 0.100000
v 0.800000 0.200000 -0.100000
v 0.771875 0.270312 0.100000
v 0.771875 0.270312 -0.100000
v 0.700000 0.300000 0.100000
v 0.700000 0.300000 -0.100000
v 0.100000 0.300000 0.100000
v 0.100000 0.300000 -0.100000
v 0.029687 0.270312 0.100000
v 0.029687 0.270312 -0.100000
v 0.000000 0.200000 0.100000
v -0.000000 0.200000 -0.100000
v 0.029687 0.128125 0.100000
v 0.029687 0.128125 -0.100000
v -1.100000 0.100000 0.100000
v -1.100000 0.100000 -0.100000
v -0.500000 0.100000 0.100000
v -0.500000 0.100000 -0.100000
v -0.428125 0.128125 0.100000
v -0.428125 0.128125 -0.100000
v -0.400000 0.200000 0.100000
v -0.400000 0.200000 -0.100000
v -0.428125 0.270312 0.100000
v -0.428125 0.270312 -0.100000
v -0.500000 0.300000 0.100000
v -0.500000 0.300000 -0.100000
v -1.100000 0.300000 0.100000
v -1.100000 0.300000 -0.100000
v -1.170312 0.270312 0.100000
v -1.170312 0.270312 -0.100000
v -1.200000 0.200000 0.100000
v -1.200000 0.200000 -0.100000
v -1.170312 0.128125 0.100000
v -1.170312 0.128125 -0.100000
v -1.500000 -0.300000 0.100001
v -1.500000 -0.300000 -0.100000
v -1.400000 -0.300000 0.100000
v -1.400000 -0.300000 -0.100000
v -1.500000 -0.100000 0.100000
v -1.500000 -0.100000 -0.100000
v -1.600000 0.100000 0.100001
v -1.600000 0.100000 -0.099999
v -1.700000 0.300000 0.100001
v -1.700000 0.300000 -0.099999
v -1.800000 0.500000 0.100001
v -1.800000 0.500000 -0.099999
v -1.900000 0.700000 0.100001
v -1.900000 0.700000 -0.099999
v -2.000000 0.700000 0.100001
v -2.000000 0.700000 -0.099999
v -1.900000 0.500000 0.100001
v -1.900000 0.500000 -0.099999
v -1.898438 0.500000 0.100001
v -1.898438 0.500000 -0.099999
v -1.800000 0.300000 0.100001
v -1.800000 0.300000 -0.099999
v -1.798438 0.300000 0.100001
v -1.798438 0.300000 -0.099999
v -1.700000 0.100000 0.100001
v -1.700000 0.100000 -0.099999
v -1.698437 0.100000 0.100001
v -1.698437 0.100000 -0.099999
v -1.600000 -0.100000 0.100001
v -1.600000 -0.100000 -0.099999
v -1.598438 -0.100000 0.100001
v -1.598438 -0.100000 -0.099999
vn -0.0000 -0.0000 -1.0000
vn -0.0000 -0.0000 1.0000
vn -0.1891 -0.9820 -0.0000
vn 0.1854 -0.9827 -0.0000
vn 0.7071 -0.7071 -0.0000
vn 1.0000 0.0038 -0.0000
vn 0.7111 0.7031 -0.0000
vn 0.1946 0.9809 -0.0000
vn -0.1984 0.9801 -0.0000
vn -0.7071 0.7071 -0.0000
vn -1.0000 0.0039 -0.0000
vn -0.7031 -0.7111 -0.0000
vn -0.5284 -0.8490 -0.0000
vn 0.8507 -0.5257 -0.0000
vn 0.8944 0.4472 -0.0000
vn 0.5257 0.8507 -0.0000
vn -0.8507 0.5257 -0.0000
vn -0.5257 -0.8507 -0.0000
vt 0.444444 0.000000
vt 0.488889 0.000000
vt 0.466667 0.000000
vt 0.511111 0.000000
vt 0.422222 0.000000
vt 0.533333 0.000000
vt 0.400000 0.000000
vt 0.555556 0.000000
vt 0.377778 0.000000
vt 0.355556 0.000000
vt 0.666667 0.000000
vt 0.711111 0.000000
vt 0.688889 0.000000
vt 0.733333 0.000000
vt 0.644444 0.000000
vt 0.755556 0.000000
vt 0.622222 0.000000
vt 0.777778 0.000000
vt 0.600000 0.000000
vt 0.577778 0.000000
vt 0.888889 0.000000
vt 0.933333 0.000000
vt 0.911111 0.000000
vt 0.955556 0.000000
vt 0.866667 0.000000
vt 0.977778 0.000000
vt 0.844444 0.000000
vt 1.000000 0.000000
vt 0.822222 0.000000
vt 0.800000 0.000000
vt 0.111111 0.000000
vt 0.155556 0.000000
vt 0.133333 0.000000
vt 0.177778 0.000000
vt 0.088889 0.000000
vt 0.200000 0.000000
vt 0.222222 0.000000
vt 0.066667 0.000000
vt 0.244444 0.000000
vt 0.266667 0.000000
vt 0.044444 0.000000
vt 0.288889 0.000000
vt 0.311111 0.000000
vt 0.022222 0.000000
vt 0.333333 0.000000
vt 0.000000 0.000000
vt 0.000000 1.000000
vt 0.100000 1.000000
vt 0.100000 0.000000
vt 0.200000 1.000000
vt 0.300000 1.000000
vt 0.300000 0.000000
vt 0.400000 1.000000
vt 0.500000 1.000000
vt 0.500000 0.000000
vt 0.600000 1.000000
vt 0.700000 1.000000
vt 0.700000 0.000000
vt 0.800000 1.000000
vt 0.900000 1.000000
vt 0.900000 0.000000
vt 1.000000 1.000000
vt 0.062500 1.000000
vt 0.062500 0.000000
vt 0.125000 1.000000
vt 0.125000 0.000000
vt 0.187500 1.000000
vt 0.187500 0.000000
vt 0.250000 1.000000
vt 0.250000 0.000000
vt 0.312500 1.000000
vt 0.312500 0.000000
vt 0.375000 1.000000
vt 0.375000 0.000000
vt 0.437500 1.000000
vt 0.437500 0.000000
vt 0.562500 1.000000
vt 0.562500 0.000000
vt 0.625000 1.000000
vt 0.625000 0.000000
vt 0.687500 1.000000
vt 0.687500 0.000000
vt 0.750000 1.000000
vt 0.750000 0.000000
vt 0.812500 1.000000
vt 0.812500 0.000000
vt 0.875000 1.000000
vt 0.875000 0.000000
vt 0.937500 1.000000
vt 0.937500 0.000000
s 0
f 21/1/1 23/2/1 22/3/1
f 21/1/1 24/4/1 23/2/1
f 20/5/1 24/4/1 21/1/1
f 20/5/1 25/6/1 24/4/1
f 19/7/1 25/6/1 20/5/1
f 19/7/1 26/8/1 25/6/1
f 18/9/1 26/8/1 19/7/1
f 18/9/1 17/10/1 26/8/1
f 31/11/1 33/12/1 32/13/1
f 31/11/1 34/14/1 33/12/1
f 30/15/1 34/14/1 31/11/1
f 30/15/1 35/16/1 34/14/1
f 29/17/1 35/16/1 30/15/1
f 29/17/1 36/18/1 35/16/1
f 28/19/1 36/18/1 29/17/1
f 28/19/1 27/20/1 36/18/1
f 41/21/1 43/22/1 42/23/1
f 41/21/1 44/24/1 43/22/1
f 40/25/1 44/24/1 41/21/1
f 40/25/1 45/26/1 44/24/1
f 39/27/1 45/26/1 40/25/1
f 39/27/1 46/28/1 45/26/1
f 38/29/1 46/28/1 39/27/1
f 38/29/1 37/30/1 46/28/1
f 6/31/1 8/32/1 7/33/1
f 6/31/1 9/34/1 8/32/1
f 5/35/1 10/36/1 6/31/1
f 10/36/1 9/34/1 6/31/1
f 5/35/1 11/37/1 10/36/1
f 4/38/1 12/39/1 5/35/1
f 12/39/1 11/37/1 5/35/1
f 4/38/1 13/40/1 12/39/1
f 3/41/1 14/42/1 4/38/1
f 14/42/1 13/40/1 4/38/1
f 3/41/1 15/43/1 14/42/1
f 2/44/1 16/45/1 3/41/1
f 16/45/1 15/43/1 3/41/1
f 2/44/1 1/46/1 16/45/1
f 67/1/2 68/3/2 69/2/2
f 67/1/2 69/2/2 70/4/2
f 66/5/2 67/1/2 70/4/2
f 66/5/2 70/4/2 71/6/2
f 65/7/2 66/5/2 71/6/2
f 65/7/2 71/6/2 72/8/2
f 64/9/2 65/7/2 72/8/2
f 64/9/2 72/8/2 63/10/2
f 77/11/2 78/13/2 79/12/2
f 77/11/2 79/12/2 80/14/2
f 76/15/2 77/11/2 80/14/2
f 76/15/2 80/14/2 81/16/2
f 75/17/2 76/15/2 81/16/2
f 75/17/2 81/16/2 82/18/2
f 74/19/2 75/17/2 82/18/2
f 74/19/2 82/18/2 73/20/2
f 87/21/2 88/23/2 89/22/2
f 87/21/2 89/22/2 90/24/2
f 86/25/2 87/21/2 90/24/2
f 86/25/2 90/24/2 91/26/2
f 85/27/2 86/25/2 91/26/2
f 85/27/2 91/26/2 92/28/2
f 84/29/2 85/27/2 92/28/2
f 84/29/2 92/28/2 83/30/2
f 52/31/2 53/33/2 54/32/2
f 52/31/2 54/32/2 55/34/2
f 51/35/2 52/31/2 56/36/2
f 56/36/1 52/31/1 55/34/1
f 51/35/2 56/36/2 57/37/2
f 50/38/2 51/35/2 58/39/2
f 58/39/2 51/35/2 57/37/2
f 50/38/2 58/39/2 59/40/2
f 49/41/2 50/38/2 60/42/2
f 60/42/1 50/38/1 59/40/1
f 49/41/2 60/42/2 61/43/2
f 48/44/2 49/41/2 62/45/2
f 62/45/1 49/41/1 61/43/1
f 48/44/2 62/45/2 47/46/2
s 1
f 94/47/3 96/48/4 95/49/4 93/46/3
f 96/48/4 98/50/5 97/36/5 95/49/4
f 98/50/5 100/51/6 99/52/6 97/36/5
f 100/51/6 102/53/7 101/7/7 99/52/6
f 102/53/7 104/54/8 103/55/8 101/7/7
f 104/54/8 106/56/9 105/19/9 103/55/8
f 106/56/9 108/57/10 107/58/10 105/19/9
f 108/57/10 110/59/11 109/30/11 107/58/10
f 110/59/11 112/60/12 111/61/12 109/30/11
f 112/60/12 94/62/3 93/28/3 111/61/12
f 114/47/3 116/48/4 115/49/4 113/46/3
f 116/48/4 118/50/5 117/36/5 115/49/4
f 118/50/5 120/51/6 119/52/6 117/36/5
f 120/51/6 122/53/7 121/7/7 119/52/6
f 122/53/7 124/54/8 123/55/8 121/7/7
f 124/54/8 126/56/9 125/19/9 123/55/8
f 126/56/9 128/57/10 127/58/10 125/19/9
f 128/57/10 130/59/11 129/30/11 127/58/10
f 130/59/11 132/60/12 131/61/12 129/30/11
f 132/60/12 114/62/3 113/28/3 131/61/12
f 134/47/3 136/48/4 135/49/4 133/46/3
f 136/48/4 138/50/5 137/36/5 135/49/4
f 138/50/5 140/51/6 139/52/6 137/36/5
f 140/51/6 142/53/7 141/7/7 139/52/6
f 142/53/7 144/54/8 143/55/8 141/7/7
f 144/54/8 146/56/9 145/19/9 143/55/8
f 146/56/9 148/57/10 147/58/10 145/19/9
f 148/57/10 150/59/11 149/30/11 147/58/10
f 150/59/11 152/60/12 151/61/12 149/30/11
f 152/60/12 134/62/3 133/28/3 151/61/12
f 154/47/13 156/63/14 155/64/14 153/46/13
f 156/63/14 158/65/15 157/66/15 155/64/14
f 158/65/15 160/67/15 159/68/15 157/66/15
f 160/67/15 162/69/15 161/70/15 159/68/15
f 162/69/15 164/71/15 163/72/15 161/70/15
f 164/71/15 166/73/16 165/74/16 163/72/15
f 166/73/16 168/75/17 167/76/17 165/74/16
f 168/75/17 170/54/18 169/55/18 167/76/17
f 170/54/18 172/77/13 171/78/13 169/55/18
f 172/77/13 174/79/13 173/80/13 171/78/13
f 174/79/13 176/81/13 175/82/13 173/80/13
f 176/81/13 178/83/13 177/84/13 175/82/13
f 178/83/13 180/85/13 179/86/13 177/84/13
f 180/85/13 182/87/13 181/88/13 179/86/13
f 182/87/13 184/89/13 183/90/13 181/88/13
f 184/89/13 154/62/13 153/28/13 183/90/13
