# Blender 4.1.1
# www.blender.org
o s
v -0.600000 -0.300000 -0.100000
v -0.500000 -0.300000 -0.100000
v -0.600000 -0.100000 -0.100000
v -0.700000 0.100000 -0.100000
v -0.800000 0.300000 -0.100000
v -0.900000 0.500000 -0.100000
v -1.000000 0.700000 -0.100000
v -1.100000 0.700000 -0.100000
v -1.000000 0.500000 -0.100000
v -0.998438 0.500000 -0.100000
v -0.900000 0.300000 -0.100000
v -0.898437 0.300000 -0.100000
v -0.800000 0.100000 -0.100000
v -0.798438 0.100000 -0.100000
v -0.700000 -0.100000 -0.100000
v -0.698438 -0.100000 -0.100000
v 1.000000 0.100000 -0.100000
v 1.071875 0.128125 -0.100000
v 1.100000 0.200000 -0.100000
v 1.071875 0.270312 -0.100000
v 1.000000 0.300000 -0.100000
v 0.929688 0.270312 -0.100000
v 0.900000 0.200000 -0.100000
v 0.929688 0.128125 -0.100000
v 0.400000 0.100000 -0.100000
v 0.471875 0.128125 -0.100000
v 0.500000 0.200000 -0.100000
v 0.471875 0.270312 -0.100000
v 0.400000 0.300000 -0.100000
v 0.329688 0.270312 -0.100000
v 0.300000 0.200000 -0.100000
v 0.329688 0.128125 -0.100000
v -0.200000 0.100000 -0.100000
v -0.128125 0.128125 -0.100000
v -0.100000 0.200000 -0.100000
v -0.128125 0.270312 -0.100000
v -0.200000 0.300000 -0.100000
v -0.270312 0.270312 -0.100000
v -0.300000 0.200000 -0.100000
v -0.270312 0.128125 -0.100000
v -0.600000 -0.300000 0.100000
v -0.500000 -0.300000 0.100000
v -0.600000 -0.100000 0.100000
v -0.700000 0.100000 0.100000
v -0.800000 0.300000 0.100000
v -0.900000 0.500000 0.100000
v -1.000000 0.700000 0.100000
v -1.100000 0.700000 0.100000
v -1.000000 0.500000 0.100000
v -0.998437 0.500000 0.100000
v -0.900000 0.300000 0.100000
v -0.898437 0.300000 0.100000
v -0.800000 0.100000 0.100000
v -0.798437 0.100000 0.100000
v -0.700000 -0.100000 0.100000
v -0.698437 -0.100000 0.100000
v 1.000000 0.100000 0.100000
v 1.071875 0.128125 0.100000
v 1.100000 0.200000 0.100000
v 1.071875 0.270312 0.100000
v 1.000000 0.300000 0.100000
v 0.929688 0.270312 0.100000
v 0.900000 0.200000 0.100000
v 0.929688 0.128125 0.100000
v 0.400000 0.100000 0.100000
v 0.471875 0.128125 0.100000
v 0.500000 0.200000 0.100000
v 0.471875 0.270312 0.100000
v 0.400000 0.300000 0.100000
v 0.329688 0.270312 0.100000
v 0.300000 0.200000 0.100000
v 0.329688 0.128125 0.100000
v -0.200000 0.100000 0.100000
v -0.128125 0.128125 0.100000
v -0.100000 0.200000 0.100000
v -0.128125 0.270312 0.100000
v -0.200000 0.300000 0.100000
v -0.270312 0.270312 0.100000
v -0.300000 0.200000 0.100000
v -0.270312 0.128125 0.100000
v 1.000000 0.100000 0.100000
v 1.000000 0.100000 -0.100000
v 1.071875 0.128125 0.100000
v 1.071875 0.128125 -0.100000
v 1.100000 0.200000 0.100000
v 1.100000 0.200000 -0.100000
v 1.071875 0.270312 0.100000
v 1.071875 0.270312 -0.100000
v 1.000000 0.300000 0.100000
v 1.000000 0.300000 -0.100000
v 0.929688 0.270312 0.100000
v 0.929688 0.270312 -0.100000
v 0.900000 0.200000 0.100000
v 0.900000 0.200000 -0.100000
v 0.929688 0.128125 0.100000
v 0.929688 0.128125 -0.100000
v 0.400000 0.100000 0.100000
v 0.400000 0.100000 -0.100000
v 0.471875 0.128125 0.100000
v 0.471875 0.128125 -0.100000
v 0.500000 0.200000 0.100000
v 0.500000 0.200000 -0.100000
v 0.471875 0.270312 0.100000
v 0.471875 0.270312 -0.100000
v 0.400000 0.300000 0.100000
v 0.400000 0.300000 -0.100000
v 0.329688 0.270312 0.100000
v 0.329688 0.270312 -0.100000
v 0.300000 0.200000 0.100000
v 0.300000 0.200000 -0.100000
v 0.329688 0.128125 0.100000
v 0.329688 0.128125 -0.100000
v -0.200000 0.100000 0.100000
v -0.200000 0.100000 -0.100000
v -0.128125 0.128125 0.100000
v -0.128125 0.128125 -0.100000
v -0.100000 0.200000 0.100000
v -0.100000 0.200000 -0.100000
v -0.128125 0.270312 0.100000
v -0.128125 0.270312 -0.100000
v -0.200000 0.300000 0.100000
v -0.200000 0.300000 -0.100000
v -0.270312 0.270312 0.100000
v -0.270312 0.270312 -0.100000
v -0.300000 0.200000 0.100000
v -0.300000 0.200000 -0.100000
v -0.270312 0.128125 0.100000
v -0.270312 0.128125 -0.100000
v -0.600000 -0.300000 0.100000
v -0.600000 -0.300000 -0.100000
v -0.500000 -0.300000 0.100000
v -0.500000 -0.300000 -0.100000
v -0.600000 -0.100000 0.100000
v -0.600000 -0.100000 -0.100000
v -0.700000 0.100000 0.100000
v -0.700000 0.100000 -0.100000
v -0.800000 0.300000 0.100000
v -0.800000 0.300000 -0.100000
v -0.900000 0.500000 0.100000
v -0.900000 0.500000 -0.100000
v -1.000000 0.700000 0.100000
v -1.000000 0.700000 -0.100000
v -1.100000 0.700000 0.100000
v -1.100000 0.700000 -0.100000
v -1.000000 0.500000 0.100000
v -1.000000 0.500000 -0.100000
v -0.998437 0.500000 0.100000
v -0.998438 0.500000 -0.100000
v -0.900000 0.300000 0.100000
v -0.900000 0.300000 -0.100000
v -0.898437 0.300000 0.100000
v -0.898437 0.300000 -0.100000
v -0.800000 0.100000 0.100000
v -0.800000 0.100000 -0.100000
v -0.798437 0.100000 0.100000
v -0.798438 0.100000 -0.100000
v -0.700000 -0.100000 0.100000
v -0.700000 -0.100000 -0.100000
v -0.698437 -0.100000 0.100000
v -0.698438 -0.100000 -0.100000
vn -0.0000 -0.0000 -1.0000
vn -0.0000 -0.0000 1.0000
vn -0.0038 -1.0000 -0.0000
vn 0.7071 -0.7071 -0.0000
vn 1.0000 0.0038 -0.0000
vn 0.7111 0.7031 -0.0000
vn -0.0039 1.0000 -0.0000
vn -0.7071 0.7071 -0.0000
vn -1.0000 0.0039 -0.0000
vn -0.7031 -0.7111 -0.0000
vn -0.5284 -0.8490 -0.0000
vn 0.8507 -0.5257 -0.0000
vn 0.8944 0.4472 -0.0000
vn 0.5257 0.8507 -0.0000
vn -0.8507 0.5257 -0.0000
vn -0.5257 -0.8507 -0.0000
vt 0.487179 0.000000
vt 0.538462 0.000000
vt 0.512821 0.000000
vt 0.461538 0.000000
vt 0.564103 0.000000
vt 0.435897 0.000000
vt 0.589744 0.000000
vt 0.410256 0.000000
vt 0.692308 0.000000
vt 0.743590 0.000000
vt 0.717949 0.000000
vt 0.666667 0.000000
vt 0.769231 0.000000
vt 0.641026 0.000000
vt 0.794872 0.000000
vt 0.615385 0.000000
vt 0.897436 0.000000
vt 0.948718 0.000000
vt 0.923077 0.000000
vt 0.871795 0.000000
vt 0.974359 0.000000
vt 0.846154 0.000000
vt 1.000000 0.000000
vt 0.820513 0.000000
vt 0.128205 0.000000
vt 0.179487 0.000000
vt 0.153846 0.000000
vt 0.205128 0.000000
vt 0.102564 0.000000
vt 0.230769 0.000000
vt 0.256410 0.000000
vt 0.076923 0.000000
vt 0.282051 0.000000
vt 0.307692 0.000000
vt 0.051282 0.000000
vt 0.333333 0.000000
vt 0.358974 0.000000
vt 0.025641 0.000000
vt 0.384615 0.000000
vt 0.000000 0.000000
vt 0.000000 1.000000
vt 0.125000 1.000000
vt 0.125000 0.000000
vt 0.250000 1.000000
vt 0.250000 0.000000
vt 0.375000 1.000000
vt 0.375000 0.000000
vt 0.500000 1.000000
vt 0.500000 0.000000
vt 0.625000 1.000000
vt 0.625000 0.000000
vt 0.750000 1.000000
vt 0.750000 0.000000
vt 0.875000 1.000000
vt 0.875000 0.000000
vt 1.000000 1.000000
vt 0.062500 1.000000
vt 0.062500 0.000000
vt 0.187500 1.000000
vt 0.187500 0.000000
vt 0.312500 1.000000
vt 0.312500 0.000000
vt 0.437500 1.000000
vt 0.437500 0.000000
vt 0.562500 1.000000
vt 0.562500 0.000000
vt 0.687500 1.000000
vt 0.687500 0.000000
vt 0.812500 1.000000
vt 0.812500 0.000000
vt 0.937500 1.000000
vt 0.937500 0.000000
s 0
f 20/1/1 22/2/1 21/3/1
f 19/4/1 22/2/1 20/1/1
f 19/4/1 23/5/1 22/2/1
f 18/6/1 23/5/1 19/4/1
f 18/6/1 24/7/1 23/5/1
f 17/8/1 24/7/1 18/6/1
f 28/9/1 30/10/1 29/11/1
f 27/12/1 30/10/1 28/9/1
f 27/12/1 31/13/1 30/10/1
f 26/14/1 31/13/1 27/12/1
f 26/14/1 32/15/1 31/13/1
f 25/16/1 32/15/1 26/14/1
f 36/17/1 38/18/1 37/19/1
f 35/20/1 38/18/1 36/17/1
f 35/20/1 39/21/1 38/18/1
f 34/22/1 39/21/1 35/20/1
f 34/22/1 40/23/1 39/21/1
f 33/24/1 40/23/1 34/22/1
f 6/25/1 8/26/1 7/27/1
f 6/25/1 9/28/1 8/26/1
f 5/29/1 10/30/1 6/25/1
f 10/30/1 9/28/1 6/25/1
f 5/29/1 11/31/1 10/30/1
f 4/32/1 12/33/1 5/29/1
f 12/33/1 11/31/1 5/29/1
f 4/32/1 13/34/1 12/33/1
f 3/35/1 14/36/1 4/32/1
f 14/36/1 13/34/1 4/32/1
f 3/35/1 15/37/1 14/36/1
f 2/38/1 16/39/1 3/35/1
f 16/39/1 15/37/1 3/35/1
f 2/38/1 1/40/1 16/39/1
f 60/1/2 61/3/2 62/2/2
f 59/4/2 60/1/2 62/2/2
f 59/4/2 62/2/2 63/5/2
f 58/6/2 59/4/2 63/5/2
f 58/6/2 63/5/2 64/7/2
f 57/8/2 58/6/2 64/7/2
f 68/9/2 69/11/2 70/10/2
f 67/12/2 68/9/2 70/10/2
f 67/12/2 70/10/2 71/13/2
f 66/14/2 67/12/2 71/13/2
f 66/14/2 71/13/2 72/15/2
f 65/16/2 66/14/2 72/15/2
f 76/17/2 77/19/2 78/18/2
f 75/20/2 76/17/2 78/18/2
f 75/20/2 78/18/2 79/21/2
f 74/22/2 75/20/2 79/21/2
f 74/22/2 79/21/2 80/23/2
f 73/24/2 74/22/2 80/23/2
f 46/25/2 47/27/2 48/26/2
f 46/25/2 48/26/2 49/28/2
f 45/29/2 46/25/2 50/30/2
f 50/30/1 46/25/1 49/28/1
f 45/29/2 50/30/2 51/31/2
f 44/32/2 45/29/2 52/33/2
f 52/33/1 45/29/1 51/31/1
f 44/32/2 52/33/2 53/34/2
f 43/35/2 44/32/2 54/36/2
f 54/36/1 44/32/1 53/34/1
f 43/35/2 54/36/2 55/37/2
f 42/38/2 43/35/2 56/39/2
f 56/39/1 43/35/1 55/37/1
f 42/38/2 56/39/2 41/40/2
s 1
f 82/41/3 84/42/4 83/43/4 81/40/3
f 84/42/4 86/44/5 85/45/5 83/43/4
f 86/44/5 88/46/6 87/47/6 85/45/5
f 88/46/6 90/48/7 89/49/7 87/47/6
f 90/48/7 92/50/8 91/51/8 89/49/7
f 92/50/8 94/52/9 93/53/9 91/51/8
f 94/52/9 96/54/10 95/55/10 93/53/9
f 96/54/10 82/56/3 81/23/3 95/55/10
f 98/41/3 100/42/4 99/43/4 97/40/3
f 100/42/4 102/44/5 101/45/5 99/43/4
f 102/44/5 104/46/6 103/47/6 101/45/5
f 104/46/6 106/48/7 105/49/7 103/47/6
f 106/48/7 108/50/8 107/51/8 105/49/7
f 108/50/8 110/52/9 109/53/9 107/51/8
f 110/52/9 112/54/10 111/55/10 109/53/9
f 112/54/10 98/56/3 97/23/3 111/55/10
f 114/41/3 116/42/4 115/43/4 113/40/3
f 116/42/4 118/44/5 117/45/5 115/43/4
f 118/44/5 120/46/6 119/47/6 117/45/5
f 120/46/6 122/48/7 121/49/7 119/47/6
f 122/48/7 124/50/8 123/51/8 121/49/7
f 124/50/8 126/52/9 125/53/9 123/51/8
f 126/52/9 128/54/10 127/55/10 125/53/9
f 128/54/10 114/56/3 113/23/3 127/55/10
f 130/41/11 132/57/12 131/58/12 129/40/11
f 132/57/12 134/42/13 133/43/13 131/58/12
f 134/42/13 136/59/13 135/60/13 133/43/13
f 136/59/13 138/44/13 137/45/13 135/60/13
f 138/44/13 140/61/13 139/62/13 137/45/13
f 140/61/13 142/46/14 141/47/14 139/62/13
f 142/46/14 144/63/15 143/64/15 141/47/14
f 144/63/15 146/48/16 145/49/16 143/64/15
f 146/48/16 148/65/11 147/66/11 145/49/16
f 148/65/11 150/50/11 149/51/11 147/66/11
f 150/50/11 152/67/11 151/68/11 149/51/11
f 152/67/11 154/52/11 153/53/11 151/68/11
f 154/52/11 156/69/11 155/70/11 153/53/11
f 156/69/11 158/54/11 157/55/11 155/70/11
f 158/54/11 160/71/11 159/72/11 157/55/11
f 160/71/11 130/56/11 129/23/11 159/72/11
