# Blender 4.1.1
# www.blender.org
o w
v -1.200000 -0.300000 -0.100000
v -1.100000 -0.300000 -0.100000
v -1.200000 -0.100000 -0.100000
v -1.300000 0.100000 -0.100000
v -1.400000 0.300000 -0.100000
v -1.500000 0.500000 -0.100000
v -1.600000 0.700000 -0.100000
v -1.700000 0.700000 -0.099999
v -1.600000 0.500000 -0.100000
v -1.598438 0.500000 -0.100000
v -1.500000 0.300000 -0.100000
v -1.498438 0.300000 -0.100000
v -1.400000 0.100000 -0.100000
v -1.398438 0.100000 -0.100000
v -1.300000 -0.100000 -0.100000
v -1.298437 -0.100000 -0.100000
v 1.600000 0.100000 -0.100001
v 1.671875 0.128125 -0.100001
v 1.700000 0.200000 -0.100001
v 1.671875 0.270312 -0.100001
v 1.600000 0.300000 -0.100001
v 1.529687 0.270312 -0.100001
v 1.500000 0.200000 -0.100001
v 1.529687 0.128125 -0.100001
v 0.400000 0.100000 -0.100000
v 1.000000 0.100000 -0.100000
v 1.071875 0.128125 -0.100000
v 1.100000 0.200000 -0.100000
v 1.071875 0.270312 -0.100000
v 1.000000 0.300000 -0.100000
v 0.400000 0.300000 -0.100000
v 0.329687 0.270312 -0.100000
v 0.300000 0.200000 -0.100000
v 0.329687 0.128125 -0.100000
v -0.800000 0.100000 -0.100000
v -0.200000 0.100000 -0.100000
v -0.128125 0.128125 -0.100000
v -0.100000 0.200000 -0.100000
v -0.128125 0.270312 -0.100000
v -0.200000 0.300000 -0.100000
v -0.800000 0.300000 -0.100000
v -0.870313 0.270312 -0.100000
v -0.900000 0.200000 -0.100000
v -0.870313 0.128125 -0.100000
v -1.200000 -0.300000 0.100000
v -1.100000 -0.300000 0.100000
v -1.200000 -0.100000 0.100000
v -1.300000 0.100000 0.100000
v -1.400000 0.300000 0.100000
v -1.500000 0.500000 0.100000
v -1.600000 0.700000 0.100000
v -1.700000 0.700000 0.100001
v -1.600000 0.500000 0.100001
v -1.598438 0.500000 0.100001
v -1.500000 0.300000 0.100000
v -1.498438 0.300000 0.100000
v -1.400000 0.100000 0.100000
v -1.398438 0.100000 0.100000
v -1.300000 -0.100000 0.100000
v -1.298437 -0.100000 0.100000
v 1.600000 0.100000 0.099999
v 1.671875 0.128125 0.099999
v 1.700000 0.200000 0.099999
v 1.671875 0.270312 0.099999
v 1.600000 0.300000 0.099999
v 1.529687 0.270312 0.099999
v 1.500000 0.200000 0.100000
v 1.529687 0.128125 0.099999
v 0.400000 0.100000 0.100000
v 1.000000 0.100000 0.100000
v 1.071875 0.128125 0.100000
v 1.100000 0.200000 0.100000
v 1.071875 0.270312 0.100000
v 1.000000 0.300000 0.100000
v 0.400000 0.300000 0.100000
v 0.329688 0.270312 0.100000
v 0.300000 0.200000 0.100000
v 0.329688 0.128125 0.100000
v -0.800000 0.100000 0.100000
v -0.200000 0.100000 0.100000
v -0.128125 0.128125 0.100000
v -0.100000 0.200000 0.100000
v -0.128125 0.270312 0.100000
v -0.200000 0.300000 0.100000
v -0.800000 0.300000 0.100000
v -0.870313 0.270312 0.100000
v -0.900000 0.200000 0.100000
v -0.870313 0.128125 0.100000
v 1.600000 0.100000 0.099999
v 1.600000 0.100000 -0.100001
v 1.671875 0.128125 0.099999
v 1.671875 0.128125 -0.100001
v 1.700000 0.200000 0.099999
v 1.700000 0.200000 -0.100001
v 1.671875 0.270312 0.099999
v 1.671875 0.270312 -0.100001
v 1.600000 0.300000 0.099999
v 1.600000 0.300000 -0.100001
v 1.529687 0.270312 0.099999
v 1.529687 0.270312 -0.100001
v 1.500000 0.200000 0.100000
v 1.500000 0.200000 -0.100001
v 1.529687 0.128125 0.099999
v 1.529687 0.128125 -0.100001
v 0.400000 0.100000 0.100000
v 0.400000 0.100000 -0.100000
v 1.000000 0.100000 0.100000
v 1.000000 0.100000 -0.100000
v 1.071875 0.128125 0.100000
v 1.071875 0.128125 -0.100000
v 1.100000 0.200000 0.100000
v 1.100000 0.200000 -0.100000
v 1.071875 0.270312 0.100000
v 1.071875 0.270312 -0.100000
v 1.000000 0.300000 0.100000
v 1.000000 0.300000 -0.100000
v 0.400000 0.300000 0.100000
v 0.400000 0.300000 -0.100000
v 0.329688 0.270312 0.100000
v 0.329687 0.270312 -0.100000
v 0.300000 0.200000 0.100000
v 0.300000 0.200000 -0.100000
v 0.329688 0.128125 0.100000
v 0.329687 0.128125 -0.100000
v -0.800000 0.100000 0.100000
v -0.800000 0.100000 -0.100000
v -0.200000 0.100000 0.100000
v -0.200000 0.100000 -0.100000
v -0.128125 0.128125 0.100000
v -0.128125 0.128125 -0.100000
v -0.100000 0.200000 0.100000
v -0.100000 0.200000 -0.100000
v -0.128125 0.270312 0.100000
v -0.128125 0.270312 -0.100000
v -0.200000 0.300000 0.100000
v -0.200000 0.300000 -0.100000
v -0.800000 0.300000 0.100000
v -0.800000 0.300000 -0.100000
v -0.870313 0.270312 0.100000
v -0.870313 0.270312 -0.100000
v -0.900000 0.200000 0.100000
v -0.900000 0.200000 -0.100000
v -0.870313 0.128125 0.100000
v -0.870313 0.128125 -0.100000
v -1.200000 -0.300000 0.100000
v -1.200000 -0.300000 -0.100000
v -1.100000 -0.300000 0.100000
v -1.100000 -0.300000 -0.100000
v -1.200000 -0.100000 0.100000
v -1.200000 -0.100000 -0.100000
v -1.300000 0.100000 0.100000
v -1.300000 0.100000 -0.100000
v -1.400000 0.300000 0.100000
v -1.400000 0.300000 -0.100000
v -1.500000 0.500000 0.100000
v -1.500000 0.500000 -0.100000
v -1.600000 0.700000 0.100000
v -1.600000 0.700000 -0.100000
v -1.700000 0.700000 0.100001
v -1.700000 0.700000 -0.099999
v -1.600000 0.500000 0.100001
v -1.600000 0.500000 -0.100000
v -1.598438 0.500000 0.100001
v -1.598438 0.500000 -0.100000
v -1.500000 0.300000 0.100000
v -1.500000 0.300000 -0.100000
v -1.498438 0.300000 0.100000
v -1.498438 0.300000 -0.100000
v -1.400000 0.100000 0.100000
v -1.400000 0.100000 -0.100000
v -1.398438 0.100000 0.100000
v -1.398438 0.100000 -0.100000
v -1.300000 -0.100000 0.100000
v -1.300000 -0.100000 -0.100000
v -1.298437 -0.100000 0.100000
v -1.298437 -0.100000 -0.100000
vn -0.0000 -0.0000 -1.0000
vn -0.0000 -0.0000 1.0000
vn -0.0038 -1.0000 -0.0000
vn 0.7071 -0.7071 -0.0000
vn 1.0000 0.0038 -0.0000
vn 0.7111 0.7031 -0.0000
vn -0.0039 1.0000 -0.0000
vn -0.7071 0.7071 -0.0000
vn -1.0000 0.0039 -0.0000
vn -0.7031 -0.7111 -0.0000
vn -0.1891 -0.9820 -0.0000
vn 0.1854 -0.9827 -0.0000
vn 0.1946 0.9809 -0.0000
vn -0.1984 0.9801 -0.0000
vn -0.5284 -0.8490 -0.0000
vn 0.8507 -0.5257 -0.0000
vn 0.8944 0.4472 -0.0000
vn 0.5257 0.8507 -0.0000
vn -0.8507 0.5257 -0.0000
vn -0.5257 -0.8507 -0.0000
vt 0.441860 0.000000
vt 0.488372 0.000000
vt 0.465116 0.000000
vt 0.418605 0.000000
vt 0.511628 0.000000
vt 0.395349 0.000000
vt 0.534884 0.000000
vt 0.372093 0.000000
vt 0.651163 0.000000
vt 0.697674 0.000000
vt 0.674419 0.000000
vt 0.720930 0.000000
vt 0.627907 0.000000
vt 0.744186 0.000000
vt 0.604651 0.000000
vt 0.767442 0.000000
vt 0.581395 0.000000
vt 0.558140 0.000000
vt 0.883721 0.000000
vt 0.930233 0.000000
vt 0.906977 0.000000
vt 0.953488 0.000000
vt 0.860465 0.000000
vt 0.976744 0.000000
vt 0.837209 0.000000
vt 1.000000 0.000000
vt 0.813953 0.000000
vt 0.790698 0.000000
vt 0.116279 0.000000
vt 0.162791 0.000000
vt 0.139535 0.000000
vt 0.186047 0.000000
vt 0.093023 0.000000
vt 0.209302 0.000000
vt 0.232558 0.000000
vt 0.069767 0.000000
vt 0.255814 0.000000
vt 0.279070 0.000000
vt 0.046512 0.000000
vt 0.302326 0.000000
vt 0.325581 0.000000
vt 0.023256 0.000000
vt 0.348837 0.000000
vt 0.000000 0.000000
vt 0.000000 1.000000
vt 0.125000 1.000000
vt 0.125000 0.000000
vt 0.250000 1.000000
vt 0.250000 0.000000
vt 0.375000 1.000000
vt 0.375000 0.000000
vt 0.500000 1.000000
vt 0.500000 0.000000
vt 0.625000 1.000000
vt 0.625000 0.000000
vt 0.750000 1.000000
vt 0.750000 0.000000
vt 0.875000 1.000000
vt 0.875000 0.000000
vt 1.000000 1.000000
vt 0.100000 1.000000
vt 0.100000 0.000000
vt 0.200000 1.000000
vt 0.200000 0.000000
vt 0.300000 1.000000
vt 0.300000 0.000000
vt 0.400000 1.000000
vt 0.400000 0.000000
vt 0.600000 1.000000
vt 0.600000 0.000000
vt 0.700000 1.000000
vt 0.700000 0.000000
vt 0.800000 1.000000
vt 0.800000 0.000000
vt 0.900000 1.000000
vt 0.900000 0.000000
vt 0.062500 1.000000
vt 0.062500 0.000000
vt 0.187500 1.000000
vt 0.187500 0.000000
vt 0.312500 1.000000
vt 0.312500 0.000000
vt 0.437500 1.000000
vt 0.437500 0.000000
vt 0.562500 1.000000
vt 0.562500 0.000000
vt 0.687500 1.000000
vt 0.687500 0.000000
vt 0.812500 1.000000
vt 0.812500 0.000000
vt 0.937500 1.000000
vt 0.937500 0.000000
s 0
f 20/1/1 22/2/1 21/3/1
f 19/4/1 22/2/1 20/1/1
f 19/4/1 23/5/1 22/2/1
f 18/6/1 23/5/1 19/4/1
f 18/6/1 24/7/1 23/5/1
f 17/8/1 24/7/1 18/6/1
f 29/9/1 31/10/1 30/11/1
f 29/9/1 32/12/1 31/10/1
f 28/13/1 32/12/1 29/9/1
f 28/13/1 33/14/1 32/12/1
f 27/15/1 33/14/1 28/13/1
f 27/15/1 34/16/1 33/14/1
f 26/17/1 34/16/1 27/15/1
f 26/17/1 25/18/1 34/16/1
f 39/19/1 41/20/1 40/21/1
f 39/19/1 42/22/1 41/20/1
f 38/23/1 42/22/1 39/19/1
f 38/23/1 43/24/1 42/22/1
f 37/25/1 43/24/1 38/23/1
f 37/25/1 44/26/1 43/24/1
f 36/27/1 44/26/1 37/25/1
f 36/27/1 35/28/1 44/26/1
f 6/29/1 8/30/1 7/31/1
f 6/29/1 9/32/1 8/30/1
f 5/33/1 10/34/1 6/29/1
f 10/34/1 9/32/1 6/29/1
f 5/33/1 11/35/1 10/34/1
f 4/36/1 12/37/1 5/33/1
f 12/37/1 11/35/1 5/33/1
f 4/36/1 13/38/1 12/37/1
f 3/39/1 14/40/1 4/36/1
f 14/40/2 13/38/2 4/36/2
f 3/39/1 15/41/1 14/40/1
f 2/42/1 16/43/1 3/39/1
f 16/43/1 15/41/1 3/39/1
f 2/42/1 1/44/1 16/43/1
f 64/1/2 65/3/2 66/2/2
f 63/4/2 64/1/2 66/2/2
f 63/4/2 66/2/2 67/5/2
f 62/6/2 63/4/2 67/5/2
f 62/6/2 67/5/2 68/7/2
f 61/8/2 62/6/2 68/7/2
f 73/9/2 74/11/2 75/10/2
f 73/9/2 75/10/2 76/12/2
f 72/13/2 73/9/2 76/12/2
f 72/13/2 76/12/2 77/14/2
f 71/15/2 72/13/2 77/14/2
f 71/15/2 77/14/2 78/16/2
f 70/17/2 71/15/2 78/16/2
f 70/17/2 78/16/2 69/18/2
f 83/19/2 84/21/2 85/20/2
f 83/19/2 85/20/2 86/22/2
f 82/23/2 83/19/2 86/22/2
f 82/23/2 86/22/2 87/24/2
f 81/25/2 82/23/2 87/24/2
f 81/25/2 87/24/2 88/26/2
f 80/27/2 81/25/2 88/26/2
f 80/27/2 88/26/2 79/28/2
f 50/29/2 51/31/2 52/30/2
f 50/29/2 52/30/2 53/32/2
f 49/33/2 50/29/2 54/34/2
f 54/34/1 50/29/1 53/32/1
f 49/33/2 54/34/2 55/35/2
f 48/36/2 49/33/2 56/37/2
f 56/37/1 49/33/1 55/35/1
f 48/36/2 56/37/2 57/38/2
f 47/39/2 48/36/2 58/40/2
f 58/40/1 48/36/1 57/38/1
f 47/39/2 58/40/2 59/41/2
f 46/42/2 47/39/2 60/43/2
f 60/43/1 47/39/1 59/41/1
f 46/42/2 60/43/2 45/44/2
s 1
f 90/45/3 92/46/4 91/47/4 89/44/3
f 92/46/4 94/48/5 93/49/5 91/47/4
f 94/48/5 96/50/6 95/51/6 93/49/5
f 96/50/6 98/52/7 97/53/7 95/51/6
f 98/52/7 100/54/8 99/55/8 97/53/7
f 100/54/8 102/56/9 101/57/9 99/55/8
f 102/56/9 104/58/10 103/59/10 101/57/9
f 104/58/10 90/60/3 89/26/3 103/59/10
f 106/45/11 108/61/12 107/62/12 105/44/11
f 108/61/12 110/63/4 109/64/4 107/62/12
f 110/63/4 112/65/5 111/66/5 109/64/4
f 112/65/5 114/67/6 113/68/6 111/66/5
f 114/67/6 116/52/13 115/53/13 113/68/6
f 116/52/13 118/69/14 117/70/14 115/53/13
f 118/69/14 120/71/8 119/72/8 117/70/14
f 120/71/8 122/73/9 121/74/9 119/72/8
f 122/73/9 124/75/10 123/76/10 121/74/9
f 124/75/10 106/60/11 105/26/11 123/76/10
f 126/45/11 128/61/12 127/62/12 125/44/11
f 128/61/12 130/63/4 129/64/4 127/62/12
f 130/63/4 132/65/5 131/66/5 129/64/4
f 132/65/5 134/67/6 133/68/6 131/66/5
f 134/67/6 136/52/13 135/53/13 133/68/6
f 136/52/13 138/69/14 137/70/14 135/53/13
f 138/69/14 140/71/8 139/72/8 137/70/14
f 140/71/8 142/73/9 141/74/9 139/72/8
f 142/73/9 144/75/10 143/76/10 141/74/9
f 144/75/10 126/60/11 125/26/11 143/76/10
f 146/45/15 148/77/16 147/78/16 145/44/15
f 148/77/16 150/46/17 149/47/17 147/78/16
f 150/46/17 152/79/17 151/80/17 149/47/17
f 152/79/17 154/48/17 153/49/17 151/80/17
f 154/48/17 156/81/17 155/82/17 153/49/17
f 156/81/17 158/50/18 157/51/18 155/82/17
f 158/50/18 160/83/19 159/84/19 157/51/18
f 160/83/19 162/52/20 161/53/20 159/84/19
f 162/52/20 164/85/15 163/86/15 161/53/20
f 164/85/15 166/54/15 165/55/15 163/86/15
f 166/54/15 168/87/15 167/88/15 165/55/15
f 168/87/15 170/56/15 169/57/15 167/88/15
f 170/56/15 172/89/15 171/90/15 169/57/15
f 172/89/15 174/58/15 173/59/15 171/90/15
f 174/58/15 176/91/15 175/92/15 173/59/15
f 176/91/15 146/60/15 145/26/15 175/92/15
