# Blender 4.1.1
# www.blender.org
o x
v -1.500000 -0.300000 -0.100000
v -1.400000 -0.300000 -0.100000
v -1.500000 -0.100000 -0.100000
v -1.600000 0.100000 -0.099999
v -1.700000 0.300000 -0.099999
v -1.800000 0.500000 -0.099999
v -1.900000 0.700000 -0.099999
v -2.000000 0.700000 -0.099999
v -1.900000 0.500000 -0.099999
v -1.898438 0.500000 -0.099999
v -1.800000 0.300000 -0.099999
v -1.798438 0.300000 -0.099999
v -1.700000 0.100000 -0.099999
v -1.698437 0.100000 -0.099999
v -1.600000 -0.100000 -0.099999
v -1.598438 -0.100000 -0.099999
v 1.300000 0.100000 -0.100000
v 1.900000 0.100000 -0.100001
v 1.971875 0.128125 -0.100001
v 2.000000 0.200000 -0.100001
v 1.971875 0.270312 -0.100001
v 1.900000 0.300000 -0.100001
v 1.300000 0.300000 -0.100000
v 1.229687 0.270312 -0.100000
v 1.200000 0.200000 -0.100000
v 1.229687 0.128125 -0.100000
v 0.700000 0.100000 -0.100000
v 0.771875 0.128125 -0.100000
v 0.800000 0.200000 -0.100000
v 0.771875 0.270312 -0.100000
v 0.700000 0.300000 -0.100000
v 0.629687 0.270312 -0.100000
v 0.600000 0.200000 -0.100000
v 0.629687 0.128125 -0.100000
v 0.100000 0.100000 -0.100000
v 0.171875 0.128125 -0.100000
v 0.200000 0.200000 -0.100000
v 0.171875 0.270312 -0.100000
v 0.100000 0.300000 -0.100000
v 0.029687 0.270312 -0.100000
v -0.000000 0.200000 -0.100000
v 0.029687 0.128125 -0.100000
v -1.100000 0.100000 -0.100000
v -0.500000 0.100000 -0.100000
v -0.428125 0.128125 -0.100000
v -0.400000 0.200000 -0.100000
v -0.428125 0.270312 -0.100000
v -0.500000 0.300000 -0.100000
v -1.100000 0.300000 -0.100000
v -1.170312 0.270312 -0.100000
v -1.200000 0.200000 -0.100000
v -1.170312 0.128125 -0.100000
v -1.500000 -0.300000 0.100001
v -1.400000 -0.300000 0.100000
v -1.500000 -0.100000 0.100000
v -1.600000 0.100000 0.100001
v -1.700000 0.300000 0.100001
v -1.800000 0.500000 0.100001
v -1.900000 0.700000 0.100001
v -2.000000 0.700000 0.100001
v -1.900000 0.500000 0.100001
v -1.898438 0.500000 0.100001
v -1.800000 0.300000 0.100001
v -1.798438 0.300000 0.100001
v -1.700000 0.100000 0.100001
v -1.698437 0.100000 0.100001
v -1.600000 -0.100000 0.100001
v -1.598438 -0.100000 0.100001
v 1.300000 0.100000 0.100000
v 1.900000 0.100000 0.099999
v 1.971875 0.128125 0.099999
v 2.000000 0.200000 0.099999
v 1.971875 0.270312 0.099999
v 1.900000 0.300000 0.099999
v 1.300000 0.300000 0.100000
v 1.229687 0.270312 0.100000
v 1.200000 0.200000 0.100000
v 1.229687 0.128125 0.100000
v 0.700000 0.100000 0.100000
v 0.771875 0.128125 0.100000
v 0.800000 0.200000 0.100000
v 0.771875 0.270312 0.100000
v 0.700000 0.300000 0.100000
v 0.629688 0.270312 0.100000
v 0.600000 0.200000 0.100000
v 0.629688 0.128125 0.100000
v 0.100000 0.100000 0.100000
v 0.171875 0.128125 0.100000
v 0.200000 0.200000 0.100000
v 0.171875 0.270312 0.100000
v 0.100000 0.300000 0.100000
v 0.029687 0.270312 0.100000
v 0.000000 0.200000 0.100000
v 0.029687 0.128125 0.100000
v -1.100000 0.100000 0.100000
v -0.500000 0.100000 0.100000
v -0.428125 0.128125 0.100000
v -0.400000 0.200000 0.100000
v -0.428125 0.270312 0.100000
v -0.500000 0.300000 0.100000
v -1.100000 0.300000 0.100000
v -1.170312 0.270312 0.100000
v -1.200000 0.200000 0.100000
v -1.170312 0.128125 0.100000
v 1.300000 0.100000 0.100000
v 1.300000 0.100000 -0.100000
v 1.900000 0.100000 0.099999
v 1.900000 0.100000 -0.100001
v 1.971875 0.128125 0.099999
v 1.971875 0.128125 -0.100001
v 2.000000 0.200000 0.099999
v 2.000000 0.200000 -0.100001
v 1.971875 0.270312 0.099999
v 1.971875 0.270312 -0.100001
v 1.900000 0.300000 0.099999
v 1.900000 0.300000 -0.100001
v 1.300000 0.300000 0.100000
v 1.300000 0.300000 -0.100000
v 1.229687 0.270312 0.100000
v 1.229687 0.270312 -0.100000
v 1.200000 0.200000 0.100000
v 1.200000 0.200000 -0.100000
v 1.229687 0.128125 0.100000
v 1.229687 0.128125 -0.100000
v 0.700000 0.100000 0.100000
v 0.700000 0.100000 -0.100000
v 0.771875 0.128125 0.100000
v 0.771875 0.128125 -0.100000
v 0.800000 0.200000 0.100000
v 0.800000 0.200000 -0.100000
v 0.771875 0.270312 0.100000
v 0.771875 0.270312 -0.100000
v 0.700000 0.300000 0.100000
v 0.700000 0.300000 -0.100000
v 0.629688 0.270312 0.100000
v 0.629687 0.270312 -0.100000
v 0.600000 0.200000 0.100000
v 0.600000 0.200000 -0.100000
v 0.629688 0.128125 0.100000
v 0.629687 0.128125 -0.100000
v 0.100000 0.100000 0.100000
v 0.100000 0.100000 -0.100000
v 0.171875 0.128125 0.100000
v 0.171875 0.128125 -0.100000
v 0.200000 0.200000 0.100000
v 0.200000 0.200000 -0.100000
v 0.171875 0.270312 0.100000
v 0.171875 0.270312 -0.100000
v 0.100000 0.300000 0.100000
v 0.100000 0.300000 -0.100000
v 0.029687 0.270312 0.100000
v 0.029687 0.270312 -0.100000
v 0.000000 0.200000 0.100000
v -0.000000 0.200000 -0.100000
v 0.029687 0.128125 0.100000
v 0.029687 0.128125 -0.100000
v -1.100000 0.100000 0.100000
v -1.100000 0.100000 -0.100000
v -0.500000 0.100000 0.100000
v -0.500000 0.100000 -0.100000
v -0.428125 0.128125 0.100000
v -0.428125 0.128125 -0.100000
v -0.400000 0.200000 0.100000
v -0.400000 0.200000 -0.100000
v -0.428125 0.270312 0.100000
v -0.428125 0.270312 -0.100000
v -0.500000 0.300000 0.100000
v -0.500000 0.300000 -0.100000
v -1.100000 0.300000 0.100000
v -1.100000 0.300000 -0.100000
v -1.170312 0.270312 0.100000
v -1.170312 0.270312 -0.100000
v -1.200000 0.200000 0.100000
v -1.200000 0.200000 -0.100000
v -1.170312 0.128125 0.100000
v -1.170312 0.128125 -0.100000
v -1.500000 -0.300000 0.100001
v -1.500000 -0.300000 -0.100000
v -1.400000 -0.300000 0.100000
v -1.400000 -0.300000 -0.100000
v -1.500000 -0.100000 0.100000
v -1.500000 -0.100000 -0.100000
v -1.600000 0.100000 0.100001
v -1.600000 0.100000 -0.099999
v -1.700000 0.300000 0.100001
v -1.700000 0.300000 -0.099999
v -1.800000 0.500000 0.100001
v -1.800000 0.500000 -0.099999
v -1.900000 0.700000 0.100001
v -1.900000 0.700000 -0.099999
v -2.000000 0.700000 0.100001
v -2.000000 0.700000 -0.099999
v -1.900000 0.500000 0.100001
v -1.900000 0.500000 -0.099999
v -1.898438 0.500000 0.100001
v -1.898438 0.500000 -0.099999
v -1.800000 0.300000 0.100001
v -1.800000 0.300000 -0.099999
v -1.798438 0.300000 0.100001
v -1.798438 0.300000 -0.099999
v -1.700000 0.100000 0.100001
v -1.700000 0.100000 -0.099999
v -1.698437 0.100000 0.100001
v -1.698437 0.100000 -0.099999
v -1.600000 -0.100000 0.100001
v -1.600000 -0.100000 -0.099999
v -1.598438 -0.100000 0.100001
v -1.598438 -0.100000 -0.099999
vn -0.0000 -0.0000 -1.0000
vn -0.0000 -0.0000 1.0000
vn -0.1891 -0.9820 -0.0000
vn 0.1854 -0.9827 -0.0000
vn 0.7071 -0.7071 -0.0000
vn 1.0000 0.0038 -0.0000
vn 0.7111 0.7031 -0.0000
vn 0.1946 0.9809 -0.0000
vn -0.1984 0.9801 -0.0000
vn -0.7071 0.7071 -0.0000
vn -1.0000 0.0039 -0.0000
vn -0.7031 -0.7111 -0.0000
vn -0.0038 -1.0000 -0.0000
vn -0.0039 1.0000 -0.0000
vn -0.5284 -0.8490 -0.0000
vn 0.8507 -0.5257 -0.0000
vn 0.8944 0.4472 -0.0000
vn 0.5257 0.8507 -0.0000
vn -0.8507 0.5257 -0.0000
vn -0.5257 -0.8507 -0.0000
vt 0.392157 0.000000
vt 0.431373 0.000000
vt 0.411765 0.000000
vt 0.450980 0.000000
vt 0.372549 0.000000
vt 0.470588 0.000000
vt 0.352941 0.000000
vt 0.490196 0.000000
vt 0.333333 0.000000
vt 0.313726 0.000000
vt 0.568627 0.000000
vt 0.607843 0.000000
vt 0.588235 0.000000
vt 0.549020 0.000000
vt 0.627451 0.000000
vt 0.529412 0.000000
vt 0.647059 0.000000
vt 0.509804 0.000000
vt 0.725490 0.000000
vt 0.764706 0.000000
vt 0.745098 0.000000
vt 0.705882 0.000000
vt 0.784314 0.000000
vt 0.686275 0.000000
vt 0.803922 0.000000
vt 0.666667 0.000000
vt 0.901961 0.000000
vt 0.941176 0.000000
vt 0.921569 0.000000
vt 0.960784 0.000000
vt 0.882353 0.000000
vt 0.980392 0.000000
vt 0.862745 0.000000
vt 1.000000 0.000000
vt 0.843137 0.000000
vt 0.823529 0.000000
vt 0.098039 0.000000
vt 0.137255 0.000000
vt 0.117647 0.000000
vt 0.156863 0.000000
vt 0.078431 0.000000
vt 0.176471 0.000000
vt 0.196078 0.000000
vt 0.058824 0.000000
vt 0.215686 0.000000
vt 0.235294 0.000000
vt 0.039216 0.000000
vt 0.254902 0.000000
vt 0.274510 0.000000
vt 0.019608 0.000000
vt 0.294118 0.000000
vt 0.000000 0.000000
vt 0.000000 1.000000
vt 0.100000 1.000000
vt 0.100000 0.000000
vt 0.200000 1.000000
vt 0.200000 0.000000
vt 0.300000 1.000000
vt 0.300000 0.000000
vt 0.400000 1.000000
vt 0.400000 0.000000
vt 0.500000 1.000000
vt 0.500000 0.000000
vt 0.600000 1.000000
vt 0.600000 0.000000
vt 0.700000 1.000000
vt 0.700000 0.000000
vt 0.800000 1.000000
vt 0.800000 0.000000
vt 0.900000 1.000000
vt 0.900000 0.000000
vt 1.000000 1.000000
vt 0.125000 1.000000
vt 0.125000 0.000000
vt 0.250000 1.000000
vt 0.250000 0.000000
vt 0.375000 1.000000
vt 0.375000 0.000000
vt 0.625000 1.000000
vt 0.625000 0.000000
vt 0.750000 1.000000
vt 0.750000 0.000000
vt 0.875000 1.000000
vt 0.875000 0.000000
vt 0.062500 1.000000
vt 0.062500 0.000000
vt 0.187500 1.000000
vt 0.187500 0.000000
vt 0.312500 1.000000
vt 0.312500 0.000000
vt 0.437500 1.000000
vt 0.437500 0.000000
vt 0.562500 1.000000
vt 0.562500 0.000000
vt 0.687500 1.000000
vt 0.687500 0.000000
vt 0.812500 1.000000
vt 0.812500 0.000000
vt 0.937500 1.000000
vt 0.937500 0.000000
s 0
f 21/1/1 23/2/1 22/3/1
f 21/1/1 24/4/1 23/2/1
f 20/5/1 24/4/1 21/1/1
f 20/5/1 25/6/1 24/4/1
f 19/7/1 25/6/1 20/5/1
f 19/7/1 26/8/1 25/6/1
f 18/9/1 26/8/1 19/7/1
f 18/9/1 17/10/1 26/8/1
f 30/11/1 32/12/1 31/13/1
f 29/14/1 32/12/1 30/11/1
f 29/14/1 33/15/1 32/12/1
f 28/16/1 33/15/1 29/14/1
f 28/16/1 34/17/1 33/15/1
f 27/18/1 34/17/1 28/16/1
f 38/19/1 40/20/1 39/21/1
f 37/22/1 40/20/1 38/19/1
f 37/22/1 41/23/1 40/20/1
f 36/24/1 41/23/1 37/22/1
f 36/24/1 42/25/1 41/23/1
f 35/26/1 42/25/1 36/24/1
f 47/27/1 49/28/1 48/29/1
f 47/27/1 50/30/1 49/28/1
f 46/31/1 50/30/1 47/27/1
f 46/31/1 51/32/1 50/30/1
f 45/33/1 51/32/1 46/31/1
f 45/33/1 52/34/1 51/32/1
f 44/35/1 52/34/1 45/33/1
f 44/35/1 43/36/1 52/34/1
f 6/37/1 8/38/1 7/39/1
f 6/37/1 9/40/1 8/38/1
f 5/41/1 10/42/1 6/37/1
f 10/42/1 9/40/1 6/37/1
f 5/41/1 11/43/1 10/42/1
f 4/44/1 12/45/1 5/41/1
f 12/45/1 11/43/1 5/41/1
f 4/44/1 13/46/1 12/45/1
f 3/47/1 14/48/1 4/44/1
f 14/48/1 13/46/1 4/44/1
f 3/47/1 15/49/1 14/48/1
f 2/50/1 16/51/1 3/47/1
f 16/51/1 15/49/1 3/47/1
f 2/50/1 1/52/1 16/51/1
f 73/1/2 74/3/2 75/2/2
f 73/1/2 75/2/2 76/4/2
f 72/5/2 73/1/2 76/4/2
f 72/5/2 76/4/2 77/6/2
f 71/7/2 72/5/2 77/6/2
f 71/7/2 77/6/2 78/8/2
f 70/9/2 71/7/2 78/8/2
f 70/9/2 78/8/2 69/10/2
f 82/11/2 83/13/2 84/12/2
f 81/14/2 82/11/2 84/12/2
f 81/14/2 84/12/2 85/15/2
f 80/16/2 81/14/2 85/15/2
f 80/16/2 85/15/2 86/17/2
f 79/18/2 80/16/2 86/17/2
f 90/19/2 91/21/2 92/20/2
f 89/22/2 90/19/2 92/20/2
f 89/22/2 92/20/2 93/23/2
f 88/24/2 89/22/2 93/23/2
f 88/24/2 93/23/2 94/25/2
f 87/26/2 88/24/2 94/25/2
f 99/27/2 100/29/2 101/28/2
f 99/27/2 101/28/2 102/30/2
f 98/31/2 99/27/2 102/30/2
f 98/31/2 102/30/2 103/32/2
f 97/33/2 98/31/2 103/32/2
f 97/33/2 103/32/2 104/34/2
f 96/35/2 97/33/2 104/34/2
f 96/35/2 104/34/2 95/36/2
f 58/37/2 59/39/2 60/38/2
f 58/37/2 60/38/2 61/40/2
f 57/41/2 58/37/2 62/42/2
f 62/42/1 58/37/1 61/40/1
f 57/41/2 62/42/2 63/43/2
f 56/44/2 57/41/2 64/45/2
f 64/45/2 57/41/2 63/43/2
f 56/44/2 64/45/2 65/46/2
f 55/47/2 56/44/2 66/48/2
f 66/48/1 56/44/1 65/46/1
f 55/47/2 66/48/2 67/49/2
f 54/50/2 55/47/2 68/51/2
f 68/51/1 55/47/1 67/49/1
f 54/50/2 68/51/2 53/52/2
s 1
f 106/53/3 108/54/4 107/55/4 105/52/3
f 108/54/4 110/56/5 109/57/5 107/55/4
f 110/56/5 112/58/6 111/59/6 109/57/5
f 112/58/6 114/60/7 113/61/7 111/59/6
f 114/60/7 116/62/8 115/63/8 113/61/7
f 116/62/8 118/64/9 117/65/9 115/63/8
f 118/64/9 120/66/10 119/67/10 117/65/9
f 120/66/10 122/68/11 121/69/11 119/67/10
f 122/68/11 124/70/12 123/71/12 121/69/11
f 124/70/12 106/72/3 105/34/3 123/71/12
f 126/53/13 128/73/5 127/74/5 125/52/13
f 128/73/5 130/75/6 129/76/6 127/74/5
f 130/75/6 132/77/7 131/78/7 129/76/6
f 132/77/7 134/62/14 133/63/14 131/78/7
f 134/62/14 136/79/10 135/80/10 133/63/14
f 136/79/10 138/81/11 137/82/11 135/80/10
f 138/81/11 140/83/12 139/84/12 137/82/11
f 140/83/12 126/72/13 125/34/13 139/84/12
f 142/53/13 144/73/5 143/74/5 141/52/13
f 144/73/5 146/75/6 145/76/6 143/74/5
f 146/75/6 148/77/7 147/78/7 145/76/6
f 148/77/7 150/62/14 149/63/14 147/78/7
f 150/62/14 152/79/10 151/80/10 149/63/14
f 152/79/10 154/81/11 153/82/11 151/80/10
f 154/81/11 156/83/12 155/84/12 153/82/11
f 156/83/12 142/72/13 141/34/13 155/84/12
f 158/53/3 160/54/4 159/55/4 157/52/3
f 160/54/4 162/56/5 161/57/5 159/55/4
f 162/56/5 164/58/6 163/59/6 161/57/5
f 164/58/6 166/60/7 165/61/7 163/59/6
f 166/60/7 168/62/8 167/63/8 165/61/7
f 168/62/8 170/64/9 169/65/9 167/63/8
f 170/64/9 172/66/10 171/67/10 169/65/9
f 172/66/10 174/68/11 173/69/11 171/67/10
f 174/68/11 176/70/12 175/71/12 173/69/11
f 176/70/12 158/72/3 157/34/3 175/71/12
f 178/53/15 180/85/16 179/86/16 177/52/15
f 180/85/16 182/73/17 181/74/17 179/86/16
f 182/73/17 184/87/17 183/88/17 181/74/17
f 184/87/17 186/75/17 185/76/17 183/88/17
f 186/75/17 188/89/17 187/90/17 185/76/17
f 188/89/17 190/77/18 189/78/18 187/90/17
f 190/77/18 192/91/19 191/92/19 189/78/18
f 192/91/19 194/62/20 193/63/20 191/92/19
f 194/62/20 196/93/15 195/94/15 193/63/20
f 196/93/15 198/79/15 197/80/15 195/94/15
f 198/79/15 200/95/15 199/96/15 197/80/15
f 200/95/15 202/81/15 201/82/15 199/96/15
f 202/81/15 204/97/15 203/98/15 201/82/15
f 204/97/15 206/83/15 205/84/15 203/98/15
f 206/83/15 208/99/15 207/100/15 205/84/15
f 208/99/15 178/72/15 177/34/15 207/100/15
