# Blender 4.1.1
# www.blender.org
o '
v -2.700000 -0.300000 -0.099999
v -2.600000 -0.300000 -0.099999
v -2.700000 -0.100000 -0.099999
v -2.800000 0.100000 -0.099999
v -2.900000 0.300000 -0.099999
v -3.000000 0.500000 -0.099999
v -3.100000 0.700000 -0.099999
v -3.200000 0.700000 -0.099999
v -3.100000 0.500000 -0.099999
v -3.098437 0.500000 -0.099999
v -3.000000 0.300000 -0.099999
v -2.998437 0.300000 -0.099999
v -2.900000 0.100000 -0.099999
v -2.898438 0.100000 -0.099999
v -2.800000 -0.100000 -0.099999
v -2.798438 -0.100000 -0.099999
v 3.100000 0.100000 -0.100001
v 3.171875 0.128125 -0.100001
v 3.200000 0.200000 -0.100001
v 3.171875 0.270312 -0.100001
v 3.100000 0.300000 -0.100001
v 3.029688 0.270312 -0.100001
v 3.000000 0.200000 -0.100001
v 3.029688 0.128125 -0.100001
v 1.900000 0.100000 -0.100001
v 2.500000 0.100000 -0.100001
v 2.571875 0.128125 -0.100001
v 2.600000 0.200000 -0.100001
v 2.571875 0.270312 -0.100001
v 2.500000 0.300000 -0.100001
v 1.900000 0.300000 -0.100001
v 1.829688 0.270312 -0.100001
v 1.800000 0.200000 -0.100001
v 1.829688 0.128125 -0.100001
v 0.700000 0.100000 -0.100000
v 1.300000 0.100000 -0.100000
v 1.371875 0.128125 -0.100000
v 1.400000 0.200000 -0.100000
v 1.371875 0.270312 -0.100000
v 1.300000 0.300000 -0.100000
v 0.700000 0.300000 -0.100000
v 0.629687 0.270312 -0.100000
v 0.600000 0.200000 -0.100000
v 0.629687 0.128125 -0.100000
v -0.500000 0.100000 -0.100000
v 0.100000 0.100000 -0.100000
v 0.171875 0.128125 -0.100000
v 0.200000 0.200000 -0.100000
v 0.171875 0.270312 -0.100000
v 0.100000 0.300000 -0.100000
v -0.500000 0.300000 -0.100000
v -0.570313 0.270312 -0.100000
v -0.600000 0.200000 -0.100000
v -0.570313 0.128125 -0.100000
v -1.700000 0.100000 -0.099999
v -1.100000 0.100000 -0.100000
v -1.028125 0.128125 -0.100000
v -1.000000 0.200000 -0.100000
v -1.028125 0.270312 -0.100000
v -1.100000 0.300000 -0.100000
v -1.700000 0.300000 -0.099999
v -1.770312 0.270312 -0.099999
v -1.800000 0.200000 -0.099999
v -1.770312 0.128125 -0.099999
v -2.300000 0.100000 -0.099999
v -2.228125 0.128125 -0.099999
v -2.200000 0.200000 -0.099999
v -2.228125 0.270312 -0.099999
v -2.300000 0.300000 -0.099999
v -2.370313 0.270312 -0.099999
v -2.400000 0.200000 -0.099999
v -2.370313 0.128125 -0.099999
v -2.700000 -0.300000 0.100001
v -2.600000 -0.300000 0.100001
v -2.700000 -0.100000 0.100001
v -2.800000 0.100000 0.100001
v -2.900000 0.300000 0.100001
v -3.000000 0.500000 0.100001
v -3.100000 0.700000 0.100001
v -3.200000 0.700000 0.100001
v -3.100000 0.500000 0.100001
v -3.098437 0.500000 0.100001
v -3.000000 0.300000 0.100001
v -2.998437 0.300000 0.100001
v -2.900000 0.100000 0.100001
v -2.898438 0.100000 0.100001
v -2.800000 -0.100000 0.100001
v -2.798438 -0.100000 0.100001
v 3.100000 0.100000 0.099999
v 3.171875 0.128125 0.099999
v 3.200000 0.200000 0.099999
v 3.171875 0.270312 0.099999
v 3.100000 0.300000 0.099999
v 3.029688 0.270312 0.099999
v 3.000000 0.200000 0.099999
v 3.029688 0.128125 0.099999
v 1.900000 0.100000 0.099999
v 2.500000 0.100000 0.099999
v 2.571875 0.128125 0.099999
v 2.600000 0.200000 0.099999
v 2.571875 0.270312 0.099999
v 2.500000 0.300000 0.099999
v 1.900000 0.300000 0.099999
v 1.829688 0.270312 0.099999
v 1.800000 0.200000 0.099999
v 1.829688 0.128125 0.099999
v 0.700000 0.100000 0.100000
v 1.300000 0.100000 0.100000
v 1.371875 0.128125 0.100000
v 1.400000 0.200000 0.100000
v 1.371875 0.270312 0.100000
v 1.300000 0.300000 0.100000
v 0.700000 0.300000 0.100000
v 0.629688 0.270312 0.100000
v 0.600000 0.200000 0.100000
v 0.629688 0.128125 0.100000
v -0.500000 0.100000 0.100000
v 0.100000 0.100000 0.100000
v 0.171875 0.128125 0.100000
v 0.200000 0.200000 0.100000
v 0.171875 0.270312 0.100000
v 0.100000 0.300000 0.100000
v -0.500000 0.300000 0.100000
v -0.570312 0.270312 0.100000
v -0.600000 0.200000 0.100000
v -0.570312 0.128125 0.100000
v -1.700000 0.100000 0.100001
v -1.100000 0.100000 0.100000
v -1.028125 0.128125 0.100000
v -1.000000 0.200000 0.100000
v -1.028125 0.270312 0.100000
v -1.100000 0.300000 0.100000
v -1.700000 0.300000 0.100001
v -1.770312 0.270312 0.100001
v -1.800000 0.200000 0.100001
v -1.770312 0.128125 0.100001
v -2.300000 0.100000 0.100001
v -2.228125 0.128125 0.100001
v -2.200000 0.200000 0.100001
v -2.228125 0.270312 0.100001
v -2.300000 0.300000 0.100001
v -2.370313 0.270312 0.100001
v -2.400000 0.200000 0.100001
v -2.370313 0.128125 0.100001
v 3.100000 0.100000 0.099999
v 3.100000 0.100000 -0.100001
v 3.171875 0.128125 0.099999
v 3.171875 0.128125 -0.100001
v 3.200000 0.200000 0.099999
v 3.200000 0.200000 -0.100001
v 3.171875 0.270312 0.099999
v 3.171875 0.270312 -0.100001
v 3.100000 0.300000 0.099999
v 3.100000 0.300000 -0.100001
v 3.029688 0.270312 0.099999
v 3.029688 0.270312 -0.100001
v 3.000000 0.200000 0.099999
v 3.000000 0.200000 -0.100001
v 3.029688 0.128125 0.099999
v 3.029688 0.128125 -0.100001
v 1.900000 0.100000 0.099999
v 1.900000 0.100000 -0.100001
v 2.500000 0.100000 0.099999
v 2.500000 0.100000 -0.100001
v 2.571875 0.128125 0.099999
v 2.571875 0.128125 -0.100001
v 2.600000 0.200000 0.099999
v 2.600000 0.200000 -0.100001
v 2.571875 0.270312 0.099999
v 2.571875 0.270312 -0.100001
v 2.500000 0.300000 0.099999
v 2.500000 0.300000 -0.100001
v 1.900000 0.300000 0.099999
v 1.900000 0.300000 -0.100001
v 1.829688 0.270312 0.099999
v 1.829688 0.270312 -0.100001
v 1.800000 0.200000 0.099999
v 1.800000 0.200000 -0.100001
v 1.829688 0.128125 0.099999
v 1.829688 0.128125 -0.100001
v 0.700000 0.100000 0.100000
v 0.700000 0.100000 -0.100000
v 1.300000 0.100000 0.100000
v 1.300000 0.100000 -0.100000
v 1.371875 0.128125 0.100000
v 1.371875 0.128125 -0.100000
v 1.400000 0.200000 0.100000
v 1.400000 0.200000 -0.100000
v 1.371875 0.270312 0.100000
v 1.371875 0.270312 -0.100000
v 1.300000 0.300000 0.100000
v 1.300000 0.300000 -0.100000
v 0.700000 0.300000 0.100000
v 0.700000 0.300000 -0.100000
v 0.629688 0.270312 0.100000
v 0.629687 0.270312 -0.100000
v 0.600000 0.200000 0.100000
v 0.600000 0.200000 -0.100000
v 0.629688 0.128125 0.100000
v 0.629687 0.128125 -0.100000
v -0.500000 0.100000 0.100000
v -0.500000 0.100000 -0.100000
v 0.100000 0.100000 0.100000
v 0.100000 0.100000 -0.100000
v 0.171875 0.128125 0.100000
v 0.171875 0.128125 -0.100000
v 0.200000 0.200000 0.100000
v 0.200000 0.200000 -0.100000
v 0.171875 0.270312 0.100000
v 0.171875 0.270312 -0.100000
v 0.100000 0.300000 0.100000
v 0.100000 0.300000 -0.100000
v -0.500000 0.300000 0.100000
v -0.500000 0.300000 -0.100000
v -0.570312 0.270312 0.100000
v -0.570313 0.270312 -0.100000
v -0.600000 0.200000 0.100000
v -0.600000 0.200000 -0.100000
v -0.570312 0.128125 0.100000
v -0.570313 0.128125 -0.100000
v -1.700000 0.100000 0.100001
v -1.700000 0.100000 -0.099999
v -1.100000 0.100000 0.100000
v -1.100000 0.100000 -0.100000
v -1.028125 0.128125 0.100000
v -1.028125 0.128125 -0.100000
v -1.000000 0.200000 0.100000
v -1.000000 0.200000 -0.100000
v -1.028125 0.270312 0.100000
v -1.028125 0.270312 -0.100000
v -1.100000 0.300000 0.100000
v -1.100000 0.300000 -0.100000
v -1.700000 0.300000 0.100001
v -1.700000 0.300000 -0.099999
v -1.770312 0.270312 0.100001
v -1.770312 0.270312 -0.099999
v -1.800000 0.200000 0.100001
v -1.800000 0.200000 -0.099999
v -1.770312 0.128125 0.100001
v -1.770312 0.128125 -0.099999
v -2.300000 0.100000 0.100001
v -2.300000 0.100000 -0.099999
v -2.228125 0.128125 0.100001
v -2.228125 0.128125 -0.099999
v -2.200000 0.200000 0.100001
v -2.200000 0.200000 -0.099999
v -2.228125 0.270312 0.100001
v -2.228125 0.270312 -0.099999
v -2.300000 0.300000 0.100001
v -2.300000 0.300000 -0.099999
v -2.370313 0.270312 0.100001
v -2.370313 0.270312 -0.099999
v -2.400000 0.200000 0.100001
v -2.400000 0.200000 -0.099999
v -2.370313 0.128125 0.100001
v -2.370313 0.128125 -0.099999
v -2.700000 -0.300000 0.100001
v -2.700000 -0.300000 -0.099999
v -2.600000 -0.300000 0.100001
v -2.600000 -0.300000 -0.099999
v -2.700000 -0.100000 0.100001
v -2.700000 -0.100000 -0.099999
v -2.800000 0.100000 0.100001
v -2.800000 0.100000 -0.099999
v -2.900000 0.300000 0.100001
v -2.900000 0.300000 -0.099999
v -3.000000 0.500000 0.100001
v -3.000000 0.500000 -0.099999
v -3.100000 0.700000 0.100001
v -3.100000 0.700000 -0.099999
v -3.200000 0.700000 0.100001
v -3.200000 0.700000 -0.099999
v -3.100000 0.500000 0.100001
v -3.100000 0.500000 -0.099999
v -3.098437 0.500000 0.100001
v -3.098437 0.500000 -0.099999
v -3.000000 0.300000 0.100001
v -3.000000 0.300000 -0.099999
v -2.998437 0.300000 0.100001
v -2.998437 0.300000 -0.099999
v -2.900000 0.100000 0.100001
v -2.900000 0.100000 -0.099999
v -2.898438 0.100000 0.100001
v -2.898438 0.100000 -0.099999
v -2.800000 -0.100000 0.100001
v -2.800000 -0.100000 -0.099999
v -2.798438 -0.100000 0.100001
v -2.798438 -0.100000 -0.099999
vn -0.0000 -0.0000 -1.0000
vn -0.0000 -0.0000 1.0000
vn -0.0038 -1.0000 -0.0000
vn 0.7071 -0.7071 -0.0000
vn 1.0000 0.0038 -0.0000
vn 0.7111 0.7031 -0.0000
vn -0.0039 1.0000 -0.0000
vn -0.7071 0.7071 -0.0000
vn -1.0000 0.0039 -0.0000
vn -0.7031 -0.7111 -0.0000
vn -0.1891 -0.9820 -0.0000
vn 0.1854 -0.9827 -0.0000
vn 0.1946 0.9809 -0.0000
vn -0.1984 0.9801 -0.0000
vn -0.5284 -0.8490 -0.0000
vn 0.8507 -0.5257 -0.0000
vn 0.8944 0.4472 -0.0000
vn 0.5257 0.8507 -0.0000
vn -0.8507 0.5257 -0.0000
vn -0.5257 -0.8507 -0.0000
vt 0.267606 0.000000
vt 0.295775 0.000000
vt 0.281690 0.000000
vt 0.253521 0.000000
vt 0.309859 0.000000
vt 0.239437 0.000000
vt 0.323944 0.000000
vt 0.225352 0.000000
vt 0.394366 0.000000
vt 0.422535 0.000000
vt 0.408451 0.000000
vt 0.436620 0.000000
vt 0.380282 0.000000
vt 0.450704 0.000000
vt 0.366197 0.000000
vt 0.464789 0.000000
vt 0.352113 0.000000
vt 0.338028 0.000000
vt 0.535211 0.000000
vt 0.563380 0.000000
vt 0.549296 0.000000
vt 0.577465 0.000000
vt 0.521127 0.000000
vt 0.591549 0.000000
vt 0.507042 0.000000
vt 0.605634 0.000000
vt 0.492958 0.000000
vt 0.478873 0.000000
vt 0.676056 0.000000
vt 0.704225 0.000000
vt 0.690141 0.000000
vt 0.718310 0.000000
vt 0.661972 0.000000
vt 0.732394 0.000000
vt 0.647887 0.000000
vt 0.746479 0.000000
vt 0.633803 0.000000
vt 0.619718 0.000000
vt 0.816901 0.000000
vt 0.845070 0.000000
vt 0.830986 0.000000
vt 0.859155 0.000000
vt 0.802817 0.000000
vt 0.873239 0.000000
vt 0.788732 0.000000
vt 0.887324 0.000000
vt 0.774648 0.000000
vt 0.760563 0.000000
vt 0.943662 0.000000
vt 0.971831 0.000000
vt 0.957747 0.000000
vt 0.929577 0.000000
vt 0.985915 0.000000
vt 0.915493 0.000000
vt 1.000000 0.000000
vt 0.901408 0.000000
vt 0.070423 0.000000
vt 0.098592 0.000000
vt 0.084507 0.000000
vt 0.112676 0.000000
vt 0.056338 0.000000
vt 0.126761 0.000000
vt 0.140845 0.000000
vt 0.042254 0.000000
vt 0.154930 0.000000
vt 0.169014 0.000000
vt 0.028169 0.000000
vt 0.183099 0.000000
vt 0.197183 0.000000
vt 0.014085 0.000000
vt 0.211268 0.000000
vt 0.000000 0.000000
vt 0.000000 1.000000
vt 0.125000 1.000000
vt 0.125000 0.000000
vt 0.250000 1.000000
vt 0.250000 0.000000
vt 0.375000 1.000000
vt 0.375000 0.000000
vt 0.500000 1.000000
vt 0.500000 0.000000
vt 0.625000 1.000000
vt 0.625000 0.000000
vt 0.750000 1.000000
vt 0.750000 0.000000
vt 0.875000 1.000000
vt 0.875000 0.000000
vt 1.000000 1.000000
vt 0.100000 1.000000
vt 0.100000 0.000000
vt 0.200000 1.000000
vt 0.200000 0.000000
vt 0.300000 1.000000
vt 0.300000 0.000000
vt 0.400000 1.000000
vt 0.400000 0.000000
vt 0.600000 1.000000
vt 0.600000 0.000000
vt 0.700000 1.000000
vt 0.700000 0.000000
vt 0.800000 1.000000
vt 0.800000 0.000000
vt 0.900000 1.000000
vt 0.900000 0.000000
vt 0.062500 1.000000
vt 0.062500 0.000000
vt 0.187500 1.000000
vt 0.187500 0.000000
vt 0.312500 1.000000
vt 0.312500 0.000000
vt 0.437500 1.000000
vt 0.437500 0.000000
vt 0.562500 1.000000
vt 0.562500 0.000000
vt 0.687500 1.000000
vt 0.687500 0.000000
vt 0.812500 1.000000
vt 0.812500 0.000000
vt 0.937500 1.000000
vt 0.937500 0.000000
s 0
f 20/1/1 22/2/1 21/3/1
f 19/4/1 22/2/1 20/1/1
f 19/4/1 23/5/1 22/2/1
f 18/6/1 23/5/1 19/4/1
f 18/6/1 24/7/1 23/5/1
f 17/8/1 24/7/1 18/6/1
f 29/9/1 31/10/1 30/11/1
f 29/9/1 32/12/1 31/10/1
f 28/13/1 32/12/1 29/9/1
f 28/13/1 33/14/1 32/12/1
f 27/15/1 33/14/1 28/13/1
f 27/15/1 34/16/1 33/14/1
f 26/17/1 34/16/1 27/15/1
f 26/17/1 25/18/1 34/16/1
f 39/19/1 41/20/1 40/21/1
f 39/19/1 42/22/1 41/20/1
f 38/23/1 42/22/1 39/19/1
f 38/23/1 43/24/1 42/22/1
f 37/25/1 43/24/1 38/23/1
f 37/25/1 44/26/1 43/24/1
f 36/27/1 44/26/1 37/25/1
f 36/27/1 35/28/1 44/26/1
f 49/29/1 51/30/1 50/31/1
f 49/29/1 52/32/1 51/30/1
f 48/33/1 52/32/1 49/29/1
f 48/33/1 53/34/1 52/32/1
f 47/35/1 53/34/1 48/33/1
f 47/35/1 54/36/1 53/34/1
f 46/37/1 54/36/1 47/35/1
f 46/37/1 45/38/1 54/36/1
f 59/39/1 61/40/1 60/41/1
f 59/39/1 62/42/1 61/40/1
f 58/43/1 62/42/1 59/39/1
f 58/43/1 63/44/1 62/42/1
f 57/45/1 63/44/1 58/43/1
f 57/45/1 64/46/1 63/44/1
f 56/47/1 64/46/1 57/45/1
f 56/47/1 55/48/1 64/46/1
f 68/49/1 70/50/1 69/51/1
f 67/52/1 70/50/1 68/49/1
f 67/52/1 71/53/1 70/50/1
f 66/54/1 71/53/1 67/52/1
f 66/54/1 72/55/1 71/53/1
f 65/56/1 72/55/1 66/54/1
f 6/57/1 8/58/1 7/59/1
f 6/57/1 9/60/1 8/58/1
f 5/61/1 10/62/1 6/57/1
f 10/62/1 9/60/1 6/57/1
f 5/61/1 11/63/1 10/62/1
f 4/64/1 12/65/1 5/61/1
f 12/65/1 11/63/1 5/61/1
f 4/64/1 13/66/1 12/65/1
f 3/67/1 14/68/1 4/64/1
f 14/68/1 13/66/1 4/64/1
f 3/67/1 15/69/1 14/68/1
f 2/70/1 16/71/1 3/67/1
f 16/71/1 15/69/1 3/67/1
f 2/70/1 1/72/1 16/71/1
f 92/1/2 93/3/2 94/2/2
f 91/4/2 92/1/2 94/2/2
f 91/4/2 94/2/2 95/5/2
f 90/6/2 91/4/2 95/5/2
f 90/6/2 95/5/2 96/7/2
f 89/8/2 90/6/2 96/7/2
f 101/9/2 102/11/2 103/10/2
f 101/9/2 103/10/2 104/12/2
f 100/13/2 101/9/2 104/12/2
f 100/13/2 104/12/2 105/14/2
f 99/15/2 100/13/2 105/14/2
f 99/15/2 105/14/2 106/16/2
f 98/17/2 99/15/2 106/16/2
f 98/17/2 106/16/2 97/18/2
f 111/19/2 112/21/2 113/20/2
f 111/19/2 113/20/2 114/22/2
f 110/23/2 111/19/2 114/22/2
f 110/23/2 114/22/2 115/24/2
f 109/25/2 110/23/2 115/24/2
f 109/25/2 115/24/2 116/26/2
f 108/27/2 109/25/2 116/26/2
f 108/27/2 116/26/2 107/28/2
f 121/29/2 122/31/2 123/30/2
f 121/29/2 123/30/2 124/32/2
f 120/33/2 121/29/2 124/32/2
f 120/33/2 124/32/2 125/34/2
f 119/35/2 120/33/2 125/34/2
f 119/35/2 125/34/2 126/36/2
f 118/37/2 119/35/2 126/36/2
f 118/37/2 126/36/2 117/38/2
f 131/39/2 132/41/2 133/40/2
f 131/39/2 133/40/2 134/42/2
f 130/43/2 131/39/2 134/42/2
f 130/43/2 134/42/2 135/44/2
f 129/45/2 130/43/2 135/44/2
f 129/45/2 135/44/2 136/46/2
f 128/47/2 129/45/2 136/46/2
f 128/47/2 136/46/2 127/48/2
f 140/49/2 141/51/2 142/50/2
f 139/52/2 140/49/2 142/50/2
f 139/52/2 142/50/2 143/53/2
f 138/54/2 139/52/2 143/53/2
f 138/54/2 143/53/2 144/55/2
f 137/56/2 138/54/2 144/55/2
f 78/57/2 79/59/2 80/58/2
f 78/57/2 80/58/2 81/60/2
f 77/61/2 78/57/2 82/62/2
f 82/62/1 78/57/1 81/60/1
f 77/61/2 82/62/2 83/63/2
f 76/64/2 77/61/2 84/65/2
f 84/65/1 77/61/1 83/63/1
f 76/64/2 84/65/2 85/66/2
f 75/67/2 76/64/2 86/68/2
f 86/68/1 76/64/1 85/66/1
f 75/67/2 86/68/2 87/69/2
f 74/70/2 75/67/2 88/71/2
f 88/71/1 75/67/1 87/69/1
f 74/70/2 88/71/2 73/72/2
s 1
f 146/73/3 148/74/4 147/75/4 145/72/3
f 148/74/4 150/76/5 149/77/5 147/75/4
f 150/76/5 152/78/6 151/79/6 149/77/5
f 152/78/6 154/80/7 153/81/7 151/79/6
f 154/80/7 156/82/8 155/83/8 153/81/7
f 156/82/8 158/84/9 157/85/9 155/83/8
f 158/84/9 160/86/10 159/87/10 157/85/9
f 160/86/10 146/88/3 145/55/3 159/87/10
f 162/73/11 164/89/12 163/90/12 161/72/11
f 164/89/12 166/91/4 165/92/4 163/90/12
f 166/91/4 168/93/5 167/94/5 165/92/4
f 168/93/5 170/95/6 169/96/6 167/94/5
f 170/95/6 172/80/13 171/81/13 169/96/6
f 172/80/13 174/97/14 173/98/14 171/81/13
f 174/97/14 176/99/8 175/100/8 173/98/14
f 176/99/8 178/101/9 177/102/9 175/100/8
f 178/101/9 180/103/10 179/104/10 177/102/9
f 180/103/10 162/88/11 161/55/11 179/104/10
f 182/73/11 184/89/12 183/90/12 181/72/11
f 184/89/12 186/91/4 185/92/4 183/90/12
f 186/91/4 188/93/5 187/94/5 185/92/4
f 188/93/5 190/95/6 189/96/6 187/94/5
f 190/95/6 192/80/13 191/81/13 189/96/6
f 192/80/13 194/97/14 193/98/14 191/81/13
f 194/97/14 196/99/8 195/100/8 193/98/14
f 196/99/8 198/101/9 197/102/9 195/100/8
f 198/101/9 200/103/10 199/104/10 197/102/9
f 200/103/10 182/88/11 181/55/11 199/104/10
f 202/73/11 204/89/12 203/90/12 201/72/11
f 204/89/12 206/91/4 205/92/4 203/90/12
f 206/91/4 208/93/5 207/94/5 205/92/4
f 208/93/5 210/95/6 209/96/6 207/94/5
f 210/95/6 212/80/13 211/81/13 209/96/6
f 212/80/13 214/97/14 213/98/14 211/81/13
f 214/97/14 216/99/8 215/100/8 213/98/14
f 216/99/8 218/101/9 217/102/9 215/100/8
f 218/101/9 220/103/10 219/104/10 217/102/9
f 220/103/10 202/88/11 201/55/11 219/104/10
f 222/73/11 224/89/12 223/90/12 221/72/11
f 224/89/12 226/91/4 225/92/4 223/90/12
f 226/91/4 228/93/5 227/94/5 225/92/4
f 228/93/5 230/95/6 229/96/6 227/94/5
f 230/95/6 232/80/13 231/81/13 229/96/6
f 232/80/13 234/97/14 233/98/14 231/81/13
f 234/97/14 236/99/8 235/100/8 233/98/14
f 236/99/8 238/101/9 237/102/9 235/100/8
f 238/101/9 240/103/10 239/104/10 237/102/9
f 240/103/10 222/88/11 221/55/11 239/104/10
f 242/73/3 244/74/4 243/75/4 241/72/3
f 244/74/4 246/76/5 245/77/5 243/75/4
f 246/76/5 248/78/6 247/79/6 245/77/5
f 248/78/6 250/80/7 249/81/7 247/79/6
f 250/80/7 252/82/8 251/83/8 249/81/7
f 252/82/8 254/84/9 253/85/9 251/83/8
f 254/84/9 256/86/10 255/87/10 253/85/9
f 256/86/10 242/88/3 241/55/3 255/87/10
f 258/73/15 260/105/16 259/106/16 257/72/15
f 260/105/16 262/74/17 261/75/17 259/106/16
f 262/74/17 264/107/17 263/108/17 261/75/17
f 264/107/17 266/76/17 265/77/17 263/108/17
f 266/76/17 268/109/17 267/110/17 265/77/17
f 268/109/17 270/78/18 269/79/18 267/110/17
f 270/78/18 272/111/19 271/112/19 269/79/18
f 272/111/19 274/80/20 273/81/20 271/112/19
f 274/80/20 276/113/15 275/114/15 273/81/20
f 276/113/15 278/82/15 277/83/15 275/114/15
f 278/82/15 280/115/15 279/116/15 277/83/15
f 280/115/15 282/84/15 281/85/15 279/116/15
f 282/84/15 284/117/15 283/118/15 281/85/15
f 284/117/15 286/86/15 285/87/15 283/118/15
f 286/86/15 288/119/15 287/120/15 285/87/15
f 288/119/15 258/88/15 257/55/15 287/120/15
