# Blender 4.1.1
# www.blender.org
o (
v -2.100000 0.100000 -0.099999
v -2.028125 0.128125 -0.099999
v -2.000000 0.200000 -0.099999
v -2.028125 0.270312 -0.099999
v -2.100000 0.300000 -0.099999
v -2.170312 0.270312 -0.099999
v -2.200000 0.200000 -0.099999
v -2.170312 0.128125 -0.099999
v 1.500000 0.100000 -0.100000
v 2.100000 0.100000 -0.100001
v 2.171875 0.128125 -0.100001
v 2.200000 0.200000 -0.100001
v 2.171875 0.270312 -0.100001
v 2.100000 0.300000 -0.100001
v 1.500000 0.300000 -0.100001
v 1.429688 0.270312 -0.100000
v 1.400000 0.200000 -0.100000
v 1.429688 0.128125 -0.100000
v 0.900000 0.100000 -0.100000
v 0.971875 0.128125 -0.100000
v 1.000000 0.200000 -0.100000
v 0.971875 0.270312 -0.100000
v 0.900000 0.300000 -0.100000
v 0.829688 0.270312 -0.100000
v 0.800000 0.200000 -0.100000
v 0.829688 0.128125 -0.100000
v -0.300000 0.100000 -0.100000
v 0.300000 0.100000 -0.100000
v 0.371875 0.128125 -0.100000
v 0.400000 0.200000 -0.100000
v 0.371875 0.270312 -0.100000
v 0.300000 0.300000 -0.100000
v -0.300000 0.300000 -0.100000
v -0.370312 0.270312 -0.100000
v -0.400000 0.200000 -0.100000
v -0.370312 0.128125 -0.100000
v -1.500000 0.100000 -0.100000
v -0.900000 0.100000 -0.100000
v -0.828125 0.128125 -0.100000
v -0.800000 0.200000 -0.100000
v -0.828125 0.270312 -0.100000
v -0.900000 0.300000 -0.100000
v -1.500000 0.300000 -0.100000
v -1.570312 0.270312 -0.100000
v -1.600000 0.200000 -0.099999
v -1.570312 0.128125 -0.099999
v -2.100000 0.100000 0.100001
v -2.028125 0.128125 0.100001
v -2.000000 0.200000 0.100001
v -2.028125 0.270312 0.100001
v -2.100000 0.300000 0.100001
v -2.170312 0.270312 0.100001
v -2.200000 0.200000 0.100001
v -2.170312 0.128125 0.100001
v 1.500000 0.100000 0.100000
v 2.100000 0.100000 0.099999
v 2.171875 0.128125 0.099999
v 2.200000 0.200000 0.099999
v 2.171875 0.270312 0.099999
v 2.100000 0.300000 0.099999
v 1.500000 0.300000 0.100000
v 1.429688 0.270312 0.100000
v 1.400000 0.200000 0.100000
v 1.429688 0.128125 0.100000
v 0.900000 0.100000 0.100000
v 0.971875 0.128125 0.100000
v 1.000000 0.200000 0.100000
v 0.971875 0.270312 0.100000
v 0.900000 0.300000 0.100000
v 0.829688 0.270312 0.100000
v 0.800000 0.200000 0.100000
v 0.829688 0.128125 0.100000
v -0.300000 0.100000 0.100000
v 0.300000 0.100000 0.100000
v 0.371875 0.128125 0.100000
v 0.400000 0.200000 0.100000
v 0.371875 0.270312 0.100000
v 0.300000 0.300000 0.100000
v -0.300000 0.300000 0.100000
v -0.370312 0.270312 0.100000
v -0.400000 0.200000 0.100000
v -0.370312 0.128125 0.100000
v -1.500000 0.100000 0.100000
v -0.900000 0.100000 0.100000
v -0.828125 0.128125 0.100000
v -0.800000 0.200000 0.100000
v -0.828125 0.270312 0.100000
v -0.900000 0.300000 0.100000
v -1.500000 0.300000 0.100000
v -1.570312 0.270312 0.100001
v -1.600000 0.200000 0.100001
v -1.570312 0.128125 0.100001
v 1.500000 0.100000 0.100000
v 1.500000 0.100000 -0.100000
v 2.100000 0.100000 0.099999
v 2.100000 0.100000 -0.100001
v 2.171875 0.128125 0.099999
v 2.171875 0.128125 -0.100001
v 2.200000 0.200000 0.099999
v 2.200000 0.200000 -0.100001
v 2.171875 0.270312 0.099999
v 2.171875 0.270312 -0.100001
v 2.100000 0.300000 0.099999
v 2.100000 0.300000 -0.100001
v 1.500000 0.300000 0.100000
v 1.500000 0.300000 -0.100001
v 1.429688 0.270312 0.100000
v 1.429688 0.270312 -0.100000
v 1.400000 0.200000 0.100000
v 1.400000 0.200000 -0.100000
v 1.429688 0.128125 0.100000
v 1.429688 0.128125 -0.100000
v 0.900000 0.100000 0.100000
v 0.900000 0.100000 -0.100000
v 0.971875 0.128125 0.100000
v 0.971875 0.128125 -0.100000
v 1.000000 0.200000 0.100000
v 1.000000 0.200000 -0.100000
v 0.971875 0.270312 0.100000
v 0.971875 0.270312 -0.100000
v 0.900000 0.300000 0.100000
v 0.900000 0.300000 -0.100000
v 0.829688 0.270312 0.100000
v 0.829688 0.270312 -0.100000
v 0.800000 0.200000 0.100000
v 0.800000 0.200000 -0.100000
v 0.829688 0.128125 0.100000
v 0.829688 0.128125 -0.100000
v -0.300000 0.100000 0.100000
v -0.300000 0.100000 -0.100000
v 0.300000 0.100000 0.100000
v 0.300000 0.100000 -0.100000
v 0.371875 0.128125 0.100000
v 0.371875 0.128125 -0.100000
v 0.400000 0.200000 0.100000
v 0.400000 0.200000 -0.100000
v 0.371875 0.270312 0.100000
v 0.371875 0.270312 -0.100000
v 0.300000 0.300000 0.100000
v 0.300000 0.300000 -0.100000
v -0.300000 0.300000 0.100000
v -0.300000 0.300000 -0.100000
v -0.370312 0.270312 0.100000
v -0.370312 0.270312 -0.100000
v -0.400000 0.200000 0.100000
v -0.400000 0.200000 -0.100000
v -0.370312 0.128125 0.100000
v -0.370312 0.128125 -0.100000
v -1.500000 0.100000 0.100000
v -1.500000 0.100000 -0.100000
v -0.900000 0.100000 0.100000
v -0.900000 0.100000 -0.100000
v -0.828125 0.128125 0.100000
v -0.828125 0.128125 -0.100000
v -0.800000 0.200000 0.100000
v -0.800000 0.200000 -0.100000
v -0.828125 0.270312 0.100000
v -0.828125 0.270312 -0.100000
v -0.900000 0.300000 0.100000
v -0.900000 0.300000 -0.100000
v -1.500000 0.300000 0.100000
v -1.500000 0.300000 -0.100000
v -1.570312 0.270312 0.100001
v -1.570312 0.270312 -0.100000
v -1.600000 0.200000 0.100001
v -1.600000 0.200000 -0.099999
v -1.570312 0.128125 0.100001
v -1.570312 0.128125 -0.099999
v -2.100000 0.100000 0.100001
v -2.100000 0.100000 -0.099999
v -2.028125 0.128125 0.100001
v -2.028125 0.128125 -0.099999
v -2.000000 0.200000 0.100001
v -2.000000 0.200000 -0.099999
v -2.028125 0.270312 0.100001
v -2.028125 0.270312 -0.099999
v -2.100000 0.300000 0.100001
v -2.100000 0.300000 -0.099999
v -2.170312 0.270312 0.100001
v -2.170312 0.270312 -0.099999
v -2.200000 0.200000 0.100001
v -2.200000 0.200000 -0.099999
v -2.170312 0.128125 0.100001
v -2.170312 0.128125 -0.099999
vn -0.0000 -0.0000 -1.0000
vn -0.0000 -0.0000 1.0000
vn -0.1891 -0.9820 -0.0000
vn 0.1854 -0.9827 -0.0000
vn 0.7071 -0.7071 -0.0000
vn 1.0000 0.0038 -0.0000
vn 0.7111 0.7031 -0.0000
vn 0.1946 0.9809 -0.0000
vn -0.1984 0.9801 -0.0000
vn -0.7071 0.7071 -0.0000
vn -1.0000 0.0039 -0.0000
vn -0.7031 -0.7111 -0.0000
vn -0.0038 -1.0000 -0.0000
vn -0.0039 1.0000 -0.0000
vt 0.266667 0.000000
vt 0.311111 0.000000
vt 0.288889 0.000000
vt 0.333333 0.000000
vt 0.244444 0.000000
vt 0.355556 0.000000
vt 0.222222 0.000000
vt 0.377778 0.000000
vt 0.200000 0.000000
vt 0.177778 0.000000
vt 0.466667 0.000000
vt 0.511111 0.000000
vt 0.488889 0.000000
vt 0.444444 0.000000
vt 0.533333 0.000000
vt 0.422222 0.000000
vt 0.555556 0.000000
vt 0.400000 0.000000
vt 0.666667 0.000000
vt 0.711111 0.000000
vt 0.688889 0.000000
vt 0.733333 0.000000
vt 0.644444 0.000000
vt 0.755556 0.000000
vt 0.622222 0.000000
vt 0.777778 0.000000
vt 0.600000 0.000000
vt 0.577778 0.000000
vt 0.888889 0.000000
vt 0.933333 0.000000
vt 0.911111 0.000000
vt 0.955556 0.000000
vt 0.866667 0.000000
vt 0.977778 0.000000
vt 0.844444 0.000000
vt 1.000000 0.000000
vt 0.822222 0.000000
vt 0.800000 0.000000
vt 0.066667 0.000000
vt 0.111111 0.000000
vt 0.088889 0.000000
vt 0.044444 0.000000
vt 0.133333 0.000000
vt 0.022222 0.000000
vt 0.155556 0.000000
vt 0.000000 0.000000
vt 0.000000 1.000000
vt 0.100000 1.000000
vt 0.100000 0.000000
vt 0.200000 1.000000
vt 0.300000 1.000000
vt 0.300000 0.000000
vt 0.400000 1.000000
vt 0.500000 1.000000
vt 0.500000 0.000000
vt 0.600000 1.000000
vt 0.700000 1.000000
vt 0.700000 0.000000
vt 0.800000 1.000000
vt 0.900000 1.000000
vt 0.900000 0.000000
vt 1.000000 1.000000
vt 0.125000 1.000000
vt 0.125000 0.000000
vt 0.250000 1.000000
vt 0.250000 0.000000
vt 0.375000 1.000000
vt 0.375000 0.000000
vt 0.625000 1.000000
vt 0.625000 0.000000
vt 0.750000 1.000000
vt 0.750000 0.000000
vt 0.875000 1.000000
vt 0.875000 0.000000
s 0
f 13/1/1 15/2/1 14/3/1
f 13/1/1 16/4/1 15/2/1
f 12/5/1 16/4/1 13/1/1
f 12/5/1 17/6/1 16/4/1
f 11/7/1 17/6/1 12/5/1
f 11/7/1 18/8/1 17/6/1
f 10/9/1 18/8/1 11/7/1
f 10/9/1 9/10/1 18/8/1
f 22/11/1 24/12/1 23/13/1
f 21/14/1 24/12/1 22/11/1
f 21/14/1 25/15/1 24/12/1
f 20/16/1 25/15/1 21/14/1
f 20/16/1 26/17/1 25/15/1
f 19/18/1 26/17/1 20/16/1
f 31/19/1 33/20/1 32/21/1
f 31/19/1 34/22/1 33/20/1
f 30/23/1 34/22/1 31/19/1
f 30/23/1 35/24/1 34/22/1
f 29/25/1 35/24/1 30/23/1
f 29/25/1 36/26/1 35/24/1
f 28/27/1 36/26/1 29/25/1
f 28/27/1 27/28/1 36/26/1
f 41/29/1 43/30/1 42/31/1
f 41/29/1 44/32/1 43/30/1
f 40/33/1 44/32/1 41/29/1
f 40/33/1 45/34/1 44/32/1
f 39/35/1 45/34/1 40/33/1
f 39/35/1 46/36/1 45/34/1
f 38/37/1 46/36/1 39/35/1
f 38/37/1 37/38/1 46/36/1
f 4/39/1 6/40/1 5/41/1
f 3/42/1 6/40/1 4/39/1
f 3/42/1 7/43/1 6/40/1
f 2/44/1 7/43/1 3/42/1
f 2/44/1 8/45/1 7/43/1
f 1/46/1 8/45/1 2/44/1
f 59/1/2 60/3/2 61/2/2
f 59/1/2 61/2/2 62/4/2
f 58/5/2 59/1/2 62/4/2
f 58/5/2 62/4/2 63/6/2
f 57/7/2 58/5/2 63/6/2
f 57/7/2 63/6/2 64/8/2
f 56/9/2 57/7/2 64/8/2
f 56/9/2 64/8/2 55/10/2
f 68/11/2 69/13/2 70/12/2
f 67/14/2 68/11/2 70/12/2
f 67/14/2 70/12/2 71/15/2
f 66/16/2 67/14/2 71/15/2
f 66/16/2 71/15/2 72/17/2
f 65/18/2 66/16/2 72/17/2
f 77/19/2 78/21/2 79/20/2
f 77/19/2 79/20/2 80/22/2
f 76/23/2 77/19/2 80/22/2
f 76/23/2 80/22/2 81/24/2
f 75/25/2 76/23/2 81/24/2
f 75/25/2 81/24/2 82/26/2
f 74/27/2 75/25/2 82/26/2
f 74/27/2 82/26/2 73/28/2
f 87/29/2 88/31/2 89/30/2
f 87/29/2 89/30/2 90/32/2
f 86/33/2 87/29/2 90/32/2
f 86/33/2 90/32/2 91/34/2
f 85/35/2 86/33/2 91/34/2
f 85/35/2 91/34/2 92/36/2
f 84/37/2 85/35/2 92/36/2
f 84/37/2 92/36/2 83/38/2
f 50/39/2 51/41/2 52/40/2
f 49/42/2 50/39/2 52/40/2
f 49/42/2 52/40/2 53/43/2
f 48/44/2 49/42/2 53/43/2
f 48/44/2 53/43/2 54/45/2
f 47/46/2 48/44/2 54/45/2
s 1
f 94/47/3 96/48/4 95/49/4 93/46/3
f 96/48/4 98/50/5 97/9/5 95/49/4
f 98/50/5 100/51/6 99/52/6 97/9/5
f 100/51/6 102/53/7 101/18/7 99/52/6
f 102/53/7 104/54/8 103/55/8 101/18/7
f 104/54/8 106/56/9 105/27/9 103/55/8
f 106/56/9 108/57/10 107/58/10 105/27/9
f 108/57/10 110/59/11 109/38/11 107/58/10
f 110/59/11 112/60/12 111/61/12 109/38/11
f 112/60/12 94/62/3 93/36/3 111/61/12
f 114/47/13 116/63/5 115/64/5 113/46/13
f 116/63/5 118/65/6 117/66/6 115/64/5
f 118/65/6 120/67/7 119/68/7 117/66/6
f 120/67/7 122/54/14 121/55/14 119/68/7
f 122/54/14 124/69/10 123/70/10 121/55/14
f 124/69/10 126/71/11 125/72/11 123/70/10
f 126/71/11 128/73/12 127/74/12 125/72/11
f 128/73/12 114/62/13 113/36/13 127/74/12
f 130/47/3 132/48/4 131/49/4 129/46/3
f 132/48/4 134/50/5 133/9/5 131/49/4
f 134/50/5 136/51/6 135/52/6 133/9/5
f 136/51/6 138/53/7 137/18/7 135/52/6
f 138/53/7 140/54/8 139/55/8 137/18/7
f 140/54/8 142/56/9 141/27/9 139/55/8
f 142/56/9 144/57/10 143/58/10 141/27/9
f 144/57/10 146/59/11 145/38/11 143/58/10
f 146/59/11 148/60/12 147/61/12 145/38/11
f 148/60/12 130/62/3 129/36/3 147/61/12
f 150/47/3 152/48/4 151/49/4 149/46/3
f 152/48/4 154/50/5 153/9/5 151/49/4
f 154/50/5 156/51/6 155/52/6 153/9/5
f 156/51/6 158/53/7 157/18/7 155/52/6
f 158/53/7 160/54/8 159/55/8 157/18/7
f 160/54/8 162/56/9 161/27/9 159/55/8
f 162/56/9 164/57/10 163/58/10 161/27/9
f 164/57/10 166/59/11 165/38/11 163/58/10
f 166/59/11 168/60/12 167/61/12 165/38/11
f 168/60/12 150/62/3 149/36/3 167/61/12
f 170/47/13 172/63/5 171/64/5 169/46/13
f 172/63/5 174/65/6 173/66/6 171/64/5
f 174/65/6 176/67/7 175/68/7 173/66/6
f 176/67/7 178/54/14 177/55/14 175/68/7
f 178/54/14 180/69/10 179/70/10 177/55/14
f 180/69/10 182/71/11 181/72/11 179/70/10
f 182/71/11 184/73/12 183/74/12 181/72/11
f 184/73/12 170/62/13 169/36/13 183/74/12
