# Blender 4.1.1
# www.blender.org
o ,
v -2.700000 0.100000 -0.099999
v -2.100000 0.100000 -0.099999
v -2.028125 0.128125 -0.099999
v -2.000000 0.200000 -0.099999
v -2.028125 0.270312 -0.099999
v -2.100000 0.300000 -0.099999
v -2.700000 0.300000 -0.099999
v -2.770313 0.270312 -0.099999
v -2.800000 0.200000 -0.099999
v -2.770313 0.128125 -0.099999
v 2.100000 0.100000 -0.100001
v 2.700000 0.100000 -0.100001
v 2.771875 0.128125 -0.100001
v 2.800000 0.200000 -0.100001
v 2.771875 0.270312 -0.100001
v 2.700000 0.300000 -0.100001
v 2.100000 0.300000 -0.100001
v 2.029687 0.270312 -0.100001
v 2.000000 0.200000 -0.100001
v 2.029687 0.128125 -0.100001
v 0.900000 0.100000 -0.100000
v 1.500000 0.100000 -0.100000
v 1.571875 0.128125 -0.100001
v 1.600000 0.200000 -0.100001
v 1.571875 0.270312 -0.100001
v 1.500000 0.300000 -0.100001
v 0.900000 0.300000 -0.100000
v 0.829687 0.270312 -0.100000
v 0.800000 0.200000 -0.100000
v 0.829687 0.128125 -0.100000
v 0.300000 0.100000 -0.100000
v 0.371875 0.128125 -0.100000
v 0.400000 0.200000 -0.100000
v 0.371875 0.270312 -0.100000
v 0.300000 0.300000 -0.100000
v 0.229687 0.270312 -0.100000
v 0.200000 0.200000 -0.100000
v 0.229687 0.128125 -0.100000
v -0.300000 0.100000 -0.100000
v -0.228125 0.128125 -0.100000
v -0.200000 0.200000 -0.100000
v -0.228125 0.270312 -0.100000
v -0.300000 0.300000 -0.100000
v -0.370312 0.270312 -0.100000
v -0.400000 0.200000 -0.100000
v -0.370312 0.128125 -0.100000
v -1.500000 0.100000 -0.100000
v -0.900000 0.100000 -0.100000
v -0.828125 0.128125 -0.100000
v -0.800000 0.200000 -0.100000
v -0.828125 0.270312 -0.100000
v -0.900000 0.300000 -0.100000
v -1.500000 0.300000 -0.100000
v -1.570312 0.270312 -0.100000
v -1.600000 0.200000 -0.099999
v -1.570312 0.128125 -0.099999
v -2.700000 0.100000 0.100001
v -2.100000 0.100000 0.100001
v -2.028125 0.128125 0.100001
v -2.000000 0.200000 0.100001
v -2.028125 0.270312 0.100001
v -2.100000 0.300000 0.100001
v -2.700000 0.300000 0.100001
v -2.770313 0.270312 0.100001
v -2.800000 0.200000 0.100001
v -2.770313 0.128125 0.100001
v 2.100000 0.100000 0.099999
v 2.700000 0.100000 0.099999
v 2.771875 0.128125 0.099999
v 2.800000 0.200000 0.099999
v 2.771875 0.270312 0.099999
v 2.700000 0.300000 0.099999
v 2.100000 0.300000 0.099999
v 2.029687 0.270312 0.099999
v 2.000000 0.200000 0.099999
v 2.029687 0.128125 0.099999
v 0.900000 0.100000 0.100000
v 1.500000 0.100000 0.100000
v 1.571875 0.128125 0.099999
v 1.600000 0.200000 0.099999
v 1.571875 0.270312 0.099999
v 1.500000 0.300000 0.100000
v 0.900000 0.300000 0.100000
v 0.829687 0.270312 0.100000
v 0.800000 0.200000 0.100000
v 0.829687 0.128125 0.100000
v 0.300000 0.100000 0.100000
v 0.371875 0.128125 0.100000
v 0.400000 0.200000 0.100000
v 0.371875 0.270312 0.100000
v 0.300000 0.300000 0.100000
v 0.229687 0.270312 0.100000
v 0.200000 0.200000 0.100000
v 0.229687 0.128125 0.100000
v -0.300000 0.100000 0.100000
v -0.228125 0.128125 0.100000
v -0.200000 0.200000 0.100000
v -0.228125 0.270312 0.100000
v -0.300000 0.300000 0.100000
v -0.370312 0.270312 0.100000
v -0.400000 0.200000 0.100000
v -0.370312 0.128125 0.100000
v -1.500000 0.100000 0.100000
v -0.900000 0.100000 0.100000
v -0.828125 0.128125 0.100000
v -0.800000 0.200000 0.100000
v -0.828125 0.270312 0.100000
v -0.900000 0.300000 0.100000
v -1.500000 0.300000 0.100000
v -1.570312 0.270312 0.100001
v -1.600000 0.200000 0.100001
v -1.570312 0.128125 0.100001
v 2.100000 0.100000 0.099999
v 2.100000 0.100000 -0.100001
v 2.700000 0.100000 0.099999
v 2.700000 0.100000 -0.100001
v 2.771875 0.128125 0.099999
v 2.771875 0.128125 -0.100001
v 2.800000 0.200000 0.099999
v 2.800000 0.200000 -0.100001
v 2.771875 0.270312 0.099999
v 2.771875 0.270312 -0.100001
v 2.700000 0.300000 0.099999
v 2.700000 0.300000 -0.100001
v 2.100000 0.300000 0.099999
v 2.100000 0.300000 -0.100001
v 2.029687 0.270312 0.099999
v 2.029687 0.270312 -0.100001
v 2.000000 0.200000 0.099999
v 2.000000 0.200000 -0.100001
v 2.029687 0.128125 0.099999
v 2.029687 0.128125 -0.100001
v 0.900000 0.100000 0.100000
v 0.900000 0.100000 -0.100000
v 1.500000 0.100000 0.100000
v 1.500000 0.100000 -0.100000
v 1.571875 0.128125 0.099999
v 1.571875 0.128125 -0.100001
v 1.600000 0.200000 0.099999
v 1.600000 0.200000 -0.100001
v 1.571875 0.270312 0.099999
v 1.571875 0.270312 -0.100001
v 1.500000 0.300000 0.100000
v 1.500000 0.300000 -0.100001
v 0.900000 0.300000 0.100000
v 0.900000 0.300000 -0.100000
v 0.829687 0.270312 0.100000
v 0.829687 0.270312 -0.100000
v 0.800000 0.200000 0.100000
v 0.800000 0.200000 -0.100000
v 0.829687 0.128125 0.100000
v 0.829687 0.128125 -0.100000
v 0.300000 0.100000 0.100000
v 0.300000 0.100000 -0.100000
v 0.371875 0.128125 0.100000
v 0.371875 0.128125 -0.100000
v 0.400000 0.200000 0.100000
v 0.400000 0.200000 -0.100000
v 0.371875 0.270312 0.100000
v 0.371875 0.270312 -0.100000
v 0.300000 0.300000 0.100000
v 0.300000 0.300000 -0.100000
v 0.229687 0.270312 0.100000
v 0.229687 0.270312 -0.100000
v 0.200000 0.200000 0.100000
v 0.200000 0.200000 -0.100000
v 0.229687 0.128125 0.100000
v 0.229687 0.128125 -0.100000
v -0.300000 0.100000 0.100000
v -0.300000 0.100000 -0.100000
v -0.228125 0.128125 0.100000
v -0.228125 0.128125 -0.100000
v -0.200000 0.200000 0.100000
v -0.200000 0.200000 -0.100000
v -0.228125 0.270312 0.100000
v -0.228125 0.270312 -0.100000
v -0.300000 0.300000 0.100000
v -0.300000 0.300000 -0.100000
v -0.370312 0.270312 0.100000
v -0.370312 0.270312 -0.100000
v -0.400000 0.200000 0.100000
v -0.400000 0.200000 -0.100000
v -0.370312 0.128125 0.100000
v -0.370312 0.128125 -0.100000
v -1.500000 0.100000 0.100000
v -1.500000 0.100000 -0.100000
v -0.900000 0.100000 0.100000
v -0.900000 0.100000 -0.100000
v -0.828125 0.128125 0.100000
v -0.828125 0.128125 -0.100000
v -0.800000 0.200000 0.100000
v -0.800000 0.200000 -0.100000
v -0.828125 0.270312 0.100000
v -0.828125 0.270312 -0.100000
v -0.900000 0.300000 0.100000
v -0.900000 0.300000 -0.100000
v -1.500000 0.300000 0.100000
v -1.500000 0.300000 -0.100000
v -1.570312 0.270312 0.100001
v -1.570312 0.270312 -0.100000
v -1.600000 0.200000 0.100001
v -1.600000 0.200000 -0.099999
v -1.570312 0.128125 0.100001
v -1.570312 0.128125 -0.099999
v -2.700000 0.100000 0.100001
v -2.700000 0.100000 -0.099999
v -2.100000 0.100000 0.100001
v -2.100000 0.100000 -0.099999
v -2.028125 0.128125 0.100001
v -2.028125 0.128125 -0.099999
v -2.000000 0.200000 0.100001
v -2.000000 0.200000 -0.099999
v -2.028125 0.270312 0.100001
v -2.028125 0.270312 -0.099999
v -2.100000 0.300000 0.100001
v -2.100000 0.300000 -0.099999
v -2.700000 0.300000 0.100001
v -2.700000 0.300000 -0.099999
v -2.770313 0.270312 0.100001
v -2.770313 0.270312 -0.099999
v -2.800000 0.200000 0.100001
v -2.800000 0.200000 -0.099999
v -2.770313 0.128125 0.100001
v -2.770313 0.128125 -0.099999
vn -0.0000 -0.0000 -1.0000
vn -0.0000 -0.0000 1.0000
vn -0.1891 -0.9820 -0.0000
vn 0.1854 -0.9827 -0.0000
vn 0.7071 -0.7071 -0.0000
vn 1.0000 0.0038 -0.0000
vn 0.7111 0.7031 -0.0000
vn 0.1946 0.9809 -0.0000
vn -0.1984 0.9801 -0.0000
vn -0.7071 0.7071 -0.0000
vn -1.0000 0.0039 -0.0000
vn -0.7031 -0.7111 -0.0000
vn -0.0038 -1.0000 -0.0000
vn -0.0039 1.0000 -0.0000
vt 0.254545 0.000000
vt 0.290909 0.000000
vt 0.272727 0.000000
vt 0.309091 0.000000
vt 0.236364 0.000000
vt 0.327273 0.000000
vt 0.218182 0.000000
vt 0.345455 0.000000
vt 0.200000 0.000000
vt 0.181818 0.000000
vt 0.436364 0.000000
vt 0.472727 0.000000
vt 0.454545 0.000000
vt 0.490909 0.000000
vt 0.418182 0.000000
vt 0.509091 0.000000
vt 0.400000 0.000000
vt 0.527273 0.000000
vt 0.381818 0.000000
vt 0.363636 0.000000
vt 0.600000 0.000000
vt 0.636364 0.000000
vt 0.618182 0.000000
vt 0.581818 0.000000
vt 0.654545 0.000000
vt 0.563636 0.000000
vt 0.672727 0.000000
vt 0.545455 0.000000
vt 0.745455 0.000000
vt 0.781818 0.000000
vt 0.763636 0.000000
vt 0.727273 0.000000
vt 0.800000 0.000000
vt 0.709091 0.000000
vt 0.818182 0.000000
vt 0.690909 0.000000
vt 0.909091 0.000000
vt 0.945455 0.000000
vt 0.927273 0.000000
vt 0.963636 0.000000
vt 0.890909 0.000000
vt 0.981818 0.000000
vt 0.872727 0.000000
vt 1.000000 0.000000
vt 0.854545 0.000000
vt 0.836364 0.000000
vt 0.072727 0.000000
vt 0.109091 0.000000
vt 0.090909 0.000000
vt 0.127273 0.000000
vt 0.054545 0.000000
vt 0.145455 0.000000
vt 0.036364 0.000000
vt 0.163636 0.000000
vt 0.018182 0.000000
vt 0.000000 0.000000
vt 0.000000 1.000000
vt 0.100000 1.000000
vt 0.100000 0.000000
vt 0.200000 1.000000
vt 0.300000 1.000000
vt 0.300000 0.000000
vt 0.400000 1.000000
vt 0.500000 1.000000
vt 0.500000 0.000000
vt 0.600000 1.000000
vt 0.700000 1.000000
vt 0.700000 0.000000
vt 0.800000 1.000000
vt 0.900000 1.000000
vt 0.900000 0.000000
vt 1.000000 1.000000
vt 0.125000 1.000000
vt 0.125000 0.000000
vt 0.250000 1.000000
vt 0.250000 0.000000
vt 0.375000 1.000000
vt 0.375000 0.000000
vt 0.625000 1.000000
vt 0.625000 0.000000
vt 0.750000 1.000000
vt 0.750000 0.000000
vt 0.875000 1.000000
vt 0.875000 0.000000
s 0
f 15/1/1 17/2/1 16/3/1
f 15/1/1 18/4/1 17/2/1
f 14/5/1 18/4/1 15/1/1
f 14/5/1 19/6/1 18/4/1
f 13/7/1 19/6/1 14/5/1
f 13/7/1 20/8/1 19/6/1
f 12/9/1 20/8/1 13/7/1
f 12/9/1 11/10/1 20/8/1
f 25/11/1 27/12/1 26/13/1
f 25/11/1 28/14/1 27/12/1
f 24/15/1 28/14/1 25/11/1
f 24/15/1 29/16/1 28/14/1
f 23/17/1 29/16/1 24/15/1
f 23/17/1 30/18/1 29/16/1
f 22/19/1 30/18/1 23/17/1
f 22/19/1 21/20/1 30/18/1
f 34/21/1 36/22/1 35/23/1
f 33/24/1 36/22/1 34/21/1
f 33/24/1 37/25/1 36/22/1
f 32/26/1 37/25/1 33/24/1
f 32/26/1 38/27/1 37/25/1
f 31/28/1 38/27/1 32/26/1
f 42/29/1 44/30/1 43/31/1
f 41/32/1 44/30/1 42/29/1
f 41/32/1 45/33/1 44/30/1
f 40/34/1 45/33/1 41/32/1
f 40/34/1 46/35/1 45/33/1
f 39/36/1 46/35/1 40/34/1
f 51/37/1 53/38/1 52/39/1
f 51/37/1 54/40/1 53/38/1
f 50/41/1 54/40/1 51/37/1
f 50/41/1 55/42/1 54/40/1
f 49/43/1 55/42/1 50/41/1
f 49/43/1 56/44/1 55/42/1
f 48/45/1 56/44/1 49/43/1
f 48/45/1 47/46/1 56/44/1
f 5/47/1 7/48/1 6/49/1
f 5/47/1 8/50/1 7/48/1
f 4/51/1 8/50/1 5/47/1
f 4/51/1 9/52/1 8/50/1
f 3/53/1 9/52/1 4/51/1
f 3/53/1 10/54/1 9/52/1
f 2/55/1 10/54/1 3/53/1
f 2/55/1 1/56/1 10/54/1
f 71/1/2 72/3/2 73/2/2
f 71/1/2 73/2/2 74/4/2
f 70/5/2 71/1/2 74/4/2
f 70/5/2 74/4/2 75/6/2
f 69/7/2 70/5/2 75/6/2
f 69/7/2 75/6/2 76/8/2
f 68/9/2 69/7/2 76/8/2
f 68/9/2 76/8/2 67/10/2
f 81/11/2 82/13/2 83/12/2
f 81/11/2 83/12/2 84/14/2
f 80/15/2 81/11/2 84/14/2
f 80/15/2 84/14/2 85/16/2
f 79/17/2 80/15/2 85/16/2
f 79/17/2 85/16/2 86/18/2
f 78/19/2 79/17/2 86/18/2
f 78/19/2 86/18/2 77/20/2
f 90/21/2 91/23/2 92/22/2
f 89/24/2 90/21/2 92/22/2
f 89/24/2 92/22/2 93/25/2
f 88/26/2 89/24/2 93/25/2
f 88/26/2 93/25/2 94/27/2
f 87/28/2 88/26/2 94/27/2
f 98/29/2 99/31/2 100/30/2
f 97/32/2 98/29/2 100/30/2
f 97/32/2 100/30/2 101/33/2
f 96/34/2 97/32/2 101/33/2
f 96/34/2 101/33/2 102/35/2
f 95/36/2 96/34/2 102/35/2
f 107/37/2 108/39/2 109/38/2
f 107/37/2 109/38/2 110/40/2
f 106/41/2 107/37/2 110/40/2
f 106/41/2 110/40/2 111/42/2
f 105/43/2 106/41/2 111/42/2
f 105/43/2 111/42/2 112/44/2
f 104/45/2 105/43/2 112/44/2
f 104/45/2 112/44/2 103/46/2
f 61/47/2 62/49/2 63/48/2
f 61/47/2 63/48/2 64/50/2
f 60/51/2 61/47/2 64/50/2
f 60/51/2 64/50/2 65/52/2
f 59/53/2 60/51/2 65/52/2
f 59/53/2 65/52/2 66/54/2
f 58/55/2 59/53/2 66/54/2
f 58/55/2 66/54/2 57/56/2
s 1
f 114/57/3 116/58/4 115/59/4 113/56/3
f 116/58/4 118/60/5 117/9/5 115/59/4
f 118/60/5 120/61/6 119/62/6 117/9/5
f 120/61/6 122/63/7 121/17/7 119/62/6
f 122/63/7 124/64/8 123/65/8 121/17/7
f 124/64/8 126/66/9 125/21/9 123/65/8
f 126/66/9 128/67/10 127/68/10 125/21/9
f 128/67/10 130/69/11 129/33/11 127/68/10
f 130/69/11 132/70/12 131/71/12 129/33/11
f 132/70/12 114/72/3 113/44/3 131/71/12
f 134/57/3 136/58/4 135/59/4 133/56/3
f 136/58/4 138/60/5 137/9/5 135/59/4
f 138/60/5 140/61/6 139/62/6 137/9/5
f 140/61/6 142/63/7 141/17/7 139/62/6
f 142/63/7 144/64/8 143/65/8 141/17/7
f 144/64/8 146/66/9 145/21/9 143/65/8
f 146/66/9 148/67/10 147/68/10 145/21/9
f 148/67/10 150/69/11 149/33/11 147/68/10
f 150/69/11 152/70/12 151/71/12 149/33/11
f 152/70/12 134/72/3 133/44/3 151/71/12
f 154/57/13 156/73/5 155/74/5 153/56/13
f 156/73/5 158/75/6 157/76/6 155/74/5
f 158/75/6 160/77/7 159/78/7 157/76/6
f 160/77/7 162/64/14 161/65/14 159/78/7
f 162/64/14 164/79/10 163/80/10 161/65/14
f 164/79/10 166/81/11 165/82/11 163/80/10
f 166/81/11 168/83/12 167/84/12 165/82/11
f 168/83/12 154/72/13 153/44/13 167/84/12
f 170/57/13 172/73/5 171/74/5 169/56/13
f 172/73/5 174/75/6 173/76/6 171/74/5
f 174/75/6 176/77/7 175/78/7 173/76/6
f 176/77/7 178/64/14 177/65/14 175/78/7
f 178/64/14 180/79/10 179/80/10 177/65/14
f 180/79/10 182/81/11 181/82/11 179/80/10
f 182/81/11 184/83/12 183/84/12 181/82/11
f 184/83/12 170/72/13 169/44/13 183/84/12
f 186/57/3 188/58/4 187/59/4 185/56/3
f 188/58/4 190/60/5 189/9/5 187/59/4
f 190/60/5 192/61/6 191/62/6 189/9/5
f 192/61/6 194/63/7 193/17/7 191/62/6
f 194/63/7 196/64/8 195/65/8 193/17/7
f 196/64/8 198/66/9 197/21/9 195/65/8
f 198/66/9 200/67/10 199/68/10 197/21/9
f 200/67/10 202/69/11 201/33/11 199/68/10
f 202/69/11 204/70/12 203/71/12 201/33/11
f 204/70/12 186/72/3 185/44/3 203/71/12
f 206/57/3 208/58/4 207/59/4 205/56/3
f 208/58/4 210/60/5 209/9/5 207/59/4
f 210/60/5 212/61/6 211/62/6 209/9/5
f 212/61/6 214/63/7 213/17/7 211/62/6
f 214/63/7 216/64/8 215/65/8 213/17/7
f 216/64/8 218/66/9 217/21/9 215/65/8
f 218/66/9 220/67/10 219/68/10 217/21/9
f 220/67/10 222/69/11 221/33/11 219/68/10
f 222/69/11 224/70/12 223/71/12 221/33/11
f 224/70/12 206/72/3 205/44/3 223/71/12
