# Blender 4.1.1
# www.blender.org
o .
v -2.400000 0.100000 -0.099999
v -1.800000 0.100000 -0.099999
v -1.728125 0.128125 -0.099999
v -1.700000 0.200000 -0.099999
v -1.728125 0.270312 -0.099999
v -1.800000 0.300000 -0.099999
v -2.400000 0.300000 -0.099999
v -2.470312 0.270312 -0.099999
v -2.500000 0.200000 -0.099999
v -2.470312 0.128125 -0.099999
v 2.400000 0.100000 -0.100001
v 2.471875 0.128125 -0.100001
v 2.500000 0.200000 -0.100001
v 2.471875 0.270312 -0.100001
v 2.400000 0.300000 -0.100001
v 2.329688 0.270312 -0.100001
v 2.300000 0.200000 -0.100001
v 2.329688 0.128125 -0.100001
v 1.200000 0.100000 -0.100000
v 1.800000 0.100000 -0.100001
v 1.871875 0.128125 -0.100001
v 1.900000 0.200000 -0.100001
v 1.871875 0.270312 -0.100001
v 1.800000 0.300000 -0.100001
v 1.200000 0.300000 -0.100000
v 1.129688 0.270312 -0.100000
v 1.100000 0.200000 -0.100000
v 1.129688 0.128125 -0.100000
v 0.600000 0.100000 -0.100000
v 0.671875 0.128125 -0.100000
v 0.700000 0.200000 -0.100000
v 0.671875 0.270312 -0.100000
v 0.600000 0.300000 -0.100000
v 0.529687 0.270312 -0.100000
v 0.500000 0.200000 -0.100000
v 0.529687 0.128125 -0.100000
v -0.600000 0.100000 -0.100000
v -0.000000 0.100000 -0.100000
v 0.071875 0.128125 -0.100000
v 0.100000 0.200000 -0.100000
v 0.071875 0.270312 -0.100000
v -0.000000 0.300000 -0.100000
v -0.600000 0.300000 -0.100000
v -0.670312 0.270312 -0.100000
v -0.700000 0.200000 -0.100000
v -0.670312 0.128125 -0.100000
v -1.200000 0.100000 -0.100000
v -1.128125 0.128125 -0.100000
v -1.100000 0.200000 -0.100000
v -1.128125 0.270312 -0.100000
v -1.200000 0.300000 -0.100000
v -1.270313 0.270312 -0.100000
v -1.300000 0.200000 -0.100000
v -1.270313 0.128125 -0.100000
v -2.400000 0.100000 0.100001
v -1.800000 0.100000 0.100001
v -1.728125 0.128125 0.100001
v -1.700000 0.200000 0.100001
v -1.728125 0.270312 0.100001
v -1.800000 0.300000 0.100001
v -2.400000 0.300000 0.100001
v -2.470312 0.270312 0.100001
v -2.500000 0.200000 0.100001
v -2.470312 0.128125 0.100001
v 2.400000 0.100000 0.099999
v 2.471875 0.128125 0.099999
v 2.500000 0.200000 0.099999
v 2.471875 0.270312 0.099999
v 2.400000 0.300000 0.099999
v 2.329688 0.270312 0.099999
v 2.300000 0.200000 0.099999
v 2.329688 0.128125 0.099999
v 1.200000 0.100000 0.100000
v 1.800000 0.100000 0.099999
v 1.871875 0.128125 0.099999
v 1.900000 0.200000 0.099999
v 1.871875 0.270312 0.099999
v 1.800000 0.300000 0.099999
v 1.200000 0.300000 0.100000
v 1.129688 0.270312 0.100000
v 1.100000 0.200000 0.100000
v 1.129688 0.128125 0.100000
v 0.600000 0.100000 0.100000
v 0.671875 0.128125 0.100000
v 0.700000 0.200000 0.100000
v 0.671875 0.270312 0.100000
v 0.600000 0.300000 0.100000
v 0.529687 0.270312 0.100000
v 0.500000 0.200000 0.100000
v 0.529687 0.128125 0.100000
v -0.600000 0.100000 0.100000
v 0.000000 0.100000 0.100000
v 0.071875 0.128125 0.100000
v 0.100000 0.200000 0.100000
v 0.071875 0.270312 0.100000
v 0.000000 0.300000 0.100000
v -0.600000 0.300000 0.100000
v -0.670312 0.270312 0.100000
v -0.700000 0.200000 0.100000
v -0.670312 0.128125 0.100000
v -1.200000 0.100000 0.100000
v -1.128125 0.128125 0.100000
v -1.100000 0.200000 0.100000
v -1.128125 0.270312 0.100000
v -1.200000 0.300000 0.100000
v -1.270313 0.270312 0.100000
v -1.300000 0.200000 0.100000
v -1.270313 0.128125 0.100000
v 2.400000 0.100000 0.099999
v 2.400000 0.100000 -0.100001
v 2.471875 0.128125 0.099999
v 2.471875 0.128125 -0.100001
v 2.500000 0.200000 0.099999
v 2.500000 0.200000 -0.100001
v 2.471875 0.270312 0.099999
v 2.471875 0.270312 -0.100001
v 2.400000 0.300000 0.099999
v 2.400000 0.300000 -0.100001
v 2.329688 0.270312 0.099999
v 2.329688 0.270312 -0.100001
v 2.300000 0.200000 0.099999
v 2.300000 0.200000 -0.100001
v 2.329688 0.128125 0.099999
v 2.329688 0.128125 -0.100001
v 1.200000 0.100000 0.100000
v 1.200000 0.100000 -0.100000
v 1.800000 0.100000 0.099999
v 1.800000 0.100000 -0.100001
v 1.871875 0.128125 0.099999
v 1.871875 0.128125 -0.100001
v 1.900000 0.200000 0.099999
v 1.900000 0.200000 -0.100001
v 1.871875 0.270312 0.099999
v 1.871875 0.270312 -0.100001
v 1.800000 0.300000 0.099999
v 1.800000 0.300000 -0.100001
v 1.200000 0.300000 0.100000
v 1.200000 0.300000 -0.100000
v 1.129688 0.270312 0.100000
v 1.129688 0.270312 -0.100000
v 1.100000 0.200000 0.100000
v 1.100000 0.200000 -0.100000
v 1.129688 0.128125 0.100000
v 1.129688 0.128125 -0.100000
v 0.600000 0.100000 0.100000
v 0.600000 0.100000 -0.100000
v 0.671875 0.128125 0.100000
v 0.671875 0.128125 -0.100000
v 0.700000 0.200000 0.100000
v 0.700000 0.200000 -0.100000
v 0.671875 0.270312 0.100000
v 0.671875 0.270312 -0.100000
v 0.600000 0.300000 0.100000
v 0.600000 0.300000 -0.100000
v 0.529687 0.270312 0.100000
v 0.529687 0.270312 -0.100000
v 0.500000 0.200000 0.100000
v 0.500000 0.200000 -0.100000
v 0.529687 0.128125 0.100000
v 0.529687 0.128125 -0.100000
v -0.600000 0.100000 0.100000
v -0.600000 0.100000 -0.100000
v 0.000000 0.100000 0.100000
v -0.000000 0.100000 -0.100000
v 0.071875 0.128125 0.100000
v 0.071875 0.128125 -0.100000
v 0.100000 0.200000 0.100000
v 0.100000 0.200000 -0.100000
v 0.071875 0.270312 0.100000
v 0.071875 0.270312 -0.100000
v 0.000000 0.300000 0.100000
v -0.000000 0.300000 -0.100000
v -0.600000 0.300000 0.100000
v -0.600000 0.300000 -0.100000
v -0.670312 0.270312 0.100000
v -0.670312 0.270312 -0.100000
v -0.700000 0.200000 0.100000
v -0.700000 0.200000 -0.100000
v -0.670312 0.128125 0.100000
v -0.670312 0.128125 -0.100000
v -1.200000 0.100000 0.100000
v -1.200000 0.100000 -0.100000
v -1.128125 0.128125 0.100000
v -1.128125 0.128125 -0.100000
v -1.100000 0.200000 0.100000
v -1.100000 0.200000 -0.100000
v -1.128125 0.270312 0.100000
v -1.128125 0.270312 -0.100000
v -1.200000 0.300000 0.100000
v -1.200000 0.300000 -0.100000
v -1.270313 0.270312 0.100000
v -1.270313 0.270312 -0.100000
v -1.300000 0.200000 0.100000
v -1.300000 0.200000 -0.100000
v -1.270313 0.128125 0.100000
v -1.270313 0.128125 -0.100000
v -2.400000 0.100000 0.100001
v -2.400000 0.100000 -0.099999
v -1.800000 0.100000 0.100001
v -1.800000 0.100000 -0.099999
v -1.728125 0.128125 0.100001
v -1.728125 0.128125 -0.099999
v -1.700000 0.200000 0.100001
v -1.700000 0.200000 -0.099999
v -1.728125 0.270312 0.100001
v -1.728125 0.270312 -0.099999
v -1.800000 0.300000 0.100001
v -1.800000 0.300000 -0.099999
v -2.400000 0.300000 0.100001
v -2.400000 0.300000 -0.099999
v -2.470312 0.270312 0.100001
v -2.470312 0.270312 -0.099999
v -2.500000 0.200000 0.100001
v -2.500000 0.200000 -0.099999
v -2.470312 0.128125 0.100001
v -2.470312 0.128125 -0.099999
vn -0.0000 -0.0000 -1.0000
vn -0.0000 -0.0000 1.0000
vn -0.0038 -1.0000 -0.0000
vn 0.7071 -0.7071 -0.0000
vn 1.0000 0.0038 -0.0000
vn 0.7111 0.7031 -0.0000
vn -0.0039 1.0000 -0.0000
vn -0.7071 0.7071 -0.0000
vn -1.0000 0.0039 -0.0000
vn -0.7031 -0.7111 -0.0000
vn -0.1891 -0.9820 -0.0000
vn 0.1854 -0.9827 -0.0000
vn 0.1946 0.9809 -0.0000
vn -0.1984 0.9801 -0.0000
vt 0.245283 0.000000
vt 0.283019 0.000000
vt 0.264151 0.000000
vt 0.226415 0.000000
vt 0.301887 0.000000
vt 0.207547 0.000000
vt 0.320755 0.000000
vt 0.188679 0.000000
vt 0.415094 0.000000
vt 0.452830 0.000000
vt 0.433962 0.000000
vt 0.471698 0.000000
vt 0.396226 0.000000
vt 0.490566 0.000000
vt 0.377358 0.000000
vt 0.509434 0.000000
vt 0.358491 0.000000
vt 0.339623 0.000000
vt 0.584906 0.000000
vt 0.622642 0.000000
vt 0.603774 0.000000
vt 0.566038 0.000000
vt 0.641509 0.000000
vt 0.547170 0.000000
vt 0.660377 0.000000
vt 0.528302 0.000000
vt 0.754717 0.000000
vt 0.792453 0.000000
vt 0.773585 0.000000
vt 0.811321 0.000000
vt 0.735849 0.000000
vt 0.830189 0.000000
vt 0.716981 0.000000
vt 0.849057 0.000000
vt 0.698113 0.000000
vt 0.679245 0.000000
vt 0.924528 0.000000
vt 0.962264 0.000000
vt 0.943396 0.000000
vt 0.905660 0.000000
vt 0.981132 0.000000
vt 0.886792 0.000000
vt 1.000000 0.000000
vt 0.867925 0.000000
vt 0.075472 0.000000
vt 0.113208 0.000000
vt 0.094340 0.000000
vt 0.132075 0.000000
vt 0.056604 0.000000
vt 0.150943 0.000000
vt 0.037736 0.000000
vt 0.169811 0.000000
vt 0.018868 0.000000
vt 0.000000 0.000000
vt 0.000000 1.000000
vt 0.125000 1.000000
vt 0.125000 0.000000
vt 0.250000 1.000000
vt 0.250000 0.000000
vt 0.375000 1.000000
vt 0.375000 0.000000
vt 0.500000 1.000000
vt 0.500000 0.000000
vt 0.625000 1.000000
vt 0.625000 0.000000
vt 0.750000 1.000000
vt 0.750000 0.000000
vt 0.875000 1.000000
vt 0.875000 0.000000
vt 1.000000 1.000000
vt 0.100000 1.000000
vt 0.100000 0.000000
vt 0.200000 1.000000
vt 0.200000 0.000000
vt 0.300000 1.000000
vt 0.300000 0.000000
vt 0.400000 1.000000
vt 0.400000 0.000000
vt 0.600000 1.000000
vt 0.600000 0.000000
vt 0.700000 1.000000
vt 0.700000 0.000000
vt 0.800000 1.000000
vt 0.800000 0.000000
vt 0.900000 1.000000
vt 0.900000 0.000000
s 0
f 14/1/1 16/2/1 15/3/1
f 13/4/1 16/2/1 14/1/1
f 13/4/1 17/5/1 16/2/1
f 12/6/1 17/5/1 13/4/1
f 12/6/1 18/7/1 17/5/1
f 11/8/1 18/7/1 12/6/1
f 23/9/1 25/10/1 24/11/1
f 23/9/1 26/12/1 25/10/1
f 22/13/1 26/12/1 23/9/1
f 22/13/1 27/14/1 26/12/1
f 21/15/1 27/14/1 22/13/1
f 21/15/1 28/16/1 27/14/1
f 20/17/1 28/16/1 21/15/1
f 20/17/1 19/18/1 28/16/1
f 32/19/1 34/20/1 33/21/1
f 31/22/1 34/20/1 32/19/1
f 31/22/1 35/23/1 34/20/1
f 30/24/1 35/23/1 31/22/1
f 30/24/1 36/25/1 35/23/1
f 29/26/1 36/25/1 30/24/1
f 41/27/1 43/28/1 42/29/1
f 41/27/1 44/30/1 43/28/1
f 40/31/1 44/30/1 41/27/1
f 40/31/1 45/32/1 44/30/1
f 39/33/1 45/32/1 40/31/1
f 39/33/1 46/34/1 45/32/1
f 38/35/1 46/34/1 39/33/1
f 38/35/1 37/36/1 46/34/1
f 50/37/1 52/38/1 51/39/1
f 49/40/1 52/38/1 50/37/1
f 49/40/1 53/41/1 52/38/1
f 48/42/1 53/41/1 49/40/1
f 48/42/1 54/43/1 53/41/1
f 47/44/1 54/43/1 48/42/1
f 5/45/1 7/46/1 6/47/1
f 5/45/1 8/48/1 7/46/1
f 4/49/1 8/48/1 5/45/1
f 4/49/1 9/50/1 8/48/1
f 3/51/1 9/50/1 4/49/1
f 3/51/1 10/52/1 9/50/1
f 2/53/1 10/52/1 3/51/1
f 2/53/1 1/54/1 10/52/1
f 68/1/2 69/3/2 70/2/2
f 67/4/2 68/1/2 70/2/2
f 67/4/2 70/2/2 71/5/2
f 66/6/2 67/4/2 71/5/2
f 66/6/2 71/5/2 72/7/2
f 65/8/2 66/6/2 72/7/2
f 77/9/2 78/11/2 79/10/2
f 77/9/2 79/10/2 80/12/2
f 76/13/2 77/9/2 80/12/2
f 76/13/2 80/12/2 81/14/2
f 75/15/2 76/13/2 81/14/2
f 75/15/2 81/14/2 82/16/2
f 74/17/2 75/15/2 82/16/2
f 74/17/2 82/16/2 73/18/2
f 86/19/2 87/21/2 88/20/2
f 85/22/2 86/19/2 88/20/2
f 85/22/2 88/20/2 89/23/2
f 84/24/2 85/22/2 89/23/2
f 84/24/2 89/23/2 90/25/2
f 83/26/2 84/24/2 90/25/2
f 95/27/2 96/29/2 97/28/2
f 95/27/2 97/28/2 98/30/2
f 94/31/2 95/27/2 98/30/2
f 94/31/2 98/30/2 99/32/2
f 93/33/2 94/31/2 99/32/2
f 93/33/2 99/32/2 100/34/2
f 92/35/2 93/33/2 100/34/2
f 92/35/2 100/34/2 91/36/2
f 104/37/2 105/39/2 106/38/2
f 103/40/2 104/37/2 106/38/2
f 103/40/2 106/38/2 107/41/2
f 102/42/2 103/40/2 107/41/2
f 102/42/2 107/41/2 108/43/2
f 101/44/2 102/42/2 108/43/2
f 59/45/2 60/47/2 61/46/2
f 59/45/2 61/46/2 62/48/2
f 58/49/2 59/45/2 62/48/2
f 58/49/2 62/48/2 63/50/2
f 57/51/2 58/49/2 63/50/2
f 57/51/2 63/50/2 64/52/2
f 56/53/2 57/51/2 64/52/2
f 56/53/2 64/52/2 55/54/2
s 1
f 110/55/3 112/56/4 111/57/4 109/54/3
f 112/56/4 114/58/5 113/59/5 111/57/4
f 114/58/5 116/60/6 115/61/6 113/59/5
f 116/60/6 118/62/7 117/63/7 115/61/6
f 118/62/7 120/64/8 119/65/8 117/63/7
f 120/64/8 122/66/9 121/67/9 119/65/8
f 122/66/9 124/68/10 123/69/10 121/67/9
f 124/68/10 110/70/3 109/43/3 123/69/10
f 126/55/11 128/71/12 127/72/12 125/54/11
f 128/71/12 130/73/4 129/74/4 127/72/12
f 130/73/4 132/75/5 131/76/5 129/74/4
f 132/75/5 134/77/6 133/78/6 131/76/5
f 134/77/6 136/62/13 135/63/13 133/78/6
f 136/62/13 138/79/14 137/80/14 135/63/13
f 138/79/14 140/81/8 139/82/8 137/80/14
f 140/81/8 142/83/9 141/84/9 139/82/8
f 142/83/9 144/85/10 143/86/10 141/84/9
f 144/85/10 126/70/11 125/43/11 143/86/10
f 146/55/3 148/56/4 147/57/4 145/54/3
f 148/56/4 150/58/5 149/59/5 147/57/4
f 150/58/5 152/60/6 151/61/6 149/59/5
f 152/60/6 154/62/7 153/63/7 151/61/6
f 154/62/7 156/64/8 155/65/8 153/63/7
f 156/64/8 158/66/9 157/67/9 155/65/8
f 158/66/9 160/68/10 159/69/10 157/67/9
f 160/68/10 146/70/3 145/43/3 159/69/10
f 162/55/11 164/71/12 163/72/12 161/54/11
f 164/71/12 166/73/4 165/74/4 163/72/12
f 166/73/4 168/75/5 167/76/5 165/74/4
f 168/75/5 170/77/6 169/78/6 167/76/5
f 170/77/6 172/62/13 171/63/13 169/78/6
f 172/62/13 174/79/14 173/80/14 171/63/13
f 174/79/14 176/81/8 175/82/8 173/80/14
f 176/81/8 178/83/9 177/84/9 175/82/8
f 178/83/9 180/85/10 179/86/10 177/84/9
f 180/85/10 162/70/11 161/43/11 179/86/10
f 182/55/3 184/56/4 183/57/4 181/54/3
f 184/56/4 186/58/5 185/59/5 183/57/4
f 186/58/5 188/60/6 187/61/6 185/59/5
f 188/60/6 190/62/7 189/63/7 187/61/6
f 190/62/7 192/64/8 191/65/8 189/63/7
f 192/64/8 194/66/9 193/67/9 191/65/8
f 194/66/9 196/68/10 195/69/10 193/67/9
f 196/68/10 182/70/3 181/43/3 195/69/10
f 198/55/11 200/71/12 199/72/12 197/54/11
f 200/71/12 202/73/4 201/74/4 199/72/12
f 202/73/4 204/75/5 203/76/5 201/74/4
f 204/75/5 206/77/6 205/78/6 203/76/5
f 206/77/6 208/62/13 207/63/13 205/78/6
f 208/62/13 210/79/14 209/80/14 207/63/13
f 210/79/14 212/81/8 211/82/8 209/80/14
f 212/81/8 214/83/9 213/84/9 211/82/8
f 214/83/9 216/85/10 215/86/10 213/84/9
f 216/85/10 198/70/11 197/43/11 215/86/10
