# Blender 4.1.1
# www.blender.org
o 0
v -2.700000 0.100000 -0.099999
v -2.100000 0.100000 -0.099999
v -2.028125 0.128125 -0.099999
v -2.000000 0.200000 -0.099999
v -2.028125 0.270312 -0.099999
v -2.100000 0.300000 -0.099999
v -2.700000 0.300000 -0.099999
v -2.770313 0.270312 -0.099999
v -2.800000 0.200000 -0.099999
v -2.770313 0.128125 -0.099999
v 2.100000 0.100000 -0.100001
v 2.700000 0.100000 -0.100001
v 2.771875 0.128125 -0.100001
v 2.800000 0.200000 -0.100001
v 2.771875 0.270312 -0.100001
v 2.700000 0.300000 -0.100001
v 2.100000 0.300000 -0.100001
v 2.029687 0.270312 -0.100001
v 2.000000 0.200000 -0.100001
v 2.029687 0.128125 -0.100001
v 0.900000 0.100000 -0.100000
v 1.500000 0.100000 -0.100000
v 1.571875 0.128125 -0.100001
v 1.600000 0.200000 -0.100001
v 1.571875 0.270312 -0.100001
v 1.500000 0.300000 -0.100001
v 0.900000 0.300000 -0.100000
v 0.829687 0.270312 -0.100000
v 0.800000 0.200000 -0.100000
v 0.829687 0.128125 -0.100000
v -0.300000 0.100000 -0.100000
v 0.300000 0.100000 -0.100000
v 0.371875 0.128125 -0.100000
v 0.400000 0.200000 -0.100000
v 0.371875 0.270312 -0.100000
v 0.300000 0.300000 -0.100000
v -0.300000 0.300000 -0.100000
v -0.370312 0.270312 -0.100000
v -0.400000 0.200000 -0.100000
v -0.370312 0.128125 -0.100000
v -1.500000 0.100000 -0.100000
v -0.900000 0.100000 -0.100000
v -0.828125 0.128125 -0.100000
v -0.800000 0.200000 -0.100000
v -0.828125 0.270312 -0.100000
v -0.900000 0.300000 -0.100000
v -1.500000 0.300000 -0.100000
v -1.570312 0.270312 -0.100000
v -1.600000 0.200000 -0.099999
v -1.570312 0.128125 -0.099999
v -2.700000 0.100000 0.100001
v -2.100000 0.100000 0.100001
v -2.028125 0.128125 0.100001
v -2.000000 0.200000 0.100001
v -2.028125 0.270312 0.100001
v -2.100000 0.300000 0.100001
v -2.700000 0.300000 0.100001
v -2.770313 0.270312 0.100001
v -2.800000 0.200000 0.100001
v -2.770313 0.128125 0.100001
v 2.100000 0.100000 0.099999
v 2.700000 0.100000 0.099999
v 2.771875 0.128125 0.099999
v 2.800000 0.200000 0.099999
v 2.771875 0.270312 0.099999
v 2.700000 0.300000 0.099999
v 2.100000 0.300000 0.099999
v 2.029687 0.270312 0.099999
v 2.000000 0.200000 0.099999
v 2.029687 0.128125 0.099999
v 0.900000 0.100000 0.100000
v 1.500000 0.100000 0.100000
v 1.571875 0.128125 0.099999
v 1.600000 0.200000 0.099999
v 1.571875 0.270312 0.099999
v 1.500000 0.300000 0.100000
v 0.900000 0.300000 0.100000
v 0.829687 0.270312 0.100000
v 0.800000 0.200000 0.100000
v 0.829687 0.128125 0.100000
v -0.300000 0.100000 0.100000
v 0.300000 0.100000 0.100000
v 0.371875 0.128125 0.100000
v 0.400000 0.200000 0.100000
v 0.371875 0.270312 0.100000
v 0.300000 0.300000 0.100000
v -0.300000 0.300000 0.100000
v -0.370312 0.270312 0.100000
v -0.400000 0.200000 0.100000
v -0.370312 0.128125 0.100000
v -1.500000 0.100000 0.100000
v -0.900000 0.100000 0.100000
v -0.828125 0.128125 0.100000
v -0.800000 0.200000 0.100000
v -0.828125 0.270312 0.100000
v -0.900000 0.300000 0.100000
v -1.500000 0.300000 0.100000
v -1.570312 0.270312 0.100001
v -1.600000 0.200000 0.100001
v -1.570312 0.128125 0.100001
v 2.100000 0.100000 0.099999
v 2.100000 0.100000 -0.100001
v 2.700000 0.100000 0.099999
v 2.700000 0.100000 -0.100001
v 2.771875 0.128125 0.099999
v 2.771875 0.128125 -0.100001
v 2.800000 0.200000 0.099999
v 2.800000 0.200000 -0.100001
v 2.771875 0.270312 0.099999
v 2.771875 0.270312 -0.100001
v 2.700000 0.300000 0.099999
v 2.700000 0.300000 -0.100001
v 2.100000 0.300000 0.099999
v 2.100000 0.300000 -0.100001
v 2.029687 0.270312 0.099999
v 2.029687 0.270312 -0.100001
v 2.000000 0.200000 0.099999
v 2.000000 0.200000 -0.100001
v 2.029687 0.128125 0.099999
v 2.029687 0.128125 -0.100001
v 0.900000 0.100000 0.100000
v 0.900000 0.100000 -0.100000
v 1.500000 0.100000 0.100000
v 1.500000 0.100000 -0.100000
v 1.571875 0.128125 0.099999
v 1.571875 0.128125 -0.100001
v 1.600000 0.200000 0.099999
v 1.600000 0.200000 -0.100001
v 1.571875 0.270312 0.099999
v 1.571875 0.270312 -0.100001
v 1.500000 0.300000 0.100000
v 1.500000 0.300000 -0.100001
v 0.900000 0.300000 0.100000
v 0.900000 0.300000 -0.100000
v 0.829687 0.270312 0.100000
v 0.829687 0.270312 -0.100000
v 0.800000 0.200000 0.100000
v 0.800000 0.200000 -0.100000
v 0.829687 0.128125 0.100000
v 0.829687 0.128125 -0.100000
v -0.300000 0.100000 0.100000
v -0.300000 0.100000 -0.100000
v 0.300000 0.100000 0.100000
v 0.300000 0.100000 -0.100000
v 0.371875 0.128125 0.100000
v 0.371875 0.128125 -0.100000
v 0.400000 0.200000 0.100000
v 0.400000 0.200000 -0.100000
v 0.371875 0.270312 0.100000
v 0.371875 0.270312 -0.100000
v 0.300000 0.300000 0.100000
v 0.300000 0.300000 -0.100000
v -0.300000 0.300000 0.100000
v -0.300000 0.300000 -0.100000
v -0.370312 0.270312 0.100000
v -0.370312 0.270312 -0.100000
v -0.400000 0.200000 0.100000
v -0.400000 0.200000 -0.100000
v -0.370312 0.128125 0.100000
v -0.370312 0.128125 -0.100000
v -1.500000 0.100000 0.100000
v -1.500000 0.100000 -0.100000
v -0.900000 0.100000 0.100000
v -0.900000 0.100000 -0.100000
v -0.828125 0.128125 0.100000
v -0.828125 0.128125 -0.100000
v -0.800000 0.200000 0.100000
v -0.800000 0.200000 -0.100000
v -0.828125 0.270312 0.100000
v -0.828125 0.270312 -0.100000
v -0.900000 0.300000 0.100000
v -0.900000 0.300000 -0.100000
v -1.500000 0.300000 0.100000
v -1.500000 0.300000 -0.100000
v -1.570312 0.270312 0.100001
v -1.570312 0.270312 -0.100000
v -1.600000 0.200000 0.100001
v -1.600000 0.200000 -0.099999
v -1.570312 0.128125 0.100001
v -1.570312 0.128125 -0.099999
v -2.700000 0.100000 0.100001
v -2.700000 0.100000 -0.099999
v -2.100000 0.100000 0.100001
v -2.100000 0.100000 -0.099999
v -2.028125 0.128125 0.100001
v -2.028125 0.128125 -0.099999
v -2.000000 0.200000 0.100001
v -2.000000 0.200000 -0.099999
v -2.028125 0.270312 0.100001
v -2.028125 0.270312 -0.099999
v -2.100000 0.300000 0.100001
v -2.100000 0.300000 -0.099999
v -2.700000 0.300000 0.100001
v -2.700000 0.300000 -0.099999
v -2.770313 0.270312 0.100001
v -2.770313 0.270312 -0.099999
v -2.800000 0.200000 0.100001
v -2.800000 0.200000 -0.099999
v -2.770313 0.128125 0.100001
v -2.770313 0.128125 -0.099999
vn -0.0000 -0.0000 -1.0000
vn -0.0000 -0.0000 1.0000
vn -0.1891 -0.9820 -0.0000
vn 0.1854 -0.9827 -0.0000
vn 0.7071 -0.7071 -0.0000
vn 1.0000 0.0038 -0.0000
vn 0.7111 0.7031 -0.0000
vn 0.1946 0.9809 -0.0000
vn -0.1984 0.9801 -0.0000
vn -0.7071 0.7071 -0.0000
vn -1.0000 0.0039 -0.0000
vn -0.7031 -0.7111 -0.0000
vt 0.285714 0.000000
vt 0.326531 0.000000
vt 0.306122 0.000000
vt 0.346939 0.000000
vt 0.265306 0.000000
vt 0.367347 0.000000
vt 0.244898 0.000000
vt 0.387755 0.000000
vt 0.224490 0.000000
vt 0.204082 0.000000
vt 0.489796 0.000000
vt 0.530612 0.000000
vt 0.510204 0.000000
vt 0.551020 0.000000
vt 0.469388 0.000000
vt 0.571429 0.000000
vt 0.448980 0.000000
vt 0.591837 0.000000
vt 0.428571 0.000000
vt 0.408163 0.000000
vt 0.693878 0.000000
vt 0.734694 0.000000
vt 0.714286 0.000000
vt 0.755102 0.000000
vt 0.673469 0.000000
vt 0.775510 0.000000
vt 0.653061 0.000000
vt 0.795918 0.000000
vt 0.632653 0.000000
vt 0.612245 0.000000
vt 0.897959 0.000000
vt 0.938776 0.000000
vt 0.918367 0.000000
vt 0.959184 0.000000
vt 0.877551 0.000000
vt 0.979592 0.000000
vt 0.857143 0.000000
vt 1.000000 0.000000
vt 0.836735 0.000000
vt 0.816327 0.000000
vt 0.081633 0.000000
vt 0.122449 0.000000
vt 0.102041 0.000000
vt 0.142857 0.000000
vt 0.061224 0.000000
vt 0.163265 0.000000
vt 0.040816 0.000000
vt 0.183673 0.000000
vt 0.020408 0.000000
vt 0.000000 0.000000
vt 0.000000 1.000000
vt 0.100000 1.000000
vt 0.100000 0.000000
vt 0.200000 1.000000
vt 0.200000 0.000000
vt 0.300000 1.000000
vt 0.300000 0.000000
vt 0.400000 1.000000
vt 0.400000 0.000000
vt 0.500000 1.000000
vt 0.500000 0.000000
vt 0.600000 1.000000
vt 0.600000 0.000000
vt 0.700000 1.000000
vt 0.700000 0.000000
vt 0.800000 1.000000
vt 0.800000 0.000000
vt 0.900000 1.000000
vt 0.900000 0.000000
vt 1.000000 1.000000
s 0
f 15/1/1 17/2/1 16/3/1
f 15/1/1 18/4/1 17/2/1
f 14/5/1 18/4/1 15/1/1
f 14/5/1 19/6/1 18/4/1
f 13/7/1 19/6/1 14/5/1
f 13/7/1 20/8/1 19/6/1
f 12/9/1 20/8/1 13/7/1
f 12/9/1 11/10/1 20/8/1
f 25/11/1 27/12/1 26/13/1
f 25/11/1 28/14/1 27/12/1
f 24/15/1 28/14/1 25/11/1
f 24/15/1 29/16/1 28/14/1
f 23/17/1 29/16/1 24/15/1
f 23/17/1 30/18/1 29/16/1
f 22/19/1 30/18/1 23/17/1
f 22/19/1 21/20/1 30/18/1
f 35/21/1 37/22/1 36/23/1
f 35/21/1 38/24/1 37/22/1
f 34/25/1 38/24/1 35/21/1
f 34/25/1 39/26/1 38/24/1
f 33/27/1 39/26/1 34/25/1
f 33/27/1 40/28/1 39/26/1
f 32/29/1 40/28/1 33/27/1
f 32/29/1 31/30/1 40/28/1
f 45/31/1 47/32/1 46/33/1
f 45/31/1 48/34/1 47/32/1
f 44/35/1 48/34/1 45/31/1
f 44/35/1 49/36/1 48/34/1
f 43/37/1 49/36/1 44/35/1
f 43/37/1 50/38/1 49/36/1
f 42/39/1 50/38/1 43/37/1
f 42/39/1 41/40/1 50/38/1
f 5/41/1 7/42/1 6/43/1
f 5/41/1 8/44/1 7/42/1
f 4/45/1 8/44/1 5/41/1
f 4/45/1 9/46/1 8/44/1
f 3/47/1 9/46/1 4/45/1
f 3/47/1 10/48/1 9/46/1
f 2/49/1 10/48/1 3/47/1
f 2/49/1 1/50/1 10/48/1
f 65/1/2 66/3/2 67/2/2
f 65/1/2 67/2/2 68/4/2
f 64/5/2 65/1/2 68/4/2
f 64/5/2 68/4/2 69/6/2
f 63/7/2 64/5/2 69/6/2
f 63/7/2 69/6/2 70/8/2
f 62/9/2 63/7/2 70/8/2
f 62/9/2 70/8/2 61/10/2
f 75/11/2 76/13/2 77/12/2
f 75/11/2 77/12/2 78/14/2
f 74/15/2 75/11/2 78/14/2
f 74/15/2 78/14/2 79/16/2
f 73/17/2 74/15/2 79/16/2
f 73/17/2 79/16/2 80/18/2
f 72/19/2 73/17/2 80/18/2
f 72/19/2 80/18/2 71/20/2
f 85/21/2 86/23/2 87/22/2
f 85/21/2 87/22/2 88/24/2
f 84/25/2 85/21/2 88/24/2
f 84/25/2 88/24/2 89/26/2
f 83/27/2 84/25/2 89/26/2
f 83/27/2 89/26/2 90/28/2
f 82/29/2 83/27/2 90/28/2
f 82/29/2 90/28/2 81/30/2
f 95/31/2 96/33/2 97/32/2
f 95/31/2 97/32/2 98/34/2
f 94/35/2 95/31/2 98/34/2
f 94/35/2 98/34/2 99/36/2
f 93/37/2 94/35/2 99/36/2
f 93/37/2 99/36/2 100/38/2
f 92/39/2 93/37/2 100/38/2
f 92/39/2 100/38/2 91/40/2
f 55/41/2 56/43/2 57/42/2
f 55/41/2 57/42/2 58/44/2
f 54/45/2 55/41/2 58/44/2
f 54/45/2 58/44/2 59/46/2
f 53/47/2 54/45/2 59/46/2
f 53/47/2 59/46/2 60/48/2
f 52/49/2 53/47/2 60/48/2
f 52/49/2 60/48/2 51/50/2
s 1
f 102/51/3 104/52/4 103/53/4 101/50/3
f 104/52/4 106/54/5 105/55/5 103/53/4
f 106/54/5 108/56/6 107/57/6 105/55/5
f 108/56/6 110/58/7 109/59/7 107/57/6
f 110/58/7 112/60/8 111/61/8 109/59/7
f 112/60/8 114/62/9 113/63/9 111/61/8
f 114/62/9 116/64/10 115/65/10 113/63/9
f 116/64/10 118/66/11 117/67/11 115/65/10
f 118/66/11 120/68/12 119/69/12 117/67/11
f 120/68/12 102/70/3 101/38/3 119/69/12
f 122/51/3 124/52/4 123/53/4 121/50/3
f 124/52/4 126/54/5 125/55/5 123/53/4
f 126/54/5 128/56/6 127/57/6 125/55/5
f 128/56/6 130/58/7 129/59/7 127/57/6
f 130/58/7 132/60/8 131/61/8 129/59/7
f 132/60/8 134/62/9 133/63/9 131/61/8
f 134/62/9 136/64/10 135/65/10 133/63/9
f 136/64/10 138/66/11 137/67/11 135/65/10
f 138/66/11 140/68/12 139/69/12 137/67/11
f 140/68/12 122/70/3 121/38/3 139/69/12
f 142/51/3 144/52/4 143/53/4 141/50/3
f 144/52/4 146/54/5 145/55/5 143/53/4
f 146/54/5 148/56/6 147/57/6 145/55/5
f 148/56/6 150/58/7 149/59/7 147/57/6
f 150/58/7 152/60/8 151/61/8 149/59/7
f 152/60/8 154/62/9 153/63/9 151/61/8
f 154/62/9 156/64/10 155/65/10 153/63/9
f 156/64/10 158/66/11 157/67/11 155/65/10
f 158/66/11 160/68/12 159/69/12 157/67/11
f 160/68/12 142/70/3 141/38/3 159/69/12
f 162/51/3 164/52/4 163/53/4 161/50/3
f 164/52/4 166/54/5 165/55/5 163/53/4
f 166/54/5 168/56/6 167/57/6 165/55/5
f 168/56/6 170/58/7 169/59/7 167/57/6
f 170/58/7 172/60/8 171/61/8 169/59/7
f 172/60/8 174/62/9 173/63/9 171/61/8
f 174/62/9 176/64/10 175/65/10 173/63/9
f 176/64/10 178/66/11 177/67/11 175/65/10
f 178/66/11 180/68/12 179/69/12 177/67/11
f 180/68/12 162/70/3 161/38/3 179/69/12
f 182/51/3 184/52/4 183/53/4 181/50/3
f 184/52/4 186/54/5 185/55/5 183/53/4
f 186/54/5 188/56/6 187/57/6 185/55/5
f 188/56/6 190/58/7 189/59/7 187/57/6
f 190/58/7 192/60/8 191/61/8 189/59/7
f 192/60/8 194/62/9 193/63/9 191/61/8
f 194/62/9 196/64/10 195/65/10 193/63/9
f 196/64/10 198/66/11 197/67/11 195/65/10
f 198/66/11 200/68/12 199/69/12 197/67/11
f 200/68/12 182/70/3 181/38/3 199/69/12
