# Blender 4.1.1
# www.blender.org
o 3
v -1.800000 0.100000 -0.099999
v -1.200000 0.100000 -0.100000
v -1.128125 0.128125 -0.100000
v -1.100000 0.200000 -0.100000
v -1.128125 0.270312 -0.100000
v -1.200000 0.300000 -0.100000
v -1.800000 0.300000 -0.099999
v -1.870312 0.270312 -0.099999
v -1.900000 0.200000 -0.099999
v -1.870312 0.128125 -0.099999
v 1.800000 0.100000 -0.100001
v 1.871875 0.128125 -0.100001
v 1.900000 0.200000 -0.100001
v 1.871875 0.270312 -0.100001
v 1.800000 0.300000 -0.100001
v 1.729688 0.270312 -0.100001
v 1.700000 0.200000 -0.100001
v 1.729688 0.128125 -0.100001
v 1.200000 0.100000 -0.100000
v 1.271875 0.128125 -0.100000
v 1.300000 0.200000 -0.100000
v 1.271875 0.270312 -0.100000
v 1.200000 0.300000 -0.100000
v 1.129688 0.270312 -0.100000
v 1.100000 0.200000 -0.100000
v 1.129688 0.128125 -0.100000
v 0.600000 0.100000 -0.100000
v 0.671875 0.128125 -0.100000
v 0.700000 0.200000 -0.100000
v 0.671875 0.270312 -0.100000
v 0.600000 0.300000 -0.100000
v 0.529688 0.270312 -0.100000
v 0.500000 0.200000 -0.100000
v 0.529688 0.128125 -0.100000
v -0.600000 0.100000 -0.100000
v -0.000000 0.100000 -0.100000
v 0.071875 0.128125 -0.100000
v 0.100000 0.200000 -0.100000
v 0.071875 0.270312 -0.100000
v -0.000000 0.300000 -0.100000
v -0.600000 0.300000 -0.100000
v -0.670312 0.270312 -0.100000
v -0.700000 0.200000 -0.100000
v -0.670312 0.128125 -0.100000
v -1.800000 0.100000 0.100001
v -1.200000 0.100000 0.100000
v -1.128125 0.128125 0.100000
v -1.100000 0.200000 0.100000
v -1.128125 0.270312 0.100000
v -1.200000 0.300000 0.100000
v -1.800000 0.300000 0.100001
v -1.870312 0.270312 0.100001
v -1.900000 0.200000 0.100001
v -1.870312 0.128125 0.100001
v 1.800000 0.100000 0.099999
v 1.871875 0.128125 0.099999
v 1.900000 0.200000 0.099999
v 1.871875 0.270312 0.099999
v 1.800000 0.300000 0.099999
v 1.729688 0.270312 0.099999
v 1.700000 0.200000 0.099999
v 1.729688 0.128125 0.099999
v 1.200000 0.100000 0.100000
v 1.271875 0.128125 0.100000
v 1.300000 0.200000 0.100000
v 1.271875 0.270312 0.100000
v 1.200000 0.300000 0.100000
v 1.129688 0.270312 0.100000
v 1.100000 0.200000 0.100000
v 1.129688 0.128125 0.100000
v 0.600000 0.100000 0.100000
v 0.671875 0.128125 0.100000
v 0.700000 0.200000 0.100000
v 0.671875 0.270312 0.100000
v 0.600000 0.300000 0.100000
v 0.529688 0.270312 0.100000
v 0.500000 0.200000 0.100000
v 0.529688 0.128125 0.100000
v -0.600000 0.100000 0.100000
v 0.000000 0.100000 0.100000
v 0.071875 0.128125 0.100000
v 0.100000 0.200000 0.100000
v 0.071875 0.270312 0.100000
v 0.000000 0.300000 0.100000
v -0.600000 0.300000 0.100000
v -0.670312 0.270312 0.100000
v -0.700000 0.200000 0.100000
v -0.670312 0.128125 0.100000
v 1.800000 0.100000 0.099999
v 1.800000 0.100000 -0.100001
v 1.871875 0.128125 0.099999
v 1.871875 0.128125 -0.100001
v 1.900000 0.200000 0.099999
v 1.900000 0.200000 -0.100001
v 1.871875 0.270312 0.099999
v 1.871875 0.270312 -0.100001
v 1.800000 0.300000 0.099999
v 1.800000 0.300000 -0.100001
v 1.729688 0.270312 0.099999
v 1.729688 0.270312 -0.100001
v 1.700000 0.200000 0.099999
v 1.700000 0.200000 -0.100001
v 1.729688 0.128125 0.099999
v 1.729688 0.128125 -0.100001
v 1.200000 0.100000 0.100000
v 1.200000 0.100000 -0.100000
v 1.271875 0.128125 0.100000
v 1.271875 0.128125 -0.100000
v 1.300000 0.200000 0.100000
v 1.300000 0.200000 -0.100000
v 1.271875 0.270312 0.100000
v 1.271875 0.270312 -0.100000
v 1.200000 0.300000 0.100000
v 1.200000 0.300000 -0.100000
v 1.129688 0.270312 0.100000
v 1.129688 0.270312 -0.100000
v 1.100000 0.200000 0.100000
v 1.100000 0.200000 -0.100000
v 1.129688 0.128125 0.100000
v 1.129688 0.128125 -0.100000
v 0.600000 0.100000 0.100000
v 0.600000 0.100000 -0.100000
v 0.671875 0.128125 0.100000
v 0.671875 0.128125 -0.100000
v 0.700000 0.200000 0.100000
v 0.700000 0.200000 -0.100000
v 0.671875 0.270312 0.100000
v 0.671875 0.270312 -0.100000
v 0.600000 0.300000 0.100000
v 0.600000 0.300000 -0.100000
v 0.529688 0.270312 0.100000
v 0.529688 0.270312 -0.100000
v 0.500000 0.200000 0.100000
v 0.500000 0.200000 -0.100000
v 0.529688 0.128125 0.100000
v 0.529688 0.128125 -0.100000
v -0.600000 0.100000 0.100000
v -0.600000 0.100000 -0.100000
v 0.000000 0.100000 0.100000
v -0.000000 0.100000 -0.100000
v 0.071875 0.128125 0.100000
v 0.071875 0.128125 -0.100000
v 0.100000 0.200000 0.100000
v 0.100000 0.200000 -0.100000
v 0.071875 0.270312 0.100000
v 0.071875 0.270312 -0.100000
v 0.000000 0.300000 0.100000
v -0.000000 0.300000 -0.100000
v -0.600000 0.300000 0.100000
v -0.600000 0.300000 -0.100000
v -0.670312 0.270312 0.100000
v -0.670312 0.270312 -0.100000
v -0.700000 0.200000 0.100000
v -0.700000 0.200000 -0.100000
v -0.670312 0.128125 0.100000
v -0.670312 0.128125 -0.100000
v -1.800000 0.100000 0.100001
v -1.800000 0.100000 -0.099999
v -1.200000 0.100000 0.100000
v -1.200000 0.100000 -0.100000
v -1.128125 0.128125 0.100000
v -1.128125 0.128125 -0.100000
v -1.100000 0.200000 0.100000
v -1.100000 0.200000 -0.100000
v -1.128125 0.270312 0.100000
v -1.128125 0.270312 -0.100000
v -1.200000 0.300000 0.100000
v -1.200000 0.300000 -0.100000
v -1.800000 0.300000 0.100001
v -1.800000 0.300000 -0.099999
v -1.870312 0.270312 0.100001
v -1.870312 0.270312 -0.099999
v -1.900000 0.200000 0.100001
v -1.900000 0.200000 -0.099999
v -1.870312 0.128125 0.100001
v -1.870312 0.128125 -0.099999
vn -0.0000 -0.0000 -1.0000
vn -0.0000 -0.0000 1.0000
vn -0.0038 -1.0000 -0.0000
vn 0.7071 -0.7071 -0.0000
vn 1.0000 0.0038 -0.0000
vn 0.7111 0.7031 -0.0000
vn -0.0039 1.0000 -0.0000
vn -0.7071 0.7071 -0.0000
vn -1.0000 0.0039 -0.0000
vn -0.7031 -0.7111 -0.0000
vn -0.1891 -0.9820 -0.0000
vn 0.1854 -0.9827 -0.0000
vn 0.1946 0.9809 -0.0000
vn -0.1984 0.9801 -0.0000
vt 0.302326 0.000000
vt 0.348837 0.000000
vt 0.325581 0.000000
vt 0.279070 0.000000
vt 0.372093 0.000000
vt 0.255814 0.000000
vt 0.395349 0.000000
vt 0.232558 0.000000
vt 0.488372 0.000000
vt 0.534884 0.000000
vt 0.511628 0.000000
vt 0.465116 0.000000
vt 0.558140 0.000000
vt 0.441860 0.000000
vt 0.581395 0.000000
vt 0.418605 0.000000
vt 0.674419 0.000000
vt 0.720930 0.000000
vt 0.697674 0.000000
vt 0.651163 0.000000
vt 0.744186 0.000000
vt 0.627907 0.000000
vt 0.767442 0.000000
vt 0.604651 0.000000
vt 0.883721 0.000000
vt 0.930233 0.000000
vt 0.906977 0.000000
vt 0.953488 0.000000
vt 0.860465 0.000000
vt 0.976744 0.000000
vt 0.837209 0.000000
vt 1.000000 0.000000
vt 0.813953 0.000000
vt 0.790698 0.000000
vt 0.093023 0.000000
vt 0.139535 0.000000
vt 0.116279 0.000000
vt 0.162791 0.000000
vt 0.069767 0.000000
vt 0.186047 0.000000
vt 0.046512 0.000000
vt 0.209302 0.000000
vt 0.023256 0.000000
vt 0.000000 0.000000
vt 0.000000 1.000000
vt 0.125000 1.000000
vt 0.125000 0.000000
vt 0.250000 1.000000
vt 0.250000 0.000000
vt 0.375000 1.000000
vt 0.375000 0.000000
vt 0.500000 1.000000
vt 0.500000 0.000000
vt 0.625000 1.000000
vt 0.625000 0.000000
vt 0.750000 1.000000
vt 0.750000 0.000000
vt 0.875000 1.000000
vt 0.875000 0.000000
vt 1.000000 1.000000
vt 0.100000 1.000000
vt 0.100000 0.000000
vt 0.200000 1.000000
vt 0.200000 0.000000
vt 0.300000 1.000000
vt 0.300000 0.000000
vt 0.400000 1.000000
vt 0.400000 0.000000
vt 0.600000 1.000000
vt 0.600000 0.000000
vt 0.700000 1.000000
vt 0.700000 0.000000
vt 0.800000 1.000000
vt 0.800000 0.000000
vt 0.900000 1.000000
vt 0.900000 0.000000
s 0
f 14/1/1 16/2/1 15/3/1
f 13/4/1 16/2/1 14/1/1
f 13/4/1 17/5/1 16/2/1
f 12/6/1 17/5/1 13/4/1
f 12/6/1 18/7/1 17/5/1
f 11/8/1 18/7/1 12/6/1
f 22/9/1 24/10/1 23/11/1
f 21/12/1 24/10/1 22/9/1
f 21/12/1 25/13/1 24/10/1
f 20/14/1 25/13/1 21/12/1
f 20/14/1 26/15/1 25/13/1
f 19/16/1 26/15/1 20/14/1
f 30/17/1 32/18/1 31/19/1
f 29/20/1 32/18/1 30/17/1
f 29/20/1 33/21/1 32/18/1
f 28/22/1 33/21/1 29/20/1
f 28/22/1 34/23/1 33/21/1
f 27/24/1 34/23/1 28/22/1
f 39/25/1 41/26/1 40/27/1
f 39/25/1 42/28/1 41/26/1
f 38/29/1 42/28/1 39/25/1
f 38/29/1 43/30/1 42/28/1
f 37/31/1 43/30/1 38/29/1
f 37/31/1 44/32/1 43/30/1
f 36/33/1 44/32/1 37/31/1
f 36/33/1 35/34/1 44/32/1
f 5/35/1 7/36/1 6/37/1
f 5/35/1 8/38/1 7/36/1
f 4/39/1 8/38/1 5/35/1
f 4/39/1 9/40/1 8/38/1
f 3/41/1 9/40/1 4/39/1
f 3/41/1 10/42/1 9/40/1
f 2/43/1 10/42/1 3/41/1
f 2/43/1 1/44/1 10/42/1
f 58/1/2 59/3/2 60/2/2
f 57/4/2 58/1/2 60/2/2
f 57/4/2 60/2/2 61/5/2
f 56/6/2 57/4/2 61/5/2
f 56/6/2 61/5/2 62/7/2
f 55/8/2 56/6/2 62/7/2
f 66/9/2 67/11/2 68/10/2
f 65/12/2 66/9/2 68/10/2
f 65/12/2 68/10/2 69/13/2
f 64/14/2 65/12/2 69/13/2
f 64/14/2 69/13/2 70/15/2
f 63/16/2 64/14/2 70/15/2
f 74/17/2 75/19/2 76/18/2
f 73/20/2 74/17/2 76/18/2
f 73/20/2 76/18/2 77/21/2
f 72/22/2 73/20/2 77/21/2
f 72/22/2 77/21/2 78/23/2
f 71/24/2 72/22/2 78/23/2
f 83/25/2 84/27/2 85/26/2
f 83/25/2 85/26/2 86/28/2
f 82/29/2 83/25/2 86/28/2
f 82/29/2 86/28/2 87/30/2
f 81/31/2 82/29/2 87/30/2
f 81/31/2 87/30/2 88/32/2
f 80/33/2 81/31/2 88/32/2
f 80/33/2 88/32/2 79/34/2
f 49/35/2 50/37/2 51/36/2
f 49/35/2 51/36/2 52/38/2
f 48/39/2 49/35/2 52/38/2
f 48/39/2 52/38/2 53/40/2
f 47/41/2 48/39/2 53/40/2
f 47/41/2 53/40/2 54/42/2
f 46/43/2 47/41/2 54/42/2
f 46/43/2 54/42/2 45/44/2
s 1
f 90/45/3 92/46/4 91/47/4 89/44/3
f 92/46/4 94/48/5 93/49/5 91/47/4
f 94/48/5 96/50/6 95/51/6 93/49/5
f 96/50/6 98/52/7 97/53/7 95/51/6
f 98/52/7 100/54/8 99/55/8 97/53/7
f 100/54/8 102/56/9 101/57/9 99/55/8
f 102/56/9 104/58/10 103/59/10 101/57/9
f 104/58/10 90/60/3 89/32/3 103/59/10
f 106/45/3 108/46/4 107/47/4 105/44/3
f 108/46/4 110/48/5 109/49/5 107/47/4
f 110/48/5 112/50/6 111/51/6 109/49/5
f 112/50/6 114/52/7 113/53/7 111/51/6
f 114/52/7 116/54/8 115/55/8 113/53/7
f 116/54/8 118/56/9 117/57/9 115/55/8
f 118/56/9 120/58/10 119/59/10 117/57/9
f 120/58/10 106/60/3 105/32/3 119/59/10
f 122/45/3 124/46/4 123/47/4 121/44/3
f 124/46/4 126/48/5 125/49/5 123/47/4
f 126/48/5 128/50/6 127/51/6 125/49/5
f 128/50/6 130/52/7 129/53/7 127/51/6
f 130/52/7 132/54/8 131/55/8 129/53/7
f 132/54/8 134/56/9 133/57/9 131/55/8
f 134/56/9 136/58/10 135/59/10 133/57/9
f 136/58/10 122/60/3 121/32/3 135/59/10
f 138/45/11 140/61/12 139/62/12 137/44/11
f 140/61/12 142/63/4 141/64/4 139/62/12
f 142/63/4 144/65/5 143/66/5 141/64/4
f 144/65/5 146/67/6 145/68/6 143/66/5
f 146/67/6 148/52/13 147/53/13 145/68/6
f 148/52/13 150/69/14 149/70/14 147/53/13
f 150/69/14 152/71/8 151/72/8 149/70/14
f 152/71/8 154/73/9 153/74/9 151/72/8
f 154/73/9 156/75/10 155/76/10 153/74/9
f 156/75/10 138/60/11 137/32/11 155/76/10
f 158/45/11 160/61/12 159/62/12 157/44/11
f 160/61/12 162/63/4 161/64/4 159/62/12
f 162/63/4 164/65/5 163/66/5 161/64/4
f 164/65/5 166/67/6 165/68/6 163/66/5
f 166/67/6 168/52/13 167/53/13 165/68/6
f 168/52/13 170/69/14 169/70/14 167/53/13
f 170/69/14 172/71/8 171/72/8 169/70/14
f 172/71/8 174/73/9 173/74/9 171/72/8
f 174/73/9 176/75/10 175/76/10 173/74/9
f 176/75/10 158/60/11 157/32/11 175/76/10
