# Blender 4.1.1
# www.blender.org
o 5
v -1.200000 0.100000 -0.100000
v -1.128125 0.128125 -0.100000
v -1.100000 0.200000 -0.100000
v -1.128125 0.270312 -0.100000
v -1.200000 0.300000 -0.100000
v -1.270313 0.270312 -0.100000
v -1.300000 0.200000 -0.100000
v -1.270313 0.128125 -0.100000
v 1.200000 0.100000 -0.100000
v 1.271875 0.128125 -0.100000
v 1.300000 0.200000 -0.100000
v 1.271875 0.270312 -0.100000
v 1.200000 0.300000 -0.100000
v 1.129688 0.270312 -0.100000
v 1.100000 0.200000 -0.100000
v 1.129688 0.128125 -0.100000
v 0.600000 0.100000 -0.100000
v 0.671875 0.128125 -0.100000
v 0.700000 0.200000 -0.100000
v 0.671875 0.270312 -0.100000
v 0.600000 0.300000 -0.100000
v 0.529687 0.270312 -0.100000
v 0.500000 0.200000 -0.100000
v 0.529687 0.128125 -0.100000
v -0.000000 0.100000 -0.100000
v 0.071875 0.128125 -0.100000
v 0.100000 0.200000 -0.100000
v 0.071875 0.270312 -0.100000
v -0.000000 0.300000 -0.100000
v -0.070313 0.270312 -0.100000
v -0.100000 0.200000 -0.100000
v -0.070313 0.128125 -0.100000
v -0.600000 0.100000 -0.100000
v -0.528125 0.128125 -0.100000
v -0.500000 0.200000 -0.100000
v -0.528125 0.270312 -0.100000
v -0.600000 0.300000 -0.100000
v -0.670313 0.270312 -0.100000
v -0.700000 0.200000 -0.100000
v -0.670313 0.128125 -0.100000
v -1.200000 0.100000 0.100000
v -1.128125 0.128125 0.100000
v -1.100000 0.200000 0.100000
v -1.128125 0.270312 0.100000
v -1.200000 0.300000 0.100000
v -1.270313 0.270312 0.100000
v -1.300000 0.200000 0.100000
v -1.270313 0.128125 0.100000
v 1.200000 0.100000 0.100000
v 1.271875 0.128125 0.100000
v 1.300000 0.200000 0.100000
v 1.271875 0.270312 0.100000
v 1.200000 0.300000 0.100000
v 1.129688 0.270312 0.100000
v 1.100000 0.200000 0.100000
v 1.129688 0.128125 0.100000
v 0.600000 0.100000 0.100000
v 0.671875 0.128125 0.100000
v 0.700000 0.200000 0.100000
v 0.671875 0.270312 0.100000
v 0.600000 0.300000 0.100000
v 0.529688 0.270312 0.100000
v 0.500000 0.200000 0.100000
v 0.529688 0.128125 0.100000
v 0.000000 0.100000 0.100000
v 0.071875 0.128125 0.100000
v 0.100000 0.200000 0.100000
v 0.071875 0.270312 0.100000
v 0.000000 0.300000 0.100000
v -0.070312 0.270312 0.100000
v -0.100000 0.200000 0.100000
v -0.070312 0.128125 0.100000
v -0.600000 0.100000 0.100000
v -0.528125 0.128125 0.100000
v -0.500000 0.200000 0.100000
v -0.528125 0.270312 0.100000
v -0.600000 0.300000 0.100000
v -0.670313 0.270312 0.100000
v -0.700000 0.200000 0.100000
v -0.670313 0.128125 0.100000
v 1.200000 0.100000 0.100000
v 1.200000 0.100000 -0.100000
v 1.271875 0.128125 0.100000
v 1.271875 0.128125 -0.100000
v 1.300000 0.200000 0.100000
v 1.300000 0.200000 -0.100000
v 1.271875 0.270312 0.100000
v 1.271875 0.270312 -0.100000
v 1.200000 0.300000 0.100000
v 1.200000 0.300000 -0.100000
v 1.129688 0.270312 0.100000
v 1.129688 0.270312 -0.100000
v 1.100000 0.200000 0.100000
v 1.100000 0.200000 -0.100000
v 1.129688 0.128125 0.100000
v 1.129688 0.128125 -0.100000
v 0.600000 0.100000 0.100000
v 0.600000 0.100000 -0.100000
v 0.671875 0.128125 0.100000
v 0.671875 0.128125 -0.100000
v 0.700000 0.200000 0.100000
v 0.700000 0.200000 -0.100000
v 0.671875 0.270312 0.100000
v 0.671875 0.270312 -0.100000
v 0.600000 0.300000 0.100000
v 0.600000 0.300000 -0.100000
v 0.529688 0.270312 0.100000
v 0.529687 0.270312 -0.100000
v 0.500000 0.200000 0.100000
v 0.500000 0.200000 -0.100000
v 0.529688 0.128125 0.100000
v 0.529687 0.128125 -0.100000
v 0.000000 0.100000 0.100000
v -0.000000 0.100000 -0.100000
v 0.071875 0.128125 0.100000
v 0.071875 0.128125 -0.100000
v 0.100000 0.200000 0.100000
v 0.100000 0.200000 -0.100000
v 0.071875 0.270312 0.100000
v 0.071875 0.270312 -0.100000
v 0.000000 0.300000 0.100000
v -0.000000 0.300000 -0.100000
v -0.070312 0.270312 0.100000
v -0.070313 0.270312 -0.100000
v -0.100000 0.200000 0.100000
v -0.100000 0.200000 -0.100000
v -0.070312 0.128125 0.100000
v -0.070313 0.128125 -0.100000
v -0.600000 0.100000 0.100000
v -0.600000 0.100000 -0.100000
v -0.528125 0.128125 0.100000
v -0.528125 0.128125 -0.100000
v -0.500000 0.200000 0.100000
v -0.500000 0.200000 -0.100000
v -0.528125 0.270312 0.100000
v -0.528125 0.270312 -0.100000
v -0.600000 0.300000 0.100000
v -0.600000 0.300000 -0.100000
v -0.670313 0.270312 0.100000
v -0.670313 0.270312 -0.100000
v -0.700000 0.200000 0.100000
v -0.700000 0.200000 -0.100000
v -0.670313 0.128125 0.100000
v -0.670313 0.128125 -0.100000
v -1.200000 0.100000 0.100000
v -1.200000 0.100000 -0.100000
v -1.128125 0.128125 0.100000
v -1.128125 0.128125 -0.100000
v -1.100000 0.200000 0.100000
v -1.100000 0.200000 -0.100000
v -1.128125 0.270312 0.100000
v -1.128125 0.270312 -0.100000
v -1.200000 0.300000 0.100000
v -1.200000 0.300000 -0.100000
v -1.270313 0.270312 0.100000
v -1.270313 0.270312 -0.100000
v -1.300000 0.200000 0.100000
v -1.300000 0.200000 -0.100000
v -1.270313 0.128125 0.100000
v -1.270313 0.128125 -0.100000
vn -0.0000 -0.0000 -1.0000
vn -0.0000 -0.0000 1.0000
vn -0.0038 -1.0000 -0.0000
vn 0.7071 -0.7071 -0.0000
vn 1.0000 0.0038 -0.0000
vn 0.7111 0.7031 -0.0000
vn -0.0039 1.0000 -0.0000
vn -0.7071 0.7071 -0.0000
vn -1.0000 0.0039 -0.0000
vn -0.7031 -0.7111 -0.0000
vt 0.282051 0.000000
vt 0.333333 0.000000
vt 0.307692 0.000000
vt 0.256410 0.000000
vt 0.358974 0.000000
vt 0.230769 0.000000
vt 0.384615 0.000000
vt 0.205128 0.000000
vt 0.487179 0.000000
vt 0.538462 0.000000
vt 0.512821 0.000000
vt 0.461538 0.000000
vt 0.564103 0.000000
vt 0.435897 0.000000
vt 0.589744 0.000000
vt 0.410256 0.000000
vt 0.692308 0.000000
vt 0.743590 0.000000
vt 0.717949 0.000000
vt 0.666667 0.000000
vt 0.769231 0.000000
vt 0.641026 0.000000
vt 0.794872 0.000000
vt 0.615385 0.000000
vt 0.897436 0.000000
vt 0.948718 0.000000
vt 0.923077 0.000000
vt 0.871795 0.000000
vt 0.974359 0.000000
vt 0.846154 0.000000
vt 1.000000 0.000000
vt 0.820513 0.000000
vt 0.076923 0.000000
vt 0.128205 0.000000
vt 0.102564 0.000000
vt 0.051282 0.000000
vt 0.153846 0.000000
vt 0.025641 0.000000
vt 0.179487 0.000000
vt 0.000000 0.000000
vt 0.000000 1.000000
vt 0.125000 1.000000
vt 0.125000 0.000000
vt 0.250000 1.000000
vt 0.250000 0.000000
vt 0.375000 1.000000
vt 0.375000 0.000000
vt 0.500000 1.000000
vt 0.500000 0.000000
vt 0.625000 1.000000
vt 0.625000 0.000000
vt 0.750000 1.000000
vt 0.750000 0.000000
vt 0.875000 1.000000
vt 0.875000 0.000000
vt 1.000000 1.000000
s 0
f 12/1/1 14/2/1 13/3/1
f 11/4/1 14/2/1 12/1/1
f 11/4/1 15/5/1 14/2/1
f 10/6/1 15/5/1 11/4/1
f 10/6/1 16/7/1 15/5/1
f 9/8/1 16/7/1 10/6/1
f 20/9/1 22/10/1 21/11/1
f 19/12/1 22/10/1 20/9/1
f 19/12/1 23/13/1 22/10/1
f 18/14/1 23/13/1 19/12/1
f 18/14/1 24/15/1 23/13/1
f 17/16/1 24/15/1 18/14/1
f 28/17/1 30/18/1 29/19/1
f 27/20/1 30/18/1 28/17/1
f 27/20/1 31/21/1 30/18/1
f 26/22/1 31/21/1 27/20/1
f 26/22/1 32/23/1 31/21/1
f 25/24/1 32/23/1 26/22/1
f 36/25/1 38/26/1 37/27/1
f 35/28/1 38/26/1 36/25/1
f 35/28/1 39/29/1 38/26/1
f 34/30/1 39/29/1 35/28/1
f 34/30/1 40/31/1 39/29/1
f 33/32/1 40/31/1 34/30/1
f 4/33/1 6/34/1 5/35/1
f 3/36/1 6/34/1 4/33/1
f 3/36/1 7/37/1 6/34/1
f 2/38/1 7/37/1 3/36/1
f 2/38/1 8/39/1 7/37/1
f 1/40/1 8/39/1 2/38/1
f 52/1/2 53/3/2 54/2/2
f 51/4/2 52/1/2 54/2/2
f 51/4/2 54/2/2 55/5/2
f 50/6/2 51/4/2 55/5/2
f 50/6/2 55/5/2 56/7/2
f 49/8/2 50/6/2 56/7/2
f 60/9/2 61/11/2 62/10/2
f 59/12/2 60/9/2 62/10/2
f 59/12/2 62/10/2 63/13/2
f 58/14/2 59/12/2 63/13/2
f 58/14/2 63/13/2 64/15/2
f 57/16/2 58/14/2 64/15/2
f 68/17/2 69/19/2 70/18/2
f 67/20/2 68/17/2 70/18/2
f 67/20/2 70/18/2 71/21/2
f 66/22/2 67/20/2 71/21/2
f 66/22/2 71/21/2 72/23/2
f 65/24/2 66/22/2 72/23/2
f 76/25/2 77/27/2 78/26/2
f 75/28/2 76/25/2 78/26/2
f 75/28/2 78/26/2 79/29/2
f 74/30/2 75/28/2 79/29/2
f 74/30/2 79/29/2 80/31/2
f 73/32/2 74/30/2 80/31/2
f 44/33/2 45/35/2 46/34/2
f 43/36/2 44/33/2 46/34/2
f 43/36/2 46/34/2 47/37/2
f 42/38/2 43/36/2 47/37/2
f 42/38/2 47/37/2 48/39/2
f 41/40/2 42/38/2 48/39/2
s 1
f 82/41/3 84/42/4 83/43/4 81/40/3
f 84/42/4 86/44/5 85/45/5 83/43/4
f 86/44/5 88/46/6 87/47/6 85/45/5
f 88/46/6 90/48/7 89/49/7 87/47/6
f 90/48/7 92/50/8 91/51/8 89/49/7
f 92/50/8 94/52/9 93/53/9 91/51/8
f 94/52/9 96/54/10 95/55/10 93/53/9
f 96/54/10 82/56/3 81/31/3 95/55/10
f 98/41/3 100/42/4 99/43/4 97/40/3
f 100/42/4 102/44/5 101/45/5 99/43/4
f 102/44/5 104/46/6 103/47/6 101/45/5
f 104/46/6 106/48/7 105/49/7 103/47/6
f 106/48/7 108/50/8 107/51/8 105/49/7
f 108/50/8 110/52/9 109/53/9 107/51/8
f 110/52/9 112/54/10 111/55/10 109/53/9
f 112/54/10 98/56/3 97/31/3 111/55/10
f 114/41/3 116/42/4 115/43/4 113/40/3
f 116/42/4 118/44/5 117/45/5 115/43/4
f 118/44/5 120/46/6 119/47/6 117/45/5
f 120/46/6 122/48/7 121/49/7 119/47/6
f 122/48/7 124/50/8 123/51/8 121/49/7
f 124/50/8 126/52/9 125/53/9 123/51/8
f 126/52/9 128/54/10 127/55/10 125/53/9
f 128/54/10 114/56/3 113/31/3 127/55/10
f 130/41/3 132/42/4 131/43/4 129/40/3
f 132/42/4 134/44/5 133/45/5 131/43/4
f 134/44/5 136/46/6 135/47/6 133/45/5
f 136/46/6 138/48/7 137/49/7 135/47/6
f 138/48/7 140/50/8 139/51/8 137/49/7
f 140/50/8 142/52/9 141/53/9 139/51/8
f 142/52/9 144/54/10 143/55/10 141/53/9
f 144/54/10 130/56/3 129/31/3 143/55/10
f 146/41/3 148/42/4 147/43/4 145/40/3
f 148/42/4 150/44/5 149/45/5 147/43/4
f 150/44/5 152/46/6 151/47/6 149/45/5
f 152/46/6 154/48/7 153/49/7 151/47/6
f 154/48/7 156/50/8 155/51/8 153/49/7
f 156/50/8 158/52/9 157/53/9 155/51/8
f 158/52/9 160/54/10 159/55/10 157/53/9
f 160/54/10 146/56/3 145/31/3 159/55/10
