# Blender 4.1.1
# www.blender.org
o 7
v -1.800000 0.100000 -0.099999
v -1.728125 0.128125 -0.099999
v -1.700000 0.200000 -0.099999
v -1.728125 0.270312 -0.099999
v -1.800000 0.300000 -0.099999
v -1.870312 0.270312 -0.099999
v -1.900000 0.200000 -0.099999
v -1.870312 0.128125 -0.099999
v 1.200000 0.100000 -0.100000
v 1.800000 0.100000 -0.100001
v 1.871875 0.128125 -0.100001
v 1.900000 0.200000 -0.100001
v 1.871875 0.270312 -0.100001
v 1.800000 0.300000 -0.100001
v 1.200000 0.300000 -0.100000
v 1.129688 0.270312 -0.100000
v 1.100000 0.200000 -0.100000
v 1.129688 0.128125 -0.100000
v -0.000000 0.100000 -0.100000
v 0.600000 0.100000 -0.100000
v 0.671875 0.128125 -0.100000
v 0.700000 0.200000 -0.100000
v 0.671875 0.270312 -0.100000
v 0.600000 0.300000 -0.100000
v -0.000000 0.300000 -0.100000
v -0.070313 0.270312 -0.100000
v -0.100000 0.200000 -0.100000
v -0.070313 0.128125 -0.100000
v -0.600000 0.100000 -0.100000
v -0.528125 0.128125 -0.100000
v -0.500000 0.200000 -0.100000
v -0.528125 0.270312 -0.100000
v -0.600000 0.300000 -0.100000
v -0.670312 0.270312 -0.100000
v -0.700000 0.200000 -0.100000
v -0.670312 0.128125 -0.100000
v -1.200000 0.100000 -0.100000
v -1.128125 0.128125 -0.100000
v -1.100000 0.200000 -0.100000
v -1.128125 0.270312 -0.100000
v -1.200000 0.300000 -0.100000
v -1.270312 0.270312 -0.100000
v -1.300000 0.200000 -0.100000
v -1.270312 0.128125 -0.100000
v -1.800000 0.100000 0.100001
v -1.728125 0.128125 0.100001
v -1.700000 0.200000 0.100001
v -1.728125 0.270312 0.100001
v -1.800000 0.300000 0.100001
v -1.870312 0.270312 0.100001
v -1.900000 0.200000 0.100001
v -1.870312 0.128125 0.100001
v 1.200000 0.100000 0.100000
v 1.800000 0.100000 0.099999
v 1.871875 0.128125 0.099999
v 1.900000 0.200000 0.099999
v 1.871875 0.270312 0.099999
v 1.800000 0.300000 0.099999
v 1.200000 0.300000 0.100000
v 1.129688 0.270312 0.100000
v 1.100000 0.200000 0.100000
v 1.129688 0.128125 0.100000
v 0.000000 0.100000 0.100000
v 0.600000 0.100000 0.100000
v 0.671875 0.128125 0.100000
v 0.700000 0.200000 0.100000
v 0.671875 0.270312 0.100000
v 0.600000 0.300000 0.100000
v 0.000000 0.300000 0.100000
v -0.070312 0.270312 0.100000
v -0.100000 0.200000 0.100000
v -0.070312 0.128125 0.100000
v -0.600000 0.100000 0.100000
v -0.528125 0.128125 0.100000
v -0.500000 0.200000 0.100000
v -0.528125 0.270312 0.100000
v -0.600000 0.300000 0.100000
v -0.670312 0.270312 0.100000
v -0.700000 0.200000 0.100000
v -0.670312 0.128125 0.100000
v -1.200000 0.100000 0.100000
v -1.128125 0.128125 0.100000
v -1.100000 0.200000 0.100000
v -1.128125 0.270312 0.100000
v -1.200000 0.300000 0.100000
v -1.270312 0.270312 0.100000
v -1.300000 0.200000 0.100000
v -1.270312 0.128125 0.100000
v 1.200000 0.100000 0.100000
v 1.200000 0.100000 -0.100000
v 1.800000 0.100000 0.099999
v 1.800000 0.100000 -0.100001
v 1.871875 0.128125 0.099999
v 1.871875 0.128125 -0.100001
v 1.900000 0.200000 0.099999
v 1.900000 0.200000 -0.100001
v 1.871875 0.270312 0.099999
v 1.871875 0.270312 -0.100001
v 1.800000 0.300000 0.099999
v 1.800000 0.300000 -0.100001
v 1.200000 0.300000 0.100000
v 1.200000 0.300000 -0.100000
v 1.129688 0.270312 0.100000
v 1.129688 0.270312 -0.100000
v 1.100000 0.200000 0.100000
v 1.100000 0.200000 -0.100000
v 1.129688 0.128125 0.100000
v 1.129688 0.128125 -0.100000
v 0.000000 0.100000 0.100000
v -0.000000 0.100000 -0.100000
v 0.600000 0.100000 0.100000
v 0.600000 0.100000 -0.100000
v 0.671875 0.128125 0.100000
v 0.671875 0.128125 -0.100000
v 0.700000 0.200000 0.100000
v 0.700000 0.200000 -0.100000
v 0.671875 0.270312 0.100000
v 0.671875 0.270312 -0.100000
v 0.600000 0.300000 0.100000
v 0.600000 0.300000 -0.100000
v 0.000000 0.300000 0.100000
v -0.000000 0.300000 -0.100000
v -0.070312 0.270312 0.100000
v -0.070313 0.270312 -0.100000
v -0.100000 0.200000 0.100000
v -0.100000 0.200000 -0.100000
v -0.070312 0.128125 0.100000
v -0.070313 0.128125 -0.100000
v -0.600000 0.100000 0.100000
v -0.600000 0.100000 -0.100000
v -0.528125 0.128125 0.100000
v -0.528125 0.128125 -0.100000
v -0.500000 0.200000 0.100000
v -0.500000 0.200000 -0.100000
v -0.528125 0.270312 0.100000
v -0.528125 0.270312 -0.100000
v -0.600000 0.300000 0.100000
v -0.600000 0.300000 -0.100000
v -0.670312 0.270312 0.100000
v -0.670312 0.270312 -0.100000
v -0.700000 0.200000 0.100000
v -0.700000 0.200000 -0.100000
v -0.670312 0.128125 0.100000
v -0.670312 0.128125 -0.100000
v -1.200000 0.100000 0.100000
v -1.200000 0.100000 -0.100000
v -1.128125 0.128125 0.100000
v -1.128125 0.128125 -0.100000
v -1.100000 0.200000 0.100000
v -1.100000 0.200000 -0.100000
v -1.128125 0.270312 0.100000
v -1.128125 0.270312 -0.100000
v -1.200000 0.300000 0.100000
v -1.200000 0.300000 -0.100000
v -1.270312 0.270312 0.100000
v -1.270312 0.270312 -0.100000
v -1.300000 0.200000 0.100000
v -1.300000 0.200000 -0.100000
v -1.270312 0.128125 0.100000
v -1.270312 0.128125 -0.100000
v -1.800000 0.100000 0.100001
v -1.800000 0.100000 -0.099999
v -1.728125 0.128125 0.100001
v -1.728125 0.128125 -0.099999
v -1.700000 0.200000 0.100001
v -1.700000 0.200000 -0.099999
v -1.728125 0.270312 0.100001
v -1.728125 0.270312 -0.099999
v -1.800000 0.300000 0.100001
v -1.800000 0.300000 -0.099999
v -1.870312 0.270312 0.100001
v -1.870312 0.270312 -0.099999
v -1.900000 0.200000 0.100001
v -1.900000 0.200000 -0.099999
v -1.870312 0.128125 0.100001
v -1.870312 0.128125 -0.099999
vn -0.0000 -0.0000 -1.0000
vn -0.0000 -0.0000 1.0000
vn -0.1891 -0.9820 -0.0000
vn 0.1854 -0.9827 -0.0000
vn 0.7071 -0.7071 -0.0000
vn 1.0000 0.0038 -0.0000
vn 0.7111 0.7031 -0.0000
vn 0.1946 0.9809 -0.0000
vn -0.1984 0.9801 -0.0000
vn -0.7071 0.7071 -0.0000
vn -1.0000 0.0039 -0.0000
vn -0.7031 -0.7111 -0.0000
vn -0.0038 -1.0000 -0.0000
vn -0.0039 1.0000 -0.0000
vt 0.279070 0.000000
vt 0.325581 0.000000
vt 0.302326 0.000000
vt 0.348837 0.000000
vt 0.255814 0.000000
vt 0.372093 0.000000
vt 0.232558 0.000000
vt 0.395349 0.000000
vt 0.209302 0.000000
vt 0.186047 0.000000
vt 0.511628 0.000000
vt 0.558140 0.000000
vt 0.534884 0.000000
vt 0.581395 0.000000
vt 0.488372 0.000000
vt 0.604651 0.000000
vt 0.465116 0.000000
vt 0.627907 0.000000
vt 0.441860 0.000000
vt 0.418605 0.000000
vt 0.720930 0.000000
vt 0.767442 0.000000
vt 0.744186 0.000000
vt 0.697674 0.000000
vt 0.790698 0.000000
vt 0.674419 0.000000
vt 0.813953 0.000000
vt 0.651163 0.000000
vt 0.906977 0.000000
vt 0.953488 0.000000
vt 0.930233 0.000000
vt 0.883721 0.000000
vt 0.976744 0.000000
vt 0.860465 0.000000
vt 1.000000 0.000000
vt 0.837209 0.000000
vt 0.069767 0.000000
vt 0.116279 0.000000
vt 0.093023 0.000000
vt 0.046512 0.000000
vt 0.139535 0.000000
vt 0.023256 0.000000
vt 0.162791 0.000000
vt 0.000000 0.000000
vt 0.000000 1.000000
vt 0.100000 1.000000
vt 0.100000 0.000000
vt 0.200000 1.000000
vt 0.200000 0.000000
vt 0.300000 1.000000
vt 0.300000 0.000000
vt 0.400000 1.000000
vt 0.400000 0.000000
vt 0.500000 1.000000
vt 0.500000 0.000000
vt 0.600000 1.000000
vt 0.600000 0.000000
vt 0.700000 1.000000
vt 0.700000 0.000000
vt 0.800000 1.000000
vt 0.800000 0.000000
vt 0.900000 1.000000
vt 0.900000 0.000000
vt 1.000000 1.000000
vt 0.125000 1.000000
vt 0.125000 0.000000
vt 0.250000 1.000000
vt 0.250000 0.000000
vt 0.375000 1.000000
vt 0.375000 0.000000
vt 0.625000 1.000000
vt 0.625000 0.000000
vt 0.750000 1.000000
vt 0.750000 0.000000
vt 0.875000 1.000000
vt 0.875000 0.000000
s 0
f 13/1/1 15/2/1 14/3/1
f 13/1/1 16/4/1 15/2/1
f 12/5/1 16/4/1 13/1/1
f 12/5/1 17/6/1 16/4/1
f 11/7/1 17/6/1 12/5/1
f 11/7/1 18/8/1 17/6/1
f 10/9/1 18/8/1 11/7/1
f 10/9/1 9/10/1 18/8/1
f 23/11/1 25/12/1 24/13/1
f 23/11/1 26/14/1 25/12/1
f 22/15/1 26/14/1 23/11/1
f 22/15/1 27/16/1 26/14/1
f 21/17/1 27/16/1 22/15/1
f 21/17/1 28/18/1 27/16/1
f 20/19/1 28/18/1 21/17/1
f 20/19/1 19/20/1 28/18/1
f 32/21/1 34/22/1 33/23/1
f 31/24/1 34/22/1 32/21/1
f 31/24/1 35/25/1 34/22/1
f 30/26/1 35/25/1 31/24/1
f 30/26/1 36/27/1 35/25/1
f 29/28/1 36/27/1 30/26/1
f 40/29/1 42/30/1 41/31/1
f 39/32/1 42/30/1 40/29/1
f 39/32/1 43/33/1 42/30/1
f 38/34/1 43/33/1 39/32/1
f 38/34/1 44/35/1 43/33/1
f 37/36/1 44/35/1 38/34/1
f 4/37/1 6/38/1 5/39/1
f 3/40/1 6/38/1 4/37/1
f 3/40/1 7/41/1 6/38/1
f 2/42/1 7/41/1 3/40/1
f 2/42/1 8/43/1 7/41/1
f 1/44/1 8/43/1 2/42/1
f 57/1/2 58/3/2 59/2/2
f 57/1/2 59/2/2 60/4/2
f 56/5/2 57/1/2 60/4/2
f 56/5/2 60/4/2 61/6/2
f 55/7/2 56/5/2 61/6/2
f 55/7/2 61/6/2 62/8/2
f 54/9/2 55/7/2 62/8/2
f 54/9/2 62/8/2 53/10/2
f 67/11/2 68/13/2 69/12/2
f 67/11/2 69/12/2 70/14/2
f 66/15/2 67/11/2 70/14/2
f 66/15/2 70/14/2 71/16/2
f 65/17/2 66/15/2 71/16/2
f 65/17/2 71/16/2 72/18/2
f 64/19/2 65/17/2 72/18/2
f 64/19/2 72/18/2 63/20/2
f 76/21/2 77/23/2 78/22/2
f 75/24/2 76/21/2 78/22/2
f 75/24/2 78/22/2 79/25/2
f 74/26/2 75/24/2 79/25/2
f 74/26/2 79/25/2 80/27/2
f 73/28/2 74/26/2 80/27/2
f 84/29/2 85/31/2 86/30/2
f 83/32/2 84/29/2 86/30/2
f 83/32/2 86/30/2 87/33/2
f 82/34/2 83/32/2 87/33/2
f 82/34/2 87/33/2 88/35/2
f 81/36/2 82/34/2 88/35/2
f 48/37/2 49/39/2 50/38/2
f 47/40/2 48/37/2 50/38/2
f 47/40/2 50/38/2 51/41/2
f 46/42/2 47/40/2 51/41/2
f 46/42/2 51/41/2 52/43/2
f 45/44/2 46/42/2 52/43/2
s 1
f 90/45/3 92/46/4 91/47/4 89/44/3
f 92/46/4 94/48/5 93/49/5 91/47/4
f 94/48/5 96/50/6 95/51/6 93/49/5
f 96/50/6 98/52/7 97/53/7 95/51/6
f 98/52/7 100/54/8 99/55/8 97/53/7
f 100/54/8 102/56/9 101/57/9 99/55/8
f 102/56/9 104/58/10 103/59/10 101/57/9
f 104/58/10 106/60/11 105/61/11 103/59/10
f 106/60/11 108/62/12 107/63/12 105/61/11
f 108/62/12 90/64/3 89/35/3 107/63/12
f 110/45/3 112/46/4 111/47/4 109/44/3
f 112/46/4 114/48/5 113/49/5 111/47/4
f 114/48/5 116/50/6 115/51/6 113/49/5
f 116/50/6 118/52/7 117/53/7 115/51/6
f 118/52/7 120/54/8 119/55/8 117/53/7
f 120/54/8 122/56/9 121/57/9 119/55/8
f 122/56/9 124/58/10 123/59/10 121/57/9
f 124/58/10 126/60/11 125/61/11 123/59/10
f 126/60/11 128/62/12 127/63/12 125/61/11
f 128/62/12 110/64/3 109/35/3 127/63/12
f 130/45/13 132/65/5 131/66/5 129/44/13
f 132/65/5 134/67/6 133/68/6 131/66/5
f 134/67/6 136/69/7 135/70/7 133/68/6
f 136/69/7 138/54/14 137/55/14 135/70/7
f 138/54/14 140/71/10 139/72/10 137/55/14
f 140/71/10 142/73/11 141/74/11 139/72/10
f 142/73/11 144/75/12 143/76/12 141/74/11
f 144/75/12 130/64/13 129/35/13 143/76/12
f 146/45/13 148/65/5 147/66/5 145/44/13
f 148/65/5 150/67/6 149/68/6 147/66/5
f 150/67/6 152/69/7 151/70/7 149/68/6
f 152/69/7 154/54/14 153/55/14 151/70/7
f 154/54/14 156/71/10 155/72/10 153/55/14
f 156/71/10 158/73/11 157/74/11 155/72/10
f 158/73/11 160/75/12 159/76/12 157/74/11
f 160/75/12 146/64/13 145/35/13 159/76/12
f 162/45/13 164/65/5 163/66/5 161/44/13
f 164/65/5 166/67/6 165/68/6 163/66/5
f 166/67/6 168/69/7 167/70/7 165/68/6
f 168/69/7 170/54/14 169/55/14 167/70/7
f 170/54/14 172/71/10 171/72/10 169/55/14
f 172/71/10 174/73/11 173/74/11 171/72/10
f 174/73/11 176/75/12 175/76/12 173/74/11
f 176/75/12 162/64/13 161/35/13 175/76/12
