# Blender 4.1.1
# www.blender.org
o 9
v -2.400000 0.100000 -0.099999
v -2.328125 0.128125 -0.099999
v -2.300000 0.200000 -0.099999
v -2.328125 0.270312 -0.099999
v -2.400000 0.300000 -0.099999
v -2.470312 0.270312 -0.099999
v -2.500000 0.200000 -0.099999
v -2.470312 0.128125 -0.099999
v 1.800000 0.100000 -0.100001
v 2.400000 0.100000 -0.100001
v 2.471875 0.128125 -0.100001
v 2.500000 0.200000 -0.100001
v 2.471875 0.270312 -0.100001
v 2.400000 0.300000 -0.100001
v 1.800000 0.300000 -0.100001
v 1.729687 0.270312 -0.100001
v 1.700000 0.200000 -0.100001
v 1.729687 0.128125 -0.100001
v 0.600000 0.100000 -0.100000
v 1.200000 0.100000 -0.100000
v 1.271875 0.128125 -0.100000
v 1.300000 0.200000 -0.100000
v 1.271875 0.270312 -0.100000
v 1.200000 0.300000 -0.100000
v 0.600000 0.300000 -0.100000
v 0.529687 0.270312 -0.100000
v 0.500000 0.200000 -0.100000
v 0.529687 0.128125 -0.100000
v -0.600000 0.100000 -0.100000
v -0.000000 0.100000 -0.100000
v 0.071875 0.128125 -0.100000
v 0.100000 0.200000 -0.100000
v 0.071875 0.270312 -0.100000
v -0.000000 0.300000 -0.100000
v -0.600000 0.300000 -0.100000
v -0.670312 0.270312 -0.100000
v -0.700000 0.200000 -0.100000
v -0.670312 0.128125 -0.100000
v -1.800000 0.100000 -0.099999
v -1.200000 0.100000 -0.100000
v -1.128125 0.128125 -0.100000
v -1.100000 0.200000 -0.100000
v -1.128125 0.270312 -0.100000
v -1.200000 0.300000 -0.100000
v -1.800000 0.300000 -0.099999
v -1.870312 0.270312 -0.099999
v -1.900000 0.200000 -0.099999
v -1.870312 0.128125 -0.099999
v -2.400000 0.100000 0.100001
v -2.328125 0.128125 0.100001
v -2.300000 0.200000 0.100001
v -2.328125 0.270312 0.100001
v -2.400000 0.300000 0.100001
v -2.470312 0.270312 0.100001
v -2.500000 0.200000 0.100001
v -2.470312 0.128125 0.100001
v 1.800000 0.100000 0.099999
v 2.400000 0.100000 0.099999
v 2.471875 0.128125 0.099999
v 2.500000 0.200000 0.099999
v 2.471875 0.270312 0.099999
v 2.400000 0.300000 0.099999
v 1.800000 0.300000 0.099999
v 1.729687 0.270312 0.099999
v 1.700000 0.200000 0.099999
v 1.729687 0.128125 0.099999
v 0.600000 0.100000 0.100000
v 1.200000 0.100000 0.100000
v 1.271875 0.128125 0.100000
v 1.300000 0.200000 0.100000
v 1.271875 0.270312 0.100000
v 1.200000 0.300000 0.100000
v 0.600000 0.300000 0.100000
v 0.529687 0.270312 0.100000
v 0.500000 0.200000 0.100000
v 0.529687 0.128125 0.100000
v -0.600000 0.100000 0.100000
v 0.000000 0.100000 0.100000
v 0.071875 0.128125 0.100000
v 0.100000 0.200000 0.100000
v 0.071875 0.270312 0.100000
v 0.000000 0.300000 0.100000
v -0.600000 0.300000 0.100000
v -0.670312 0.270312 0.100000
v -0.700000 0.200000 0.100000
v -0.670312 0.128125 0.100000
v -1.800000 0.100000 0.100001
v -1.200000 0.100000 0.100000
v -1.128125 0.128125 0.100000
v -1.100000 0.200000 0.100000
v -1.128125 0.270312 0.100000
v -1.200000 0.300000 0.100000
v -1.800000 0.300000 0.100001
v -1.870312 0.270312 0.100001
v -1.900000 0.200000 0.100001
v -1.870312 0.128125 0.100001
v 1.800000 0.100000 0.099999
v 1.800000 0.100000 -0.100001
v 2.400000 0.100000 0.099999
v 2.400000 0.100000 -0.100001
v 2.471875 0.128125 0.099999
v 2.471875 0.128125 -0.100001
v 2.500000 0.200000 0.099999
v 2.500000 0.200000 -0.100001
v 2.471875 0.270312 0.099999
v 2.471875 0.270312 -0.100001
v 2.400000 0.300000 0.099999
v 2.400000 0.300000 -0.100001
v 1.800000 0.300000 0.099999
v 1.800000 0.300000 -0.100001
v 1.729687 0.270312 0.099999
v 1.729687 0.270312 -0.100001
v 1.700000 0.200000 0.099999
v 1.700000 0.200000 -0.100001
v 1.729687 0.128125 0.099999
v 1.729687 0.128125 -0.100001
v 0.600000 0.100000 0.100000
v 0.600000 0.100000 -0.100000
v 1.200000 0.100000 0.100000
v 1.200000 0.100000 -0.100000
v 1.271875 0.128125 0.100000
v 1.271875 0.128125 -0.100000
v 1.300000 0.200000 0.100000
v 1.300000 0.200000 -0.100000
v 1.271875 0.270312 0.100000
v 1.271875 0.270312 -0.100000
v 1.200000 0.300000 0.100000
v 1.200000 0.300000 -0.100000
v 0.600000 0.300000 0.100000
v 0.600000 0.300000 -0.100000
v 0.529687 0.270312 0.100000
v 0.529687 0.270312 -0.100000
v 0.500000 0.200000 0.100000
v 0.500000 0.200000 -0.100000
v 0.529687 0.128125 0.100000
v 0.529687 0.128125 -0.100000
v -0.600000 0.100000 0.100000
v -0.600000 0.100000 -0.100000
v 0.000000 0.100000 0.100000
v -0.000000 0.100000 -0.100000
v 0.071875 0.128125 0.100000
v 0.071875 0.128125 -0.100000
v 0.100000 0.200000 0.100000
v 0.100000 0.200000 -0.100000
v 0.071875 0.270312 0.100000
v 0.071875 0.270312 -0.100000
v 0.000000 0.300000 0.100000
v -0.000000 0.300000 -0.100000
v -0.600000 0.300000 0.100000
v -0.600000 0.300000 -0.100000
v -0.670312 0.270312 0.100000
v -0.670312 0.270312 -0.100000
v -0.700000 0.200000 0.100000
v -0.700000 0.200000 -0.100000
v -0.670312 0.128125 0.100000
v -0.670312 0.128125 -0.100000
v -1.800000 0.100000 0.100001
v -1.800000 0.100000 -0.099999
v -1.200000 0.100000 0.100000
v -1.200000 0.100000 -0.100000
v -1.128125 0.128125 0.100000
v -1.128125 0.128125 -0.100000
v -1.100000 0.200000 0.100000
v -1.100000 0.200000 -0.100000
v -1.128125 0.270312 0.100000
v -1.128125 0.270312 -0.100000
v -1.200000 0.300000 0.100000
v -1.200000 0.300000 -0.100000
v -1.800000 0.300000 0.100001
v -1.800000 0.300000 -0.099999
v -1.870312 0.270312 0.100001
v -1.870312 0.270312 -0.099999
v -1.900000 0.200000 0.100001
v -1.900000 0.200000 -0.099999
v -1.870312 0.128125 0.100001
v -1.870312 0.128125 -0.099999
v -2.400000 0.100000 0.100001
v -2.400000 0.100000 -0.099999
v -2.328125 0.128125 0.100001
v -2.328125 0.128125 -0.099999
v -2.300000 0.200000 0.100001
v -2.300000 0.200000 -0.099999
v -2.328125 0.270312 0.100001
v -2.328125 0.270312 -0.099999
v -2.400000 0.300000 0.100001
v -2.400000 0.300000 -0.099999
v -2.470312 0.270312 0.100001
v -2.470312 0.270312 -0.099999
v -2.500000 0.200000 0.100001
v -2.500000 0.200000 -0.099999
v -2.470312 0.128125 0.100001
v -2.470312 0.128125 -0.099999
vn -0.0000 -0.0000 -1.0000
vn -0.0000 -0.0000 1.0000
vn -0.1891 -0.9820 -0.0000
vn 0.1854 -0.9827 -0.0000
vn 0.7071 -0.7071 -0.0000
vn 1.0000 0.0038 -0.0000
vn 0.7111 0.7031 -0.0000
vn 0.1946 0.9809 -0.0000
vn -0.1984 0.9801 -0.0000
vn -0.7071 0.7071 -0.0000
vn -1.0000 0.0039 -0.0000
vn -0.7031 -0.7111 -0.0000
vn -0.0038 -1.0000 -0.0000
vn -0.0039 1.0000 -0.0000
vt 0.255319 0.000000
vt 0.297872 0.000000
vt 0.276596 0.000000
vt 0.319149 0.000000
vt 0.234043 0.000000
vt 0.340426 0.000000
vt 0.212766 0.000000
vt 0.361702 0.000000
vt 0.191489 0.000000
vt 0.170213 0.000000
vt 0.468085 0.000000
vt 0.510638 0.000000
vt 0.489362 0.000000
vt 0.531915 0.000000
vt 0.446809 0.000000
vt 0.553191 0.000000
vt 0.425532 0.000000
vt 0.574468 0.000000
vt 0.404255 0.000000
vt 0.382979 0.000000
vt 0.680851 0.000000
vt 0.723404 0.000000
vt 0.702128 0.000000
vt 0.744681 0.000000
vt 0.659574 0.000000
vt 0.765957 0.000000
vt 0.638298 0.000000
vt 0.787234 0.000000
vt 0.617021 0.000000
vt 0.595745 0.000000
vt 0.893617 0.000000
vt 0.936170 0.000000
vt 0.914894 0.000000
vt 0.957447 0.000000
vt 0.872340 0.000000
vt 0.978723 0.000000
vt 0.851064 0.000000
vt 1.000000 0.000000
vt 0.829787 0.000000
vt 0.808511 0.000000
vt 0.063830 0.000000
vt 0.106383 0.000000
vt 0.085106 0.000000
vt 0.042553 0.000000
vt 0.127660 0.000000
vt 0.021277 0.000000
vt 0.148936 0.000000
vt 0.000000 0.000000
vt 0.000000 1.000000
vt 0.100000 1.000000
vt 0.100000 0.000000
vt 0.200000 1.000000
vt 0.200000 0.000000
vt 0.300000 1.000000
vt 0.300000 0.000000
vt 0.400000 1.000000
vt 0.400000 0.000000
vt 0.500000 1.000000
vt 0.500000 0.000000
vt 0.600000 1.000000
vt 0.600000 0.000000
vt 0.700000 1.000000
vt 0.700000 0.000000
vt 0.800000 1.000000
vt 0.800000 0.000000
vt 0.900000 1.000000
vt 0.900000 0.000000
vt 1.000000 1.000000
vt 0.125000 1.000000
vt 0.125000 0.000000
vt 0.250000 1.000000
vt 0.250000 0.000000
vt 0.375000 1.000000
vt 0.375000 0.000000
vt 0.625000 1.000000
vt 0.625000 0.000000
vt 0.750000 1.000000
vt 0.750000 0.000000
vt 0.875000 1.000000
vt 0.875000 0.000000
s 0
f 13/1/1 15/2/1 14/3/1
f 13/1/1 16/4/1 15/2/1
f 12/5/1 16/4/1 13/1/1
f 12/5/1 17/6/1 16/4/1
f 11/7/1 17/6/1 12/5/1
f 11/7/1 18/8/1 17/6/1
f 10/9/1 18/8/1 11/7/1
f 10/9/1 9/10/1 18/8/1
f 23/11/1 25/12/1 24/13/1
f 23/11/1 26/14/1 25/12/1
f 22/15/1 26/14/1 23/11/1
f 22/15/1 27/16/1 26/14/1
f 21/17/1 27/16/1 22/15/1
f 21/17/1 28/18/1 27/16/1
f 20/19/1 28/18/1 21/17/1
f 20/19/1 19/20/1 28/18/1
f 33/21/1 35/22/1 34/23/1
f 33/21/1 36/24/1 35/22/1
f 32/25/1 36/24/1 33/21/1
f 32/25/1 37/26/1 36/24/1
f 31/27/1 37/26/1 32/25/1
f 31/27/1 38/28/1 37/26/1
f 30/29/1 38/28/1 31/27/1
f 30/29/1 29/30/1 38/28/1
f 43/31/1 45/32/1 44/33/1
f 43/31/1 46/34/1 45/32/1
f 42/35/1 46/34/1 43/31/1
f 42/35/1 47/36/1 46/34/1
f 41/37/1 47/36/1 42/35/1
f 41/37/1 48/38/1 47/36/1
f 40/39/1 48/38/1 41/37/1
f 40/39/1 39/40/1 48/38/1
f 4/41/1 6/42/1 5/43/1
f 3/44/1 6/42/1 4/41/1
f 3/44/1 7/45/1 6/42/1
f 2/46/1 7/45/1 3/44/1
f 2/46/1 8/47/1 7/45/1
f 1/48/1 8/47/1 2/46/1
f 61/1/2 62/3/2 63/2/2
f 61/1/2 63/2/2 64/4/2
f 60/5/2 61/1/2 64/4/2
f 60/5/2 64/4/2 65/6/2
f 59/7/2 60/5/2 65/6/2
f 59/7/2 65/6/2 66/8/2
f 58/9/2 59/7/2 66/8/2
f 58/9/2 66/8/2 57/10/2
f 71/11/2 72/13/2 73/12/2
f 71/11/2 73/12/2 74/14/2
f 70/15/2 71/11/2 74/14/2
f 70/15/2 74/14/2 75/16/2
f 69/17/2 70/15/2 75/16/2
f 69/17/2 75/16/2 76/18/2
f 68/19/2 69/17/2 76/18/2
f 68/19/2 76/18/2 67/20/2
f 81/21/2 82/23/2 83/22/2
f 81/21/2 83/22/2 84/24/2
f 80/25/2 81/21/2 84/24/2
f 80/25/2 84/24/2 85/26/2
f 79/27/2 80/25/2 85/26/2
f 79/27/2 85/26/2 86/28/2
f 78/29/2 79/27/2 86/28/2
f 78/29/2 86/28/2 77/30/2
f 91/31/2 92/33/2 93/32/2
f 91/31/2 93/32/2 94/34/2
f 90/35/2 91/31/2 94/34/2
f 90/35/2 94/34/2 95/36/2
f 89/37/2 90/35/2 95/36/2
f 89/37/2 95/36/2 96/38/2
f 88/39/2 89/37/2 96/38/2
f 88/39/2 96/38/2 87/40/2
f 52/41/2 53/43/2 54/42/2
f 51/44/2 52/41/2 54/42/2
f 51/44/2 54/42/2 55/45/2
f 50/46/2 51/44/2 55/45/2
f 50/46/2 55/45/2 56/47/2
f 49/48/2 50/46/2 56/47/2
s 1
f 98/49/3 100/50/4 99/51/4 97/48/3
f 100/50/4 102/52/5 101/53/5 99/51/4
f 102/52/5 104/54/6 103/55/6 101/53/5
f 104/54/6 106/56/7 105/57/7 103/55/6
f 106/56/7 108/58/8 107/59/8 105/57/7
f 108/58/8 110/60/9 109/61/9 107/59/8
f 110/60/9 112/62/10 111/63/10 109/61/9
f 112/62/10 114/64/11 113/65/11 111/63/10
f 114/64/11 116/66/12 115/67/12 113/65/11
f 116/66/12 98/68/3 97/38/3 115/67/12
f 118/49/3 120/50/4 119/51/4 117/48/3
f 120/50/4 122/52/5 121/53/5 119/51/4
f 122/52/5 124/54/6 123/55/6 121/53/5
f 124/54/6 126/56/7 125/57/7 123/55/6
f 126/56/7 128/58/8 127/59/8 125/57/7
f 128/58/8 130/60/9 129/61/9 127/59/8
f 130/60/9 132/62/10 131/63/10 129/61/9
f 132/62/10 134/64/11 133/65/11 131/63/10
f 134/64/11 136/66/12 135/67/12 133/65/11
f 136/66/12 118/68/3 117/38/3 135/67/12
f 138/49/3 140/50/4 139/51/4 137/48/3
f 140/50/4 142/52/5 141/53/5 139/51/4
f 142/52/5 144/54/6 143/55/6 141/53/5
f 144/54/6 146/56/7 145/57/7 143/55/6
f 146/56/7 148/58/8 147/59/8 145/57/7
f 148/58/8 150/60/9 149/61/9 147/59/8
f 150/60/9 152/62/10 151/63/10 149/61/9
f 152/62/10 154/64/11 153/65/11 151/63/10
f 154/64/11 156/66/12 155/67/12 153/65/11
f 156/66/12 138/68/3 137/38/3 155/67/12
f 158/49/3 160/50/4 159/51/4 157/48/3
f 160/50/4 162/52/5 161/53/5 159/51/4
f 162/52/5 164/54/6 163/55/6 161/53/5
f 164/54/6 166/56/7 165/57/7 163/55/6
f 166/56/7 168/58/8 167/59/8 165/57/7
f 168/58/8 170/60/9 169/61/9 167/59/8
f 170/60/9 172/62/10 171/63/10 169/61/9
f 172/62/10 174/64/11 173/65/11 171/63/10
f 174/64/11 176/66/12 175/67/12 173/65/11
f 176/66/12 158/68/3 157/38/3 175/67/12
f 178/49/13 180/69/5 179/70/5 177/48/13
f 180/69/5 182/71/6 181/72/6 179/70/5
f 182/71/6 184/73/7 183/74/7 181/72/6
f 184/73/7 186/58/14 185/59/14 183/74/7
f 186/58/14 188/75/10 187/76/10 185/59/14
f 188/75/10 190/77/11 189/78/11 187/76/10
f 190/77/11 192/79/12 191/80/12 189/78/11
f 192/79/12 178/68/13 177/38/13 191/80/12
