# Blender 4.1.1
# www.blender.org
o ?
v -2.100000 0.100000 -0.099999
v -2.028125 0.128125 -0.099999
v -2.000000 0.200000 -0.099999
v -2.028125 0.270312 -0.099999
v -2.100000 0.300000 -0.099999
v -2.170312 0.270312 -0.099999
v -2.200000 0.200000 -0.099999
v -2.170312 0.128125 -0.099999
v 2.100000 0.100000 -0.100001
v 2.171875 0.128125 -0.100001
v 2.200000 0.200000 -0.100001
v 2.171875 0.270312 -0.100001
v 2.100000 0.300000 -0.100001
v 2.029688 0.270312 -0.100001
v 2.000000 0.200000 -0.100001
v 2.029688 0.128125 -0.100001
v 1.500000 0.100000 -0.100000
v 1.571875 0.128125 -0.100001
v 1.600000 0.200000 -0.100001
v 1.571875 0.270312 -0.100001
v 1.500000 0.300000 -0.100001
v 1.429688 0.270312 -0.100000
v 1.400000 0.200000 -0.100000
v 1.429688 0.128125 -0.100000
v 0.300000 0.100000 -0.100000
v 0.900000 0.100000 -0.100000
v 0.971875 0.128125 -0.100000
v 1.000000 0.200000 -0.100000
v 0.971875 0.270312 -0.100000
v 0.900000 0.300000 -0.100000
v 0.300000 0.300000 -0.100000
v 0.229687 0.270312 -0.100000
v 0.200000 0.200000 -0.100000
v 0.229687 0.128125 -0.100000
v -0.900000 0.100000 -0.100000
v -0.300000 0.100000 -0.100000
v -0.228125 0.128125 -0.100000
v -0.200000 0.200000 -0.100000
v -0.228125 0.270312 -0.100000
v -0.300000 0.300000 -0.100000
v -0.900000 0.300000 -0.100000
v -0.970312 0.270312 -0.100000
v -1.000000 0.200000 -0.100000
v -0.970312 0.128125 -0.100000
v -1.500000 0.100000 -0.100000
v -1.428125 0.128125 -0.100000
v -1.400000 0.200000 -0.100000
v -1.428125 0.270312 -0.100000
v -1.500000 0.300000 -0.100000
v -1.570312 0.270312 -0.100000
v -1.600000 0.200000 -0.099999
v -1.570312 0.128125 -0.099999
v -2.100000 0.100000 0.100001
v -2.028125 0.128125 0.100001
v -2.000000 0.200000 0.100001
v -2.028125 0.270312 0.100001
v -2.100000 0.300000 0.100001
v -2.170312 0.270312 0.100001
v -2.200000 0.200000 0.100001
v -2.170312 0.128125 0.100001
v 2.100000 0.100000 0.099999
v 2.171875 0.128125 0.099999
v 2.200000 0.200000 0.099999
v 2.171875 0.270312 0.099999
v 2.100000 0.300000 0.099999
v 2.029688 0.270312 0.099999
v 2.000000 0.200000 0.099999
v 2.029688 0.128125 0.099999
v 1.500000 0.100000 0.100000
v 1.571875 0.128125 0.099999
v 1.600000 0.200000 0.099999
v 1.571875 0.270312 0.099999
v 1.500000 0.300000 0.100000
v 1.429688 0.270312 0.100000
v 1.400000 0.200000 0.100000
v 1.429688 0.128125 0.100000
v 0.300000 0.100000 0.100000
v 0.900000 0.100000 0.100000
v 0.971875 0.128125 0.100000
v 1.000000 0.200000 0.100000
v 0.971875 0.270312 0.100000
v 0.900000 0.300000 0.100000
v 0.300000 0.300000 0.100000
v 0.229687 0.270312 0.100000
v 0.200000 0.200000 0.100000
v 0.229687 0.128125 0.100000
v -0.900000 0.100000 0.100000
v -0.300000 0.100000 0.100000
v -0.228125 0.128125 0.100000
v -0.200000 0.200000 0.100000
v -0.228125 0.270312 0.100000
v -0.300000 0.300000 0.100000
v -0.900000 0.300000 0.100000
v -0.970312 0.270312 0.100000
v -1.000000 0.200000 0.100000
v -0.970312 0.128125 0.100000
v -1.500000 0.100000 0.100000
v -1.428125 0.128125 0.100000
v -1.400000 0.200000 0.100000
v -1.428125 0.270312 0.100000
v -1.500000 0.300000 0.100000
v -1.570312 0.270312 0.100001
v -1.600000 0.200000 0.100001
v -1.570312 0.128125 0.100001
v 2.100000 0.100000 0.099999
v 2.100000 0.100000 -0.100001
v 2.171875 0.128125 0.099999
v 2.171875 0.128125 -0.100001
v 2.200000 0.200000 0.099999
v 2.200000 0.200000 -0.100001
v 2.171875 0.270312 0.099999
v 2.171875 0.270312 -0.100001
v 2.100000 0.300000 0.099999
v 2.100000 0.300000 -0.100001
v 2.029688 0.270312 0.099999
v 2.029688 0.270312 -0.100001
v 2.000000 0.200000 0.099999
v 2.000000 0.200000 -0.100001
v 2.029688 0.128125 0.099999
v 2.029688 0.128125 -0.100001
v 1.500000 0.100000 0.100000
v 1.500000 0.100000 -0.100000
v 1.571875 0.128125 0.099999
v 1.571875 0.128125 -0.100001
v 1.600000 0.200000 0.099999
v 1.600000 0.200000 -0.100001
v 1.571875 0.270312 0.099999
v 1.571875 0.270312 -0.100001
v 1.500000 0.300000 0.100000
v 1.500000 0.300000 -0.100001
v 1.429688 0.270312 0.100000
v 1.429688 0.270312 -0.100000
v 1.400000 0.200000 0.100000
v 1.400000 0.200000 -0.100000
v 1.429688 0.128125 0.100000
v 1.429688 0.128125 -0.100000
v 0.300000 0.100000 0.100000
v 0.300000 0.100000 -0.100000
v 0.900000 0.100000 0.100000
v 0.900000 0.100000 -0.100000
v 0.971875 0.128125 0.100000
v 0.971875 0.128125 -0.100000
v 1.000000 0.200000 0.100000
v 1.000000 0.200000 -0.100000
v 0.971875 0.270312 0.100000
v 0.971875 0.270312 -0.100000
v 0.900000 0.300000 0.100000
v 0.900000 0.300000 -0.100000
v 0.300000 0.300000 0.100000
v 0.300000 0.300000 -0.100000
v 0.229687 0.270312 0.100000
v 0.229687 0.270312 -0.100000
v 0.200000 0.200000 0.100000
v 0.200000 0.200000 -0.100000
v 0.229687 0.128125 0.100000
v 0.229687 0.128125 -0.100000
v -0.900000 0.100000 0.100000
v -0.900000 0.100000 -0.100000
v -0.300000 0.100000 0.100000
v -0.300000 0.100000 -0.100000
v -0.228125 0.128125 0.100000
v -0.228125 0.128125 -0.100000
v -0.200000 0.200000 0.100000
v -0.200000 0.200000 -0.100000
v -0.228125 0.270312 0.100000
v -0.228125 0.270312 -0.100000
v -0.300000 0.300000 0.100000
v -0.300000 0.300000 -0.100000
v -0.900000 0.300000 0.100000
v -0.900000 0.300000 -0.100000
v -0.970312 0.270312 0.100000
v -0.970312 0.270312 -0.100000
v -1.000000 0.200000 0.100000
v -1.000000 0.200000 -0.100000
v -0.970312 0.128125 0.100000
v -0.970312 0.128125 -0.100000
v -1.500000 0.100000 0.100000
v -1.500000 0.100000 -0.100000
v -1.428125 0.128125 0.100000
v -1.428125 0.128125 -0.100000
v -1.400000 0.200000 0.100000
v -1.400000 0.200000 -0.100000
v -1.428125 0.270312 0.100000
v -1.428125 0.270312 -0.100000
v -1.500000 0.300000 0.100000
v -1.500000 0.300000 -0.100000
v -1.570312 0.270312 0.100001
v -1.570312 0.270312 -0.100000
v -1.600000 0.200000 0.100001
v -1.600000 0.200000 -0.099999
v -1.570312 0.128125 0.100001
v -1.570312 0.128125 -0.099999
v -2.100000 0.100000 0.100001
v -2.100000 0.100000 -0.099999
v -2.028125 0.128125 0.100001
v -2.028125 0.128125 -0.099999
v -2.000000 0.200000 0.100001
v -2.000000 0.200000 -0.099999
v -2.028125 0.270312 0.100001
v -2.028125 0.270312 -0.099999
v -2.100000 0.300000 0.100001
v -2.100000 0.300000 -0.099999
v -2.170312 0.270312 0.100001
v -2.170312 0.270312 -0.099999
v -2.200000 0.200000 0.100001
v -2.200000 0.200000 -0.099999
v -2.170312 0.128125 0.100001
v -2.170312 0.128125 -0.099999
vn -0.0000 -0.0000 -1.0000
vn -0.0000 -0.0000 1.0000
vn -0.0038 -1.0000 -0.0000
vn 0.7071 -0.7071 -0.0000
vn 1.0000 0.0038 -0.0000
vn 0.7111 0.7031 -0.0000
vn -0.0039 1.0000 -0.0000
vn -0.7071 0.7071 -0.0000
vn -1.0000 0.0039 -0.0000
vn -0.7031 -0.7111 -0.0000
vn -0.1891 -0.9820 -0.0000
vn 0.1854 -0.9827 -0.0000
vn 0.1946 0.9809 -0.0000
vn -0.1984 0.9801 -0.0000
vt 0.215686 0.000000
vt 0.254902 0.000000
vt 0.235294 0.000000
vt 0.196078 0.000000
vt 0.274510 0.000000
vt 0.176471 0.000000
vt 0.294118 0.000000
vt 0.156863 0.000000
vt 0.372549 0.000000
vt 0.411765 0.000000
vt 0.392157 0.000000
vt 0.352941 0.000000
vt 0.431373 0.000000
vt 0.333333 0.000000
vt 0.450980 0.000000
vt 0.313726 0.000000
vt 0.549020 0.000000
vt 0.588235 0.000000
vt 0.568627 0.000000
vt 0.607843 0.000000
vt 0.529412 0.000000
vt 0.627451 0.000000
vt 0.509804 0.000000
vt 0.647059 0.000000
vt 0.490196 0.000000
vt 0.470588 0.000000
vt 0.745098 0.000000
vt 0.784314 0.000000
vt 0.764706 0.000000
vt 0.803922 0.000000
vt 0.725490 0.000000
vt 0.823529 0.000000
vt 0.705882 0.000000
vt 0.843137 0.000000
vt 0.686275 0.000000
vt 0.666667 0.000000
vt 0.921569 0.000000
vt 0.960784 0.000000
vt 0.941176 0.000000
vt 0.901961 0.000000
vt 0.980392 0.000000
vt 0.882353 0.000000
vt 1.000000 0.000000
vt 0.862745 0.000000
vt 0.058824 0.000000
vt 0.098039 0.000000
vt 0.078431 0.000000
vt 0.039216 0.000000
vt 0.117647 0.000000
vt 0.019608 0.000000
vt 0.137255 0.000000
vt 0.000000 0.000000
vt 0.000000 1.000000
vt 0.125000 1.000000
vt 0.125000 0.000000
vt 0.250000 1.000000
vt 0.250000 0.000000
vt 0.375000 1.000000
vt 0.375000 0.000000
vt 0.500000 1.000000
vt 0.500000 0.000000
vt 0.625000 1.000000
vt 0.625000 0.000000
vt 0.750000 1.000000
vt 0.750000 0.000000
vt 0.875000 1.000000
vt 0.875000 0.000000
vt 1.000000 1.000000
vt 0.100000 1.000000
vt 0.100000 0.000000
vt 0.200000 1.000000
vt 0.200000 0.000000
vt 0.300000 1.000000
vt 0.300000 0.000000
vt 0.400000 1.000000
vt 0.400000 0.000000
vt 0.600000 1.000000
vt 0.600000 0.000000
vt 0.700000 1.000000
vt 0.700000 0.000000
vt 0.800000 1.000000
vt 0.800000 0.000000
vt 0.900000 1.000000
vt 0.900000 0.000000
s 0
f 12/1/1 14/2/1 13/3/1
f 11/4/1 14/2/1 12/1/1
f 11/4/1 15/5/1 14/2/1
f 10/6/1 15/5/1 11/4/1
f 10/6/1 16/7/1 15/5/1
f 9/8/1 16/7/1 10/6/1
f 20/9/1 22/10/1 21/11/1
f 19/12/1 22/10/1 20/9/1
f 19/12/1 23/13/1 22/10/1
f 18/14/1 23/13/1 19/12/1
f 18/14/1 24/15/1 23/13/1
f 17/16/1 24/15/1 18/14/1
f 29/17/1 31/18/1 30/19/1
f 29/17/1 32/20/1 31/18/1
f 28/21/1 32/20/1 29/17/1
f 28/21/1 33/22/1 32/20/1
f 27/23/1 33/22/1 28/21/1
f 27/23/1 34/24/1 33/22/1
f 26/25/1 34/24/1 27/23/1
f 26/25/1 25/26/1 34/24/1
f 39/27/1 41/28/1 40/29/1
f 39/27/1 42/30/1 41/28/1
f 38/31/1 42/30/1 39/27/1
f 38/31/1 43/32/1 42/30/1
f 37/33/1 43/32/1 38/31/1
f 37/33/1 44/34/1 43/32/1
f 36/35/1 44/34/1 37/33/1
f 36/35/1 35/36/1 44/34/1
f 48/37/1 50/38/1 49/39/1
f 47/40/1 50/38/1 48/37/1
f 47/40/1 51/41/1 50/38/1
f 46/42/1 51/41/1 47/40/1
f 46/42/1 52/43/1 51/41/1
f 45/44/1 52/43/1 46/42/1
f 4/45/1 6/46/1 5/47/1
f 3/48/1 6/46/1 4/45/1
f 3/48/1 7/49/1 6/46/1
f 2/50/1 7/49/1 3/48/1
f 2/50/1 8/51/1 7/49/1
f 1/52/1 8/51/1 2/50/1
f 64/1/2 65/3/2 66/2/2
f 63/4/2 64/1/2 66/2/2
f 63/4/2 66/2/2 67/5/2
f 62/6/2 63/4/2 67/5/2
f 62/6/2 67/5/2 68/7/2
f 61/8/2 62/6/2 68/7/2
f 72/9/2 73/11/2 74/10/2
f 71/12/2 72/9/2 74/10/2
f 71/12/2 74/10/2 75/13/2
f 70/14/2 71/12/2 75/13/2
f 70/14/2 75/13/2 76/15/2
f 69/16/2 70/14/2 76/15/2
f 81/17/2 82/19/2 83/18/2
f 81/17/2 83/18/2 84/20/2
f 80/21/2 81/17/2 84/20/2
f 80/21/2 84/20/2 85/22/2
f 79/23/2 80/21/2 85/22/2
f 79/23/2 85/22/2 86/24/2
f 78/25/2 79/23/2 86/24/2
f 78/25/2 86/24/2 77/26/2
f 91/27/2 92/29/2 93/28/2
f 91/27/2 93/28/2 94/30/2
f 90/31/2 91/27/2 94/30/2
f 90/31/2 94/30/2 95/32/2
f 89/33/2 90/31/2 95/32/2
f 89/33/2 95/32/2 96/34/2
f 88/35/2 89/33/2 96/34/2
f 88/35/2 96/34/2 87/36/2
f 100/37/2 101/39/2 102/38/2
f 99/40/2 100/37/2 102/38/2
f 99/40/2 102/38/2 103/41/2
f 98/42/2 99/40/2 103/41/2
f 98/42/2 103/41/2 104/43/2
f 97/44/2 98/42/2 104/43/2
f 56/45/2 57/47/2 58/46/2
f 55/48/2 56/45/2 58/46/2
f 55/48/2 58/46/2 59/49/2
f 54/50/2 55/48/2 59/49/2
f 54/50/2 59/49/2 60/51/2
f 53/52/2 54/50/2 60/51/2
s 1
f 106/53/3 108/54/4 107/55/4 105/52/3
f 108/54/4 110/56/5 109/57/5 107/55/4
f 110/56/5 112/58/6 111/59/6 109/57/5
f 112/58/6 114/60/7 113/61/7 111/59/6
f 114/60/7 116/62/8 115/63/8 113/61/7
f 116/62/8 118/64/9 117/65/9 115/63/8
f 118/64/9 120/66/10 119/67/10 117/65/9
f 120/66/10 106/68/3 105/43/3 119/67/10
f 122/53/3 124/54/4 123/55/4 121/52/3
f 124/54/4 126/56/5 125/57/5 123/55/4
f 126/56/5 128/58/6 127/59/6 125/57/5
f 128/58/6 130/60/7 129/61/7 127/59/6
f 130/60/7 132/62/8 131/63/8 129/61/7
f 132/62/8 134/64/9 133/65/9 131/63/8
f 134/64/9 136/66/10 135/67/10 133/65/9
f 136/66/10 122/68/3 121/43/3 135/67/10
f 138/53/11 140/69/12 139/70/12 137/52/11
f 140/69/12 142/71/4 141/72/4 139/70/12
f 142/71/4 144/73/5 143/74/5 141/72/4
f 144/73/5 146/75/6 145/76/6 143/74/5
f 146/75/6 148/60/13 147/61/13 145/76/6
f 148/60/13 150/77/14 149/78/14 147/61/13
f 150/77/14 152/79/8 151/80/8 149/78/14
f 152/79/8 154/81/9 153/82/9 151/80/8
f 154/81/9 156/83/10 155/84/10 153/82/9
f 156/83/10 138/68/11 137/43/11 155/84/10
f 158/53/11 160/69/12 159/70/12 157/52/11
f 160/69/12 162/71/4 161/72/4 159/70/12
f 162/71/4 164/73/5 163/74/5 161/72/4
f 164/73/5 166/75/6 165/76/6 163/74/5
f 166/75/6 168/60/13 167/61/13 165/76/6
f 168/60/13 170/77/14 169/78/14 167/61/13
f 170/77/14 172/79/8 171/80/8 169/78/14
f 172/79/8 174/81/9 173/82/9 171/80/8
f 174/81/9 176/83/10 175/84/10 173/82/9
f 176/83/10 158/68/11 157/43/11 175/84/10
f 178/53/3 180/54/4 179/55/4 177/52/3
f 180/54/4 182/56/5 181/57/5 179/55/4
f 182/56/5 184/58/6 183/59/6 181/57/5
f 184/58/6 186/60/7 185/61/7 183/59/6
f 186/60/7 188/62/8 187/63/8 185/61/7
f 188/62/8 190/64/9 189/65/9 187/63/8
f 190/64/9 192/66/10 191/67/10 189/65/9
f 192/66/10 178/68/3 177/43/3 191/67/10
f 194/53/3 196/54/4 195/55/4 193/52/3
f 196/54/4 198/56/5 197/57/5 195/55/4
f 198/56/5 200/58/6 199/59/6 197/57/5
f 200/58/6 202/60/7 201/61/7 199/59/6
f 202/60/7 204/62/8 203/63/8 201/61/7
f 204/62/8 206/64/9 205/65/9 203/63/8
f 206/64/9 208/66/10 207/67/10 205/65/9
f 208/66/10 194/68/3 193/43/3 207/67/10
