# Blender 4.1.1
# www.blender.org
o C
v -1.500000 0.100000 -0.100000
v -1.428125 0.128125 -0.100000
v -1.400000 0.200000 -0.100000
v -1.428125 0.270312 -0.100000
v -1.500000 0.300000 -0.100000
v -1.570312 0.270312 -0.100000
v -1.600000 0.200000 -0.099999
v -1.570312 0.128125 -0.099999
v 0.900000 0.100000 -0.100000
v 1.500000 0.100000 -0.100000
v 1.571875 0.128125 -0.100001
v 1.600000 0.200000 -0.100001
v 1.571875 0.270312 -0.100001
v 1.500000 0.300000 -0.100001
v 0.900000 0.300000 -0.100000
v 0.829687 0.270312 -0.100000
v 0.800000 0.200000 -0.100000
v 0.829687 0.128125 -0.100000
v 0.300000 0.100000 -0.100000
v 0.371875 0.128125 -0.100000
v 0.400000 0.200000 -0.100000
v 0.371875 0.270312 -0.100000
v 0.300000 0.300000 -0.100000
v 0.229688 0.270312 -0.100000
v 0.200000 0.200000 -0.100000
v 0.229688 0.128125 -0.100000
v -0.900000 0.100000 -0.100000
v -0.300000 0.100000 -0.100000
v -0.228125 0.128125 -0.100000
v -0.200000 0.200000 -0.100000
v -0.228125 0.270312 -0.100000
v -0.300000 0.300000 -0.100000
v -0.900000 0.300000 -0.100000
v -0.970313 0.270312 -0.100000
v -1.000000 0.200000 -0.100000
v -0.970313 0.128125 -0.100000
v -1.500000 0.100000 0.100000
v -1.428125 0.128125 0.100000
v -1.400000 0.200000 0.100000
v -1.428125 0.270312 0.100000
v -1.500000 0.300000 0.100000
v -1.570312 0.270312 0.100001
v -1.600000 0.200000 0.100001
v -1.570312 0.128125 0.100001
v 0.900000 0.100000 0.100000
v 1.500000 0.100000 0.100000
v 1.571875 0.128125 0.099999
v 1.600000 0.200000 0.099999
v 1.571875 0.270312 0.099999
v 1.500000 0.300000 0.100000
v 0.900000 0.300000 0.100000
v 0.829688 0.270312 0.100000
v 0.800000 0.200000 0.100000
v 0.829688 0.128125 0.100000
v 0.300000 0.100000 0.100000
v 0.371875 0.128125 0.100000
v 0.400000 0.200000 0.100000
v 0.371875 0.270312 0.100000
v 0.300000 0.300000 0.100000
v 0.229688 0.270312 0.100000
v 0.200000 0.200000 0.100000
v 0.229688 0.128125 0.100000
v -0.900000 0.100000 0.100000
v -0.300000 0.100000 0.100000
v -0.228125 0.128125 0.100000
v -0.200000 0.200000 0.100000
v -0.228125 0.270312 0.100000
v -0.300000 0.300000 0.100000
v -0.900000 0.300000 0.100000
v -0.970312 0.270312 0.100000
v -1.000000 0.200000 0.100000
v -0.970312 0.128125 0.100000
v 0.900000 0.100000 0.100000
v 0.900000 0.100000 -0.100000
v 1.500000 0.100000 0.100000
v 1.500000 0.100000 -0.100000
v 1.571875 0.128125 0.099999
v 1.571875 0.128125 -0.100001
v 1.600000 0.200000 0.099999
v 1.600000 0.200000 -0.100001
v 1.571875 0.270312 0.099999
v 1.571875 0.270312 -0.100001
v 1.500000 0.300000 0.100000
v 1.500000 0.300000 -0.100001
v 0.900000 0.300000 0.100000
v 0.900000 0.300000 -0.100000
v 0.829688 0.270312 0.100000
v 0.829687 0.270312 -0.100000
v 0.800000 0.200000 0.100000
v 0.800000 0.200000 -0.100000
v 0.829688 0.128125 0.100000
v 0.829687 0.128125 -0.100000
v 0.300000 0.100000 0.100000
v 0.300000 0.100000 -0.100000
v 0.371875 0.128125 0.100000
v 0.371875 0.128125 -0.100000
v 0.400000 0.200000 0.100000
v 0.400000 0.200000 -0.100000
v 0.371875 0.270312 0.100000
v 0.371875 0.270312 -0.100000
v 0.300000 0.300000 0.100000
v 0.300000 0.300000 -0.100000
v 0.229688 0.270312 0.100000
v 0.229688 0.270312 -0.100000
v 0.200000 0.200000 0.100000
v 0.200000 0.200000 -0.100000
v 0.229688 0.128125 0.100000
v 0.229688 0.128125 -0.100000
v -0.900000 0.100000 0.100000
v -0.900000 0.100000 -0.100000
v -0.300000 0.100000 0.100000
v -0.300000 0.100000 -0.100000
v -0.228125 0.128125 0.100000
v -0.228125 0.128125 -0.100000
v -0.200000 0.200000 0.100000
v -0.200000 0.200000 -0.100000
v -0.228125 0.270312 0.100000
v -0.228125 0.270312 -0.100000
v -0.300000 0.300000 0.100000
v -0.300000 0.300000 -0.100000
v -0.900000 0.300000 0.100000
v -0.900000 0.300000 -0.100000
v -0.970312 0.270312 0.100000
v -0.970313 0.270312 -0.100000
v -1.000000 0.200000 0.100000
v -1.000000 0.200000 -0.100000
v -0.970312 0.128125 0.100000
v -0.970313 0.128125 -0.100000
v -1.500000 0.100000 0.100000
v -1.500000 0.100000 -0.100000
v -1.428125 0.128125 0.100000
v -1.428125 0.128125 -0.100000
v -1.400000 0.200000 0.100000
v -1.400000 0.200000 -0.100000
v -1.428125 0.270312 0.100000
v -1.428125 0.270312 -0.100000
v -1.500000 0.300000 0.100000
v -1.500000 0.300000 -0.100000
v -1.570312 0.270312 0.100001
v -1.570312 0.270312 -0.100000
v -1.600000 0.200000 0.100001
v -1.600000 0.200000 -0.099999
v -1.570312 0.128125 0.100001
v -1.570312 0.128125 -0.099999
vn -0.0000 -0.0000 -1.0000
vn -0.0000 -0.0000 1.0000
vn -0.1891 -0.9820 -0.0000
vn 0.1854 -0.9827 -0.0000
vn 0.7071 -0.7071 -0.0000
vn 1.0000 0.0038 -0.0000
vn 0.7111 0.7031 -0.0000
vn 0.1946 0.9809 -0.0000
vn -0.1984 0.9801 -0.0000
vn -0.7071 0.7071 -0.0000
vn -1.0000 0.0039 -0.0000
vn -0.7031 -0.7111 -0.0000
vn -0.0038 -1.0000 -0.0000
vn -0.0039 1.0000 -0.0000
vt 0.342857 0.000000
vt 0.400000 0.000000
vt 0.371429 0.000000
vt 0.428571 0.000000
vt 0.314286 0.000000
vt 0.457143 0.000000
vt 0.285714 0.000000
vt 0.485714 0.000000
vt 0.257143 0.000000
vt 0.228571 0.000000
vt 0.600000 0.000000
vt 0.657143 0.000000
vt 0.628571 0.000000
vt 0.571429 0.000000
vt 0.685714 0.000000
vt 0.542857 0.000000
vt 0.714286 0.000000
vt 0.514286 0.000000
vt 0.857143 0.000000
vt 0.914286 0.000000
vt 0.885714 0.000000
vt 0.942857 0.000000
vt 0.828571 0.000000
vt 0.971429 0.000000
vt 0.800000 0.000000
vt 1.000000 0.000000
vt 0.771429 0.000000
vt 0.742857 0.000000
vt 0.085714 0.000000
vt 0.142857 0.000000
vt 0.114286 0.000000
vt 0.057143 0.000000
vt 0.171429 0.000000
vt 0.028571 0.000000
vt 0.200000 0.000000
vt 0.000000 0.000000
vt 0.000000 1.000000
vt 0.100000 1.000000
vt 0.100000 0.000000
vt 0.200000 1.000000
vt 0.300000 1.000000
vt 0.300000 0.000000
vt 0.400000 1.000000
vt 0.500000 1.000000
vt 0.500000 0.000000
vt 0.600000 1.000000
vt 0.700000 1.000000
vt 0.700000 0.000000
vt 0.800000 1.000000
vt 0.900000 1.000000
vt 0.900000 0.000000
vt 1.000000 1.000000
vt 0.125000 1.000000
vt 0.125000 0.000000
vt 0.250000 1.000000
vt 0.250000 0.000000
vt 0.375000 1.000000
vt 0.375000 0.000000
vt 0.625000 1.000000
vt 0.625000 0.000000
vt 0.750000 1.000000
vt 0.750000 0.000000
vt 0.875000 1.000000
vt 0.875000 0.000000
s 0
f 13/1/1 15/2/1 14/3/1
f 13/1/1 16/4/1 15/2/1
f 12/5/1 16/4/1 13/1/1
f 12/5/1 17/6/1 16/4/1
f 11/7/1 17/6/1 12/5/1
f 11/7/1 18/8/1 17/6/1
f 10/9/1 18/8/1 11/7/1
f 10/9/1 9/10/1 18/8/1
f 22/11/1 24/12/1 23/13/1
f 21/14/1 24/12/1 22/11/1
f 21/14/1 25/15/1 24/12/1
f 20/16/1 25/15/1 21/14/1
f 20/16/1 26/17/1 25/15/1
f 19/18/1 26/17/1 20/16/1
f 31/19/1 33/20/1 32/21/1
f 31/19/1 34/22/1 33/20/1
f 30/23/1 34/22/1 31/19/1
f 30/23/1 35/24/1 34/22/1
f 29/25/1 35/24/1 30/23/1
f 29/25/1 36/26/1 35/24/1
f 28/27/1 36/26/1 29/25/1
f 28/27/1 27/28/1 36/26/1
f 4/29/1 6/30/1 5/31/1
f 3/32/1 6/30/1 4/29/1
f 3/32/1 7/33/1 6/30/1
f 2/34/1 7/33/1 3/32/1
f 2/34/1 8/35/1 7/33/1
f 1/36/1 8/35/1 2/34/1
f 49/1/2 50/3/2 51/2/2
f 49/1/2 51/2/2 52/4/2
f 48/5/2 49/1/2 52/4/2
f 48/5/2 52/4/2 53/6/2
f 47/7/2 48/5/2 53/6/2
f 47/7/2 53/6/2 54/8/2
f 46/9/2 47/7/2 54/8/2
f 46/9/2 54/8/2 45/10/2
f 58/11/2 59/13/2 60/12/2
f 57/14/2 58/11/2 60/12/2
f 57/14/2 60/12/2 61/15/2
f 56/16/2 57/14/2 61/15/2
f 56/16/2 61/15/2 62/17/2
f 55/18/2 56/16/2 62/17/2
f 67/19/2 68/21/2 69/20/2
f 67/19/2 69/20/2 70/22/2
f 66/23/2 67/19/2 70/22/2
f 66/23/2 70/22/2 71/24/2
f 65/25/2 66/23/2 71/24/2
f 65/25/2 71/24/2 72/26/2
f 64/27/2 65/25/2 72/26/2
f 64/27/2 72/26/2 63/28/2
f 40/29/2 41/31/2 42/30/2
f 39/32/2 40/29/2 42/30/2
f 39/32/2 42/30/2 43/33/2
f 38/34/2 39/32/2 43/33/2
f 38/34/2 43/33/2 44/35/2
f 37/36/2 38/34/2 44/35/2
s 1
f 74/37/3 76/38/4 75/39/4 73/36/3
f 76/38/4 78/40/5 77/35/5 75/39/4
f 78/40/5 80/41/6 79/42/6 77/35/5
f 80/41/6 82/43/7 81/2/7 79/42/6
f 82/43/7 84/44/8 83/45/8 81/2/7
f 84/44/8 86/46/9 85/11/9 83/45/8
f 86/46/9 88/47/10 87/48/10 85/11/9
f 88/47/10 90/49/11 89/25/11 87/48/10
f 90/49/11 92/50/12 91/51/12 89/25/11
f 92/50/12 74/52/3 73/26/3 91/51/12
f 94/37/13 96/53/5 95/54/5 93/36/13
f 96/53/5 98/55/6 97/56/6 95/54/5
f 98/55/6 100/57/7 99/58/7 97/56/6
f 100/57/7 102/44/14 101/45/14 99/58/7
f 102/44/14 104/59/10 103/60/10 101/45/14
f 104/59/10 106/61/11 105/62/11 103/60/10
f 106/61/11 108/63/12 107/64/12 105/62/11
f 108/63/12 94/52/13 93/26/13 107/64/12
f 110/37/3 112/38/4 111/39/4 109/36/3
f 112/38/4 114/40/5 113/35/5 111/39/4
f 114/40/5 116/41/6 115/42/6 113/35/5
f 116/41/6 118/43/7 117/2/7 115/42/6
f 118/43/7 120/44/8 119/45/8 117/2/7
f 120/44/8 122/46/9 121/11/9 119/45/8
f 122/46/9 124/47/10 123/48/10 121/11/9
f 124/47/10 126/49/11 125/25/11 123/48/10
f 126/49/11 128/50/12 127/51/12 125/25/11
f 128/50/12 110/52/3 109/26/3 127/51/12
f 130/37/13 132/53/5 131/54/5 129/36/13
f 132/53/5 134/55/6 133/56/6 131/54/5
f 134/55/6 136/57/7 135/58/7 133/56/6
f 136/57/7 138/44/14 137/45/14 135/58/7
f 138/44/14 140/59/10 139/60/10 137/45/14
f 140/59/10 142/61/11 141/62/11 139/60/10
f 142/61/11 144/63/12 143/64/12 141/62/11
f 144/63/12 130/52/13 129/26/13 143/64/12
