# Blender 4.1.1
# www.blender.org
o D
v -0.900000 0.100000 -0.100000
v -0.828125 0.128125 -0.100000
v -0.800000 0.200000 -0.100000
v -0.828125 0.270312 -0.100000
v -0.900000 0.300000 -0.100000
v -0.970313 0.270312 -0.100000
v -1.000000 0.200000 -0.100000
v -0.970313 0.128125 -0.100000
v 0.300000 0.100000 -0.100000
v 0.900000 0.100000 -0.100000
v 0.971875 0.128125 -0.100000
v 1.000000 0.200000 -0.100000
v 0.971875 0.270312 -0.100000
v 0.900000 0.300000 -0.100000
v 0.300000 0.300000 -0.100000
v 0.229687 0.270312 -0.100000
v 0.200000 0.200000 -0.100000
v 0.229687 0.128125 -0.100000
v -0.300000 0.100000 -0.100000
v -0.228125 0.128125 -0.100000
v -0.200000 0.200000 -0.100000
v -0.228125 0.270312 -0.100000
v -0.300000 0.300000 -0.100000
v -0.370312 0.270312 -0.100000
v -0.400000 0.200000 -0.100000
v -0.370312 0.128125 -0.100000
v -0.900000 0.100000 0.100000
v -0.828125 0.128125 0.100000
v -0.800000 0.200000 0.100000
v -0.828125 0.270312 0.100000
v -0.900000 0.300000 0.100000
v -0.970313 0.270312 0.100000
v -1.000000 0.200000 0.100000
v -0.970313 0.128125 0.100000
v 0.300000 0.100000 0.100000
v 0.900000 0.100000 0.100000
v 0.971875 0.128125 0.100000
v 1.000000 0.200000 0.100000
v 0.971875 0.270312 0.100000
v 0.900000 0.300000 0.100000
v 0.300000 0.300000 0.100000
v 0.229688 0.270312 0.100000
v 0.200000 0.200000 0.100000
v 0.229688 0.128125 0.100000
v -0.300000 0.100000 0.100000
v -0.228125 0.128125 0.100000
v -0.200000 0.200000 0.100000
v -0.228125 0.270312 0.100000
v -0.300000 0.300000 0.100000
v -0.370312 0.270312 0.100000
v -0.400000 0.200000 0.100000
v -0.370312 0.128125 0.100000
v 0.300000 0.100000 0.100000
v 0.300000 0.100000 -0.100000
v 0.900000 0.100000 0.100000
v 0.900000 0.100000 -0.100000
v 0.971875 0.128125 0.100000
v 0.971875 0.128125 -0.100000
v 1.000000 0.200000 0.100000
v 1.000000 0.200000 -0.100000
v 0.971875 0.270312 0.100000
v 0.971875 0.270312 -0.100000
v 0.900000 0.300000 0.100000
v 0.900000 0.300000 -0.100000
v 0.300000 0.300000 0.100000
v 0.300000 0.300000 -0.100000
v 0.229688 0.270312 0.100000
v 0.229687 0.270312 -0.100000
v 0.200000 0.200000 0.100000
v 0.200000 0.200000 -0.100000
v 0.229688 0.128125 0.100000
v 0.229687 0.128125 -0.100000
v -0.300000 0.100000 0.100000
v -0.300000 0.100000 -0.100000
v -0.228125 0.128125 0.100000
v -0.228125 0.128125 -0.100000
v -0.200000 0.200000 0.100000
v -0.200000 0.200000 -0.100000
v -0.228125 0.270312 0.100000
v -0.228125 0.270312 -0.100000
v -0.300000 0.300000 0.100000
v -0.300000 0.300000 -0.100000
v -0.370312 0.270312 0.100000
v -0.370312 0.270312 -0.100000
v -0.400000 0.200000 0.100000
v -0.400000 0.200000 -0.100000
v -0.370312 0.128125 0.100000
v -0.370312 0.128125 -0.100000
v -0.900000 0.100000 0.100000
v -0.900000 0.100000 -0.100000
v -0.828125 0.128125 0.100000
v -0.828125 0.128125 -0.100000
v -0.800000 0.200000 0.100000
v -0.800000 0.200000 -0.100000
v -0.828125 0.270312 0.100000
v -0.828125 0.270312 -0.100000
v -0.900000 0.300000 0.100000
v -0.900000 0.300000 -0.100000
v -0.970313 0.270312 0.100000
v -0.970313 0.270312 -0.100000
v -1.000000 0.200000 0.100000
v -1.000000 0.200000 -0.100000
v -0.970313 0.128125 0.100000
v -0.970313 0.128125 -0.100000
vn -0.0000 -0.0000 -1.0000
vn -0.0000 -0.0000 1.0000
vn -0.1891 -0.9820 -0.0000
vn 0.1854 -0.9827 -0.0000
vn 0.7071 -0.7071 -0.0000
vn 1.0000 0.0038 -0.0000
vn 0.7111 0.7031 -0.0000
vn 0.1946 0.9809 -0.0000
vn -0.1984 0.9801 -0.0000
vn -0.7071 0.7071 -0.0000
vn -1.0000 0.0039 -0.0000
vn -0.7031 -0.7111 -0.0000
vn -0.0038 -1.0000 -0.0000
vn -0.0039 1.0000 -0.0000
vt 0.480000 0.000000
vt 0.560000 0.000000
vt 0.520000 0.000000
vt 0.600000 0.000000
vt 0.440000 0.000000
vt 0.640000 0.000000
vt 0.400000 0.000000
vt 0.680000 0.000000
vt 0.360000 0.000000
vt 0.320000 0.000000
vt 0.840000 0.000000
vt 0.920000 0.000000
vt 0.880000 0.000000
vt 0.800000 0.000000
vt 0.960000 0.000000
vt 0.760000 0.000000
vt 1.000000 0.000000
vt 0.720000 0.000000
vt 0.120000 0.000000
vt 0.200000 0.000000
vt 0.160000 0.000000
vt 0.080000 0.000000
vt 0.240000 0.000000
vt 0.040000 0.000000
vt 0.280000 0.000000
vt 0.000000 0.000000
vt 0.000000 1.000000
vt 0.100000 1.000000
vt 0.100000 0.000000
vt 0.200000 1.000000
vt 0.300000 1.000000
vt 0.300000 0.000000
vt 0.400000 1.000000
vt 0.500000 1.000000
vt 0.500000 0.000000
vt 0.600000 1.000000
vt 0.700000 1.000000
vt 0.700000 0.000000
vt 0.800000 1.000000
vt 0.900000 1.000000
vt 0.900000 0.000000
vt 1.000000 1.000000
vt 0.125000 1.000000
vt 0.125000 0.000000
vt 0.250000 1.000000
vt 0.250000 0.000000
vt 0.375000 1.000000
vt 0.375000 0.000000
vt 0.625000 1.000000
vt 0.625000 0.000000
vt 0.750000 1.000000
vt 0.750000 0.000000
vt 0.875000 1.000000
vt 0.875000 0.000000
s 0
f 13/1/1 15/2/1 14/3/1
f 13/1/1 16/4/1 15/2/1
f 12/5/1 16/4/1 13/1/1
f 12/5/1 17/6/1 16/4/1
f 11/7/1 17/6/1 12/5/1
f 11/7/1 18/8/1 17/6/1
f 10/9/1 18/8/1 11/7/1
f 10/9/1 9/10/1 18/8/1
f 22/11/1 24/12/1 23/13/1
f 21/14/1 24/12/1 22/11/1
f 21/14/1 25/15/1 24/12/1
f 20/16/1 25/15/1 21/14/1
f 20/16/1 26/17/1 25/15/1
f 19/18/1 26/17/1 20/16/1
f 4/19/1 6/20/1 5/21/1
f 3/22/1 6/20/1 4/19/1
f 3/22/1 7/23/1 6/20/1
f 2/24/1 7/23/1 3/22/1
f 2/24/1 8/25/1 7/23/1
f 1/26/1 8/25/1 2/24/1
f 39/1/2 40/3/2 41/2/2
f 39/1/2 41/2/2 42/4/2
f 38/5/2 39/1/2 42/4/2
f 38/5/2 42/4/2 43/6/2
f 37/7/2 38/5/2 43/6/2
f 37/7/2 43/6/2 44/8/2
f 36/9/2 37/7/2 44/8/2
f 36/9/2 44/8/2 35/10/2
f 48/11/2 49/13/2 50/12/2
f 47/14/2 48/11/2 50/12/2
f 47/14/2 50/12/2 51/15/2
f 46/16/2 47/14/2 51/15/2
f 46/16/2 51/15/2 52/17/2
f 45/18/2 46/16/2 52/17/2
f 30/19/2 31/21/2 32/20/2
f 29/22/2 30/19/2 32/20/2
f 29/22/2 32/20/2 33/23/2
f 28/24/2 29/22/2 33/23/2
f 28/24/2 33/23/2 34/25/2
f 27/26/2 28/24/2 34/25/2
s 1
f 54/27/3 56/28/4 55/29/4 53/26/3
f 56/28/4 58/30/5 57/20/5 55/29/4
f 58/30/5 60/31/6 59/32/6 57/20/5
f 60/31/6 62/33/7 61/7/7 59/32/6
f 62/33/7 64/34/8 63/35/8 61/7/7
f 64/34/8 66/36/9 65/4/9 63/35/8
f 66/36/9 68/37/10 67/38/10 65/4/9
f 68/37/10 70/39/11 69/14/11 67/38/10
f 70/39/11 72/40/12 71/41/12 69/14/11
f 72/40/12 54/42/3 53/17/3 71/41/12
f 74/27/13 76/43/5 75/44/5 73/26/13
f 76/43/5 78/45/6 77/46/6 75/44/5
f 78/45/6 80/47/7 79/48/7 77/46/6
f 80/47/7 82/34/14 81/35/14 79/48/7
f 82/34/14 84/49/10 83/50/10 81/35/14
f 84/49/10 86/51/11 85/52/11 83/50/10
f 86/51/11 88/53/12 87/54/12 85/52/11
f 88/53/12 74/42/13 73/17/13 87/54/12
f 90/27/13 92/43/5 91/44/5 89/26/13
f 92/43/5 94/45/6 93/46/6 91/44/5
f 94/45/6 96/47/7 95/48/7 93/46/6
f 96/47/7 98/34/14 97/35/14 95/48/7
f 98/34/14 100/49/10 99/50/10 97/35/14
f 100/49/10 102/51/11 101/52/11 99/50/10
f 102/51/11 104/53/12 103/54/12 101/52/11
f 104/53/12 90/42/13 89/17/13 103/54/12
