# Blender 4.1.1
# www.blender.org
o G
v -1.200000 0.100000 -0.100000
v -1.128125 0.128125 -0.100000
v -1.100000 0.200000 -0.100000
v -1.128125 0.270312 -0.100000
v -1.200000 0.300000 -0.100000
v -1.270313 0.270312 -0.100000
v -1.300000 0.200000 -0.100000
v -1.270313 0.128125 -0.100000
v 0.600000 0.100000 -0.100000
v 1.200000 0.100000 -0.100000
v 1.271875 0.128125 -0.100000
v 1.300000 0.200000 -0.100000
v 1.271875 0.270312 -0.100000
v 1.200000 0.300000 -0.100000
v 0.600000 0.300000 -0.100000
v 0.529687 0.270312 -0.100000
v 0.500000 0.200000 -0.100000
v 0.529687 0.128125 -0.100000
v -0.600000 0.100000 -0.100000
v -0.000000 0.100000 -0.100000
v 0.071875 0.128125 -0.100000
v 0.100000 0.200000 -0.100000
v 0.071875 0.270312 -0.100000
v -0.000000 0.300000 -0.100000
v -0.600000 0.300000 -0.100000
v -0.670313 0.270312 -0.100000
v -0.700000 0.200000 -0.100000
v -0.670313 0.128125 -0.100000
v -1.200000 0.100000 0.100000
v -1.128125 0.128125 0.100000
v -1.100000 0.200000 0.100000
v -1.128125 0.270312 0.100000
v -1.200000 0.300000 0.100000
v -1.270313 0.270312 0.100000
v -1.300000 0.200000 0.100000
v -1.270313 0.128125 0.100000
v 0.600000 0.100000 0.100000
v 1.200000 0.100000 0.100000
v 1.271875 0.128125 0.100000
v 1.300000 0.200000 0.100000
v 1.271875 0.270312 0.100000
v 1.200000 0.300000 0.100000
v 0.600000 0.300000 0.100000
v 0.529688 0.270312 0.100000
v 0.500000 0.200000 0.100000
v 0.529688 0.128125 0.100000
v -0.600000 0.100000 0.100000
v 0.000000 0.100000 0.100000
v 0.071875 0.128125 0.100000
v 0.100000 0.200000 0.100000
v 0.071875 0.270312 0.100000
v 0.000000 0.300000 0.100000
v -0.600000 0.300000 0.100000
v -0.670313 0.270312 0.100000
v -0.700000 0.200000 0.100000
v -0.670313 0.128125 0.100000
v 0.600000 0.100000 0.100000
v 0.600000 0.100000 -0.100000
v 1.200000 0.100000 0.100000
v 1.200000 0.100000 -0.100000
v 1.271875 0.128125 0.100000
v 1.271875 0.128125 -0.100000
v 1.300000 0.200000 0.100000
v 1.300000 0.200000 -0.100000
v 1.271875 0.270312 0.100000
v 1.271875 0.270312 -0.100000
v 1.200000 0.300000 0.100000
v 1.200000 0.300000 -0.100000
v 0.600000 0.300000 0.100000
v 0.600000 0.300000 -0.100000
v 0.529688 0.270312 0.100000
v 0.529687 0.270312 -0.100000
v 0.500000 0.200000 0.100000
v 0.500000 0.200000 -0.100000
v 0.529688 0.128125 0.100000
v 0.529687 0.128125 -0.100000
v -0.600000 0.100000 0.100000
v -0.600000 0.100000 -0.100000
v 0.000000 0.100000 0.100000
v -0.000000 0.100000 -0.100000
v 0.071875 0.128125 0.100000
v 0.071875 0.128125 -0.100000
v 0.100000 0.200000 0.100000
v 0.100000 0.200000 -0.100000
v 0.071875 0.270312 0.100000
v 0.071875 0.270312 -0.100000
v 0.000000 0.300000 0.100000
v -0.000000 0.300000 -0.100000
v -0.600000 0.300000 0.100000
v -0.600000 0.300000 -0.100000
v -0.670313 0.270312 0.100000
v -0.670313 0.270312 -0.100000
v -0.700000 0.200000 0.100000
v -0.700000 0.200000 -0.100000
v -0.670313 0.128125 0.100000
v -0.670313 0.128125 -0.100000
v -1.200000 0.100000 0.100000
v -1.200000 0.100000 -0.100000
v -1.128125 0.128125 0.100000
v -1.128125 0.128125 -0.100000
v -1.100000 0.200000 0.100000
v -1.100000 0.200000 -0.100000
v -1.128125 0.270312 0.100000
v -1.128125 0.270312 -0.100000
v -1.200000 0.300000 0.100000
v -1.200000 0.300000 -0.100000
v -1.270313 0.270312 0.100000
v -1.270313 0.270312 -0.100000
v -1.300000 0.200000 0.100000
v -1.300000 0.200000 -0.100000
v -1.270313 0.128125 0.100000
v -1.270313 0.128125 -0.100000
vn -0.0000 -0.0000 -1.0000
vn -0.0000 -0.0000 1.0000
vn -0.1891 -0.9820 -0.0000
vn 0.1854 -0.9827 -0.0000
vn 0.7071 -0.7071 -0.0000
vn 1.0000 0.0038 -0.0000
vn 0.7111 0.7031 -0.0000
vn 0.1946 0.9809 -0.0000
vn -0.1984 0.9801 -0.0000
vn -0.7071 0.7071 -0.0000
vn -1.0000 0.0039 -0.0000
vn -0.7031 -0.7111 -0.0000
vn -0.0038 -1.0000 -0.0000
vn -0.0039 1.0000 -0.0000
vt 0.444444 0.000000
vt 0.518519 0.000000
vt 0.481481 0.000000
vt 0.555556 0.000000
vt 0.407407 0.000000
vt 0.592593 0.000000
vt 0.370370 0.000000
vt 0.629630 0.000000
vt 0.333333 0.000000
vt 0.296296 0.000000
vt 0.814815 0.000000
vt 0.888889 0.000000
vt 0.851852 0.000000
vt 0.925926 0.000000
vt 0.777778 0.000000
vt 0.962963 0.000000
vt 0.740741 0.000000
vt 1.000000 0.000000
vt 0.703704 0.000000
vt 0.666667 0.000000
vt 0.111111 0.000000
vt 0.185185 0.000000
vt 0.148148 0.000000
vt 0.074074 0.000000
vt 0.222222 0.000000
vt 0.037037 0.000000
vt 0.259259 0.000000
vt 0.000000 0.000000
vt 0.000000 1.000000
vt 0.100000 1.000000
vt 0.100000 0.000000
vt 0.200000 1.000000
vt 0.200000 0.000000
vt 0.300000 1.000000
vt 0.300000 0.000000
vt 0.400000 1.000000
vt 0.400000 0.000000
vt 0.500000 1.000000
vt 0.500000 0.000000
vt 0.600000 1.000000
vt 0.600000 0.000000
vt 0.700000 1.000000
vt 0.700000 0.000000
vt 0.800000 1.000000
vt 0.800000 0.000000
vt 0.900000 1.000000
vt 0.900000 0.000000
vt 1.000000 1.000000
vt 0.125000 1.000000
vt 0.125000 0.000000
vt 0.250000 1.000000
vt 0.250000 0.000000
vt 0.375000 1.000000
vt 0.375000 0.000000
vt 0.625000 1.000000
vt 0.625000 0.000000
vt 0.750000 1.000000
vt 0.750000 0.000000
vt 0.875000 1.000000
vt 0.875000 0.000000
s 0
f 13/1/1 15/2/1 14/3/1
f 13/1/1 16/4/1 15/2/1
f 12/5/1 16/4/1 13/1/1
f 12/5/1 17/6/1 16/4/1
f 11/7/1 17/6/1 12/5/1
f 11/7/1 18/8/1 17/6/1
f 10/9/1 18/8/1 11/7/1
f 10/9/1 9/10/1 18/8/1
f 23/11/1 25/12/1 24/13/1
f 23/11/1 26/14/1 25/12/1
f 22/15/1 26/14/1 23/11/1
f 22/15/1 27/16/1 26/14/1
f 21/17/1 27/16/1 22/15/1
f 21/17/1 28/18/1 27/16/1
f 20/19/1 28/18/1 21/17/1
f 20/19/1 19/20/1 28/18/1
f 4/21/1 6/22/1 5/23/1
f 3/24/1 6/22/1 4/21/1
f 3/24/1 7/25/1 6/22/1
f 2/26/1 7/25/1 3/24/1
f 2/26/1 8/27/1 7/25/1
f 1/28/1 8/27/1 2/26/1
f 41/1/2 42/3/2 43/2/2
f 41/1/2 43/2/2 44/4/2
f 40/5/2 41/1/2 44/4/2
f 40/5/2 44/4/2 45/6/2
f 39/7/2 40/5/2 45/6/2
f 39/7/2 45/6/2 46/8/2
f 38/9/2 39/7/2 46/8/2
f 38/9/2 46/8/2 37/10/2
f 51/11/2 52/13/2 53/12/2
f 51/11/2 53/12/2 54/14/2
f 50/15/2 51/11/2 54/14/2
f 50/15/2 54/14/2 55/16/2
f 49/17/2 50/15/2 55/16/2
f 49/17/2 55/16/2 56/18/2
f 48/19/2 49/17/2 56/18/2
f 48/19/2 56/18/2 47/20/2
f 32/21/2 33/23/2 34/22/2
f 31/24/2 32/21/2 34/22/2
f 31/24/2 34/22/2 35/25/2
f 30/26/2 31/24/2 35/25/2
f 30/26/2 35/25/2 36/27/2
f 29/28/2 30/26/2 36/27/2
s 1
f 58/29/3 60/30/4 59/31/4 57/28/3
f 60/30/4 62/32/5 61/33/5 59/31/4
f 62/32/5 64/34/6 63/35/6 61/33/5
f 64/34/6 66/36/7 65/37/7 63/35/6
f 66/36/7 68/38/8 67/39/8 65/37/7
f 68/38/8 70/40/9 69/41/9 67/39/8
f 70/40/9 72/42/10 71/43/10 69/41/9
f 72/42/10 74/44/11 73/45/11 71/43/10
f 74/44/11 76/46/12 75/47/12 73/45/11
f 76/46/12 58/48/3 57/18/3 75/47/12
f 78/29/3 80/30/4 79/31/4 77/28/3
f 80/30/4 82/32/5 81/33/5 79/31/4
f 82/32/5 84/34/6 83/35/6 81/33/5
f 84/34/6 86/36/7 85/37/7 83/35/6
f 86/36/7 88/38/8 87/39/8 85/37/7
f 88/38/8 90/40/9 89/41/9 87/39/8
f 90/40/9 92/42/10 91/43/10 89/41/9
f 92/42/10 94/44/11 93/45/11 91/43/10
f 94/44/11 96/46/12 95/47/12 93/45/11
f 96/46/12 78/48/3 77/18/3 95/47/12
f 98/29/13 100/49/5 99/50/5 97/28/13
f 100/49/5 102/51/6 101/52/6 99/50/5
f 102/51/6 104/53/7 103/54/7 101/52/6
f 104/53/7 106/38/14 105/39/14 103/54/7
f 106/38/14 108/55/10 107/56/10 105/39/14
f 108/55/10 110/57/11 109/58/11 107/56/10
f 110/57/11 112/59/12 111/60/12 109/58/11
f 112/59/12 98/48/13 97/18/13 111/60/12
