# Blender 4.1.1
# www.blender.org
o H
v -0.900000 0.100000 -0.100000
v -0.828125 0.128125 -0.100000
v -0.800000 0.200000 -0.100000
v -0.828125 0.270312 -0.100000
v -0.900000 0.300000 -0.100000
v -0.970313 0.270312 -0.100000
v -1.000000 0.200000 -0.100000
v -0.970313 0.128125 -0.100000
v 0.900000 0.100000 -0.100000
v 0.971875 0.128125 -0.100000
v 1.000000 0.200000 -0.100000
v 0.971875 0.270312 -0.100000
v 0.900000 0.300000 -0.100000
v 0.829687 0.270312 -0.100000
v 0.800000 0.200000 -0.100000
v 0.829687 0.128125 -0.100000
v 0.300000 0.100000 -0.100000
v 0.371875 0.128125 -0.100000
v 0.400000 0.200000 -0.100000
v 0.371875 0.270312 -0.100000
v 0.300000 0.300000 -0.100000
v 0.229687 0.270312 -0.100000
v 0.200000 0.200000 -0.100000
v 0.229687 0.128125 -0.100000
v -0.300000 0.100000 -0.100000
v -0.228125 0.128125 -0.100000
v -0.200000 0.200000 -0.100000
v -0.228125 0.270312 -0.100000
v -0.300000 0.300000 -0.100000
v -0.370312 0.270312 -0.100000
v -0.400000 0.200000 -0.100000
v -0.370312 0.128125 -0.100000
v -0.900000 0.100000 0.100000
v -0.828125 0.128125 0.100000
v -0.800000 0.200000 0.100000
v -0.828125 0.270312 0.100000
v -0.900000 0.300000 0.100000
v -0.970313 0.270312 0.100000
v -1.000000 0.200000 0.100000
v -0.970313 0.128125 0.100000
v 0.900000 0.100000 0.100000
v 0.971875 0.128125 0.100000
v 1.000000 0.200000 0.100000
v 0.971875 0.270312 0.100000
v 0.900000 0.300000 0.100000
v 0.829688 0.270312 0.100000
v 0.800000 0.200000 0.100000
v 0.829688 0.128125 0.100000
v 0.300000 0.100000 0.100000
v 0.371875 0.128125 0.100000
v 0.400000 0.200000 0.100000
v 0.371875 0.270312 0.100000
v 0.300000 0.300000 0.100000
v 0.229688 0.270312 0.100000
v 0.200000 0.200000 0.100000
v 0.229688 0.128125 0.100000
v -0.300000 0.100000 0.100000
v -0.228125 0.128125 0.100000
v -0.200000 0.200000 0.100000
v -0.228125 0.270312 0.100000
v -0.300000 0.300000 0.100000
v -0.370312 0.270312 0.100000
v -0.400000 0.200000 0.100000
v -0.370312 0.128125 0.100000
v 0.900000 0.100000 0.100000
v 0.900000 0.100000 -0.100000
v 0.971875 0.128125 0.100000
v 0.971875 0.128125 -0.100000
v 1.000000 0.200000 0.100000
v 1.000000 0.200000 -0.100000
v 0.971875 0.270312 0.100000
v 0.971875 0.270312 -0.100000
v 0.900000 0.300000 0.100000
v 0.900000 0.300000 -0.100000
v 0.829688 0.270312 0.100000
v 0.829687 0.270312 -0.100000
v 0.800000 0.200000 0.100000
v 0.800000 0.200000 -0.100000
v 0.829688 0.128125 0.100000
v 0.829687 0.128125 -0.100000
v 0.300000 0.100000 0.100000
v 0.300000 0.100000 -0.100000
v 0.371875 0.128125 0.100000
v 0.371875 0.128125 -0.100000
v 0.400000 0.200000 0.100000
v 0.400000 0.200000 -0.100000
v 0.371875 0.270312 0.100000
v 0.371875 0.270312 -0.100000
v 0.300000 0.300000 0.100000
v 0.300000 0.300000 -0.100000
v 0.229688 0.270312 0.100000
v 0.229687 0.270312 -0.100000
v 0.200000 0.200000 0.100000
v 0.200000 0.200000 -0.100000
v 0.229688 0.128125 0.100000
v 0.229687 0.128125 -0.100000
v -0.300000 0.100000 0.100000
v -0.300000 0.100000 -0.100000
v -0.228125 0.128125 0.100000
v -0.228125 0.128125 -0.100000
v -0.200000 0.200000 0.100000
v -0.200000 0.200000 -0.100000
v -0.228125 0.270312 0.100000
v -0.228125 0.270312 -0.100000
v -0.300000 0.300000 0.100000
v -0.300000 0.300000 -0.100000
v -0.370312 0.270312 0.100000
v -0.370312 0.270312 -0.100000
v -0.400000 0.200000 0.100000
v -0.400000 0.200000 -0.100000
v -0.370312 0.128125 0.100000
v -0.370312 0.128125 -0.100000
v -0.900000 0.100000 0.100000
v -0.900000 0.100000 -0.100000
v -0.828125 0.128125 0.100000
v -0.828125 0.128125 -0.100000
v -0.800000 0.200000 0.100000
v -0.800000 0.200000 -0.100000
v -0.828125 0.270312 0.100000
v -0.828125 0.270312 -0.100000
v -0.900000 0.300000 0.100000
v -0.900000 0.300000 -0.100000
v -0.970313 0.270312 0.100000
v -0.970313 0.270312 -0.100000
v -1.000000 0.200000 0.100000
v -1.000000 0.200000 -0.100000
v -0.970313 0.128125 0.100000
v -0.970313 0.128125 -0.100000
vn -0.0000 -0.0000 -1.0000
vn -0.0000 -0.0000 1.0000
vn -0.0038 -1.0000 -0.0000
vn 0.7071 -0.7071 -0.0000
vn 1.0000 0.0038 -0.0000
vn 0.7111 0.7031 -0.0000
vn -0.0039 1.0000 -0.0000
vn -0.7071 0.7071 -0.0000
vn -1.0000 0.0039 -0.0000
vn -0.7031 -0.7111 -0.0000
vt 0.354839 0.000000
vt 0.419355 0.000000
vt 0.387097 0.000000
vt 0.322581 0.000000
vt 0.451613 0.000000
vt 0.290323 0.000000
vt 0.483871 0.000000
vt 0.258065 0.000000
vt 0.612903 0.000000
vt 0.677419 0.000000
vt 0.645161 0.000000
vt 0.580645 0.000000
vt 0.709677 0.000000
vt 0.548387 0.000000
vt 0.741935 0.000000
vt 0.516129 0.000000
vt 0.870968 0.000000
vt 0.935484 0.000000
vt 0.903226 0.000000
vt 0.838710 0.000000
vt 0.967742 0.000000
vt 0.806452 0.000000
vt 1.000000 0.000000
vt 0.774194 0.000000
vt 0.096774 0.000000
vt 0.161290 0.000000
vt 0.129032 0.000000
vt 0.064516 0.000000
vt 0.193548 0.000000
vt 0.032258 0.000000
vt 0.225806 0.000000
vt 0.000000 0.000000
vt 0.000000 1.000000
vt 0.125000 1.000000
vt 0.125000 0.000000
vt 0.250000 1.000000
vt 0.250000 0.000000
vt 0.375000 1.000000
vt 0.375000 0.000000
vt 0.500000 1.000000
vt 0.500000 0.000000
vt 0.625000 1.000000
vt 0.625000 0.000000
vt 0.750000 1.000000
vt 0.750000 0.000000
vt 0.875000 1.000000
vt 0.875000 0.000000
vt 1.000000 1.000000
s 0
f 12/1/1 14/2/1 13/3/1
f 11/4/1 14/2/1 12/1/1
f 11/4/1 15/5/1 14/2/1
f 10/6/1 15/5/1 11/4/1
f 10/6/1 16/7/1 15/5/1
f 9/8/1 16/7/1 10/6/1
f 20/9/1 22/10/1 21/11/1
f 19/12/1 22/10/1 20/9/1
f 19/12/1 23/13/1 22/10/1
f 18/14/1 23/13/1 19/12/1
f 18/14/1 24/15/1 23/13/1
f 17/16/1 24/15/1 18/14/1
f 28/17/1 30/18/1 29/19/1
f 27/20/1 30/18/1 28/17/1
f 27/20/1 31/21/1 30/18/1
f 26/22/1 31/21/1 27/20/1
f 26/22/1 32/23/1 31/21/1
f 25/24/1 32/23/1 26/22/1
f 4/25/1 6/26/1 5/27/1
f 3/28/1 6/26/1 4/25/1
f 3/28/1 7/29/1 6/26/1
f 2/30/1 7/29/1 3/28/1
f 2/30/1 8/31/1 7/29/1
f 1/32/1 8/31/1 2/30/1
f 44/1/2 45/3/2 46/2/2
f 43/4/2 44/1/2 46/2/2
f 43/4/2 46/2/2 47/5/2
f 42/6/2 43/4/2 47/5/2
f 42/6/2 47/5/2 48/7/2
f 41/8/2 42/6/2 48/7/2
f 52/9/2 53/11/2 54/10/2
f 51/12/2 52/9/2 54/10/2
f 51/12/2 54/10/2 55/13/2
f 50/14/2 51/12/2 55/13/2
f 50/14/2 55/13/2 56/15/2
f 49/16/2 50/14/2 56/15/2
f 60/17/2 61/19/2 62/18/2
f 59/20/2 60/17/2 62/18/2
f 59/20/2 62/18/2 63/21/2
f 58/22/2 59/20/2 63/21/2
f 58/22/2 63/21/2 64/23/2
f 57/24/2 58/22/2 64/23/2
f 36/25/2 37/27/2 38/26/2
f 35/28/2 36/25/2 38/26/2
f 35/28/2 38/26/2 39/29/2
f 34/30/2 35/28/2 39/29/2
f 34/30/2 39/29/2 40/31/2
f 33/32/2 34/30/2 40/31/2
s 1
f 66/33/3 68/34/4 67/35/4 65/32/3
f 68/34/4 70/36/5 69/37/5 67/35/4
f 70/36/5 72/38/6 71/39/6 69/37/5
f 72/38/6 74/40/7 73/41/7 71/39/6
f 74/40/7 76/42/8 75/43/8 73/41/7
f 76/42/8 78/44/9 77/45/9 75/43/8
f 78/44/9 80/46/10 79/47/10 77/45/9
f 80/46/10 66/48/3 65/23/3 79/47/10
f 82/33/3 84/34/4 83/35/4 81/32/3
f 84/34/4 86/36/5 85/37/5 83/35/4
f 86/36/5 88/38/6 87/39/6 85/37/5
f 88/38/6 90/40/7 89/41/7 87/39/6
f 90/40/7 92/42/8 91/43/8 89/41/7
f 92/42/8 94/44/9 93/45/9 91/43/8
f 94/44/9 96/46/10 95/47/10 93/45/9
f 96/46/10 82/48/3 81/23/3 95/47/10
f 98/33/3 100/34/4 99/35/4 97/32/3
f 100/34/4 102/36/5 101/37/5 99/35/4
f 102/36/5 104/38/6 103/39/6 101/37/5
f 104/38/6 106/40/7 105/41/7 103/39/6
f 106/40/7 108/42/8 107/43/8 105/41/7
f 108/42/8 110/44/9 109/45/9 107/43/8
f 110/44/9 112/46/10 111/47/10 109/45/9
f 112/46/10 98/48/3 97/23/3 111/47/10
f 114/33/3 116/34/4 115/35/4 113/32/3
f 116/34/4 118/36/5 117/37/5 115/35/4
f 118/36/5 120/38/6 119/39/6 117/37/5
f 120/38/6 122/40/7 121/41/7 119/39/6
f 122/40/7 124/42/8 123/43/8 121/41/7
f 124/42/8 126/44/9 125/45/9 123/43/8
f 126/44/9 128/46/10 127/47/10 125/45/9
f 128/46/10 114/48/3 113/23/3 127/47/10
