# Blender 4.1.1
# www.blender.org
o L
v -1.200000 0.100000 -0.100000
v -1.128125 0.128125 -0.100000
v -1.100000 0.200000 -0.100000
v -1.128125 0.270312 -0.100000
v -1.200000 0.300000 -0.100000
v -1.270313 0.270312 -0.100000
v -1.300000 0.200000 -0.100000
v -1.270313 0.128125 -0.100000
v 1.200000 0.100000 -0.100000
v 1.271875 0.128125 -0.100000
v 1.300000 0.200000 -0.100000
v 1.271875 0.270312 -0.100000
v 1.200000 0.300000 -0.100000
v 1.129688 0.270312 -0.100000
v 1.100000 0.200000 -0.100000
v 1.129688 0.128125 -0.100000
v -0.000000 0.100000 -0.100000
v 0.600000 0.100000 -0.100000
v 0.671875 0.128125 -0.100000
v 0.700000 0.200000 -0.100000
v 0.671875 0.270312 -0.100000
v 0.600000 0.300000 -0.100000
v -0.000000 0.300000 -0.100000
v -0.070313 0.270312 -0.100000
v -0.100000 0.200000 -0.100000
v -0.070313 0.128125 -0.100000
v -0.600000 0.100000 -0.100000
v -0.528125 0.128125 -0.100000
v -0.500000 0.200000 -0.100000
v -0.528125 0.270312 -0.100000
v -0.600000 0.300000 -0.100000
v -0.670313 0.270312 -0.100000
v -0.700000 0.200000 -0.100000
v -0.670313 0.128125 -0.100000
v -1.200000 0.100000 0.100000
v -1.128125 0.128125 0.100000
v -1.100000 0.200000 0.100000
v -1.128125 0.270312 0.100000
v -1.200000 0.300000 0.100000
v -1.270313 0.270312 0.100000
v -1.300000 0.200000 0.100000
v -1.270313 0.128125 0.100000
v 1.200000 0.100000 0.100000
v 1.271875 0.128125 0.100000
v 1.300000 0.200000 0.100000
v 1.271875 0.270312 0.100000
v 1.200000 0.300000 0.100000
v 1.129688 0.270312 0.100000
v 1.100000 0.200000 0.100000
v 1.129688 0.128125 0.100000
v 0.000000 0.100000 0.100000
v 0.600000 0.100000 0.100000
v 0.671875 0.128125 0.100000
v 0.700000 0.200000 0.100000
v 0.671875 0.270312 0.100000
v 0.600000 0.300000 0.100000
v 0.000000 0.300000 0.100000
v -0.070312 0.270312 0.100000
v -0.100000 0.200000 0.100000
v -0.070312 0.128125 0.100000
v -0.600000 0.100000 0.100000
v -0.528125 0.128125 0.100000
v -0.500000 0.200000 0.100000
v -0.528125 0.270312 0.100000
v -0.600000 0.300000 0.100000
v -0.670313 0.270312 0.100000
v -0.700000 0.200000 0.100000
v -0.670313 0.128125 0.100000
v 1.200000 0.100000 0.100000
v 1.200000 0.100000 -0.100000
v 1.271875 0.128125 0.100000
v 1.271875 0.128125 -0.100000
v 1.300000 0.200000 0.100000
v 1.300000 0.200000 -0.100000
v 1.271875 0.270312 0.100000
v 1.271875 0.270312 -0.100000
v 1.200000 0.300000 0.100000
v 1.200000 0.300000 -0.100000
v 1.129688 0.270312 0.100000
v 1.129688 0.270312 -0.100000
v 1.100000 0.200000 0.100000
v 1.100000 0.200000 -0.100000
v 1.129688 0.128125 0.100000
v 1.129688 0.128125 -0.100000
v 0.000000 0.100000 0.100000
v -0.000000 0.100000 -0.100000
v 0.600000 0.100000 0.100000
v 0.600000 0.100000 -0.100000
v 0.671875 0.128125 0.100000
v 0.671875 0.128125 -0.100000
v 0.700000 0.200000 0.100000
v 0.700000 0.200000 -0.100000
v 0.671875 0.270312 0.100000
v 0.671875 0.270312 -0.100000
v 0.600000 0.300000 0.100000
v 0.600000 0.300000 -0.100000
v 0.000000 0.300000 0.100000
v -0.000000 0.300000 -0.100000
v -0.070312 0.270312 0.100000
v -0.070313 0.270312 -0.100000
v -0.100000 0.200000 0.100000
v -0.100000 0.200000 -0.100000
v -0.070312 0.128125 0.100000
v -0.070313 0.128125 -0.100000
v -0.600000 0.100000 0.100000
v -0.600000 0.100000 -0.100000
v -0.528125 0.128125 0.100000
v -0.528125 0.128125 -0.100000
v -0.500000 0.200000 0.100000
v -0.500000 0.200000 -0.100000
v -0.528125 0.270312 0.100000
v -0.528125 0.270312 -0.100000
v -0.600000 0.300000 0.100000
v -0.600000 0.300000 -0.100000
v -0.670313 0.270312 0.100000
v -0.670313 0.270312 -0.100000
v -0.700000 0.200000 0.100000
v -0.700000 0.200000 -0.100000
v -0.670313 0.128125 0.100000
v -0.670313 0.128125 -0.100000
v -1.200000 0.100000 0.100000
v -1.200000 0.100000 -0.100000
v -1.128125 0.128125 0.100000
v -1.128125 0.128125 -0.100000
v -1.100000 0.200000 0.100000
v -1.100000 0.200000 -0.100000
v -1.128125 0.270312 0.100000
v -1.128125 0.270312 -0.100000
v -1.200000 0.300000 0.100000
v -1.200000 0.300000 -0.100000
v -1.270313 0.270312 0.100000
v -1.270313 0.270312 -0.100000
v -1.300000 0.200000 0.100000
v -1.300000 0.200000 -0.100000
v -1.270313 0.128125 0.100000
v -1.270313 0.128125 -0.100000
vn -0.0000 -0.0000 -1.0000
vn -0.0000 -0.0000 1.0000
vn -0.0038 -1.0000 -0.0000
vn 0.7071 -0.7071 -0.0000
vn 1.0000 0.0038 -0.0000
vn 0.7111 0.7031 -0.0000
vn -0.0039 1.0000 -0.0000
vn -0.7071 0.7071 -0.0000
vn -1.0000 0.0039 -0.0000
vn -0.7031 -0.7111 -0.0000
vn -0.1891 -0.9820 -0.0000
vn 0.1854 -0.9827 -0.0000
vn 0.1946 0.9809 -0.0000
vn -0.1984 0.9801 -0.0000
vt 0.333333 0.000000
vt 0.393939 0.000000
vt 0.363636 0.000000
vt 0.303030 0.000000
vt 0.424242 0.000000
vt 0.272727 0.000000
vt 0.454545 0.000000
vt 0.242424 0.000000
vt 0.606061 0.000000
vt 0.666667 0.000000
vt 0.636364 0.000000
vt 0.696970 0.000000
vt 0.575758 0.000000
vt 0.727273 0.000000
vt 0.545455 0.000000
vt 0.757576 0.000000
vt 0.515152 0.000000
vt 0.484848 0.000000
vt 0.878788 0.000000
vt 0.939394 0.000000
vt 0.909091 0.000000
vt 0.848485 0.000000
vt 0.969697 0.000000
vt 0.818182 0.000000
vt 1.000000 0.000000
vt 0.787879 0.000000
vt 0.090909 0.000000
vt 0.151515 0.000000
vt 0.121212 0.000000
vt 0.060606 0.000000
vt 0.181818 0.000000
vt 0.030303 0.000000
vt 0.212121 0.000000
vt 0.000000 0.000000
vt 0.000000 1.000000
vt 0.125000 1.000000
vt 0.125000 0.000000
vt 0.250000 1.000000
vt 0.250000 0.000000
vt 0.375000 1.000000
vt 0.375000 0.000000
vt 0.500000 1.000000
vt 0.500000 0.000000
vt 0.625000 1.000000
vt 0.625000 0.000000
vt 0.750000 1.000000
vt 0.750000 0.000000
vt 0.875000 1.000000
vt 0.875000 0.000000
vt 1.000000 1.000000
vt 0.100000 1.000000
vt 0.100000 0.000000
vt 0.200000 1.000000
vt 0.200000 0.000000
vt 0.300000 1.000000
vt 0.300000 0.000000
vt 0.400000 1.000000
vt 0.400000 0.000000
vt 0.600000 1.000000
vt 0.600000 0.000000
vt 0.700000 1.000000
vt 0.700000 0.000000
vt 0.800000 1.000000
vt 0.800000 0.000000
vt 0.900000 1.000000
vt 0.900000 0.000000
s 0
f 12/1/1 14/2/1 13/3/1
f 11/4/1 14/2/1 12/1/1
f 11/4/1 15/5/1 14/2/1
f 10/6/1 15/5/1 11/4/1
f 10/6/1 16/7/1 15/5/1
f 9/8/1 16/7/1 10/6/1
f 21/9/1 23/10/1 22/11/1
f 21/9/1 24/12/1 23/10/1
f 20/13/1 24/12/1 21/9/1
f 20/13/1 25/14/1 24/12/1
f 19/15/1 25/14/1 20/13/1
f 19/15/1 26/16/1 25/14/1
f 18/17/1 26/16/1 19/15/1
f 18/17/1 17/18/1 26/16/1
f 30/19/1 32/20/1 31/21/1
f 29/22/1 32/20/1 30/19/1
f 29/22/1 33/23/1 32/20/1
f 28/24/1 33/23/1 29/22/1
f 28/24/1 34/25/1 33/23/1
f 27/26/1 34/25/1 28/24/1
f 4/27/1 6/28/1 5/29/1
f 3/30/1 6/28/1 4/27/1
f 3/30/1 7/31/1 6/28/1
f 2/32/1 7/31/1 3/30/1
f 2/32/1 8/33/1 7/31/1
f 1/34/1 8/33/1 2/32/1
f 46/1/2 47/3/2 48/2/2
f 45/4/2 46/1/2 48/2/2
f 45/4/2 48/2/2 49/5/2
f 44/6/2 45/4/2 49/5/2
f 44/6/2 49/5/2 50/7/2
f 43/8/2 44/6/2 50/7/2
f 55/9/2 56/11/2 57/10/2
f 55/9/2 57/10/2 58/12/2
f 54/13/2 55/9/2 58/12/2
f 54/13/2 58/12/2 59/14/2
f 53/15/2 54/13/2 59/14/2
f 53/15/2 59/14/2 60/16/2
f 52/17/2 53/15/2 60/16/2
f 52/17/2 60/16/2 51/18/2
f 64/19/2 65/21/2 66/20/2
f 63/22/2 64/19/2 66/20/2
f 63/22/2 66/20/2 67/23/2
f 62/24/2 63/22/2 67/23/2
f 62/24/2 67/23/2 68/25/2
f 61/26/2 62/24/2 68/25/2
f 38/27/2 39/29/2 40/28/2
f 37/30/2 38/27/2 40/28/2
f 37/30/2 40/28/2 41/31/2
f 36/32/2 37/30/2 41/31/2
f 36/32/2 41/31/2 42/33/2
f 35/34/2 36/32/2 42/33/2
s 1
f 70/35/3 72/36/4 71/37/4 69/34/3
f 72/36/4 74/38/5 73/39/5 71/37/4
f 74/38/5 76/40/6 75/41/6 73/39/5
f 76/40/6 78/42/7 77/43/7 75/41/6
f 78/42/7 80/44/8 79/45/8 77/43/7
f 80/44/8 82/46/9 81/47/9 79/45/8
f 82/46/9 84/48/10 83/49/10 81/47/9
f 84/48/10 70/50/3 69/25/3 83/49/10
f 86/35/11 88/51/12 87/52/12 85/34/11
f 88/51/12 90/53/4 89/54/4 87/52/12
f 90/53/4 92/55/5 91/56/5 89/54/4
f 92/55/5 94/57/6 93/58/6 91/56/5
f 94/57/6 96/42/13 95/43/13 93/58/6
f 96/42/13 98/59/14 97/60/14 95/43/13
f 98/59/14 100/61/8 99/62/8 97/60/14
f 100/61/8 102/63/9 101/64/9 99/62/8
f 102/63/9 104/65/10 103/66/10 101/64/9
f 104/65/10 86/50/11 85/25/11 103/66/10
f 106/35/3 108/36/4 107/37/4 105/34/3
f 108/36/4 110/38/5 109/39/5 107/37/4
f 110/38/5 112/40/6 111/41/6 109/39/5
f 112/40/6 114/42/7 113/43/7 111/41/6
f 114/42/7 116/44/8 115/45/8 113/43/7
f 116/44/8 118/46/9 117/47/9 115/45/8
f 118/46/9 120/48/10 119/49/10 117/47/9
f 120/48/10 106/50/3 105/25/3 119/49/10
f 122/35/3 124/36/4 123/37/4 121/34/3
f 124/36/4 126/38/5 125/39/5 123/37/4
f 126/38/5 128/40/6 127/41/6 125/39/5
f 128/40/6 130/42/7 129/43/7 127/41/6
f 130/42/7 132/44/8 131/45/8 129/43/7
f 132/44/8 134/46/9 133/47/9 131/45/8
f 134/46/9 136/48/10 135/49/10 133/47/9
f 136/48/10 122/50/3 121/25/3 135/49/10
