# Blender 4.1.1
# www.blender.org
o M
v -0.900000 0.100000 -0.100000
v -0.300000 0.100000 -0.100000
v -0.228125 0.128125 -0.100000
v -0.200000 0.200000 -0.100000
v -0.228125 0.270312 -0.100000
v -0.300000 0.300000 -0.100000
v -0.900000 0.300000 -0.100000
v -0.970313 0.270312 -0.100000
v -1.000000 0.200000 -0.100000
v -0.970313 0.128125 -0.100000
v 0.300000 0.100000 -0.100000
v 0.900000 0.100000 -0.100000
v 0.971875 0.128125 -0.100000
v 1.000000 0.200000 -0.100000
v 0.971875 0.270312 -0.100000
v 0.900000 0.300000 -0.100000
v 0.300000 0.300000 -0.100000
v 0.229687 0.270312 -0.100000
v 0.200000 0.200000 -0.100000
v 0.229687 0.128125 -0.100000
v -0.900000 0.100000 0.100000
v -0.300000 0.100000 0.100000
v -0.228125 0.128125 0.100000
v -0.200000 0.200000 0.100000
v -0.228125 0.270312 0.100000
v -0.300000 0.300000 0.100000
v -0.900000 0.300000 0.100000
v -0.970313 0.270312 0.100000
v -1.000000 0.200000 0.100000
v -0.970313 0.128125 0.100000
v 0.300000 0.100000 0.100000
v 0.900000 0.100000 0.100000
v 0.971875 0.128125 0.100000
v 1.000000 0.200000 0.100000
v 0.971875 0.270312 0.100000
v 0.900000 0.300000 0.100000
v 0.300000 0.300000 0.100000
v 0.229688 0.270312 0.100000
v 0.200000 0.200000 0.100000
v 0.229688 0.128125 0.100000
v 0.300000 0.100000 0.100000
v 0.300000 0.100000 -0.100000
v 0.900000 0.100000 0.100000
v 0.900000 0.100000 -0.100000
v 0.971875 0.128125 0.100000
v 0.971875 0.128125 -0.100000
v 1.000000 0.200000 0.100000
v 1.000000 0.200000 -0.100000
v 0.971875 0.270312 0.100000
v 0.971875 0.270312 -0.100000
v 0.900000 0.300000 0.100000
v 0.900000 0.300000 -0.100000
v 0.300000 0.300000 0.100000
v 0.300000 0.300000 -0.100000
v 0.229688 0.270312 0.100000
v 0.229687 0.270312 -0.100000
v 0.200000 0.200000 0.100000
v 0.200000 0.200000 -0.100000
v 0.229688 0.128125 0.100000
v 0.229687 0.128125 -0.100000
v -0.900000 0.100000 0.100000
v -0.900000 0.100000 -0.100000
v -0.300000 0.100000 0.100000
v -0.300000 0.100000 -0.100000
v -0.228125 0.128125 0.100000
v -0.228125 0.128125 -0.100000
v -0.200000 0.200000 0.100000
v -0.200000 0.200000 -0.100000
v -0.228125 0.270312 0.100000
v -0.228125 0.270312 -0.100000
v -0.300000 0.300000 0.100000
v -0.300000 0.300000 -0.100000
v -0.900000 0.300000 0.100000
v -0.900000 0.300000 -0.100000
v -0.970313 0.270312 0.100000
v -0.970313 0.270312 -0.100000
v -1.000000 0.200000 0.100000
v -1.000000 0.200000 -0.100000
v -0.970313 0.128125 0.100000
v -0.970313 0.128125 -0.100000
vn -0.0000 -0.0000 -1.0000
vn -0.0000 -0.0000 1.0000
vn -0.1891 -0.9820 -0.0000
vn 0.1854 -0.9827 -0.0000
vn 0.7071 -0.7071 -0.0000
vn 1.0000 0.0038 -0.0000
vn 0.7111 0.7031 -0.0000
vn 0.1946 0.9809 -0.0000
vn -0.1984 0.9801 -0.0000
vn -0.7071 0.7071 -0.0000
vn -1.0000 0.0039 -0.0000
vn -0.7031 -0.7111 -0.0000
vt 0.736842 0.000000
vt 0.842105 0.000000
vt 0.789474 0.000000
vt 0.894737 0.000000
vt 0.684211 0.000000
vt 0.947368 0.000000
vt 0.631579 0.000000
vt 1.000000 0.000000
vt 0.578947 0.000000
vt 0.526316 0.000000
vt 0.210526 0.000000
vt 0.315789 0.000000
vt 0.263158 0.000000
vt 0.368421 0.000000
vt 0.157895 0.000000
vt 0.421053 0.000000
vt 0.105263 0.000000
vt 0.473684 0.000000
vt 0.052632 0.000000
vt 0.000000 0.000000
vt 0.000000 1.000000
vt 0.100000 1.000000
vt 0.100000 0.000000
vt 0.200000 1.000000
vt 0.200000 0.000000
vt 0.300000 1.000000
vt 0.300000 0.000000
vt 0.400000 1.000000
vt 0.400000 0.000000
vt 0.500000 1.000000
vt 0.500000 0.000000
vt 0.600000 1.000000
vt 0.600000 0.000000
vt 0.700000 1.000000
vt 0.700000 0.000000
vt 0.800000 1.000000
vt 0.800000 0.000000
vt 0.900000 1.000000
vt 0.900000 0.000000
vt 1.000000 1.000000
s 0
f 15/1/1 17/2/1 16/3/1
f 15/1/1 18/4/1 17/2/1
f 14/5/1 18/4/1 15/1/1
f 14/5/1 19/6/1 18/4/1
f 13/7/1 19/6/1 14/5/1
f 13/7/1 20/8/1 19/6/1
f 12/9/1 20/8/1 13/7/1
f 12/9/1 11/10/1 20/8/1
f 5/11/1 7/12/1 6/13/1
f 5/11/1 8/14/1 7/12/1
f 4/15/1 8/14/1 5/11/1
f 4/15/1 9/16/1 8/14/1
f 3/17/1 9/16/1 4/15/1
f 3/17/1 10/18/1 9/16/1
f 2/19/1 10/18/1 3/17/1
f 2/19/1 1/20/1 10/18/1
f 35/1/2 36/3/2 37/2/2
f 35/1/2 37/2/2 38/4/2
f 34/5/2 35/1/2 38/4/2
f 34/5/2 38/4/2 39/6/2
f 33/7/2 34/5/2 39/6/2
f 33/7/2 39/6/2 40/8/2
f 32/9/2 33/7/2 40/8/2
f 32/9/2 40/8/2 31/10/2
f 25/11/2 26/13/2 27/12/2
f 25/11/2 27/12/2 28/14/2
f 24/15/2 25/11/2 28/14/2
f 24/15/2 28/14/2 29/16/2
f 23/17/2 24/15/2 29/16/2
f 23/17/2 29/16/2 30/18/2
f 22/19/2 23/17/2 30/18/2
f 22/19/2 30/18/2 21/20/2
s 1
f 42/21/3 44/22/4 43/23/4 41/20/3
f 44/22/4 46/24/5 45/25/5 43/23/4
f 46/24/5 48/26/6 47/27/6 45/25/5
f 48/26/6 50/28/7 49/29/7 47/27/6
f 50/28/7 52/30/8 51/31/8 49/29/7
f 52/30/8 54/32/9 53/33/9 51/31/8
f 54/32/9 56/34/10 55/35/10 53/33/9
f 56/34/10 58/36/11 57/37/11 55/35/10
f 58/36/11 60/38/12 59/39/12 57/37/11
f 60/38/12 42/40/3 41/8/3 59/39/12
f 62/21/3 64/22/4 63/23/4 61/20/3
f 64/22/4 66/24/5 65/25/5 63/23/4
f 66/24/5 68/26/6 67/27/6 65/25/5
f 68/26/6 70/28/7 69/29/7 67/27/6
f 70/28/7 72/30/8 71/31/8 69/29/7
f 72/30/8 74/32/9 73/33/9 71/31/8
f 74/32/9 76/34/10 75/35/10 73/33/9
f 76/34/10 78/36/11 77/37/11 75/35/10
f 78/36/11 80/38/12 79/39/12 77/37/11
f 80/38/12 62/40/3 61/8/3 79/39/12
