# Blender 4.1.1
# www.blender.org
o O
v -1.500000 0.100000 -0.100000
v -0.900000 0.100000 -0.100000
v -0.828125 0.128125 -0.100000
v -0.800000 0.200000 -0.100000
v -0.828125 0.270312 -0.100000
v -0.900000 0.300000 -0.100000
v -1.500000 0.300000 -0.100000
v -1.570312 0.270312 -0.100000
v -1.600000 0.200000 -0.099999
v -1.570312 0.128125 -0.099999
v 0.900000 0.100000 -0.100000
v 1.500000 0.100000 -0.100000
v 1.571875 0.128125 -0.100001
v 1.600000 0.200000 -0.100001
v 1.571875 0.270312 -0.100001
v 1.500000 0.300000 -0.100001
v 0.900000 0.300000 -0.100000
v 0.829687 0.270312 -0.100000
v 0.800000 0.200000 -0.100000
v 0.829687 0.128125 -0.100000
v -0.300000 0.100000 -0.100000
v 0.300000 0.100000 -0.100000
v 0.371875 0.128125 -0.100000
v 0.400000 0.200000 -0.100000
v 0.371875 0.270312 -0.100000
v 0.300000 0.300000 -0.100000
v -0.300000 0.300000 -0.100000
v -0.370313 0.270312 -0.100000
v -0.400000 0.200000 -0.100000
v -0.370313 0.128125 -0.100000
v -1.500000 0.100000 0.100000
v -0.900000 0.100000 0.100000
v -0.828125 0.128125 0.100000
v -0.800000 0.200000 0.100000
v -0.828125 0.270312 0.100000
v -0.900000 0.300000 0.100000
v -1.500000 0.300000 0.100000
v -1.570312 0.270312 0.100001
v -1.600000 0.200000 0.100001
v -1.570312 0.128125 0.100001
v 0.900000 0.100000 0.100000
v 1.500000 0.100000 0.100000
v 1.571875 0.128125 0.099999
v 1.600000 0.200000 0.099999
v 1.571875 0.270312 0.099999
v 1.500000 0.300000 0.100000
v 0.900000 0.300000 0.100000
v 0.829688 0.270312 0.100000
v 0.800000 0.200000 0.100000
v 0.829688 0.128125 0.100000
v -0.300000 0.100000 0.100000
v 0.300000 0.100000 0.100000
v 0.371875 0.128125 0.100000
v 0.400000 0.200000 0.100000
v 0.371875 0.270312 0.100000
v 0.300000 0.300000 0.100000
v -0.300000 0.300000 0.100000
v -0.370313 0.270312 0.100000
v -0.400000 0.200000 0.100000
v -0.370313 0.128125 0.100000
v 0.900000 0.100000 0.100000
v 0.900000 0.100000 -0.100000
v 1.500000 0.100000 0.100000
v 1.500000 0.100000 -0.100000
v 1.571875 0.128125 0.099999
v 1.571875 0.128125 -0.100001
v 1.600000 0.200000 0.099999
v 1.600000 0.200000 -0.100001
v 1.571875 0.270312 0.099999
v 1.571875 0.270312 -0.100001
v 1.500000 0.300000 0.100000
v 1.500000 0.300000 -0.100001
v 0.900000 0.300000 0.100000
v 0.900000 0.300000 -0.100000
v 0.829688 0.270312 0.100000
v 0.829687 0.270312 -0.100000
v 0.800000 0.200000 0.100000
v 0.800000 0.200000 -0.100000
v 0.829688 0.128125 0.100000
v 0.829687 0.128125 -0.100000
v -0.300000 0.100000 0.100000
v -0.300000 0.100000 -0.100000
v 0.300000 0.100000 0.100000
v 0.300000 0.100000 -0.100000
v 0.371875 0.128125 0.100000
v 0.371875 0.128125 -0.100000
v 0.400000 0.200000 0.100000
v 0.400000 0.200000 -0.100000
v 0.371875 0.270312 0.100000
v 0.371875 0.270312 -0.100000
v 0.300000 0.300000 0.100000
v 0.300000 0.300000 -0.100000
v -0.300000 0.300000 0.100000
v -0.300000 0.300000 -0.100000
v -0.370313 0.270312 0.100000
v -0.370313 0.270312 -0.100000
v -0.400000 0.200000 0.100000
v -0.400000 0.200000 -0.100000
v -0.370313 0.128125 0.100000
v -0.370313 0.128125 -0.100000
v -1.500000 0.100000 0.100000
v -1.500000 0.100000 -0.100000
v -0.900000 0.100000 0.100000
v -0.900000 0.100000 -0.100000
v -0.828125 0.128125 0.100000
v -0.828125 0.128125 -0.100000
v -0.800000 0.200000 0.100000
v -0.800000 0.200000 -0.100000
v -0.828125 0.270312 0.100000
v -0.828125 0.270312 -0.100000
v -0.900000 0.300000 0.100000
v -0.900000 0.300000 -0.100000
v -1.500000 0.300000 0.100000
v -1.500000 0.300000 -0.100000
v -1.570312 0.270312 0.100001
v -1.570312 0.270312 -0.100000
v -1.600000 0.200000 0.100001
v -1.600000 0.200000 -0.099999
v -1.570312 0.128125 0.100001
v -1.570312 0.128125 -0.099999
vn -0.0000 -0.0000 -1.0000
vn -0.0000 -0.0000 1.0000
vn -0.1891 -0.9820 -0.0000
vn 0.1854 -0.9827 -0.0000
vn 0.7071 -0.7071 -0.0000
vn 1.0000 0.0038 -0.0000
vn 0.7111 0.7031 -0.0000
vn 0.1946 0.9809 -0.0000
vn -0.1984 0.9801 -0.0000
vn -0.7071 0.7071 -0.0000
vn -1.0000 0.0039 -0.0000
vn -0.7031 -0.7111 -0.0000
vt 0.482759 0.000000
vt 0.551724 0.000000
vt 0.517241 0.000000
vt 0.586207 0.000000
vt 0.448276 0.000000
vt 0.620690 0.000000
vt 0.413793 0.000000
vt 0.655172 0.000000
vt 0.379310 0.000000
vt 0.344828 0.000000
vt 0.827586 0.000000
vt 0.896552 0.000000
vt 0.862069 0.000000
vt 0.931035 0.000000
vt 0.793103 0.000000
vt 0.965517 0.000000
vt 0.758621 0.000000
vt 1.000000 0.000000
vt 0.724138 0.000000
vt 0.689655 0.000000
vt 0.137931 0.000000
vt 0.206897 0.000000
vt 0.172414 0.000000
vt 0.241379 0.000000
vt 0.103448 0.000000
vt 0.275862 0.000000
vt 0.068966 0.000000
vt 0.310345 0.000000
vt 0.034483 0.000000
vt 0.000000 0.000000
vt 0.000000 1.000000
vt 0.100000 1.000000
vt 0.100000 0.000000
vt 0.200000 1.000000
vt 0.200000 0.000000
vt 0.300000 1.000000
vt 0.300000 0.000000
vt 0.400000 1.000000
vt 0.400000 0.000000
vt 0.500000 1.000000
vt 0.500000 0.000000
vt 0.600000 1.000000
vt 0.600000 0.000000
vt 0.700000 1.000000
vt 0.700000 0.000000
vt 0.800000 1.000000
vt 0.800000 0.000000
vt 0.900000 1.000000
vt 0.900000 0.000000
vt 1.000000 1.000000
s 0
f 15/1/1 17/2/1 16/3/1
f 15/1/1 18/4/1 17/2/1
f 14/5/1 18/4/1 15/1/1
f 14/5/1 19/6/1 18/4/1
f 13/7/1 19/6/1 14/5/1
f 13/7/1 20/8/1 19/6/1
f 12/9/1 20/8/1 13/7/1
f 12/9/1 11/10/1 20/8/1
f 25/11/1 27/12/1 26/13/1
f 25/11/1 28/14/1 27/12/1
f 24/15/1 28/14/1 25/11/1
f 24/15/1 29/16/1 28/14/1
f 23/17/1 29/16/1 24/15/1
f 23/17/1 30/18/1 29/16/1
f 22/19/1 30/18/1 23/17/1
f 22/19/1 21/20/1 30/18/1
f 5/21/1 7/22/1 6/23/1
f 5/21/1 8/24/1 7/22/1
f 4/25/1 8/24/1 5/21/1
f 4/25/1 9/26/1 8/24/1
f 3/27/1 9/26/1 4/25/1
f 3/27/1 10/28/1 9/26/1
f 2/29/1 10/28/1 3/27/1
f 2/29/1 1/30/1 10/28/1
f 45/1/2 46/3/2 47/2/2
f 45/1/2 47/2/2 48/4/2
f 44/5/2 45/1/2 48/4/2
f 44/5/2 48/4/2 49/6/2
f 43/7/2 44/5/2 49/6/2
f 43/7/2 49/6/2 50/8/2
f 42/9/2 43/7/2 50/8/2
f 42/9/2 50/8/2 41/10/2
f 55/11/2 56/13/2 57/12/2
f 55/11/2 57/12/2 58/14/2
f 54/15/2 55/11/2 58/14/2
f 54/15/2 58/14/2 59/16/2
f 53/17/2 54/15/2 59/16/2
f 53/17/2 59/16/2 60/18/2
f 52/19/2 53/17/2 60/18/2
f 52/19/2 60/18/2 51/20/2
f 35/21/2 36/23/2 37/22/2
f 35/21/2 37/22/2 38/24/2
f 34/25/2 35/21/2 38/24/2
f 34/25/2 38/24/2 39/26/2
f 33/27/2 34/25/2 39/26/2
f 33/27/2 39/26/2 40/28/2
f 32/29/2 33/27/2 40/28/2
f 32/29/2 40/28/2 31/30/2
s 1
f 62/31/3 64/32/4 63/33/4 61/30/3
f 64/32/4 66/34/5 65/35/5 63/33/4
f 66/34/5 68/36/6 67/37/6 65/35/5
f 68/36/6 70/38/7 69/39/7 67/37/6
f 70/38/7 72/40/8 71/41/8 69/39/7
f 72/40/8 74/42/9 73/43/9 71/41/8
f 74/42/9 76/44/10 75/45/10 73/43/9
f 76/44/10 78/46/11 77/47/11 75/45/10
f 78/46/11 80/48/12 79/49/12 77/47/11
f 80/48/12 62/50/3 61/18/3 79/49/12
f 82/31/3 84/32/4 83/33/4 81/30/3
f 84/32/4 86/34/5 85/35/5 83/33/4
f 86/34/5 88/36/6 87/37/6 85/35/5
f 88/36/6 90/38/7 89/39/7 87/37/6
f 90/38/7 92/40/8 91/41/8 89/39/7
f 92/40/8 94/42/9 93/43/9 91/41/8
f 94/42/9 96/44/10 95/45/10 93/43/9
f 96/44/10 98/46/11 97/47/11 95/45/10
f 98/46/11 100/48/12 99/49/12 97/47/11
f 100/48/12 82/50/3 81/18/3 99/49/12
f 102/31/3 104/32/4 103/33/4 101/30/3
f 104/32/4 106/34/5 105/35/5 103/33/4
f 106/34/5 108/36/6 107/37/6 105/35/5
f 108/36/6 110/38/7 109/39/7 107/37/6
f 110/38/7 112/40/8 111/41/8 109/39/7
f 112/40/8 114/42/9 113/43/9 111/41/8
f 114/42/9 116/44/10 115/45/10 113/43/9
f 116/44/10 118/46/11 117/47/11 115/45/10
f 118/46/11 120/48/12 119/49/12 117/47/11
f 120/48/12 102/50/3 101/18/3 119/49/12
