# Blender 4.1.1
# www.blender.org
o Q
v -1.800000 0.100000 -0.099999
v -1.200000 0.100000 -0.100000
v -1.128125 0.128125 -0.100000
v -1.100000 0.200000 -0.100000
v -1.128125 0.270312 -0.100000
v -1.200000 0.300000 -0.100000
v -1.800000 0.300000 -0.099999
v -1.870312 0.270312 -0.099999
v -1.900000 0.200000 -0.099999
v -1.870312 0.128125 -0.099999
v 1.200000 0.100000 -0.100000
v 1.800000 0.100000 -0.100001
v 1.871875 0.128125 -0.100001
v 1.900000 0.200000 -0.100001
v 1.871875 0.270312 -0.100001
v 1.800000 0.300000 -0.100001
v 1.200000 0.300000 -0.100000
v 1.129688 0.270312 -0.100000
v 1.100000 0.200000 -0.100000
v 1.129688 0.128125 -0.100000
v -0.000000 0.100000 -0.100000
v 0.600000 0.100000 -0.100000
v 0.671875 0.128125 -0.100000
v 0.700000 0.200000 -0.100000
v 0.671875 0.270312 -0.100000
v 0.600000 0.300000 -0.100000
v -0.000000 0.300000 -0.100000
v -0.070313 0.270312 -0.100000
v -0.100000 0.200000 -0.100000
v -0.070313 0.128125 -0.100000
v -0.600000 0.100000 -0.100000
v -0.528125 0.128125 -0.100000
v -0.500000 0.200000 -0.100000
v -0.528125 0.270312 -0.100000
v -0.600000 0.300000 -0.100000
v -0.670312 0.270312 -0.100000
v -0.700000 0.200000 -0.100000
v -0.670312 0.128125 -0.100000
v -1.800000 0.100000 0.100001
v -1.200000 0.100000 0.100000
v -1.128125 0.128125 0.100000
v -1.100000 0.200000 0.100000
v -1.128125 0.270312 0.100000
v -1.200000 0.300000 0.100000
v -1.800000 0.300000 0.100001
v -1.870312 0.270312 0.100001
v -1.900000 0.200000 0.100001
v -1.870312 0.128125 0.100001
v 1.200000 0.100000 0.100000
v 1.800000 0.100000 0.099999
v 1.871875 0.128125 0.099999
v 1.900000 0.200000 0.099999
v 1.871875 0.270312 0.099999
v 1.800000 0.300000 0.099999
v 1.200000 0.300000 0.100000
v 1.129688 0.270312 0.100000
v 1.100000 0.200000 0.100000
v 1.129688 0.128125 0.100000
v 0.000000 0.100000 0.100000
v 0.600000 0.100000 0.100000
v 0.671875 0.128125 0.100000
v 0.700000 0.200000 0.100000
v 0.671875 0.270312 0.100000
v 0.600000 0.300000 0.100000
v 0.000000 0.300000 0.100000
v -0.070312 0.270312 0.100000
v -0.100000 0.200000 0.100000
v -0.070312 0.128125 0.100000
v -0.600000 0.100000 0.100000
v -0.528125 0.128125 0.100000
v -0.500000 0.200000 0.100000
v -0.528125 0.270312 0.100000
v -0.600000 0.300000 0.100000
v -0.670312 0.270312 0.100000
v -0.700000 0.200000 0.100000
v -0.670312 0.128125 0.100000
v 1.200000 0.100000 0.100000
v 1.200000 0.100000 -0.100000
v 1.800000 0.100000 0.099999
v 1.800000 0.100000 -0.100001
v 1.871875 0.128125 0.099999
v 1.871875 0.128125 -0.100001
v 1.900000 0.200000 0.099999
v 1.900000 0.200000 -0.100001
v 1.871875 0.270312 0.099999
v 1.871875 0.270312 -0.100001
v 1.800000 0.300000 0.099999
v 1.800000 0.300000 -0.100001
v 1.200000 0.300000 0.100000
v 1.200000 0.300000 -0.100000
v 1.129688 0.270312 0.100000
v 1.129688 0.270312 -0.100000
v 1.100000 0.200000 0.100000
v 1.100000 0.200000 -0.100000
v 1.129688 0.128125 0.100000
v 1.129688 0.128125 -0.100000
v 0.000000 0.100000 0.100000
v -0.000000 0.100000 -0.100000
v 0.600000 0.100000 0.100000
v 0.600000 0.100000 -0.100000
v 0.671875 0.128125 0.100000
v 0.671875 0.128125 -0.100000
v 0.700000 0.200000 0.100000
v 0.700000 0.200000 -0.100000
v 0.671875 0.270312 0.100000
v 0.671875 0.270312 -0.100000
v 0.600000 0.300000 0.100000
v 0.600000 0.300000 -0.100000
v 0.000000 0.300000 0.100000
v -0.000000 0.300000 -0.100000
v -0.070312 0.270312 0.100000
v -0.070313 0.270312 -0.100000
v -0.100000 0.200000 0.100000
v -0.100000 0.200000 -0.100000
v -0.070312 0.128125 0.100000
v -0.070313 0.128125 -0.100000
v -0.600000 0.100000 0.100000
v -0.600000 0.100000 -0.100000
v -0.528125 0.128125 0.100000
v -0.528125 0.128125 -0.100000
v -0.500000 0.200000 0.100000
v -0.500000 0.200000 -0.100000
v -0.528125 0.270312 0.100000
v -0.528125 0.270312 -0.100000
v -0.600000 0.300000 0.100000
v -0.600000 0.300000 -0.100000
v -0.670312 0.270312 0.100000
v -0.670312 0.270312 -0.100000
v -0.700000 0.200000 0.100000
v -0.700000 0.200000 -0.100000
v -0.670312 0.128125 0.100000
v -0.670312 0.128125 -0.100000
v -1.800000 0.100000 0.100001
v -1.800000 0.100000 -0.099999
v -1.200000 0.100000 0.100000
v -1.200000 0.100000 -0.100000
v -1.128125 0.128125 0.100000
v -1.128125 0.128125 -0.100000
v -1.100000 0.200000 0.100000
v -1.100000 0.200000 -0.100000
v -1.128125 0.270312 0.100000
v -1.128125 0.270312 -0.100000
v -1.200000 0.300000 0.100000
v -1.200000 0.300000 -0.100000
v -1.800000 0.300000 0.100001
v -1.800000 0.300000 -0.099999
v -1.870312 0.270312 0.100001
v -1.870312 0.270312 -0.099999
v -1.900000 0.200000 0.100001
v -1.900000 0.200000 -0.099999
v -1.870312 0.128125 0.100001
v -1.870312 0.128125 -0.099999
vn -0.0000 -0.0000 -1.0000
vn -0.0000 -0.0000 1.0000
vn -0.1891 -0.9820 -0.0000
vn 0.1854 -0.9827 -0.0000
vn 0.7071 -0.7071 -0.0000
vn 1.0000 0.0038 -0.0000
vn 0.7111 0.7031 -0.0000
vn 0.1946 0.9809 -0.0000
vn -0.1984 0.9801 -0.0000
vn -0.7071 0.7071 -0.0000
vn -1.0000 0.0039 -0.0000
vn -0.7031 -0.7111 -0.0000
vn -0.0038 -1.0000 -0.0000
vn -0.0039 1.0000 -0.0000
vt 0.378378 0.000000
vt 0.432432 0.000000
vt 0.405405 0.000000
vt 0.459459 0.000000
vt 0.351351 0.000000
vt 0.486486 0.000000
vt 0.324324 0.000000
vt 0.513514 0.000000
vt 0.297297 0.000000
vt 0.270270 0.000000
vt 0.648649 0.000000
vt 0.702703 0.000000
vt 0.675676 0.000000
vt 0.729730 0.000000
vt 0.621622 0.000000
vt 0.756757 0.000000
vt 0.594595 0.000000
vt 0.783784 0.000000
vt 0.567568 0.000000
vt 0.540541 0.000000
vt 0.891892 0.000000
vt 0.945946 0.000000
vt 0.918919 0.000000
vt 0.864865 0.000000
vt 0.972973 0.000000
vt 0.837838 0.000000
vt 1.000000 0.000000
vt 0.810811 0.000000
vt 0.108108 0.000000
vt 0.162162 0.000000
vt 0.135135 0.000000
vt 0.189189 0.000000
vt 0.081081 0.000000
vt 0.216216 0.000000
vt 0.054054 0.000000
vt 0.243243 0.000000
vt 0.027027 0.000000
vt 0.000000 0.000000
vt 0.000000 1.000000
vt 0.100000 1.000000
vt 0.100000 0.000000
vt 0.200000 1.000000
vt 0.200000 0.000000
vt 0.300000 1.000000
vt 0.300000 0.000000
vt 0.400000 1.000000
vt 0.400000 0.000000
vt 0.500000 1.000000
vt 0.500000 0.000000
vt 0.600000 1.000000
vt 0.600000 0.000000
vt 0.700000 1.000000
vt 0.700000 0.000000
vt 0.800000 1.000000
vt 0.800000 0.000000
vt 0.900000 1.000000
vt 0.900000 0.000000
vt 1.000000 1.000000
vt 0.125000 1.000000
vt 0.125000 0.000000
vt 0.250000 1.000000
vt 0.250000 0.000000
vt 0.375000 1.000000
vt 0.375000 0.000000
vt 0.625000 1.000000
vt 0.625000 0.000000
vt 0.750000 1.000000
vt 0.750000 0.000000
vt 0.875000 1.000000
vt 0.875000 0.000000
s 0
f 15/1/1 17/2/1 16/3/1
f 15/1/1 18/4/1 17/2/1
f 14/5/1 18/4/1 15/1/1
f 14/5/1 19/6/1 18/4/1
f 13/7/1 19/6/1 14/5/1
f 13/7/1 20/8/1 19/6/1
f 12/9/1 20/8/1 13/7/1
f 12/9/1 11/10/1 20/8/1
f 25/11/1 27/12/1 26/13/1
f 25/11/1 28/14/1 27/12/1
f 24/15/1 28/14/1 25/11/1
f 24/15/1 29/16/1 28/14/1
f 23/17/1 29/16/1 24/15/1
f 23/17/1 30/18/1 29/16/1
f 22/19/1 30/18/1 23/17/1
f 22/19/1 21/20/1 30/18/1
f 34/21/1 36/22/1 35/23/1
f 33/24/1 36/22/1 34/21/1
f 33/24/1 37/25/1 36/22/1
f 32/26/1 37/25/1 33/24/1
f 32/26/1 38/27/1 37/25/1
f 31/28/1 38/27/1 32/26/1
f 5/29/1 7/30/1 6/31/1
f 5/29/1 8/32/1 7/30/1
f 4/33/1 8/32/1 5/29/1
f 4/33/1 9/34/1 8/32/1
f 3/35/1 9/34/1 4/33/1
f 3/35/1 10/36/1 9/34/1
f 2/37/1 10/36/1 3/35/1
f 2/37/1 1/38/1 10/36/1
f 53/1/2 54/3/2 55/2/2
f 53/1/2 55/2/2 56/4/2
f 52/5/2 53/1/2 56/4/2
f 52/5/2 56/4/2 57/6/2
f 51/7/2 52/5/2 57/6/2
f 51/7/2 57/6/2 58/8/2
f 50/9/2 51/7/2 58/8/2
f 50/9/2 58/8/2 49/10/2
f 63/11/2 64/13/2 65/12/2
f 63/11/2 65/12/2 66/14/2
f 62/15/2 63/11/2 66/14/2
f 62/15/2 66/14/2 67/16/2
f 61/17/2 62/15/2 67/16/2
f 61/17/2 67/16/2 68/18/2
f 60/19/2 61/17/2 68/18/2
f 60/19/2 68/18/2 59/20/2
f 72/21/2 73/23/2 74/22/2
f 71/24/2 72/21/2 74/22/2
f 71/24/2 74/22/2 75/25/2
f 70/26/2 71/24/2 75/25/2
f 70/26/2 75/25/2 76/27/2
f 69/28/2 70/26/2 76/27/2
f 43/29/2 44/31/2 45/30/2
f 43/29/2 45/30/2 46/32/2
f 42/33/2 43/29/2 46/32/2
f 42/33/2 46/32/2 47/34/2
f 41/35/2 42/33/2 47/34/2
f 41/35/2 47/34/2 48/36/2
f 40/37/2 41/35/2 48/36/2
f 40/37/2 48/36/2 39/38/2
s 1
f 78/39/3 80/40/4 79/41/4 77/38/3
f 80/40/4 82/42/5 81/43/5 79/41/4
f 82/42/5 84/44/6 83/45/6 81/43/5
f 84/44/6 86/46/7 85/47/7 83/45/6
f 86/46/7 88/48/8 87/49/8 85/47/7
f 88/48/8 90/50/9 89/51/9 87/49/8
f 90/50/9 92/52/10 91/53/10 89/51/9
f 92/52/10 94/54/11 93/55/11 91/53/10
f 94/54/11 96/56/12 95/57/12 93/55/11
f 96/56/12 78/58/3 77/27/3 95/57/12
f 98/39/3 100/40/4 99/41/4 97/38/3
f 100/40/4 102/42/5 101/43/5 99/41/4
f 102/42/5 104/44/6 103/45/6 101/43/5
f 104/44/6 106/46/7 105/47/7 103/45/6
f 106/46/7 108/48/8 107/49/8 105/47/7
f 108/48/8 110/50/9 109/51/9 107/49/8
f 110/50/9 112/52/10 111/53/10 109/51/9
f 112/52/10 114/54/11 113/55/11 111/53/10
f 114/54/11 116/56/12 115/57/12 113/55/11
f 116/56/12 98/58/3 97/27/3 115/57/12
f 118/39/13 120/59/5 119/60/5 117/38/13
f 120/59/5 122/61/6 121/62/6 119/60/5
f 122/61/6 124/63/7 123/64/7 121/62/6
f 124/63/7 126/48/14 125/49/14 123/64/7
f 126/48/14 128/65/10 127/66/10 125/49/14
f 128/65/10 130/67/11 129/68/11 127/66/10
f 130/67/11 132/69/12 131/70/12 129/68/11
f 132/69/12 118/58/13 117/27/13 131/70/12
f 134/39/3 136/40/4 135/41/4 133/38/3
f 136/40/4 138/42/5 137/43/5 135/41/4
f 138/42/5 140/44/6 139/45/6 137/43/5
f 140/44/6 142/46/7 141/47/7 139/45/6
f 142/46/7 144/48/8 143/49/8 141/47/7
f 144/48/8 146/50/9 145/51/9 143/49/8
f 146/50/9 148/52/10 147/53/10 145/51/9
f 148/52/10 150/54/11 149/55/11 147/53/10
f 150/54/11 152/56/12 151/57/12 149/55/11
f 152/56/12 134/58/3 133/27/3 151/57/12
