# Blender 4.1.1
# www.blender.org
o S
v -0.600000 0.100000 -0.100000
v -0.528125 0.128125 -0.100000
v -0.500000 0.200000 -0.100000
v -0.528125 0.270312 -0.100000
v -0.600000 0.300000 -0.100000
v -0.670313 0.270312 -0.100000
v -0.700000 0.200000 -0.100000
v -0.670313 0.128125 -0.100000
v 0.600000 0.100000 -0.100000
v 0.671875 0.128125 -0.100000
v 0.700000 0.200000 -0.100000
v 0.671875 0.270312 -0.100000
v 0.600000 0.300000 -0.100000
v 0.529687 0.270312 -0.100000
v 0.500000 0.200000 -0.100000
v 0.529687 0.128125 -0.100000
v -0.000000 0.100000 -0.100000
v 0.071875 0.128125 -0.100000
v 0.100000 0.200000 -0.100000
v 0.071875 0.270312 -0.100000
v -0.000000 0.300000 -0.100000
v -0.070313 0.270312 -0.100000
v -0.100000 0.200000 -0.100000
v -0.070313 0.128125 -0.100000
v -0.600000 0.100000 0.100000
v -0.528125 0.128125 0.100000
v -0.500000 0.200000 0.100000
v -0.528125 0.270312 0.100000
v -0.600000 0.300000 0.100000
v -0.670312 0.270312 0.100000
v -0.700000 0.200000 0.100000
v -0.670312 0.128125 0.100000
v 0.600000 0.100000 0.100000
v 0.671875 0.128125 0.100000
v 0.700000 0.200000 0.100000
v 0.671875 0.270312 0.100000
v 0.600000 0.300000 0.100000
v 0.529688 0.270312 0.100000
v 0.500000 0.200000 0.100000
v 0.529688 0.128125 0.100000
v 0.000000 0.100000 0.100000
v 0.071875 0.128125 0.100000
v 0.100000 0.200000 0.100000
v 0.071875 0.270312 0.100000
v 0.000000 0.300000 0.100000
v -0.070312 0.270312 0.100000
v -0.100000 0.200000 0.100000
v -0.070312 0.128125 0.100000
v 0.600000 0.100000 0.100000
v 0.600000 0.100000 -0.100000
v 0.671875 0.128125 0.100000
v 0.671875 0.128125 -0.100000
v 0.700000 0.200000 0.100000
v 0.700000 0.200000 -0.100000
v 0.671875 0.270312 0.100000
v 0.671875 0.270312 -0.100000
v 0.600000 0.300000 0.100000
v 0.600000 0.300000 -0.100000
v 0.529688 0.270312 0.100000
v 0.529687 0.270312 -0.100000
v 0.500000 0.200000 0.100000
v 0.500000 0.200000 -0.100000
v 0.529688 0.128125 0.100000
v 0.529687 0.128125 -0.100000
v 0.000000 0.100000 0.100000
v -0.000000 0.100000 -0.100000
v 0.071875 0.128125 0.100000
v 0.071875 0.128125 -0.100000
v 0.100000 0.200000 0.100000
v 0.100000 0.200000 -0.100000
v 0.071875 0.270312 0.100000
v 0.071875 0.270312 -0.100000
v 0.000000 0.300000 0.100000
v -0.000000 0.300000 -0.100000
v -0.070312 0.270312 0.100000
v -0.070313 0.270312 -0.100000
v -0.100000 0.200000 0.100000
v -0.100000 0.200000 -0.100000
v -0.070312 0.128125 0.100000
v -0.070313 0.128125 -0.100000
v -0.600000 0.100000 0.100000
v -0.600000 0.100000 -0.100000
v -0.528125 0.128125 0.100000
v -0.528125 0.128125 -0.100000
v -0.500000 0.200000 0.100000
v -0.500000 0.200000 -0.100000
v -0.528125 0.270312 0.100000
v -0.528125 0.270312 -0.100000
v -0.600000 0.300000 0.100000
v -0.600000 0.300000 -0.100000
v -0.670312 0.270312 0.100000
v -0.670313 0.270312 -0.100000
v -0.700000 0.200000 0.100000
v -0.700000 0.200000 -0.100000
v -0.670312 0.128125 0.100000
v -0.670313 0.128125 -0.100000
vn -0.0000 -0.0000 -1.0000
vn -0.0000 -0.0000 1.0000
vn -0.0038 -1.0000 -0.0000
vn 0.7071 -0.7071 -0.0000
vn 1.0000 0.0038 -0.0000
vn 0.7111 0.7031 -0.0000
vn -0.0039 1.0000 -0.0000
vn -0.7071 0.7071 -0.0000
vn -1.0000 0.0039 -0.0000
vn -0.7031 -0.7111 -0.0000
vt 0.478261 0.000000
vt 0.565217 0.000000
vt 0.521739 0.000000
vt 0.434783 0.000000
vt 0.608696 0.000000
vt 0.391304 0.000000
vt 0.652174 0.000000
vt 0.347826 0.000000
vt 0.826087 0.000000
vt 0.913043 0.000000
vt 0.869565 0.000000
vt 0.782609 0.000000
vt 0.956522 0.000000
vt 0.739130 0.000000
vt 1.000000 0.000000
vt 0.695652 0.000000
vt 0.130435 0.000000
vt 0.217391 0.000000
vt 0.173913 0.000000
vt 0.086957 0.000000
vt 0.260870 0.000000
vt 0.043478 0.000000
vt 0.304348 0.000000
vt 0.000000 0.000000
vt 0.000000 1.000000
vt 0.125000 1.000000
vt 0.125000 0.000000
vt 0.250000 1.000000
vt 0.250000 0.000000
vt 0.375000 1.000000
vt 0.375000 0.000000
vt 0.500000 1.000000
vt 0.500000 0.000000
vt 0.625000 1.000000
vt 0.625000 0.000000
vt 0.750000 1.000000
vt 0.750000 0.000000
vt 0.875000 1.000000
vt 0.875000 0.000000
vt 1.000000 1.000000
s 0
f 12/1/1 14/2/1 13/3/1
f 11/4/1 14/2/1 12/1/1
f 11/4/1 15/5/1 14/2/1
f 10/6/1 15/5/1 11/4/1
f 10/6/1 16/7/1 15/5/1
f 9/8/1 16/7/1 10/6/1
f 20/9/1 22/10/1 21/11/1
f 19/12/1 22/10/1 20/9/1
f 19/12/1 23/13/1 22/10/1
f 18/14/1 23/13/1 19/12/1
f 18/14/1 24/15/1 23/13/1
f 17/16/1 24/15/1 18/14/1
f 4/17/1 6/18/1 5/19/1
f 3/20/1 6/18/1 4/17/1
f 3/20/1 7/21/1 6/18/1
f 2/22/1 7/21/1 3/20/1
f 2/22/1 8/23/1 7/21/1
f 1/24/1 8/23/1 2/22/1
f 36/1/2 37/3/2 38/2/2
f 35/4/2 36/1/2 38/2/2
f 35/4/2 38/2/2 39/5/2
f 34/6/2 35/4/2 39/5/2
f 34/6/2 39/5/2 40/7/2
f 33/8/2 34/6/2 40/7/2
f 44/9/2 45/11/2 46/10/2
f 43/12/2 44/9/2 46/10/2
f 43/12/2 46/10/2 47/13/2
f 42/14/2 43/12/2 47/13/2
f 42/14/2 47/13/2 48/15/2
f 41/16/2 42/14/2 48/15/2
f 28/17/2 29/19/2 30/18/2
f 27/20/2 28/17/2 30/18/2
f 27/20/2 30/18/2 31/21/2
f 26/22/2 27/20/2 31/21/2
f 26/22/2 31/21/2 32/23/2
f 25/24/2 26/22/2 32/23/2
s 1
f 50/25/3 52/26/4 51/27/4 49/24/3
f 52/26/4 54/28/5 53/29/5 51/27/4
f 54/28/5 56/30/6 55/31/6 53/29/5
f 56/30/6 58/32/7 57/33/7 55/31/6
f 58/32/7 60/34/8 59/35/8 57/33/7
f 60/34/8 62/36/9 61/37/9 59/35/8
f 62/36/9 64/38/10 63/39/10 61/37/9
f 64/38/10 50/40/3 49/15/3 63/39/10
f 66/25/3 68/26/4 67/27/4 65/24/3
f 68/26/4 70/28/5 69/29/5 67/27/4
f 70/28/5 72/30/6 71/31/6 69/29/5
f 72/30/6 74/32/7 73/33/7 71/31/6
f 74/32/7 76/34/8 75/35/8 73/33/7
f 76/34/8 78/36/9 77/37/9 75/35/8
f 78/36/9 80/38/10 79/39/10 77/37/9
f 80/38/10 66/40/3 65/15/3 79/39/10
f 82/25/3 84/26/4 83/27/4 81/24/3
f 84/26/4 86/28/5 85/29/5 83/27/4
f 86/28/5 88/30/6 87/31/6 85/29/5
f 88/30/6 90/32/7 89/33/7 87/31/6
f 90/32/7 92/34/8 91/35/8 89/33/7
f 92/34/8 94/36/9 93/37/9 91/35/8
f 94/36/9 96/38/10 95/39/10 93/37/9
f 96/38/10 82/40/3 81/15/3 95/39/10
