# Blender 4.1.1
# www.blender.org
o Y
v -1.800000 0.100000 -0.099999
v -1.200000 0.100000 -0.100000
v -1.128125 0.128125 -0.100000
v -1.100000 0.200000 -0.100000
v -1.128125 0.270312 -0.100000
v -1.200000 0.300000 -0.100000
v -1.800000 0.300000 -0.099999
v -1.870312 0.270312 -0.099999
v -1.900000 0.200000 -0.099999
v -1.870312 0.128125 -0.099999
v 1.200000 0.100000 -0.100000
v 1.800000 0.100000 -0.100001
v 1.871875 0.128125 -0.100001
v 1.900000 0.200000 -0.100001
v 1.871875 0.270312 -0.100001
v 1.800000 0.300000 -0.100001
v 1.200000 0.300000 -0.100000
v 1.129688 0.270312 -0.100000
v 1.100000 0.200000 -0.100000
v 1.129688 0.128125 -0.100000
v 0.600000 0.100000 -0.100000
v 0.671875 0.128125 -0.100000
v 0.700000 0.200000 -0.100000
v 0.671875 0.270312 -0.100000
v 0.600000 0.300000 -0.100000
v 0.529688 0.270312 -0.100000
v 0.500000 0.200000 -0.100000
v 0.529688 0.128125 -0.100000
v -0.600000 0.100000 -0.100000
v -0.000000 0.100000 -0.100000
v 0.071875 0.128125 -0.100000
v 0.100000 0.200000 -0.100000
v 0.071875 0.270312 -0.100000
v -0.000000 0.300000 -0.100000
v -0.600000 0.300000 -0.100000
v -0.670312 0.270312 -0.100000
v -0.700000 0.200000 -0.100000
v -0.670312 0.128125 -0.100000
v -1.800000 0.100000 0.100001
v -1.200000 0.100000 0.100000
v -1.128125 0.128125 0.100000
v -1.100000 0.200000 0.100000
v -1.128125 0.270312 0.100000
v -1.200000 0.300000 0.100000
v -1.800000 0.300000 0.100001
v -1.870312 0.270312 0.100001
v -1.900000 0.200000 0.100001
v -1.870312 0.128125 0.100001
v 1.200000 0.100000 0.100000
v 1.800000 0.100000 0.099999
v 1.871875 0.128125 0.099999
v 1.900000 0.200000 0.099999
v 1.871875 0.270312 0.099999
v 1.800000 0.300000 0.099999
v 1.200000 0.300000 0.100000
v 1.129688 0.270312 0.100000
v 1.100000 0.200000 0.100000
v 1.129688 0.128125 0.100000
v 0.600000 0.100000 0.100000
v 0.671875 0.128125 0.100000
v 0.700000 0.200000 0.100000
v 0.671875 0.270312 0.100000
v 0.600000 0.300000 0.100000
v 0.529688 0.270312 0.100000
v 0.500000 0.200000 0.100000
v 0.529688 0.128125 0.100000
v -0.600000 0.100000 0.100000
v 0.000000 0.100000 0.100000
v 0.071875 0.128125 0.100000
v 0.100000 0.200000 0.100000
v 0.071875 0.270312 0.100000
v 0.000000 0.300000 0.100000
v -0.600000 0.300000 0.100000
v -0.670312 0.270312 0.100000
v -0.700000 0.200000 0.100000
v -0.670312 0.128125 0.100000
v 1.200000 0.100000 0.100000
v 1.200000 0.100000 -0.100000
v 1.800000 0.100000 0.099999
v 1.800000 0.100000 -0.100001
v 1.871875 0.128125 0.099999
v 1.871875 0.128125 -0.100001
v 1.900000 0.200000 0.099999
v 1.900000 0.200000 -0.100001
v 1.871875 0.270312 0.099999
v 1.871875 0.270312 -0.100001
v 1.800000 0.300000 0.099999
v 1.800000 0.300000 -0.100001
v 1.200000 0.300000 0.100000
v 1.200000 0.300000 -0.100000
v 1.129688 0.270312 0.100000
v 1.129688 0.270312 -0.100000
v 1.100000 0.200000 0.100000
v 1.100000 0.200000 -0.100000
v 1.129688 0.128125 0.100000
v 1.129688 0.128125 -0.100000
v 0.600000 0.100000 0.100000
v 0.600000 0.100000 -0.100000
v 0.671875 0.128125 0.100000
v 0.671875 0.128125 -0.100000
v 0.700000 0.200000 0.100000
v 0.700000 0.200000 -0.100000
v 0.671875 0.270312 0.100000
v 0.671875 0.270312 -0.100000
v 0.600000 0.300000 0.100000
v 0.600000 0.300000 -0.100000
v 0.529688 0.270312 0.100000
v 0.529688 0.270312 -0.100000
v 0.500000 0.200000 0.100000
v 0.500000 0.200000 -0.100000
v 0.529688 0.128125 0.100000
v 0.529688 0.128125 -0.100000
v -0.600000 0.100000 0.100000
v -0.600000 0.100000 -0.100000
v 0.000000 0.100000 0.100000
v -0.000000 0.100000 -0.100000
v 0.071875 0.128125 0.100000
v 0.071875 0.128125 -0.100000
v 0.100000 0.200000 0.100000
v 0.100000 0.200000 -0.100000
v 0.071875 0.270312 0.100000
v 0.071875 0.270312 -0.100000
v 0.000000 0.300000 0.100000
v -0.000000 0.300000 -0.100000
v -0.600000 0.300000 0.100000
v -0.600000 0.300000 -0.100000
v -0.670312 0.270312 0.100000
v -0.670312 0.270312 -0.100000
v -0.700000 0.200000 0.100000
v -0.700000 0.200000 -0.100000
v -0.670312 0.128125 0.100000
v -0.670312 0.128125 -0.100000
v -1.800000 0.100000 0.100001
v -1.800000 0.100000 -0.099999
v -1.200000 0.100000 0.100000
v -1.200000 0.100000 -0.100000
v -1.128125 0.128125 0.100000
v -1.128125 0.128125 -0.100000
v -1.100000 0.200000 0.100000
v -1.100000 0.200000 -0.100000
v -1.128125 0.270312 0.100000
v -1.128125 0.270312 -0.100000
v -1.200000 0.300000 0.100000
v -1.200000 0.300000 -0.100000
v -1.800000 0.300000 0.100001
v -1.800000 0.300000 -0.099999
v -1.870312 0.270312 0.100001
v -1.870312 0.270312 -0.099999
v -1.900000 0.200000 0.100001
v -1.900000 0.200000 -0.099999
v -1.870312 0.128125 0.100001
v -1.870312 0.128125 -0.099999
vn -0.0000 -0.0000 -1.0000
vn -0.0000 -0.0000 1.0000
vn -0.1891 -0.9820 -0.0000
vn 0.1854 -0.9827 -0.0000
vn 0.7071 -0.7071 -0.0000
vn 1.0000 0.0038 -0.0000
vn 0.7111 0.7031 -0.0000
vn 0.1946 0.9809 -0.0000
vn -0.1984 0.9801 -0.0000
vn -0.7071 0.7071 -0.0000
vn -1.0000 0.0039 -0.0000
vn -0.7031 -0.7111 -0.0000
vn -0.0038 -1.0000 -0.0000
vn -0.0039 1.0000 -0.0000
vt 0.378378 0.000000
vt 0.432432 0.000000
vt 0.405405 0.000000
vt 0.459459 0.000000
vt 0.351351 0.000000
vt 0.486486 0.000000
vt 0.324324 0.000000
vt 0.513514 0.000000
vt 0.297297 0.000000
vt 0.270270 0.000000
vt 0.621622 0.000000
vt 0.675676 0.000000
vt 0.648649 0.000000
vt 0.594595 0.000000
vt 0.702703 0.000000
vt 0.567568 0.000000
vt 0.729730 0.000000
vt 0.540541 0.000000
vt 0.864865 0.000000
vt 0.918919 0.000000
vt 0.891892 0.000000
vt 0.945946 0.000000
vt 0.837838 0.000000
vt 0.972973 0.000000
vt 0.810811 0.000000
vt 1.000000 0.000000
vt 0.783784 0.000000
vt 0.756757 0.000000
vt 0.108108 0.000000
vt 0.162162 0.000000
vt 0.135135 0.000000
vt 0.189189 0.000000
vt 0.081081 0.000000
vt 0.216216 0.000000
vt 0.054054 0.000000
vt 0.243243 0.000000
vt 0.027027 0.000000
vt 0.000000 0.000000
vt 0.000000 1.000000
vt 0.100000 1.000000
vt 0.100000 0.000000
vt 0.200000 1.000000
vt 0.200000 0.000000
vt 0.300000 1.000000
vt 0.300000 0.000000
vt 0.400000 1.000000
vt 0.400000 0.000000
vt 0.500000 1.000000
vt 0.500000 0.000000
vt 0.600000 1.000000
vt 0.600000 0.000000
vt 0.700000 1.000000
vt 0.700000 0.000000
vt 0.800000 1.000000
vt 0.800000 0.000000
vt 0.900000 1.000000
vt 0.900000 0.000000
vt 1.000000 1.000000
vt 0.125000 1.000000
vt 0.125000 0.000000
vt 0.250000 1.000000
vt 0.250000 0.000000
vt 0.375000 1.000000
vt 0.375000 0.000000
vt 0.625000 1.000000
vt 0.625000 0.000000
vt 0.750000 1.000000
vt 0.750000 0.000000
vt 0.875000 1.000000
vt 0.875000 0.000000
s 0
f 15/1/1 17/2/1 16/3/1
f 15/1/1 18/4/1 17/2/1
f 14/5/1 18/4/1 15/1/1
f 14/5/1 19/6/1 18/4/1
f 13/7/1 19/6/1 14/5/1
f 13/7/1 20/8/1 19/6/1
f 12/9/1 20/8/1 13/7/1
f 12/9/1 11/10/1 20/8/1
f 24/11/1 26/12/1 25/13/1
f 23/14/1 26/12/1 24/11/1
f 23/14/1 27/15/1 26/12/1
f 22/16/1 27/15/1 23/14/1
f 22/16/1 28/17/1 27/15/1
f 21/18/1 28/17/1 22/16/1
f 33/19/1 35/20/1 34/21/1
f 33/19/1 36/22/1 35/20/1
f 32/23/1 36/22/1 33/19/1
f 32/23/1 37/24/1 36/22/1
f 31/25/1 37/24/1 32/23/1
f 31/25/1 38/26/1 37/24/1
f 30/27/1 38/26/1 31/25/1
f 30/27/1 29/28/1 38/26/1
f 5/29/1 7/30/1 6/31/1
f 5/29/1 8/32/1 7/30/1
f 4/33/1 8/32/1 5/29/1
f 4/33/1 9/34/1 8/32/1
f 3/35/1 9/34/1 4/33/1
f 3/35/1 10/36/1 9/34/1
f 2/37/1 10/36/1 3/35/1
f 2/37/1 1/38/1 10/36/1
f 53/1/2 54/3/2 55/2/2
f 53/1/2 55/2/2 56/4/2
f 52/5/2 53/1/2 56/4/2
f 52/5/2 56/4/2 57/6/2
f 51/7/2 52/5/2 57/6/2
f 51/7/2 57/6/2 58/8/2
f 50/9/2 51/7/2 58/8/2
f 50/9/2 58/8/2 49/10/2
f 62/11/2 63/13/2 64/12/2
f 61/14/2 62/11/2 64/12/2
f 61/14/2 64/12/2 65/15/2
f 60/16/2 61/14/2 65/15/2
f 60/16/2 65/15/2 66/17/2
f 59/18/2 60/16/2 66/17/2
f 71/19/2 72/21/2 73/20/2
f 71/19/2 73/20/2 74/22/2
f 70/23/2 71/19/2 74/22/2
f 70/23/2 74/22/2 75/24/2
f 69/25/2 70/23/2 75/24/2
f 69/25/2 75/24/2 76/26/2
f 68/27/2 69/25/2 76/26/2
f 68/27/2 76/26/2 67/28/2
f 43/29/2 44/31/2 45/30/2
f 43/29/2 45/30/2 46/32/2
f 42/33/2 43/29/2 46/32/2
f 42/33/2 46/32/2 47/34/2
f 41/35/2 42/33/2 47/34/2
f 41/35/2 47/34/2 48/36/2
f 40/37/2 41/35/2 48/36/2
f 40/37/2 48/36/2 39/38/2
s 1
f 78/39/3 80/40/4 79/41/4 77/38/3
f 80/40/4 82/42/5 81/43/5 79/41/4
f 82/42/5 84/44/6 83/45/6 81/43/5
f 84/44/6 86/46/7 85/47/7 83/45/6
f 86/46/7 88/48/8 87/49/8 85/47/7
f 88/48/8 90/50/9 89/51/9 87/49/8
f 90/50/9 92/52/10 91/53/10 89/51/9
f 92/52/10 94/54/11 93/55/11 91/53/10
f 94/54/11 96/56/12 95/57/12 93/55/11
f 96/56/12 78/58/3 77/26/3 95/57/12
f 98/39/13 100/59/5 99/60/5 97/38/13
f 100/59/5 102/61/6 101/62/6 99/60/5
f 102/61/6 104/63/7 103/64/7 101/62/6
f 104/63/7 106/48/14 105/49/14 103/64/7
f 106/48/14 108/65/10 107/66/10 105/49/14
f 108/65/10 110/67/11 109/68/11 107/66/10
f 110/67/11 112/69/12 111/70/12 109/68/11
f 112/69/12 98/58/13 97/26/13 111/70/12
f 114/39/3 116/40/4 115/41/4 113/38/3
f 116/40/4 118/42/5 117/43/5 115/41/4
f 118/42/5 120/44/6 119/45/6 117/43/5
f 120/44/6 122/46/7 121/47/7 119/45/6
f 122/46/7 124/48/8 123/49/8 121/47/7
f 124/48/8 126/50/9 125/51/9 123/49/8
f 126/50/9 128/52/10 127/53/10 125/51/9
f 128/52/10 130/54/11 129/55/11 127/53/10
f 130/54/11 132/56/12 131/57/12 129/55/11
f 132/56/12 114/58/3 113/26/3 131/57/12
f 134/39/3 136/40/4 135/41/4 133/38/3
f 136/40/4 138/42/5 137/43/5 135/41/4
f 138/42/5 140/44/6 139/45/6 137/43/5
f 140/44/6 142/46/7 141/47/7 139/45/6
f 142/46/7 144/48/8 143/49/8 141/47/7
f 144/48/8 146/50/9 145/51/9 143/49/8
f 146/50/9 148/52/10 147/53/10 145/51/9
f 148/52/10 150/54/11 149/55/11 147/53/10
f 150/54/11 152/56/12 151/57/12 149/55/11
f 152/56/12 134/58/3 133/26/3 151/57/12
