# Blender 4.1.1
# www.blender.org
o _
v -2.400000 -0.300000 -0.099999
v -2.300000 -0.300000 -0.099999
v -2.400000 -0.100000 -0.099999
v -2.500000 0.100000 -0.099999
v -2.600000 0.300000 -0.099999
v -2.700000 0.500000 -0.099999
v -2.800000 0.700000 -0.099999
v -2.900000 0.700000 -0.099999
v -2.800000 0.500000 -0.099999
v -2.798437 0.500000 -0.099999
v -2.700000 0.300000 -0.099999
v -2.698437 0.300000 -0.099999
v -2.600000 0.100000 -0.099999
v -2.598438 0.100000 -0.099999
v -2.500000 -0.100000 -0.099999
v -2.498438 -0.100000 -0.099999
v 2.800000 0.100000 -0.100001
v 2.871875 0.128125 -0.100001
v 2.900000 0.200000 -0.100001
v 2.871875 0.270312 -0.100001
v 2.800000 0.300000 -0.100001
v 2.729688 0.270312 -0.100001
v 2.700000 0.200000 -0.100001
v 2.729688 0.128125 -0.100001
v 2.200000 0.100000 -0.100001
v 2.271875 0.128125 -0.100001
v 2.300000 0.200000 -0.100001
v 2.271875 0.270312 -0.100001
v 2.200000 0.300000 -0.100001
v 2.129688 0.270312 -0.100001
v 2.100000 0.200000 -0.100001
v 2.129688 0.128125 -0.100001
v 1.000000 0.100000 -0.100000
v 1.600000 0.100000 -0.100001
v 1.671875 0.128125 -0.100001
v 1.700000 0.200000 -0.100001
v 1.671875 0.270312 -0.100001
v 1.600000 0.300000 -0.100001
v 1.000000 0.300000 -0.100000
v 0.929687 0.270312 -0.100000
v 0.900000 0.200000 -0.100000
v 0.929687 0.128125 -0.100000
v -0.200000 0.100000 -0.100000
v 0.400000 0.100000 -0.100000
v 0.471875 0.128125 -0.100000
v 0.500000 0.200000 -0.100000
v 0.471875 0.270312 -0.100000
v 0.400000 0.300000 -0.100000
v -0.200000 0.300000 -0.100000
v -0.270312 0.270312 -0.100000
v -0.300000 0.200000 -0.100000
v -0.270312 0.128125 -0.100000
v -0.800000 0.100000 -0.100000
v -0.728125 0.128125 -0.100000
v -0.700000 0.200000 -0.100000
v -0.728125 0.270312 -0.100000
v -0.800000 0.300000 -0.100000
v -0.870313 0.270312 -0.100000
v -0.900000 0.200000 -0.100000
v -0.870313 0.128125 -0.100000
v -2.000000 0.100000 -0.099999
v -1.400000 0.100000 -0.100000
v -1.328125 0.128125 -0.100000
v -1.300000 0.200000 -0.100000
v -1.328125 0.270312 -0.100000
v -1.400000 0.300000 -0.100000
v -2.000000 0.300000 -0.099999
v -2.070312 0.270312 -0.099999
v -2.100000 0.200000 -0.099999
v -2.070312 0.128125 -0.099999
v -2.400000 -0.300000 0.100001
v -2.300000 -0.300000 0.100001
v -2.400000 -0.100000 0.100001
v -2.500000 0.100000 0.100001
v -2.600000 0.300000 0.100001
v -2.700000 0.500000 0.100001
v -2.800000 0.700000 0.100001
v -2.900000 0.700000 0.100001
v -2.800000 0.500000 0.100001
v -2.798437 0.500000 0.100001
v -2.700000 0.300000 0.100001
v -2.698437 0.300000 0.100001
v -2.600000 0.100000 0.100001
v -2.598438 0.100000 0.100001
v -2.500000 -0.100000 0.100001
v -2.498438 -0.100000 0.100001
v 2.800000 0.100000 0.099999
v 2.871875 0.128125 0.099999
v 2.900000 0.200000 0.099999
v 2.871875 0.270312 0.099999
v 2.800000 0.300000 0.099999
v 2.729688 0.270312 0.099999
v 2.700000 0.200000 0.099999
v 2.729688 0.128125 0.099999
v 2.200000 0.100000 0.099999
v 2.271875 0.128125 0.099999
v 2.300000 0.200000 0.099999
v 2.271875 0.270312 0.099999
v 2.200000 0.300000 0.099999
v 2.129688 0.270312 0.099999
v 2.100000 0.200000 0.099999
v 2.129688 0.128125 0.099999
v 1.000000 0.100000 0.100000
v 1.600000 0.100000 0.099999
v 1.671875 0.128125 0.099999
v 1.700000 0.200000 0.099999
v 1.671875 0.270312 0.099999
v 1.600000 0.300000 0.099999
v 1.000000 0.300000 0.100000
v 0.929688 0.270312 0.100000
v 0.900000 0.200000 0.100000
v 0.929688 0.128125 0.100000
v -0.200000 0.100000 0.100000
v 0.400000 0.100000 0.100000
v 0.471875 0.128125 0.100000
v 0.500000 0.200000 0.100000
v 0.471875 0.270312 0.100000
v 0.400000 0.300000 0.100000
v -0.200000 0.300000 0.100000
v -0.270312 0.270312 0.100000
v -0.300000 0.200000 0.100000
v -0.270312 0.128125 0.100000
v -0.800000 0.100000 0.100000
v -0.728125 0.128125 0.100000
v -0.700000 0.200000 0.100000
v -0.728125 0.270312 0.100000
v -0.800000 0.300000 0.100000
v -0.870312 0.270312 0.100000
v -0.900000 0.200000 0.100000
v -0.870312 0.128125 0.100000
v -2.000000 0.100000 0.100001
v -1.400000 0.100000 0.100000
v -1.328125 0.128125 0.100000
v -1.300000 0.200000 0.100000
v -1.328125 0.270312 0.100000
v -1.400000 0.300000 0.100000
v -2.000000 0.300000 0.100001
v -2.070312 0.270312 0.100001
v -2.100000 0.200000 0.100001
v -2.070312 0.128125 0.100001
v 2.800000 0.100000 0.099999
v 2.800000 0.100000 -0.100001
v 2.871875 0.128125 0.099999
v 2.871875 0.128125 -0.100001
v 2.900000 0.200000 0.099999
v 2.900000 0.200000 -0.100001
v 2.871875 0.270312 0.099999
v 2.871875 0.270312 -0.100001
v 2.800000 0.300000 0.099999
v 2.800000 0.300000 -0.100001
v 2.729688 0.270312 0.099999
v 2.729688 0.270312 -0.100001
v 2.700000 0.200000 0.099999
v 2.700000 0.200000 -0.100001
v 2.729688 0.128125 0.099999
v 2.729688 0.128125 -0.100001
v 2.200000 0.100000 0.099999
v 2.200000 0.100000 -0.100001
v 2.271875 0.128125 0.099999
v 2.271875 0.128125 -0.100001
v 2.300000 0.200000 0.099999
v 2.300000 0.200000 -0.100001
v 2.271875 0.270312 0.099999
v 2.271875 0.270312 -0.100001
v 2.200000 0.300000 0.099999
v 2.200000 0.300000 -0.100001
v 2.129688 0.270312 0.099999
v 2.129688 0.270312 -0.100001
v 2.100000 0.200000 0.099999
v 2.100000 0.200000 -0.100001
v 2.129688 0.128125 0.099999
v 2.129688 0.128125 -0.100001
v 1.000000 0.100000 0.100000
v 1.000000 0.100000 -0.100000
v 1.600000 0.100000 0.099999
v 1.600000 0.100000 -0.100001
v 1.671875 0.128125 0.099999
v 1.671875 0.128125 -0.100001
v 1.700000 0.200000 0.099999
v 1.700000 0.200000 -0.100001
v 1.671875 0.270312 0.099999
v 1.671875 0.270312 -0.100001
v 1.600000 0.300000 0.099999
v 1.600000 0.300000 -0.100001
v 1.000000 0.300000 0.100000
v 1.000000 0.300000 -0.100000
v 0.929688 0.270312 0.100000
v 0.929687 0.270312 -0.100000
v 0.900000 0.200000 0.100000
v 0.900000 0.200000 -0.100000
v 0.929688 0.128125 0.100000
v 0.929687 0.128125 -0.100000
v -0.200000 0.100000 0.100000
v -0.200000 0.100000 -0.100000
v 0.400000 0.100000 0.100000
v 0.400000 0.100000 -0.100000
v 0.471875 0.128125 0.100000
v 0.471875 0.128125 -0.100000
v 0.500000 0.200000 0.100000
v 0.500000 0.200000 -0.100000
v 0.471875 0.270312 0.100000
v 0.471875 0.270312 -0.100000
v 0.400000 0.300000 0.100000
v 0.400000 0.300000 -0.100000
v -0.200000 0.300000 0.100000
v -0.200000 0.300000 -0.100000
v -0.270312 0.270312 0.100000
v -0.270312 0.270312 -0.100000
v -0.300000 0.200000 0.100000
v -0.300000 0.200000 -0.100000
v -0.270312 0.128125 0.100000
v -0.270312 0.128125 -0.100000
v -0.800000 0.100000 0.100000
v -0.800000 0.100000 -0.100000
v -0.728125 0.128125 0.100000
v -0.728125 0.128125 -0.100000
v -0.700000 0.200000 0.100000
v -0.700000 0.200000 -0.100000
v -0.728125 0.270312 0.100000
v -0.728125 0.270312 -0.100000
v -0.800000 0.300000 0.100000
v -0.800000 0.300000 -0.100000
v -0.870312 0.270312 0.100000
v -0.870313 0.270312 -0.100000
v -0.900000 0.200000 0.100000
v -0.900000 0.200000 -0.100000
v -0.870312 0.128125 0.100000
v -0.870313 0.128125 -0.100000
v -2.000000 0.100000 0.100001
v -2.000000 0.100000 -0.099999
v -1.400000 0.100000 0.100000
v -1.400000 0.100000 -0.100000
v -1.328125 0.128125 0.100000
v -1.328125 0.128125 -0.100000
v -1.300000 0.200000 0.100000
v -1.300000 0.200000 -0.100000
v -1.328125 0.270312 0.100000
v -1.328125 0.270312 -0.100000
v -1.400000 0.300000 0.100000
v -1.400000 0.300000 -0.100000
v -2.000000 0.300000 0.100001
v -2.000000 0.300000 -0.099999
v -2.070312 0.270312 0.100001
v -2.070312 0.270312 -0.099999
v -2.100000 0.200000 0.100001
v -2.100000 0.200000 -0.099999
v -2.070312 0.128125 0.100001
v -2.070312 0.128125 -0.099999
v -2.400000 -0.300000 0.100001
v -2.400000 -0.300000 -0.099999
v -2.300000 -0.300000 0.100001
v -2.300000 -0.300000 -0.099999
v -2.400000 -0.100000 0.100001
v -2.400000 -0.100000 -0.099999
v -2.500000 0.100000 0.100001
v -2.500000 0.100000 -0.099999
v -2.600000 0.300000 0.100001
v -2.600000 0.300000 -0.099999
v -2.700000 0.500000 0.100001
v -2.700000 0.500000 -0.099999
v -2.800000 0.700000 0.100001
v -2.800000 0.700000 -0.099999
v -2.900000 0.700000 0.100001
v -2.900000 0.700000 -0.099999
v -2.800000 0.500000 0.100001
v -2.800000 0.500000 -0.099999
v -2.798437 0.500000 0.100001
v -2.798437 0.500000 -0.099999
v -2.700000 0.300000 0.100001
v -2.700000 0.300000 -0.099999
v -2.698437 0.300000 0.100001
v -2.698437 0.300000 -0.099999
v -2.600000 0.100000 0.100001
v -2.600000 0.100000 -0.099999
v -2.598438 0.100000 0.100001
v -2.598438 0.100000 -0.099999
v -2.500000 -0.100000 0.100001
v -2.500000 -0.100000 -0.099999
v -2.498438 -0.100000 0.100001
v -2.498438 -0.100000 -0.099999
vn -0.0000 -0.0000 -1.0000
vn -0.0000 -0.0000 1.0000
vn -0.0038 -1.0000 -0.0000
vn 0.7071 -0.7071 -0.0000
vn 1.0000 0.0038 -0.0000
vn 0.7111 0.7031 -0.0000
vn -0.0039 1.0000 -0.0000
vn -0.7071 0.7071 -0.0000
vn -1.0000 0.0039 -0.0000
vn -0.7031 -0.7111 -0.0000
vn -0.1891 -0.9820 -0.0000
vn 0.1854 -0.9827 -0.0000
vn 0.1946 0.9809 -0.0000
vn -0.1984 0.9801 -0.0000
vn -0.5284 -0.8490 -0.0000
vn 0.8507 -0.5257 -0.0000
vn 0.8944 0.4472 -0.0000
vn 0.5257 0.8507 -0.0000
vn -0.8507 0.5257 -0.0000
vn -0.5257 -0.8507 -0.0000
vt 0.275362 0.000000
vt 0.304348 0.000000
vt 0.289855 0.000000
vt 0.260870 0.000000
vt 0.318841 0.000000
vt 0.246377 0.000000
vt 0.333333 0.000000
vt 0.231884 0.000000
vt 0.391304 0.000000
vt 0.420290 0.000000
vt 0.405797 0.000000
vt 0.376812 0.000000
vt 0.434783 0.000000
vt 0.362319 0.000000
vt 0.449275 0.000000
vt 0.347826 0.000000
vt 0.521739 0.000000
vt 0.550725 0.000000
vt 0.536232 0.000000
vt 0.565217 0.000000
vt 0.507246 0.000000
vt 0.579710 0.000000
vt 0.492754 0.000000
vt 0.594203 0.000000
vt 0.478261 0.000000
vt 0.463768 0.000000
vt 0.666667 0.000000
vt 0.695652 0.000000
vt 0.681159 0.000000
vt 0.710145 0.000000
vt 0.652174 0.000000
vt 0.724638 0.000000
vt 0.637681 0.000000
vt 0.739130 0.000000
vt 0.623188 0.000000
vt 0.608696 0.000000
vt 0.797101 0.000000
vt 0.826087 0.000000
vt 0.811594 0.000000
vt 0.782609 0.000000
vt 0.840580 0.000000
vt 0.768116 0.000000
vt 0.855072 0.000000
vt 0.753623 0.000000
vt 0.927536 0.000000
vt 0.956522 0.000000
vt 0.942029 0.000000
vt 0.971014 0.000000
vt 0.913043 0.000000
vt 0.985507 0.000000
vt 0.898551 0.000000
vt 1.000000 0.000000
vt 0.884058 0.000000
vt 0.869565 0.000000
vt 0.072464 0.000000
vt 0.101449 0.000000
vt 0.086957 0.000000
vt 0.115942 0.000000
vt 0.057971 0.000000
vt 0.130435 0.000000
vt 0.144928 0.000000
vt 0.043478 0.000000
vt 0.159420 0.000000
vt 0.173913 0.000000
vt 0.028986 0.000000
vt 0.188406 0.000000
vt 0.202899 0.000000
vt 0.014493 0.000000
vt 0.217391 0.000000
vt 0.000000 0.000000
vt 0.000000 1.000000
vt 0.125000 1.000000
vt 0.125000 0.000000
vt 0.250000 1.000000
vt 0.250000 0.000000
vt 0.375000 1.000000
vt 0.375000 0.000000
vt 0.500000 1.000000
vt 0.500000 0.000000
vt 0.625000 1.000000
vt 0.625000 0.000000
vt 0.750000 1.000000
vt 0.750000 0.000000
vt 0.875000 1.000000
vt 0.875000 0.000000
vt 1.000000 1.000000
vt 0.100000 1.000000
vt 0.100000 0.000000
vt 0.200000 1.000000
vt 0.200000 0.000000
vt 0.300000 1.000000
vt 0.300000 0.000000
vt 0.400000 1.000000
vt 0.400000 0.000000
vt 0.600000 1.000000
vt 0.600000 0.000000
vt 0.700000 1.000000
vt 0.700000 0.000000
vt 0.800000 1.000000
vt 0.800000 0.000000
vt 0.900000 1.000000
vt 0.900000 0.000000
vt 0.062500 1.000000
vt 0.062500 0.000000
vt 0.187500 1.000000
vt 0.187500 0.000000
vt 0.312500 1.000000
vt 0.312500 0.000000
vt 0.437500 1.000000
vt 0.437500 0.000000
vt 0.562500 1.000000
vt 0.562500 0.000000
vt 0.687500 1.000000
vt 0.687500 0.000000
vt 0.812500 1.000000
vt 0.812500 0.000000
vt 0.937500 1.000000
vt 0.937500 0.000000
s 0
f 20/1/1 22/2/1 21/3/1
f 19/4/1 22/2/1 20/1/1
f 19/4/1 23/5/1 22/2/1
f 18/6/1 23/5/1 19/4/1
f 18/6/1 24/7/1 23/5/1
f 17/8/1 24/7/1 18/6/1
f 28/9/1 30/10/1 29/11/1
f 27/12/1 30/10/1 28/9/1
f 27/12/1 31/13/1 30/10/1
f 26/14/1 31/13/1 27/12/1
f 26/14/1 32/15/1 31/13/1
f 25/16/1 32/15/1 26/14/1
f 37/17/1 39/18/1 38/19/1
f 37/17/1 40/20/1 39/18/1
f 36/21/1 40/20/1 37/17/1
f 36/21/1 41/22/1 40/20/1
f 35/23/1 41/22/1 36/21/1
f 35/23/1 42/24/1 41/22/1
f 34/25/1 42/24/1 35/23/1
f 34/25/1 33/26/1 42/24/1
f 47/27/1 49/28/1 48/29/1
f 47/27/1 50/30/1 49/28/1
f 46/31/1 50/30/1 47/27/1
f 46/31/1 51/32/1 50/30/1
f 45/33/1 51/32/1 46/31/1
f 45/33/1 52/34/1 51/32/1
f 44/35/1 52/34/1 45/33/1
f 44/35/1 43/36/1 52/34/1
f 56/37/1 58/38/1 57/39/1
f 55/40/1 58/38/1 56/37/1
f 55/40/1 59/41/1 58/38/1
f 54/42/1 59/41/1 55/40/1
f 54/42/1 60/43/1 59/41/1
f 53/44/1 60/43/1 54/42/1
f 65/45/1 67/46/1 66/47/1
f 65/45/1 68/48/1 67/46/1
f 64/49/1 68/48/1 65/45/1
f 64/49/1 69/50/1 68/48/1
f 63/51/1 69/50/1 64/49/1
f 63/51/1 70/52/1 69/50/1
f 62/53/1 70/52/1 63/51/1
f 62/53/1 61/54/1 70/52/1
f 6/55/1 8/56/1 7/57/1
f 6/55/1 9/58/1 8/56/1
f 5/59/1 10/60/1 6/55/1
f 10/60/1 9/58/1 6/55/1
f 5/59/1 11/61/1 10/60/1
f 4/62/1 12/63/1 5/59/1
f 12/63/1 11/61/1 5/59/1
f 4/62/1 13/64/1 12/63/1
f 3/65/1 14/66/1 4/62/1
f 14/66/1 13/64/1 4/62/1
f 3/65/1 15/67/1 14/66/1
f 2/68/1 16/69/1 3/65/1
f 16/69/1 15/67/1 3/65/1
f 2/68/1 1/70/1 16/69/1
f 90/1/2 91/3/2 92/2/2
f 89/4/2 90/1/2 92/2/2
f 89/4/2 92/2/2 93/5/2
f 88/6/2 89/4/2 93/5/2
f 88/6/2 93/5/2 94/7/2
f 87/8/2 88/6/2 94/7/2
f 98/9/2 99/11/2 100/10/2
f 97/12/2 98/9/2 100/10/2
f 97/12/2 100/10/2 101/13/2
f 96/14/2 97/12/2 101/13/2
f 96/14/2 101/13/2 102/15/2
f 95/16/2 96/14/2 102/15/2
f 107/17/2 108/19/2 109/18/2
f 107/17/2 109/18/2 110/20/2
f 106/21/2 107/17/2 110/20/2
f 106/21/2 110/20/2 111/22/2
f 105/23/2 106/21/2 111/22/2
f 105/23/2 111/22/2 112/24/2
f 104/25/2 105/23/2 112/24/2
f 104/25/2 112/24/2 103/26/2
f 117/27/2 118/29/2 119/28/2
f 117/27/2 119/28/2 120/30/2
f 116/31/2 117/27/2 120/30/2
f 116/31/2 120/30/2 121/32/2
f 115/33/2 116/31/2 121/32/2
f 115/33/2 121/32/2 122/34/2
f 114/35/2 115/33/2 122/34/2
f 114/35/2 122/34/2 113/36/2
f 126/37/2 127/39/2 128/38/2
f 125/40/2 126/37/2 128/38/2
f 125/40/2 128/38/2 129/41/2
f 124/42/2 125/40/2 129/41/2
f 124/42/2 129/41/2 130/43/2
f 123/44/2 124/42/2 130/43/2
f 135/45/2 136/47/2 137/46/2
f 135/45/2 137/46/2 138/48/2
f 134/49/2 135/45/2 138/48/2
f 134/49/2 138/48/2 139/50/2
f 133/51/2 134/49/2 139/50/2
f 133/51/2 139/50/2 140/52/2
f 132/53/2 133/51/2 140/52/2
f 132/53/2 140/52/2 131/54/2
f 76/55/2 77/57/2 78/56/2
f 76/55/2 78/56/2 79/58/2
f 75/59/2 76/55/2 80/60/2
f 80/60/1 76/55/1 79/58/1
f 75/59/2 80/60/2 81/61/2
f 74/62/2 75/59/2 82/63/2
f 82/63/1 75/59/1 81/61/1
f 74/62/2 82/63/2 83/64/2
f 73/65/2 74/62/2 84/66/2
f 84/66/2 74/62/2 83/64/2
f 73/65/2 84/66/2 85/67/2
f 72/68/2 73/65/2 86/69/2
f 86/69/1 73/65/1 85/67/1
f 72/68/2 86/69/2 71/70/2
s 1
f 142/71/3 144/72/4 143/73/4 141/70/3
f 144/72/4 146/74/5 145/75/5 143/73/4
f 146/74/5 148/76/6 147/77/6 145/75/5
f 148/76/6 150/78/7 149/79/7 147/77/6
f 150/78/7 152/80/8 151/81/8 149/79/7
f 152/80/8 154/82/9 153/83/9 151/81/8
f 154/82/9 156/84/10 155/85/10 153/83/9
f 156/84/10 142/86/3 141/52/3 155/85/10
f 158/71/3 160/72/4 159/73/4 157/70/3
f 160/72/4 162/74/5 161/75/5 159/73/4
f 162/74/5 164/76/6 163/77/6 161/75/5
f 164/76/6 166/78/7 165/79/7 163/77/6
f 166/78/7 168/80/8 167/81/8 165/79/7
f 168/80/8 170/82/9 169/83/9 167/81/8
f 170/82/9 172/84/10 171/85/10 169/83/9
f 172/84/10 158/86/3 157/52/3 171/85/10
f 174/71/11 176/87/12 175/88/12 173/70/11
f 176/87/12 178/89/4 177/90/4 175/88/12
f 178/89/4 180/91/5 179/92/5 177/90/4
f 180/91/5 182/93/6 181/94/6 179/92/5
f 182/93/6 184/78/13 183/79/13 181/94/6
f 184/78/13 186/95/14 185/96/14 183/79/13
f 186/95/14 188/97/8 187/98/8 185/96/14
f 188/97/8 190/99/9 189/100/9 187/98/8
f 190/99/9 192/101/10 191/102/10 189/100/9
f 192/101/10 174/86/11 173/52/11 191/102/10
f 194/71/11 196/87/12 195/88/12 193/70/11
f 196/87/12 198/89/4 197/90/4 195/88/12
f 198/89/4 200/91/5 199/92/5 197/90/4
f 200/91/5 202/93/6 201/94/6 199/92/5
f 202/93/6 204/78/13 203/79/13 201/94/6
f 204/78/13 206/95/14 205/96/14 203/79/13
f 206/95/14 208/97/8 207/98/8 205/96/14
f 208/97/8 210/99/9 209/100/9 207/98/8
f 210/99/9 212/101/10 211/102/10 209/100/9
f 212/101/10 194/86/11 193/52/11 211/102/10
f 214/71/3 216/72/4 215/73/4 213/70/3
f 216/72/4 218/74/5 217/75/5 215/73/4
f 218/74/5 220/76/6 219/77/6 217/75/5
f 220/76/6 222/78/7 221/79/7 219/77/6
f 222/78/7 224/80/8 223/81/8 221/79/7
f 224/80/8 226/82/9 225/83/9 223/81/8
f 226/82/9 228/84/10 227/85/10 225/83/9
f 228/84/10 214/86/3 213/52/3 227/85/10
f 230/71/11 232/87/12 231/88/12 229/70/11
f 232/87/12 234/89/4 233/90/4 231/88/12
f 234/89/4 236/91/5 235/92/5 233/90/4
f 236/91/5 238/93/6 237/94/6 235/92/5
f 238/93/6 240/78/13 239/79/13 237/94/6
f 240/78/13 242/95/14 241/96/14 239/79/13
f 242/95/14 244/97/8 243/98/8 241/96/14
f 244/97/8 246/99/9 245/100/9 243/98/8
f 246/99/9 248/101/10 247/102/10 245/100/9
f 248/101/10 230/86/11 229/52/11 247/102/10
f 250/71/15 252/103/16 251/104/16 249/70/15
f 252/103/16 254/72/17 253/73/17 251/104/16
f 254/72/17 256/105/17 255/106/17 253/73/17
f 256/105/17 258/74/17 257/75/17 255/106/17
f 258/74/17 260/107/17 259/108/17 257/75/17
f 260/107/17 262/76/18 261/77/18 259/108/17
f 262/76/18 264/109/19 263/110/19 261/77/18
f 264/109/19 266/78/20 265/79/20 263/110/19
f 266/78/20 268/111/15 267/112/15 265/79/20
f 268/111/15 270/80/15 269/81/15 267/112/15
f 270/80/15 272/113/15 271/114/15 269/81/15
f 272/113/15 274/82/15 273/83/15 271/114/15
f 274/82/15 276/115/15 275/116/15 273/83/15
f 276/115/15 278/84/15 277/85/15 275/116/15
f 278/84/15 280/117/15 279/118/15 277/85/15
f 280/117/15 250/86/15 249/52/15 279/118/15
