# Blender 4.1.1
# www.blender.org
o b
v -1.200000 -0.300000 -0.100000
v -1.100000 -0.300000 -0.100000
v -1.200000 -0.100000 -0.100000
v -1.300000 0.100000 -0.100000
v -1.400000 0.300000 -0.100000
v -1.500000 0.500000 -0.100000
v -1.600000 0.700000 -0.100000
v -1.700000 0.700000 -0.099999
v -1.600000 0.500000 -0.100000
v -1.598438 0.500000 -0.100000
v -1.500000 0.300000 -0.100000
v -1.498438 0.300000 -0.100000
v -1.400000 0.100000 -0.100000
v -1.398438 0.100000 -0.100000
v -1.300000 -0.100000 -0.100000
v -1.298437 -0.100000 -0.100000
v 1.000000 0.100000 -0.100000
v 1.600000 0.100000 -0.100001
v 1.671875 0.128125 -0.100001
v 1.700000 0.200000 -0.100001
v 1.671875 0.270312 -0.100001
v 1.600000 0.300000 -0.100001
v 1.000000 0.300000 -0.100000
v 0.929687 0.270312 -0.100000
v 0.900000 0.200000 -0.100000
v 0.929687 0.128125 -0.100000
v 0.400000 0.100000 -0.100000
v 0.471875 0.128125 -0.100000
v 0.500000 0.200000 -0.100000
v 0.471875 0.270312 -0.100000
v 0.400000 0.300000 -0.100000
v 0.329687 0.270312 -0.100000
v 0.300000 0.200000 -0.100000
v 0.329687 0.128125 -0.100000
v -0.200000 0.100000 -0.100000
v -0.128125 0.128125 -0.100000
v -0.100000 0.200000 -0.100000
v -0.128125 0.270312 -0.100000
v -0.200000 0.300000 -0.100000
v -0.270313 0.270312 -0.100000
v -0.300000 0.200000 -0.100000
v -0.270313 0.128125 -0.100000
v -0.800000 0.100000 -0.100000
v -0.728125 0.128125 -0.100000
v -0.700000 0.200000 -0.100000
v -0.728125 0.270312 -0.100000
v -0.800000 0.300000 -0.100000
v -0.870313 0.270312 -0.100000
v -0.900000 0.200000 -0.100000
v -0.870313 0.128125 -0.100000
v -1.200000 -0.300000 0.100000
v -1.100000 -0.300000 0.100000
v -1.200000 -0.100000 0.100000
v -1.300000 0.100000 0.100000
v -1.400000 0.300000 0.100000
v -1.500000 0.500000 0.100000
v -1.600000 0.700000 0.100000
v -1.700000 0.700000 0.100001
v -1.600000 0.500000 0.100001
v -1.598438 0.500000 0.100001
v -1.500000 0.300000 0.100000
v -1.498438 0.300000 0.100000
v -1.400000 0.100000 0.100000
v -1.398438 0.100000 0.100000
v -1.300000 -0.100000 0.100000
v -1.298437 -0.100000 0.100000
v 1.000000 0.100000 0.100000
v 1.600000 0.100000 0.099999
v 1.671875 0.128125 0.099999
v 1.700000 0.200000 0.099999
v 1.671875 0.270312 0.099999
v 1.600000 0.300000 0.099999
v 1.000000 0.300000 0.100000
v 0.929688 0.270312 0.100000
v 0.900000 0.200000 0.100000
v 0.929688 0.128125 0.100000
v 0.400000 0.100000 0.100000
v 0.471875 0.128125 0.100000
v 0.500000 0.200000 0.100000
v 0.471875 0.270312 0.100000
v 0.400000 0.300000 0.100000
v 0.329688 0.270312 0.100000
v 0.300000 0.200000 0.100000
v 0.329688 0.128125 0.100000
v -0.200000 0.100000 0.100000
v -0.128125 0.128125 0.100000
v -0.100000 0.200000 0.100000
v -0.128125 0.270312 0.100000
v -0.200000 0.300000 0.100000
v -0.270313 0.270312 0.100000
v -0.300000 0.200000 0.100000
v -0.270313 0.128125 0.100000
v -0.800000 0.100000 0.100000
v -0.728125 0.128125 0.100000
v -0.700000 0.200000 0.100000
v -0.728125 0.270312 0.100000
v -0.800000 0.300000 0.100000
v -0.870313 0.270312 0.100000
v -0.900000 0.200000 0.100000
v -0.870313 0.128125 0.100000
v 1.000000 0.100000 0.100000
v 1.000000 0.100000 -0.100000
v 1.600000 0.100000 0.099999
v 1.600000 0.100000 -0.100001
v 1.671875 0.128125 0.099999
v 1.671875 0.128125 -0.100001
v 1.700000 0.200000 0.099999
v 1.700000 0.200000 -0.100001
v 1.671875 0.270312 0.099999
v 1.671875 0.270312 -0.100001
v 1.600000 0.300000 0.099999
v 1.600000 0.300000 -0.100001
v 1.000000 0.300000 0.100000
v 1.000000 0.300000 -0.100000
v 0.929688 0.270312 0.100000
v 0.929687 0.270312 -0.100000
v 0.900000 0.200000 0.100000
v 0.900000 0.200000 -0.100000
v 0.929688 0.128125 0.100000
v 0.929687 0.128125 -0.100000
v 0.400000 0.100000 0.100000
v 0.400000 0.100000 -0.100000
v 0.471875 0.128125 0.100000
v 0.471875 0.128125 -0.100000
v 0.500000 0.200000 0.100000
v 0.500000 0.200000 -0.100000
v 0.471875 0.270312 0.100000
v 0.471875 0.270312 -0.100000
v 0.400000 0.300000 0.100000
v 0.400000 0.300000 -0.100000
v 0.329688 0.270312 0.100000
v 0.329687 0.270312 -0.100000
v 0.300000 0.200000 0.100000
v 0.300000 0.200000 -0.100000
v 0.329688 0.128125 0.100000
v 0.329687 0.128125 -0.100000
v -0.200000 0.100000 0.100000
v -0.200000 0.100000 -0.100000
v -0.128125 0.128125 0.100000
v -0.128125 0.128125 -0.100000
v -0.100000 0.200000 0.100000
v -0.100000 0.200000 -0.100000
v -0.128125 0.270312 0.100000
v -0.128125 0.270312 -0.100000
v -0.200000 0.300000 0.100000
v -0.200000 0.300000 -0.100000
v -0.270313 0.270312 0.100000
v -0.270313 0.270312 -0.100000
v -0.300000 0.200000 0.100000
v -0.300000 0.200000 -0.100000
v -0.270313 0.128125 0.100000
v -0.270313 0.128125 -0.100000
v -0.800000 0.100000 0.100000
v -0.800000 0.100000 -0.100000
v -0.728125 0.128125 0.100000
v -0.728125 0.128125 -0.100000
v -0.700000 0.200000 0.100000
v -0.700000 0.200000 -0.100000
v -0.728125 0.270312 0.100000
v -0.728125 0.270312 -0.100000
v -0.800000 0.300000 0.100000
v -0.800000 0.300000 -0.100000
v -0.870313 0.270312 0.100000
v -0.870313 0.270312 -0.100000
v -0.900000 0.200000 0.100000
v -0.900000 0.200000 -0.100000
v -0.870313 0.128125 0.100000
v -0.870313 0.128125 -0.100000
v -1.200000 -0.300000 0.100000
v -1.200000 -0.300000 -0.100000
v -1.100000 -0.300000 0.100000
v -1.100000 -0.300000 -0.100000
v -1.200000 -0.100000 0.100000
v -1.200000 -0.100000 -0.100000
v -1.300000 0.100000 0.100000
v -1.300000 0.100000 -0.100000
v -1.400000 0.300000 0.100000
v -1.400000 0.300000 -0.100000
v -1.500000 0.500000 0.100000
v -1.500000 0.500000 -0.100000
v -1.600000 0.700000 0.100000
v -1.600000 0.700000 -0.100000
v -1.700000 0.700000 0.100001
v -1.700000 0.700000 -0.099999
v -1.600000 0.500000 0.100001
v -1.600000 0.500000 -0.100000
v -1.598438 0.500000 0.100001
v -1.598438 0.500000 -0.100000
v -1.500000 0.300000 0.100000
v -1.500000 0.300000 -0.100000
v -1.498438 0.300000 0.100000
v -1.498438 0.300000 -0.100000
v -1.400000 0.100000 0.100000
v -1.400000 0.100000 -0.100000
v -1.398438 0.100000 0.100000
v -1.398438 0.100000 -0.100000
v -1.300000 -0.100000 0.100000
v -1.300000 -0.100000 -0.100000
v -1.298437 -0.100000 0.100000
v -1.298437 -0.100000 -0.100000
vn -0.0000 -0.0000 -1.0000
vn -0.0000 -0.0000 1.0000
vn -0.1891 -0.9820 -0.0000
vn 0.1854 -0.9827 -0.0000
vn 0.7071 -0.7071 -0.0000
vn 1.0000 0.0038 -0.0000
vn 0.7111 0.7031 -0.0000
vn 0.1946 0.9809 -0.0000
vn -0.1984 0.9801 -0.0000
vn -0.7071 0.7071 -0.0000
vn -1.0000 0.0039 -0.0000
vn -0.7031 -0.7111 -0.0000
vn -0.0038 -1.0000 -0.0000
vn -0.0039 1.0000 -0.0000
vn -0.5284 -0.8490 -0.0000
vn 0.8507 -0.5257 -0.0000
vn 0.8944 0.4472 -0.0000
vn 0.5257 0.8507 -0.0000
vn -0.8507 0.5257 -0.0000
vn -0.5257 -0.8507 -0.0000
vt 0.408163 0.000000
vt 0.448980 0.000000
vt 0.428571 0.000000
vt 0.469388 0.000000
vt 0.387755 0.000000
vt 0.489796 0.000000
vt 0.367347 0.000000
vt 0.510204 0.000000
vt 0.346939 0.000000
vt 0.326531 0.000000
vt 0.591837 0.000000
vt 0.632653 0.000000
vt 0.612245 0.000000
vt 0.571429 0.000000
vt 0.653061 0.000000
vt 0.551020 0.000000
vt 0.673469 0.000000
vt 0.530612 0.000000
vt 0.755102 0.000000
vt 0.795918 0.000000
vt 0.775510 0.000000
vt 0.734694 0.000000
vt 0.816327 0.000000
vt 0.714286 0.000000
vt 0.836735 0.000000
vt 0.693878 0.000000
vt 0.918367 0.000000
vt 0.959184 0.000000
vt 0.938776 0.000000
vt 0.897959 0.000000
vt 0.979592 0.000000
vt 0.877551 0.000000
vt 1.000000 0.000000
vt 0.857143 0.000000
vt 0.102041 0.000000
vt 0.142857 0.000000
vt 0.122449 0.000000
vt 0.163265 0.000000
vt 0.081633 0.000000
vt 0.183673 0.000000
vt 0.204082 0.000000
vt 0.061224 0.000000
vt 0.224490 0.000000
vt 0.244898 0.000000
vt 0.040816 0.000000
vt 0.265306 0.000000
vt 0.285714 0.000000
vt 0.020408 0.000000
vt 0.306122 0.000000
vt 0.000000 0.000000
vt 0.000000 1.000000
vt 0.100000 1.000000
vt 0.100000 0.000000
vt 0.200000 1.000000
vt 0.200000 0.000000
vt 0.300000 1.000000
vt 0.300000 0.000000
vt 0.400000 1.000000
vt 0.400000 0.000000
vt 0.500000 1.000000
vt 0.500000 0.000000
vt 0.600000 1.000000
vt 0.600000 0.000000
vt 0.700000 1.000000
vt 0.700000 0.000000
vt 0.800000 1.000000
vt 0.800000 0.000000
vt 0.900000 1.000000
vt 0.900000 0.000000
vt 1.000000 1.000000
vt 0.125000 1.000000
vt 0.125000 0.000000
vt 0.250000 1.000000
vt 0.250000 0.000000
vt 0.375000 1.000000
vt 0.375000 0.000000
vt 0.625000 1.000000
vt 0.625000 0.000000
vt 0.750000 1.000000
vt 0.750000 0.000000
vt 0.875000 1.000000
vt 0.875000 0.000000
vt 0.062500 1.000000
vt 0.062500 0.000000
vt 0.187500 1.000000
vt 0.187500 0.000000
vt 0.312500 1.000000
vt 0.312500 0.000000
vt 0.437500 1.000000
vt 0.437500 0.000000
vt 0.562500 1.000000
vt 0.562500 0.000000
vt 0.687500 1.000000
vt 0.687500 0.000000
vt 0.812500 1.000000
vt 0.812500 0.000000
vt 0.937500 1.000000
vt 0.937500 0.000000
s 0
f 21/1/1 23/2/1 22/3/1
f 21/1/1 24/4/1 23/2/1
f 20/5/1 24/4/1 21/1/1
f 20/5/1 25/6/1 24/4/1
f 19/7/1 25/6/1 20/5/1
f 19/7/1 26/8/1 25/6/1
f 18/9/1 26/8/1 19/7/1
f 18/9/1 17/10/1 26/8/1
f 30/11/1 32/12/1 31/13/1
f 29/14/1 32/12/1 30/11/1
f 29/14/1 33/15/1 32/12/1
f 28/16/1 33/15/1 29/14/1
f 28/16/1 34/17/1 33/15/1
f 27/18/1 34/17/1 28/16/1
f 38/19/1 40/20/1 39/21/1
f 37/22/1 40/20/1 38/19/1
f 37/22/1 41/23/1 40/20/1
f 36/24/1 41/23/1 37/22/1
f 36/24/1 42/25/1 41/23/1
f 35/26/1 42/25/1 36/24/1
f 46/27/1 48/28/1 47/29/1
f 45/30/1 48/28/1 46/27/1
f 45/30/1 49/31/1 48/28/1
f 44/32/1 49/31/1 45/30/1
f 44/32/1 50/33/1 49/31/1
f 43/34/1 50/33/1 44/32/1
f 6/35/1 8/36/1 7/37/1
f 6/35/1 9/38/1 8/36/1
f 5/39/1 10/40/1 6/35/1
f 10/40/1 9/38/1 6/35/1
f 5/39/1 11/41/1 10/40/1
f 4/42/1 12/43/1 5/39/1
f 12/43/1 11/41/1 5/39/1
f 4/42/1 13/44/1 12/43/1
f 3/45/1 14/46/1 4/42/1
f 14/46/2 13/44/2 4/42/2
f 3/45/1 15/47/1 14/46/1
f 2/48/1 16/49/1 3/45/1
f 16/49/1 15/47/1 3/45/1
f 2/48/1 1/50/1 16/49/1
f 71/1/2 72/3/2 73/2/2
f 71/1/2 73/2/2 74/4/2
f 70/5/2 71/1/2 74/4/2
f 70/5/2 74/4/2 75/6/2
f 69/7/2 70/5/2 75/6/2
f 69/7/2 75/6/2 76/8/2
f 68/9/2 69/7/2 76/8/2
f 68/9/2 76/8/2 67/10/2
f 80/11/2 81/13/2 82/12/2
f 79/14/2 80/11/2 82/12/2
f 79/14/2 82/12/2 83/15/2
f 78/16/2 79/14/2 83/15/2
f 78/16/2 83/15/2 84/17/2
f 77/18/2 78/16/2 84/17/2
f 88/19/2 89/21/2 90/20/2
f 87/22/2 88/19/2 90/20/2
f 87/22/2 90/20/2 91/23/2
f 86/24/2 87/22/2 91/23/2
f 86/24/2 91/23/2 92/25/2
f 85/26/2 86/24/2 92/25/2
f 96/27/2 97/29/2 98/28/2
f 95/30/2 96/27/2 98/28/2
f 95/30/2 98/28/2 99/31/2
f 94/32/2 95/30/2 99/31/2
f 94/32/2 99/31/2 100/33/2
f 93/34/2 94/32/2 100/33/2
f 56/35/2 57/37/2 58/36/2
f 56/35/2 58/36/2 59/38/2
f 55/39/2 56/35/2 60/40/2
f 60/40/1 56/35/1 59/38/1
f 55/39/2 60/40/2 61/41/2
f 54/42/2 55/39/2 62/43/2
f 62/43/1 55/39/1 61/41/1
f 54/42/2 62/43/2 63/44/2
f 53/45/2 54/42/2 64/46/2
f 64/46/1 54/42/1 63/44/1
f 53/45/2 64/46/2 65/47/2
f 52/48/2 53/45/2 66/49/2
f 66/49/1 53/45/1 65/47/1
f 52/48/2 66/49/2 51/50/2
s 1
f 102/51/3 104/52/4 103/53/4 101/50/3
f 104/52/4 106/54/5 105/55/5 103/53/4
f 106/54/5 108/56/6 107/57/6 105/55/5
f 108/56/6 110/58/7 109/59/7 107/57/6
f 110/58/7 112/60/8 111/61/8 109/59/7
f 112/60/8 114/62/9 113/63/9 111/61/8
f 114/62/9 116/64/10 115/65/10 113/63/9
f 116/64/10 118/66/11 117/67/11 115/65/10
f 118/66/11 120/68/12 119/69/12 117/67/11
f 120/68/12 102/70/3 101/33/3 119/69/12
f 122/51/13 124/71/5 123/72/5 121/50/13
f 124/71/5 126/73/6 125/74/6 123/72/5
f 126/73/6 128/75/7 127/76/7 125/74/6
f 128/75/7 130/60/14 129/61/14 127/76/7
f 130/60/14 132/77/10 131/78/10 129/61/14
f 132/77/10 134/79/11 133/80/11 131/78/10
f 134/79/11 136/81/12 135/82/12 133/80/11
f 136/81/12 122/70/13 121/33/13 135/82/12
f 138/51/13 140/71/5 139/72/5 137/50/13
f 140/71/5 142/73/6 141/74/6 139/72/5
f 142/73/6 144/75/7 143/76/7 141/74/6
f 144/75/7 146/60/14 145/61/14 143/76/7
f 146/60/14 148/77/10 147/78/10 145/61/14
f 148/77/10 150/79/11 149/80/11 147/78/10
f 150/79/11 152/81/12 151/82/12 149/80/11
f 152/81/12 138/70/13 137/33/13 151/82/12
f 154/51/13 156/71/5 155/72/5 153/50/13
f 156/71/5 158/73/6 157/74/6 155/72/5
f 158/73/6 160/75/7 159/76/7 157/74/6
f 160/75/7 162/60/14 161/61/14 159/76/7
f 162/60/14 164/77/10 163/78/10 161/61/14
f 164/77/10 166/79/11 165/80/11 163/78/10
f 166/79/11 168/81/12 167/82/12 165/80/11
f 168/81/12 154/70/13 153/33/13 167/82/12
f 170/51/15 172/83/16 171/84/16 169/50/15
f 172/83/16 174/71/17 173/72/17 171/84/16
f 174/71/17 176/85/17 175/86/17 173/72/17
f 176/85/17 178/73/17 177/74/17 175/86/17
f 178/73/17 180/87/17 179/88/17 177/74/17
f 180/87/17 182/75/18 181/76/18 179/88/17
f 182/75/18 184/89/19 183/90/19 181/76/18
f 184/89/19 186/60/20 185/61/20 183/90/19
f 186/60/20 188/91/15 187/92/15 185/61/20
f 188/91/15 190/77/15 189/78/15 187/92/15
f 190/77/15 192/93/15 191/94/15 189/78/15
f 192/93/15 194/79/15 193/80/15 191/94/15
f 194/79/15 196/95/15 195/96/15 193/80/15
f 196/95/15 198/81/15 197/82/15 195/96/15
f 198/81/15 200/97/15 199/98/15 197/82/15
f 200/97/15 170/70/15 169/33/15 199/98/15
