# Blender 4.1.1
# www.blender.org
o :
v -0.056555 0.196245 -0.100000
v -0.079324 0.141021 -0.100000
v -0.056555 0.085567 -0.100000
v -0.001836 0.065369 -0.100000
v 0.053066 0.085567 -0.100000
v 0.076019 0.141021 -0.100000
v 0.053066 0.196245 -0.100000
v -0.001836 0.215938 -0.100000
v 0.053066 -0.088000 -0.100000
v -0.001836 -0.068307 -0.100000
v -0.056555 -0.088000 -0.100000
v -0.079324 -0.143224 -0.100000
v -0.056555 -0.198678 -0.100000
v -0.001836 -0.218876 -0.100000
v 0.053066 -0.198678 -0.100000
v 0.076019 -0.143224 -0.100000
v -0.056555 0.196245 0.100000
v -0.079324 0.141021 0.100000
v -0.056555 0.085567 0.100000
v -0.001836 0.065369 0.100000
v 0.053067 0.085567 0.100000
v 0.076019 0.141021 0.100000
v 0.053067 0.196245 0.100000
v -0.001836 0.215938 0.100000
v 0.053067 -0.088000 0.100000
v -0.001836 -0.068307 0.100000
v -0.056555 -0.088000 0.100000
v -0.079324 -0.143224 0.100000
v -0.056555 -0.198678 0.100000
v -0.001836 -0.218876 0.100000
v 0.053067 -0.198678 0.100000
v 0.076019 -0.143224 0.100000
v 0.053067 -0.088000 0.100000
v 0.053066 -0.088000 -0.100000
v -0.001836 -0.068307 0.100000
v -0.001836 -0.068307 -0.100000
v -0.056555 -0.088000 0.100000
v -0.056555 -0.088000 -0.100000
v -0.079324 -0.143224 0.100000
v -0.079324 -0.143224 -0.100000
v -0.056555 -0.198678 0.100000
v -0.056555 -0.198678 -0.100000
v -0.001836 -0.218876 0.100000
v -0.001836 -0.218876 -0.100000
v 0.053067 -0.198678 0.100000
v 0.053066 -0.198678 -0.100000
v 0.076019 -0.143224 0.100000
v 0.076019 -0.143224 -0.100000
v -0.056555 0.196245 0.100000
v -0.056555 0.196245 -0.100000
v -0.079324 0.141021 0.100000
v -0.079324 0.141021 -0.100000
v -0.056555 0.085567 0.100000
v -0.056555 0.085567 -0.100000
v -0.001836 0.065369 0.100000
v -0.001836 0.065369 -0.100000
v 0.053067 0.085567 0.100000
v 0.053066 0.085567 -0.100000
v 0.076019 0.141021 0.100000
v 0.076019 0.141021 -0.100000
v 0.053067 0.196245 0.100000
v 0.053066 0.196245 -0.100000
v -0.001836 0.215938 0.100000
v -0.001836 0.215938 -0.100000
vn -0.0000 -0.0000 -1.0000
vn -0.0000 -0.0000 1.0000
vn 0.6894 0.7244 -0.0000
vn -0.0005 1.0000 -0.0000
vn -0.6908 0.7230 -0.0000
vn -1.0000 0.0007 -0.0000
vn -0.6943 -0.7197 -0.0000
vn -0.0005 -1.0000 -0.0000
vn 0.6929 -0.7211 -0.0000
vn 1.0000 0.0007 -0.0000
vt 0.533333 0.000000
vt 0.666667 0.000000
vt 0.600000 0.000000
vt 1.000000 0.000000
vt 0.733333 0.000000
vt 0.933333 0.000000
vt 0.800000 0.000000
vt 0.866667 0.000000
vt 0.400000 0.000000
vt 0.000000 0.000000
vt 0.466667 0.000000
vt 0.333333 0.000000
vt 0.066667 0.000000
vt 0.266667 0.000000
vt 0.133333 0.000000
vt 0.200000 0.000000
vt 0.000000 1.000000
vt 0.125000 1.000000
vt 0.125000 0.000000
vt 0.250000 1.000000
vt 0.250000 0.000000
vt 0.375000 1.000000
vt 0.375000 0.000000
vt 0.500000 1.000000
vt 0.500000 0.000000
vt 0.625000 1.000000
vt 0.625000 0.000000
vt 0.750000 1.000000
vt 0.750000 0.000000
vt 0.875000 1.000000
vt 0.875000 0.000000
vt 1.000000 1.000000
s 0
f 9/1/1 11/2/1 10/3/1
f 16/4/1 11/2/1 9/1/1
f 16/4/1 12/5/1 11/2/1
f 15/6/1 12/5/1 16/4/1
f 15/6/1 13/7/1 12/5/1
f 15/6/1 14/8/1 13/7/1
f 7/9/1 1/10/1 8/11/1
f 6/12/1 1/10/1 7/9/1
f 6/12/1 2/13/1 1/10/1
f 5/14/1 2/13/1 6/12/1
f 5/14/1 3/15/1 2/13/1
f 4/16/1 3/15/1 5/14/1
f 25/1/2 26/3/2 27/2/2
f 32/4/2 25/1/2 27/2/2
f 32/4/2 27/2/2 28/5/2
f 31/6/2 32/4/2 28/5/2
f 31/6/2 28/5/2 29/7/2
f 31/6/2 29/7/2 30/8/2
f 23/9/2 24/11/2 17/10/2
f 22/12/2 23/9/2 17/10/2
f 22/12/2 17/10/2 18/13/2
f 21/14/2 22/12/2 18/13/2
f 21/14/2 18/13/2 19/15/2
f 20/16/2 21/14/2 19/15/2
s 1
f 34/17/3 36/18/4 35/19/4 33/10/3
f 36/18/4 38/20/5 37/21/5 35/19/4
f 38/20/5 40/22/6 39/23/6 37/21/5
f 40/22/6 42/24/7 41/25/7 39/23/6
f 42/24/7 44/26/8 43/27/8 41/25/7
f 44/26/8 46/28/9 45/29/9 43/27/8
f 46/28/9 48/30/10 47/31/10 45/29/9
f 48/30/10 34/32/3 33/4/3 47/31/10
f 50/17/5 52/18/6 51/19/6 49/10/5
f 52/18/6 54/20/7 53/21/7 51/19/6
f 54/20/7 56/22/8 55/23/8 53/21/7
f 56/22/8 58/24/9 57/25/9 55/23/8
f 58/24/9 60/26/10 59/27/10 57/25/9
f 60/26/10 62/28/3 61/29/3 59/27/10
f 62/28/3 64/30/4 63/31/4 61/29/3
f 64/30/4 50/32/5 49/4/5 63/31/4
