# Blender 4.1.1
# www.blender.org
o O
v 0.052162 -0.169035 -0.100000
v -0.147717 -0.169035 -0.100000
v -0.147717 0.263985 -0.100000
v 0.052162 0.263985 -0.100000
v -0.211521 -0.218022 -0.100000
v 0.211521 -0.218022 -0.100000
v 0.211521 0.315089 -0.100000
v -0.211521 0.315089 -0.100000
v 0.052162 -0.169035 0.100000
v -0.147717 -0.169035 0.100000
v -0.147717 0.263985 0.100000
v 0.052162 0.263985 0.100000
v -0.211521 -0.218022 0.100000
v 0.211521 -0.218022 0.100000
v 0.211521 0.315089 0.100000
v -0.211521 0.315089 0.100000
v 0.052162 -0.169035 0.100000
v 0.052162 -0.169035 -0.100000
v -0.147717 -0.169035 0.100000
v -0.147717 -0.169035 -0.100000
v -0.147717 0.263985 0.100000
v -0.147717 0.263985 -0.100000
v 0.052162 0.263985 0.100000
v 0.052162 0.263985 -0.100000
v -0.211521 -0.218022 0.100000
v -0.211521 -0.218022 -0.100000
v 0.211521 -0.218022 0.100000
v 0.211521 -0.218022 -0.100000
v 0.211521 0.315089 0.100000
v 0.211521 0.315089 -0.100000
v -0.211521 0.315089 0.100000
v -0.211521 0.315089 -0.100000
vn -0.0000 -0.0000 -1.0000
vn -0.0000 -0.0000 1.0000
vn -0.7071 0.7071 -0.0000
vn 0.7071 0.7071 -0.0000
vn 0.7071 -0.7071 -0.0000
vn -0.7071 -0.7071 -0.0000
vt 0.714286 0.000000
vt 0.428571 0.000000
vt 0.857143 0.000000
vt 1.000000 0.000000
vt 0.285714 0.000000
vt 0.571429 0.000000
vt 0.000000 0.000000
vt 0.142857 0.000000
vt 0.000000 1.000000
vt 0.250000 1.000000
vt 0.250000 0.000000
vt 0.500000 1.000000
vt 0.500000 0.000000
vt 0.750000 1.000000
vt 0.750000 0.000000
vt 1.000000 1.000000
s 0
f 6/1/1 4/2/1 7/3/1
f 4/2/1 8/4/1 7/3/1
f 4/2/1 3/5/1 8/4/1
f 3/5/1 5/6/1 8/4/1
f 6/1/1 1/7/1 4/2/1
f 2/8/1 5/6/1 3/5/1
f 6/1/1 2/8/1 1/7/1
f 6/1/1 5/6/1 2/8/1
f 14/1/2 15/3/2 12/2/2
f 12/2/2 15/3/2 16/4/2
f 12/2/2 16/4/2 11/5/2
f 11/5/2 16/4/2 13/6/2
f 14/1/2 12/2/2 9/7/2
f 10/8/2 11/5/2 13/6/2
f 14/1/2 9/7/2 10/8/2
f 14/1/2 10/8/2 13/6/2
s 1
f 18/9/3 20/10/4 19/11/4 17/7/3
f 20/10/4 22/12/5 21/13/5 19/11/4
f 22/12/5 24/14/6 23/15/6 21/13/5
f 24/14/6 18/16/3 17/4/3 23/15/6
f 26/9/6 28/10/5 27/11/5 25/7/6
f 28/10/5 30/12/4 29/13/4 27/11/5
f 30/12/4 32/14/3 31/15/3 29/13/4
f 32/14/3 26/16/6 25/4/6 31/15/3
