# Blender 4.1.1
# www.blender.org
o o
v 0.064579 -0.000000 -0.100000
v 0.125245 -0.000000 -0.100000
v 0.125245 0.060665 -0.100000
v 0.064579 0.060665 -0.100000
v 0.252446 -0.313112 -0.100000
v 0.313112 -0.313112 -0.100000
v 0.313112 -0.252446 -0.100000
v 0.252446 -0.252446 -0.100000
v 0.189824 -0.313112 -0.100000
v 0.250489 -0.313112 -0.100000
v 0.250489 -0.252446 -0.100000
v 0.189824 -0.252446 -0.100000
v 0.127202 -0.313112 -0.100000
v 0.187867 -0.313112 -0.100000
v 0.187867 -0.252446 -0.100000
v 0.127202 -0.252446 -0.100000
v 0.064579 -0.313112 -0.100000
v 0.125245 -0.313112 -0.100000
v 0.125245 -0.252446 -0.100000
v 0.064579 -0.252446 -0.100000
v 0.315068 -0.250489 -0.100000
v 0.375734 -0.250489 -0.100000
v 0.375734 -0.189824 -0.100000
v 0.315068 -0.189824 -0.100000
v 0.252446 -0.250489 -0.100000
v 0.313112 -0.250489 -0.100000
v 0.313112 -0.189824 -0.100000
v 0.252446 -0.189824 -0.100000
v 0.064579 -0.250489 -0.100000
v 0.125245 -0.250489 -0.100000
v 0.125245 -0.189824 -0.100000
v 0.064579 -0.189824 -0.100000
v 0.001957 -0.250489 -0.100000
v 0.062622 -0.250489 -0.100000
v 0.062622 -0.189824 -0.100000
v 0.001957 -0.189824 -0.100000
v 0.315068 -0.187867 -0.100000
v 0.375734 -0.187867 -0.100000
v 0.375734 -0.127202 -0.100000
v 0.315068 -0.127202 -0.100000
v 0.252446 -0.187867 -0.100000
v 0.313112 -0.187867 -0.100000
v 0.313112 -0.127202 -0.100000
v 0.252446 -0.127202 -0.100000
v 0.064579 -0.187867 -0.100000
v 0.125245 -0.187867 -0.100000
v 0.125245 -0.127202 -0.100000
v 0.064579 -0.127202 -0.100000
v 0.001957 -0.187867 -0.100000
v 0.062622 -0.187867 -0.100000
v 0.062622 -0.127202 -0.100000
v 0.001957 -0.127202 -0.100000
v 0.315068 -0.125245 -0.100000
v 0.375734 -0.125245 -0.100000
v 0.375734 -0.064579 -0.100000
v 0.315068 -0.064579 -0.100000
v 0.252446 -0.125245 -0.100000
v 0.313112 -0.125245 -0.100000
v 0.313112 -0.064579 -0.100000
v 0.252446 -0.064579 -0.100000
v 0.064579 -0.125245 -0.100000
v 0.125245 -0.125245 -0.100000
v 0.125245 -0.064579 -0.100000
v 0.064579 -0.064579 -0.100000
v 0.001957 -0.125245 -0.100000
v 0.062622 -0.125245 -0.100000
v 0.062622 -0.064579 -0.100000
v 0.001957 -0.064579 -0.100000
v 0.315068 -0.062622 -0.100000
v 0.375734 -0.062622 -0.100000
v 0.375734 -0.001957 -0.100000
v 0.315068 -0.001957 -0.100000
v 0.252446 -0.062622 -0.100000
v 0.313112 -0.062622 -0.100000
v 0.313112 -0.001957 -0.100000
v 0.252446 -0.001957 -0.100000
v 0.064579 -0.062622 -0.100000
v 0.125245 -0.062622 -0.100000
v 0.125245 -0.001957 -0.100000
v 0.064579 -0.001957 -0.100000
v 0.001957 -0.062622 -0.100000
v 0.062622 -0.062622 -0.100000
v 0.062622 -0.001957 -0.100000
v 0.001957 -0.001957 -0.100000
v 0.252446 -0.000000 -0.100000
v 0.313112 -0.000000 -0.100000
v 0.313112 0.060665 -0.100000
v 0.252446 0.060665 -0.100000
v 0.189824 -0.000000 -0.100000
v 0.250489 -0.000000 -0.100000
v 0.250489 0.060665 -0.100000
v 0.189824 0.060665 -0.100000
v 0.127202 -0.000000 -0.100000
v 0.187867 -0.000000 -0.100000
v 0.187867 0.060665 -0.100000
v 0.127202 0.060665 -0.100000
v 0.064579 0.000000 0.100000
v 0.125245 0.000000 0.100000
v 0.125245 0.060665 0.100000
v 0.064579 0.060665 0.100000
v 0.252446 -0.313112 0.100000
v 0.313112 -0.313112 0.100000
v 0.313112 -0.252446 0.100000
v 0.252446 -0.252446 0.100000
v 0.189824 -0.313112 0.100000
v 0.250489 -0.313112 0.100000
v 0.250489 -0.252446 0.100000
v 0.189824 -0.252446 0.100000
v 0.127202 -0.313112 0.100000
v 0.187867 -0.313112 0.100000
v 0.187867 -0.252446 0.100000
v 0.127202 -0.252446 0.100000
v 0.064579 -0.313112 0.100000
v 0.125245 -0.313112 0.100000
v 0.125245 -0.252446 0.100000
v 0.064579 -0.252446 0.100000
v 0.315069 -0.250489 0.100000
v 0.375734 -0.250489 0.100000
v 0.375734 -0.189824 0.100000
v 0.315069 -0.189824 0.100000
v 0.252446 -0.250489 0.100000
v 0.313112 -0.250489 0.100000
v 0.313112 -0.189824 0.100000
v 0.252446 -0.189824 0.100000
v 0.064579 -0.250489 0.100000
v 0.125245 -0.250489 0.100000
v 0.125245 -0.189824 0.100000
v 0.064579 -0.189824 0.100000
v 0.001957 -0.250489 0.100000
v 0.062622 -0.250489 0.100000
v 0.062622 -0.189824 0.100000
v 0.001957 -0.189824 0.100000
v 0.315069 -0.187867 0.100000
v 0.375734 -0.187867 0.100000
v 0.375734 -0.127202 0.100000
v 0.315069 -0.127202 0.100000
v 0.252446 -0.187867 0.100000
v 0.313112 -0.187867 0.100000
v 0.313112 -0.127202 0.100000
v 0.252446 -0.127202 0.100000
v 0.064579 -0.187867 0.100000
v 0.125245 -0.187867 0.100000
v 0.125245 -0.127202 0.100000
v 0.064579 -0.127202 0.100000
v 0.001957 -0.187867 0.100000
v 0.062622 -0.187867 0.100000
v 0.062622 -0.127202 0.100000
v 0.001957 -0.127202 0.100000
v 0.315069 -0.125245 0.100000
v 0.375734 -0.125245 0.100000
v 0.375734 -0.064579 0.100000
v 0.315069 -0.064579 0.100000
v 0.252446 -0.125245 0.100000
v 0.313112 -0.125245 0.100000
v 0.313112 -0.064579 0.100000
v 0.252446 -0.064579 0.100000
v 0.064579 -0.125245 0.100000
v 0.125245 -0.125245 0.100000
v 0.125245 -0.064579 0.100000
v 0.064579 -0.064579 0.100000
v 0.001957 -0.125245 0.100000
v 0.062622 -0.125245 0.100000
v 0.062622 -0.064579 0.100000
v 0.001957 -0.064579 0.100000
v 0.315069 -0.062622 0.100000
v 0.375734 -0.062622 0.100000
v 0.375734 -0.001957 0.100000
v 0.315069 -0.001957 0.100000
v 0.252446 -0.062622 0.100000
v 0.313112 -0.062622 0.100000
v 0.313112 -0.001957 0.100000
v 0.252446 -0.001957 0.100000
v 0.064579 -0.062622 0.100000
v 0.125245 -0.062622 0.100000
v 0.125245 -0.001957 0.100000
v 0.064579 -0.001957 0.100000
v 0.001957 -0.062622 0.100000
v 0.062622 -0.062622 0.100000
v 0.062622 -0.001957 0.100000
v 0.001957 -0.001957 0.100000
v 0.252446 0.000000 0.100000
v 0.313112 0.000000 0.100000
v 0.313112 0.060665 0.100000
v 0.252446 0.060665 0.100000
v 0.189824 0.000000 0.100000
v 0.250489 0.000000 0.100000
v 0.250489 0.060665 0.100000
v 0.189824 0.060665 0.100000
v 0.127202 0.000000 0.100000
v 0.187867 0.000000 0.100000
v 0.187867 0.060665 0.100000
v 0.127202 0.060665 0.100000
v 0.252446 -0.313112 0.100000
v 0.252446 -0.313112 -0.100000
v 0.313112 -0.313112 0.100000
v 0.313112 -0.313112 -0.100000
v 0.313112 -0.252446 0.100000
v 0.313112 -0.252446 -0.100000
v 0.252446 -0.252446 0.100000
v 0.252446 -0.252446 -0.100000
v 0.189824 -0.313112 0.100000
v 0.189824 -0.313112 -0.100000
v 0.250489 -0.313112 0.100000
v 0.250489 -0.313112 -0.100000
v 0.250489 -0.252446 0.100000
v 0.250489 -0.252446 -0.100000
v 0.189824 -0.252446 0.100000
v 0.189824 -0.252446 -0.100000
v 0.127202 -0.313112 0.100000
v 0.127202 -0.313112 -0.100000
v 0.187867 -0.313112 0.100000
v 0.187867 -0.313112 -0.100000
v 0.187867 -0.252446 0.100000
v 0.187867 -0.252446 -0.100000
v 0.127202 -0.252446 0.100000
v 0.127202 -0.252446 -0.100000
v 0.064579 -0.313112 0.100000
v 0.064579 -0.313112 -0.100000
v 0.125245 -0.313112 0.100000
v 0.125245 -0.313112 -0.100000
v 0.125245 -0.252446 0.100000
v 0.125245 -0.252446 -0.100000
v 0.064579 -0.252446 0.100000
v 0.064579 -0.252446 -0.100000
v 0.315069 -0.250489 0.100000
v 0.315068 -0.250489 -0.100000
v 0.375734 -0.250489 0.100000
v 0.375734 -0.250489 -0.100000
v 0.375734 -0.189824 0.100000
v 0.375734 -0.189824 -0.100000
v 0.315069 -0.189824 0.100000
v 0.315068 -0.189824 -0.100000
v 0.252446 -0.250489 0.100000
v 0.252446 -0.250489 -0.100000
v 0.313112 -0.250489 0.100000
v 0.313112 -0.250489 -0.100000
v 0.313112 -0.189824 0.100000
v 0.313112 -0.189824 -0.100000
v 0.252446 -0.189824 0.100000
v 0.252446 -0.189824 -0.100000
v 0.064579 -0.250489 0.100000
v 0.064579 -0.250489 -0.100000
v 0.125245 -0.250489 0.100000
v 0.125245 -0.250489 -0.100000
v 0.125245 -0.189824 0.100000
v 0.125245 -0.189824 -0.100000
v 0.064579 -0.189824 0.100000
v 0.064579 -0.189824 -0.100000
v 0.001957 -0.250489 0.100000
v 0.001957 -0.250489 -0.100000
v 0.062622 -0.250489 0.100000
v 0.062622 -0.250489 -0.100000
v 0.062622 -0.189824 0.100000
v 0.062622 -0.189824 -0.100000
v 0.001957 -0.189824 0.100000
v 0.001957 -0.189824 -0.100000
v 0.315069 -0.187867 0.100000
v 0.315068 -0.187867 -0.100000
v 0.375734 -0.187867 0.100000
v 0.375734 -0.187867 -0.100000
v 0.375734 -0.127202 0.100000
v 0.375734 -0.127202 -0.100000
v 0.315069 -0.127202 0.100000
v 0.315068 -0.127202 -0.100000
v 0.252446 -0.187867 0.100000
v 0.252446 -0.187867 -0.100000
v 0.313112 -0.187867 0.100000
v 0.313112 -0.187867 -0.100000
v 0.313112 -0.127202 0.100000
v 0.313112 -0.127202 -0.100000
v 0.252446 -0.127202 0.100000
v 0.252446 -0.127202 -0.100000
v 0.064579 -0.187867 0.100000
v 0.064579 -0.187867 -0.100000
v 0.125245 -0.187867 0.100000
v 0.125245 -0.187867 -0.100000
v 0.125245 -0.127202 0.100000
v 0.125245 -0.127202 -0.100000
v 0.064579 -0.127202 0.100000
v 0.064579 -0.127202 -0.100000
v 0.001957 -0.187867 0.100000
v 0.001957 -0.187867 -0.100000
v 0.062622 -0.187867 0.100000
v 0.062622 -0.187867 -0.100000
v 0.062622 -0.127202 0.100000
v 0.062622 -0.127202 -0.100000
v 0.001957 -0.127202 0.100000
v 0.001957 -0.127202 -0.100000
v 0.315069 -0.125245 0.100000
v 0.315068 -0.125245 -0.100000
v 0.375734 -0.125245 0.100000
v 0.375734 -0.125245 -0.100000
v 0.375734 -0.064579 0.100000
v 0.375734 -0.064579 -0.100000
v 0.315069 -0.064579 0.100000
v 0.315068 -0.064579 -0.100000
v 0.252446 -0.125245 0.100000
v 0.252446 -0.125245 -0.100000
v 0.313112 -0.125245 0.100000
v 0.313112 -0.125245 -0.100000
v 0.313112 -0.064579 0.100000
v 0.313112 -0.064579 -0.100000
v 0.252446 -0.064579 0.100000
v 0.252446 -0.064579 -0.100000
v 0.064579 -0.125245 0.100000
v 0.064579 -0.125245 -0.100000
v 0.125245 -0.125245 0.100000
v 0.125245 -0.125245 -0.100000
v 0.125245 -0.064579 0.100000
v 0.125245 -0.064579 -0.100000
v 0.064579 -0.064579 0.100000
v 0.064579 -0.064579 -0.100000
v 0.001957 -0.125245 0.100000
v 0.001957 -0.125245 -0.100000
v 0.062622 -0.125245 0.100000
v 0.062622 -0.125245 -0.100000
v 0.062622 -0.064579 0.100000
v 0.062622 -0.064579 -0.100000
v 0.001957 -0.064579 0.100000
v 0.001957 -0.064579 -0.100000
v 0.315069 -0.062622 0.100000
v 0.315068 -0.062622 -0.100000
v 0.375734 -0.062622 0.100000
v 0.375734 -0.062622 -0.100000
v 0.375734 -0.001957 0.100000
v 0.375734 -0.001957 -0.100000
v 0.315069 -0.001957 0.100000
v 0.315068 -0.001957 -0.100000
v 0.252446 -0.062622 0.100000
v 0.252446 -0.062622 -0.100000
v 0.313112 -0.062622 0.100000
v 0.313112 -0.062622 -0.100000
v 0.313112 -0.001957 0.100000
v 0.313112 -0.001957 -0.100000
v 0.252446 -0.001957 0.100000
v 0.252446 -0.001957 -0.100000
v 0.064579 -0.062622 0.100000
v 0.064579 -0.062622 -0.100000
v 0.125245 -0.062622 0.100000
v 0.125245 -0.062622 -0.100000
v 0.125245 -0.001957 0.100000
v 0.125245 -0.001957 -0.100000
v 0.064579 -0.001957 0.100000
v 0.064579 -0.001957 -0.100000
v 0.001957 -0.062622 0.100000
v 0.001957 -0.062622 -0.100000
v 0.062622 -0.062622 0.100000
v 0.062622 -0.062622 -0.100000
v 0.062622 -0.001957 0.100000
v 0.062622 -0.001957 -0.100000
v 0.001957 -0.001957 0.100000
v 0.001957 -0.001957 -0.100000
v 0.252446 0.000000 0.100000
v 0.252446 -0.000000 -0.100000
v 0.313112 0.000000 0.100000
v 0.313112 -0.000000 -0.100000
v 0.313112 0.060665 0.100000
v 0.313112 0.060665 -0.100000
v 0.252446 0.060665 0.100000
v 0.252446 0.060665 -0.100000
v 0.189824 0.000000 0.100000
v 0.189824 -0.000000 -0.100000
v 0.250489 0.000000 0.100000
v 0.250489 -0.000000 -0.100000
v 0.250489 0.060665 0.100000
v 0.250489 0.060665 -0.100000
v 0.189824 0.060665 0.100000
v 0.189824 0.060665 -0.100000
v 0.127202 0.000000 0.100000
v 0.127202 -0.000000 -0.100000
v 0.187867 0.000000 0.100000
v 0.187867 -0.000000 -0.100000
v 0.187867 0.060665 0.100000
v 0.187867 0.060665 -0.100000
v 0.127202 0.060665 0.100000
v 0.127202 0.060665 -0.100000
v 0.064579 0.000000 0.100000
v 0.064579 -0.000000 -0.100000
v 0.125245 0.000000 0.100000
v 0.125245 -0.000000 -0.100000
v 0.125245 0.060665 0.100000
v 0.125245 0.060665 -0.100000
v 0.064579 0.060665 0.100000
v 0.064579 0.060665 -0.100000
vn -0.0000 -0.0000 -1.0000
vn -0.0000 -0.0000 1.0000
vn -0.7071 -0.7071 -0.0000
vn 0.7071 -0.7071 -0.0000
vn 0.7071 0.7071 -0.0000
vn -0.7071 0.7071 -0.0000
vt 0.052632 0.000000
vt 0.073684 0.000000
vt 0.063158 0.000000
vt 0.042105 0.000000
vt 0.094737 0.000000
vt 0.115789 0.000000
vt 0.105263 0.000000
vt 0.084211 0.000000
vt 0.136842 0.000000
vt 0.157895 0.000000
vt 0.147368 0.000000
vt 0.126316 0.000000
vt 0.178947 0.000000
vt 0.200000 0.000000
vt 0.189474 0.000000
vt 0.168421 0.000000
vt 0.221053 0.000000
vt 0.242105 0.000000
vt 0.231579 0.000000
vt 0.210526 0.000000
vt 0.263158 0.000000
vt 0.284211 0.000000
vt 0.273684 0.000000
vt 0.252632 0.000000
vt 0.305263 0.000000
vt 0.326316 0.000000
vt 0.315789 0.000000
vt 0.294737 0.000000
vt 0.347368 0.000000
vt 0.368421 0.000000
vt 0.357895 0.000000
vt 0.336842 0.000000
vt 0.389474 0.000000
vt 0.410526 0.000000
vt 0.400000 0.000000
vt 0.378947 0.000000
vt 0.431579 0.000000
vt 0.452632 0.000000
vt 0.442105 0.000000
vt 0.421053 0.000000
vt 0.473684 0.000000
vt 0.494737 0.000000
vt 0.484211 0.000000
vt 0.463158 0.000000
vt 0.515789 0.000000
vt 0.536842 0.000000
vt 0.526316 0.000000
vt 0.505263 0.000000
vt 0.557895 0.000000
vt 0.578947 0.000000
vt 0.568421 0.000000
vt 0.547368 0.000000
vt 0.600000 0.000000
vt 0.621053 0.000000
vt 0.610526 0.000000
vt 0.589474 0.000000
vt 0.642105 0.000000
vt 0.663158 0.000000
vt 0.652632 0.000000
vt 0.631579 0.000000
vt 0.684211 0.000000
vt 0.705263 0.000000
vt 0.694737 0.000000
vt 0.673684 0.000000
vt 0.726316 0.000000
vt 0.747368 0.000000
vt 0.736842 0.000000
vt 0.715789 0.000000
vt 0.768421 0.000000
vt 0.789474 0.000000
vt 0.778947 0.000000
vt 0.757895 0.000000
vt 0.810526 0.000000
vt 0.831579 0.000000
vt 0.821053 0.000000
vt 0.800000 0.000000
vt 0.852632 0.000000
vt 0.873684 0.000000
vt 0.863158 0.000000
vt 0.842105 0.000000
vt 0.894737 0.000000
vt 0.915789 0.000000
vt 0.905263 0.000000
vt 0.884211 0.000000
vt 0.936842 0.000000
vt 0.957895 0.000000
vt 0.947368 0.000000
vt 0.926316 0.000000
vt 0.978947 0.000000
vt 1.000000 0.000000
vt 0.989474 0.000000
vt 0.968421 0.000000
vt 0.010526 0.000000
vt 0.031579 0.000000
vt 0.021053 0.000000
vt 0.000000 0.000000
vt 0.000000 1.000000
vt 0.250000 1.000000
vt 0.250000 0.000000
vt 0.500000 1.000000
vt 0.500000 0.000000
vt 0.750000 1.000000
vt 0.750000 0.000000
vt 1.000000 1.000000
s 0
f 6/1/1 8/2/1 7/3/1
f 6/1/1 5/4/1 8/2/1
f 10/5/1 12/6/1 11/7/1
f 10/5/1 9/8/1 12/6/1
f 14/9/1 16/10/1 15/11/1
f 14/9/1 13/12/1 16/10/1
f 18/13/1 20/14/1 19/15/1
f 18/13/1 17/16/1 20/14/1
f 22/17/1 24/18/1 23/19/1
f 22/17/1 21/20/1 24/18/1
f 26/21/1 28/22/1 27/23/1
f 26/21/1 25/24/1 28/22/1
f 30/25/1 32/26/1 31/27/1
f 30/25/1 29/28/1 32/26/1
f 34/29/1 36/30/1 35/31/1
f 34/29/1 33/32/1 36/30/1
f 38/33/1 40/34/1 39/35/1
f 38/33/1 37/36/1 40/34/1
f 42/37/1 44/38/1 43/39/1
f 42/37/1 41/40/1 44/38/1
f 46/41/1 48/42/1 47/43/1
f 46/41/1 45/44/1 48/42/1
f 50/45/1 52/46/1 51/47/1
f 50/45/1 49/48/1 52/46/1
f 54/49/1 56/50/1 55/51/1
f 54/49/1 53/52/1 56/50/1
f 58/53/1 60/54/1 59/55/1
f 58/53/1 57/56/1 60/54/1
f 62/57/1 64/58/1 63/59/1
f 62/57/1 61/60/1 64/58/1
f 66/61/1 68/62/1 67/63/1
f 66/61/1 65/64/1 68/62/1
f 70/65/1 72/66/1 71/67/1
f 70/65/1 69/68/1 72/66/1
f 74/69/1 76/70/1 75/71/1
f 74/69/1 73/72/1 76/70/1
f 78/73/1 80/74/1 79/75/1
f 78/73/1 77/76/1 80/74/1
f 82/77/1 84/78/1 83/79/1
f 82/77/1 81/80/1 84/78/1
f 86/81/1 88/82/1 87/83/1
f 86/81/1 85/84/1 88/82/1
f 90/85/1 92/86/1 91/87/1
f 90/85/1 89/88/1 92/86/1
f 94/89/1 96/90/1 95/91/1
f 94/89/1 93/92/1 96/90/1
f 2/93/1 4/94/1 3/95/1
f 2/93/1 1/96/1 4/94/1
f 102/1/2 103/3/2 104/2/2
f 102/1/2 104/2/2 101/4/2
f 106/5/2 107/7/2 108/6/2
f 106/5/2 108/6/2 105/8/2
f 110/9/2 111/11/2 112/10/2
f 110/9/2 112/10/2 109/12/2
f 114/13/2 115/15/2 116/14/2
f 114/13/2 116/14/2 113/16/2
f 118/17/2 119/19/2 120/18/2
f 118/17/2 120/18/2 117/20/2
f 122/21/2 123/23/2 124/22/2
f 122/21/2 124/22/2 121/24/2
f 126/25/2 127/27/2 128/26/2
f 126/25/2 128/26/2 125/28/2
f 130/29/2 131/31/2 132/30/2
f 130/29/2 132/30/2 129/32/2
f 134/33/2 135/35/2 136/34/2
f 134/33/2 136/34/2 133/36/2
f 138/37/2 139/39/2 140/38/2
f 138/37/2 140/38/2 137/40/2
f 142/41/2 143/43/2 144/42/2
f 142/41/2 144/42/2 141/44/2
f 146/45/2 147/47/2 148/46/2
f 146/45/2 148/46/2 145/48/2
f 150/49/2 151/51/2 152/50/2
f 150/49/2 152/50/2 149/52/2
f 154/53/2 155/55/2 156/54/2
f 154/53/2 156/54/2 153/56/2
f 158/57/2 159/59/2 160/58/2
f 158/57/2 160/58/2 157/60/2
f 162/61/2 163/63/2 164/62/2
f 162/61/2 164/62/2 161/64/2
f 166/65/2 167/67/2 168/66/2
f 166/65/2 168/66/2 165/68/2
f 170/69/2 171/71/2 172/70/2
f 170/69/2 172/70/2 169/72/2
f 174/73/2 175/75/2 176/74/2
f 174/73/2 176/74/2 173/76/2
f 178/77/2 179/79/2 180/78/2
f 178/77/2 180/78/2 177/80/2
f 182/81/2 183/83/2 184/82/2
f 182/81/2 184/82/2 181/84/2
f 186/85/2 187/87/2 188/86/2
f 186/85/2 188/86/2 185/88/2
f 190/89/2 191/91/2 192/90/2
f 190/89/2 192/90/2 189/92/2
f 98/93/2 99/95/2 100/94/2
f 98/93/2 100/94/2 97/96/2
s 1
f 194/97/3 196/98/4 195/99/4 193/96/3
f 196/98/4 198/100/5 197/101/5 195/99/4
f 198/100/5 200/102/6 199/103/6 197/101/5
f 200/102/6 194/104/3 193/90/3 199/103/6
f 202/97/3 204/98/4 203/99/4 201/96/3
f 204/98/4 206/100/5 205/101/5 203/99/4
f 206/100/5 208/102/6 207/103/6 205/101/5
f 208/102/6 202/104/3 201/90/3 207/103/6
f 210/97/3 212/98/4 211/99/4 209/96/3
f 212/98/4 214/100/5 213/101/5 211/99/4
f 214/100/5 216/102/6 215/103/6 213/101/5
f 216/102/6 210/104/3 209/90/3 215/103/6
f 218/97/3 220/98/4 219/99/4 217/96/3
f 220/98/4 222/100/5 221/101/5 219/99/4
f 222/100/5 224/102/6 223/103/6 221/101/5
f 224/102/6 218/104/3 217/90/3 223/103/6
f 226/97/3 228/98/4 227/99/4 225/96/3
f 228/98/4 230/100/5 229/101/5 227/99/4
f 230/100/5 232/102/6 231/103/6 229/101/5
f 232/102/6 226/104/3 225/90/3 231/103/6
f 234/97/3 236/98/4 235/99/4 233/96/3
f 236/98/4 238/100/5 237/101/5 235/99/4
f 238/100/5 240/102/6 239/103/6 237/101/5
f 240/102/6 234/104/3 233/90/3 239/103/6
f 242/97/3 244/98/4 243/99/4 241/96/3
f 244/98/4 246/100/5 245/101/5 243/99/4
f 246/100/5 248/102/6 247/103/6 245/101/5
f 248/102/6 242/104/3 241/90/3 247/103/6
f 250/97/3 252/98/4 251/99/4 249/96/3
f 252/98/4 254/100/5 253/101/5 251/99/4
f 254/100/5 256/102/6 255/103/6 253/101/5
f 256/102/6 250/104/3 249/90/3 255/103/6
f 258/97/3 260/98/4 259/99/4 257/96/3
f 260/98/4 262/100/5 261/101/5 259/99/4
f 262/100/5 264/102/6 263/103/6 261/101/5
f 264/102/6 258/104/3 257/90/3 263/103/6
f 266/97/3 268/98/4 267/99/4 265/96/3
f 268/98/4 270/100/5 269/101/5 267/99/4
f 270/100/5 272/102/6 271/103/6 269/101/5
f 272/102/6 266/104/3 265/90/3 271/103/6
f 274/97/3 276/98/4 275/99/4 273/96/3
f 276/98/4 278/100/5 277/101/5 275/99/4
f 278/100/5 280/102/6 279/103/6 277/101/5
f 280/102/6 274/104/3 273/90/3 279/103/6
f 282/97/3 284/98/4 283/99/4 281/96/3
f 284/98/4 286/100/5 285/101/5 283/99/4
f 286/100/5 288/102/6 287/103/6 285/101/5
f 288/102/6 282/104/3 281/90/3 287/103/6
f 290/97/3 292/98/4 291/99/4 289/96/3
f 292/98/4 294/100/5 293/101/5 291/99/4
f 294/100/5 296/102/6 295/103/6 293/101/5
f 296/102/6 290/104/3 289/90/3 295/103/6
f 298/97/3 300/98/4 299/99/4 297/96/3
f 300/98/4 302/100/5 301/101/5 299/99/4
f 302/100/5 304/102/6 303/103/6 301/101/5
f 304/102/6 298/104/3 297/90/3 303/103/6
f 306/97/3 308/98/4 307/99/4 305/96/3
f 308/98/4 310/100/5 309/101/5 307/99/4
f 310/100/5 312/102/6 311/103/6 309/101/5
f 312/102/6 306/104/3 305/90/3 311/103/6
f 314/97/3 316/98/4 315/99/4 313/96/3
f 316/98/4 318/100/5 317/101/5 315/99/4
f 318/100/5 320/102/6 319/103/6 317/101/5
f 320/102/6 314/104/3 313/90/3 319/103/6
f 322/97/3 324/98/4 323/99/4 321/96/3
f 324/98/4 326/100/5 325/101/5 323/99/4
f 326/100/5 328/102/6 327/103/6 325/101/5
f 328/102/6 322/104/3 321/90/3 327/103/6
f 330/97/3 332/98/4 331/99/4 329/96/3
f 332/98/4 334/100/5 333/101/5 331/99/4
f 334/100/5 336/102/6 335/103/6 333/101/5
f 336/102/6 330/104/3 329/90/3 335/103/6
f 338/97/3 340/98/4 339/99/4 337/96/3
f 340/98/4 342/100/5 341/101/5 339/99/4
f 342/100/5 344/102/6 343/103/6 341/101/5
f 344/102/6 338/104/3 337/90/3 343/103/6
f 346/97/3 348/98/4 347/99/4 345/96/3
f 348/98/4 350/100/5 349/101/5 347/99/4
f 350/100/5 352/102/6 351/103/6 349/101/5
f 352/102/6 346/104/3 345/90/3 351/103/6
f 354/97/3 356/98/4 355/99/4 353/96/3
f 356/98/4 358/100/5 357/101/5 355/99/4
f 358/100/5 360/102/6 359/103/6 357/101/5
f 360/102/6 354/104/3 353/90/3 359/103/6
f 362/97/3 364/98/4 363/99/4 361/96/3
f 364/98/4 366/100/5 365/101/5 363/99/4
f 366/100/5 368/102/6 367/103/6 365/101/5
f 368/102/6 362/104/3 361/90/3 367/103/6
f 370/97/3 372/98/4 371/99/4 369/96/3
f 372/98/4 374/100/5 373/101/5 371/99/4
f 374/100/5 376/102/6 375/103/6 373/101/5
f 376/102/6 370/104/3 369/90/3 375/103/6
f 378/97/3 380/98/4 379/99/4 377/96/3
f 380/98/4 382/100/5 381/101/5 379/99/4
f 382/100/5 384/102/6 383/103/6 381/101/5
f 384/102/6 378/104/3 377/90/3 383/103/6
