# Blender 4.1.1
# www.blender.org
o w
v -0.060665 -0.000000 -0.100000
v -0.000000 -0.000000 -0.100000
v -0.000000 0.060665 -0.100000
v -0.060665 0.060665 -0.100000
v 0.252446 -0.313112 -0.100000
v 0.313112 -0.313112 -0.100000
v 0.313112 -0.252446 -0.100000
v 0.252446 -0.252446 -0.100000
v 0.189824 -0.313112 -0.100000
v 0.250489 -0.313112 -0.100000
v 0.250489 -0.252446 -0.100000
v 0.189824 -0.252446 -0.100000
v 0.064579 -0.313112 -0.100000
v 0.125245 -0.313112 -0.100000
v 0.125245 -0.252446 -0.100000
v 0.064579 -0.252446 -0.100000
v 0.001957 -0.313112 -0.100000
v 0.062622 -0.313112 -0.100000
v 0.062622 -0.252446 -0.100000
v 0.001957 -0.252446 -0.100000
v 0.252446 -0.250489 -0.100000
v 0.313112 -0.250489 -0.100000
v 0.313112 -0.189824 -0.100000
v 0.252446 -0.189824 -0.100000
v 0.189824 -0.250489 -0.100000
v 0.250489 -0.250489 -0.100000
v 0.250489 -0.189824 -0.100000
v 0.189824 -0.189824 -0.100000
v 0.064579 -0.250489 -0.100000
v 0.125245 -0.250489 -0.100000
v 0.125245 -0.189824 -0.100000
v 0.064579 -0.189824 -0.100000
v 0.001957 -0.250489 -0.100000
v 0.062622 -0.250489 -0.100000
v 0.062622 -0.189824 -0.100000
v 0.001957 -0.189824 -0.100000
v 0.315068 -0.187867 -0.100000
v 0.375734 -0.187867 -0.100000
v 0.375734 -0.127202 -0.100000
v 0.315068 -0.127202 -0.100000
v 0.252446 -0.187867 -0.100000
v 0.313112 -0.187867 -0.100000
v 0.313112 -0.127202 -0.100000
v 0.252446 -0.127202 -0.100000
v 0.127202 -0.187867 -0.100000
v 0.187867 -0.187867 -0.100000
v 0.187867 -0.127202 -0.100000
v 0.127202 -0.127202 -0.100000
v 0.001957 -0.187867 -0.100000
v 0.062622 -0.187867 -0.100000
v 0.062622 -0.127202 -0.100000
v 0.001957 -0.127202 -0.100000
v -0.060665 -0.187867 -0.100000
v -0.000000 -0.187867 -0.100000
v -0.000000 -0.127202 -0.100000
v -0.060665 -0.127202 -0.100000
v 0.315068 -0.125245 -0.100000
v 0.375734 -0.125245 -0.100000
v 0.375734 -0.064579 -0.100000
v 0.315068 -0.064579 -0.100000
v 0.252446 -0.125245 -0.100000
v 0.313112 -0.125245 -0.100000
v 0.313112 -0.064579 -0.100000
v 0.252446 -0.064579 -0.100000
v 0.127202 -0.125245 -0.100000
v 0.187867 -0.125245 -0.100000
v 0.187867 -0.064579 -0.100000
v 0.127202 -0.064579 -0.100000
v 0.001957 -0.125245 -0.100000
v 0.062622 -0.125245 -0.100000
v 0.062622 -0.064579 -0.100000
v 0.001957 -0.064579 -0.100000
v -0.060665 -0.125245 -0.100000
v -0.000000 -0.125245 -0.100000
v -0.000000 -0.064579 -0.100000
v -0.060665 -0.064579 -0.100000
v 0.315068 -0.062622 -0.100000
v 0.375734 -0.062622 -0.100000
v 0.375734 -0.001957 -0.100000
v 0.315068 -0.001957 -0.100000
v 0.252446 -0.062622 -0.100000
v 0.313112 -0.062622 -0.100000
v 0.313112 -0.001957 -0.100000
v 0.252446 -0.001957 -0.100000
v 0.001957 -0.062622 -0.100000
v 0.062622 -0.062622 -0.100000
v 0.062622 -0.001957 -0.100000
v 0.001957 -0.001957 -0.100000
v -0.060665 -0.062622 -0.100000
v -0.000000 -0.062622 -0.100000
v -0.000000 -0.001957 -0.100000
v -0.060665 -0.001957 -0.100000
v 0.315068 -0.000000 -0.100000
v 0.375734 -0.000000 -0.100000
v 0.375734 0.060665 -0.100000
v 0.315068 0.060665 -0.100000
v 0.252446 -0.000000 -0.100000
v 0.313112 -0.000000 -0.100000
v 0.313112 0.060665 -0.100000
v 0.252446 0.060665 -0.100000
v 0.001957 -0.000000 -0.100000
v 0.062622 -0.000000 -0.100000
v 0.062622 0.060665 -0.100000
v 0.001957 0.060665 -0.100000
v -0.060665 0.000000 0.100000
v 0.000000 0.000000 0.100000
v 0.000000 0.060665 0.100000
v -0.060665 0.060665 0.100000
v 0.252446 -0.313112 0.100000
v 0.313112 -0.313112 0.100000
v 0.313112 -0.252446 0.100000
v 0.252446 -0.252446 0.100000
v 0.189824 -0.313112 0.100000
v 0.250489 -0.313112 0.100000
v 0.250489 -0.252446 0.100000
v 0.189824 -0.252446 0.100000
v 0.064579 -0.313112 0.100000
v 0.125245 -0.313112 0.100000
v 0.125245 -0.252446 0.100000
v 0.064579 -0.252446 0.100000
v 0.001957 -0.313112 0.100000
v 0.062622 -0.313112 0.100000
v 0.062622 -0.252446 0.100000
v 0.001957 -0.252446 0.100000
v 0.252446 -0.250489 0.100000
v 0.313112 -0.250489 0.100000
v 0.313112 -0.189824 0.100000
v 0.252446 -0.189824 0.100000
v 0.189824 -0.250489 0.100000
v 0.250489 -0.250489 0.100000
v 0.250489 -0.189824 0.100000
v 0.189824 -0.189824 0.100000
v 0.064579 -0.250489 0.100000
v 0.125245 -0.250489 0.100000
v 0.125245 -0.189824 0.100000
v 0.064579 -0.189824 0.100000
v 0.001957 -0.250489 0.100000
v 0.062622 -0.250489 0.100000
v 0.062622 -0.189824 0.100000
v 0.001957 -0.189824 0.100000
v 0.315069 -0.187867 0.100000
v 0.375734 -0.187867 0.100000
v 0.375734 -0.127202 0.100000
v 0.315069 -0.127202 0.100000
v 0.252446 -0.187867 0.100000
v 0.313112 -0.187867 0.100000
v 0.313112 -0.127202 0.100000
v 0.252446 -0.127202 0.100000
v 0.127202 -0.187867 0.100000
v 0.187867 -0.187867 0.100000
v 0.187867 -0.127202 0.100000
v 0.127202 -0.127202 0.100000
v 0.001957 -0.187867 0.100000
v 0.062622 -0.187867 0.100000
v 0.062622 -0.127202 0.100000
v 0.001957 -0.127202 0.100000
v -0.060665 -0.187867 0.100000
v 0.000000 -0.187867 0.100000
v 0.000000 -0.127202 0.100000
v -0.060665 -0.127202 0.100000
v 0.315069 -0.125245 0.100000
v 0.375734 -0.125245 0.100000
v 0.375734 -0.064579 0.100000
v 0.315069 -0.064579 0.100000
v 0.252446 -0.125245 0.100000
v 0.313112 -0.125245 0.100000
v 0.313112 -0.064579 0.100000
v 0.252446 -0.064579 0.100000
v 0.127202 -0.125245 0.100000
v 0.187867 -0.125245 0.100000
v 0.187867 -0.064579 0.100000
v 0.127202 -0.064579 0.100000
v 0.001957 -0.125245 0.100000
v 0.062622 -0.125245 0.100000
v 0.062622 -0.064579 0.100000
v 0.001957 -0.064579 0.100000
v -0.060665 -0.125245 0.100000
v 0.000000 -0.125245 0.100000
v 0.000000 -0.064579 0.100000
v -0.060665 -0.064579 0.100000
v 0.315069 -0.062622 0.100000
v 0.375734 -0.062622 0.100000
v 0.375734 -0.001957 0.100000
v 0.315069 -0.001957 0.100000
v 0.252446 -0.062622 0.100000
v 0.313112 -0.062622 0.100000
v 0.313112 -0.001957 0.100000
v 0.252446 -0.001957 0.100000
v 0.001957 -0.062622 0.100000
v 0.062622 -0.062622 0.100000
v 0.062622 -0.001957 0.100000
v 0.001957 -0.001957 0.100000
v -0.060665 -0.062622 0.100000
v 0.000000 -0.062622 0.100000
v 0.000000 -0.001957 0.100000
v -0.060665 -0.001957 0.100000
v 0.315069 0.000000 0.100000
v 0.375734 0.000000 0.100000
v 0.375734 0.060665 0.100000
v 0.315069 0.060665 0.100000
v 0.252446 0.000000 0.100000
v 0.313112 0.000000 0.100000
v 0.313112 0.060665 0.100000
v 0.252446 0.060665 0.100000
v 0.001957 0.000000 0.100000
v 0.062622 0.000000 0.100000
v 0.062622 0.060665 0.100000
v 0.001957 0.060665 0.100000
v 0.252446 -0.313112 0.100000
v 0.252446 -0.313112 -0.100000
v 0.313112 -0.313112 0.100000
v 0.313112 -0.313112 -0.100000
v 0.313112 -0.252446 0.100000
v 0.313112 -0.252446 -0.100000
v 0.252446 -0.252446 0.100000
v 0.252446 -0.252446 -0.100000
v 0.189824 -0.313112 0.100000
v 0.189824 -0.313112 -0.100000
v 0.250489 -0.313112 0.100000
v 0.250489 -0.313112 -0.100000
v 0.250489 -0.252446 0.100000
v 0.250489 -0.252446 -0.100000
v 0.189824 -0.252446 0.100000
v 0.189824 -0.252446 -0.100000
v 0.064579 -0.313112 0.100000
v 0.064579 -0.313112 -0.100000
v 0.125245 -0.313112 0.100000
v 0.125245 -0.313112 -0.100000
v 0.125245 -0.252446 0.100000
v 0.125245 -0.252446 -0.100000
v 0.064579 -0.252446 0.100000
v 0.064579 -0.252446 -0.100000
v 0.001957 -0.313112 0.100000
v 0.001957 -0.313112 -0.100000
v 0.062622 -0.313112 0.100000
v 0.062622 -0.313112 -0.100000
v 0.062622 -0.252446 0.100000
v 0.062622 -0.252446 -0.100000
v 0.001957 -0.252446 0.100000
v 0.001957 -0.252446 -0.100000
v 0.252446 -0.250489 0.100000
v 0.252446 -0.250489 -0.100000
v 0.313112 -0.250489 0.100000
v 0.313112 -0.250489 -0.100000
v 0.313112 -0.189824 0.100000
v 0.313112 -0.189824 -0.100000
v 0.252446 -0.189824 0.100000
v 0.252446 -0.189824 -0.100000
v 0.189824 -0.250489 0.100000
v 0.189824 -0.250489 -0.100000
v 0.250489 -0.250489 0.100000
v 0.250489 -0.250489 -0.100000
v 0.250489 -0.189824 0.100000
v 0.250489 -0.189824 -0.100000
v 0.189824 -0.189824 0.100000
v 0.189824 -0.189824 -0.100000
v 0.064579 -0.250489 0.100000
v 0.064579 -0.250489 -0.100000
v 0.125245 -0.250489 0.100000
v 0.125245 -0.250489 -0.100000
v 0.125245 -0.189824 0.100000
v 0.125245 -0.189824 -0.100000
v 0.064579 -0.189824 0.100000
v 0.064579 -0.189824 -0.100000
v 0.001957 -0.250489 0.100000
v 0.001957 -0.250489 -0.100000
v 0.062622 -0.250489 0.100000
v 0.062622 -0.250489 -0.100000
v 0.062622 -0.189824 0.100000
v 0.062622 -0.189824 -0.100000
v 0.001957 -0.189824 0.100000
v 0.001957 -0.189824 -0.100000
v 0.315069 -0.187867 0.100000
v 0.315068 -0.187867 -0.100000
v 0.375734 -0.187867 0.100000
v 0.375734 -0.187867 -0.100000
v 0.375734 -0.127202 0.100000
v 0.375734 -0.127202 -0.100000
v 0.315069 -0.127202 0.100000
v 0.315068 -0.127202 -0.100000
v 0.252446 -0.187867 0.100000
v 0.252446 -0.187867 -0.100000
v 0.313112 -0.187867 0.100000
v 0.313112 -0.187867 -0.100000
v 0.313112 -0.127202 0.100000
v 0.313112 -0.127202 -0.100000
v 0.252446 -0.127202 0.100000
v 0.252446 -0.127202 -0.100000
v 0.127202 -0.187867 0.100000
v 0.127202 -0.187867 -0.100000
v 0.187867 -0.187867 0.100000
v 0.187867 -0.187867 -0.100000
v 0.187867 -0.127202 0.100000
v 0.187867 -0.127202 -0.100000
v 0.127202 -0.127202 0.100000
v 0.127202 -0.127202 -0.100000
v 0.001957 -0.187867 0.100000
v 0.001957 -0.187867 -0.100000
v 0.062622 -0.187867 0.100000
v 0.062622 -0.187867 -0.100000
v 0.062622 -0.127202 0.100000
v 0.062622 -0.127202 -0.100000
v 0.001957 -0.127202 0.100000
v 0.001957 -0.127202 -0.100000
v -0.060665 -0.187867 0.100000
v -0.060665 -0.187867 -0.100000
v 0.000000 -0.187867 0.100000
v -0.000000 -0.187867 -0.100000
v 0.000000 -0.127202 0.100000
v -0.000000 -0.127202 -0.100000
v -0.060665 -0.127202 0.100000
v -0.060665 -0.127202 -0.100000
v 0.315069 -0.125245 0.100000
v 0.315068 -0.125245 -0.100000
v 0.375734 -0.125245 0.100000
v 0.375734 -0.125245 -0.100000
v 0.375734 -0.064579 0.100000
v 0.375734 -0.064579 -0.100000
v 0.315069 -0.064579 0.100000
v 0.315068 -0.064579 -0.100000
v 0.252446 -0.125245 0.100000
v 0.252446 -0.125245 -0.100000
v 0.313112 -0.125245 0.100000
v 0.313112 -0.125245 -0.100000
v 0.313112 -0.064579 0.100000
v 0.313112 -0.064579 -0.100000
v 0.252446 -0.064579 0.100000
v 0.252446 -0.064579 -0.100000
v 0.127202 -0.125245 0.100000
v 0.127202 -0.125245 -0.100000
v 0.187867 -0.125245 0.100000
v 0.187867 -0.125245 -0.100000
v 0.187867 -0.064579 0.100000
v 0.187867 -0.064579 -0.100000
v 0.127202 -0.064579 0.100000
v 0.127202 -0.064579 -0.100000
v 0.001957 -0.125245 0.100000
v 0.001957 -0.125245 -0.100000
v 0.062622 -0.125245 0.100000
v 0.062622 -0.125245 -0.100000
v 0.062622 -0.064579 0.100000
v 0.062622 -0.064579 -0.100000
v 0.001957 -0.064579 0.100000
v 0.001957 -0.064579 -0.100000
v -0.060665 -0.125245 0.100000
v -0.060665 -0.125245 -0.100000
v 0.000000 -0.125245 0.100000
v -0.000000 -0.125245 -0.100000
v 0.000000 -0.064579 0.100000
v -0.000000 -0.064579 -0.100000
v -0.060665 -0.064579 0.100000
v -0.060665 -0.064579 -0.100000
v 0.315069 -0.062622 0.100000
v 0.315068 -0.062622 -0.100000
v 0.375734 -0.062622 0.100000
v 0.375734 -0.062622 -0.100000
v 0.375734 -0.001957 0.100000
v 0.375734 -0.001957 -0.100000
v 0.315069 -0.001957 0.100000
v 0.315068 -0.001957 -0.100000
v 0.252446 -0.062622 0.100000
v 0.252446 -0.062622 -0.100000
v 0.313112 -0.062622 0.100000
v 0.313112 -0.062622 -0.100000
v 0.313112 -0.001957 0.100000
v 0.313112 -0.001957 -0.100000
v 0.252446 -0.001957 0.100000
v 0.252446 -0.001957 -0.100000
v 0.001957 -0.062622 0.100000
v 0.001957 -0.062622 -0.100000
v 0.062622 -0.062622 0.100000
v 0.062622 -0.062622 -0.100000
v 0.062622 -0.001957 0.100000
v 0.062622 -0.001957 -0.100000
v 0.001957 -0.001957 0.100000
v 0.001957 -0.001957 -0.100000
v -0.060665 -0.062622 0.100000
v -0.060665 -0.062622 -0.100000
v 0.000000 -0.062622 0.100000
v -0.000000 -0.062622 -0.100000
v 0.000000 -0.001957 0.100000
v -0.000000 -0.001957 -0.100000
v -0.060665 -0.001957 0.100000
v -0.060665 -0.001957 -0.100000
v 0.315069 0.000000 0.100000
v 0.315068 -0.000000 -0.100000
v 0.375734 0.000000 0.100000
v 0.375734 -0.000000 -0.100000
v 0.375734 0.060665 0.100000
v 0.375734 0.060665 -0.100000
v 0.315069 0.060665 0.100000
v 0.315068 0.060665 -0.100000
v 0.252446 0.000000 0.100000
v 0.252446 -0.000000 -0.100000
v 0.313112 0.000000 0.100000
v 0.313112 -0.000000 -0.100000
v 0.313112 0.060665 0.100000
v 0.313112 0.060665 -0.100000
v 0.252446 0.060665 0.100000
v 0.252446 0.060665 -0.100000
v 0.001957 0.000000 0.100000
v 0.001957 -0.000000 -0.100000
v 0.062622 0.000000 0.100000
v 0.062622 -0.000000 -0.100000
v 0.062622 0.060665 0.100000
v 0.062622 0.060665 -0.100000
v 0.001957 0.060665 0.100000
v 0.001957 0.060665 -0.100000
v -0.060665 0.000000 0.100000
v -0.060665 -0.000000 -0.100000
v 0.000000 0.000000 0.100000
v -0.000000 -0.000000 -0.100000
v 0.000000 0.060665 0.100000
v -0.000000 0.060665 -0.100000
v -0.060665 0.060665 0.100000
v -0.060665 0.060665 -0.100000
vn -0.0000 -0.0000 -1.0000
vn -0.0000 -0.0000 1.0000
vn -0.7071 -0.7071 -0.0000
vn 0.7071 -0.7071 -0.0000
vn 0.7071 0.7071 -0.0000
vn -0.7071 0.7071 -0.0000
vt 0.048544 0.000000
vt 0.067961 0.000000
vt 0.058252 0.000000
vt 0.038835 0.000000
vt 0.087379 0.000000
vt 0.106796 0.000000
vt 0.097087 0.000000
vt 0.077670 0.000000
vt 0.126214 0.000000
vt 0.145631 0.000000
vt 0.135922 0.000000
vt 0.116505 0.000000
vt 0.165049 0.000000
vt 0.184466 0.000000
vt 0.174757 0.000000
vt 0.155340 0.000000
vt 0.203883 0.000000
vt 0.223301 0.000000
vt 0.213592 0.000000
vt 0.194175 0.000000
vt 0.242718 0.000000
vt 0.262136 0.000000
vt 0.252427 0.000000
vt 0.233010 0.000000
vt 0.281553 0.000000
vt 0.300971 0.000000
vt 0.291262 0.000000
vt 0.271845 0.000000
vt 0.320388 0.000000
vt 0.339806 0.000000
vt 0.330097 0.000000
vt 0.310680 0.000000
vt 0.359223 0.000000
vt 0.378641 0.000000
vt 0.368932 0.000000
vt 0.349515 0.000000
vt 0.398058 0.000000
vt 0.417476 0.000000
vt 0.407767 0.000000
vt 0.388350 0.000000
vt 0.436893 0.000000
vt 0.456311 0.000000
vt 0.446602 0.000000
vt 0.427184 0.000000
vt 0.475728 0.000000
vt 0.495146 0.000000
vt 0.485437 0.000000
vt 0.466019 0.000000
vt 0.514563 0.000000
vt 0.533981 0.000000
vt 0.524272 0.000000
vt 0.504854 0.000000
vt 0.553398 0.000000
vt 0.572816 0.000000
vt 0.563107 0.000000
vt 0.543689 0.000000
vt 0.592233 0.000000
vt 0.611650 0.000000
vt 0.601942 0.000000
vt 0.582524 0.000000
vt 0.631068 0.000000
vt 0.650485 0.000000
vt 0.640777 0.000000
vt 0.621359 0.000000
vt 0.669903 0.000000
vt 0.689320 0.000000
vt 0.679612 0.000000
vt 0.660194 0.000000
vt 0.708738 0.000000
vt 0.728155 0.000000
vt 0.718447 0.000000
vt 0.699029 0.000000
vt 0.747573 0.000000
vt 0.766990 0.000000
vt 0.757282 0.000000
vt 0.737864 0.000000
vt 0.786408 0.000000
vt 0.805825 0.000000
vt 0.796117 0.000000
vt 0.776699 0.000000
vt 0.825243 0.000000
vt 0.844660 0.000000
vt 0.834951 0.000000
vt 0.815534 0.000000
vt 0.864078 0.000000
vt 0.883495 0.000000
vt 0.873786 0.000000
vt 0.854369 0.000000
vt 0.902913 0.000000
vt 0.922330 0.000000
vt 0.912621 0.000000
vt 0.893204 0.000000
vt 0.941748 0.000000
vt 0.961165 0.000000
vt 0.951456 0.000000
vt 0.932039 0.000000
vt 0.980583 0.000000
vt 1.000000 0.000000
vt 0.990291 0.000000
vt 0.970874 0.000000
vt 0.009709 0.000000
vt 0.029126 0.000000
vt 0.019417 0.000000
vt 0.000000 0.000000
vt 0.000000 1.000000
vt 0.250000 1.000000
vt 0.250000 0.000000
vt 0.500000 1.000000
vt 0.500000 0.000000
vt 0.750000 1.000000
vt 0.750000 0.000000
vt 1.000000 1.000000
s 0
f 6/1/1 8/2/1 7/3/1
f 6/1/1 5/4/1 8/2/1
f 10/5/1 12/6/1 11/7/1
f 10/5/1 9/8/1 12/6/1
f 14/9/1 16/10/1 15/11/1
f 14/9/1 13/12/1 16/10/1
f 18/13/1 20/14/1 19/15/1
f 18/13/1 17/16/1 20/14/1
f 22/17/1 24/18/1 23/19/1
f 22/17/1 21/20/1 24/18/1
f 26/21/1 28/22/1 27/23/1
f 26/21/1 25/24/1 28/22/1
f 30/25/1 32/26/1 31/27/1
f 30/25/1 29/28/1 32/26/1
f 34/29/1 36/30/1 35/31/1
f 34/29/1 33/32/1 36/30/1
f 38/33/1 40/34/1 39/35/1
f 38/33/1 37/36/1 40/34/1
f 42/37/1 44/38/1 43/39/1
f 42/37/1 41/40/1 44/38/1
f 46/41/1 48/42/1 47/43/1
f 46/41/1 45/44/1 48/42/1
f 50/45/1 52/46/1 51/47/1
f 50/45/1 49/48/1 52/46/1
f 54/49/1 56/50/1 55/51/1
f 54/49/1 53/52/1 56/50/1
f 58/53/1 60/54/1 59/55/1
f 58/53/1 57/56/1 60/54/1
f 62/57/1 64/58/1 63/59/1
f 62/57/1 61/60/1 64/58/1
f 66/61/1 68/62/1 67/63/1
f 66/61/1 65/64/1 68/62/1
f 70/65/1 72/66/1 71/67/1
f 70/65/1 69/68/1 72/66/1
f 74/69/1 76/70/1 75/71/1
f 74/69/1 73/72/1 76/70/1
f 78/73/1 80/74/1 79/75/1
f 78/73/1 77/76/1 80/74/1
f 82/77/1 84/78/1 83/79/1
f 82/77/1 81/80/1 84/78/1
f 86/81/1 88/82/1 87/83/1
f 86/81/1 85/84/1 88/82/1
f 90/85/1 92/86/1 91/87/1
f 90/85/1 89/88/1 92/86/1
f 94/89/1 96/90/1 95/91/1
f 94/89/1 93/92/1 96/90/1
f 98/93/1 100/94/1 99/95/1
f 98/93/1 97/96/1 100/94/1
f 102/97/1 104/98/1 103/99/1
f 102/97/1 101/100/1 104/98/1
f 2/101/1 4/102/1 3/103/1
f 2/101/1 1/104/1 4/102/1
f 110/1/2 111/3/2 112/2/2
f 110/1/2 112/2/2 109/4/2
f 114/5/2 115/7/2 116/6/2
f 114/5/2 116/6/2 113/8/2
f 118/9/2 119/11/2 120/10/2
f 118/9/2 120/10/2 117/12/2
f 122/13/2 123/15/2 124/14/2
f 122/13/2 124/14/2 121/16/2
f 126/17/2 127/19/2 128/18/2
f 126/17/2 128/18/2 125/20/2
f 130/21/2 131/23/2 132/22/2
f 130/21/2 132/22/2 129/24/2
f 134/25/2 135/27/2 136/26/2
f 134/25/2 136/26/2 133/28/2
f 138/29/2 139/31/2 140/30/2
f 138/29/2 140/30/2 137/32/2
f 142/33/2 143/35/2 144/34/2
f 142/33/2 144/34/2 141/36/2
f 146/37/2 147/39/2 148/38/2
f 146/37/2 148/38/2 145/40/2
f 150/41/2 151/43/2 152/42/2
f 150/41/2 152/42/2 149/44/2
f 154/45/2 155/47/2 156/46/2
f 154/45/2 156/46/2 153/48/2
f 158/49/2 159/51/2 160/50/2
f 158/49/2 160/50/2 157/52/2
f 162/53/2 163/55/2 164/54/2
f 162/53/2 164/54/2 161/56/2
f 166/57/2 167/59/2 168/58/2
f 166/57/2 168/58/2 165/60/2
f 170/61/2 171/63/2 172/62/2
f 170/61/2 172/62/2 169/64/2
f 174/65/2 175/67/2 176/66/2
f 174/65/2 176/66/2 173/68/2
f 178/69/2 179/71/2 180/70/2
f 178/69/2 180/70/2 177/72/2
f 182/73/2 183/75/2 184/74/2
f 182/73/2 184/74/2 181/76/2
f 186/77/2 187/79/2 188/78/2
f 186/77/2 188/78/2 185/80/2
f 190/81/2 191/83/2 192/82/2
f 190/81/2 192/82/2 189/84/2
f 194/85/2 195/87/2 196/86/2
f 194/85/2 196/86/2 193/88/2
f 198/89/2 199/91/2 200/90/2
f 198/89/2 200/90/2 197/92/2
f 202/93/2 203/95/2 204/94/2
f 202/93/2 204/94/2 201/96/2
f 206/97/2 207/99/2 208/98/2
f 206/97/2 208/98/2 205/100/2
f 106/101/2 107/103/2 108/102/2
f 106/101/2 108/102/2 105/104/2
s 1
f 210/105/3 212/106/4 211/107/4 209/104/3
f 212/106/4 214/108/5 213/109/5 211/107/4
f 214/108/5 216/110/6 215/111/6 213/109/5
f 216/110/6 210/112/3 209/98/3 215/111/6
f 218/105/3 220/106/4 219/107/4 217/104/3
f 220/106/4 222/108/5 221/109/5 219/107/4
f 222/108/5 224/110/6 223/111/6 221/109/5
f 224/110/6 218/112/3 217/98/3 223/111/6
f 226/105/3 228/106/4 227/107/4 225/104/3
f 228/106/4 230/108/5 229/109/5 227/107/4
f 230/108/5 232/110/6 231/111/6 229/109/5
f 232/110/6 226/112/3 225/98/3 231/111/6
f 234/105/3 236/106/4 235/107/4 233/104/3
f 236/106/4 238/108/5 237/109/5 235/107/4
f 238/108/5 240/110/6 239/111/6 237/109/5
f 240/110/6 234/112/3 233/98/3 239/111/6
f 242/105/3 244/106/4 243/107/4 241/104/3
f 244/106/4 246/108/5 245/109/5 243/107/4
f 246/108/5 248/110/6 247/111/6 245/109/5
f 248/110/6 242/112/3 241/98/3 247/111/6
f 250/105/3 252/106/4 251/107/4 249/104/3
f 252/106/4 254/108/5 253/109/5 251/107/4
f 254/108/5 256/110/6 255/111/6 253/109/5
f 256/110/6 250/112/3 249/98/3 255/111/6
f 258/105/3 260/106/4 259/107/4 257/104/3
f 260/106/4 262/108/5 261/109/5 259/107/4
f 262/108/5 264/110/6 263/111/6 261/109/5
f 264/110/6 258/112/3 257/98/3 263/111/6
f 266/105/3 268/106/4 267/107/4 265/104/3
f 268/106/4 270/108/5 269/109/5 267/107/4
f 270/108/5 272/110/6 271/111/6 269/109/5
f 272/110/6 266/112/3 265/98/3 271/111/6
f 274/105/3 276/106/4 275/107/4 273/104/3
f 276/106/4 278/108/5 277/109/5 275/107/4
f 278/108/5 280/110/6 279/111/6 277/109/5
f 280/110/6 274/112/3 273/98/3 279/111/6
f 282/105/3 284/106/4 283/107/4 281/104/3
f 284/106/4 286/108/5 285/109/5 283/107/4
f 286/108/5 288/110/6 287/111/6 285/109/5
f 288/110/6 282/112/3 281/98/3 287/111/6
f 290/105/3 292/106/4 291/107/4 289/104/3
f 292/106/4 294/108/5 293/109/5 291/107/4
f 294/108/5 296/110/6 295/111/6 293/109/5
f 296/110/6 290/112/3 289/98/3 295/111/6
f 298/105/3 300/106/4 299/107/4 297/104/3
f 300/106/4 302/108/5 301/109/5 299/107/4
f 302/108/5 304/110/6 303/111/6 301/109/5
f 304/110/6 298/112/3 297/98/3 303/111/6
f 306/105/3 308/106/4 307/107/4 305/104/3
f 308/106/4 310/108/5 309/109/5 307/107/4
f 310/108/5 312/110/6 311/111/6 309/109/5
f 312/110/6 306/112/3 305/98/3 311/111/6
f 314/105/3 316/106/4 315/107/4 313/104/3
f 316/106/4 318/108/5 317/109/5 315/107/4
f 318/108/5 320/110/6 319/111/6 317/109/5
f 320/110/6 314/112/3 313/98/3 319/111/6
f 322/105/3 324/106/4 323/107/4 321/104/3
f 324/106/4 326/108/5 325/109/5 323/107/4
f 326/108/5 328/110/6 327/111/6 325/109/5
f 328/110/6 322/112/3 321/98/3 327/111/6
f 330/105/3 332/106/4 331/107/4 329/104/3
f 332/106/4 334/108/5 333/109/5 331/107/4
f 334/108/5 336/110/6 335/111/6 333/109/5
f 336/110/6 330/112/3 329/98/3 335/111/6
f 338/105/3 340/106/4 339/107/4 337/104/3
f 340/106/4 342/108/5 341/109/5 339/107/4
f 342/108/5 344/110/6 343/111/6 341/109/5
f 344/110/6 338/112/3 337/98/3 343/111/6
f 346/105/3 348/106/4 347/107/4 345/104/3
f 348/106/4 350/108/5 349/109/5 347/107/4
f 350/108/5 352/110/6 351/111/6 349/109/5
f 352/110/6 346/112/3 345/98/3 351/111/6
f 354/105/3 356/106/4 355/107/4 353/104/3
f 356/106/4 358/108/5 357/109/5 355/107/4
f 358/108/5 360/110/6 359/111/6 357/109/5
f 360/110/6 354/112/3 353/98/3 359/111/6
f 362/105/3 364/106/4 363/107/4 361/104/3
f 364/106/4 366/108/5 365/109/5 363/107/4
f 366/108/5 368/110/6 367/111/6 365/109/5
f 368/110/6 362/112/3 361/98/3 367/111/6
f 370/105/3 372/106/4 371/107/4 369/104/3
f 372/106/4 374/108/5 373/109/5 371/107/4
f 374/108/5 376/110/6 375/111/6 373/109/5
f 376/110/6 370/112/3 369/98/3 375/111/6
f 378/105/3 380/106/4 379/107/4 377/104/3
f 380/106/4 382/108/5 381/109/5 379/107/4
f 382/108/5 384/110/6 383/111/6 381/109/5
f 384/110/6 378/112/3 377/98/3 383/111/6
f 386/105/3 388/106/4 387/107/4 385/104/3
f 388/106/4 390/108/5 389/109/5 387/107/4
f 390/108/5 392/110/6 391/111/6 389/109/5
f 392/110/6 386/112/3 385/98/3 391/111/6
f 394/105/3 396/106/4 395/107/4 393/104/3
f 396/106/4 398/108/5 397/109/5 395/107/4
f 398/108/5 400/110/6 399/111/6 397/109/5
f 400/110/6 394/112/3 393/98/3 399/111/6
f 402/105/3 404/106/4 403/107/4 401/104/3
f 404/106/4 406/108/5 405/109/5 403/107/4
f 406/108/5 408/110/6 407/111/6 405/109/5
f 408/110/6 402/112/3 401/98/3 407/111/6
f 410/105/3 412/106/4 411/107/4 409/104/3
f 412/106/4 414/108/5 413/109/5 411/107/4
f 414/108/5 416/110/6 415/111/6 413/109/5
f 416/110/6 410/112/3 409/98/3 415/111/6
