# Blender 4.1.1
# www.blender.org
o ~
v -0.123288 0.187867 -0.100000
v -0.062622 0.187867 -0.100000
v -0.062622 0.248532 -0.100000
v -0.123288 0.248532 -0.100000
v 0.315068 0.062622 -0.100000
v 0.375734 0.062622 -0.100000
v 0.375734 0.123288 -0.100000
v 0.315068 0.123288 -0.100000
v 0.252446 0.062622 -0.100000
v 0.313112 0.062622 -0.100000
v 0.313112 0.123288 -0.100000
v 0.252446 0.123288 -0.100000
v 0.064579 0.062622 -0.100000
v 0.125245 0.062622 -0.100000
v 0.125245 0.123288 -0.100000
v 0.064579 0.123288 -0.100000
v 0.001957 0.062622 -0.100000
v 0.062622 0.062622 -0.100000
v 0.062622 0.123288 -0.100000
v 0.001957 0.123288 -0.100000
v -0.060665 0.062622 -0.100000
v -0.000000 0.062622 -0.100000
v -0.000000 0.123288 -0.100000
v -0.060665 0.123288 -0.100000
v 0.315068 0.125245 -0.100000
v 0.375734 0.125245 -0.100000
v 0.375734 0.185910 -0.100000
v 0.315068 0.185910 -0.100000
v 0.252446 0.125245 -0.100000
v 0.313112 0.125245 -0.100000
v 0.313112 0.185910 -0.100000
v 0.252446 0.185910 -0.100000
v 0.127202 0.125245 -0.100000
v 0.187867 0.125245 -0.100000
v 0.187867 0.185910 -0.100000
v 0.127202 0.185910 -0.100000
v 0.064579 0.125245 -0.100000
v 0.125245 0.125245 -0.100000
v 0.125245 0.185910 -0.100000
v 0.064579 0.185910 -0.100000
v -0.060665 0.125245 -0.100000
v -0.000000 0.125245 -0.100000
v -0.000000 0.185910 -0.100000
v -0.060665 0.185910 -0.100000
v 0.252446 0.187867 -0.100000
v 0.313112 0.187867 -0.100000
v 0.313112 0.248532 -0.100000
v 0.252446 0.248532 -0.100000
v 0.189824 0.187867 -0.100000
v 0.250489 0.187867 -0.100000
v 0.250489 0.248532 -0.100000
v 0.189824 0.248532 -0.100000
v 0.127202 0.187867 -0.100000
v 0.187867 0.187867 -0.100000
v 0.187867 0.248532 -0.100000
v 0.127202 0.248532 -0.100000
v -0.060665 0.187867 -0.100000
v -0.000000 0.187867 -0.100000
v -0.000000 0.248532 -0.100000
v -0.060665 0.248532 -0.100000
v -0.123288 0.187867 0.100000
v -0.062622 0.187867 0.100000
v -0.062622 0.248532 0.100000
v -0.123288 0.248532 0.100000
v 0.315069 0.062622 0.100000
v 0.375734 0.062622 0.100000
v 0.375734 0.123288 0.100000
v 0.315069 0.123288 0.100000
v 0.252446 0.062622 0.100000
v 0.313112 0.062622 0.100000
v 0.313112 0.123288 0.100000
v 0.252446 0.123288 0.100000
v 0.064579 0.062622 0.100000
v 0.125245 0.062622 0.100000
v 0.125245 0.123288 0.100000
v 0.064579 0.123288 0.100000
v 0.001957 0.062622 0.100000
v 0.062622 0.062622 0.100000
v 0.062622 0.123288 0.100000
v 0.001957 0.123288 0.100000
v -0.060665 0.062622 0.100000
v 0.000000 0.062622 0.100000
v 0.000000 0.123288 0.100000
v -0.060665 0.123288 0.100000
v 0.315069 0.125245 0.100000
v 0.375734 0.125245 0.100000
v 0.375734 0.185910 0.100000
v 0.315069 0.185910 0.100000
v 0.252446 0.125245 0.100000
v 0.313112 0.125245 0.100000
v 0.313112 0.185910 0.100000
v 0.252446 0.185910 0.100000
v 0.127202 0.125245 0.100000
v 0.187867 0.125245 0.100000
v 0.187867 0.185910 0.100000
v 0.127202 0.185910 0.100000
v 0.064579 0.125245 0.100000
v 0.125245 0.125245 0.100000
v 0.125245 0.185910 0.100000
v 0.064579 0.185910 0.100000
v -0.060665 0.125245 0.100000
v 0.000000 0.125245 0.100000
v 0.000000 0.185910 0.100000
v -0.060665 0.185910 0.100000
v 0.252446 0.187867 0.100000
v 0.313112 0.187867 0.100000
v 0.313112 0.248532 0.100000
v 0.252446 0.248532 0.100000
v 0.189824 0.187867 0.100000
v 0.250489 0.187867 0.100000
v 0.250489 0.248532 0.100000
v 0.189824 0.248532 0.100000
v 0.127202 0.187867 0.100000
v 0.187867 0.187867 0.100000
v 0.187867 0.248532 0.100000
v 0.127202 0.248532 0.100000
v -0.060665 0.187867 0.100000
v 0.000000 0.187867 0.100000
v 0.000000 0.248532 0.100000
v -0.060665 0.248532 0.100000
v 0.315069 0.062622 0.100000
v 0.315068 0.062622 -0.100000
v 0.375734 0.062622 0.100000
v 0.375734 0.062622 -0.100000
v 0.375734 0.123288 0.100000
v 0.375734 0.123288 -0.100000
v 0.315069 0.123288 0.100000
v 0.315068 0.123288 -0.100000
v 0.252446 0.062622 0.100000
v 0.252446 0.062622 -0.100000
v 0.313112 0.062622 0.100000
v 0.313112 0.062622 -0.100000
v 0.313112 0.123288 0.100000
v 0.313112 0.123288 -0.100000
v 0.252446 0.123288 0.100000
v 0.252446 0.123288 -0.100000
v 0.064579 0.062622 0.100000
v 0.064579 0.062622 -0.100000
v 0.125245 0.062622 0.100000
v 0.125245 0.062622 -0.100000
v 0.125245 0.123288 0.100000
v 0.125245 0.123288 -0.100000
v 0.064579 0.123288 0.100000
v 0.064579 0.123288 -0.100000
v 0.001957 0.062622 0.100000
v 0.001957 0.062622 -0.100000
v 0.062622 0.062622 0.100000
v 0.062622 0.062622 -0.100000
v 0.062622 0.123288 0.100000
v 0.062622 0.123288 -0.100000
v 0.001957 0.123288 0.100000
v 0.001957 0.123288 -0.100000
v -0.060665 0.062622 0.100000
v -0.060665 0.062622 -0.100000
v 0.000000 0.062622 0.100000
v -0.000000 0.062622 -0.100000
v 0.000000 0.123288 0.100000
v -0.000000 0.123288 -0.100000
v -0.060665 0.123288 0.100000
v -0.060665 0.123288 -0.100000
v 0.315069 0.125245 0.100000
v 0.315068 0.125245 -0.100000
v 0.375734 0.125245 0.100000
v 0.375734 0.125245 -0.100000
v 0.375734 0.185910 0.100000
v 0.375734 0.185910 -0.100000
v 0.315069 0.185910 0.100000
v 0.315068 0.185910 -0.100000
v 0.252446 0.125245 0.100000
v 0.252446 0.125245 -0.100000
v 0.313112 0.125245 0.100000
v 0.313112 0.125245 -0.100000
v 0.313112 0.185910 0.100000
v 0.313112 0.185910 -0.100000
v 0.252446 0.185910 0.100000
v 0.252446 0.185910 -0.100000
v 0.127202 0.125245 0.100000
v 0.127202 0.125245 -0.100000
v 0.187867 0.125245 0.100000
v 0.187867 0.125245 -0.100000
v 0.187867 0.185910 0.100000
v 0.187867 0.185910 -0.100000
v 0.127202 0.185910 0.100000
v 0.127202 0.185910 -0.100000
v 0.064579 0.125245 0.100000
v 0.064579 0.125245 -0.100000
v 0.125245 0.125245 0.100000
v 0.125245 0.125245 -0.100000
v 0.125245 0.185910 0.100000
v 0.125245 0.185910 -0.100000
v 0.064579 0.185910 0.100000
v 0.064579 0.185910 -0.100000
v -0.060665 0.125245 0.100000
v -0.060665 0.125245 -0.100000
v 0.000000 0.125245 0.100000
v -0.000000 0.125245 -0.100000
v 0.000000 0.185910 0.100000
v -0.000000 0.185910 -0.100000
v -0.060665 0.185910 0.100000
v -0.060665 0.185910 -0.100000
v 0.252446 0.187867 0.100000
v 0.252446 0.187867 -0.100000
v 0.313112 0.187867 0.100000
v 0.313112 0.187867 -0.100000
v 0.313112 0.248532 0.100000
v 0.313112 0.248532 -0.100000
v 0.252446 0.248532 0.100000
v 0.252446 0.248532 -0.100000
v 0.189824 0.187867 0.100000
v 0.189824 0.187867 -0.100000
v 0.250489 0.187867 0.100000
v 0.250489 0.187867 -0.100000
v 0.250489 0.248532 0.100000
v 0.250489 0.248532 -0.100000
v 0.189824 0.248532 0.100000
v 0.189824 0.248532 -0.100000
v 0.127202 0.187867 0.100000
v 0.127202 0.187867 -0.100000
v 0.187867 0.187867 0.100000
v 0.187867 0.187867 -0.100000
v 0.187867 0.248532 0.100000
v 0.187867 0.248532 -0.100000
v 0.127202 0.248532 0.100000
v 0.127202 0.248532 -0.100000
v -0.060665 0.187867 0.100000
v -0.060665 0.187867 -0.100000
v 0.000000 0.187867 0.100000
v -0.000000 0.187867 -0.100000
v 0.000000 0.248532 0.100000
v -0.000000 0.248532 -0.100000
v -0.060665 0.248532 0.100000
v -0.060665 0.248532 -0.100000
v -0.123288 0.187867 0.100000
v -0.123288 0.187867 -0.100000
v -0.062622 0.187867 0.100000
v -0.062622 0.187867 -0.100000
v -0.062622 0.248532 0.100000
v -0.062622 0.248532 -0.100000
v -0.123288 0.248532 0.100000
v -0.123288 0.248532 -0.100000
vn -0.0000 -0.0000 -1.0000
vn -0.0000 -0.0000 1.0000
vn -0.7071 -0.7071 -0.0000
vn 0.7071 -0.7071 -0.0000
vn 0.7071 0.7071 -0.0000
vn -0.7071 0.7071 -0.0000
vt 0.084746 0.000000
vt 0.118644 0.000000
vt 0.101695 0.000000
vt 0.067797 0.000000
vt 0.152542 0.000000
vt 0.186441 0.000000
vt 0.169492 0.000000
vt 0.135593 0.000000
vt 0.220339 0.000000
vt 0.254237 0.000000
vt 0.237288 0.000000
vt 0.203390 0.000000
vt 0.288136 0.000000
vt 0.322034 0.000000
vt 0.305085 0.000000
vt 0.271186 0.000000
vt 0.355932 0.000000
vt 0.389830 0.000000
vt 0.372881 0.000000
vt 0.338983 0.000000
vt 0.423729 0.000000
vt 0.457627 0.000000
vt 0.440678 0.000000
vt 0.406780 0.000000
vt 0.491525 0.000000
vt 0.525424 0.000000
vt 0.508475 0.000000
vt 0.474576 0.000000
vt 0.559322 0.000000
vt 0.593220 0.000000
vt 0.576271 0.000000
vt 0.542373 0.000000
vt 0.627119 0.000000
vt 0.661017 0.000000
vt 0.644068 0.000000
vt 0.610169 0.000000
vt 0.694915 0.000000
vt 0.728814 0.000000
vt 0.711864 0.000000
vt 0.677966 0.000000
vt 0.762712 0.000000
vt 0.796610 0.000000
vt 0.779661 0.000000
vt 0.745763 0.000000
vt 0.830508 0.000000
vt 0.864407 0.000000
vt 0.847458 0.000000
vt 0.813559 0.000000
vt 0.898305 0.000000
vt 0.932203 0.000000
vt 0.915254 0.000000
vt 0.881356 0.000000
vt 0.966102 0.000000
vt 1.000000 0.000000
vt 0.983051 0.000000
vt 0.949153 0.000000
vt 0.016949 0.000000
vt 0.050847 0.000000
vt 0.033898 0.000000
vt 0.000000 0.000000
vt 0.000000 1.000000
vt 0.250000 1.000000
vt 0.250000 0.000000
vt 0.500000 1.000000
vt 0.500000 0.000000
vt 0.750000 1.000000
vt 0.750000 0.000000
vt 1.000000 1.000000
s 0
f 6/1/1 8/2/1 7/3/1
f 6/1/1 5/4/1 8/2/1
f 10/5/1 12/6/1 11/7/1
f 10/5/1 9/8/1 12/6/1
f 14/9/1 16/10/1 15/11/1
f 14/9/1 13/12/1 16/10/1
f 18/13/1 20/14/1 19/15/1
f 18/13/1 17/16/1 20/14/1
f 22/17/1 24/18/1 23/19/1
f 22/17/1 21/20/1 24/18/1
f 26/21/1 28/22/1 27/23/1
f 26/21/1 25/24/1 28/22/1
f 30/25/1 32/26/1 31/27/1
f 30/25/1 29/28/1 32/26/1
f 34/29/1 36/30/1 35/31/1
f 34/29/1 33/32/1 36/30/1
f 38/33/1 40/34/1 39/35/1
f 38/33/1 37/36/1 40/34/1
f 42/37/1 44/38/1 43/39/1
f 42/37/1 41/40/1 44/38/1
f 46/41/1 48/42/1 47/43/1
f 46/41/1 45/44/1 48/42/1
f 50/45/1 52/46/1 51/47/1
f 50/45/1 49/48/1 52/46/1
f 54/49/1 56/50/1 55/51/1
f 54/49/1 53/52/1 56/50/1
f 58/53/1 60/54/1 59/55/1
f 58/53/1 57/56/1 60/54/1
f 2/57/1 4/58/1 3/59/1
f 2/57/1 1/60/1 4/58/1
f 66/1/2 67/3/2 68/2/2
f 66/1/2 68/2/2 65/4/2
f 70/5/2 71/7/2 72/6/2
f 70/5/2 72/6/2 69/8/2
f 74/9/2 75/11/2 76/10/2
f 74/9/2 76/10/2 73/12/2
f 78/13/2 79/15/2 80/14/2
f 78/13/2 80/14/2 77/16/2
f 82/17/2 83/19/2 84/18/2
f 82/17/2 84/18/2 81/20/2
f 86/21/2 87/23/2 88/22/2
f 86/21/2 88/22/2 85/24/2
f 90/25/2 91/27/2 92/26/2
f 90/25/2 92/26/2 89/28/2
f 94/29/2 95/31/2 96/30/2
f 94/29/2 96/30/2 93/32/2
f 98/33/2 99/35/2 100/34/2
f 98/33/2 100/34/2 97/36/2
f 102/37/2 103/39/2 104/38/2
f 102/37/2 104/38/2 101/40/2
f 106/41/2 107/43/2 108/42/2
f 106/41/2 108/42/2 105/44/2
f 110/45/2 111/47/2 112/46/2
f 110/45/2 112/46/2 109/48/2
f 114/49/2 115/51/2 116/50/2
f 114/49/2 116/50/2 113/52/2
f 118/53/2 119/55/2 120/54/2
f 118/53/2 120/54/2 117/56/2
f 62/57/2 63/59/2 64/58/2
f 62/57/2 64/58/2 61/60/2
s 1
f 122/61/3 124/62/4 123/63/4 121/60/3
f 124/62/4 126/64/5 125/65/5 123/63/4
f 126/64/5 128/66/6 127/67/6 125/65/5
f 128/66/6 122/68/3 121/54/3 127/67/6
f 130/61/3 132/62/4 131/63/4 129/60/3
f 132/62/4 134/64/5 133/65/5 131/63/4
f 134/64/5 136/66/6 135/67/6 133/65/5
f 136/66/6 130/68/3 129/54/3 135/67/6
f 138/61/3 140/62/4 139/63/4 137/60/3
f 140/62/4 142/64/5 141/65/5 139/63/4
f 142/64/5 144/66/6 143/67/6 141/65/5
f 144/66/6 138/68/3 137/54/3 143/67/6
f 146/61/3 148/62/4 147/63/4 145/60/3
f 148/62/4 150/64/5 149/65/5 147/63/4
f 150/64/5 152/66/6 151/67/6 149/65/5
f 152/66/6 146/68/3 145/54/3 151/67/6
f 154/61/3 156/62/4 155/63/4 153/60/3
f 156/62/4 158/64/5 157/65/5 155/63/4
f 158/64/5 160/66/6 159/67/6 157/65/5
f 160/66/6 154/68/3 153/54/3 159/67/6
f 162/61/3 164/62/4 163/63/4 161/60/3
f 164/62/4 166/64/5 165/65/5 163/63/4
f 166/64/5 168/66/6 167/67/6 165/65/5
f 168/66/6 162/68/3 161/54/3 167/67/6
f 170/61/3 172/62/4 171/63/4 169/60/3
f 172/62/4 174/64/5 173/65/5 171/63/4
f 174/64/5 176/66/6 175/67/6 173/65/5
f 176/66/6 170/68/3 169/54/3 175/67/6
f 178/61/3 180/62/4 179/63/4 177/60/3
f 180/62/4 182/64/5 181/65/5 179/63/4
f 182/64/5 184/66/6 183/67/6 181/65/5
f 184/66/6 178/68/3 177/54/3 183/67/6
f 186/61/3 188/62/4 187/63/4 185/60/3
f 188/62/4 190/64/5 189/65/5 187/63/4
f 190/64/5 192/66/6 191/67/6 189/65/5
f 192/66/6 186/68/3 185/54/3 191/67/6
f 194/61/3 196/62/4 195/63/4 193/60/3
f 196/62/4 198/64/5 197/65/5 195/63/4
f 198/64/5 200/66/6 199/67/6 197/65/5
f 200/66/6 194/68/3 193/54/3 199/67/6
f 202/61/3 204/62/4 203/63/4 201/60/3
f 204/62/4 206/64/5 205/65/5 203/63/4
f 206/64/5 208/66/6 207/67/6 205/65/5
f 208/66/6 202/68/3 201/54/3 207/67/6
f 210/61/3 212/62/4 211/63/4 209/60/3
f 212/62/4 214/64/5 213/65/5 211/63/4
f 214/64/5 216/66/6 215/67/6 213/65/5
f 216/66/6 210/68/3 209/54/3 215/67/6
f 218/61/3 220/62/4 219/63/4 217/60/3
f 220/62/4 222/64/5 221/65/5 219/63/4
f 222/64/5 224/66/6 223/67/6 221/65/5
f 224/66/6 218/68/3 217/54/3 223/67/6
f 226/61/3 228/62/4 227/63/4 225/60/3
f 228/62/4 230/64/5 229/65/5 227/63/4
f 230/64/5 232/66/6 231/67/6 229/65/5
f 232/66/6 226/68/3 225/54/3 231/67/6
f 234/61/3 236/62/4 235/63/4 233/60/3
f 236/62/4 238/64/5 237/65/5 235/63/4
f 238/64/5 240/66/6 239/67/6 237/65/5
f 240/66/6 234/68/3 233/54/3 239/67/6
