# Blender 4.1.1
# www.blender.org
o (
v 0.064579 0.187867 -0.100000
v 0.125245 0.187867 -0.100000
v 0.125245 0.248532 -0.100000
v 0.064579 0.248532 -0.100000
v 0.127202 -0.313112 -0.100000
v 0.187867 -0.313112 -0.100000
v 0.187867 -0.252446 -0.100000
v 0.127202 -0.252446 -0.100000
v 0.064579 -0.313112 -0.100000
v 0.125245 -0.313112 -0.100000
v 0.125245 -0.252446 -0.100000
v 0.064579 -0.252446 -0.100000
v 0.189824 -0.250489 -0.100000
v 0.250489 -0.250489 -0.100000
v 0.250489 -0.189824 -0.100000
v 0.189824 -0.189824 -0.100000
v 0.127202 -0.250489 -0.100000
v 0.187867 -0.250489 -0.100000
v 0.187867 -0.189824 -0.100000
v 0.127202 -0.189824 -0.100000
v 0.252446 -0.187867 -0.100000
v 0.313112 -0.187867 -0.100000
v 0.313112 -0.127202 -0.100000
v 0.252446 -0.127202 -0.100000
v 0.189824 -0.187867 -0.100000
v 0.250489 -0.187867 -0.100000
v 0.250489 -0.127202 -0.100000
v 0.189824 -0.127202 -0.100000
v 0.315068 -0.125245 -0.100000
v 0.375734 -0.125245 -0.100000
v 0.375734 -0.064579 -0.100000
v 0.315068 -0.064579 -0.100000
v 0.252446 -0.125245 -0.100000
v 0.313112 -0.125245 -0.100000
v 0.313112 -0.064579 -0.100000
v 0.252446 -0.064579 -0.100000
v 0.315068 -0.062622 -0.100000
v 0.375734 -0.062622 -0.100000
v 0.375734 -0.001957 -0.100000
v 0.315068 -0.001957 -0.100000
v 0.252446 -0.062622 -0.100000
v 0.313112 -0.062622 -0.100000
v 0.313112 -0.001957 -0.100000
v 0.252446 -0.001957 -0.100000
v 0.315068 -0.000000 -0.100000
v 0.375734 -0.000000 -0.100000
v 0.375734 0.060665 -0.100000
v 0.315068 0.060665 -0.100000
v 0.252446 -0.000000 -0.100000
v 0.313112 -0.000000 -0.100000
v 0.313112 0.060665 -0.100000
v 0.252446 0.060665 -0.100000
v 0.252446 0.062622 -0.100000
v 0.313112 0.062622 -0.100000
v 0.313112 0.123288 -0.100000
v 0.252446 0.123288 -0.100000
v 0.189824 0.062622 -0.100000
v 0.250489 0.062622 -0.100000
v 0.250489 0.123288 -0.100000
v 0.189824 0.123288 -0.100000
v 0.189824 0.125245 -0.100000
v 0.250489 0.125245 -0.100000
v 0.250489 0.185910 -0.100000
v 0.189824 0.185910 -0.100000
v 0.127202 0.125245 -0.100000
v 0.187867 0.125245 -0.100000
v 0.187867 0.185910 -0.100000
v 0.127202 0.185910 -0.100000
v 0.127202 0.187867 -0.100000
v 0.187867 0.187867 -0.100000
v 0.187867 0.248532 -0.100000
v 0.127202 0.248532 -0.100000
v 0.064579 0.187867 0.100000
v 0.125245 0.187867 0.100000
v 0.125245 0.248532 0.100000
v 0.064579 0.248532 0.100000
v 0.127202 -0.313112 0.100000
v 0.187867 -0.313112 0.100000
v 0.187867 -0.252446 0.100000
v 0.127202 -0.252446 0.100000
v 0.064579 -0.313112 0.100000
v 0.125245 -0.313112 0.100000
v 0.125245 -0.252446 0.100000
v 0.064579 -0.252446 0.100000
v 0.189824 -0.250489 0.100000
v 0.250489 -0.250489 0.100000
v 0.250489 -0.189824 0.100000
v 0.189824 -0.189824 0.100000
v 0.127202 -0.250489 0.100000
v 0.187867 -0.250489 0.100000
v 0.187867 -0.189824 0.100000
v 0.127202 -0.189824 0.100000
v 0.252446 -0.187867 0.100000
v 0.313112 -0.187867 0.100000
v 0.313112 -0.127202 0.100000
v 0.252446 -0.127202 0.100000
v 0.189824 -0.187867 0.100000
v 0.250489 -0.187867 0.100000
v 0.250489 -0.127202 0.100000
v 0.189824 -0.127202 0.100000
v 0.315069 -0.125245 0.100000
v 0.375734 -0.125245 0.100000
v 0.375734 -0.064579 0.100000
v 0.315069 -0.064579 0.100000
v 0.252446 -0.125245 0.100000
v 0.313112 -0.125245 0.100000
v 0.313112 -0.064579 0.100000
v 0.252446 -0.064579 0.100000
v 0.315069 -0.062622 0.100000
v 0.375734 -0.062622 0.100000
v 0.375734 -0.001957 0.100000
v 0.315069 -0.001957 0.100000
v 0.252446 -0.062622 0.100000
v 0.313112 -0.062622 0.100000
v 0.313112 -0.001957 0.100000
v 0.252446 -0.001957 0.100000
v 0.315069 0.000000 0.100000
v 0.375734 0.000000 0.100000
v 0.375734 0.060665 0.100000
v 0.315069 0.060665 0.100000
v 0.252446 0.000000 0.100000
v 0.313112 0.000000 0.100000
v 0.313112 0.060665 0.100000
v 0.252446 0.060665 0.100000
v 0.252446 0.062622 0.100000
v 0.313112 0.062622 0.100000
v 0.313112 0.123288 0.100000
v 0.252446 0.123288 0.100000
v 0.189824 0.062622 0.100000
v 0.250489 0.062622 0.100000
v 0.250489 0.123288 0.100000
v 0.189824 0.123288 0.100000
v 0.189824 0.125245 0.100000
v 0.250489 0.125245 0.100000
v 0.250489 0.185910 0.100000
v 0.189824 0.185910 0.100000
v 0.127202 0.125245 0.100000
v 0.187867 0.125245 0.100000
v 0.187867 0.185910 0.100000
v 0.127202 0.185910 0.100000
v 0.127202 0.187867 0.100000
v 0.187867 0.187867 0.100000
v 0.187867 0.248532 0.100000
v 0.127202 0.248532 0.100000
v 0.127202 -0.313112 0.100000
v 0.127202 -0.313112 -0.100000
v 0.187867 -0.313112 0.100000
v 0.187867 -0.313112 -0.100000
v 0.187867 -0.252446 0.100000
v 0.187867 -0.252446 -0.100000
v 0.127202 -0.252446 0.100000
v 0.127202 -0.252446 -0.100000
v 0.064579 -0.313112 0.100000
v 0.064579 -0.313112 -0.100000
v 0.125245 -0.313112 0.100000
v 0.125245 -0.313112 -0.100000
v 0.125245 -0.252446 0.100000
v 0.125245 -0.252446 -0.100000
v 0.064579 -0.252446 0.100000
v 0.064579 -0.252446 -0.100000
v 0.189824 -0.250489 0.100000
v 0.189824 -0.250489 -0.100000
v 0.250489 -0.250489 0.100000
v 0.250489 -0.250489 -0.100000
v 0.250489 -0.189824 0.100000
v 0.250489 -0.189824 -0.100000
v 0.189824 -0.189824 0.100000
v 0.189824 -0.189824 -0.100000
v 0.127202 -0.250489 0.100000
v 0.127202 -0.250489 -0.100000
v 0.187867 -0.250489 0.100000
v 0.187867 -0.250489 -0.100000
v 0.187867 -0.189824 0.100000
v 0.187867 -0.189824 -0.100000
v 0.127202 -0.189824 0.100000
v 0.127202 -0.189824 -0.100000
v 0.252446 -0.187867 0.100000
v 0.252446 -0.187867 -0.100000
v 0.313112 -0.187867 0.100000
v 0.313112 -0.187867 -0.100000
v 0.313112 -0.127202 0.100000
v 0.313112 -0.127202 -0.100000
v 0.252446 -0.127202 0.100000
v 0.252446 -0.127202 -0.100000
v 0.189824 -0.187867 0.100000
v 0.189824 -0.187867 -0.100000
v 0.250489 -0.187867 0.100000
v 0.250489 -0.187867 -0.100000
v 0.250489 -0.127202 0.100000
v 0.250489 -0.127202 -0.100000
v 0.189824 -0.127202 0.100000
v 0.189824 -0.127202 -0.100000
v 0.315069 -0.125245 0.100000
v 0.315068 -0.125245 -0.100000
v 0.375734 -0.125245 0.100000
v 0.375734 -0.125245 -0.100000
v 0.375734 -0.064579 0.100000
v 0.375734 -0.064579 -0.100000
v 0.315069 -0.064579 0.100000
v 0.315068 -0.064579 -0.100000
v 0.252446 -0.125245 0.100000
v 0.252446 -0.125245 -0.100000
v 0.313112 -0.125245 0.100000
v 0.313112 -0.125245 -0.100000
v 0.313112 -0.064579 0.100000
v 0.313112 -0.064579 -0.100000
v 0.252446 -0.064579 0.100000
v 0.252446 -0.064579 -0.100000
v 0.315069 -0.062622 0.100000
v 0.315068 -0.062622 -0.100000
v 0.375734 -0.062622 0.100000
v 0.375734 -0.062622 -0.100000
v 0.375734 -0.001957 0.100000
v 0.375734 -0.001957 -0.100000
v 0.315069 -0.001957 0.100000
v 0.315068 -0.001957 -0.100000
v 0.252446 -0.062622 0.100000
v 0.252446 -0.062622 -0.100000
v 0.313112 -0.062622 0.100000
v 0.313112 -0.062622 -0.100000
v 0.313112 -0.001957 0.100000
v 0.313112 -0.001957 -0.100000
v 0.252446 -0.001957 0.100000
v 0.252446 -0.001957 -0.100000
v 0.315069 0.000000 0.100000
v 0.315068 -0.000000 -0.100000
v 0.375734 0.000000 0.100000
v 0.375734 -0.000000 -0.100000
v 0.375734 0.060665 0.100000
v 0.375734 0.060665 -0.100000
v 0.315069 0.060665 0.100000
v 0.315068 0.060665 -0.100000
v 0.252446 0.000000 0.100000
v 0.252446 -0.000000 -0.100000
v 0.313112 0.000000 0.100000
v 0.313112 -0.000000 -0.100000
v 0.313112 0.060665 0.100000
v 0.313112 0.060665 -0.100000
v 0.252446 0.060665 0.100000
v 0.252446 0.060665 -0.100000
v 0.252446 0.062622 0.100000
v 0.252446 0.062622 -0.100000
v 0.313112 0.062622 0.100000
v 0.313112 0.062622 -0.100000
v 0.313112 0.123288 0.100000
v 0.313112 0.123288 -0.100000
v 0.252446 0.123288 0.100000
v 0.252446 0.123288 -0.100000
v 0.189824 0.062622 0.100000
v 0.189824 0.062622 -0.100000
v 0.250489 0.062622 0.100000
v 0.250489 0.062622 -0.100000
v 0.250489 0.123288 0.100000
v 0.250489 0.123288 -0.100000
v 0.189824 0.123288 0.100000
v 0.189824 0.123288 -0.100000
v 0.189824 0.125245 0.100000
v 0.189824 0.125245 -0.100000
v 0.250489 0.125245 0.100000
v 0.250489 0.125245 -0.100000
v 0.250489 0.185910 0.100000
v 0.250489 0.185910 -0.100000
v 0.189824 0.185910 0.100000
v 0.189824 0.185910 -0.100000
v 0.127202 0.125245 0.100000
v 0.127202 0.125245 -0.100000
v 0.187867 0.125245 0.100000
v 0.187867 0.125245 -0.100000
v 0.187867 0.185910 0.100000
v 0.187867 0.185910 -0.100000
v 0.127202 0.185910 0.100000
v 0.127202 0.185910 -0.100000
v 0.127202 0.187867 0.100000
v 0.127202 0.187867 -0.100000
v 0.187867 0.187867 0.100000
v 0.187867 0.187867 -0.100000
v 0.187867 0.248532 0.100000
v 0.187867 0.248532 -0.100000
v 0.127202 0.248532 0.100000
v 0.127202 0.248532 -0.100000
v 0.064579 0.187867 0.100000
v 0.064579 0.187867 -0.100000
v 0.125245 0.187867 0.100000
v 0.125245 0.187867 -0.100000
v 0.125245 0.248532 0.100000
v 0.125245 0.248532 -0.100000
v 0.064579 0.248532 0.100000
v 0.064579 0.248532 -0.100000
vn -0.0000 -0.0000 -1.0000
vn -0.0000 -0.0000 1.0000
vn -0.7071 -0.7071 -0.0000
vn 0.7071 -0.7071 -0.0000
vn 0.7071 0.7071 -0.0000
vn -0.7071 0.7071 -0.0000
vt 0.070423 0.000000
vt 0.098592 0.000000
vt 0.084507 0.000000
vt 0.056338 0.000000
vt 0.126761 0.000000
vt 0.154930 0.000000
vt 0.140845 0.000000
vt 0.112676 0.000000
vt 0.183099 0.000000
vt 0.211268 0.000000
vt 0.197183 0.000000
vt 0.169014 0.000000
vt 0.239437 0.000000
vt 0.267606 0.000000
vt 0.253521 0.000000
vt 0.225352 0.000000
vt 0.295775 0.000000
vt 0.323944 0.000000
vt 0.309859 0.000000
vt 0.281690 0.000000
vt 0.352113 0.000000
vt 0.380282 0.000000
vt 0.366197 0.000000
vt 0.338028 0.000000
vt 0.408451 0.000000
vt 0.436620 0.000000
vt 0.422535 0.000000
vt 0.394366 0.000000
vt 0.464789 0.000000
vt 0.492958 0.000000
vt 0.478873 0.000000
vt 0.450704 0.000000
vt 0.521127 0.000000
vt 0.549296 0.000000
vt 0.535211 0.000000
vt 0.507042 0.000000
vt 0.577465 0.000000
vt 0.605634 0.000000
vt 0.591549 0.000000
vt 0.563380 0.000000
vt 0.633803 0.000000
vt 0.661972 0.000000
vt 0.647887 0.000000
vt 0.619718 0.000000
vt 0.690141 0.000000
vt 0.718310 0.000000
vt 0.704225 0.000000
vt 0.676056 0.000000
vt 0.746479 0.000000
vt 0.774648 0.000000
vt 0.760563 0.000000
vt 0.732394 0.000000
vt 0.802817 0.000000
vt 0.830986 0.000000
vt 0.816901 0.000000
vt 0.788732 0.000000
vt 0.859155 0.000000
vt 0.887324 0.000000
vt 0.873239 0.000000
vt 0.845070 0.000000
vt 0.915493 0.000000
vt 0.943662 0.000000
vt 0.929577 0.000000
vt 0.901408 0.000000
vt 0.971831 0.000000
vt 1.000000 0.000000
vt 0.985915 0.000000
vt 0.957747 0.000000
vt 0.014085 0.000000
vt 0.042254 0.000000
vt 0.028169 0.000000
vt 0.000000 0.000000
vt 0.000000 1.000000
vt 0.250000 1.000000
vt 0.250000 0.000000
vt 0.500000 1.000000
vt 0.500000 0.000000
vt 0.750000 1.000000
vt 0.750000 0.000000
vt 1.000000 1.000000
s 0
f 6/1/1 8/2/1 7/3/1
f 6/1/1 5/4/1 8/2/1
f 10/5/1 12/6/1 11/7/1
f 10/5/1 9/8/1 12/6/1
f 14/9/1 16/10/1 15/11/1
f 14/9/1 13/12/1 16/10/1
f 18/13/1 20/14/1 19/15/1
f 18/13/1 17/16/1 20/14/1
f 22/17/1 24/18/1 23/19/1
f 22/17/1 21/20/1 24/18/1
f 26/21/1 28/22/1 27/23/1
f 26/21/1 25/24/1 28/22/1
f 30/25/1 32/26/1 31/27/1
f 30/25/1 29/28/1 32/26/1
f 34/29/1 36/30/1 35/31/1
f 34/29/1 33/32/1 36/30/1
f 38/33/1 40/34/1 39/35/1
f 38/33/1 37/36/1 40/34/1
f 42/37/1 44/38/1 43/39/1
f 42/37/1 41/40/1 44/38/1
f 46/41/1 48/42/1 47/43/1
f 46/41/1 45/44/1 48/42/1
f 50/45/1 52/46/1 51/47/1
f 50/45/1 49/48/1 52/46/1
f 54/49/1 56/50/1 55/51/1
f 54/49/1 53/52/1 56/50/1
f 58/53/1 60/54/1 59/55/1
f 58/53/1 57/56/1 60/54/1
f 62/57/1 64/58/1 63/59/1
f 62/57/1 61/60/1 64/58/1
f 66/61/1 68/62/1 67/63/1
f 66/61/1 65/64/1 68/62/1
f 70/65/1 72/66/1 71/67/1
f 70/65/1 69/68/1 72/66/1
f 2/69/1 4/70/1 3/71/1
f 2/69/1 1/72/1 4/70/1
f 78/1/2 79/3/2 80/2/2
f 78/1/2 80/2/2 77/4/2
f 82/5/2 83/7/2 84/6/2
f 82/5/2 84/6/2 81/8/2
f 86/9/2 87/11/2 88/10/2
f 86/9/2 88/10/2 85/12/2
f 90/13/2 91/15/2 92/14/2
f 90/13/2 92/14/2 89/16/2
f 94/17/2 95/19/2 96/18/2
f 94/17/2 96/18/2 93/20/2
f 98/21/2 99/23/2 100/22/2
f 98/21/2 100/22/2 97/24/2
f 102/25/2 103/27/2 104/26/2
f 102/25/2 104/26/2 101/28/2
f 106/29/2 107/31/2 108/30/2
f 106/29/2 108/30/2 105/32/2
f 110/33/2 111/35/2 112/34/2
f 110/33/2 112/34/2 109/36/2
f 114/37/2 115/39/2 116/38/2
f 114/37/2 116/38/2 113/40/2
f 118/41/2 119/43/2 120/42/2
f 118/41/2 120/42/2 117/44/2
f 122/45/2 123/47/2 124/46/2
f 122/45/2 124/46/2 121/48/2
f 126/49/2 127/51/2 128/50/2
f 126/49/2 128/50/2 125/52/2
f 130/53/2 131/55/2 132/54/2
f 130/53/2 132/54/2 129/56/2
f 134/57/2 135/59/2 136/58/2
f 134/57/2 136/58/2 133/60/2
f 138/61/2 139/63/2 140/62/2
f 138/61/2 140/62/2 137/64/2
f 142/65/2 143/67/2 144/66/2
f 142/65/2 144/66/2 141/68/2
f 74/69/2 75/71/2 76/70/2
f 74/69/2 76/70/2 73/72/2
s 1
f 146/73/3 148/74/4 147/75/4 145/72/3
f 148/74/4 150/76/5 149/77/5 147/75/4
f 150/76/5 152/78/6 151/79/6 149/77/5
f 152/78/6 146/80/3 145/66/3 151/79/6
f 154/73/3 156/74/4 155/75/4 153/72/3
f 156/74/4 158/76/5 157/77/5 155/75/4
f 158/76/5 160/78/6 159/79/6 157/77/5
f 160/78/6 154/80/3 153/66/3 159/79/6
f 162/73/3 164/74/4 163/75/4 161/72/3
f 164/74/4 166/76/5 165/77/5 163/75/4
f 166/76/5 168/78/6 167/79/6 165/77/5
f 168/78/6 162/80/3 161/66/3 167/79/6
f 170/73/3 172/74/4 171/75/4 169/72/3
f 172/74/4 174/76/5 173/77/5 171/75/4
f 174/76/5 176/78/6 175/79/6 173/77/5
f 176/78/6 170/80/3 169/66/3 175/79/6
f 178/73/3 180/74/4 179/75/4 177/72/3
f 180/74/4 182/76/5 181/77/5 179/75/4
f 182/76/5 184/78/6 183/79/6 181/77/5
f 184/78/6 178/80/3 177/66/3 183/79/6
f 186/73/3 188/74/4 187/75/4 185/72/3
f 188/74/4 190/76/5 189/77/5 187/75/4
f 190/76/5 192/78/6 191/79/6 189/77/5
f 192/78/6 186/80/3 185/66/3 191/79/6
f 194/73/3 196/74/4 195/75/4 193/72/3
f 196/74/4 198/76/5 197/77/5 195/75/4
f 198/76/5 200/78/6 199/79/6 197/77/5
f 200/78/6 194/80/3 193/66/3 199/79/6
f 202/73/3 204/74/4 203/75/4 201/72/3
f 204/74/4 206/76/5 205/77/5 203/75/4
f 206/76/5 208/78/6 207/79/6 205/77/5
f 208/78/6 202/80/3 201/66/3 207/79/6
f 210/73/3 212/74/4 211/75/4 209/72/3
f 212/74/4 214/76/5 213/77/5 211/75/4
f 214/76/5 216/78/6 215/79/6 213/77/5
f 216/78/6 210/80/3 209/66/3 215/79/6
f 218/73/3 220/74/4 219/75/4 217/72/3
f 220/74/4 222/76/5 221/77/5 219/75/4
f 222/76/5 224/78/6 223/79/6 221/77/5
f 224/78/6 218/80/3 217/66/3 223/79/6
f 226/73/3 228/74/4 227/75/4 225/72/3
f 228/74/4 230/76/5 229/77/5 227/75/4
f 230/76/5 232/78/6 231/79/6 229/77/5
f 232/78/6 226/80/3 225/66/3 231/79/6
f 234/73/3 236/74/4 235/75/4 233/72/3
f 236/74/4 238/76/5 237/77/5 235/75/4
f 238/76/5 240/78/6 239/79/6 237/77/5
f 240/78/6 234/80/3 233/66/3 239/79/6
f 242/73/3 244/74/4 243/75/4 241/72/3
f 244/74/4 246/76/5 245/77/5 243/75/4
f 246/76/5 248/78/6 247/79/6 245/77/5
f 248/78/6 242/80/3 241/66/3 247/79/6
f 250/73/3 252/74/4 251/75/4 249/72/3
f 252/74/4 254/76/5 253/77/5 251/75/4
f 254/76/5 256/78/6 255/79/6 253/77/5
f 256/78/6 250/80/3 249/66/3 255/79/6
f 258/73/3 260/74/4 259/75/4 257/72/3
f 260/74/4 262/76/5 261/77/5 259/75/4
f 262/76/5 264/78/6 263/79/6 261/77/5
f 264/78/6 258/80/3 257/66/3 263/79/6
f 266/73/3 268/74/4 267/75/4 265/72/3
f 268/74/4 270/76/5 269/77/5 267/75/4
f 270/76/5 272/78/6 271/79/6 269/77/5
f 272/78/6 266/80/3 265/66/3 271/79/6
f 274/73/3 276/74/4 275/75/4 273/72/3
f 276/74/4 278/76/5 277/77/5 275/75/4
f 278/76/5 280/78/6 279/79/6 277/77/5
f 280/78/6 274/80/3 273/66/3 279/79/6
f 282/73/3 284/74/4 283/75/4 281/72/3
f 284/74/4 286/76/5 285/77/5 283/75/4
f 286/76/5 288/78/6 287/79/6 285/77/5
f 288/78/6 282/80/3 281/66/3 287/79/6
