# Blender 4.1.1
# www.blender.org
o ,
v 0.127202 -0.250489 -0.100000
v 0.187867 -0.250489 -0.100000
v 0.187867 -0.189824 -0.100000
v 0.127202 -0.189824 -0.100000
v 0.315068 -0.375734 -0.100000
v 0.375734 -0.375734 -0.100000
v 0.375734 -0.314090 -0.100000
v 0.315068 -0.314090 -0.100000
v 0.252446 -0.375734 -0.100000
v 0.313112 -0.375734 -0.100000
v 0.313112 -0.314090 -0.100000
v 0.252446 -0.314090 -0.100000
v 0.252446 -0.313112 -0.100000
v 0.313112 -0.313112 -0.100000
v 0.313112 -0.252446 -0.100000
v 0.252446 -0.252446 -0.100000
v 0.189824 -0.313112 -0.100000
v 0.250489 -0.313112 -0.100000
v 0.250489 -0.252446 -0.100000
v 0.189824 -0.252446 -0.100000
v 0.127202 -0.313112 -0.100000
v 0.187867 -0.313112 -0.100000
v 0.187867 -0.252446 -0.100000
v 0.127202 -0.252446 -0.100000
v 0.252446 -0.250489 -0.100000
v 0.313112 -0.250489 -0.100000
v 0.313112 -0.189824 -0.100000
v 0.252446 -0.189824 -0.100000
v 0.189824 -0.250489 -0.100000
v 0.250489 -0.250489 -0.100000
v 0.250489 -0.189824 -0.100000
v 0.189824 -0.189824 -0.100000
v 0.127202 -0.250489 0.100000
v 0.187867 -0.250489 0.100000
v 0.187867 -0.189824 0.100000
v 0.127202 -0.189824 0.100000
v 0.315069 -0.375734 0.100000
v 0.375734 -0.375734 0.100000
v 0.375734 -0.314090 0.100000
v 0.315069 -0.314090 0.100000
v 0.252446 -0.375734 0.100000
v 0.313112 -0.375734 0.100000
v 0.313112 -0.314090 0.100000
v 0.252446 -0.314090 0.100000
v 0.252446 -0.313112 0.100000
v 0.313112 -0.313112 0.100000
v 0.313112 -0.252446 0.100000
v 0.252446 -0.252446 0.100000
v 0.189824 -0.313112 0.100000
v 0.250489 -0.313112 0.100000
v 0.250489 -0.252446 0.100000
v 0.189824 -0.252446 0.100000
v 0.127202 -0.313112 0.100000
v 0.187867 -0.313112 0.100000
v 0.187867 -0.252446 0.100000
v 0.127202 -0.252446 0.100000
v 0.252446 -0.250489 0.100000
v 0.313112 -0.250489 0.100000
v 0.313112 -0.189824 0.100000
v 0.252446 -0.189824 0.100000
v 0.189824 -0.250489 0.100000
v 0.250489 -0.250489 0.100000
v 0.250489 -0.189824 0.100000
v 0.189824 -0.189824 0.100000
v 0.315069 -0.375734 0.100000
v 0.315068 -0.375734 -0.100000
v 0.375734 -0.375734 0.100000
v 0.375734 -0.375734 -0.100000
v 0.375734 -0.314090 0.100000
v 0.375734 -0.314090 -0.100000
v 0.315069 -0.314090 0.100000
v 0.315068 -0.314090 -0.100000
v 0.252446 -0.375734 0.100000
v 0.252446 -0.375734 -0.100000
v 0.313112 -0.375734 0.100000
v 0.313112 -0.375734 -0.100000
v 0.313112 -0.314090 0.100000
v 0.313112 -0.314090 -0.100000
v 0.252446 -0.314090 0.100000
v 0.252446 -0.314090 -0.100000
v 0.252446 -0.313112 0.100000
v 0.252446 -0.313112 -0.100000
v 0.313112 -0.313112 0.100000
v 0.313112 -0.313112 -0.100000
v 0.313112 -0.252446 0.100000
v 0.313112 -0.252446 -0.100000
v 0.252446 -0.252446 0.100000
v 0.252446 -0.252446 -0.100000
v 0.189824 -0.313112 0.100000
v 0.189824 -0.313112 -0.100000
v 0.250489 -0.313112 0.100000
v 0.250489 -0.313112 -0.100000
v 0.250489 -0.252446 0.100000
v 0.250489 -0.252446 -0.100000
v 0.189824 -0.252446 0.100000
v 0.189824 -0.252446 -0.100000
v 0.127202 -0.313112 0.100000
v 0.127202 -0.313112 -0.100000
v 0.187867 -0.313112 0.100000
v 0.187867 -0.313112 -0.100000
v 0.187867 -0.252446 0.100000
v 0.187867 -0.252446 -0.100000
v 0.127202 -0.252446 0.100000
v 0.127202 -0.252446 -0.100000
v 0.252446 -0.250489 0.100000
v 0.252446 -0.250489 -0.100000
v 0.313112 -0.250489 0.100000
v 0.313112 -0.250489 -0.100000
v 0.313112 -0.189824 0.100000
v 0.313112 -0.189824 -0.100000
v 0.252446 -0.189824 0.100000
v 0.252446 -0.189824 -0.100000
v 0.189824 -0.250489 0.100000
v 0.189824 -0.250489 -0.100000
v 0.250489 -0.250489 0.100000
v 0.250489 -0.250489 -0.100000
v 0.250489 -0.189824 0.100000
v 0.250489 -0.189824 -0.100000
v 0.189824 -0.189824 0.100000
v 0.189824 -0.189824 -0.100000
v 0.127202 -0.250489 0.100000
v 0.127202 -0.250489 -0.100000
v 0.187867 -0.250489 0.100000
v 0.187867 -0.250489 -0.100000
v 0.187867 -0.189824 0.100000
v 0.187867 -0.189824 -0.100000
v 0.127202 -0.189824 0.100000
v 0.127202 -0.189824 -0.100000
vn -0.0000 -0.0000 -1.0000
vn -0.0000 -0.0000 1.0000
vn -0.7071 -0.7071 -0.0000
vn 0.7071 -0.7071 -0.0000
vn 0.7071 0.7071 -0.0000
vn -0.7071 0.7071 -0.0000
vt 0.161290 0.000000
vt 0.225806 0.000000
vt 0.193548 0.000000
vt 0.129032 0.000000
vt 0.290323 0.000000
vt 0.354839 0.000000
vt 0.322581 0.000000
vt 0.258065 0.000000
vt 0.419355 0.000000
vt 0.483871 0.000000
vt 0.451613 0.000000
vt 0.387097 0.000000
vt 0.548387 0.000000
vt 0.612903 0.000000
vt 0.580645 0.000000
vt 0.516129 0.000000
vt 0.677419 0.000000
vt 0.741935 0.000000
vt 0.709677 0.000000
vt 0.645161 0.000000
vt 0.806452 0.000000
vt 0.870968 0.000000
vt 0.838710 0.000000
vt 0.774194 0.000000
vt 0.935484 0.000000
vt 1.000000 0.000000
vt 0.967742 0.000000
vt 0.903226 0.000000
vt 0.032258 0.000000
vt 0.096774 0.000000
vt 0.064516 0.000000
vt 0.000000 0.000000
vt 0.000000 1.000000
vt 0.250000 1.000000
vt 0.250000 0.000000
vt 0.500000 1.000000
vt 0.500000 0.000000
vt 0.750000 1.000000
vt 0.750000 0.000000
vt 1.000000 1.000000
s 0
f 6/1/1 8/2/1 7/3/1
f 6/1/1 5/4/1 8/2/1
f 10/5/1 12/6/1 11/7/1
f 10/5/1 9/8/1 12/6/1
f 14/9/1 16/10/1 15/11/1
f 14/9/1 13/12/1 16/10/1
f 18/13/1 20/14/1 19/15/1
f 18/13/1 17/16/1 20/14/1
f 22/17/1 24/18/1 23/19/1
f 22/17/1 21/20/1 24/18/1
f 26/21/1 28/22/1 27/23/1
f 26/21/1 25/24/1 28/22/1
f 30/25/1 32/26/1 31/27/1
f 30/25/1 29/28/1 32/26/1
f 2/29/1 4/30/1 3/31/1
f 2/29/1 1/32/1 4/30/1
f 38/1/2 39/3/2 40/2/2
f 38/1/2 40/2/2 37/4/2
f 42/5/2 43/7/2 44/6/2
f 42/5/2 44/6/2 41/8/2
f 46/9/2 47/11/2 48/10/2
f 46/9/2 48/10/2 45/12/2
f 50/13/2 51/15/2 52/14/2
f 50/13/2 52/14/2 49/16/2
f 54/17/2 55/19/2 56/18/2
f 54/17/2 56/18/2 53/20/2
f 58/21/2 59/23/2 60/22/2
f 58/21/2 60/22/2 57/24/2
f 62/25/2 63/27/2 64/26/2
f 62/25/2 64/26/2 61/28/2
f 34/29/2 35/31/2 36/30/2
f 34/29/2 36/30/2 33/32/2
s 1
f 66/33/3 68/34/4 67/35/4 65/32/3
f 68/34/4 70/36/5 69/37/5 67/35/4
f 70/36/5 72/38/6 71/39/6 69/37/5
f 72/38/6 66/40/3 65/26/3 71/39/6
f 74/33/3 76/34/4 75/35/4 73/32/3
f 76/34/4 78/36/5 77/37/5 75/35/4
f 78/36/5 80/38/6 79/39/6 77/37/5
f 80/38/6 74/40/3 73/26/3 79/39/6
f 82/33/3 84/34/4 83/35/4 81/32/3
f 84/34/4 86/36/5 85/37/5 83/35/4
f 86/36/5 88/38/6 87/39/6 85/37/5
f 88/38/6 82/40/3 81/26/3 87/39/6
f 90/33/3 92/34/4 91/35/4 89/32/3
f 92/34/4 94/36/5 93/37/5 91/35/4
f 94/36/5 96/38/6 95/39/6 93/37/5
f 96/38/6 90/40/3 89/26/3 95/39/6
f 98/33/3 100/34/4 99/35/4 97/32/3
f 100/34/4 102/36/5 101/37/5 99/35/4
f 102/36/5 104/38/6 103/39/6 101/37/5
f 104/38/6 98/40/3 97/26/3 103/39/6
f 106/33/3 108/34/4 107/35/4 105/32/3
f 108/34/4 110/36/5 109/37/5 107/35/4
f 110/36/5 112/38/6 111/39/6 109/37/5
f 112/38/6 106/40/3 105/26/3 111/39/6
f 114/33/3 116/34/4 115/35/4 113/32/3
f 116/34/4 118/36/5 117/37/5 115/35/4
f 118/36/5 120/38/6 119/39/6 117/37/5
f 120/38/6 114/40/3 113/26/3 119/39/6
f 122/33/3 124/34/4 123/35/4 121/32/3
f 124/34/4 126/36/5 125/37/5 123/35/4
f 126/36/5 128/38/6 127/39/6 125/37/5
f 128/38/6 122/40/3 121/26/3 127/39/6
