# Blender 4.1.1
# www.blender.org
o .
v 0.189824 -0.250489 -0.100000
v 0.250489 -0.250489 -0.100000
v 0.250489 -0.189824 -0.100000
v 0.189824 -0.189824 -0.100000
v 0.315068 -0.313112 -0.100000
v 0.375734 -0.313112 -0.100000
v 0.375734 -0.252446 -0.100000
v 0.315068 -0.252446 -0.100000
v 0.252446 -0.313112 -0.100000
v 0.313112 -0.313112 -0.100000
v 0.313112 -0.252446 -0.100000
v 0.252446 -0.252446 -0.100000
v 0.189824 -0.313112 -0.100000
v 0.250489 -0.313112 -0.100000
v 0.250489 -0.252446 -0.100000
v 0.189824 -0.252446 -0.100000
v 0.315068 -0.250489 -0.100000
v 0.375734 -0.250489 -0.100000
v 0.375734 -0.189824 -0.100000
v 0.315068 -0.189824 -0.100000
v 0.252446 -0.250489 -0.100000
v 0.313112 -0.250489 -0.100000
v 0.313112 -0.189824 -0.100000
v 0.252446 -0.189824 -0.100000
v 0.189824 -0.250489 0.100000
v 0.250489 -0.250489 0.100000
v 0.250489 -0.189824 0.100000
v 0.189824 -0.189824 0.100000
v 0.315069 -0.313112 0.100000
v 0.375734 -0.313112 0.100000
v 0.375734 -0.252446 0.100000
v 0.315069 -0.252446 0.100000
v 0.252446 -0.313112 0.100000
v 0.313112 -0.313112 0.100000
v 0.313112 -0.252446 0.100000
v 0.252446 -0.252446 0.100000
v 0.189824 -0.313112 0.100000
v 0.250489 -0.313112 0.100000
v 0.250489 -0.252446 0.100000
v 0.189824 -0.252446 0.100000
v 0.315069 -0.250489 0.100000
v 0.375734 -0.250489 0.100000
v 0.375734 -0.189824 0.100000
v 0.315069 -0.189824 0.100000
v 0.252446 -0.250489 0.100000
v 0.313112 -0.250489 0.100000
v 0.313112 -0.189824 0.100000
v 0.252446 -0.189824 0.100000
v 0.315069 -0.313112 0.100000
v 0.315068 -0.313112 -0.100000
v 0.375734 -0.313112 0.100000
v 0.375734 -0.313112 -0.100000
v 0.375734 -0.252446 0.100000
v 0.375734 -0.252446 -0.100000
v 0.315069 -0.252446 0.100000
v 0.315068 -0.252446 -0.100000
v 0.252446 -0.313112 0.100000
v 0.252446 -0.313112 -0.100000
v 0.313112 -0.313112 0.100000
v 0.313112 -0.313112 -0.100000
v 0.313112 -0.252446 0.100000
v 0.313112 -0.252446 -0.100000
v 0.252446 -0.252446 0.100000
v 0.252446 -0.252446 -0.100000
v 0.189824 -0.313112 0.100000
v 0.189824 -0.313112 -0.100000
v 0.250489 -0.313112 0.100000
v 0.250489 -0.313112 -0.100000
v 0.250489 -0.252446 0.100000
v 0.250489 -0.252446 -0.100000
v 0.189824 -0.252446 0.100000
v 0.189824 -0.252446 -0.100000
v 0.315069 -0.250489 0.100000
v 0.315068 -0.250489 -0.100000
v 0.375734 -0.250489 0.100000
v 0.375734 -0.250489 -0.100000
v 0.375734 -0.189824 0.100000
v 0.375734 -0.189824 -0.100000
v 0.315069 -0.189824 0.100000
v 0.315068 -0.189824 -0.100000
v 0.252446 -0.250489 0.100000
v 0.252446 -0.250489 -0.100000
v 0.313112 -0.250489 0.100000
v 0.313112 -0.250489 -0.100000
v 0.313112 -0.189824 0.100000
v 0.313112 -0.189824 -0.100000
v 0.252446 -0.189824 0.100000
v 0.252446 -0.189824 -0.100000
v 0.189824 -0.250489 0.100000
v 0.189824 -0.250489 -0.100000
v 0.250489 -0.250489 0.100000
v 0.250489 -0.250489 -0.100000
v 0.250489 -0.189824 0.100000
v 0.250489 -0.189824 -0.100000
v 0.189824 -0.189824 0.100000
v 0.189824 -0.189824 -0.100000
vn -0.0000 -0.0000 -1.0000
vn -0.0000 -0.0000 1.0000
vn -0.7071 -0.7071 -0.0000
vn 0.7071 -0.7071 -0.0000
vn 0.7071 0.7071 -0.0000
vn -0.7071 0.7071 -0.0000
vt 0.217391 0.000000
vt 0.304348 0.000000
vt 0.260870 0.000000
vt 0.173913 0.000000
vt 0.391304 0.000000
vt 0.478261 0.000000
vt 0.434783 0.000000
vt 0.347826 0.000000
vt 0.565217 0.000000
vt 0.652174 0.000000
vt 0.608696 0.000000
vt 0.521739 0.000000
vt 0.739130 0.000000
vt 0.826087 0.000000
vt 0.782609 0.000000
vt 0.695652 0.000000
vt 0.913043 0.000000
vt 1.000000 0.000000
vt 0.956522 0.000000
vt 0.869565 0.000000
vt 0.043478 0.000000
vt 0.130435 0.000000
vt 0.086957 0.000000
vt 0.000000 0.000000
vt 0.000000 1.000000
vt 0.250000 1.000000
vt 0.250000 0.000000
vt 0.500000 1.000000
vt 0.500000 0.000000
vt 0.750000 1.000000
vt 0.750000 0.000000
vt 1.000000 1.000000
s 0
f 6/1/1 8/2/1 7/3/1
f 6/1/1 5/4/1 8/2/1
f 10/5/1 12/6/1 11/7/1
f 10/5/1 9/8/1 12/6/1
f 14/9/1 16/10/1 15/11/1
f 14/9/1 13/12/1 16/10/1
f 18/13/1 20/14/1 19/15/1
f 18/13/1 17/16/1 20/14/1
f 22/17/1 24/18/1 23/19/1
f 22/17/1 21/20/1 24/18/1
f 2/21/1 4/22/1 3/23/1
f 2/21/1 1/24/1 4/22/1
f 30/1/2 31/3/2 32/2/2
f 30/1/2 32/2/2 29/4/2
f 34/5/2 35/7/2 36/6/2
f 34/5/2 36/6/2 33/8/2
f 38/9/2 39/11/2 40/10/2
f 38/9/2 40/10/2 37/12/2
f 42/13/2 43/15/2 44/14/2
f 42/13/2 44/14/2 41/16/2
f 46/17/2 47/19/2 48/18/2
f 46/17/2 48/18/2 45/20/2
f 26/21/2 27/23/2 28/22/2
f 26/21/2 28/22/2 25/24/2
s 1
f 50/25/3 52/26/4 51/27/4 49/24/3
f 52/26/4 54/28/5 53/29/5 51/27/4
f 54/28/5 56/30/6 55/31/6 53/29/5
f 56/30/6 50/32/3 49/18/3 55/31/6
f 58/25/3 60/26/4 59/27/4 57/24/3
f 60/26/4 62/28/5 61/29/5 59/27/4
f 62/28/5 64/30/6 63/31/6 61/29/5
f 64/30/6 58/32/3 57/18/3 63/31/6
f 66/25/3 68/26/4 67/27/4 65/24/3
f 68/26/4 70/28/5 69/29/5 67/27/4
f 70/28/5 72/30/6 71/31/6 69/29/5
f 72/30/6 66/32/3 65/18/3 71/31/6
f 74/25/3 76/26/4 75/27/4 73/24/3
f 76/26/4 78/28/5 77/29/5 75/27/4
f 78/28/5 80/30/6 79/31/6 77/29/5
f 80/30/6 74/32/3 73/18/3 79/31/6
f 82/25/3 84/26/4 83/27/4 81/24/3
f 84/26/4 86/28/5 85/29/5 83/27/4
f 86/28/5 88/30/6 87/31/6 85/29/5
f 88/30/6 82/32/3 81/18/3 87/31/6
f 90/25/3 92/26/4 91/27/4 89/24/3
f 92/26/4 94/28/5 93/29/5 91/27/4
f 94/28/5 96/30/6 95/31/6 93/29/5
f 96/30/6 90/32/3 89/18/3 95/31/6
