# Blender 4.1.1
# www.blender.org
o 1
v 0.127202 0.187867 -0.100000
v 0.187867 0.187867 -0.100000
v 0.187867 0.248532 -0.100000
v 0.127202 0.248532 -0.100000
v 0.315068 -0.313112 -0.100000
v 0.375734 -0.313112 -0.100000
v 0.375734 -0.252446 -0.100000
v 0.315068 -0.252446 -0.100000
v 0.252446 -0.313112 -0.100000
v 0.313112 -0.313112 -0.100000
v 0.313112 -0.252446 -0.100000
v 0.252446 -0.252446 -0.100000
v 0.189824 -0.313112 -0.100000
v 0.250489 -0.313112 -0.100000
v 0.250489 -0.252446 -0.100000
v 0.189824 -0.252446 -0.100000
v 0.127202 -0.313112 -0.100000
v 0.187867 -0.313112 -0.100000
v 0.187867 -0.252446 -0.100000
v 0.127202 -0.252446 -0.100000
v 0.064579 -0.313112 -0.100000
v 0.125245 -0.313112 -0.100000
v 0.125245 -0.252446 -0.100000
v 0.064579 -0.252446 -0.100000
v 0.001957 -0.313112 -0.100000
v 0.062622 -0.313112 -0.100000
v 0.062622 -0.252446 -0.100000
v 0.001957 -0.252446 -0.100000
v 0.189824 -0.250489 -0.100000
v 0.250489 -0.250489 -0.100000
v 0.250489 -0.189824 -0.100000
v 0.189824 -0.189824 -0.100000
v 0.127202 -0.250489 -0.100000
v 0.187867 -0.250489 -0.100000
v 0.187867 -0.189824 -0.100000
v 0.127202 -0.189824 -0.100000
v 0.189824 -0.187867 -0.100000
v 0.250489 -0.187867 -0.100000
v 0.250489 -0.127202 -0.100000
v 0.189824 -0.127202 -0.100000
v 0.127202 -0.187867 -0.100000
v 0.187867 -0.187867 -0.100000
v 0.187867 -0.127202 -0.100000
v 0.127202 -0.127202 -0.100000
v 0.189824 -0.125245 -0.100000
v 0.250489 -0.125245 -0.100000
v 0.250489 -0.064579 -0.100000
v 0.189824 -0.064579 -0.100000
v 0.127202 -0.125245 -0.100000
v 0.187867 -0.125245 -0.100000
v 0.187867 -0.064579 -0.100000
v 0.127202 -0.064579 -0.100000
v 0.189824 -0.062622 -0.100000
v 0.250489 -0.062622 -0.100000
v 0.250489 -0.001957 -0.100000
v 0.189824 -0.001957 -0.100000
v 0.127202 -0.062622 -0.100000
v 0.187867 -0.062622 -0.100000
v 0.187867 -0.001957 -0.100000
v 0.127202 -0.001957 -0.100000
v 0.189824 -0.000000 -0.100000
v 0.250489 -0.000000 -0.100000
v 0.250489 0.060665 -0.100000
v 0.189824 0.060665 -0.100000
v 0.127202 -0.000000 -0.100000
v 0.187867 -0.000000 -0.100000
v 0.187867 0.060665 -0.100000
v 0.127202 0.060665 -0.100000
v 0.315068 0.062622 -0.100000
v 0.375734 0.062622 -0.100000
v 0.375734 0.123288 -0.100000
v 0.315068 0.123288 -0.100000
v 0.252446 0.062622 -0.100000
v 0.313112 0.062622 -0.100000
v 0.313112 0.123288 -0.100000
v 0.252446 0.123288 -0.100000
v 0.189824 0.062622 -0.100000
v 0.250489 0.062622 -0.100000
v 0.250489 0.123288 -0.100000
v 0.189824 0.123288 -0.100000
v 0.127202 0.062622 -0.100000
v 0.187867 0.062622 -0.100000
v 0.187867 0.123288 -0.100000
v 0.127202 0.123288 -0.100000
v 0.252446 0.125245 -0.100000
v 0.313112 0.125245 -0.100000
v 0.313112 0.185910 -0.100000
v 0.252446 0.185910 -0.100000
v 0.189824 0.125245 -0.100000
v 0.250489 0.125245 -0.100000
v 0.250489 0.185910 -0.100000
v 0.189824 0.185910 -0.100000
v 0.127202 0.125245 -0.100000
v 0.187867 0.125245 -0.100000
v 0.187867 0.185910 -0.100000
v 0.127202 0.185910 -0.100000
v 0.189824 0.187867 -0.100000
v 0.250489 0.187867 -0.100000
v 0.250489 0.248532 -0.100000
v 0.189824 0.248532 -0.100000
v 0.127202 0.187867 0.100000
v 0.187867 0.187867 0.100000
v 0.187867 0.248532 0.100000
v 0.127202 0.248532 0.100000
v 0.315069 -0.313112 0.100000
v 0.375734 -0.313112 0.100000
v 0.375734 -0.252446 0.100000
v 0.315069 -0.252446 0.100000
v 0.252446 -0.313112 0.100000
v 0.313112 -0.313112 0.100000
v 0.313112 -0.252446 0.100000
v 0.252446 -0.252446 0.100000
v 0.189824 -0.313112 0.100000
v 0.250489 -0.313112 0.100000
v 0.250489 -0.252446 0.100000
v 0.189824 -0.252446 0.100000
v 0.127202 -0.313112 0.100000
v 0.187867 -0.313112 0.100000
v 0.187867 -0.252446 0.100000
v 0.127202 -0.252446 0.100000
v 0.064579 -0.313112 0.100000
v 0.125245 -0.313112 0.100000
v 0.125245 -0.252446 0.100000
v 0.064579 -0.252446 0.100000
v 0.001957 -0.313112 0.100000
v 0.062622 -0.313112 0.100000
v 0.062622 -0.252446 0.100000
v 0.001957 -0.252446 0.100000
v 0.189824 -0.250489 0.100000
v 0.250489 -0.250489 0.100000
v 0.250489 -0.189824 0.100000
v 0.189824 -0.189824 0.100000
v 0.127202 -0.250489 0.100000
v 0.187867 -0.250489 0.100000
v 0.187867 -0.189824 0.100000
v 0.127202 -0.189824 0.100000
v 0.189824 -0.187867 0.100000
v 0.250489 -0.187867 0.100000
v 0.250489 -0.127202 0.100000
v 0.189824 -0.127202 0.100000
v 0.127202 -0.187867 0.100000
v 0.187867 -0.187867 0.100000
v 0.187867 -0.127202 0.100000
v 0.127202 -0.127202 0.100000
v 0.189824 -0.125245 0.100000
v 0.250489 -0.125245 0.100000
v 0.250489 -0.064579 0.100000
v 0.189824 -0.064579 0.100000
v 0.127202 -0.125245 0.100000
v 0.187867 -0.125245 0.100000
v 0.187867 -0.064579 0.100000
v 0.127202 -0.064579 0.100000
v 0.189824 -0.062622 0.100000
v 0.250489 -0.062622 0.100000
v 0.250489 -0.001957 0.100000
v 0.189824 -0.001957 0.100000
v 0.127202 -0.062622 0.100000
v 0.187867 -0.062622 0.100000
v 0.187867 -0.001957 0.100000
v 0.127202 -0.001957 0.100000
v 0.189824 0.000000 0.100000
v 0.250489 0.000000 0.100000
v 0.250489 0.060665 0.100000
v 0.189824 0.060665 0.100000
v 0.127202 0.000000 0.100000
v 0.187867 0.000000 0.100000
v 0.187867 0.060665 0.100000
v 0.127202 0.060665 0.100000
v 0.315069 0.062622 0.100000
v 0.375734 0.062622 0.100000
v 0.375734 0.123288 0.100000
v 0.315069 0.123288 0.100000
v 0.252446 0.062622 0.100000
v 0.313112 0.062622 0.100000
v 0.313112 0.123288 0.100000
v 0.252446 0.123288 0.100000
v 0.189824 0.062622 0.100000
v 0.250489 0.062622 0.100000
v 0.250489 0.123288 0.100000
v 0.189824 0.123288 0.100000
v 0.127202 0.062622 0.100000
v 0.187867 0.062622 0.100000
v 0.187867 0.123288 0.100000
v 0.127202 0.123288 0.100000
v 0.252446 0.125245 0.100000
v 0.313112 0.125245 0.100000
v 0.313112 0.185910 0.100000
v 0.252446 0.185910 0.100000
v 0.189824 0.125245 0.100000
v 0.250489 0.125245 0.100000
v 0.250489 0.185910 0.100000
v 0.189824 0.185910 0.100000
v 0.127202 0.125245 0.100000
v 0.187867 0.125245 0.100000
v 0.187867 0.185910 0.100000
v 0.127202 0.185910 0.100000
v 0.189824 0.187867 0.100000
v 0.250489 0.187867 0.100000
v 0.250489 0.248532 0.100000
v 0.189824 0.248532 0.100000
v 0.315069 -0.313112 0.100000
v 0.315068 -0.313112 -0.100000
v 0.375734 -0.313112 0.100000
v 0.375734 -0.313112 -0.100000
v 0.375734 -0.252446 0.100000
v 0.375734 -0.252446 -0.100000
v 0.315069 -0.252446 0.100000
v 0.315068 -0.252446 -0.100000
v 0.252446 -0.313112 0.100000
v 0.252446 -0.313112 -0.100000
v 0.313112 -0.313112 0.100000
v 0.313112 -0.313112 -0.100000
v 0.313112 -0.252446 0.100000
v 0.313112 -0.252446 -0.100000
v 0.252446 -0.252446 0.100000
v 0.252446 -0.252446 -0.100000
v 0.189824 -0.313112 0.100000
v 0.189824 -0.313112 -0.100000
v 0.250489 -0.313112 0.100000
v 0.250489 -0.313112 -0.100000
v 0.250489 -0.252446 0.100000
v 0.250489 -0.252446 -0.100000
v 0.189824 -0.252446 0.100000
v 0.189824 -0.252446 -0.100000
v 0.127202 -0.313112 0.100000
v 0.127202 -0.313112 -0.100000
v 0.187867 -0.313112 0.100000
v 0.187867 -0.313112 -0.100000
v 0.187867 -0.252446 0.100000
v 0.187867 -0.252446 -0.100000
v 0.127202 -0.252446 0.100000
v 0.127202 -0.252446 -0.100000
v 0.064579 -0.313112 0.100000
v 0.064579 -0.313112 -0.100000
v 0.125245 -0.313112 0.100000
v 0.125245 -0.313112 -0.100000
v 0.125245 -0.252446 0.100000
v 0.125245 -0.252446 -0.100000
v 0.064579 -0.252446 0.100000
v 0.064579 -0.252446 -0.100000
v 0.001957 -0.313112 0.100000
v 0.001957 -0.313112 -0.100000
v 0.062622 -0.313112 0.100000
v 0.062622 -0.313112 -0.100000
v 0.062622 -0.252446 0.100000
v 0.062622 -0.252446 -0.100000
v 0.001957 -0.252446 0.100000
v 0.001957 -0.252446 -0.100000
v 0.189824 -0.250489 0.100000
v 0.189824 -0.250489 -0.100000
v 0.250489 -0.250489 0.100000
v 0.250489 -0.250489 -0.100000
v 0.250489 -0.189824 0.100000
v 0.250489 -0.189824 -0.100000
v 0.189824 -0.189824 0.100000
v 0.189824 -0.189824 -0.100000
v 0.127202 -0.250489 0.100000
v 0.127202 -0.250489 -0.100000
v 0.187867 -0.250489 0.100000
v 0.187867 -0.250489 -0.100000
v 0.187867 -0.189824 0.100000
v 0.187867 -0.189824 -0.100000
v 0.127202 -0.189824 0.100000
v 0.127202 -0.189824 -0.100000
v 0.189824 -0.187867 0.100000
v 0.189824 -0.187867 -0.100000
v 0.250489 -0.187867 0.100000
v 0.250489 -0.187867 -0.100000
v 0.250489 -0.127202 0.100000
v 0.250489 -0.127202 -0.100000
v 0.189824 -0.127202 0.100000
v 0.189824 -0.127202 -0.100000
v 0.127202 -0.187867 0.100000
v 0.127202 -0.187867 -0.100000
v 0.187867 -0.187867 0.100000
v 0.187867 -0.187867 -0.100000
v 0.187867 -0.127202 0.100000
v 0.187867 -0.127202 -0.100000
v 0.127202 -0.127202 0.100000
v 0.127202 -0.127202 -0.100000
v 0.189824 -0.125245 0.100000
v 0.189824 -0.125245 -0.100000
v 0.250489 -0.125245 0.100000
v 0.250489 -0.125245 -0.100000
v 0.250489 -0.064579 0.100000
v 0.250489 -0.064579 -0.100000
v 0.189824 -0.064579 0.100000
v 0.189824 -0.064579 -0.100000
v 0.127202 -0.125245 0.100000
v 0.127202 -0.125245 -0.100000
v 0.187867 -0.125245 0.100000
v 0.187867 -0.125245 -0.100000
v 0.187867 -0.064579 0.100000
v 0.187867 -0.064579 -0.100000
v 0.127202 -0.064579 0.100000
v 0.127202 -0.064579 -0.100000
v 0.189824 -0.062622 0.100000
v 0.189824 -0.062622 -0.100000
v 0.250489 -0.062622 0.100000
v 0.250489 -0.062622 -0.100000
v 0.250489 -0.001957 0.100000
v 0.250489 -0.001957 -0.100000
v 0.189824 -0.001957 0.100000
v 0.189824 -0.001957 -0.100000
v 0.127202 -0.062622 0.100000
v 0.127202 -0.062622 -0.100000
v 0.187867 -0.062622 0.100000
v 0.187867 -0.062622 -0.100000
v 0.187867 -0.001957 0.100000
v 0.187867 -0.001957 -0.100000
v 0.127202 -0.001957 0.100000
v 0.127202 -0.001957 -0.100000
v 0.189824 0.000000 0.100000
v 0.189824 -0.000000 -0.100000
v 0.250489 0.000000 0.100000
v 0.250489 -0.000000 -0.100000
v 0.250489 0.060665 0.100000
v 0.250489 0.060665 -0.100000
v 0.189824 0.060665 0.100000
v 0.189824 0.060665 -0.100000
v 0.127202 0.000000 0.100000
v 0.127202 -0.000000 -0.100000
v 0.187867 0.000000 0.100000
v 0.187867 -0.000000 -0.100000
v 0.187867 0.060665 0.100000
v 0.187867 0.060665 -0.100000
v 0.127202 0.060665 0.100000
v 0.127202 0.060665 -0.100000
v 0.315069 0.062622 0.100000
v 0.315068 0.062622 -0.100000
v 0.375734 0.062622 0.100000
v 0.375734 0.062622 -0.100000
v 0.375734 0.123288 0.100000
v 0.375734 0.123288 -0.100000
v 0.315069 0.123288 0.100000
v 0.315068 0.123288 -0.100000
v 0.252446 0.062622 0.100000
v 0.252446 0.062622 -0.100000
v 0.313112 0.062622 0.100000
v 0.313112 0.062622 -0.100000
v 0.313112 0.123288 0.100000
v 0.313112 0.123288 -0.100000
v 0.252446 0.123288 0.100000
v 0.252446 0.123288 -0.100000
v 0.189824 0.062622 0.100000
v 0.189824 0.062622 -0.100000
v 0.250489 0.062622 0.100000
v 0.250489 0.062622 -0.100000
v 0.250489 0.123288 0.100000
v 0.250489 0.123288 -0.100000
v 0.189824 0.123288 0.100000
v 0.189824 0.123288 -0.100000
v 0.127202 0.062622 0.100000
v 0.127202 0.062622 -0.100000
v 0.187867 0.062622 0.100000
v 0.187867 0.062622 -0.100000
v 0.187867 0.123288 0.100000
v 0.187867 0.123288 -0.100000
v 0.127202 0.123288 0.100000
v 0.127202 0.123288 -0.100000
v 0.252446 0.125245 0.100000
v 0.252446 0.125245 -0.100000
v 0.313112 0.125245 0.100000
v 0.313112 0.125245 -0.100000
v 0.313112 0.185910 0.100000
v 0.313112 0.185910 -0.100000
v 0.252446 0.185910 0.100000
v 0.252446 0.185910 -0.100000
v 0.189824 0.125245 0.100000
v 0.189824 0.125245 -0.100000
v 0.250489 0.125245 0.100000
v 0.250489 0.125245 -0.100000
v 0.250489 0.185910 0.100000
v 0.250489 0.185910 -0.100000
v 0.189824 0.185910 0.100000
v 0.189824 0.185910 -0.100000
v 0.127202 0.125245 0.100000
v 0.127202 0.125245 -0.100000
v 0.187867 0.125245 0.100000
v 0.187867 0.125245 -0.100000
v 0.187867 0.185910 0.100000
v 0.187867 0.185910 -0.100000
v 0.127202 0.185910 0.100000
v 0.127202 0.185910 -0.100000
v 0.189824 0.187867 0.100000
v 0.189824 0.187867 -0.100000
v 0.250489 0.187867 0.100000
v 0.250489 0.187867 -0.100000
v 0.250489 0.248532 0.100000
v 0.250489 0.248532 -0.100000
v 0.189824 0.248532 0.100000
v 0.189824 0.248532 -0.100000
v 0.127202 0.187867 0.100000
v 0.127202 0.187867 -0.100000
v 0.187867 0.187867 0.100000
v 0.187867 0.187867 -0.100000
v 0.187867 0.248532 0.100000
v 0.187867 0.248532 -0.100000
v 0.127202 0.248532 0.100000
v 0.127202 0.248532 -0.100000
vn -0.0000 -0.0000 -1.0000
vn -0.0000 -0.0000 1.0000
vn -0.7071 -0.7071 -0.0000
vn 0.7071 -0.7071 -0.0000
vn 0.7071 0.7071 -0.0000
vn -0.7071 0.7071 -0.0000
vt 0.050505 0.000000
vt 0.070707 0.000000
vt 0.060606 0.000000
vt 0.040404 0.000000
vt 0.090909 0.000000
vt 0.111111 0.000000
vt 0.101010 0.000000
vt 0.080808 0.000000
vt 0.131313 0.000000
vt 0.151515 0.000000
vt 0.141414 0.000000
vt 0.121212 0.000000
vt 0.171717 0.000000
vt 0.191919 0.000000
vt 0.181818 0.000000
vt 0.161616 0.000000
vt 0.212121 0.000000
vt 0.232323 0.000000
vt 0.222222 0.000000
vt 0.202020 0.000000
vt 0.252525 0.000000
vt 0.272727 0.000000
vt 0.262626 0.000000
vt 0.242424 0.000000
vt 0.292929 0.000000
vt 0.313131 0.000000
vt 0.303030 0.000000
vt 0.282828 0.000000
vt 0.333333 0.000000
vt 0.353535 0.000000
vt 0.343434 0.000000
vt 0.323232 0.000000
vt 0.373737 0.000000
vt 0.393939 0.000000
vt 0.383838 0.000000
vt 0.363636 0.000000
vt 0.414141 0.000000
vt 0.434343 0.000000
vt 0.424242 0.000000
vt 0.404040 0.000000
vt 0.454545 0.000000
vt 0.474747 0.000000
vt 0.464646 0.000000
vt 0.444444 0.000000
vt 0.494949 0.000000
vt 0.515152 0.000000
vt 0.505050 0.000000
vt 0.484848 0.000000
vt 0.535354 0.000000
vt 0.555556 0.000000
vt 0.545455 0.000000
vt 0.525253 0.000000
vt 0.575758 0.000000
vt 0.595960 0.000000
vt 0.585859 0.000000
vt 0.565657 0.000000
vt 0.616162 0.000000
vt 0.636364 0.000000
vt 0.626263 0.000000
vt 0.606061 0.000000
vt 0.656566 0.000000
vt 0.676768 0.000000
vt 0.666667 0.000000
vt 0.646465 0.000000
vt 0.696970 0.000000
vt 0.717172 0.000000
vt 0.707071 0.000000
vt 0.686869 0.000000
vt 0.737374 0.000000
vt 0.757576 0.000000
vt 0.747475 0.000000
vt 0.727273 0.000000
vt 0.777778 0.000000
vt 0.797980 0.000000
vt 0.787879 0.000000
vt 0.767677 0.000000
vt 0.818182 0.000000
vt 0.838384 0.000000
vt 0.828283 0.000000
vt 0.808081 0.000000
vt 0.858586 0.000000
vt 0.878788 0.000000
vt 0.868687 0.000000
vt 0.848485 0.000000
vt 0.898990 0.000000
vt 0.919192 0.000000
vt 0.909091 0.000000
vt 0.888889 0.000000
vt 0.939394 0.000000
vt 0.959596 0.000000
vt 0.949495 0.000000
vt 0.929293 0.000000
vt 0.979798 0.000000
vt 1.000000 0.000000
vt 0.989899 0.000000
vt 0.969697 0.000000
vt 0.010101 0.000000
vt 0.030303 0.000000
vt 0.020202 0.000000
vt 0.000000 0.000000
vt 0.000000 1.000000
vt 0.250000 1.000000
vt 0.250000 0.000000
vt 0.500000 1.000000
vt 0.500000 0.000000
vt 0.750000 1.000000
vt 0.750000 0.000000
vt 1.000000 1.000000
s 0
f 6/1/1 8/2/1 7/3/1
f 6/1/1 5/4/1 8/2/1
f 10/5/1 12/6/1 11/7/1
f 10/5/1 9/8/1 12/6/1
f 14/9/1 16/10/1 15/11/1
f 14/9/1 13/12/1 16/10/1
f 18/13/1 20/14/1 19/15/1
f 18/13/1 17/16/1 20/14/1
f 22/17/1 24/18/1 23/19/1
f 22/17/1 21/20/1 24/18/1
f 26/21/1 28/22/1 27/23/1
f 26/21/1 25/24/1 28/22/1
f 30/25/1 32/26/1 31/27/1
f 30/25/1 29/28/1 32/26/1
f 34/29/1 36/30/1 35/31/1
f 34/29/1 33/32/1 36/30/1
f 38/33/1 40/34/1 39/35/1
f 38/33/1 37/36/1 40/34/1
f 42/37/1 44/38/1 43/39/1
f 42/37/1 41/40/1 44/38/1
f 46/41/1 48/42/1 47/43/1
f 46/41/1 45/44/1 48/42/1
f 50/45/1 52/46/1 51/47/1
f 50/45/1 49/48/1 52/46/1
f 54/49/1 56/50/1 55/51/1
f 54/49/1 53/52/1 56/50/1
f 58/53/1 60/54/1 59/55/1
f 58/53/1 57/56/1 60/54/1
f 62/57/1 64/58/1 63/59/1
f 62/57/1 61/60/1 64/58/1
f 66/61/1 68/62/1 67/63/1
f 66/61/1 65/64/1 68/62/1
f 70/65/1 72/66/1 71/67/1
f 70/65/1 69/68/1 72/66/1
f 74/69/1 76/70/1 75/71/1
f 74/69/1 73/72/1 76/70/1
f 78/73/1 80/74/1 79/75/1
f 78/73/1 77/76/1 80/74/1
f 82/77/1 84/78/1 83/79/1
f 82/77/1 81/80/1 84/78/1
f 86/81/1 88/82/1 87/83/1
f 86/81/1 85/84/1 88/82/1
f 90/85/1 92/86/1 91/87/1
f 90/85/1 89/88/1 92/86/1
f 94/89/1 96/90/1 95/91/1
f 94/89/1 93/92/1 96/90/1
f 98/93/1 100/94/1 99/95/1
f 98/93/1 97/96/1 100/94/1
f 2/97/1 4/98/1 3/99/1
f 2/97/1 1/100/1 4/98/1
f 106/1/2 107/3/2 108/2/2
f 106/1/2 108/2/2 105/4/2
f 110/5/2 111/7/2 112/6/2
f 110/5/2 112/6/2 109/8/2
f 114/9/2 115/11/2 116/10/2
f 114/9/2 116/10/2 113/12/2
f 118/13/2 119/15/2 120/14/2
f 118/13/2 120/14/2 117/16/2
f 122/17/2 123/19/2 124/18/2
f 122/17/2 124/18/2 121/20/2
f 126/21/2 127/23/2 128/22/2
f 126/21/2 128/22/2 125/24/2
f 130/25/2 131/27/2 132/26/2
f 130/25/2 132/26/2 129/28/2
f 134/29/2 135/31/2 136/30/2
f 134/29/2 136/30/2 133/32/2
f 138/33/2 139/35/2 140/34/2
f 138/33/2 140/34/2 137/36/2
f 142/37/2 143/39/2 144/38/2
f 142/37/2 144/38/2 141/40/2
f 146/41/2 147/43/2 148/42/2
f 146/41/2 148/42/2 145/44/2
f 150/45/2 151/47/2 152/46/2
f 150/45/2 152/46/2 149/48/2
f 154/49/2 155/51/2 156/50/2
f 154/49/2 156/50/2 153/52/2
f 158/53/2 159/55/2 160/54/2
f 158/53/2 160/54/2 157/56/2
f 162/57/2 163/59/2 164/58/2
f 162/57/2 164/58/2 161/60/2
f 166/61/2 167/63/2 168/62/2
f 166/61/2 168/62/2 165/64/2
f 170/65/2 171/67/2 172/66/2
f 170/65/2 172/66/2 169/68/2
f 174/69/2 175/71/2 176/70/2
f 174/69/2 176/70/2 173/72/2
f 178/73/2 179/75/2 180/74/2
f 178/73/2 180/74/2 177/76/2
f 182/77/2 183/79/2 184/78/2
f 182/77/2 184/78/2 181/80/2
f 186/81/2 187/83/2 188/82/2
f 186/81/2 188/82/2 185/84/2
f 190/85/2 191/87/2 192/86/2
f 190/85/2 192/86/2 189/88/2
f 194/89/2 195/91/2 196/90/2
f 194/89/2 196/90/2 193/92/2
f 198/93/2 199/95/2 200/94/2
f 198/93/2 200/94/2 197/96/2
f 102/97/2 103/99/2 104/98/2
f 102/97/2 104/98/2 101/100/2
s 1
f 202/101/3 204/102/4 203/103/4 201/100/3
f 204/102/4 206/104/5 205/105/5 203/103/4
f 206/104/5 208/106/6 207/107/6 205/105/5
f 208/106/6 202/108/3 201/94/3 207/107/6
f 210/101/3 212/102/4 211/103/4 209/100/3
f 212/102/4 214/104/5 213/105/5 211/103/4
f 214/104/5 216/106/6 215/107/6 213/105/5
f 216/106/6 210/108/3 209/94/3 215/107/6
f 218/101/3 220/102/4 219/103/4 217/100/3
f 220/102/4 222/104/5 221/105/5 219/103/4
f 222/104/5 224/106/6 223/107/6 221/105/5
f 224/106/6 218/108/3 217/94/3 223/107/6
f 226/101/3 228/102/4 227/103/4 225/100/3
f 228/102/4 230/104/5 229/105/5 227/103/4
f 230/104/5 232/106/6 231/107/6 229/105/5
f 232/106/6 226/108/3 225/94/3 231/107/6
f 234/101/3 236/102/4 235/103/4 233/100/3
f 236/102/4 238/104/5 237/105/5 235/103/4
f 238/104/5 240/106/6 239/107/6 237/105/5
f 240/106/6 234/108/3 233/94/3 239/107/6
f 242/101/3 244/102/4 243/103/4 241/100/3
f 244/102/4 246/104/5 245/105/5 243/103/4
f 246/104/5 248/106/6 247/107/6 245/105/5
f 248/106/6 242/108/3 241/94/3 247/107/6
f 250/101/3 252/102/4 251/103/4 249/100/3
f 252/102/4 254/104/5 253/105/5 251/103/4
f 254/104/5 256/106/6 255/107/6 253/105/5
f 256/106/6 250/108/3 249/94/3 255/107/6
f 258/101/3 260/102/4 259/103/4 257/100/3
f 260/102/4 262/104/5 261/105/5 259/103/4
f 262/104/5 264/106/6 263/107/6 261/105/5
f 264/106/6 258/108/3 257/94/3 263/107/6
f 266/101/3 268/102/4 267/103/4 265/100/3
f 268/102/4 270/104/5 269/105/5 267/103/4
f 270/104/5 272/106/6 271/107/6 269/105/5
f 272/106/6 266/108/3 265/94/3 271/107/6
f 274/101/3 276/102/4 275/103/4 273/100/3
f 276/102/4 278/104/5 277/105/5 275/103/4
f 278/104/5 280/106/6 279/107/6 277/105/5
f 280/106/6 274/108/3 273/94/3 279/107/6
f 282/101/3 284/102/4 283/103/4 281/100/3
f 284/102/4 286/104/5 285/105/5 283/103/4
f 286/104/5 288/106/6 287/107/6 285/105/5
f 288/106/6 282/108/3 281/94/3 287/107/6
f 290/101/3 292/102/4 291/103/4 289/100/3
f 292/102/4 294/104/5 293/105/5 291/103/4
f 294/104/5 296/106/6 295/107/6 293/105/5
f 296/106/6 290/108/3 289/94/3 295/107/6
f 298/101/3 300/102/4 299/103/4 297/100/3
f 300/102/4 302/104/5 301/105/5 299/103/4
f 302/104/5 304/106/6 303/107/6 301/105/5
f 304/106/6 298/108/3 297/94/3 303/107/6
f 306/101/3 308/102/4 307/103/4 305/100/3
f 308/102/4 310/104/5 309/105/5 307/103/4
f 310/104/5 312/106/6 311/107/6 309/105/5
f 312/106/6 306/108/3 305/94/3 311/107/6
f 314/101/3 316/102/4 315/103/4 313/100/3
f 316/102/4 318/104/5 317/105/5 315/103/4
f 318/104/5 320/106/6 319/107/6 317/105/5
f 320/106/6 314/108/3 313/94/3 319/107/6
f 322/101/3 324/102/4 323/103/4 321/100/3
f 324/102/4 326/104/5 325/105/5 323/103/4
f 326/104/5 328/106/6 327/107/6 325/105/5
f 328/106/6 322/108/3 321/94/3 327/107/6
f 330/101/3 332/102/4 331/103/4 329/100/3
f 332/102/4 334/104/5 333/105/5 331/103/4
f 334/104/5 336/106/6 335/107/6 333/105/5
f 336/106/6 330/108/3 329/94/3 335/107/6
f 338/101/3 340/102/4 339/103/4 337/100/3
f 340/102/4 342/104/5 341/105/5 339/103/4
f 342/104/5 344/106/6 343/107/6 341/105/5
f 344/106/6 338/108/3 337/94/3 343/107/6
f 346/101/3 348/102/4 347/103/4 345/100/3
f 348/102/4 350/104/5 349/105/5 347/103/4
f 350/104/5 352/106/6 351/107/6 349/105/5
f 352/106/6 346/108/3 345/94/3 351/107/6
f 354/101/3 356/102/4 355/103/4 353/100/3
f 356/102/4 358/104/5 357/105/5 355/103/4
f 358/104/5 360/106/6 359/107/6 357/105/5
f 360/106/6 354/108/3 353/94/3 359/107/6
f 362/101/3 364/102/4 363/103/4 361/100/3
f 364/102/4 366/104/5 365/105/5 363/103/4
f 366/104/5 368/106/6 367/107/6 365/105/5
f 368/106/6 362/108/3 361/94/3 367/107/6
f 370/101/3 372/102/4 371/103/4 369/100/3
f 372/102/4 374/104/5 373/105/5 371/103/4
f 374/104/5 376/106/6 375/107/6 373/105/5
f 376/106/6 370/108/3 369/94/3 375/107/6
f 378/101/3 380/102/4 379/103/4 377/100/3
f 380/102/4 382/104/5 381/105/5 379/103/4
f 382/104/5 384/106/6 383/107/6 381/105/5
f 384/106/6 378/108/3 377/94/3 383/107/6
f 386/101/3 388/102/4 387/103/4 385/100/3
f 388/102/4 390/104/5 389/105/5 387/103/4
f 390/104/5 392/106/6 391/107/6 389/105/5
f 392/106/6 386/108/3 385/94/3 391/107/6
f 394/101/3 396/102/4 395/103/4 393/100/3
f 396/102/4 398/104/5 397/105/5 395/103/4
f 398/104/5 400/106/6 399/107/6 397/105/5
f 400/106/6 394/108/3 393/94/3 399/107/6
