# Blender 4.1.1
# www.blender.org
o 5
v 0.001957 0.187867 -0.100000
v 0.062622 0.187867 -0.100000
v 0.062622 0.248532 -0.100000
v 0.001957 0.248532 -0.100000
v 0.252446 -0.313112 -0.100000
v 0.313112 -0.313112 -0.100000
v 0.313112 -0.252446 -0.100000
v 0.252446 -0.252446 -0.100000
v 0.189824 -0.313112 -0.100000
v 0.250489 -0.313112 -0.100000
v 0.250489 -0.252446 -0.100000
v 0.189824 -0.252446 -0.100000
v 0.127202 -0.313112 -0.100000
v 0.187867 -0.313112 -0.100000
v 0.187867 -0.252446 -0.100000
v 0.127202 -0.252446 -0.100000
v 0.064579 -0.313112 -0.100000
v 0.125245 -0.313112 -0.100000
v 0.125245 -0.252446 -0.100000
v 0.064579 -0.252446 -0.100000
v 0.315068 -0.250489 -0.100000
v 0.375734 -0.250489 -0.100000
v 0.375734 -0.189824 -0.100000
v 0.315068 -0.189824 -0.100000
v 0.252446 -0.250489 -0.100000
v 0.313112 -0.250489 -0.100000
v 0.313112 -0.189824 -0.100000
v 0.252446 -0.189824 -0.100000
v 0.064579 -0.250489 -0.100000
v 0.125245 -0.250489 -0.100000
v 0.125245 -0.189824 -0.100000
v 0.064579 -0.189824 -0.100000
v 0.001957 -0.250489 -0.100000
v 0.062622 -0.250489 -0.100000
v 0.062622 -0.189824 -0.100000
v 0.001957 -0.189824 -0.100000
v 0.064579 -0.187867 -0.100000
v 0.125245 -0.187867 -0.100000
v 0.125245 -0.127202 -0.100000
v 0.064579 -0.127202 -0.100000
v 0.001957 -0.187867 -0.100000
v 0.062622 -0.187867 -0.100000
v 0.062622 -0.127202 -0.100000
v 0.001957 -0.127202 -0.100000
v 0.064579 -0.125245 -0.100000
v 0.125245 -0.125245 -0.100000
v 0.125245 -0.064579 -0.100000
v 0.064579 -0.064579 -0.100000
v 0.001957 -0.125245 -0.100000
v 0.062622 -0.125245 -0.100000
v 0.062622 -0.064579 -0.100000
v 0.001957 -0.064579 -0.100000
v 0.315068 -0.062622 -0.100000
v 0.375734 -0.062622 -0.100000
v 0.375734 -0.001957 -0.100000
v 0.315068 -0.001957 -0.100000
v 0.252446 -0.062622 -0.100000
v 0.313112 -0.062622 -0.100000
v 0.313112 -0.001957 -0.100000
v 0.252446 -0.001957 -0.100000
v 0.189824 -0.062622 -0.100000
v 0.250489 -0.062622 -0.100000
v 0.250489 -0.001957 -0.100000
v 0.189824 -0.001957 -0.100000
v 0.127202 -0.062622 -0.100000
v 0.187867 -0.062622 -0.100000
v 0.187867 -0.001957 -0.100000
v 0.127202 -0.001957 -0.100000
v 0.064579 -0.062622 -0.100000
v 0.125245 -0.062622 -0.100000
v 0.125245 -0.001957 -0.100000
v 0.064579 -0.001957 -0.100000
v 0.315068 -0.000000 -0.100000
v 0.375734 -0.000000 -0.100000
v 0.375734 0.060665 -0.100000
v 0.315068 0.060665 -0.100000
v 0.252446 -0.000000 -0.100000
v 0.313112 -0.000000 -0.100000
v 0.313112 0.060665 -0.100000
v 0.252446 0.060665 -0.100000
v 0.315068 0.062622 -0.100000
v 0.375734 0.062622 -0.100000
v 0.375734 0.123288 -0.100000
v 0.315068 0.123288 -0.100000
v 0.252446 0.062622 -0.100000
v 0.313112 0.062622 -0.100000
v 0.313112 0.123288 -0.100000
v 0.252446 0.123288 -0.100000
v 0.315068 0.125245 -0.100000
v 0.375734 0.125245 -0.100000
v 0.375734 0.185910 -0.100000
v 0.315068 0.185910 -0.100000
v 0.252446 0.125245 -0.100000
v 0.313112 0.125245 -0.100000
v 0.313112 0.185910 -0.100000
v 0.252446 0.185910 -0.100000
v 0.315068 0.187867 -0.100000
v 0.375734 0.187867 -0.100000
v 0.375734 0.248532 -0.100000
v 0.315068 0.248532 -0.100000
v 0.252446 0.187867 -0.100000
v 0.313112 0.187867 -0.100000
v 0.313112 0.248532 -0.100000
v 0.252446 0.248532 -0.100000
v 0.189824 0.187867 -0.100000
v 0.250489 0.187867 -0.100000
v 0.250489 0.248532 -0.100000
v 0.189824 0.248532 -0.100000
v 0.127202 0.187867 -0.100000
v 0.187867 0.187867 -0.100000
v 0.187867 0.248532 -0.100000
v 0.127202 0.248532 -0.100000
v 0.064579 0.187867 -0.100000
v 0.125245 0.187867 -0.100000
v 0.125245 0.248532 -0.100000
v 0.064579 0.248532 -0.100000
v 0.001957 0.187867 0.100000
v 0.062622 0.187867 0.100000
v 0.062622 0.248532 0.100000
v 0.001957 0.248532 0.100000
v 0.252446 -0.313112 0.100000
v 0.313112 -0.313112 0.100000
v 0.313112 -0.252446 0.100000
v 0.252446 -0.252446 0.100000
v 0.189824 -0.313112 0.100000
v 0.250489 -0.313112 0.100000
v 0.250489 -0.252446 0.100000
v 0.189824 -0.252446 0.100000
v 0.127202 -0.313112 0.100000
v 0.187867 -0.313112 0.100000
v 0.187867 -0.252446 0.100000
v 0.127202 -0.252446 0.100000
v 0.064579 -0.313112 0.100000
v 0.125245 -0.313112 0.100000
v 0.125245 -0.252446 0.100000
v 0.064579 -0.252446 0.100000
v 0.315069 -0.250489 0.100000
v 0.375734 -0.250489 0.100000
v 0.375734 -0.189824 0.100000
v 0.315069 -0.189824 0.100000
v 0.252446 -0.250489 0.100000
v 0.313112 -0.250489 0.100000
v 0.313112 -0.189824 0.100000
v 0.252446 -0.189824 0.100000
v 0.064579 -0.250489 0.100000
v 0.125245 -0.250489 0.100000
v 0.125245 -0.189824 0.100000
v 0.064579 -0.189824 0.100000
v 0.001957 -0.250489 0.100000
v 0.062622 -0.250489 0.100000
v 0.062622 -0.189824 0.100000
v 0.001957 -0.189824 0.100000
v 0.064579 -0.187867 0.100000
v 0.125245 -0.187867 0.100000
v 0.125245 -0.127202 0.100000
v 0.064579 -0.127202 0.100000
v 0.001957 -0.187867 0.100000
v 0.062622 -0.187867 0.100000
v 0.062622 -0.127202 0.100000
v 0.001957 -0.127202 0.100000
v 0.064579 -0.125245 0.100000
v 0.125245 -0.125245 0.100000
v 0.125245 -0.064579 0.100000
v 0.064579 -0.064579 0.100000
v 0.001957 -0.125245 0.100000
v 0.062622 -0.125245 0.100000
v 0.062622 -0.064579 0.100000
v 0.001957 -0.064579 0.100000
v 0.315069 -0.062622 0.100000
v 0.375734 -0.062622 0.100000
v 0.375734 -0.001957 0.100000
v 0.315069 -0.001957 0.100000
v 0.252446 -0.062622 0.100000
v 0.313112 -0.062622 0.100000
v 0.313112 -0.001957 0.100000
v 0.252446 -0.001957 0.100000
v 0.189824 -0.062622 0.100000
v 0.250489 -0.062622 0.100000
v 0.250489 -0.001957 0.100000
v 0.189824 -0.001957 0.100000
v 0.127202 -0.062622 0.100000
v 0.187867 -0.062622 0.100000
v 0.187867 -0.001957 0.100000
v 0.127202 -0.001957 0.100000
v 0.064579 -0.062622 0.100000
v 0.125245 -0.062622 0.100000
v 0.125245 -0.001957 0.100000
v 0.064579 -0.001957 0.100000
v 0.315069 0.000000 0.100000
v 0.375734 0.000000 0.100000
v 0.375734 0.060665 0.100000
v 0.315069 0.060665 0.100000
v 0.252446 0.000000 0.100000
v 0.313112 0.000000 0.100000
v 0.313112 0.060665 0.100000
v 0.252446 0.060665 0.100000
v 0.315069 0.062622 0.100000
v 0.375734 0.062622 0.100000
v 0.375734 0.123288 0.100000
v 0.315069 0.123288 0.100000
v 0.252446 0.062622 0.100000
v 0.313112 0.062622 0.100000
v 0.313112 0.123288 0.100000
v 0.252446 0.123288 0.100000
v 0.315069 0.125245 0.100000
v 0.375734 0.125245 0.100000
v 0.375734 0.185910 0.100000
v 0.315069 0.185910 0.100000
v 0.252446 0.125245 0.100000
v 0.313112 0.125245 0.100000
v 0.313112 0.185910 0.100000
v 0.252446 0.185910 0.100000
v 0.315069 0.187867 0.100000
v 0.375734 0.187867 0.100000
v 0.375734 0.248532 0.100000
v 0.315069 0.248532 0.100000
v 0.252446 0.187867 0.100000
v 0.313112 0.187867 0.100000
v 0.313112 0.248532 0.100000
v 0.252446 0.248532 0.100000
v 0.189824 0.187867 0.100000
v 0.250489 0.187867 0.100000
v 0.250489 0.248532 0.100000
v 0.189824 0.248532 0.100000
v 0.127202 0.187867 0.100000
v 0.187867 0.187867 0.100000
v 0.187867 0.248532 0.100000
v 0.127202 0.248532 0.100000
v 0.064579 0.187867 0.100000
v 0.125245 0.187867 0.100000
v 0.125245 0.248532 0.100000
v 0.064579 0.248532 0.100000
v 0.252446 -0.313112 0.100000
v 0.252446 -0.313112 -0.100000
v 0.313112 -0.313112 0.100000
v 0.313112 -0.313112 -0.100000
v 0.313112 -0.252446 0.100000
v 0.313112 -0.252446 -0.100000
v 0.252446 -0.252446 0.100000
v 0.252446 -0.252446 -0.100000
v 0.189824 -0.313112 0.100000
v 0.189824 -0.313112 -0.100000
v 0.250489 -0.313112 0.100000
v 0.250489 -0.313112 -0.100000
v 0.250489 -0.252446 0.100000
v 0.250489 -0.252446 -0.100000
v 0.189824 -0.252446 0.100000
v 0.189824 -0.252446 -0.100000
v 0.127202 -0.313112 0.100000
v 0.127202 -0.313112 -0.100000
v 0.187867 -0.313112 0.100000
v 0.187867 -0.313112 -0.100000
v 0.187867 -0.252446 0.100000
v 0.187867 -0.252446 -0.100000
v 0.127202 -0.252446 0.100000
v 0.127202 -0.252446 -0.100000
v 0.064579 -0.313112 0.100000
v 0.064579 -0.313112 -0.100000
v 0.125245 -0.313112 0.100000
v 0.125245 -0.313112 -0.100000
v 0.125245 -0.252446 0.100000
v 0.125245 -0.252446 -0.100000
v 0.064579 -0.252446 0.100000
v 0.064579 -0.252446 -0.100000
v 0.315069 -0.250489 0.100000
v 0.315068 -0.250489 -0.100000
v 0.375734 -0.250489 0.100000
v 0.375734 -0.250489 -0.100000
v 0.375734 -0.189824 0.100000
v 0.375734 -0.189824 -0.100000
v 0.315069 -0.189824 0.100000
v 0.315068 -0.189824 -0.100000
v 0.252446 -0.250489 0.100000
v 0.252446 -0.250489 -0.100000
v 0.313112 -0.250489 0.100000
v 0.313112 -0.250489 -0.100000
v 0.313112 -0.189824 0.100000
v 0.313112 -0.189824 -0.100000
v 0.252446 -0.189824 0.100000
v 0.252446 -0.189824 -0.100000
v 0.064579 -0.250489 0.100000
v 0.064579 -0.250489 -0.100000
v 0.125245 -0.250489 0.100000
v 0.125245 -0.250489 -0.100000
v 0.125245 -0.189824 0.100000
v 0.125245 -0.189824 -0.100000
v 0.064579 -0.189824 0.100000
v 0.064579 -0.189824 -0.100000
v 0.001957 -0.250489 0.100000
v 0.001957 -0.250489 -0.100000
v 0.062622 -0.250489 0.100000
v 0.062622 -0.250489 -0.100000
v 0.062622 -0.189824 0.100000
v 0.062622 -0.189824 -0.100000
v 0.001957 -0.189824 0.100000
v 0.001957 -0.189824 -0.100000
v 0.064579 -0.187867 0.100000
v 0.064579 -0.187867 -0.100000
v 0.125245 -0.187867 0.100000
v 0.125245 -0.187867 -0.100000
v 0.125245 -0.127202 0.100000
v 0.125245 -0.127202 -0.100000
v 0.064579 -0.127202 0.100000
v 0.064579 -0.127202 -0.100000
v 0.001957 -0.187867 0.100000
v 0.001957 -0.187867 -0.100000
v 0.062622 -0.187867 0.100000
v 0.062622 -0.187867 -0.100000
v 0.062622 -0.127202 0.100000
v 0.062622 -0.127202 -0.100000
v 0.001957 -0.127202 0.100000
v 0.001957 -0.127202 -0.100000
v 0.064579 -0.125245 0.100000
v 0.064579 -0.125245 -0.100000
v 0.125245 -0.125245 0.100000
v 0.125245 -0.125245 -0.100000
v 0.125245 -0.064579 0.100000
v 0.125245 -0.064579 -0.100000
v 0.064579 -0.064579 0.100000
v 0.064579 -0.064579 -0.100000
v 0.001957 -0.125245 0.100000
v 0.001957 -0.125245 -0.100000
v 0.062622 -0.125245 0.100000
v 0.062622 -0.125245 -0.100000
v 0.062622 -0.064579 0.100000
v 0.062622 -0.064579 -0.100000
v 0.001957 -0.064579 0.100000
v 0.001957 -0.064579 -0.100000
v 0.315069 -0.062622 0.100000
v 0.315068 -0.062622 -0.100000
v 0.375734 -0.062622 0.100000
v 0.375734 -0.062622 -0.100000
v 0.375734 -0.001957 0.100000
v 0.375734 -0.001957 -0.100000
v 0.315069 -0.001957 0.100000
v 0.315068 -0.001957 -0.100000
v 0.252446 -0.062622 0.100000
v 0.252446 -0.062622 -0.100000
v 0.313112 -0.062622 0.100000
v 0.313112 -0.062622 -0.100000
v 0.313112 -0.001957 0.100000
v 0.313112 -0.001957 -0.100000
v 0.252446 -0.001957 0.100000
v 0.252446 -0.001957 -0.100000
v 0.189824 -0.062622 0.100000
v 0.189824 -0.062622 -0.100000
v 0.250489 -0.062622 0.100000
v 0.250489 -0.062622 -0.100000
v 0.250489 -0.001957 0.100000
v 0.250489 -0.001957 -0.100000
v 0.189824 -0.001957 0.100000
v 0.189824 -0.001957 -0.100000
v 0.127202 -0.062622 0.100000
v 0.127202 -0.062622 -0.100000
v 0.187867 -0.062622 0.100000
v 0.187867 -0.062622 -0.100000
v 0.187867 -0.001957 0.100000
v 0.187867 -0.001957 -0.100000
v 0.127202 -0.001957 0.100000
v 0.127202 -0.001957 -0.100000
v 0.064579 -0.062622 0.100000
v 0.064579 -0.062622 -0.100000
v 0.125245 -0.062622 0.100000
v 0.125245 -0.062622 -0.100000
v 0.125245 -0.001957 0.100000
v 0.125245 -0.001957 -0.100000
v 0.064579 -0.001957 0.100000
v 0.064579 -0.001957 -0.100000
v 0.315069 0.000000 0.100000
v 0.315068 -0.000000 -0.100000
v 0.375734 0.000000 0.100000
v 0.375734 -0.000000 -0.100000
v 0.375734 0.060665 0.100000
v 0.375734 0.060665 -0.100000
v 0.315069 0.060665 0.100000
v 0.315068 0.060665 -0.100000
v 0.252446 0.000000 0.100000
v 0.252446 -0.000000 -0.100000
v 0.313112 0.000000 0.100000
v 0.313112 -0.000000 -0.100000
v 0.313112 0.060665 0.100000
v 0.313112 0.060665 -0.100000
v 0.252446 0.060665 0.100000
v 0.252446 0.060665 -0.100000
v 0.315069 0.062622 0.100000
v 0.315068 0.062622 -0.100000
v 0.375734 0.062622 0.100000
v 0.375734 0.062622 -0.100000
v 0.375734 0.123288 0.100000
v 0.375734 0.123288 -0.100000
v 0.315069 0.123288 0.100000
v 0.315068 0.123288 -0.100000
v 0.252446 0.062622 0.100000
v 0.252446 0.062622 -0.100000
v 0.313112 0.062622 0.100000
v 0.313112 0.062622 -0.100000
v 0.313112 0.123288 0.100000
v 0.313112 0.123288 -0.100000
v 0.252446 0.123288 0.100000
v 0.252446 0.123288 -0.100000
v 0.315069 0.125245 0.100000
v 0.315068 0.125245 -0.100000
v 0.375734 0.125245 0.100000
v 0.375734 0.125245 -0.100000
v 0.375734 0.185910 0.100000
v 0.375734 0.185910 -0.100000
v 0.315069 0.185910 0.100000
v 0.315068 0.185910 -0.100000
v 0.252446 0.125245 0.100000
v 0.252446 0.125245 -0.100000
v 0.313112 0.125245 0.100000
v 0.313112 0.125245 -0.100000
v 0.313112 0.185910 0.100000
v 0.313112 0.185910 -0.100000
v 0.252446 0.185910 0.100000
v 0.252446 0.185910 -0.100000
v 0.315069 0.187867 0.100000
v 0.315068 0.187867 -0.100000
v 0.375734 0.187867 0.100000
v 0.375734 0.187867 -0.100000
v 0.375734 0.248532 0.100000
v 0.375734 0.248532 -0.100000
v 0.315069 0.248532 0.100000
v 0.315068 0.248532 -0.100000
v 0.252446 0.187867 0.100000
v 0.252446 0.187867 -0.100000
v 0.313112 0.187867 0.100000
v 0.313112 0.187867 -0.100000
v 0.313112 0.248532 0.100000
v 0.313112 0.248532 -0.100000
v 0.252446 0.248532 0.100000
v 0.252446 0.248532 -0.100000
v 0.189824 0.187867 0.100000
v 0.189824 0.187867 -0.100000
v 0.250489 0.187867 0.100000
v 0.250489 0.187867 -0.100000
v 0.250489 0.248532 0.100000
v 0.250489 0.248532 -0.100000
v 0.189824 0.248532 0.100000
v 0.189824 0.248532 -0.100000
v 0.127202 0.187867 0.100000
v 0.127202 0.187867 -0.100000
v 0.187867 0.187867 0.100000
v 0.187867 0.187867 -0.100000
v 0.187867 0.248532 0.100000
v 0.187867 0.248532 -0.100000
v 0.127202 0.248532 0.100000
v 0.127202 0.248532 -0.100000
v 0.064579 0.187867 0.100000
v 0.064579 0.187867 -0.100000
v 0.125245 0.187867 0.100000
v 0.125245 0.187867 -0.100000
v 0.125245 0.248532 0.100000
v 0.125245 0.248532 -0.100000
v 0.064579 0.248532 0.100000
v 0.064579 0.248532 -0.100000
v 0.001957 0.187867 0.100000
v 0.001957 0.187867 -0.100000
v 0.062622 0.187867 0.100000
v 0.062622 0.187867 -0.100000
v 0.062622 0.248532 0.100000
v 0.062622 0.248532 -0.100000
v 0.001957 0.248532 0.100000
v 0.001957 0.248532 -0.100000
vn -0.0000 -0.0000 -1.0000
vn -0.0000 -0.0000 1.0000
vn -0.7071 -0.7071 -0.0000
vn 0.7071 -0.7071 -0.0000
vn 0.7071 0.7071 -0.0000
vn -0.7071 0.7071 -0.0000
vt 0.043478 0.000000
vt 0.060870 0.000000
vt 0.052174 0.000000
vt 0.034783 0.000000
vt 0.078261 0.000000
vt 0.095652 0.000000
vt 0.086957 0.000000
vt 0.069565 0.000000
vt 0.113043 0.000000
vt 0.130435 0.000000
vt 0.121739 0.000000
vt 0.104348 0.000000
vt 0.147826 0.000000
vt 0.165217 0.000000
vt 0.156522 0.000000
vt 0.139130 0.000000
vt 0.182609 0.000000
vt 0.200000 0.000000
vt 0.191304 0.000000
vt 0.173913 0.000000
vt 0.217391 0.000000
vt 0.234783 0.000000
vt 0.226087 0.000000
vt 0.208696 0.000000
vt 0.252174 0.000000
vt 0.269565 0.000000
vt 0.260870 0.000000
vt 0.243478 0.000000
vt 0.286957 0.000000
vt 0.304348 0.000000
vt 0.295652 0.000000
vt 0.278261 0.000000
vt 0.321739 0.000000
vt 0.339130 0.000000
vt 0.330435 0.000000
vt 0.313043 0.000000
vt 0.356522 0.000000
vt 0.373913 0.000000
vt 0.365217 0.000000
vt 0.347826 0.000000
vt 0.391304 0.000000
vt 0.408696 0.000000
vt 0.400000 0.000000
vt 0.382609 0.000000
vt 0.426087 0.000000
vt 0.443478 0.000000
vt 0.434783 0.000000
vt 0.417391 0.000000
vt 0.460870 0.000000
vt 0.478261 0.000000
vt 0.469565 0.000000
vt 0.452174 0.000000
vt 0.495652 0.000000
vt 0.513043 0.000000
vt 0.504348 0.000000
vt 0.486957 0.000000
vt 0.530435 0.000000
vt 0.547826 0.000000
vt 0.539130 0.000000
vt 0.521739 0.000000
vt 0.565217 0.000000
vt 0.582609 0.000000
vt 0.573913 0.000000
vt 0.556522 0.000000
vt 0.600000 0.000000
vt 0.617391 0.000000
vt 0.608696 0.000000
vt 0.591304 0.000000
vt 0.634783 0.000000
vt 0.652174 0.000000
vt 0.643478 0.000000
vt 0.626087 0.000000
vt 0.669565 0.000000
vt 0.686957 0.000000
vt 0.678261 0.000000
vt 0.660870 0.000000
vt 0.704348 0.000000
vt 0.721739 0.000000
vt 0.713043 0.000000
vt 0.695652 0.000000
vt 0.739130 0.000000
vt 0.756522 0.000000
vt 0.747826 0.000000
vt 0.730435 0.000000
vt 0.773913 0.000000
vt 0.791304 0.000000
vt 0.782609 0.000000
vt 0.765217 0.000000
vt 0.808696 0.000000
vt 0.826087 0.000000
vt 0.817391 0.000000
vt 0.800000 0.000000
vt 0.843478 0.000000
vt 0.860870 0.000000
vt 0.852174 0.000000
vt 0.834783 0.000000
vt 0.878261 0.000000
vt 0.895652 0.000000
vt 0.886957 0.000000
vt 0.869565 0.000000
vt 0.913043 0.000000
vt 0.930435 0.000000
vt 0.921739 0.000000
vt 0.904348 0.000000
vt 0.947826 0.000000
vt 0.965217 0.000000
vt 0.956522 0.000000
vt 0.939130 0.000000
vt 0.982609 0.000000
vt 1.000000 0.000000
vt 0.991304 0.000000
vt 0.973913 0.000000
vt 0.008696 0.000000
vt 0.026087 0.000000
vt 0.017391 0.000000
vt 0.000000 0.000000
vt 0.000000 1.000000
vt 0.250000 1.000000
vt 0.250000 0.000000
vt 0.500000 1.000000
vt 0.500000 0.000000
vt 0.750000 1.000000
vt 0.750000 0.000000
vt 1.000000 1.000000
s 0
f 6/1/1 8/2/1 7/3/1
f 6/1/1 5/4/1 8/2/1
f 10/5/1 12/6/1 11/7/1
f 10/5/1 9/8/1 12/6/1
f 14/9/1 16/10/1 15/11/1
f 14/9/1 13/12/1 16/10/1
f 18/13/1 20/14/1 19/15/1
f 18/13/1 17/16/1 20/14/1
f 22/17/1 24/18/1 23/19/1
f 22/17/1 21/20/1 24/18/1
f 26/21/1 28/22/1 27/23/1
f 26/21/1 25/24/1 28/22/1
f 30/25/1 32/26/1 31/27/1
f 30/25/1 29/28/1 32/26/1
f 34/29/1 36/30/1 35/31/1
f 34/29/1 33/32/1 36/30/1
f 38/33/1 40/34/1 39/35/1
f 38/33/1 37/36/1 40/34/1
f 42/37/1 44/38/1 43/39/1
f 42/37/1 41/40/1 44/38/1
f 46/41/1 48/42/1 47/43/1
f 46/41/1 45/44/1 48/42/1
f 50/45/1 52/46/1 51/47/1
f 50/45/1 49/48/1 52/46/1
f 54/49/1 56/50/1 55/51/1
f 54/49/1 53/52/1 56/50/1
f 58/53/1 60/54/1 59/55/1
f 58/53/1 57/56/1 60/54/1
f 62/57/1 64/58/1 63/59/1
f 62/57/1 61/60/1 64/58/1
f 66/61/1 68/62/1 67/63/1
f 66/61/1 65/64/1 68/62/1
f 70/65/1 72/66/1 71/67/1
f 70/65/1 69/68/1 72/66/1
f 74/69/1 76/70/1 75/71/1
f 74/69/1 73/72/1 76/70/1
f 78/73/1 80/74/1 79/75/1
f 78/73/1 77/76/1 80/74/1
f 82/77/1 84/78/1 83/79/1
f 82/77/1 81/80/1 84/78/1
f 86/81/1 88/82/1 87/83/1
f 86/81/1 85/84/1 88/82/1
f 90/85/1 92/86/1 91/87/1
f 90/85/1 89/88/1 92/86/1
f 94/89/1 96/90/1 95/91/1
f 94/89/1 93/92/1 96/90/1
f 98/93/1 100/94/1 99/95/1
f 98/93/1 97/96/1 100/94/1
f 102/97/1 104/98/1 103/99/1
f 102/97/1 101/100/1 104/98/1
f 106/101/1 108/102/1 107/103/1
f 106/101/1 105/104/1 108/102/1
f 110/105/1 112/106/1 111/107/1
f 110/105/1 109/108/1 112/106/1
f 114/109/1 116/110/1 115/111/1
f 114/109/1 113/112/1 116/110/1
f 2/113/1 4/114/1 3/115/1
f 2/113/1 1/116/1 4/114/1
f 122/1/2 123/3/2 124/2/2
f 122/1/2 124/2/2 121/4/2
f 126/5/2 127/7/2 128/6/2
f 126/5/2 128/6/2 125/8/2
f 130/9/2 131/11/2 132/10/2
f 130/9/2 132/10/2 129/12/2
f 134/13/2 135/15/2 136/14/2
f 134/13/2 136/14/2 133/16/2
f 138/17/2 139/19/2 140/18/2
f 138/17/2 140/18/2 137/20/2
f 142/21/2 143/23/2 144/22/2
f 142/21/2 144/22/2 141/24/2
f 146/25/2 147/27/2 148/26/2
f 146/25/2 148/26/2 145/28/2
f 150/29/2 151/31/2 152/30/2
f 150/29/2 152/30/2 149/32/2
f 154/33/2 155/35/2 156/34/2
f 154/33/2 156/34/2 153/36/2
f 158/37/2 159/39/2 160/38/2
f 158/37/2 160/38/2 157/40/2
f 162/41/2 163/43/2 164/42/2
f 162/41/2 164/42/2 161/44/2
f 166/45/2 167/47/2 168/46/2
f 166/45/2 168/46/2 165/48/2
f 170/49/2 171/51/2 172/50/2
f 170/49/2 172/50/2 169/52/2
f 174/53/2 175/55/2 176/54/2
f 174/53/2 176/54/2 173/56/2
f 178/57/2 179/59/2 180/58/2
f 178/57/2 180/58/2 177/60/2
f 182/61/2 183/63/2 184/62/2
f 182/61/2 184/62/2 181/64/2
f 186/65/2 187/67/2 188/66/2
f 186/65/2 188/66/2 185/68/2
f 190/69/2 191/71/2 192/70/2
f 190/69/2 192/70/2 189/72/2
f 194/73/2 195/75/2 196/74/2
f 194/73/2 196/74/2 193/76/2
f 198/77/2 199/79/2 200/78/2
f 198/77/2 200/78/2 197/80/2
f 202/81/2 203/83/2 204/82/2
f 202/81/2 204/82/2 201/84/2
f 206/85/2 207/87/2 208/86/2
f 206/85/2 208/86/2 205/88/2
f 210/89/2 211/91/2 212/90/2
f 210/89/2 212/90/2 209/92/2
f 214/93/2 215/95/2 216/94/2
f 214/93/2 216/94/2 213/96/2
f 218/97/2 219/99/2 220/98/2
f 218/97/2 220/98/2 217/100/2
f 222/101/2 223/103/2 224/102/2
f 222/101/2 224/102/2 221/104/2
f 226/105/2 227/107/2 228/106/2
f 226/105/2 228/106/2 225/108/2
f 230/109/2 231/111/2 232/110/2
f 230/109/2 232/110/2 229/112/2
f 118/113/2 119/115/2 120/114/2
f 118/113/2 120/114/2 117/116/2
s 1
f 234/117/3 236/118/4 235/119/4 233/116/3
f 236/118/4 238/120/5 237/121/5 235/119/4
f 238/120/5 240/122/6 239/123/6 237/121/5
f 240/122/6 234/124/3 233/110/3 239/123/6
f 242/117/3 244/118/4 243/119/4 241/116/3
f 244/118/4 246/120/5 245/121/5 243/119/4
f 246/120/5 248/122/6 247/123/6 245/121/5
f 248/122/6 242/124/3 241/110/3 247/123/6
f 250/117/3 252/118/4 251/119/4 249/116/3
f 252/118/4 254/120/5 253/121/5 251/119/4
f 254/120/5 256/122/6 255/123/6 253/121/5
f 256/122/6 250/124/3 249/110/3 255/123/6
f 258/117/3 260/118/4 259/119/4 257/116/3
f 260/118/4 262/120/5 261/121/5 259/119/4
f 262/120/5 264/122/6 263/123/6 261/121/5
f 264/122/6 258/124/3 257/110/3 263/123/6
f 266/117/3 268/118/4 267/119/4 265/116/3
f 268/118/4 270/120/5 269/121/5 267/119/4
f 270/120/5 272/122/6 271/123/6 269/121/5
f 272/122/6 266/124/3 265/110/3 271/123/6
f 274/117/3 276/118/4 275/119/4 273/116/3
f 276/118/4 278/120/5 277/121/5 275/119/4
f 278/120/5 280/122/6 279/123/6 277/121/5
f 280/122/6 274/124/3 273/110/3 279/123/6
f 282/117/3 284/118/4 283/119/4 281/116/3
f 284/118/4 286/120/5 285/121/5 283/119/4
f 286/120/5 288/122/6 287/123/6 285/121/5
f 288/122/6 282/124/3 281/110/3 287/123/6
f 290/117/3 292/118/4 291/119/4 289/116/3
f 292/118/4 294/120/5 293/121/5 291/119/4
f 294/120/5 296/122/6 295/123/6 293/121/5
f 296/122/6 290/124/3 289/110/3 295/123/6
f 298/117/3 300/118/4 299/119/4 297/116/3
f 300/118/4 302/120/5 301/121/5 299/119/4
f 302/120/5 304/122/6 303/123/6 301/121/5
f 304/122/6 298/124/3 297/110/3 303/123/6
f 306/117/3 308/118/4 307/119/4 305/116/3
f 308/118/4 310/120/5 309/121/5 307/119/4
f 310/120/5 312/122/6 311/123/6 309/121/5
f 312/122/6 306/124/3 305/110/3 311/123/6
f 314/117/3 316/118/4 315/119/4 313/116/3
f 316/118/4 318/120/5 317/121/5 315/119/4
f 318/120/5 320/122/6 319/123/6 317/121/5
f 320/122/6 314/124/3 313/110/3 319/123/6
f 322/117/3 324/118/4 323/119/4 321/116/3
f 324/118/4 326/120/5 325/121/5 323/119/4
f 326/120/5 328/122/6 327/123/6 325/121/5
f 328/122/6 322/124/3 321/110/3 327/123/6
f 330/117/3 332/118/4 331/119/4 329/116/3
f 332/118/4 334/120/5 333/121/5 331/119/4
f 334/120/5 336/122/6 335/123/6 333/121/5
f 336/122/6 330/124/3 329/110/3 335/123/6
f 338/117/3 340/118/4 339/119/4 337/116/3
f 340/118/4 342/120/5 341/121/5 339/119/4
f 342/120/5 344/122/6 343/123/6 341/121/5
f 344/122/6 338/124/3 337/110/3 343/123/6
f 346/117/3 348/118/4 347/119/4 345/116/3
f 348/118/4 350/120/5 349/121/5 347/119/4
f 350/120/5 352/122/6 351/123/6 349/121/5
f 352/122/6 346/124/3 345/110/3 351/123/6
f 354/117/3 356/118/4 355/119/4 353/116/3
f 356/118/4 358/120/5 357/121/5 355/119/4
f 358/120/5 360/122/6 359/123/6 357/121/5
f 360/122/6 354/124/3 353/110/3 359/123/6
f 362/117/3 364/118/4 363/119/4 361/116/3
f 364/118/4 366/120/5 365/121/5 363/119/4
f 366/120/5 368/122/6 367/123/6 365/121/5
f 368/122/6 362/124/3 361/110/3 367/123/6
f 370/117/3 372/118/4 371/119/4 369/116/3
f 372/118/4 374/120/5 373/121/5 371/119/4
f 374/120/5 376/122/6 375/123/6 373/121/5
f 376/122/6 370/124/3 369/110/3 375/123/6
f 378/117/3 380/118/4 379/119/4 377/116/3
f 380/118/4 382/120/5 381/121/5 379/119/4
f 382/120/5 384/122/6 383/123/6 381/121/5
f 384/122/6 378/124/3 377/110/3 383/123/6
f 386/117/3 388/118/4 387/119/4 385/116/3
f 388/118/4 390/120/5 389/121/5 387/119/4
f 390/120/5 392/122/6 391/123/6 389/121/5
f 392/122/6 386/124/3 385/110/3 391/123/6
f 394/117/3 396/118/4 395/119/4 393/116/3
f 396/118/4 398/120/5 397/121/5 395/119/4
f 398/120/5 400/122/6 399/123/6 397/121/5
f 400/122/6 394/124/3 393/110/3 399/123/6
f 402/117/3 404/118/4 403/119/4 401/116/3
f 404/118/4 406/120/5 405/121/5 403/119/4
f 406/120/5 408/122/6 407/123/6 405/121/5
f 408/122/6 402/124/3 401/110/3 407/123/6
f 410/117/3 412/118/4 411/119/4 409/116/3
f 412/118/4 414/120/5 413/121/5 411/119/4
f 414/120/5 416/122/6 415/123/6 413/121/5
f 416/122/6 410/124/3 409/110/3 415/123/6
f 418/117/3 420/118/4 419/119/4 417/116/3
f 420/118/4 422/120/5 421/121/5 419/119/4
f 422/120/5 424/122/6 423/123/6 421/121/5
f 424/122/6 418/124/3 417/110/3 423/123/6
f 426/117/3 428/118/4 427/119/4 425/116/3
f 428/118/4 430/120/5 429/121/5 427/119/4
f 430/120/5 432/122/6 431/123/6 429/121/5
f 432/122/6 426/124/3 425/110/3 431/123/6
f 434/117/3 436/118/4 435/119/4 433/116/3
f 436/118/4 438/120/5 437/121/5 435/119/4
f 438/120/5 440/122/6 439/123/6 437/121/5
f 440/122/6 434/124/3 433/110/3 439/123/6
f 442/117/3 444/118/4 443/119/4 441/116/3
f 444/118/4 446/120/5 445/121/5 443/119/4
f 446/120/5 448/122/6 447/123/6 445/121/5
f 448/122/6 442/124/3 441/110/3 447/123/6
f 450/117/3 452/118/4 451/119/4 449/116/3
f 452/118/4 454/120/5 453/121/5 451/119/4
f 454/120/5 456/122/6 455/123/6 453/121/5
f 456/122/6 450/124/3 449/110/3 455/123/6
f 458/117/3 460/118/4 459/119/4 457/116/3
f 460/118/4 462/120/5 461/121/5 459/119/4
f 462/120/5 464/122/6 463/123/6 461/121/5
f 464/122/6 458/124/3 457/110/3 463/123/6
