# Blender 4.1.1
# www.blender.org
o :
v 0.189824 0.062622 -0.100000
v 0.250489 0.062622 -0.100000
v 0.250489 0.123288 -0.100000
v 0.189824 0.123288 -0.100000
v 0.315068 -0.250489 -0.100000
v 0.375734 -0.250489 -0.100000
v 0.375734 -0.189824 -0.100000
v 0.315068 -0.189824 -0.100000
v 0.252446 -0.250489 -0.100000
v 0.313112 -0.250489 -0.100000
v 0.313112 -0.189824 -0.100000
v 0.252446 -0.189824 -0.100000
v 0.189824 -0.250489 -0.100000
v 0.250489 -0.250489 -0.100000
v 0.250489 -0.189824 -0.100000
v 0.189824 -0.189824 -0.100000
v 0.315068 -0.187867 -0.100000
v 0.375734 -0.187867 -0.100000
v 0.375734 -0.127202 -0.100000
v 0.315068 -0.127202 -0.100000
v 0.252446 -0.187867 -0.100000
v 0.313112 -0.187867 -0.100000
v 0.313112 -0.127202 -0.100000
v 0.252446 -0.127202 -0.100000
v 0.189824 -0.187867 -0.100000
v 0.250489 -0.187867 -0.100000
v 0.250489 -0.127202 -0.100000
v 0.189824 -0.127202 -0.100000
v 0.315068 -0.000000 -0.100000
v 0.375734 -0.000000 -0.100000
v 0.375734 0.060665 -0.100000
v 0.315068 0.060665 -0.100000
v 0.252446 -0.000000 -0.100000
v 0.313112 -0.000000 -0.100000
v 0.313112 0.060665 -0.100000
v 0.252446 0.060665 -0.100000
v 0.189824 -0.000000 -0.100000
v 0.250489 -0.000000 -0.100000
v 0.250489 0.060665 -0.100000
v 0.189824 0.060665 -0.100000
v 0.315068 0.062622 -0.100000
v 0.375734 0.062622 -0.100000
v 0.375734 0.123288 -0.100000
v 0.315068 0.123288 -0.100000
v 0.252446 0.062622 -0.100000
v 0.313112 0.062622 -0.100000
v 0.313112 0.123288 -0.100000
v 0.252446 0.123288 -0.100000
v 0.189824 0.062622 0.100000
v 0.250489 0.062622 0.100000
v 0.250489 0.123288 0.100000
v 0.189824 0.123288 0.100000
v 0.315069 -0.250489 0.100000
v 0.375734 -0.250489 0.100000
v 0.375734 -0.189824 0.100000
v 0.315069 -0.189824 0.100000
v 0.252446 -0.250489 0.100000
v 0.313112 -0.250489 0.100000
v 0.313112 -0.189824 0.100000
v 0.252446 -0.189824 0.100000
v 0.189824 -0.250489 0.100000
v 0.250489 -0.250489 0.100000
v 0.250489 -0.189824 0.100000
v 0.189824 -0.189824 0.100000
v 0.315069 -0.187867 0.100000
v 0.375734 -0.187867 0.100000
v 0.375734 -0.127202 0.100000
v 0.315069 -0.127202 0.100000
v 0.252446 -0.187867 0.100000
v 0.313112 -0.187867 0.100000
v 0.313112 -0.127202 0.100000
v 0.252446 -0.127202 0.100000
v 0.189824 -0.187867 0.100000
v 0.250489 -0.187867 0.100000
v 0.250489 -0.127202 0.100000
v 0.189824 -0.127202 0.100000
v 0.315069 0.000000 0.100000
v 0.375734 0.000000 0.100000
v 0.375734 0.060665 0.100000
v 0.315069 0.060665 0.100000
v 0.252446 0.000000 0.100000
v 0.313112 0.000000 0.100000
v 0.313112 0.060665 0.100000
v 0.252446 0.060665 0.100000
v 0.189824 0.000000 0.100000
v 0.250489 0.000000 0.100000
v 0.250489 0.060665 0.100000
v 0.189824 0.060665 0.100000
v 0.315069 0.062622 0.100000
v 0.375734 0.062622 0.100000
v 0.375734 0.123288 0.100000
v 0.315069 0.123288 0.100000
v 0.252446 0.062622 0.100000
v 0.313112 0.062622 0.100000
v 0.313112 0.123288 0.100000
v 0.252446 0.123288 0.100000
v 0.315069 -0.250489 0.100000
v 0.315068 -0.250489 -0.100000
v 0.375734 -0.250489 0.100000
v 0.375734 -0.250489 -0.100000
v 0.375734 -0.189824 0.100000
v 0.375734 -0.189824 -0.100000
v 0.315069 -0.189824 0.100000
v 0.315068 -0.189824 -0.100000
v 0.252446 -0.250489 0.100000
v 0.252446 -0.250489 -0.100000
v 0.313112 -0.250489 0.100000
v 0.313112 -0.250489 -0.100000
v 0.313112 -0.189824 0.100000
v 0.313112 -0.189824 -0.100000
v 0.252446 -0.189824 0.100000
v 0.252446 -0.189824 -0.100000
v 0.189824 -0.250489 0.100000
v 0.189824 -0.250489 -0.100000
v 0.250489 -0.250489 0.100000
v 0.250489 -0.250489 -0.100000
v 0.250489 -0.189824 0.100000
v 0.250489 -0.189824 -0.100000
v 0.189824 -0.189824 0.100000
v 0.189824 -0.189824 -0.100000
v 0.315069 -0.187867 0.100000
v 0.315068 -0.187867 -0.100000
v 0.375734 -0.187867 0.100000
v 0.375734 -0.187867 -0.100000
v 0.375734 -0.127202 0.100000
v 0.375734 -0.127202 -0.100000
v 0.315069 -0.127202 0.100000
v 0.315068 -0.127202 -0.100000
v 0.252446 -0.187867 0.100000
v 0.252446 -0.187867 -0.100000
v 0.313112 -0.187867 0.100000
v 0.313112 -0.187867 -0.100000
v 0.313112 -0.127202 0.100000
v 0.313112 -0.127202 -0.100000
v 0.252446 -0.127202 0.100000
v 0.252446 -0.127202 -0.100000
v 0.189824 -0.187867 0.100000
v 0.189824 -0.187867 -0.100000
v 0.250489 -0.187867 0.100000
v 0.250489 -0.187867 -0.100000
v 0.250489 -0.127202 0.100000
v 0.250489 -0.127202 -0.100000
v 0.189824 -0.127202 0.100000
v 0.189824 -0.127202 -0.100000
v 0.315069 0.000000 0.100000
v 0.315068 -0.000000 -0.100000
v 0.375734 0.000000 0.100000
v 0.375734 -0.000000 -0.100000
v 0.375734 0.060665 0.100000
v 0.375734 0.060665 -0.100000
v 0.315069 0.060665 0.100000
v 0.315068 0.060665 -0.100000
v 0.252446 0.000000 0.100000
v 0.252446 -0.000000 -0.100000
v 0.313112 0.000000 0.100000
v 0.313112 -0.000000 -0.100000
v 0.313112 0.060665 0.100000
v 0.313112 0.060665 -0.100000
v 0.252446 0.060665 0.100000
v 0.252446 0.060665 -0.100000
v 0.189824 0.000000 0.100000
v 0.189824 -0.000000 -0.100000
v 0.250489 0.000000 0.100000
v 0.250489 -0.000000 -0.100000
v 0.250489 0.060665 0.100000
v 0.250489 0.060665 -0.100000
v 0.189824 0.060665 0.100000
v 0.189824 0.060665 -0.100000
v 0.315069 0.062622 0.100000
v 0.315068 0.062622 -0.100000
v 0.375734 0.062622 0.100000
v 0.375734 0.062622 -0.100000
v 0.375734 0.123288 0.100000
v 0.375734 0.123288 -0.100000
v 0.315069 0.123288 0.100000
v 0.315068 0.123288 -0.100000
v 0.252446 0.062622 0.100000
v 0.252446 0.062622 -0.100000
v 0.313112 0.062622 0.100000
v 0.313112 0.062622 -0.100000
v 0.313112 0.123288 0.100000
v 0.313112 0.123288 -0.100000
v 0.252446 0.123288 0.100000
v 0.252446 0.123288 -0.100000
v 0.189824 0.062622 0.100000
v 0.189824 0.062622 -0.100000
v 0.250489 0.062622 0.100000
v 0.250489 0.062622 -0.100000
v 0.250489 0.123288 0.100000
v 0.250489 0.123288 -0.100000
v 0.189824 0.123288 0.100000
v 0.189824 0.123288 -0.100000
vn -0.0000 -0.0000 -1.0000
vn -0.0000 -0.0000 1.0000
vn -0.7071 -0.7071 -0.0000
vn 0.7071 -0.7071 -0.0000
vn 0.7071 0.7071 -0.0000
vn -0.7071 0.7071 -0.0000
vt 0.106383 0.000000
vt 0.148936 0.000000
vt 0.127660 0.000000
vt 0.085106 0.000000
vt 0.191489 0.000000
vt 0.234043 0.000000
vt 0.212766 0.000000
vt 0.170213 0.000000
vt 0.276596 0.000000
vt 0.319149 0.000000
vt 0.297872 0.000000
vt 0.255319 0.000000
vt 0.361702 0.000000
vt 0.404255 0.000000
vt 0.382979 0.000000
vt 0.340426 0.000000
vt 0.446809 0.000000
vt 0.489362 0.000000
vt 0.468085 0.000000
vt 0.425532 0.000000
vt 0.531915 0.000000
vt 0.574468 0.000000
vt 0.553191 0.000000
vt 0.510638 0.000000
vt 0.617021 0.000000
vt 0.659574 0.000000
vt 0.638298 0.000000
vt 0.595745 0.000000
vt 0.702128 0.000000
vt 0.744681 0.000000
vt 0.723404 0.000000
vt 0.680851 0.000000
vt 0.787234 0.000000
vt 0.829787 0.000000
vt 0.808511 0.000000
vt 0.765957 0.000000
vt 0.872340 0.000000
vt 0.914894 0.000000
vt 0.893617 0.000000
vt 0.851064 0.000000
vt 0.957447 0.000000
vt 1.000000 0.000000
vt 0.978723 0.000000
vt 0.936170 0.000000
vt 0.021277 0.000000
vt 0.063830 0.000000
vt 0.042553 0.000000
vt 0.000000 0.000000
vt 0.000000 1.000000
vt 0.250000 1.000000
vt 0.250000 0.000000
vt 0.500000 1.000000
vt 0.500000 0.000000
vt 0.750000 1.000000
vt 0.750000 0.000000
vt 1.000000 1.000000
s 0
f 6/1/1 8/2/1 7/3/1
f 6/1/1 5/4/1 8/2/1
f 10/5/1 12/6/1 11/7/1
f 10/5/1 9/8/1 12/6/1
f 14/9/1 16/10/1 15/11/1
f 14/9/1 13/12/1 16/10/1
f 18/13/1 20/14/1 19/15/1
f 18/13/1 17/16/1 20/14/1
f 22/17/1 24/18/1 23/19/1
f 22/17/1 21/20/1 24/18/1
f 26/21/1 28/22/1 27/23/1
f 26/21/1 25/24/1 28/22/1
f 30/25/1 32/26/1 31/27/1
f 30/25/1 29/28/1 32/26/1
f 34/29/1 36/30/1 35/31/1
f 34/29/1 33/32/1 36/30/1
f 38/33/1 40/34/1 39/35/1
f 38/33/1 37/36/1 40/34/1
f 42/37/1 44/38/1 43/39/1
f 42/37/1 41/40/1 44/38/1
f 46/41/1 48/42/1 47/43/1
f 46/41/1 45/44/1 48/42/1
f 2/45/1 4/46/1 3/47/1
f 2/45/1 1/48/1 4/46/1
f 54/1/2 55/3/2 56/2/2
f 54/1/2 56/2/2 53/4/2
f 58/5/2 59/7/2 60/6/2
f 58/5/2 60/6/2 57/8/2
f 62/9/2 63/11/2 64/10/2
f 62/9/2 64/10/2 61/12/2
f 66/13/2 67/15/2 68/14/2
f 66/13/2 68/14/2 65/16/2
f 70/17/2 71/19/2 72/18/2
f 70/17/2 72/18/2 69/20/2
f 74/21/2 75/23/2 76/22/2
f 74/21/2 76/22/2 73/24/2
f 78/25/2 79/27/2 80/26/2
f 78/25/2 80/26/2 77/28/2
f 82/29/2 83/31/2 84/30/2
f 82/29/2 84/30/2 81/32/2
f 86/33/2 87/35/2 88/34/2
f 86/33/2 88/34/2 85/36/2
f 90/37/2 91/39/2 92/38/2
f 90/37/2 92/38/2 89/40/2
f 94/41/2 95/43/2 96/42/2
f 94/41/2 96/42/2 93/44/2
f 50/45/2 51/47/2 52/46/2
f 50/45/2 52/46/2 49/48/2
s 1
f 98/49/3 100/50/4 99/51/4 97/48/3
f 100/50/4 102/52/5 101/53/5 99/51/4
f 102/52/5 104/54/6 103/55/6 101/53/5
f 104/54/6 98/56/3 97/42/3 103/55/6
f 106/49/3 108/50/4 107/51/4 105/48/3
f 108/50/4 110/52/5 109/53/5 107/51/4
f 110/52/5 112/54/6 111/55/6 109/53/5
f 112/54/6 106/56/3 105/42/3 111/55/6
f 114/49/3 116/50/4 115/51/4 113/48/3
f 116/50/4 118/52/5 117/53/5 115/51/4
f 118/52/5 120/54/6 119/55/6 117/53/5
f 120/54/6 114/56/3 113/42/3 119/55/6
f 122/49/3 124/50/4 123/51/4 121/48/3
f 124/50/4 126/52/5 125/53/5 123/51/4
f 126/52/5 128/54/6 127/55/6 125/53/5
f 128/54/6 122/56/3 121/42/3 127/55/6
f 130/49/3 132/50/4 131/51/4 129/48/3
f 132/50/4 134/52/5 133/53/5 131/51/4
f 134/52/5 136/54/6 135/55/6 133/53/5
f 136/54/6 130/56/3 129/42/3 135/55/6
f 138/49/3 140/50/4 139/51/4 137/48/3
f 140/50/4 142/52/5 141/53/5 139/51/4
f 142/52/5 144/54/6 143/55/6 141/53/5
f 144/54/6 138/56/3 137/42/3 143/55/6
f 146/49/3 148/50/4 147/51/4 145/48/3
f 148/50/4 150/52/5 149/53/5 147/51/4
f 150/52/5 152/54/6 151/55/6 149/53/5
f 152/54/6 146/56/3 145/42/3 151/55/6
f 154/49/3 156/50/4 155/51/4 153/48/3
f 156/50/4 158/52/5 157/53/5 155/51/4
f 158/52/5 160/54/6 159/55/6 157/53/5
f 160/54/6 154/56/3 153/42/3 159/55/6
f 162/49/3 164/50/4 163/51/4 161/48/3
f 164/50/4 166/52/5 165/53/5 163/51/4
f 166/52/5 168/54/6 167/55/6 165/53/5
f 168/54/6 162/56/3 161/42/3 167/55/6
f 170/49/3 172/50/4 171/51/4 169/48/3
f 172/50/4 174/52/5 173/53/5 171/51/4
f 174/52/5 176/54/6 175/55/6 173/53/5
f 176/54/6 170/56/3 169/42/3 175/55/6
f 178/49/3 180/50/4 179/51/4 177/48/3
f 180/50/4 182/52/5 181/53/5 179/51/4
f 182/52/5 184/54/6 183/55/6 181/53/5
f 184/54/6 178/56/3 177/42/3 183/55/6
f 186/49/3 188/50/4 187/51/4 185/48/3
f 188/50/4 190/52/5 189/53/5 187/51/4
f 190/52/5 192/54/6 191/55/6 189/53/5
f 192/54/6 186/56/3 185/42/3 191/55/6
