# Blender 4.1.1
# www.blender.org
o I
v 0.127202 0.187867 -0.100000
v 0.187867 0.187867 -0.100000
v 0.187867 0.248532 -0.100000
v 0.127202 0.248532 -0.100000
v 0.315068 -0.313112 -0.100000
v 0.375734 -0.313112 -0.100000
v 0.375734 -0.252446 -0.100000
v 0.315068 -0.252446 -0.100000
v 0.252446 -0.313112 -0.100000
v 0.313112 -0.313112 -0.100000
v 0.313112 -0.252446 -0.100000
v 0.252446 -0.252446 -0.100000
v 0.189824 -0.313112 -0.100000
v 0.250489 -0.313112 -0.100000
v 0.250489 -0.252446 -0.100000
v 0.189824 -0.252446 -0.100000
v 0.127202 -0.313112 -0.100000
v 0.187867 -0.313112 -0.100000
v 0.187867 -0.252446 -0.100000
v 0.127202 -0.252446 -0.100000
v 0.252446 -0.250489 -0.100000
v 0.313112 -0.250489 -0.100000
v 0.313112 -0.189824 -0.100000
v 0.252446 -0.189824 -0.100000
v 0.189824 -0.250489 -0.100000
v 0.250489 -0.250489 -0.100000
v 0.250489 -0.189824 -0.100000
v 0.189824 -0.189824 -0.100000
v 0.252446 -0.187867 -0.100000
v 0.313112 -0.187867 -0.100000
v 0.313112 -0.127202 -0.100000
v 0.252446 -0.127202 -0.100000
v 0.189824 -0.187867 -0.100000
v 0.250489 -0.187867 -0.100000
v 0.250489 -0.127202 -0.100000
v 0.189824 -0.127202 -0.100000
v 0.252446 -0.125245 -0.100000
v 0.313112 -0.125245 -0.100000
v 0.313112 -0.064579 -0.100000
v 0.252446 -0.064579 -0.100000
v 0.189824 -0.125245 -0.100000
v 0.250489 -0.125245 -0.100000
v 0.250489 -0.064579 -0.100000
v 0.189824 -0.064579 -0.100000
v 0.252446 -0.062622 -0.100000
v 0.313112 -0.062622 -0.100000
v 0.313112 -0.001957 -0.100000
v 0.252446 -0.001957 -0.100000
v 0.189824 -0.062622 -0.100000
v 0.250489 -0.062622 -0.100000
v 0.250489 -0.001957 -0.100000
v 0.189824 -0.001957 -0.100000
v 0.252446 -0.000000 -0.100000
v 0.313112 -0.000000 -0.100000
v 0.313112 0.060665 -0.100000
v 0.252446 0.060665 -0.100000
v 0.189824 -0.000000 -0.100000
v 0.250489 -0.000000 -0.100000
v 0.250489 0.060665 -0.100000
v 0.189824 0.060665 -0.100000
v 0.252446 0.062622 -0.100000
v 0.313112 0.062622 -0.100000
v 0.313112 0.123288 -0.100000
v 0.252446 0.123288 -0.100000
v 0.189824 0.062622 -0.100000
v 0.250489 0.062622 -0.100000
v 0.250489 0.123288 -0.100000
v 0.189824 0.123288 -0.100000
v 0.252446 0.125245 -0.100000
v 0.313112 0.125245 -0.100000
v 0.313112 0.185910 -0.100000
v 0.252446 0.185910 -0.100000
v 0.189824 0.125245 -0.100000
v 0.250489 0.125245 -0.100000
v 0.250489 0.185910 -0.100000
v 0.189824 0.185910 -0.100000
v 0.315068 0.187867 -0.100000
v 0.375734 0.187867 -0.100000
v 0.375734 0.248532 -0.100000
v 0.315068 0.248532 -0.100000
v 0.252446 0.187867 -0.100000
v 0.313112 0.187867 -0.100000
v 0.313112 0.248532 -0.100000
v 0.252446 0.248532 -0.100000
v 0.189824 0.187867 -0.100000
v 0.250489 0.187867 -0.100000
v 0.250489 0.248532 -0.100000
v 0.189824 0.248532 -0.100000
v 0.127202 0.187867 0.100000
v 0.187867 0.187867 0.100000
v 0.187867 0.248532 0.100000
v 0.127202 0.248532 0.100000
v 0.315069 -0.313112 0.100000
v 0.375734 -0.313112 0.100000
v 0.375734 -0.252446 0.100000
v 0.315069 -0.252446 0.100000
v 0.252446 -0.313112 0.100000
v 0.313112 -0.313112 0.100000
v 0.313112 -0.252446 0.100000
v 0.252446 -0.252446 0.100000
v 0.189824 -0.313112 0.100000
v 0.250489 -0.313112 0.100000
v 0.250489 -0.252446 0.100000
v 0.189824 -0.252446 0.100000
v 0.127202 -0.313112 0.100000
v 0.187867 -0.313112 0.100000
v 0.187867 -0.252446 0.100000
v 0.127202 -0.252446 0.100000
v 0.252446 -0.250489 0.100000
v 0.313112 -0.250489 0.100000
v 0.313112 -0.189824 0.100000
v 0.252446 -0.189824 0.100000
v 0.189824 -0.250489 0.100000
v 0.250489 -0.250489 0.100000
v 0.250489 -0.189824 0.100000
v 0.189824 -0.189824 0.100000
v 0.252446 -0.187867 0.100000
v 0.313112 -0.187867 0.100000
v 0.313112 -0.127202 0.100000
v 0.252446 -0.127202 0.100000
v 0.189824 -0.187867 0.100000
v 0.250489 -0.187867 0.100000
v 0.250489 -0.127202 0.100000
v 0.189824 -0.127202 0.100000
v 0.252446 -0.125245 0.100000
v 0.313112 -0.125245 0.100000
v 0.313112 -0.064579 0.100000
v 0.252446 -0.064579 0.100000
v 0.189824 -0.125245 0.100000
v 0.250489 -0.125245 0.100000
v 0.250489 -0.064579 0.100000
v 0.189824 -0.064579 0.100000
v 0.252446 -0.062622 0.100000
v 0.313112 -0.062622 0.100000
v 0.313112 -0.001957 0.100000
v 0.252446 -0.001957 0.100000
v 0.189824 -0.062622 0.100000
v 0.250489 -0.062622 0.100000
v 0.250489 -0.001957 0.100000
v 0.189824 -0.001957 0.100000
v 0.252446 0.000000 0.100000
v 0.313112 0.000000 0.100000
v 0.313112 0.060665 0.100000
v 0.252446 0.060665 0.100000
v 0.189824 0.000000 0.100000
v 0.250489 0.000000 0.100000
v 0.250489 0.060665 0.100000
v 0.189824 0.060665 0.100000
v 0.252446 0.062622 0.100000
v 0.313112 0.062622 0.100000
v 0.313112 0.123288 0.100000
v 0.252446 0.123288 0.100000
v 0.189824 0.062622 0.100000
v 0.250489 0.062622 0.100000
v 0.250489 0.123288 0.100000
v 0.189824 0.123288 0.100000
v 0.252446 0.125245 0.100000
v 0.313112 0.125245 0.100000
v 0.313112 0.185910 0.100000
v 0.252446 0.185910 0.100000
v 0.189824 0.125245 0.100000
v 0.250489 0.125245 0.100000
v 0.250489 0.185910 0.100000
v 0.189824 0.185910 0.100000
v 0.315069 0.187867 0.100000
v 0.375734 0.187867 0.100000
v 0.375734 0.248532 0.100000
v 0.315069 0.248532 0.100000
v 0.252446 0.187867 0.100000
v 0.313112 0.187867 0.100000
v 0.313112 0.248532 0.100000
v 0.252446 0.248532 0.100000
v 0.189824 0.187867 0.100000
v 0.250489 0.187867 0.100000
v 0.250489 0.248532 0.100000
v 0.189824 0.248532 0.100000
v 0.315069 -0.313112 0.100000
v 0.315068 -0.313112 -0.100000
v 0.375734 -0.313112 0.100000
v 0.375734 -0.313112 -0.100000
v 0.375734 -0.252446 0.100000
v 0.375734 -0.252446 -0.100000
v 0.315069 -0.252446 0.100000
v 0.315068 -0.252446 -0.100000
v 0.252446 -0.313112 0.100000
v 0.252446 -0.313112 -0.100000
v 0.313112 -0.313112 0.100000
v 0.313112 -0.313112 -0.100000
v 0.313112 -0.252446 0.100000
v 0.313112 -0.252446 -0.100000
v 0.252446 -0.252446 0.100000
v 0.252446 -0.252446 -0.100000
v 0.189824 -0.313112 0.100000
v 0.189824 -0.313112 -0.100000
v 0.250489 -0.313112 0.100000
v 0.250489 -0.313112 -0.100000
v 0.250489 -0.252446 0.100000
v 0.250489 -0.252446 -0.100000
v 0.189824 -0.252446 0.100000
v 0.189824 -0.252446 -0.100000
v 0.127202 -0.313112 0.100000
v 0.127202 -0.313112 -0.100000
v 0.187867 -0.313112 0.100000
v 0.187867 -0.313112 -0.100000
v 0.187867 -0.252446 0.100000
v 0.187867 -0.252446 -0.100000
v 0.127202 -0.252446 0.100000
v 0.127202 -0.252446 -0.100000
v 0.252446 -0.250489 0.100000
v 0.252446 -0.250489 -0.100000
v 0.313112 -0.250489 0.100000
v 0.313112 -0.250489 -0.100000
v 0.313112 -0.189824 0.100000
v 0.313112 -0.189824 -0.100000
v 0.252446 -0.189824 0.100000
v 0.252446 -0.189824 -0.100000
v 0.189824 -0.250489 0.100000
v 0.189824 -0.250489 -0.100000
v 0.250489 -0.250489 0.100000
v 0.250489 -0.250489 -0.100000
v 0.250489 -0.189824 0.100000
v 0.250489 -0.189824 -0.100000
v 0.189824 -0.189824 0.100000
v 0.189824 -0.189824 -0.100000
v 0.252446 -0.187867 0.100000
v 0.252446 -0.187867 -0.100000
v 0.313112 -0.187867 0.100000
v 0.313112 -0.187867 -0.100000
v 0.313112 -0.127202 0.100000
v 0.313112 -0.127202 -0.100000
v 0.252446 -0.127202 0.100000
v 0.252446 -0.127202 -0.100000
v 0.189824 -0.187867 0.100000
v 0.189824 -0.187867 -0.100000
v 0.250489 -0.187867 0.100000
v 0.250489 -0.187867 -0.100000
v 0.250489 -0.127202 0.100000
v 0.250489 -0.127202 -0.100000
v 0.189824 -0.127202 0.100000
v 0.189824 -0.127202 -0.100000
v 0.252446 -0.125245 0.100000
v 0.252446 -0.125245 -0.100000
v 0.313112 -0.125245 0.100000
v 0.313112 -0.125245 -0.100000
v 0.313112 -0.064579 0.100000
v 0.313112 -0.064579 -0.100000
v 0.252446 -0.064579 0.100000
v 0.252446 -0.064579 -0.100000
v 0.189824 -0.125245 0.100000
v 0.189824 -0.125245 -0.100000
v 0.250489 -0.125245 0.100000
v 0.250489 -0.125245 -0.100000
v 0.250489 -0.064579 0.100000
v 0.250489 -0.064579 -0.100000
v 0.189824 -0.064579 0.100000
v 0.189824 -0.064579 -0.100000
v 0.252446 -0.062622 0.100000
v 0.252446 -0.062622 -0.100000
v 0.313112 -0.062622 0.100000
v 0.313112 -0.062622 -0.100000
v 0.313112 -0.001957 0.100000
v 0.313112 -0.001957 -0.100000
v 0.252446 -0.001957 0.100000
v 0.252446 -0.001957 -0.100000
v 0.189824 -0.062622 0.100000
v 0.189824 -0.062622 -0.100000
v 0.250489 -0.062622 0.100000
v 0.250489 -0.062622 -0.100000
v 0.250489 -0.001957 0.100000
v 0.250489 -0.001957 -0.100000
v 0.189824 -0.001957 0.100000
v 0.189824 -0.001957 -0.100000
v 0.252446 0.000000 0.100000
v 0.252446 -0.000000 -0.100000
v 0.313112 0.000000 0.100000
v 0.313112 -0.000000 -0.100000
v 0.313112 0.060665 0.100000
v 0.313112 0.060665 -0.100000
v 0.252446 0.060665 0.100000
v 0.252446 0.060665 -0.100000
v 0.189824 0.000000 0.100000
v 0.189824 -0.000000 -0.100000
v 0.250489 0.000000 0.100000
v 0.250489 -0.000000 -0.100000
v 0.250489 0.060665 0.100000
v 0.250489 0.060665 -0.100000
v 0.189824 0.060665 0.100000
v 0.189824 0.060665 -0.100000
v 0.252446 0.062622 0.100000
v 0.252446 0.062622 -0.100000
v 0.313112 0.062622 0.100000
v 0.313112 0.062622 -0.100000
v 0.313112 0.123288 0.100000
v 0.313112 0.123288 -0.100000
v 0.252446 0.123288 0.100000
v 0.252446 0.123288 -0.100000
v 0.189824 0.062622 0.100000
v 0.189824 0.062622 -0.100000
v 0.250489 0.062622 0.100000
v 0.250489 0.062622 -0.100000
v 0.250489 0.123288 0.100000
v 0.250489 0.123288 -0.100000
v 0.189824 0.123288 0.100000
v 0.189824 0.123288 -0.100000
v 0.252446 0.125245 0.100000
v 0.252446 0.125245 -0.100000
v 0.313112 0.125245 0.100000
v 0.313112 0.125245 -0.100000
v 0.313112 0.185910 0.100000
v 0.313112 0.185910 -0.100000
v 0.252446 0.185910 0.100000
v 0.252446 0.185910 -0.100000
v 0.189824 0.125245 0.100000
v 0.189824 0.125245 -0.100000
v 0.250489 0.125245 0.100000
v 0.250489 0.125245 -0.100000
v 0.250489 0.185910 0.100000
v 0.250489 0.185910 -0.100000
v 0.189824 0.185910 0.100000
v 0.189824 0.185910 -0.100000
v 0.315069 0.187867 0.100000
v 0.315068 0.187867 -0.100000
v 0.375734 0.187867 0.100000
v 0.375734 0.187867 -0.100000
v 0.375734 0.248532 0.100000
v 0.375734 0.248532 -0.100000
v 0.315069 0.248532 0.100000
v 0.315068 0.248532 -0.100000
v 0.252446 0.187867 0.100000
v 0.252446 0.187867 -0.100000
v 0.313112 0.187867 0.100000
v 0.313112 0.187867 -0.100000
v 0.313112 0.248532 0.100000
v 0.313112 0.248532 -0.100000
v 0.252446 0.248532 0.100000
v 0.252446 0.248532 -0.100000
v 0.189824 0.187867 0.100000
v 0.189824 0.187867 -0.100000
v 0.250489 0.187867 0.100000
v 0.250489 0.187867 -0.100000
v 0.250489 0.248532 0.100000
v 0.250489 0.248532 -0.100000
v 0.189824 0.248532 0.100000
v 0.189824 0.248532 -0.100000
v 0.127202 0.187867 0.100000
v 0.127202 0.187867 -0.100000
v 0.187867 0.187867 0.100000
v 0.187867 0.187867 -0.100000
v 0.187867 0.248532 0.100000
v 0.187867 0.248532 -0.100000
v 0.127202 0.248532 0.100000
v 0.127202 0.248532 -0.100000
vn -0.0000 -0.0000 -1.0000
vn -0.0000 -0.0000 1.0000
vn -0.7071 -0.7071 -0.0000
vn 0.7071 -0.7071 -0.0000
vn 0.7071 0.7071 -0.0000
vn -0.7071 0.7071 -0.0000
vt 0.057471 0.000000
vt 0.080460 0.000000
vt 0.068966 0.000000
vt 0.045977 0.000000
vt 0.103448 0.000000
vt 0.126437 0.000000
vt 0.114943 0.000000
vt 0.091954 0.000000
vt 0.149425 0.000000
vt 0.172414 0.000000
vt 0.160920 0.000000
vt 0.137931 0.000000
vt 0.195402 0.000000
vt 0.218391 0.000000
vt 0.206897 0.000000
vt 0.183908 0.000000
vt 0.241379 0.000000
vt 0.264368 0.000000
vt 0.252874 0.000000
vt 0.229885 0.000000
vt 0.287356 0.000000
vt 0.310345 0.000000
vt 0.298851 0.000000
vt 0.275862 0.000000
vt 0.333333 0.000000
vt 0.356322 0.000000
vt 0.344828 0.000000
vt 0.321839 0.000000
vt 0.379310 0.000000
vt 0.402299 0.000000
vt 0.390805 0.000000
vt 0.367816 0.000000
vt 0.425287 0.000000
vt 0.448276 0.000000
vt 0.436782 0.000000
vt 0.413793 0.000000
vt 0.471264 0.000000
vt 0.494253 0.000000
vt 0.482759 0.000000
vt 0.459770 0.000000
vt 0.517241 0.000000
vt 0.540230 0.000000
vt 0.528736 0.000000
vt 0.505747 0.000000
vt 0.563218 0.000000
vt 0.586207 0.000000
vt 0.574713 0.000000
vt 0.551724 0.000000
vt 0.609195 0.000000
vt 0.632184 0.000000
vt 0.620690 0.000000
vt 0.597701 0.000000
vt 0.655172 0.000000
vt 0.678161 0.000000
vt 0.666667 0.000000
vt 0.643678 0.000000
vt 0.701149 0.000000
vt 0.724138 0.000000
vt 0.712644 0.000000
vt 0.689655 0.000000
vt 0.747126 0.000000
vt 0.770115 0.000000
vt 0.758621 0.000000
vt 0.735632 0.000000
vt 0.793103 0.000000
vt 0.816092 0.000000
vt 0.804598 0.000000
vt 0.781609 0.000000
vt 0.839080 0.000000
vt 0.862069 0.000000
vt 0.850575 0.000000
vt 0.827586 0.000000
vt 0.885057 0.000000
vt 0.908046 0.000000
vt 0.896552 0.000000
vt 0.873563 0.000000
vt 0.931035 0.000000
vt 0.954023 0.000000
vt 0.942529 0.000000
vt 0.919540 0.000000
vt 0.977012 0.000000
vt 1.000000 0.000000
vt 0.988506 0.000000
vt 0.965517 0.000000
vt 0.011494 0.000000
vt 0.034483 0.000000
vt 0.022989 0.000000
vt 0.000000 0.000000
vt 0.000000 1.000000
vt 0.250000 1.000000
vt 0.250000 0.000000
vt 0.500000 1.000000
vt 0.500000 0.000000
vt 0.750000 1.000000
vt 0.750000 0.000000
vt 1.000000 1.000000
s 0
f 6/1/1 8/2/1 7/3/1
f 6/1/1 5/4/1 8/2/1
f 10/5/1 12/6/1 11/7/1
f 10/5/1 9/8/1 12/6/1
f 14/9/1 16/10/1 15/11/1
f 14/9/1 13/12/1 16/10/1
f 18/13/1 20/14/1 19/15/1
f 18/13/1 17/16/1 20/14/1
f 22/17/1 24/18/1 23/19/1
f 22/17/1 21/20/1 24/18/1
f 26/21/1 28/22/1 27/23/1
f 26/21/1 25/24/1 28/22/1
f 30/25/1 32/26/1 31/27/1
f 30/25/1 29/28/1 32/26/1
f 34/29/1 36/30/1 35/31/1
f 34/29/1 33/32/1 36/30/1
f 38/33/1 40/34/1 39/35/1
f 38/33/1 37/36/1 40/34/1
f 42/37/1 44/38/1 43/39/1
f 42/37/1 41/40/1 44/38/1
f 46/41/1 48/42/1 47/43/1
f 46/41/1 45/44/1 48/42/1
f 50/45/1 52/46/1 51/47/1
f 50/45/1 49/48/1 52/46/1
f 54/49/1 56/50/1 55/51/1
f 54/49/1 53/52/1 56/50/1
f 58/53/1 60/54/1 59/55/1
f 58/53/1 57/56/1 60/54/1
f 62/57/1 64/58/1 63/59/1
f 62/57/1 61/60/1 64/58/1
f 66/61/1 68/62/1 67/63/1
f 66/61/1 65/64/1 68/62/1
f 70/65/1 72/66/1 71/67/1
f 70/65/1 69/68/1 72/66/1
f 74/69/1 76/70/1 75/71/1
f 74/69/1 73/72/1 76/70/1
f 78/73/1 80/74/1 79/75/1
f 78/73/1 77/76/1 80/74/1
f 82/77/1 84/78/1 83/79/1
f 82/77/1 81/80/1 84/78/1
f 86/81/1 88/82/1 87/83/1
f 86/81/1 85/84/1 88/82/1
f 2/85/1 4/86/1 3/87/1
f 2/85/1 1/88/1 4/86/1
f 94/1/2 95/3/2 96/2/2
f 94/1/2 96/2/2 93/4/2
f 98/5/2 99/7/2 100/6/2
f 98/5/2 100/6/2 97/8/2
f 102/9/2 103/11/2 104/10/2
f 102/9/2 104/10/2 101/12/2
f 106/13/2 107/15/2 108/14/2
f 106/13/2 108/14/2 105/16/2
f 110/17/2 111/19/2 112/18/2
f 110/17/2 112/18/2 109/20/2
f 114/21/2 115/23/2 116/22/2
f 114/21/2 116/22/2 113/24/2
f 118/25/2 119/27/2 120/26/2
f 118/25/2 120/26/2 117/28/2
f 122/29/2 123/31/2 124/30/2
f 122/29/2 124/30/2 121/32/2
f 126/33/2 127/35/2 128/34/2
f 126/33/2 128/34/2 125/36/2
f 130/37/2 131/39/2 132/38/2
f 130/37/2 132/38/2 129/40/2
f 134/41/2 135/43/2 136/42/2
f 134/41/2 136/42/2 133/44/2
f 138/45/2 139/47/2 140/46/2
f 138/45/2 140/46/2 137/48/2
f 142/49/2 143/51/2 144/50/2
f 142/49/2 144/50/2 141/52/2
f 146/53/2 147/55/2 148/54/2
f 146/53/2 148/54/2 145/56/2
f 150/57/2 151/59/2 152/58/2
f 150/57/2 152/58/2 149/60/2
f 154/61/2 155/63/2 156/62/2
f 154/61/2 156/62/2 153/64/2
f 158/65/2 159/67/2 160/66/2
f 158/65/2 160/66/2 157/68/2
f 162/69/2 163/71/2 164/70/2
f 162/69/2 164/70/2 161/72/2
f 166/73/2 167/75/2 168/74/2
f 166/73/2 168/74/2 165/76/2
f 170/77/2 171/79/2 172/78/2
f 170/77/2 172/78/2 169/80/2
f 174/81/2 175/83/2 176/82/2
f 174/81/2 176/82/2 173/84/2
f 90/85/2 91/87/2 92/86/2
f 90/85/2 92/86/2 89/88/2
s 1
f 178/89/3 180/90/4 179/91/4 177/88/3
f 180/90/4 182/92/5 181/93/5 179/91/4
f 182/92/5 184/94/6 183/95/6 181/93/5
f 184/94/6 178/96/3 177/82/3 183/95/6
f 186/89/3 188/90/4 187/91/4 185/88/3
f 188/90/4 190/92/5 189/93/5 187/91/4
f 190/92/5 192/94/6 191/95/6 189/93/5
f 192/94/6 186/96/3 185/82/3 191/95/6
f 194/89/3 196/90/4 195/91/4 193/88/3
f 196/90/4 198/92/5 197/93/5 195/91/4
f 198/92/5 200/94/6 199/95/6 197/93/5
f 200/94/6 194/96/3 193/82/3 199/95/6
f 202/89/3 204/90/4 203/91/4 201/88/3
f 204/90/4 206/92/5 205/93/5 203/91/4
f 206/92/5 208/94/6 207/95/6 205/93/5
f 208/94/6 202/96/3 201/82/3 207/95/6
f 210/89/3 212/90/4 211/91/4 209/88/3
f 212/90/4 214/92/5 213/93/5 211/91/4
f 214/92/5 216/94/6 215/95/6 213/93/5
f 216/94/6 210/96/3 209/82/3 215/95/6
f 218/89/3 220/90/4 219/91/4 217/88/3
f 220/90/4 222/92/5 221/93/5 219/91/4
f 222/92/5 224/94/6 223/95/6 221/93/5
f 224/94/6 218/96/3 217/82/3 223/95/6
f 226/89/3 228/90/4 227/91/4 225/88/3
f 228/90/4 230/92/5 229/93/5 227/91/4
f 230/92/5 232/94/6 231/95/6 229/93/5
f 232/94/6 226/96/3 225/82/3 231/95/6
f 234/89/3 236/90/4 235/91/4 233/88/3
f 236/90/4 238/92/5 237/93/5 235/91/4
f 238/92/5 240/94/6 239/95/6 237/93/5
f 240/94/6 234/96/3 233/82/3 239/95/6
f 242/89/3 244/90/4 243/91/4 241/88/3
f 244/90/4 246/92/5 245/93/5 243/91/4
f 246/92/5 248/94/6 247/95/6 245/93/5
f 248/94/6 242/96/3 241/82/3 247/95/6
f 250/89/3 252/90/4 251/91/4 249/88/3
f 252/90/4 254/92/5 253/93/5 251/91/4
f 254/92/5 256/94/6 255/95/6 253/93/5
f 256/94/6 250/96/3 249/82/3 255/95/6
f 258/89/3 260/90/4 259/91/4 257/88/3
f 260/90/4 262/92/5 261/93/5 259/91/4
f 262/92/5 264/94/6 263/95/6 261/93/5
f 264/94/6 258/96/3 257/82/3 263/95/6
f 266/89/3 268/90/4 267/91/4 265/88/3
f 268/90/4 270/92/5 269/93/5 267/91/4
f 270/92/5 272/94/6 271/95/6 269/93/5
f 272/94/6 266/96/3 265/82/3 271/95/6
f 274/89/3 276/90/4 275/91/4 273/88/3
f 276/90/4 278/92/5 277/93/5 275/91/4
f 278/92/5 280/94/6 279/95/6 277/93/5
f 280/94/6 274/96/3 273/82/3 279/95/6
f 282/89/3 284/90/4 283/91/4 281/88/3
f 284/90/4 286/92/5 285/93/5 283/91/4
f 286/92/5 288/94/6 287/95/6 285/93/5
f 288/94/6 282/96/3 281/82/3 287/95/6
f 290/89/3 292/90/4 291/91/4 289/88/3
f 292/90/4 294/92/5 293/93/5 291/91/4
f 294/92/5 296/94/6 295/95/6 293/93/5
f 296/94/6 290/96/3 289/82/3 295/95/6
f 298/89/3 300/90/4 299/91/4 297/88/3
f 300/90/4 302/92/5 301/93/5 299/91/4
f 302/92/5 304/94/6 303/95/6 301/93/5
f 304/94/6 298/96/3 297/82/3 303/95/6
f 306/89/3 308/90/4 307/91/4 305/88/3
f 308/90/4 310/92/5 309/93/5 307/91/4
f 310/92/5 312/94/6 311/95/6 309/93/5
f 312/94/6 306/96/3 305/82/3 311/95/6
f 314/89/3 316/90/4 315/91/4 313/88/3
f 316/90/4 318/92/5 317/93/5 315/91/4
f 318/92/5 320/94/6 319/95/6 317/93/5
f 320/94/6 314/96/3 313/82/3 319/95/6
f 322/89/3 324/90/4 323/91/4 321/88/3
f 324/90/4 326/92/5 325/93/5 323/91/4
f 326/92/5 328/94/6 327/95/6 325/93/5
f 328/94/6 322/96/3 321/82/3 327/95/6
f 330/89/3 332/90/4 331/91/4 329/88/3
f 332/90/4 334/92/5 333/93/5 331/91/4
f 334/92/5 336/94/6 335/95/6 333/93/5
f 336/94/6 330/96/3 329/82/3 335/95/6
f 338/89/3 340/90/4 339/91/4 337/88/3
f 340/90/4 342/92/5 341/93/5 339/91/4
f 342/92/5 344/94/6 343/95/6 341/93/5
f 344/94/6 338/96/3 337/82/3 343/95/6
f 346/89/3 348/90/4 347/91/4 345/88/3
f 348/90/4 350/92/5 349/93/5 347/91/4
f 350/92/5 352/94/6 351/95/6 349/93/5
f 352/94/6 346/96/3 345/82/3 351/95/6
